<?xml version="1.0" encoding="UTF-8" standalone="no"?>
<svg
   xmlns:dc="http://purl.org/dc/elements/1.1/"
   xmlns:cc="http://creativecommons.org/ns#"
   xmlns:rdf="http://www.w3.org/1999/02/22-rdf-syntax-ns#"
   xmlns:svg="http://www.w3.org/2000/svg"
   xmlns="http://www.w3.org/2000/svg"
   xmlns:sodipodi="http://sodipodi.sourceforge.net/DTD/sodipodi-0.dtd"
   xmlns:inkscape="http://www.inkscape.org/namespaces/inkscape"
   version="1.1"
   id="svg2"
   xml:space="preserve"
   width="755.90533"
   height="755.90533"
   viewBox="0 0 755.90533 755.90533"
   sodipodi:docname="Albatross.ai"><metadata
     id="metadata8"><rdf:RDF><cc:Work
         rdf:about=""><dc:format>image/svg+xml</dc:format><dc:type
           rdf:resource="http://purl.org/dc/dcmitype/StillImage" /></cc:Work></rdf:RDF></metadata><defs
     id="defs6"><clipPath
       clipPathUnits="userSpaceOnUse"
       id="clipPath18"><path
         d="M 0,566.929 H 566.929 V 0 H 0 Z"
         id="path16" /></clipPath></defs><sodipodi:namedview
     pagecolor="#ffffff"
     bordercolor="#666666"
     borderopacity="1"
     objecttolerance="10"
     gridtolerance="10"
     guidetolerance="10"
     inkscape:pageopacity="0"
     inkscape:pageshadow="2"
     inkscape:window-width="640"
     inkscape:window-height="480"
     id="namedview4" /><g
     id="g10"
     inkscape:groupmode="layer"
     inkscape:label="Albatross"
     transform="matrix(1.3333333,0,0,-1.3333333,0,755.90533)"><g
       id="g12"><g
         id="g14"
         clip-path="url(#clipPath18)"><g
           id="g20"
           transform="translate(283.3638,386.1196)"><path
             d="m 0,0 c 0,0 -3.882,-4.703 -3.882,-20.376 0,0 -6.136,-6.366 -6.136,-18.513 v -35.653 c 0,0 -8.393,-12.44 -10.56,-20.963 -18.772,-0.978 -71.748,-3.331 -99.636,0.393 -34.204,4.603 -45.034,8.227 -66.153,8.227 -21.119,0 -64.709,-7.151 -68.501,-11.753 -3.7,-4.605 15.975,-9.406 19.946,-9.21 0,0 6.137,-4.015 14.35,-3.819 0,0 5.865,-7.837 13.809,-7.641 0,0 17.869,-12.928 45.035,-16.749 27.255,-3.82 132.125,-14.79 144.671,-27.329 4.512,-14.888 -0.361,-17.337 -0.723,-22.92 -0.45,-6.368 4.694,-7.64 4.694,-7.64 0,0 0,-7.15 6.588,-7.15 0,0 0.361,-4.214 6.588,-4.214 6.227,0 6.679,4.214 6.679,4.214 6.589,0 6.589,7.15 6.589,7.15 0,0 5.142,1.272 4.691,7.64 -0.451,5.583 -5.324,8.032 -0.811,22.92 12.545,12.539 117.507,23.509 144.672,27.329 27.256,3.821 45.034,16.749 45.034,16.749 8.032,-0.196 13.9,7.641 13.9,7.641 8.212,-0.196 14.258,3.819 14.258,3.819 4.063,-0.196 23.736,4.605 19.946,9.21 -3.7,4.602 -47.381,11.753 -68.501,11.753 -21.118,0 -31.858,-3.624 -66.153,-8.227 -27.797,-3.724 -80.773,-1.371 -99.637,-0.393 -2.165,8.523 -10.468,20.963 -10.468,20.963 v 35.653 c 0,12.147 -6.228,18.513 -6.228,18.513 C 4.061,-4.703 0.181,0 0.181,0 L 0,-2.646 Z"
             style="fill:#010101;fill-opacity:1;fill-rule:evenodd;stroke:none"
             id="path22" /></g></g></g></g></svg>
