<svg width="73" height="50" viewBox="0 0 73 50" fill="none" xmlns="http://www.w3.org/2000/svg">
<path d="M48.2153 25.3756L72.7369 40.8777V9.21875L48.2153 25.3756Z" fill="#EDBC7D"/>
<path d="M0 9.21875V40.8777L24.5216 25.3756L0 9.21875Z" fill="#EDBC7D"/>
<path d="M68.1912 0H4.54594C2.27744 0 0.477187 1.69115 0.13623 3.86872L36.3686 27.7402L72.6009 3.86872C72.26 1.69115 70.4597 0 68.1912 0Z" fill="#EDBC7D"/>
<path d="M44.0512 28.1139L37.6184 32.3509C37.2366 32.6009 36.8047 32.7237 36.3683 32.7237C35.9318 32.7237 35.5 32.6009 35.1181 32.3509L28.6854 28.1094L0.14502 46.1619C0.495069 48.3213 2.28623 49.9988 4.54564 49.9988H68.1909C70.4503 49.9988 72.2415 48.3213 72.5915 46.1619L44.0512 28.1139Z" fill="#EDBC7D"/>
</svg>
