<svg width="175" height="121" viewBox="0 0 175 121" fill="none" xmlns="http://www.w3.org/2000/svg">
<path d="M116.003 61.0555L175 98.3524V22.1836L116.003 61.0555Z" fill="#EDBC7D"/>
<path d="M0 22.1836V98.3524L58.9969 61.0555L0 22.1836Z" fill="#EDBC7D"/>
<path d="M164.063 0H10.9375C5.47969 0 1.14844 4.06875 0.328125 9.30782L87.5001 66.7407L174.672 9.30782C173.852 4.06875 169.52 0 164.063 0Z" fill="#EDBC7D"/>
<path d="M105.984 67.6594L90.5075 77.8531C89.5887 78.4547 88.5497 78.75 87.4997 78.75C86.4497 78.75 85.4106 78.4547 84.4919 77.8531L69.0153 67.6484L0.349609 111.081C1.1918 116.277 5.50118 120.313 10.9371 120.313H164.062C169.498 120.313 173.808 116.277 174.65 111.081L105.984 67.6594Z" fill="#EDBC7D"/>
</svg>
