<svg width="50" height="50" viewBox="0 0 50 50" fill="none" xmlns="http://www.w3.org/2000/svg">
<path d="M38.2372 8.92969C36.6179 8.92969 35.3062 10.2424 35.3062 11.8607C35.3062 13.48 36.6179 14.7926 38.2372 14.7926C39.8556 14.7926 41.1682 13.48 41.1682 11.8607C41.1682 10.2424 39.8556 8.92969 38.2372 8.92969Z" fill="#EDBC7D"/>
<path d="M25.2055 32.8891C20.8565 32.8891 17.3176 29.3511 17.3176 25.0012C17.3176 20.6514 20.8565 17.1135 25.2055 17.1135C29.5544 17.1135 33.0932 20.6514 33.0932 25.0012C33.0932 29.3511 29.5544 32.8891 25.2055 32.8891ZM25.2055 12.6875C18.4162 12.6875 12.8916 18.2112 12.8916 25.0012C12.8916 31.7905 18.4162 37.3151 25.2055 37.3151C31.9946 37.3151 37.5192 31.7905 37.5192 25.0012C37.5192 18.2112 31.9946 12.6875 25.2055 12.6875Z" fill="#EDBC7D"/>
<path d="M15.0189 4.70454C9.33106 4.70454 4.70363 9.33105 4.70363 15.0189V34.981C4.70363 40.6698 9.33106 45.2972 15.0189 45.2972H34.9811C40.669 45.2972 45.2964 40.6698 45.2964 34.981V15.0189C45.2964 9.33105 40.669 4.70454 34.9811 4.70454H15.0189ZM34.9811 50H15.0189C6.73749 50 0 43.2625 0 34.981V15.0189C0 6.73748 6.73749 0 15.0189 0H34.9811C43.2625 0 50.0009 6.73748 50.0009 15.0189V34.981C50.0009 43.2625 43.2625 50 34.9811 50Z" fill="#EDBC7D"/>
</svg>
