<svg width="39" height="39" viewBox="0 0 39 39" fill="none" xmlns="http://www.w3.org/2000/svg">
<path d="M29.7566 6.94908C28.4964 6.94908 27.4756 7.97061 27.4756 9.23004C27.4756 10.4902 28.4964 11.5117 29.7566 11.5117C31.016 11.5117 32.0375 10.4902 32.0375 9.23004C32.0375 7.97061 31.016 6.94908 29.7566 6.94908Z" fill="#EDBC7D"/>
<path d="M19.615 25.5947C16.2306 25.5947 13.4766 22.8414 13.4766 19.4563C13.4766 16.0712 16.2306 13.318 19.615 13.318C22.9994 13.318 25.7533 16.0712 25.7533 19.4563C25.7533 22.8414 22.9994 25.5947 19.615 25.5947ZM19.615 9.8736C14.3315 9.8736 10.0322 14.1722 10.0322 19.4563C10.0322 24.7398 14.3315 29.0391 19.615 29.0391C24.8984 29.0391 29.1977 24.7398 29.1977 19.4563C29.1977 14.1722 24.8984 9.8736 19.615 9.8736Z" fill="#EDBC7D"/>
<path d="M11.6879 3.66074C7.26154 3.66074 3.66042 7.26115 3.66042 11.6875V27.2222C3.66042 31.6493 7.26154 35.2504 11.6879 35.2504H27.2227C31.6491 35.2504 35.2502 31.6493 35.2502 27.2222V11.6875C35.2502 7.26115 31.6491 3.66074 27.2227 3.66074H11.6879ZM27.2227 38.9102H11.6879C5.24319 38.9102 0 33.667 0 27.2222V11.6875C0 5.2428 5.24319 -0.000385284 11.6879 -0.000385284H27.2227C33.6674 -0.000385284 38.9113 5.2428 38.9113 11.6875V27.2222C38.9113 33.667 33.6674 38.9102 27.2227 38.9102Z" fill="#EDBC7D"/>
</svg>
