<?xml version="1.0" encoding="UTF-8" standalone="no"?>
<svg
   xmlns:dc="http://purl.org/dc/elements/1.1/"
   xmlns:cc="http://creativecommons.org/ns#"
   xmlns:rdf="http://www.w3.org/1999/02/22-rdf-syntax-ns#"
   xmlns:svg="http://www.w3.org/2000/svg"
   xmlns="http://www.w3.org/2000/svg"
   viewBox="0 0 1889.76 1889.76"
   height="1889.76"
   width="1889.76"
   xml:space="preserve"
   id="svg2"
   version="1.1"><metadata
     id="metadata8"><rdf:RDF><cc:Work
         rdf:about=""><dc:format>image/svg+xml</dc:format><dc:type
           rdf:resource="http://purl.org/dc/dcmitype/StillImage" /></cc:Work></rdf:RDF></metadata><defs
     id="defs6"><clipPath
       id="clipPath26"
       clipPathUnits="userSpaceOnUse"><path
         id="path24"
         d="M 0,1417.323 H 1417.323 V 0 H 0 Z" /></clipPath><clipPath
       id="clipPath74"
       clipPathUnits="userSpaceOnUse"><path
         id="path72"
         d="M 0,1417.323 H 1417.323 V 0 H 0 Z" /></clipPath><clipPath
       id="clipPath138"
       clipPathUnits="userSpaceOnUse"><path
         id="path136"
         d="M 0,1417.323 H 1417.323 V 0 H 0 Z" /></clipPath><pattern
       id="pattern214"
       height="72"
       width="72"
       y="0"
       x="0"
       patternUnits="userSpaceOnUse"
       patternTransform="matrix(3.3,0,0,3.06,16193.195,-14822.091)"><g
         id="g144"
         transform="translate(71.75,6)"><path
           id="path142"
           style="fill:none;stroke:#231f20;stroke-opacity:1;stroke-width:4.8;stroke-linecap:butt;stroke-linejoin:miter;stroke-miterlimit:4;stroke-dasharray:none"
           d="M 0,0 72.5,0" /></g><g
         id="g148"
         transform="translate(71.75,30)"><path
           id="path146"
           style="fill:none;stroke:#231f20;stroke-opacity:1;stroke-width:4.8;stroke-linecap:butt;stroke-linejoin:miter;stroke-miterlimit:4;stroke-dasharray:none"
           d="M 0,0 72.5,0" /></g><g
         id="g152"
         transform="translate(71.75,54)"><path
           id="path150"
           style="fill:none;stroke:#231f20;stroke-opacity:1;stroke-width:4.8;stroke-linecap:butt;stroke-linejoin:miter;stroke-miterlimit:4;stroke-dasharray:none"
           d="M 0,0 72.5,0" /></g><g
         id="g156"
         transform="translate(71.75,18)"><path
           id="path154"
           style="fill:none;stroke:#231f20;stroke-opacity:1;stroke-width:4.8;stroke-linecap:butt;stroke-linejoin:miter;stroke-miterlimit:4;stroke-dasharray:none"
           d="M 0,0 72.5,0" /></g><g
         id="g160"
         transform="translate(71.75,42)"><path
           id="path158"
           style="fill:none;stroke:#231f20;stroke-opacity:1;stroke-width:4.8;stroke-linecap:butt;stroke-linejoin:miter;stroke-miterlimit:4;stroke-dasharray:none"
           d="M 0,0 72.5,0" /></g><g
         id="g164"
         transform="translate(71.75,66)"><path
           id="path162"
           style="fill:none;stroke:#231f20;stroke-opacity:1;stroke-width:4.8;stroke-linecap:butt;stroke-linejoin:miter;stroke-miterlimit:4;stroke-dasharray:none"
           d="M 0,0 72.5,0" /></g><g
         id="g168"
         transform="translate(-0.25,6)"><path
           id="path166"
           style="fill:none;stroke:#231f20;stroke-opacity:1;stroke-width:4.8;stroke-linecap:butt;stroke-linejoin:miter;stroke-miterlimit:4;stroke-dasharray:none"
           d="M 0,0 72.5,0" /></g><g
         id="g172"
         transform="translate(-0.25,30)"><path
           id="path170"
           style="fill:none;stroke:#231f20;stroke-opacity:1;stroke-width:4.8;stroke-linecap:butt;stroke-linejoin:miter;stroke-miterlimit:4;stroke-dasharray:none"
           d="M 0,0 72.5,0" /></g><g
         id="g176"
         transform="translate(-0.25,54)"><path
           id="path174"
           style="fill:none;stroke:#231f20;stroke-opacity:1;stroke-width:4.8;stroke-linecap:butt;stroke-linejoin:miter;stroke-miterlimit:4;stroke-dasharray:none"
           d="M 0,0 72.5,0" /></g><g
         id="g180"
         transform="translate(-0.25,18)"><path
           id="path178"
           style="fill:none;stroke:#231f20;stroke-opacity:1;stroke-width:4.8;stroke-linecap:butt;stroke-linejoin:miter;stroke-miterlimit:4;stroke-dasharray:none"
           d="M 0,0 72.5,0" /></g><g
         id="g184"
         transform="translate(-0.25,42)"><path
           id="path182"
           style="fill:none;stroke:#231f20;stroke-opacity:1;stroke-width:4.8;stroke-linecap:butt;stroke-linejoin:miter;stroke-miterlimit:4;stroke-dasharray:none"
           d="M 0,0 72.5,0" /></g><g
         id="g188"
         transform="translate(-0.25,66)"><path
           id="path186"
           style="fill:none;stroke:#231f20;stroke-opacity:1;stroke-width:4.8;stroke-linecap:butt;stroke-linejoin:miter;stroke-miterlimit:4;stroke-dasharray:none"
           d="M 0,0 72.5,0" /></g><g
         id="g192"
         transform="translate(-72.25,6)"><path
           id="path190"
           style="fill:none;stroke:#231f20;stroke-opacity:1;stroke-width:4.8;stroke-linecap:butt;stroke-linejoin:miter;stroke-miterlimit:4;stroke-dasharray:none"
           d="M 0,0 72.5,0" /></g><g
         id="g196"
         transform="translate(-72.25,30)"><path
           id="path194"
           style="fill:none;stroke:#231f20;stroke-opacity:1;stroke-width:4.8;stroke-linecap:butt;stroke-linejoin:miter;stroke-miterlimit:4;stroke-dasharray:none"
           d="M 0,0 72.5,0" /></g><g
         id="g200"
         transform="translate(-72.25,54)"><path
           id="path198"
           style="fill:none;stroke:#231f20;stroke-opacity:1;stroke-width:4.8;stroke-linecap:butt;stroke-linejoin:miter;stroke-miterlimit:4;stroke-dasharray:none"
           d="M 0,0 72.5,0" /></g><g
         id="g204"
         transform="translate(-72.25,18)"><path
           id="path202"
           style="fill:none;stroke:#231f20;stroke-opacity:1;stroke-width:4.8;stroke-linecap:butt;stroke-linejoin:miter;stroke-miterlimit:4;stroke-dasharray:none"
           d="M 0,0 72.5,0" /></g><g
         id="g208"
         transform="translate(-72.25,42)"><path
           id="path206"
           style="fill:none;stroke:#231f20;stroke-opacity:1;stroke-width:4.8;stroke-linecap:butt;stroke-linejoin:miter;stroke-miterlimit:4;stroke-dasharray:none"
           d="M 0,0 72.5,0" /></g><g
         id="g212"
         transform="translate(-72.25,66)"><path
           id="path210"
           style="fill:none;stroke:#231f20;stroke-opacity:1;stroke-width:4.8;stroke-linecap:butt;stroke-linejoin:miter;stroke-miterlimit:4;stroke-dasharray:none"
           d="M 0,0 72.5,0" /></g></pattern><clipPath
       id="clipPath240"
       clipPathUnits="userSpaceOnUse"><path
         id="path238"
         d="M 0,1417.323 H 1417.323 V 0 H 0 Z" /></clipPath><clipPath
       id="clipPath280"
       clipPathUnits="userSpaceOnUse"><path
         id="path278"
         d="M 0,1417.323 H 1417.323 V 0 H 0 Z" /></clipPath><pattern
       id="pattern360"
       height="72"
       width="72"
       y="0"
       x="0"
       patternUnits="userSpaceOnUse"
       patternTransform="matrix(3,0,0,3,13583.335,-14058.748)"><g
         id="g290"
         transform="translate(71.75,6)"><path
           id="path288"
           style="fill:none;stroke:#231f20;stroke-opacity:1;stroke-width:4.8;stroke-linecap:butt;stroke-linejoin:miter;stroke-miterlimit:4;stroke-dasharray:none"
           d="M 0,0 72.5,0" /></g><g
         id="g294"
         transform="translate(71.75,30)"><path
           id="path292"
           style="fill:none;stroke:#231f20;stroke-opacity:1;stroke-width:4.8;stroke-linecap:butt;stroke-linejoin:miter;stroke-miterlimit:4;stroke-dasharray:none"
           d="M 0,0 72.5,0" /></g><g
         id="g298"
         transform="translate(71.75,54)"><path
           id="path296"
           style="fill:none;stroke:#231f20;stroke-opacity:1;stroke-width:4.8;stroke-linecap:butt;stroke-linejoin:miter;stroke-miterlimit:4;stroke-dasharray:none"
           d="M 0,0 72.5,0" /></g><g
         id="g302"
         transform="translate(71.75,18)"><path
           id="path300"
           style="fill:none;stroke:#231f20;stroke-opacity:1;stroke-width:4.8;stroke-linecap:butt;stroke-linejoin:miter;stroke-miterlimit:4;stroke-dasharray:none"
           d="M 0,0 72.5,0" /></g><g
         id="g306"
         transform="translate(71.75,42)"><path
           id="path304"
           style="fill:none;stroke:#231f20;stroke-opacity:1;stroke-width:4.8;stroke-linecap:butt;stroke-linejoin:miter;stroke-miterlimit:4;stroke-dasharray:none"
           d="M 0,0 72.5,0" /></g><g
         id="g310"
         transform="translate(71.75,66)"><path
           id="path308"
           style="fill:none;stroke:#231f20;stroke-opacity:1;stroke-width:4.8;stroke-linecap:butt;stroke-linejoin:miter;stroke-miterlimit:4;stroke-dasharray:none"
           d="M 0,0 72.5,0" /></g><g
         id="g314"
         transform="translate(-0.25,6)"><path
           id="path312"
           style="fill:none;stroke:#231f20;stroke-opacity:1;stroke-width:4.8;stroke-linecap:butt;stroke-linejoin:miter;stroke-miterlimit:4;stroke-dasharray:none"
           d="M 0,0 72.5,0" /></g><g
         id="g318"
         transform="translate(-0.25,30)"><path
           id="path316"
           style="fill:none;stroke:#231f20;stroke-opacity:1;stroke-width:4.8;stroke-linecap:butt;stroke-linejoin:miter;stroke-miterlimit:4;stroke-dasharray:none"
           d="M 0,0 72.5,0" /></g><g
         id="g322"
         transform="translate(-0.25,54)"><path
           id="path320"
           style="fill:none;stroke:#231f20;stroke-opacity:1;stroke-width:4.8;stroke-linecap:butt;stroke-linejoin:miter;stroke-miterlimit:4;stroke-dasharray:none"
           d="M 0,0 72.5,0" /></g><g
         id="g326"
         transform="translate(-0.25,18)"><path
           id="path324"
           style="fill:none;stroke:#231f20;stroke-opacity:1;stroke-width:4.8;stroke-linecap:butt;stroke-linejoin:miter;stroke-miterlimit:4;stroke-dasharray:none"
           d="M 0,0 72.5,0" /></g><g
         id="g330"
         transform="translate(-0.25,42)"><path
           id="path328"
           style="fill:none;stroke:#231f20;stroke-opacity:1;stroke-width:4.8;stroke-linecap:butt;stroke-linejoin:miter;stroke-miterlimit:4;stroke-dasharray:none"
           d="M 0,0 72.5,0" /></g><g
         id="g334"
         transform="translate(-0.25,66)"><path
           id="path332"
           style="fill:none;stroke:#231f20;stroke-opacity:1;stroke-width:4.8;stroke-linecap:butt;stroke-linejoin:miter;stroke-miterlimit:4;stroke-dasharray:none"
           d="M 0,0 72.5,0" /></g><g
         id="g338"
         transform="translate(-72.25,6)"><path
           id="path336"
           style="fill:none;stroke:#231f20;stroke-opacity:1;stroke-width:4.8;stroke-linecap:butt;stroke-linejoin:miter;stroke-miterlimit:4;stroke-dasharray:none"
           d="M 0,0 72.5,0" /></g><g
         id="g342"
         transform="translate(-72.25,30)"><path
           id="path340"
           style="fill:none;stroke:#231f20;stroke-opacity:1;stroke-width:4.8;stroke-linecap:butt;stroke-linejoin:miter;stroke-miterlimit:4;stroke-dasharray:none"
           d="M 0,0 72.5,0" /></g><g
         id="g346"
         transform="translate(-72.25,54)"><path
           id="path344"
           style="fill:none;stroke:#231f20;stroke-opacity:1;stroke-width:4.8;stroke-linecap:butt;stroke-linejoin:miter;stroke-miterlimit:4;stroke-dasharray:none"
           d="M 0,0 72.5,0" /></g><g
         id="g350"
         transform="translate(-72.25,18)"><path
           id="path348"
           style="fill:none;stroke:#231f20;stroke-opacity:1;stroke-width:4.8;stroke-linecap:butt;stroke-linejoin:miter;stroke-miterlimit:4;stroke-dasharray:none"
           d="M 0,0 72.5,0" /></g><g
         id="g354"
         transform="translate(-72.25,42)"><path
           id="path352"
           style="fill:none;stroke:#231f20;stroke-opacity:1;stroke-width:4.8;stroke-linecap:butt;stroke-linejoin:miter;stroke-miterlimit:4;stroke-dasharray:none"
           d="M 0,0 72.5,0" /></g><g
         id="g358"
         transform="translate(-72.25,66)"><path
           id="path356"
           style="fill:none;stroke:#231f20;stroke-opacity:1;stroke-width:4.8;stroke-linecap:butt;stroke-linejoin:miter;stroke-miterlimit:4;stroke-dasharray:none"
           d="M 0,0 72.5,0" /></g></pattern><pattern
       id="pattern438"
       height="72"
       width="72"
       y="0"
       x="0"
       patternUnits="userSpaceOnUse"
       patternTransform="matrix(3,0,0,3,13583.335,-14058.748)"><g
         id="g368"
         transform="translate(71.75,6)"><path
           id="path366"
           style="fill:none;stroke:#231f20;stroke-opacity:1;stroke-width:4.8;stroke-linecap:butt;stroke-linejoin:miter;stroke-miterlimit:4;stroke-dasharray:none"
           d="M 0,0 72.5,0" /></g><g
         id="g372"
         transform="translate(71.75,30)"><path
           id="path370"
           style="fill:none;stroke:#231f20;stroke-opacity:1;stroke-width:4.8;stroke-linecap:butt;stroke-linejoin:miter;stroke-miterlimit:4;stroke-dasharray:none"
           d="M 0,0 72.5,0" /></g><g
         id="g376"
         transform="translate(71.75,54)"><path
           id="path374"
           style="fill:none;stroke:#231f20;stroke-opacity:1;stroke-width:4.8;stroke-linecap:butt;stroke-linejoin:miter;stroke-miterlimit:4;stroke-dasharray:none"
           d="M 0,0 72.5,0" /></g><g
         id="g380"
         transform="translate(71.75,18)"><path
           id="path378"
           style="fill:none;stroke:#231f20;stroke-opacity:1;stroke-width:4.8;stroke-linecap:butt;stroke-linejoin:miter;stroke-miterlimit:4;stroke-dasharray:none"
           d="M 0,0 72.5,0" /></g><g
         id="g384"
         transform="translate(71.75,42)"><path
           id="path382"
           style="fill:none;stroke:#231f20;stroke-opacity:1;stroke-width:4.8;stroke-linecap:butt;stroke-linejoin:miter;stroke-miterlimit:4;stroke-dasharray:none"
           d="M 0,0 72.5,0" /></g><g
         id="g388"
         transform="translate(71.75,66)"><path
           id="path386"
           style="fill:none;stroke:#231f20;stroke-opacity:1;stroke-width:4.8;stroke-linecap:butt;stroke-linejoin:miter;stroke-miterlimit:4;stroke-dasharray:none"
           d="M 0,0 72.5,0" /></g><g
         id="g392"
         transform="translate(-0.25,6)"><path
           id="path390"
           style="fill:none;stroke:#231f20;stroke-opacity:1;stroke-width:4.8;stroke-linecap:butt;stroke-linejoin:miter;stroke-miterlimit:4;stroke-dasharray:none"
           d="M 0,0 72.5,0" /></g><g
         id="g396"
         transform="translate(-0.25,30)"><path
           id="path394"
           style="fill:none;stroke:#231f20;stroke-opacity:1;stroke-width:4.8;stroke-linecap:butt;stroke-linejoin:miter;stroke-miterlimit:4;stroke-dasharray:none"
           d="M 0,0 72.5,0" /></g><g
         id="g400"
         transform="translate(-0.25,54)"><path
           id="path398"
           style="fill:none;stroke:#231f20;stroke-opacity:1;stroke-width:4.8;stroke-linecap:butt;stroke-linejoin:miter;stroke-miterlimit:4;stroke-dasharray:none"
           d="M 0,0 72.5,0" /></g><g
         id="g404"
         transform="translate(-0.25,18)"><path
           id="path402"
           style="fill:none;stroke:#231f20;stroke-opacity:1;stroke-width:4.8;stroke-linecap:butt;stroke-linejoin:miter;stroke-miterlimit:4;stroke-dasharray:none"
           d="M 0,0 72.5,0" /></g><g
         id="g408"
         transform="translate(-0.25,42)"><path
           id="path406"
           style="fill:none;stroke:#231f20;stroke-opacity:1;stroke-width:4.8;stroke-linecap:butt;stroke-linejoin:miter;stroke-miterlimit:4;stroke-dasharray:none"
           d="M 0,0 72.5,0" /></g><g
         id="g412"
         transform="translate(-0.25,66)"><path
           id="path410"
           style="fill:none;stroke:#231f20;stroke-opacity:1;stroke-width:4.8;stroke-linecap:butt;stroke-linejoin:miter;stroke-miterlimit:4;stroke-dasharray:none"
           d="M 0,0 72.5,0" /></g><g
         id="g416"
         transform="translate(-72.25,6)"><path
           id="path414"
           style="fill:none;stroke:#231f20;stroke-opacity:1;stroke-width:4.8;stroke-linecap:butt;stroke-linejoin:miter;stroke-miterlimit:4;stroke-dasharray:none"
           d="M 0,0 72.5,0" /></g><g
         id="g420"
         transform="translate(-72.25,30)"><path
           id="path418"
           style="fill:none;stroke:#231f20;stroke-opacity:1;stroke-width:4.8;stroke-linecap:butt;stroke-linejoin:miter;stroke-miterlimit:4;stroke-dasharray:none"
           d="M 0,0 72.5,0" /></g><g
         id="g424"
         transform="translate(-72.25,54)"><path
           id="path422"
           style="fill:none;stroke:#231f20;stroke-opacity:1;stroke-width:4.8;stroke-linecap:butt;stroke-linejoin:miter;stroke-miterlimit:4;stroke-dasharray:none"
           d="M 0,0 72.5,0" /></g><g
         id="g428"
         transform="translate(-72.25,18)"><path
           id="path426"
           style="fill:none;stroke:#231f20;stroke-opacity:1;stroke-width:4.8;stroke-linecap:butt;stroke-linejoin:miter;stroke-miterlimit:4;stroke-dasharray:none"
           d="M 0,0 72.5,0" /></g><g
         id="g432"
         transform="translate(-72.25,42)"><path
           id="path430"
           style="fill:none;stroke:#231f20;stroke-opacity:1;stroke-width:4.8;stroke-linecap:butt;stroke-linejoin:miter;stroke-miterlimit:4;stroke-dasharray:none"
           d="M 0,0 72.5,0" /></g><g
         id="g436"
         transform="translate(-72.25,66)"><path
           id="path434"
           style="fill:none;stroke:#231f20;stroke-opacity:1;stroke-width:4.8;stroke-linecap:butt;stroke-linejoin:miter;stroke-miterlimit:4;stroke-dasharray:none"
           d="M 0,0 72.5,0" /></g></pattern></defs><g
     transform="matrix(1.3333333,0,0,-1.3333333,0,1889.76)"
     id="g10"><text
       id="text14"
       style="font-variant:normal;font-weight:bold;font-stretch:condensed;font-size:84.68859863px;font-family:HelveticaNeue;-inkscape-font-specification:HelveticaNeue-CondensedBlack;writing-mode:lr-tb;fill:#4eb0e7;fill-opacity:1;fill-rule:nonzero;stroke:none"
       transform="matrix(1,0,0,-1,283.3262,695.2305)"><tspan
         id="tspan12"
         y="0"
         x="0 52.506931 105.01386 157.5208 210.02773">2022 </tspan></text>
<g
       transform="translate(256.0859,606.0787)"
       id="g16"><path
         id="path18"
         style="fill:none;stroke:#4eb0e7;stroke-width:31;stroke-linecap:butt;stroke-linejoin:miter;stroke-miterlimit:10;stroke-dasharray:none;stroke-opacity:1"
         d="M 0,0 H 907.038" /></g><g
       id="g20"><g
         clip-path="url(#clipPath26)"
         id="g22"><g
           transform="translate(709.4331,1023.543)"
           id="g28"><path
             id="path30"
             style="fill:#050606;fill-opacity:1;fill-rule:evenodd;stroke:none"
             d="m 0,0 c 0,0 -6.609,-8.007 -6.609,-34.692 0,0 -10.447,-10.839 -10.447,-31.521 v -60.705 c 0,0 -14.291,-21.181 -17.981,-35.692 -31.961,-1.666 -122.161,-5.671 -169.644,0.67 -58.237,7.836 -76.676,14.007 -112.634,14.007 -35.959,0 -110.177,-12.175 -116.632,-20.012 -6.3,-7.84 27.199,-16.013 33.96,-15.68 0,0 10.449,-6.837 24.433,-6.503 0,0 9.987,-13.343 23.511,-13.009 0,0 30.425,-22.014 76.679,-28.518 46.406,-6.504 224.962,-25.183 246.323,-46.531 7.681,-25.35 -0.616,-29.519 -1.231,-39.024 -0.768,-10.843 7.991,-13.009 7.991,-13.009 0,0 0,-12.174 11.217,-12.174 0,0 0.614,-7.175 11.218,-7.175 10.601,0 11.372,7.175 11.372,7.175 11.218,0 11.218,12.174 11.218,12.174 0,0 8.756,2.166 7.988,13.009 -0.769,9.505 -9.065,13.674 -1.382,39.024 21.359,21.348 200.072,40.027 246.323,46.531 46.408,6.504 76.678,28.518 76.678,28.518 13.676,-0.334 23.667,13.009 23.667,13.009 13.982,-0.334 24.275,6.503 24.275,6.503 6.918,-0.333 40.415,7.84 33.961,15.68 -6.299,7.837 -80.673,20.012 -116.63,20.012 -35.957,0 -54.245,-6.171 -112.635,-14.007 -47.329,-6.341 -137.53,-2.336 -169.646,-0.67 -3.687,14.511 -17.825,35.692 -17.825,35.692 v 60.705 c 0,20.682 -10.603,31.521 -10.603,31.521 C 6.915,-8.007 0.309,0 0.309,0 L 0,-4.505 Z" /></g><g
           transform="translate(1107.25,762.0372)"
           id="g32"><path
             id="path34"
             style="fill:#050606;fill-opacity:1;fill-rule:nonzero;stroke:none"
             d="M 0,0 C 0,6.38 5.173,11.553 11.553,11.553 17.934,11.553 23.105,6.38 23.105,0 23.105,-6.38 17.934,-11.552 11.553,-11.552 5.173,-11.552 0,-6.38 0,0" /></g><g
           transform="translate(1107.25,762.0372)"
           id="g36"><path
             id="path38"
             style="fill:none;stroke:#050606;stroke-width:7;stroke-linecap:round;stroke-linejoin:round;stroke-miterlimit:10;stroke-dasharray:none;stroke-opacity:1"
             d="M 0,0 C 0,6.38 5.173,11.553 11.553,11.553 17.934,11.553 23.105,6.38 23.105,0 23.105,-6.38 17.934,-11.552 11.553,-11.552 5.173,-11.552 0,-6.38 0,0 Z" /></g><g
           transform="translate(1107.25,697.648)"
           id="g40"><path
             id="path42"
             style="fill:#f14f2a;fill-opacity:1;fill-rule:nonzero;stroke:none"
             d="m 0,0 c 0,6.381 5.173,11.553 11.553,11.553 6.381,0 11.552,-5.172 11.552,-11.553 0,-6.38 -5.171,-11.552 -11.552,-11.552 C 5.173,-11.552 0,-6.38 0,0" /></g><g
           transform="translate(1052.2363,696.6197)"
           id="g44"><path
             id="path46"
             style="fill:#050606;fill-opacity:1;fill-rule:nonzero;stroke:none"
             d="m 0,0 c -16.814,0 -30.446,13.631 -30.446,30.446 0,16.815 13.632,30.447 30.446,30.447 16.815,0 30.446,-13.632 30.446,-30.447 C 30.446,13.631 16.815,0 0,0 m 0,67.581 c -20.509,0 -37.134,-16.626 -37.134,-37.135 0,-20.508 16.625,-37.134 37.134,-37.134 20.509,0 37.135,16.626 37.135,37.134 0,20.509 -16.626,37.135 -37.135,37.135" /></g><g
           transform="translate(1052.2363,696.6197)"
           id="g48"><path
             id="path50"
             style="fill:none;stroke:#050606;stroke-width:7;stroke-linecap:round;stroke-linejoin:round;stroke-miterlimit:10;stroke-dasharray:none;stroke-opacity:1"
             d="m 0,0 c -16.814,0 -30.446,13.631 -30.446,30.446 0,16.815 13.632,30.447 30.446,30.447 16.815,0 30.446,-13.632 30.446,-30.447 C 30.446,13.631 16.815,0 0,0 Z m 0,67.581 c -20.509,0 -37.134,-16.626 -37.134,-37.135 0,-20.508 16.625,-37.134 37.134,-37.134 20.509,0 37.135,16.626 37.135,37.134 0,20.509 -16.626,37.135 -37.135,37.135 z" /></g><g
           transform="translate(992.2754,742.6627)"
           id="g52"><path
             id="path54"
             style="fill:none;stroke:#050606;stroke-width:7;stroke-linecap:butt;stroke-linejoin:round;stroke-miterlimit:10;stroke-dasharray:none;stroke-opacity:1"
             d="m 0,0 h -77.843 -77.842" /></g><g
           transform="translate(991.9609,727.191)"
           id="g56"><path
             id="path58"
             style="fill:none;stroke:#050606;stroke-width:7;stroke-linecap:butt;stroke-linejoin:round;stroke-miterlimit:10;stroke-dasharray:none;stroke-opacity:1"
             d="m 0,0 h -77.843 -77.843" /></g><g
           transform="translate(992.0576,712.4942)"
           id="g60"><path
             id="path62"
             style="fill:none;stroke:#050606;stroke-width:7;stroke-linecap:butt;stroke-linejoin:round;stroke-miterlimit:10;stroke-dasharray:none;stroke-opacity:1"
             d="m 0,0 h -77.843 -77.843" /></g></g></g><text
       id="text66"
       style="font-variant:normal;font-weight:bold;font-stretch:condensed;font-size:79.77310181px;font-family:HelveticaNeue;-inkscape-font-specification:HelveticaNeue-CondensedBlack;writing-mode:lr-tb;fill:#050606;fill-opacity:1;fill-rule:nonzero;stroke:none"
       transform="matrix(1,0,0,-1,281.3262,700.4434)"><tspan
         id="tspan64"
         y="0"
         x="0 49.459324 98.918648 148.37796 197.8373">2022 </tspan></text>
<g
       id="g68"><g
         clip-path="url(#clipPath74)"
         id="g70"><g
           transform="translate(1090.1514,396.5514)"
           id="g76"><path
             id="path78"
             style="fill:#f14f2a;fill-opacity:1;fill-rule:nonzero;stroke:none"
             d="m 0,0 c -1.343,-2.206 -3.653,-3.423 -6.027,-3.423 -1.231,0 -2.476,0.329 -3.612,1.015 -26.861,16.318 -57.755,30.844 -91.839,43.177 -3.417,1.239 -5.369,4.919 -4.524,8.528 12.047,51.072 19.077,105.222 20.903,160.937 0.123,3.901 3.258,6.999 7.078,6.999 H 58.702 c 1.959,0 3.834,-0.831 5.176,-2.292 1.336,-1.464 2.02,-3.43 1.895,-5.428 C 60.986,135.451 38.242,63.006 0,0 m -34.707,-49.593 c -42.927,-53.344 -98.106,-96.758 -159.57,-125.548 -0.955,-0.446 -1.958,-0.657 -2.955,-0.657 -2.139,0 -4.228,0.989 -5.605,2.808 -2.014,2.66 -1.972,6.391 0.104,9.006 33.364,41.967 60.571,94.633 80.851,156.536 0.609,1.849 1.917,3.37 3.633,4.219 0.976,0.481 2.027,0.722 3.085,0.722 0.817,0 1.634,-0.145 2.415,-0.431 27.773,-10.279 53.383,-22.318 76.119,-35.787 1.806,-1.063 3.052,-2.886 3.425,-4.979 0.366,-2.094 -0.181,-4.248 -1.502,-5.889 m -313.966,-163.144 c -0.519,-0.12 -1.045,-0.181 -1.57,-0.181 -1.592,0 -3.156,0.549 -4.422,1.581 -1.682,1.376 -2.664,3.459 -2.664,5.662 v 238.77 c 0,1.96 0.775,3.837 2.152,5.203 1.328,1.312 3.093,2.041 4.934,2.041 0.075,0 0.144,0 0.22,-0.005 63.125,-2.029 123.556,-10.524 179.611,-25.252 1.915,-0.506 3.534,-1.801 4.469,-3.58 0.94,-1.778 1.107,-3.876 0.47,-5.785 -40.069,-119.437 -108.555,-201.099 -183.2,-218.454 m -8.656,422.727 c 0,3.999 3.17,7.243 7.086,7.243 h 213.624 c 1.923,0 3.77,-0.803 5.105,-2.221 1.335,-1.418 2.049,-3.334 1.973,-5.301 -1.903,-50.364 -8.456,-99.523 -19.484,-146.118 -0.445,-1.889 -1.613,-3.512 -3.246,-4.509 -1.107,-0.68 -2.368,-1.03 -3.64,-1.03 -0.595,0 -1.196,0.078 -1.784,0.234 -60.467,16.092 -125.321,25.306 -192.763,27.378 -3.827,0.117 -6.871,3.324 -6.871,7.24 z M -401.667,92.906 c 0,-3.916 -3.044,-7.123 -6.871,-7.24 -67.4,-2.075 -132.247,-11.297 -192.748,-27.407 -0.589,-0.155 -1.191,-0.233 -1.785,-0.233 -1.274,0 -2.533,0.35 -3.64,1.029 -1.633,0.998 -2.803,2.621 -3.246,4.509 -11.036,46.617 -17.595,95.785 -19.498,146.147 -0.076,1.967 0.637,3.883 1.973,5.301 1.335,1.418 3.182,2.221 5.105,2.221 h 213.625 c 3.915,0 7.085,-3.244 7.085,-7.243 z m 0,-298.581 c 0,-2.203 -0.982,-4.286 -2.664,-5.662 -1.266,-1.032 -2.83,-1.581 -4.421,-1.581 -0.526,0 -1.053,0.061 -1.571,0.181 -74.645,17.355 -143.124,99.009 -183.194,218.422 -0.636,1.914 -0.47,4.01 0.472,5.789 0.934,1.775 2.552,3.073 4.469,3.576 56.017,14.727 116.444,23.229 179.602,25.274 0.07,0.004 0.145,0.004 0.222,0.004 1.84,0 3.604,-0.729 4.932,-2.042 1.378,-1.364 2.153,-3.242 2.153,-5.202 z m -154.492,32.685 c -1.377,-1.819 -3.468,-2.808 -5.605,-2.808 -0.997,0 -2,0.211 -2.947,0.657 -61.464,28.784 -116.651,72.202 -159.592,125.558 -1.322,1.643 -1.868,3.795 -1.502,5.89 0.374,2.093 1.626,3.915 3.425,4.979 22.508,13.326 48.13,25.342 76.161,35.708 0.774,0.287 1.591,0.432 2.407,0.432 1.058,0 2.11,-0.241 3.085,-0.723 1.716,-0.848 3.024,-2.369 3.634,-4.219 20.28,-61.88 47.472,-114.525 80.829,-156.468 2.077,-2.615 2.118,-6.343 0.105,-9.006 M -752.991,-3.395 c -2.373,0 -4.692,1.216 -6.026,3.424 -38.229,62.998 -60.966,135.437 -65.753,209.484 -0.125,1.998 0.561,3.964 1.895,5.428 1.342,1.461 3.218,2.292 5.176,2.292 h 136.723 c 3.819,0 6.954,-3.098 7.079,-6.999 1.826,-55.719 8.856,-109.868 20.903,-160.948 0.844,-3.607 -1.108,-7.288 -4.526,-8.527 -34.118,-12.343 -65.026,-26.856 -91.858,-43.139 -1.135,-0.689 -2.381,-1.015 -3.613,-1.015 m -116.792,263.719 c -0.269,-6.777 -0.419,-13.586 -0.419,-20.429 0,-276.618 220.128,-501.663 490.704,-501.663 270.576,0 490.704,225.045 490.704,501.663 0,6.843 -0.15,13.652 -0.419,20.429 z" /></g><g
           transform="translate(1139.3623,321.0689)"
           id="g80"><path
             id="path82"
             style="fill:#4eb0e7;fill-opacity:1;fill-rule:nonzero;stroke:none"
             d="M 0,0 -56.128,118.68 -130.844,10.731 Z" /></g></g></g><text
       id="text86"
       style="font-variant:normal;font-weight:bold;font-stretch:condensed;font-size:180.13182068px;font-family:HelveticaNeue;-inkscape-font-specification:HelveticaNeue-CondensedBlack;writing-mode:lr-tb;fill:#231f20;fill-opacity:1;fill-rule:nonzero;stroke:none"
       transform="matrix(0.29538923,0.59711048,0.955377,-0.47262276,210.3059,833.613)"><tspan
         id="tspan84"
         y="0"
         x="0">N</tspan></text>
<text
       id="text90"
       style="font-variant:normal;font-weight:bold;font-stretch:condensed;font-size:168.66418457px;font-family:HelveticaNeue;-inkscape-font-specification:HelveticaNeue-CondensedBlack;writing-mode:lr-tb;fill:#231f20;fill-opacity:1;fill-rule:nonzero;stroke:none"
       transform="matrix(0.43549378,0.56261976,0.90019174,-0.69678993,264.3185,932.2604)"><tspan
         id="tspan88"
         y="0"
         x="0">E</tspan></text>
<text
       id="text94"
       style="font-variant:normal;font-weight:bold;font-stretch:condensed;font-size:164.68768311px;font-family:HelveticaNeue;-inkscape-font-specification:HelveticaNeue-CondensedBlack;writing-mode:lr-tb;fill:#231f20;fill-opacity:1;fill-rule:nonzero;stroke:none"
       transform="matrix(0.54834518,0.47984704,0.76775502,-0.87735216,329.5165,1010.2335)"><tspan
         id="tspan92"
         y="0"
         x="0">X</tspan></text>
<text
       id="text98"
       style="font-variant:normal;font-weight:bold;font-stretch:condensed;font-size:176.36074829px;font-family:HelveticaNeue;-inkscape-font-specification:HelveticaNeue-CondensedBlack;writing-mode:lr-tb;fill:#231f20;fill-opacity:1;fill-rule:nonzero;stroke:none"
       transform="matrix(0.58672408,0.34457666,0.55132278,-0.93875818,412.1597,1076.7637)"><tspan
         id="tspan96"
         y="0"
         x="0">T</tspan></text>
<text
       id="text102"
       style="font-variant:normal;font-weight:bold;font-stretch:condensed;font-size:190.06468201px;font-family:HelveticaNeue;-inkscape-font-specification:HelveticaNeue-CondensedBlack;writing-mode:lr-tb;fill:#231f20;fill-opacity:1;fill-rule:nonzero;stroke:none"
       transform="matrix(0.62088546,0.11455837,0.18329286,-0.99341652,567.4221,1148.2188)"><tspan
         id="tspan100"
         y="0"
         x="0">M</tspan></text>
<text
       id="text106"
       style="font-variant:normal;font-weight:bold;font-stretch:condensed;font-size:191.93148804px;font-family:HelveticaNeue;-inkscape-font-specification:HelveticaNeue-CondensedBlack;writing-mode:lr-tb;fill:#231f20;fill-opacity:1;fill-rule:nonzero;stroke:none"
       transform="matrix(0.62485577,-0.02145766,-0.03433256,-0.99976976,697.9622,1166.1067)"><tspan
         id="tspan104"
         y="0"
         x="0">E</tspan></text>
<text
       id="text110"
       style="font-variant:normal;font-weight:bold;font-stretch:condensed;font-size:188.90034485px;font-family:HelveticaNeue;-inkscape-font-specification:HelveticaNeue-CondensedBlack;writing-mode:lr-tb;fill:#231f20;fill-opacity:1;fill-rule:nonzero;stroke:none"
       transform="matrix(0.61833555,-0.14564452,-0.23303134,-0.98933699,799.2348,1158.9471)"><tspan
         id="tspan108"
         y="0"
         x="0">R</tspan></text>
<text
       id="text114"
       style="font-variant:normal;font-weight:bold;font-stretch:condensed;font-size:182.89727783px;font-family:HelveticaNeue;-inkscape-font-specification:HelveticaNeue-CondensedBlack;writing-mode:lr-tb;fill:#231f20;fill-opacity:1;fill-rule:nonzero;stroke:none"
       transform="matrix(0.60421731,-0.25573043,-0.40916902,-0.96674813,906.1738,1128.4376)"><tspan
         id="tspan112"
         y="0"
         x="0">I</tspan></text>
<text
       id="text118"
       style="font-variant:normal;font-weight:bold;font-stretch:condensed;font-size:174.02679443px;font-family:HelveticaNeue;-inkscape-font-specification:HelveticaNeue-CondensedBlack;writing-mode:lr-tb;fill:#231f20;fill-opacity:1;fill-rule:nonzero;stroke:none"
       transform="matrix(0.57985436,-0.37316034,-0.59705631,-0.92776687,973.1784,1097.9004)"><tspan
         id="tspan116"
         y="0"
         x="0">D</tspan></text>
<text
       id="text122"
       style="font-variant:normal;font-weight:bold;font-stretch:condensed;font-size:162.96348572px;font-family:HelveticaNeue;-inkscape-font-specification:HelveticaNeue-CondensedBlack;writing-mode:lr-tb;fill:#231f20;fill-opacity:1;fill-rule:nonzero;stroke:none"
       transform="matrix(0.54170295,-0.49878658,-0.79805853,-0.86672484,1063.6429,1033.421)"><tspan
         id="tspan120"
         y="0"
         x="0">I</tspan></text>
<text
       id="text126"
       style="font-variant:normal;font-weight:bold;font-stretch:condensed;font-size:168.77418518px;font-family:HelveticaNeue;-inkscape-font-specification:HelveticaNeue-CondensedBlack;writing-mode:lr-tb;fill:#231f20;fill-opacity:1;fill-rule:nonzero;stroke:none"
       transform="matrix(0.43424886,-0.56299544,-0.90079294,-0.69479758,1116.3938,981.9835)"><tspan
         id="tspan124"
         y="0"
         x="0">A</tspan></text>
<text
       id="text130"
       style="font-variant:normal;font-weight:bold;font-stretch:condensed;font-size:180.40397644px;font-family:HelveticaNeue;-inkscape-font-specification:HelveticaNeue-CondensedBlack;writing-mode:lr-tb;fill:#231f20;fill-opacity:1;fill-rule:nonzero;stroke:none"
       transform="matrix(0.29164878,-0.59782828,-0.95652548,-0.46663827,1179.1786,894.0455)"><tspan
         id="tspan128"
         y="0"
         x="0">N</tspan></text>
<g
       id="g132"><g
         clip-path="url(#clipPath138)"
         id="g134"><g
           transform="translate(709.605,1116.191)"
           id="g140"><path
             id="path216"
             style="fill:url(#pattern214);fill-opacity:1;fill-rule:nonzero;stroke:none"
             d="M 0,0 C -178.744,0 -335.15,-95.581 -420.94,-238.409 H 420.94 C 335.15,-95.581 178.744,0 0,0" /></g></g></g><text
       id="text220"
       style="font-variant:normal;font-weight:bold;font-stretch:condensed;font-size:145.73951721px;font-family:HelveticaNeue;-inkscape-font-specification:HelveticaNeue-CondensedBlack;writing-mode:lr-tb;fill:#050606;fill-opacity:1;fill-rule:nonzero;stroke:none"
       transform="matrix(0.21334021,0.75372349,0.97697797,-0.27653241,209.2211,843.1194)"><tspan
         id="tspan218"
         y="0"
         x="0">N</tspan></text>
<text
       id="text224"
       style="font-variant:normal;font-weight:bold;font-stretch:condensed;font-size:140.66941833px;font-family:HelveticaNeue;-inkscape-font-specification:HelveticaNeue-CondensedBlack;writing-mode:lr-tb;fill:#050606;fill-opacity:1;fill-rule:nonzero;stroke:none"
       transform="matrix(0.39591546,0.70844464,0.91828697,-0.51318614,250.2805,961.218)"><tspan
         id="tspan222"
         y="0"
         x="0">E</tspan></text>
<text
       id="text228"
       style="font-variant:normal;font-weight:bold;font-stretch:condensed;font-size:133.91900635px;font-family:HelveticaNeue;-inkscape-font-specification:HelveticaNeue-CondensedBlack;writing-mode:lr-tb;fill:#050606;fill-opacity:1;fill-rule:nonzero;stroke:none"
       transform="matrix(0.57000797,0.6338824,0.82163917,-0.73884584,311.2254,1057.6089)"><tspan
         id="tspan226"
         y="0"
         x="0">X</tspan></text>
<text
       id="text232"
       style="font-variant:normal;font-weight:bold;font-stretch:condensed;font-size:137.56300354px;font-family:HelveticaNeue;-inkscape-font-specification:HelveticaNeue-CondensedBlack;writing-mode:lr-tb;fill:#050606;fill-opacity:1;fill-rule:nonzero;stroke:none"
       transform="matrix(0.67650894,0.48068739,0.6230687,-0.87689203,394.9826,1140.7345)"><tspan
         id="tspan230"
         y="0"
         x="0">T</tspan></text>
<g
       id="g234"><g
         clip-path="url(#clipPath240)"
         id="g236"><text
           id="text244"
           style="font-variant:normal;font-weight:bold;font-stretch:condensed;font-size:146.7142334px;font-family:HelveticaNeue;-inkscape-font-specification:HelveticaNeue-CondensedBlack;writing-mode:lr-tb;fill:#050606;fill-opacity:1;fill-rule:nonzero;stroke:none"
           transform="matrix(0.76160915,0.15949509,0.20673796,-0.98719872,566.668,1231.21)"><tspan
             id="tspan242"
             y="0"
             x="0">M</tspan></text>
<text
           id="text248"
           style="font-variant:normal;font-weight:bold;font-stretch:condensed;font-size:147.91616821px;font-family:HelveticaNeue;-inkscape-font-specification:HelveticaNeue-CondensedBlack;writing-mode:lr-tb;fill:#050606;fill-opacity:1;fill-rule:nonzero;stroke:none"
           transform="matrix(0.77100969,-0.03508541,-0.04547779,-0.99938432,710.035,1251.8331)"><tspan
             id="tspan246"
             y="0"
             x="0">E</tspan></text>
</g></g><text
       id="text252"
       style="font-variant:normal;font-weight:bold;font-stretch:condensed;font-size:145.71923828px;font-family:HelveticaNeue;-inkscape-font-specification:HelveticaNeue-CondensedBlack;writing-mode:lr-tb;fill:#050606;fill-opacity:1;fill-rule:nonzero;stroke:none"
       transform="matrix(0.75355665,-0.21432723,-0.27781164,-0.97676192,823.9944,1240.4961)"><tspan
         id="tspan250"
         y="0"
         x="0">R</tspan></text>
<text
       id="text256"
       style="font-variant:normal;font-weight:bold;font-stretch:condensed;font-size:141.4286499px;font-family:HelveticaNeue;-inkscape-font-specification:HelveticaNeue-CondensedBlack;writing-mode:lr-tb;fill:#050606;fill-opacity:1;fill-rule:nonzero;stroke:none"
       transform="matrix(0.71572489,-0.37326597,-0.48382773,-0.92772437,938.457,1200.131)"><tspan
         id="tspan254"
         y="0"
         x="0">I</tspan></text>
<text
       id="text260"
       style="font-variant:normal;font-weight:bold;font-stretch:condensed;font-size:136.02015686px;font-family:HelveticaNeue;-inkscape-font-specification:HelveticaNeue-CondensedBlack;writing-mode:lr-tb;fill:#050606;fill-opacity:1;fill-rule:nonzero;stroke:none"
       transform="matrix(0.65921255,-0.51949651,-0.67337222,-0.85447257,1012.9005,1156.2231)"><tspan
         id="tspan258"
         y="0"
         x="0">D</tspan></text>
<text
       id="text264"
       style="font-variant:normal;font-weight:bold;font-stretch:condensed;font-size:135.34454346px;font-family:HelveticaNeue;-inkscape-font-specification:HelveticaNeue-CondensedBlack;writing-mode:lr-tb;fill:#050606;fill-opacity:1;fill-rule:nonzero;stroke:none"
       transform="matrix(0.53599873,-0.6513015,-0.84421879,-0.69476244,1101.7036,1075.3383)"><tspan
         id="tspan262"
         y="0"
         x="0">I</tspan></text>
<text
       id="text268"
       style="font-variant:normal;font-weight:bold;font-stretch:condensed;font-size:141.26170349px;font-family:HelveticaNeue;-inkscape-font-specification:HelveticaNeue-CondensedBlack;writing-mode:lr-tb;fill:#050606;fill-opacity:1;fill-rule:nonzero;stroke:none"
       transform="matrix(0.37833044,-0.71414051,-0.92567061,-0.49039338,1153.0283,1006.7755)"><tspan
         id="tspan266"
         y="0"
         x="0">A</tspan></text>
<text
       id="text272"
       style="font-variant:normal;font-weight:bold;font-stretch:condensed;font-size:146.18505859px;font-family:HelveticaNeue;-inkscape-font-specification:HelveticaNeue-CondensedBlack;writing-mode:lr-tb;fill:#050606;fill-opacity:1;fill-rule:nonzero;stroke:none"
       transform="matrix(0.1904928,-0.75735786,-0.98168859,-0.24691717,1203.7754,896.5414)"><tspan
         id="tspan270"
         y="0"
         x="0">N</tspan></text>
<g
       id="g274"><g
         clip-path="url(#clipPath280)"
         id="g276"><g
           transform="translate(1199.3652,695.0484)"
           id="g282"><path
             id="path284"
             style="fill:none;stroke:#80cc28;stroke-width:2;stroke-linecap:butt;stroke-linejoin:miter;stroke-miterlimit:10;stroke-dasharray:none;stroke-opacity:1"
             d="m 0,0 c 0,-271.008 -219.695,-490.703 -490.704,-490.703 -271.008,0 -490.704,219.695 -490.704,490.703 0,271.008 219.696,490.704 490.704,490.704 C -219.695,490.704 0,271.008 0,0 Z" /></g><g
           transform="translate(709.605,1167.2872)"
           id="g286"><path
             id="path362"
             style="fill:url(#pattern360);fill-opacity:1;fill-rule:nonzero;stroke:none"
             d="M 0,0 C -188.707,0 -352.531,-106.522 -434.632,-262.714 H 434.631 C 352.531,-106.522 188.707,0 0,0" /></g><g
           transform="translate(709.605,1167.2872)"
           id="g364"><path
             id="path440"
             style="fill:url(#pattern438);fill-opacity:1;fill-rule:nonzero;stroke:none"
             d="M 0,0 C -188.707,0 -352.531,-106.522 -434.632,-262.714 H 434.631 C 352.531,-106.522 188.707,0 0,0" /></g></g></g></g></svg>