<svg width="1820" height="648" viewBox="0 0 1820 648" fill="none" xmlns="http://www.w3.org/2000/svg">
<path d="M1772.43 648V0H1819.99V648H1772.43ZM1507.61 216.012H1554.87V421.453H1505.26L1431.26 289.38V421.453H1383.7V216.012H1433.31L1507.61 349.841V216.012ZM1196.1 210.727C1264.21 210.727 1304.73 262.383 1304.73 318.733C1304.73 375.082 1264.21 426.739 1196.1 426.739C1127.69 426.739 1087.17 375.082 1087.17 318.733C1087.17 262.383 1127.69 210.727 1196.1 210.727V210.727ZM1256.29 318.733C1256.29 284.982 1233.38 253.578 1196.1 253.578C1158.52 253.578 1135.92 284.982 1135.92 318.733C1135.92 352.484 1158.52 383.887 1196.1 383.887C1233.38 383.887 1256.29 352.484 1256.29 318.733ZM428.067 257.098V216.012H568.687V257.098H522.004V421.453H474.444V257.098H428.067ZM932.162 300.827H1009.96V338.108H932.162V383.295H1009.96V421.454H884.599V216.012H1009.96V254.17H932.162V300.827ZM728.996 216.012C774.496 216.012 803.859 250.354 803.859 290.267C803.859 319.029 788.589 344.556 763.042 356.595L804.156 421.454H748.962L712.544 364.512H690.231V421.454H642.674V216.012H728.996ZM755.708 290.267C755.708 271.188 742.786 254.752 722.82 254.752H690.231V325.773H722.82C742.786 325.773 755.708 309.346 755.708 290.267ZM334.997 396.508H261.89L253.96 421.454H203.163L276.567 216.012H320.31L394.59 421.454H342.917L334.997 396.508ZM298.581 274.708L273.331 359.238H323.239L298.581 274.708ZM86.0175 216.012C131.527 216.012 160.89 250.354 160.89 290.267C160.89 330.18 131.527 364.512 86.0175 364.512H47.5605V421.454H0V216.012H86.0175ZM113.033 290.267C113.033 271.188 100.112 254.752 80.1487 254.752H47.5605V325.773H80.1487C100.112 325.773 113.033 309.346 113.033 290.267Z" fill="#F1A037" fill-opacity="0.63"/>
</svg>
