<svg width="44" height="50" viewBox="0 0 44 50" fill="none" xmlns="http://www.w3.org/2000/svg">
<path d="M43.9054 12.5193C41.0474 12.5193 38.4106 11.5725 36.293 9.97535C33.8645 8.1444 32.1196 5.45862 31.5034 2.36302C31.3508 1.59817 31.2687 0.808865 31.2609 0H23.0969V22.3079L23.0871 34.5269C23.0871 37.7937 20.9598 40.5636 18.0109 41.5377C17.1551 41.8204 16.2308 41.9544 15.2684 41.9016C14.04 41.8341 12.8888 41.4634 11.8882 40.8648C9.75893 39.5914 8.3153 37.2812 8.27618 34.6384C8.21456 30.508 11.5537 27.1405 15.6812 27.1405C16.4959 27.1405 17.2784 27.2735 18.0109 27.5151V21.4178V19.226C17.2383 19.1115 16.4519 19.0519 15.6567 19.0519C11.139 19.0519 6.91372 20.9298 3.89344 24.3129C1.61062 26.8696 0.241319 30.1314 0.0300556 33.5518C-0.246739 38.045 1.3974 42.3163 4.58591 45.4676C5.05441 45.9302 5.54638 46.3596 6.06085 46.7557C8.79456 48.8596 12.1366 50 15.6567 50C16.4519 50 17.2383 49.9413 18.0109 49.8269C21.2992 49.3398 24.3332 47.8345 26.7275 45.4676C29.6695 42.5598 31.2951 38.6994 31.3127 34.5905L31.2706 16.3436C32.6742 17.4263 34.2088 18.3222 35.8558 19.0176C38.4174 20.0984 41.1335 20.6461 43.9288 20.6451V14.717V12.5174C43.9308 12.5193 43.9073 12.5193 43.9054 12.5193V12.5193Z" fill="#EDBC7D"/>
</svg>
