<svg width="450" height="512" viewBox="0 0 450 512" fill="none" xmlns="http://www.w3.org/2000/svg">
<path d="M448.897 128C419.677 128 392.717 118.32 371.067 101.99C346.237 83.27 328.397 55.81 322.097 24.16C320.537 16.34 319.697 8.27 319.617 0H236.147V228.08L236.047 353.01C236.047 386.41 214.297 414.73 184.147 424.69C175.397 427.58 165.947 428.95 156.107 428.41C143.547 427.72 131.777 423.93 121.547 417.81C99.7773 404.79 85.0173 381.17 84.6173 354.15C83.9873 311.92 118.127 277.49 160.327 277.49C168.657 277.49 176.657 278.85 184.147 281.32V218.98V196.57C176.247 195.4 168.207 194.79 160.077 194.79C113.887 194.79 70.6873 213.99 39.8073 248.58C16.4673 274.72 2.46729 308.07 0.307294 343.04C-2.52271 388.98 14.2873 432.65 46.8873 464.87C51.6773 469.6 56.7073 473.99 61.9673 478.04C89.9173 499.55 124.087 511.21 160.077 511.21C168.207 511.21 176.247 510.61 184.147 509.44C217.767 504.46 248.787 489.07 273.267 464.87C303.347 435.14 319.967 395.67 320.147 353.66L319.717 167.1C334.067 178.17 349.757 187.33 366.597 194.44C392.787 205.49 420.557 211.09 449.137 211.08V150.47V127.98C449.157 128 448.917 128 448.897 128V128Z" fill="#EDBC7D"/>
</svg>
