<?xml version="1.0"?>
<svg xmlns="http://www.w3.org/2000/svg" xmlns:xlink="http://www.w3.org/1999/xlink" xmlns:svgjs="http://svgjs.com/svgjs" version="1.1" width="512" height="512" x="0" y="0" viewBox="0 0 512 512" style="enable-background:new 0 0 512 512" xml:space="preserve" class=""><g><script/><path xmlns="http://www.w3.org/2000/svg" d="M331.475,229.144a6.329,6.329,0,0,0,.4-5.911l-28.256-61.506A6.229,6.229,0,0,0,298.167,158H84.5a6.867,6.867,0,0,0-6.5,6.475v61.341c0,3.313,3.187,6.184,6.5,6.184H326.422A6.09,6.09,0,0,0,331.475,229.144ZM148,220H90V170h58Zm83,0H160V170h71Zm12,0V170h51.324l22.728,50Z" fill="#e2e1e1" data-original="#000000" style="" class=""/><path xmlns="http://www.w3.org/2000/svg" d="M230.081,300h-5.3a6,6,0,0,0,0,12h5.3a6,6,0,1,0,0-12Z" fill="#e2e1e1" data-original="#000000" style="" class=""/><path xmlns="http://www.w3.org/2000/svg" d="M346.11,300H250.086a6,6,0,0,0,0,12H346.11a6,6,0,0,0,0-12Z" fill="#e2e1e1" data-original="#000000" style="" class=""/><path xmlns="http://www.w3.org/2000/svg" d="M134,323.534a29.324,29.324,0,1,0,29.323,29.323A29.356,29.356,0,0,0,134,323.534Zm0,46.647a17.324,17.324,0,1,1,17.323-17.324A17.343,17.343,0,0,1,134,370.181Z" fill="#e2e1e1" data-original="#000000" style="" class=""/><path xmlns="http://www.w3.org/2000/svg" d="M410,323.534a29.324,29.324,0,1,0,29.323,29.323A29.356,29.356,0,0,0,410,323.534Zm0,46.647a17.324,17.324,0,1,1,17.323-17.324A17.343,17.343,0,0,1,410,370.181Z" fill="#e2e1e1" data-original="#000000" style="" class=""/><path xmlns="http://www.w3.org/2000/svg" d="M495.234,325H491V265.854a35.816,35.816,0,0,0-32.153-35.807l-94.434-9.842-31.864-70.613a35.921,35.921,0,0,0-32.674-21.029l-1.875,0V102.19A6.026,6.026,0,0,0,292.167,96H93.5c-3.313,0-6.5,2.877-6.5,6.19V128l-1.576,0H85.3a35.962,35.962,0,0,0-25.561,10.349A35.559,35.559,0,0,0,49,163.7V188H36.766C22.43,188,11,200.055,11,214.391v69.787A25.679,25.679,0,0,0,36.766,310H49v15H45.3a6.624,6.624,0,0,0-6.3,6.4v42a5.7,5.7,0,0,0,1.909,4.04A6.185,6.185,0,0,0,45.3,379H76.755a62.919,62.919,0,0,0,114.307.4l161.874,0a62.919,62.919,0,0,0,114.309-.4h27.989A5.478,5.478,0,0,0,501,373.4v-42a6.368,6.368,0,0,0-1.641-4.441A5.939,5.939,0,0,0,495.234,325ZM49,298H36.766A13.666,13.666,0,0,1,23,284.178V214.391C23,206.671,29.046,200,36.766,200H49ZM238,108h48v20.526l-48-.126Zm-79,0h67v20.369l-67-.176Zm-60,0h48v20.162l-48-.126ZM72.669,367H51V337H73.074a62.8,62.8,0,0,0-.405,30ZM134,403.81a50.953,50.953,0,1,1,50.952-50.953A51.011,51.011,0,0,1,134,403.81ZM348.762,367.4l-153.525,0a62.776,62.776,0,0,0-.21-30l153.947,0a62.777,62.777,0,0,0-.212,30ZM410,403.81a50.953,50.953,0,1,1,50.952-50.953A51.011,51.011,0,0,1,410,403.81ZM466.433,325a62.928,62.928,0,0,0-113.071.4l-162.723,0A62.927,62.927,0,0,0,77.567,325H61V163.7a23.644,23.644,0,0,1,7.21-16.848A24.048,24.048,0,0,1,85.3,140h.083l214.465.563a23.983,23.983,0,0,1,21.793,14.045l33.312,73.716A5.982,5.982,0,0,0,359.8,231.8l97.92,10.261A23.8,23.8,0,0,1,475.414,253H458.833A9.748,9.748,0,0,0,449,262.857V288.19a9.708,9.708,0,0,0,9.833,9.81H479v27Zm12.755-60a3.949,3.949,0,0,0-.188.854V286H461V265ZM489,367H471.331a62.8,62.8,0,0,0-.405-30H489Z" fill="#e2e1e1" data-original="#000000" style="" class=""/></g></svg>
