<svg width="594" height="855" viewBox="0 0 594 855" fill="none" xmlns="http://www.w3.org/2000/svg">
<path d="M472.5 850.2L469.5 850H464.5L458.5 836.4L461.6 839.2L465.9 843.8L473.7 847.5L481 849L480.2 852L475.8 852.3L472.5 850.2Z" fill="#F0F0F0" stroke="black" stroke-width="0.5" stroke-linecap="round" stroke-linejoin="round"/>
<path d="M442 643.2L453.3 653.6L457.9 654.6L465.2 659.4L471.1 661.9L472.2 664.7L468 674.5L473.8 676.2L480.1 677.2L484.3 676.2L488.6 671.2L488.9 665.6L491.5 664.3L494.7 668.1L495.1 673.2L490.9 676.7L487.6 679.3L482.3 685.6L476.3 694.3L475.8 699.5L475.4 706.1L476.6 712.5L475.7 713.9L476.1 718L476.4 721.4L484.2 726.9L484.4 731.3L488.3 734.1L488.6 737.2L485.3 745.4L478.3 748.9L468.1 750.2L462.1 749.5L464.2 753.4L464.3 758.1L466.1 761.3L463.6 763.6L458.5 764.5L452.9 762.1L451.4 763.8L453.9 770.1L457.9 772L460.2 770L462.7 773.3L458.5 775.3L455.6 779.3L456.8 785.6L456.7 789H451.9L448.9 792.2L449 797L455.5 801.6L460.7 802.8L460.9 808.5L456.3 812L455.7 819.3L452.2 821.7L451.3 824.6L455.5 831.1L460.1 834.6L458 834.3L453.1 833.3L441 832.5L437.5 828.9L435.6 824.3L432.5 824.7L429.9 822.4L426.8 815.9L429.5 813.1L429.6 809.2L427.8 806L428.5 800.6L427.4 792.3L425.6 788.6L427.4 787.4L426 785L423.2 783.8L424 781.1L420.9 778.7L417.2 771.4L418.9 770.1L415.6 762.3L414.8 755.8L414.6 750.1L417.1 747.8L413.8 741.5L412.2 735.7L415.2 731.5L413.8 726.1L415.4 719.9L414 714L412.4 712.8L407.5 701.7L409.6 695.1L407.9 688.9L408.8 683L411.4 677L414.7 673L412.7 670.5L413.5 668.4L411.9 657.7L417.5 654.6L418.7 647.9L417.8 646.3L421.8 640.5L429.3 642.1L433 646.7L434.6 641.5L441 641.8L442 643.2Z" fill="#F0F0F0" stroke="black" stroke-width="0.5" stroke-linecap="round" stroke-linejoin="round"/>
<path d="M291.2 398.3H289.5L290.8 391.1L291.5 386L291.6 385L292.3 384.7L293.2 385.5L295.7 381.6L296.8 381.5L296.7 382.5H297.7L297.4 384.3L296.1 387L296.5 388L295.6 390.3L295.9 390.9L294.9 394.2L293.6 395.9L292.5 396.1L291.2 398.3V398.3Z" fill="#F0F0F0" stroke="black" stroke-width="0.5" stroke-linecap="round" stroke-linejoin="round"/>
<path d="M465.9 629.9L465.6 627.9L460.2 624.6L455 624.5L445.4 626.4L443.3 632L443.5 635.5L442 643.2L441 641.8L434.6 641.5L433 646.7L429.3 642.1L421.8 640.5L417.8 646.3L413.9 647.2L410.8 638.3L407.1 631.1L408.2 624.9L405 622.2L403.8 617.6L400.6 613.2L403.5 606.3L400.6 600.9L401.7 598.7L400.5 596.3L402.4 593.1L402.1 587.7V583.1L403.2 581L397.7 570.6L401.9 571.2L404.8 571L405.9 569.1L410.7 566.5L413.6 564.1L420.9 563L420.5 567.8L421.4 570.3L421.1 574.6L427.6 580.3L434 581.4L436.3 583.8L440.2 585.1L442.7 586.9H446.2L449.6 588.8L450.1 592.5L451.3 594.4L451.6 597.1L449.9 597.2L452.7 604.7L463.4 605L462.9 608.7L463.7 611.2L466.9 613L468.6 617L468 622.1L466.7 624.9L467.5 628.5L465.9 629.9V629.9Z" fill="#F0F0F0" stroke="black" stroke-width="0.5" stroke-linecap="round" stroke-linejoin="round"/>
<path d="M469.2 488.1L472.3 488.7L472.9 487.3L471.9 486.1L472.5 484.2L474.8 484.8L477.5 484.1L480.7 485.5L483.2 486.8L484.9 485.1L486.2 485.3L487 487.1L489.7 486.7L491.9 484.2L493.7 479.5L497.1 473.6L499.1 473.3L500.4 476.9L503.4 488.1L506.5 489.2L506.6 493.6L502.3 498.9L504 500.8L514.1 501.8L514.3 508.3L518.6 504.1L525.7 506.4L535.2 510.3L538 514L537.1 517.6L543.7 515.6L554.7 519L563.2 518.8L571.6 524.1L579 531.3L583.4 533.1L588.2 533.4L590.3 535.4L592.3 543.6L593.4 547.5L591.3 558.1L588.6 562.3L580.9 571.2L577.5 578.5L573.5 584L572.1 584.2L570.8 588.9L571.7 600.9L570.6 610.8L570.3 615L568.7 617.6L568.2 626.2L563 634.5L562.5 641.2L558.2 643.9L557.1 647.8H551.1L542.6 650.2L538.9 653.1L532.9 655L526.8 660.1L522.7 666.5L522.4 671.3L523.7 674.8L523.4 681.3L522.6 684.4L519.2 688L514.7 699.3L510.7 704.3L507.5 707.4L506 713.5L503.1 717.1L501 713.5L502.8 710.4L499 706.1L494.2 702.5L487.9 698.4L486 698.6L479.7 693.6L476.3 694.3L482.3 685.6L487.6 679.3L490.9 676.7L495.1 673.2L494.7 668.1L491.5 664.3L488.9 665.6L489.6 661.9L489.9 658.1L489.6 654.5L487.5 653.4L485.5 654.4L483.4 654.1L482.6 651.7L481.5 645.8L480.3 643.9L476.4 642.1L474.2 643.4L468.3 642.1L467.9 633.4L465.9 629.9L467.5 628.5L466.7 624.9L468 622.1L468.6 617L466.9 613L463.7 611.2L462.9 608.7L463.4 605L452.7 604.7L449.9 597.2L451.6 597.1L451.3 594.4L450.1 592.5L449.6 588.8L446.2 586.9H442.7L440.2 585.1L436.3 583.8L434 581.4L427.6 580.3L421.1 574.6L421.4 570.3L420.5 567.8L420.9 563L413.6 564.1L410.7 566.5L405.9 569.1L404.8 571L401.9 571.2L397.7 570.6L394.5 571.7L391.9 571L391.8 561.3L387.4 565L382.4 564.9L380.1 561.4L376.3 561.1L377.3 558.3L374 554.4L371.4 548.6L372.9 547.5L372.7 544.7L376.1 542.9L375.4 539.4L376.8 537.2L377.1 534.2L383.4 529.8L388 528.6L388.8 527.6L393.9 527.9L396.1 510.3L396.2 507.5L395.3 503.9L392.7 501.5L392.8 496.8L396 495.8L397.1 496.5L397.3 494L394 493.3V489.3L405 489.5L406.9 487.2L408.5 489.3L409.5 493.1L410.6 492.3L413.7 495.7L418.1 495.3L419.2 493.3L423.4 491.8L425.8 490.7L426.5 488L430.6 486.2L430.3 484.8L425.5 484.3L424.8 480.2L425.1 475.9L422.6 474.3L423.7 473.7L427.8 474.5L432.3 476.1L434 474.6L438.1 473.6L444.5 471.2L446.6 468.7L445.9 466.9L448.9 466.7L450.1 468.1L449.3 471L451.3 471.9L452.5 474.9L450.9 477.2L449.9 482.6L451.3 485.9L451.6 488.9L455.1 491.9L457.9 492.2L458.5 490.9L460.3 490.6L462.9 489.5L464.7 487.8L467.9 488.4L469.2 488.1V488.1Z" fill="#F0F0F0" stroke="black" stroke-width="0.5" stroke-linecap="round" stroke-linejoin="round"/>
<path d="M469.3 202.1L472.7 203L477.4 202.8L474.1 205.4L472.1 205.8L466.6 203.1L466 201L468.5 199.1L469.3 202.1Z" fill="#F0F0F0" stroke="black" stroke-width="0.5" stroke-linecap="round" stroke-linejoin="round"/>
<path d="M483.7 186.1L481.3 186.2L475.5 184.3L472 181.3L473.9 180.8L479.8 182.4L484 185L483.7 186.1Z" fill="#F0F0F0" stroke="black" stroke-width="0.5" stroke-linecap="round" stroke-linejoin="round"/>
<path d="M175.8 189.8L172.7 190.7L166.4 187.9V185.7L163.5 183.5L163.8 181.7L159.5 180.6L160.1 177.2L161.6 175.8L165.7 177.1L168.1 178.1L172.2 178.7L172.4 180.9L172.8 183.8L176 186.4L175.8 189.8Z" fill="#F0F0F0" stroke="black" stroke-width="0.5" stroke-linecap="round" stroke-linejoin="round"/>
<path d="M514.9 176.3L509.9 181.7L513.8 179.6L516.7 181L514.3 183.1L518.1 184.8L520.9 183.3L525.2 185.2L522.4 189.8L526.2 188.7L525.9 192L526.4 195.9L522.8 201.5L520.4 201.7L517.5 200.5L520 195.4L518.8 194.6L511.5 200L508.5 199.8L512.9 196.8L508.5 195.3L503 195.7L493.4 195.5L493.2 193.7L497 191.4L495.3 189.8L500.7 186L508.9 176.1L513.1 172.6L518.1 170.5L520.2 170.7L518.7 172.4L514.9 176.3Z" fill="#F0F0F0" stroke="black" stroke-width="0.5" stroke-linecap="round" stroke-linejoin="round"/>
<path d="M154.9 154.9L156.4 155.7L161.4 155.2L154.2 162.1L154.5 167.1H152.6L151.9 164.3L152.4 161.4L151.6 159.5L152.9 156.8L154.9 154.9Z" fill="#F0F0F0" stroke="black" stroke-width="0.5" stroke-linecap="round" stroke-linejoin="round"/>
<path d="M438.3 107.4L434.7 110.4L433 109.9L432.9 108.2L433.3 107.8L436.1 106.1L437.8 106.2L438.3 107.4Z" fill="#F0F0F0" stroke="black" stroke-width="0.5" stroke-linecap="round" stroke-linejoin="round"/>
<path d="M428.6 104.2L421.4 107.4L418.4 107.2V105.7L423.4 103L429.4 103.1L428.6 104.2Z" fill="#F0F0F0" stroke="black" stroke-width="0.5" stroke-linecap="round" stroke-linejoin="round"/>
<path d="M425.5 87.4L424.6 89.9L427.3 89L428.8 90.5L432.3 92.5L436.1 94.2L434.7 96.9L438.2 96.5L440.1 98.4L435.1 100.2L429.2 98.8L428.4 96.2L422.1 99.3L413.9 102.2L414.6 98.9L408.3 99.4L414 96.6L417.6 92.1L422.7 87L425.5 87.4Z" fill="#F0F0F0" stroke="black" stroke-width="0.5" stroke-linecap="round" stroke-linejoin="round"/>
<path d="M470.4 79.0999L465.5 79.3999L466.2 76.6999L470 73.5999L474.3 72.8999L476.6 74.3999L475.1 76.6999L474.2 77.4999L470.4 79.0999Z" fill="#F0F0F0" stroke="black" stroke-width="0.5" stroke-linecap="round" stroke-linejoin="round"/>
<path d="M395.9 68.3998L391.8 70.2998L387.6 68.6998L383.7 69.1998L380.3 66.7998L385.3 65.0998L390.2 62.7998L393.2 64.2998L394.8 65.2998L395.2 66.2998L395.9 68.3998Z" fill="#F0F0F0" stroke="black" stroke-width="0.5" stroke-linecap="round" stroke-linejoin="round"/>
<path d="M448.9 211L446.7 207.4L449.6 198.9L448 197.1L444.3 198.1L443.2 196.5L437.7 201.2L434.5 206.1L431.7 209L429.2 210L427.5 210.3L426.4 211.8H417.1L409.3 211.9L406.6 213L399.8 217.4V217.3L398.9 216.9L396.9 217.8L395 219.1L393.2 218L388.5 218.8L384.6 219.7L382.7 220.5L380.4 222.6L382.2 223.3L383.9 222.9H384.2L383.9 224.8L379.1 225.5L376.3 226.3L374.6 227.3L372 226.7L370.4 227L367.5 228.8L362.9 230.8L360.2 230.4L362.2 228.2L365.9 224.7L370 222.6L371.1 220.8L372 217.8L375.8 214.3L376.7 210.3L377.8 214.2L381.6 215.1L384 213L382.6 208.2L381.7 206.2L377.7 205L373.9 204.3H370L366.6 203.5L366.2 202.1L364.8 203L363.6 202.8L365.5 200.7L363.7 199.9L365.6 197.5L364.4 195.7L366.1 193.9L360.9 193L360.8 189.4L360 188.6L356.7 188.4L352.6 187.2L351.1 188L349.3 189.5L346 190.5L342.9 193L337.5 191.3L333.1 192.1L329.2 190.2L324.6 189.2L321.3 188.8L320.3 187.8L321.2 184.4H319.5L318.2 186.8H308H291H274.2H259.3H244.5H229.8H214.7H209.9H195.2H181.1H180.4L175 180.7L173.4 178L166.4 175.4L167.7 169.9L171.3 166.2L167.2 163.5L170.3 158.6L168.2 154.2L170.7 151L175.8 148.1L179 144.3L174.4 140.5L175.8 133.6L176.9 129.4L175.3 126.7L174.5 124.3L175.1 121.2L168.6 123.1L161 126.4L160.7 122.6L160.2 120L157.4 118.4L153.2 118.2L188.8 85.4999L213.4 65.0999L219.4 66.3999L222.7 68.9999L226.4 69.4999L232.7 67.2999L239.7 65.5999L245 66.1999L253.9 63.8999L262.1 62.5999L262.3 64.7999L266.8 63.4999L270.7 60.9999L272.8 61.5999L274.2 66.3999L283.7 62.6999L279.8 66.7999L285.8 65.8999L289 64.3999L293.6 64.6999L297.5 66.8999L305 68.8999L309.7 69.7999L314.1 69.4999L317 72.2999L308.5 74.9999L314.9 76.0999L326.8 75.4999L331.2 74.4999L332.6 77.7999L339.7 75.0999L337.6 72.6999L342.1 70.8999L347.3 70.5999L351.2 70.0999L353.3 71.3999L354.8 74.2999L359.8 73.8999L365.1 76.3999L372.3 75.4999L378.3 75.5999L380.7 72.1999L385.2 71.2999L390.1 73.0999L385.8 78.2999L392 73.8999L395.2 74.0999L401.6 68.5999L400 65.2999L397.1 63.0999L402.6 57.1999L410.8 53.3999L415.3 54.2999L417.3 56.5999L417.7 62.5999L411.9 65.1999L418.6 66.2999L414.2 71.7999L423.1 67.5999L425.3 71.0999L421 75.0999L422.3 78.7999L429.6 74.8999L436.1 70.0999L440.8 64.1999L446.3 64.5999L451.7 65.3999L455.3 68.0999L453.6 70.7999L448.5 73.6999L449.4 76.5999L447 79.2999L436.1 83.1999L429.6 84.0999L426.4 82.3999L423.1 85.1999L415.7 89.8999L412.7 92.3999L405 96.1999L398.5 96.5999L393.4 98.9999L390.5 102.8L384.8 103.5L376.1 108.2L366.7 114.7L361.7 119.3L356.8 126.2L362.8 127.2L361.3 132.7L360.5 137.3L367.8 136.1L374.8 138.7L378.1 141L379.8 143.8L384.7 145.5L388.3 148L395.9 148.4L400.7 149L397.1 154.2L395.4 160.3L395.5 167.2L399.9 173.1L404.6 171.1L410.2 164.7L412.5 155.1L410.8 151.9L419.8 149L427.3 144.8L432.1 140.6L433.8 136.6L433.4 131.5L430.2 127L439.1 120.8L440.1 115.5L444 106.5L447.8 105.1L454.5 106.7L458.7 107.3L463.2 105.7L466.3 107.7L469.9 111.1L470.1 113.3L477.8 113.8L475.2 118.7L472.9 126.1L476.7 127.1L478.3 130.6L486.5 127.3L494 120.7L498.2 118L499.3 123.3L501.9 130.8L503.9 138L500.5 141.8L505.3 145.2L508.2 148.6L515.1 150.2L517.5 152.1V157.3L520.9 158.1L522 160.4L520 167.3L515.7 169.6L511.5 171.8L502.7 174L494.8 179L486.2 180.1L476.1 178.7H468.8L463.5 179.1L457.8 183.6L450.4 186.4L440.3 194.6L432.4 200.4L437.1 199.4L448 191.1L460.3 185.9L467.9 185.3L471.2 188.4L465.1 192.6L464.5 199.3L464.6 204.1L470.2 207.2L478.8 206.3L486 199.2L485 203.8L487.5 206.1L480.1 210.2L467.7 214L461.9 216.5L454.7 221.1L451 220.6L452.5 215.3L462.9 210L454.8 210.2L448.9 211Z" fill="#F0F0F0" stroke="black" stroke-width="0.5" stroke-linecap="round" stroke-linejoin="round"/>
<path d="M342.4 47.2002L337.7 49.6002L348.2 48.1002L350.8 50.7002L358.1 48.0002L359.9 49.7002L357.7 54.8002L362 52.7002L364.8 47.4002L369.1 46.6002L372.1 47.4002L374.3 49.5002L371.6 54.6002L369.2 58.3002L373.4 60.9002L378.4 63.5002L375.8 65.8002L368.7 66.3002L369.5 68.3002L366.3 70.3002L359.6 69.5002L353.9 68.0002L348.8 68.3002L339.3 70.2002L328 71.0002L320.1 71.5002L320.4 68.9002L316.3 67.5002L312 68.1002L311.4 63.8002L314.7 63.2002L322 62.3002L327.5 62.6002L333.7 61.6002L327.2 60.4002L318.1 60.8002L312.4 60.7002V58.8002L324.1 56.6002L317.8 56.7002L312.4 55.3002L320.2 51.4002L325.4 49.3002L339.6 46.2002L342.4 47.2002Z" fill="#F0F0F0" stroke="black" stroke-width="0.5" stroke-linecap="round" stroke-linejoin="round"/>
<path d="M381.9 45.7L374.9 49.1L372.6 45.5L374.7 44.7L380.2 44.5L381.9 45.7Z" fill="#F0F0F0" stroke="black" stroke-width="0.5" stroke-linecap="round" stroke-linejoin="round"/>
<path d="M490.5 47.2999L489.8 48.6999L485.7 48.5999L481.6 48.4999L476.7 49.1999L475.8 48.7999L473.7 46.0999L475.4 44.2999L477.6 43.8999L486 44.4999L490.5 47.2999Z" fill="#F0F0F0" stroke="black" stroke-width="0.5" stroke-linecap="round" stroke-linejoin="round"/>
<path d="M450.7 47.0002L451 50.2002L458.2 46.1002L469.9 44.0002L472.2 49.3002L469 52.7002L478 51.2002L483.3 49.1002L490.1 51.7002L493.8 54.2002L492.7 56.5002L500.9 55.3002L502.8 58.7002L511.2 60.8002L513.4 62.9002L514.3 68.0002L505.2 70.5002L512.9 74.1002L518.8 75.3002L522.1 80.3002L528.6 80.7002L525.3 84.6002L514.4 91.1002L510.4 88.7002L506.6 83.3002L500.7 84.0002L498.4 87.3002L501.1 90.5002L505.6 93.1002L506.6 94.6002L506.5 100.3L502.9 104.4L498.2 102.8L489.6 98.3002L493.2 103.2L496 106.7L495.7 108.7L484.8 106.4L477.2 103L473.4 100.3L475.8 98.6002L471 95.7002L466.3 93.0002L465.4 94.6002L452.3 95.5002L449.9 93.6002L455.3 89.4002L463.4 89.3002L472.7 88.6002L472.5 86.6002L475.6 83.8002L484.4 78.4002L484.8 75.9002L484.3 74.1002L479.6 71.4002L472.5 69.6002L476 68.2002L474 64.8002L470.6 64.5002L468.7 62.7002L465.4 64.3002L457.5 65.0002L443.5 63.8002L436.1 62.2002L430.2 61.4002L428.3 59.5002L434.6 57.1002H428.9L432.2 51.8002L439.3 47.2002L445.3 45.1002L456.5 43.7002L450.7 47.0002Z" fill="#F0F0F0" stroke="black" stroke-width="0.5" stroke-linecap="round" stroke-linejoin="round"/>
<path d="M400.3 43.5L403.9 44.6L411.5 43.9L411 45.4L404.9 47.9L408.7 50.1L403.5 54.8L395.1 56.8L391.7 56.4L390.8 54.4L384.9 50.4L386.6 48.7L394 49.3L393.1 46L400.3 43.5Z" fill="#F0F0F0" stroke="black" stroke-width="0.5" stroke-linecap="round" stroke-linejoin="round"/>
<path d="M422.9 49L415.1 52.9L410.7 52.7L412.5 48.1L415.1 45.6L419.3 43.4L424.5 42L432.4 42.2L438.6 43.4L428.5 48L422.9 49Z" fill="#F0F0F0" stroke="black" stroke-width="0.5" stroke-linecap="round" stroke-linejoin="round"/>
<path d="M307.1 56.1999L293.6 58.7999L294.2 56.4999L288.2 53.6999L292.6 51.4999L300.1 47.6999L307.7 44.2999L308.1 41.1999L322.1 40.3999L326.3 41.4999L335.8 41.7999L337.7 43.1999L339.3 45.3999L332.8 46.6999L318.9 50.2999L309.7 53.9999L307.1 56.1999Z" fill="#F0F0F0" stroke="black" stroke-width="0.5" stroke-linecap="round" stroke-linejoin="round"/>
<path d="M432.3 37.7999L428.2 39.6999L423 39.2999L419.8 37.9999L424.3 35.7999L431.2 34.3999L432.6 36.1999L432.3 37.7999Z" fill="#F0F0F0" stroke="black" stroke-width="0.5" stroke-linecap="round" stroke-linejoin="round"/>
<path d="M423.5 29.1001L423.7 31.4001L420.9 33.9001L415.1 37.7001L408.2 38.2001L405 37.4001L408.4 34.5001L401.8 34.8001L406.1 31.0001L409.9 31.2001L417.6 29.5001L422.5 29.8001L423.5 29.1001Z" fill="#F0F0F0" stroke="black" stroke-width="0.5" stroke-linecap="round" stroke-linejoin="round"/>
<path d="M384.1 31.6998L383.4 33.3998L387.8 32.5998L391.4 32.7998L389.1 35.2998L384 37.5998L370.1 38.3998L357.8 40.5998L351.8 40.6998L353.3 39.0998L364 36.7998L346.1 37.3998L341.9 36.4998L353.6 31.6998L359 30.2998L367.3 31.9998L370.2 34.8998L376.3 35.2998L377 30.5998L382.8 28.7998L385.9 29.2998L384.1 31.6998Z" fill="#F0F0F0" stroke="black" stroke-width="0.5" stroke-linecap="round" stroke-linejoin="round"/>
<path d="M439.8 27.3L442.1 28.9H449.5L450.9 30.5L448.1 32.3L451.2 33.4L452.4 34.6L457.3 34.8L462.4 35.2L469.5 34.2L477.6 33.7L483.4 34.1L485.7 36L484.7 38L481.1 39.4L474.4 40.5L470.1 39.8L458.3 40.6L450.3 40.7L444.7 40.1L436.1 38.5L437.7 35.7L439.8 33.3L438.4 31.1L431.4 30.5L428.8 29L432.6 27L439.8 27.3Z" fill="#F0F0F0" stroke="black" stroke-width="0.5" stroke-linecap="round" stroke-linejoin="round"/>
<path d="M364.1 24.7002L358.3 28.4002L353 30.1002L349.2 30.3002L339.3 32.4002L332.2 33.2002L328.6 32.1002L340.3 28.4002L352.5 25.3002L358 25.4002L364.1 24.7002Z" fill="#F0F0F0" stroke="black" stroke-width="0.5" stroke-linecap="round" stroke-linejoin="round"/>
<path d="M445.3 25.2998L443.5 25.3998L436.9 25.0998L437.6 23.7998L444.8 23.8998L446.4 24.6998L445.3 25.2998Z" fill="#F0F0F0" stroke="black" stroke-width="0.5" stroke-linecap="round" stroke-linejoin="round"/>
<path d="M386.5 24.3998L377.7 25.7998L374.4 24.2998L379.5 22.7998L385.5 22.2998L389.6 22.9998L386.5 24.3998Z" fill="#F0F0F0" stroke="black" stroke-width="0.5" stroke-linecap="round" stroke-linejoin="round"/>
<path d="M394.3 20.2001L388.6 21.1001H382.6L383.6 20.4001L389.3 19.1001L391 19.3001L394.3 20.2001Z" fill="#F0F0F0" stroke="black" stroke-width="0.5" stroke-linecap="round" stroke-linejoin="round"/>
<path d="M441.1 22.7L434.5 23.7L432.9 22.6L433.5 20.9L435.7 19L440.1 19.2L441.8 19.5L444.1 21.1L441.1 22.7Z" fill="#F0F0F0" stroke="black" stroke-width="0.5" stroke-linecap="round" stroke-linejoin="round"/>
<path d="M427.3 21.5L426.2 23.4L420.9 22.9L416.9 21.4L409.1 21.2L414.4 19.9L411.6 18.8L413.8 17L419.9 17.6L427.4 19.3L427.3 21.5Z" fill="#F0F0F0" stroke="black" stroke-width="0.5" stroke-linecap="round" stroke-linejoin="round"/>
<path d="M481.4 15.4001L484.1 16.9001L477.6 18.2001L467 21.7001L460.2 22.0001L453.4 21.4001L451.8 19.5001L453.9 17.9001L458.2 16.7001H451.6L449.6 15.2001L450 13.3001L454.9 11.4001L459 10.1001L463 9.8001L462.7 8.8001L471 8.6001L472.6 10.8001L477.3 11.7001L482.1 12.6001L481.4 15.4001Z" fill="#F0F0F0" stroke="black" stroke-width="0.5" stroke-linecap="round" stroke-linejoin="round"/>
<path d="M560.6 1.4L569.3 1.7L576 2.2L581.2 3.2L580.1 4.2L570.3 5.9L561.3 6.7L557.3 7.6H564.8L554.3 10.1L547.5 11.3L538.2 14.8L530.1 15.5L527 16.5L515.7 16.9L520.1 17.5L516.8 18.3L517.5 20.6L512.5 22.2L505.6 23.5L502.1 25.3L495.5 26.8L495 27.9L501.5 27.7L500.4 28.9L487.7 31.8L479.2 30.4L467.5 31.2L462.5 30.6L455.7 30.3L457.8 28L465.8 26.9L467.8 23.5L470.4 23.2L477.9 25.2L476.2 22.2L471.3 21.3L476.3 19.5L483.9 18.4L486.7 16.8L483.7 15.1L484.8 12.9L494.2 13L496.4 13.5L503.7 11.9L496.4 11.4L483.8 11.7L479.4 10.3L478.6 8.6L476.1 7.4L477.2 6.1L483.2 5.3L487.4 5.2L494.8 4.6L501.6 3.1L505.5 3.3L507.9 4.4L512.9 2.4L518.1 1.8L524.6 1.4L535 1.2L536.3 1.6L546.6 1L553.6 1.2L560.6 1.4Z" fill="#F0F0F0" stroke="black" stroke-width="0.5" stroke-linecap="round" stroke-linejoin="round"/>
<path d="M387.8 424.7L384.1 425.8L382.5 429L380.2 430.8L378.4 433.2L377.5 437.8L375.7 441.6L378.6 442L379.2 444.9L380.4 446.4L380.7 448.9L380 451.3L380.1 452.7L381.5 453.2L382.7 455.4L390 454.8L393.3 455.6L397.1 461.2L399.4 460.5L403.5 460.8L406.7 460.1L408.7 461.2L407.5 464.6L406.2 466.8L405.6 471.4L406.7 475.7L408.2 477.6L408.4 479L405.5 482.2L407.5 483.6L409 485.9L410.6 492.3L409.5 493.1L408.5 489.3L406.9 487.2L405 489.5L394 489.3V493.3L397.3 494L397.1 496.5L396 495.8L392.8 496.8L392.7 501.5L395.3 503.9L396.2 507.5L396.1 510.3L393.9 527.9L391 524.5L389.3 524.4L392.8 517.8L388.4 514.8L385 515.4L382.9 514.3L379.8 516L375.6 515.1L372.1 508.4L369.5 506.8L367.7 503.7L363.9 500.7L362.4 501.3L360 499.8L357.2 497.7L355.6 498.7L350.8 497.8L349.4 495L348.3 495.1L342.7 491.5L342 489.5L344.1 489L343.9 485.8L345.3 483.4L348.1 483L350.6 479L352.8 475.6L350.8 474.1L352 470.4L350.9 464.5L352.2 462.8L351.5 457.4L349.3 453.9L350.2 450.8L352 451.3L353.1 449.4L352 445.6L352.7 444.7L355.6 444.9L360.1 440.4L362.5 439.7L362.6 437.6L364 432.1L367.4 429.2L370.9 429L371.5 427.7L375.9 428.2L380.5 425L382.8 423.6L385.7 420.5L387.7 420.9L389 422.6L387.8 424.7V424.7Z" fill="#F0F0F0" stroke="black" stroke-width="0.5" stroke-linecap="round" stroke-linejoin="round"/>
<path d="M318 430.1L319.2 433.6L321.2 436.2L323.7 438.9L321.5 439.5L321.4 442.1L322.5 443L321.6 443.8L321.8 444.9L321.2 446.2L320.9 447.5L317.9 446.1L316.8 444.7L317.5 443.6L317.4 442.2L315.9 440.7L313.7 439.4L311.9 438.6L311.6 436.7L310.2 435.6L310.4 437.4L309.2 439L308 437.2L306.3 436.5L305.6 435.3L305.7 433.3L306.6 431.3L305.1 430.4L306.5 429.1L307.4 428.3L311 430L312.3 429.2L314.1 429.7L314.9 431L316.6 431.5L318 430.1V430.1Z" fill="#F0F0F0" stroke="black" stroke-width="0.5" stroke-linecap="round" stroke-linejoin="round"/>
<path d="M348.2 354.2L350.1 356.5L355.3 355.8L357.1 357.3L361.3 361.3L364.5 364.2L366.3 364.1L369.5 365.4L368.9 367.2L372.9 367.5L376.8 370.1L376 371.6L372.2 372.4L368.4 372.7L364.7 372.2L356.6 372.8L360.8 369.3L358.7 367.6L355.1 367.2L353.4 365.3L352.6 361.7L349.4 361.9L344.4 360.2L342.9 358.8L335.8 357.8L334 356.6L336.3 355L330.9 354.7L326.5 358L324.2 358.1L323.2 359.7L320.4 360.4L318.1 359.7L321.3 357.8L322.8 355.4L325.5 354L328.5 352.8L332.8 352.2L334.2 351.4L338.9 351.9L343.3 352L348.2 354.2V354.2Z" fill="#F0F0F0" stroke="black" stroke-width="0.5" stroke-linecap="round" stroke-linejoin="round"/>
<path d="M389.1 384.5L389.4 382.7L388.1 380.8L389.6 379.7L390.3 377.2L390.2 373.8L391 372.7H395.3L398.5 374.3L400 374.2L400.7 376.5L403.8 376.3L403.4 378.2L405.9 378.5L408.4 380.8L406.1 383.4L403.5 382L400.9 382.3L399.1 382L398 383.2L395.8 383.6L395.1 382L393.2 382.9L390.5 387.3L389.2 386.3L389.1 384.5V384.5Z" fill="#F0F0F0" stroke="black" stroke-width="0.5" stroke-linecap="round" stroke-linejoin="round"/>
<path d="M362.4 501.3L363.2 506.2L361.5 510.3L355.4 517.1L348.7 519.6L345.3 525.2L344.4 529.5L341.3 532.2L338.8 528.9L336.5 528.2L334.2 528.7L333.9 526.4L335.5 524.9L334.8 522.2L337.7 517.4L336.4 514.6L334.3 517.6L330.8 514.7L331.9 512.9L330.9 507.1L332.9 506.1L333.9 502.1L336 498L335.7 495.4L338.8 494L342.7 491.5L348.3 495.1L349.4 495L350.8 497.8L355.6 498.7L357.2 497.7L360 499.8L362.4 501.3V501.3Z" fill="#F0F0F0" stroke="black" stroke-width="0.5" stroke-linecap="round" stroke-linejoin="round"/>
<path d="M291.5 386L290.8 391.1L289.5 398.3H291.2L292.9 399.5L293.5 398.5L295 399.3L292.2 401.8L289.3 403.6L288.8 404.8L289.1 406.1L287.8 407.7L286.4 408.1L286.7 408.9L285.5 409.6L283.5 411.2L283.2 412.1L280.4 411L276.9 410.9L274.5 409.6L271.7 407L272.1 405.1L272.9 403.6L272.2 402.4L275.5 397.2H282.7L283.1 395L282.3 394.6L281.8 393.2L279.9 391.7L278.1 389.6L280.6 389.5L281.1 385.9H286.3L291.5 386Z" fill="#F0F0F0" stroke="black" stroke-width="0.5" stroke-linecap="round" stroke-linejoin="round"/>
<path d="M466.3 462L465.3 467.8L461.8 469.4L462.1 470.9L461 474.3L463.4 478.9H465.2L465.9 482.5L469.2 488.1L467.9 488.4L464.7 487.8L462.9 489.5L460.3 490.6L458.5 490.9L457.9 492.2L455.1 491.9L451.6 488.9L451.3 485.9L449.9 482.6L450.9 477.2L452.5 474.9L451.3 471.9L449.3 471L450.1 468.1L448.9 466.7L445.9 466.9L442.2 462.1L443.8 460.3V457.3L447.3 456.3L448.7 455.1L446.9 452.7L447.4 450.4L452.1 446.6L455.7 449L459 453.1L459.1 456.5L461.2 456.6L464.2 459.7L466.3 462V462Z" fill="#F0F0F0" stroke="black" stroke-width="0.5" stroke-linecap="round" stroke-linejoin="round"/>
<path d="M323 404L321.1 403.9L320.2 404.8L318.2 405.6H316.8L315.5 406.4L314.4 406.2L313.5 405.2L312.9 405.4L312 406.9L311.5 406.8L311.3 408.2L309.2 409.9L308 410.7L307.4 411.5L305.9 410.2L304.5 411.9H303.3L302 412L301.8 415.2H301L300.2 416.7L298.4 417L297.6 415L295.9 414.4L296.6 411.8L295.9 411.1L294.7 410.7L292.2 411.4L292.1 410.6L290.5 409.5L289.4 408.3L287.8 407.7L289.1 406.1L288.8 404.8L289.3 403.6L292.2 401.8L295 399.3L295.6 399.6L296.9 398.5L298.5 398.4L299 398.9L299.9 398.6L302.5 399.2L305.1 399L306.9 398.3L307.7 397.6L309.4 397.9L310.7 398.3L312.2 398.2L313.4 397.6L315.9 398.5L316.7 398.7L318.3 399.9L319.8 401.3L321.7 402.3L323 404V404Z" fill="#F0F0F0" stroke="black" stroke-width="0.5" stroke-linecap="round" stroke-linejoin="round"/>
<path d="M390.2 373.8L390.3 377.2L389.6 379.7L388.1 380.8L389.4 382.7L389.1 384.5L385.5 383.4L382.8 383.8L379.4 383.4L376.7 384.6L373.9 382.6L374.6 380.5L379.7 381.4L383.8 381.9L386 380.5L383.7 377.7L384.1 375.2L380.6 374.2L382.1 372.5L385.5 372.7L390.2 373.8V373.8Z" fill="#F0F0F0" stroke="black" stroke-width="0.5" stroke-linecap="round" stroke-linejoin="round"/>
<path d="M359.9 385.6L358.1 386.7L355.1 385.6L352.2 383.3L353 381.8L355.4 381.4L356.7 381.6L360.4 382.2L363.1 383.7L363.9 385.5L359.9 385.6V385.6Z" fill="#F0F0F0" stroke="black" stroke-width="0.5" stroke-linecap="round" stroke-linejoin="round"/>
<path d="M252.7 334.4L254.9 334.2L251.7 339.9L249.9 344.5L248.1 353.1L247 356.2L247.4 359.7L248.7 362.9L249.1 367.8L252.1 372.6L252.9 376.3L254.6 379.4L260.3 381.1L262.2 383.8L267.4 382L271.7 381.4L276.1 380.2L279.7 379.1L283.6 376.5L285.4 372.8L286.6 367.4L287.8 365.5L291.8 363.8L297.9 362.3L302.8 362.6L306.2 362L307.4 363.4L306.8 366.5L303.3 370.3L301.5 374.2L302.4 375.3L301.2 378.1L299.1 383.1L297.9 381.4L296.8 381.5L295.7 381.6L293.2 385.5L292.3 384.7L291.6 385L291.5 386L286.3 385.9H281.1L280.6 389.5L278.1 389.6L279.9 391.7L281.8 393.2L282.3 394.6L283.1 395L282.7 397.2H275.5L272.2 402.4L272.9 403.6L272.1 405.1L271.7 407L266.1 400.1L263.5 398L259.1 396.3L255.9 396.8L251.1 399.2L248.2 399.8L244.5 398.1L240.4 396.9L235.6 394L231.5 393.1L225.6 390.1L221.3 387L220.2 385.3L217.1 384.9L211.7 382.9L209.8 380L204.4 376.3L202.2 372.3L201.4 369.1L203.3 368.5L203 366.7L204.6 365L205 362.8L203.5 359.9V357.4L202.2 354.1L198.4 347.7L193.8 342.7L191.9 338.7L187.8 336.1L187.1 334.5L188.8 330.6L186.4 329.1L183.9 325.9L183.7 321.5L180.9 320.9L178.6 317.6L176.9 314.4L177.2 312.4L175.7 307.6L175.4 302.7L176.2 300.2L173.1 297.6L171.2 297.9L168.8 296.2L167 298.8L166.9 301.8L165.9 306.7L166.9 309.3L169.7 313.7L170.1 315.3L170.8 315.7L170.9 317.9L171.9 317.8V322L173.2 323.6L173.7 325.9L176.4 329.1L176.8 335.1L177.8 337.9L178.7 340.9L178.4 344.3L181 344.5L182.6 347.4L184.1 350.3L183.8 351.5L181 353.8H180L179.3 349.9L176.4 346.2L173 343.1L170.5 341.5L171.7 336.8L171.6 333.3L169.5 331.3L166.4 328.5L165.5 329.3L164.5 327.6L161.5 326.1L159.3 322.3L159.8 321.9L161.9 322.2L164.6 319.8L165.6 316.9L162.7 312.3L160.1 310.6L159.3 306.6L158.7 302.3L157.9 297.2L157.7 291.4L164 290.9L171.1 290.2L170.2 291.5L177.2 294.6L188.1 299.1H198.9H203.2L204 296.4H213.4L214.7 298.7L216.8 300.8L219.2 303.6L220 306.9L220.4 310.5L222.7 312.4L226.7 314.3L231.5 309.3L236 309.1L239.2 311.7L240.8 316.1L241.7 319.9L244.1 323.5L244.3 328L245.2 331L249.1 333L252.7 334.4V334.4Z" fill="#F0F0F0" stroke="black" stroke-width="0.5" stroke-linecap="round" stroke-linejoin="round"/>
<path d="M323 404L322.5 404.7L322 406.1L322.4 408.4L320.9 410.6L320.1 413.2L319.6 416L319.8 417.7L319.7 420.6L318.8 421.2L318.1 424L318.3 425.7L317.1 427.3L317.2 429L318 430.1L316.6 431.5L314.9 431L314.1 429.7L312.3 429.2L311 430L307.4 428.3L306.5 429.1L304.7 427.1L302.2 424.5L301.1 422.4L298.9 420.3L296.4 417.4L297.1 416.4L297.9 417.4L298.4 417L300.2 416.7L301 415.2H301.8L302 412L303.3 411.9H304.5L305.9 410.2L307.4 411.5L308 410.7L309.2 409.9L311.3 408.2L311.5 406.8L312 406.9L312.9 405.4L313.5 405.2L314.4 406.2L315.5 406.4L316.8 405.6H318.2L320.2 404.8L321.1 403.9L323 404V404Z" fill="#F0F0F0" stroke="black" stroke-width="0.5" stroke-linecap="round" stroke-linejoin="round"/>
<path d="M352.7 444.7L352 445.6L353.1 449.4L352 451.3L350.2 450.8L349.3 453.9L347.5 452.1L346.5 448.6L347.9 446.9L346.5 446.5L345.6 444.4L342.8 442.6L340.4 443L339.1 445.2L336.7 446.8L335.5 447L334.9 448.4L337.4 451.9L335.8 452.7L335 453.6L332.3 454L331.5 450.1L330.7 451.2L328.9 450.8L327.9 448.3L325.6 447.8L324.1 447.1H321.7L321.5 448.5L320.9 447.5L321.2 446.2L321.8 444.9L321.6 443.8L322.5 443L321.4 442.1L321.5 439.5L323.7 438.9L325.6 441.2L325.4 442.6L327.6 442.9L328.2 442.3L329.7 443.9L332.5 443.4L335 441.8L338.5 440.5L340.5 438.6L343.6 439L343.4 439.6L346.5 439.8L348.9 441L350.7 442.9L352.7 444.7V444.7Z" fill="#F0F0F0" stroke="black" stroke-width="0.5" stroke-linecap="round" stroke-linejoin="round"/>
<path d="M393.9 527.9L388.8 527.6L388 528.6L383.4 529.8L377.1 534.2L376.8 537.2L375.4 539.4L376.1 542.9L372.7 544.7L372.9 547.5L371.4 548.6L374 554.4L377.3 558.3L376.3 561.1L380.1 561.4L382.4 564.9L387.4 565L391.8 561.3L391.9 571L394.5 571.7L397.7 570.6L403.2 581L402.1 583.1V587.7L402.4 593.1L400.5 596.3L401.7 598.7L400.6 600.9L403.5 606.3L400.6 613.2L399.5 616.5L396.7 618.1L390.8 614.4L390 611.8L378.3 605.4L367.6 598.3L362.9 594.4L360.1 589.1L360.9 587.2L355.5 578.8L349.1 567L343.1 554.2L340.7 551.2L338.7 546.5L334.1 542.3L330 539.7L331.7 536.9L328.7 530.7L330.4 526.2L334.8 522.2L335.5 524.9L333.9 526.4L334.2 528.7L336.5 528.2L338.8 528.9L341.3 532.2L344.4 529.5L345.3 525.2L348.7 519.6L355.4 517.1L361.5 510.3L363.2 506.2L362.4 501.3L363.9 500.7L367.7 503.7L369.5 506.8L372.1 508.4L375.6 515.1L379.8 516L382.9 514.3L385 515.4L388.4 514.8L392.8 517.8L389.3 524.4L391 524.5L393.9 527.9V527.9Z" fill="#F0F0F0" stroke="black" stroke-width="0.5" stroke-linecap="round" stroke-linejoin="round"/>
<path d="M465.9 629.9L467.9 633.4L468.3 642.1L474.2 643.4L476.4 642.1L480.3 643.9L481.5 645.8L482.6 651.7L483.4 654.1L485.5 654.4L487.5 653.4L489.6 654.5L489.9 658.1L489.6 661.9L488.9 665.6L488.6 671.2L484.3 676.2L480.1 677.2L473.8 676.2L468 674.5L472.2 664.7L471.1 661.9L465.2 659.4L457.9 654.6L453.3 653.6L442 643.2L443.5 635.5L443.3 632L445.4 626.4L455 624.5L460.2 624.6L465.6 627.9L465.9 629.9V629.9Z" fill="#F0F0F0" stroke="black" stroke-width="0.5" stroke-linecap="round" stroke-linejoin="round"/>
<path d="M295.9 414.4L295.2 415.9L291.9 415.8L289.9 415.2L287.7 413.9L284.7 413.5L283.2 412.1L283.5 411.2L285.5 409.6L286.7 408.9L286.4 408.1L287.8 407.7L289.4 408.3L290.5 409.5L292.1 410.6L292.2 411.4L294.7 410.7L295.9 411.1L296.6 411.8L295.9 414.4V414.4Z" fill="#F0F0F0" stroke="black" stroke-width="0.5" stroke-linecap="round" stroke-linejoin="round"/>
<path d="M484.4 463.4L481.3 468.9L481.6 473.3L483.8 477.1L482.7 479.8L482.2 482.8L480.7 485.5L477.5 484.1L474.8 484.8L472.5 484.2L471.9 486.1L472.9 487.3L472.3 488.7L469.2 488.1L465.9 482.5L465.2 478.9H463.4L461 474.3L462.1 470.9L461.8 469.4L465.3 467.8L466.3 462L473.1 463.3L473.7 462.1L478.3 461.6L484.4 463.4V463.4Z" fill="#F0F0F0" stroke="black" stroke-width="0.5" stroke-linecap="round" stroke-linejoin="round"/>
<path d="M503.1 717.1L501.5 721.2L496.1 724.7L491.9 723.4L489.1 724.1L483.6 721.4L480 721.6L476.1 718L475.7 713.9L476.6 712.5L475.4 706.1L475.8 699.5L476.3 694.3L479.7 693.6L486 698.6L487.9 698.4L494.2 702.5L499 706.1L502.8 710.4L501 713.5L503.1 717.1V717.1Z" fill="#F0F0F0" stroke="black" stroke-width="0.5" stroke-linecap="round" stroke-linejoin="round"/>
<path d="M452.1 446.6L447.4 450.4L446.9 452.7L448.7 455.1L447.3 456.3L443.8 457.3V460.3L442.2 462.1L445.9 466.9L446.6 468.7L444.5 471.2L438.1 473.6L434 474.6L432.3 476.1L427.8 474.5L423.7 473.7L422.6 474.3L425.1 475.9L424.8 480.2L425.5 484.3L430.3 484.8L430.6 486.2L426.5 488L425.8 490.7L423.4 491.8L419.2 493.3L418.1 495.3L413.7 495.7L410.6 492.3L409 485.9L407.5 483.6L405.5 482.2L408.4 479L408.2 477.6L406.7 475.7L405.6 471.4L406.2 466.8L407.5 464.6L408.7 461.2L406.7 460.1L403.5 460.8L399.4 460.5L397.1 461.2L393.3 455.6L390 454.8L382.7 455.4L381.5 453.2L380.1 452.7L380 451.3L380.7 448.9L380.4 446.4L379.2 444.9L378.6 442L375.7 441.6L377.5 437.8L378.4 433.2L380.2 430.8L382.5 429L384.1 425.8L387.8 424.7L387.6 426.2L384.2 427L385.9 429.9L385.6 433.3L382.9 437L384.8 442.1L387.3 441.7L388.8 437L387.1 434.8V429.9L394.3 427.3L393.7 424.3L395.8 422.2L397.5 426.8L401.5 426.9L404.9 430.4L405.1 432.6H410.1L416.2 432L419.3 434.8L423.5 435.6L426.8 433.6L426.9 432L434 431.6L440.7 431.5L435.8 433.4L437.6 436.5L442.1 436.9L446.3 440.1L447 445.2L449.9 445.1L452.1 446.6V446.6Z" fill="#F0F0F0" stroke="black" stroke-width="0.5" stroke-linecap="round" stroke-linejoin="round"/>
<path d="M458.5 836.4L464.5 850H469.5L472.5 850.2L472 852.6L468.8 854.5L466.4 854.3L463.3 853.8L459.1 852L453.7 851.1L446.2 847.7L439.8 844.5L430 837.6L434.6 838.9L443.2 843L450.5 845.2L451.7 842.4L451.4 838.2L454.8 835.6L458.5 836.4Z" fill="#F0F0F0" stroke="black" stroke-width="0.5" stroke-linecap="round" stroke-linejoin="round"/>
<path d="M417.8 646.3L418.7 647.9L417.5 654.6L411.9 657.7L413.5 668.4L412.7 670.5L414.7 673L411.4 677L408.8 683L407.9 688.9L409.6 695.1L407.5 701.7L412.4 712.8L414 714L415.4 719.9L413.8 726.1L415.2 731.5L412.2 735.7L413.8 741.5L417.1 747.8L414.6 750.1L414.8 755.8L415.6 762.3L418.9 770.1L417.2 771.4L420.9 778.7L424 781.1L423.2 783.8L426 785L427.4 787.4L425.6 788.6L427.4 792.3L428.5 800.6L427.8 806L429.6 809.2L429.5 813.1L426.8 815.9L429.9 822.4L432.5 824.7L435.6 824.3L437.5 828.9L441 832.5L453.1 833.3L458 834.3H453.7L452 835.8L448.6 838L450.3 843.7L448.4 843.8L442.1 841.9L434.6 837.6L427 834.1L423.8 830.2L423.5 826.6L419.3 822.4L414.3 811.8L414.1 805.8L417.5 801L409.2 799.1L411.9 793.6L409.9 783.1L416.4 785.3L414.6 772.2L410.6 770.5L411.6 778.4L408.1 777.5L406.6 768.5L404.6 756.7L405.7 752.3L402.4 746.1L400 738.9L402.2 738.6L402.8 728.3L404 718L404.1 708.5L400.8 698.8L401.4 693.5L399.3 685.6L401.1 677.8L400.2 665.4V652L400.3 637.7L398.8 627.2L396.7 618.1L399.5 616.5L400.6 613.2L403.8 617.6L405 622.2L408.2 624.9L407.1 631.1L410.8 638.3L413.9 647.2L417.8 646.3Z" fill="#F0F0F0" stroke="black" stroke-width="0.5" stroke-linecap="round" stroke-linejoin="round"/>
<path d="M342.9 193L336.8 195L332.1 197.5L327.5 200.2L327 201.1L332.7 199.8L334.8 201.9L339.4 200.4L344.3 198.3L349.7 196.2L346.6 199.5L349.1 200.3L351.6 202.7L356.7 201.3L361.8 200.8L362.1 202.6L363.6 202.8L364.8 203L366.3 205.5L361.6 206.1H361.5L357.8 205.4L353.3 206.6L349.6 207.2L344.9 211.3L341.9 213.6L342.3 214.3L347.8 210.2H348.5L343.8 215.1L340.9 219.5L338.4 223.1L337.8 226.2L337 227.7L336.4 229.4L336.5 232.7L336.8 233.2L338.6 233.1L340.2 232.4L341.6 231.6L344.9 228.5L346.7 224.3L346.6 220.4L348 217.7L350.6 214.6L352.7 212.4L355.4 210.9L355 213L357.2 209.9L358.5 209.3L360.2 206.9L364 208.2L366.8 210.6L366 213.5L364.4 216.4L360.6 218.9L360.2 220.5H361.2L365.5 217.8L367.1 218.4L366.6 222.1L365.9 224.7L362.2 228.2L360.2 230.4L357.5 232.8L360.2 234.1L362.7 234.5L366.7 233.6L370.4 231.9L373.4 231L378 229.2L383.8 225.4L383.9 224.8L384.2 222.9L386.9 222.1L390.8 222.4L394.8 222.9L399.4 220.8L400 218.3L399.8 217.4L406.6 213L409.3 211.9L417.1 211.8H426.4L427.5 210.3L429.2 210L431.7 209L434.5 206.1L437.7 201.2L443.2 196.5L444.3 198.1L448 197.1L449.6 198.9L446.7 207.4L448.9 211L449.1 213.1L442.7 216.1L436.7 218.3L430.7 220.2L426.7 224L425.4 225.4L424.2 228.8L424.9 232.1L427 232.3L427.2 230L428.3 231.4L427.3 233.2L423.5 234.2L421 234.1L416.8 235.2L414.5 235.5L411.4 235.8L406.4 237.7L414.5 236.5L415.6 237.7L407.7 239.6H404.4L404.8 238.8L402.7 240.6L404.1 240.9L401.6 245.5L396.3 250.4L396.4 248.7L395.3 248.4L394.1 246.8V250.3L395.1 251.4L394.5 253.8L392.1 256.3L387.6 261.4L387.2 261.2L390.1 256.8L388.1 254.4L389.1 249L387.2 251.8V255.9L384 254.9L387 256.9L385.5 263L386.9 263.5V265.7L385.9 272.1L381.3 276.8L375.2 278.7L370.8 282.5L368 282.9L364.6 285.3L363.3 287.4L356.4 291.6L352.6 294.7L349.1 298.5L347.2 303V307.5L347.8 313L349.3 317.5L348.8 320.3L350.1 327.7L349.1 332.1L348.5 334.6L346.5 338.5L344.7 339.3L342.1 338.5L341.7 335.7L339.9 334.2L337.9 328.7L336.3 323.8L335.9 321.3L337.9 317L337.1 313.5L334 308.1L332.1 307.1L326 310.1L325.1 309.7L323.1 306.7L320.1 305.1L313.7 306L309.1 305.2L304.8 305.7L302.3 306.7L302.9 308.4L302.2 311L303 312.3L301.8 313.1L300 312.2L297.7 313.4L293.8 313.2L290.5 309.8L285.6 310.6L282 309.1L278.5 309.6L273.5 311.1L267.4 315.8L261.3 318.6L257.6 321.6L255.7 324.5L254.7 329L254.3 332L254.9 334.2L252.7 334.4L249.1 333L245.2 331L244.3 328L244.1 323.5L241.7 319.9L240.8 316.1L239.2 311.7L236 309.1L231.5 309.3L226.7 314.3L222.7 312.4L220.4 310.5L220 306.9L219.2 303.6L216.8 300.8L214.7 298.7L213.4 296.4H204L203.2 299.1H198.9H188.1L177.2 294.6L170.2 291.5L171.1 290.2L164 290.9L157.7 291.4L158 288.2L155.9 284.5L153.7 283.7L153.8 281.9L150.9 281.5L149.7 279.8L144.9 279.2L144 278.1L144.8 274.6L142.3 268.2L141.8 259.3L142.7 257.8L141.4 255.7L139.9 250.3L141.7 245.1L140.8 241.6L144.7 236.3L147.5 230.9L148.6 226L154.1 220L158.1 214.3L162.1 208.6L166.4 200.1L168.2 194.8L168.6 191.9L170 190.6L175.8 192.8L174.8 198.7L177 197L179.5 191.9L181.1 186.8H195.2H209.9H214.7H229.8H244.5H259.3H274.2H291H308H318.2L319.5 184.4H321.2L320.3 187.8L321.3 188.8L324.6 189.2L329.2 190.2L333.1 192.1L337.5 191.3L342.9 193Z" fill="#F0F0F0" stroke="black" stroke-width="0.5" stroke-linecap="round" stroke-linejoin="round"/>
<path d="M78.4001 137.1L71.4001 139.4L70.6001 137.8L72.9001 135L79.3001 132.9L82.8001 132L85.4001 132.4V134.3L78.4001 137.1Z" fill="#F0F0F0" stroke="black" stroke-width="0.5" stroke-linecap="round" stroke-linejoin="round"/>
<path d="M39.4 120.5L35.5 121.4L33.8 120.3L33 118.7L38.7 117.7L41.7 118.3L39.4 120.5Z" fill="#F0F0F0" stroke="black" stroke-width="0.5" stroke-linecap="round" stroke-linejoin="round"/>
<path d="M40.6 98.1001L41.8 99.1001L45.3 98.6001L46.9 100.1L50.2 100.8L49 101.5L44.1 102.7L42.4 101.4L42.1 100.4L37.8 100.7L37.5 100.2L40.6 98.1001Z" fill="#F0F0F0" stroke="black" stroke-width="0.5" stroke-linecap="round" stroke-linejoin="round"/>
<path d="M213.4 65.0999L188.8 85.4999L153.2 118.2L157.4 118.4L160.2 120L160.7 122.6L161 126.4L168.6 123.1L175.1 121.2L174.5 124.3L175.3 126.7L176.9 129.4L175.8 133.6L174.4 140.5L179 144.3L175.8 148.1L170.7 151L170.1 148.8L167.6 146.8L170.9 141.6L169.3 136.7L172 131.1L167.9 130.7L160.8 130.6L157 128.8L153.7 122.7L150.4 121.6L144.7 119.5L137.9 120L131.9 117.3L129.2 114.8L122.9 116L119.4 120.1L116.5 120.5L109.9 121.7L103.7 123.7L97.2999 125L100.5 121.5L108.9 115.7L115.7 113.9L116.1 112.5L106.7 115.7L99.2999 119.6L88.1 123.8L88.2999 126.7L79.2999 130.9L71.6 133.4L65 135.3L61 137.9L50.3999 141L45.8999 143.8L37.7 146.4L35 146L28.7999 147.6L21.7999 149.7L15.7 151.7L5.69995 153.5L6.09995 152.4L14.2999 149.6L20.8999 147.7L29.5 144.4L36 143.8L41 141.3L51.3999 137.7L53.7 136.5L59.3999 134.4L65.1999 129.9L71.3999 126.4L64.1 128.2L63.7999 127.1L58.8999 129.3L59.2999 126.3L55.7 128.4L57.2999 125.5L50 127.8H47.2L50.8999 124.3L54.2 122.1L53.7999 120L46.5999 121.2L46 118.4L44.7 117L48.7 113.7L48.2999 111.2L54.2 107.9L61.8999 104.6L67.1999 101.7L71.2999 101.3L73.1 102.2L80.1999 99.3999L82.6999 99.8999L88.2999 98.0999L90.7999 95.4999L89.6999 94.4999L95.6999 92.2999L92.8999 92.3999L86.6999 93.5999L83.7999 94.8999L82 93.5999L75.1 94.2999L70.5 92.8999L71.6999 90.5999L70.6999 87.3999L79.8999 84.9999L93.1 82.2999H96.6L92.2999 85.0999L101.5 84.8999L102.7 81.3999L100.4 79.2999L101.2 76.4999L100.5 74.1999L97.1999 72.4999L103.7 69.5999L111.2 69.3999L120 66.9999L124.8 64.3999L132.7 61.7999L137.5 61.1999L148.7 58.7999L151.8 59.1999L162.2 56.3999L166.6 57.4999L166.1 59.8999L169.4 58.8999L175.7 59.1999L173.8 60.3999L178.7 61.2999L183.6 60.7999L189.8 62.3999L197 62.9999L199.2 63.5999L205.8 62.7999L209.9 64.3999L213.4 65.0999Z" fill="#F0F0F0" stroke="black" stroke-width="0.5" stroke-linecap="round" stroke-linejoin="round"/>
<path d="M480.7 485.5L482.2 482.7L482.7 479.8L483.7 477.1L481.6 473.3L481.3 468.9L484.4 463.4L486.3 464.1L490.4 465.6L496.3 471L497.1 473.6L493.7 479.5L491.9 484.2L489.7 486.7L487 487.1L486.2 485.3L484.9 485.1L483.2 486.8L480.7 485.5V485.5Z" fill="#F0F0F0" stroke="black" stroke-width="0.5" stroke-linecap="round" stroke-linejoin="round"/>
<path d="M396.3 420.5L395.8 420.3L395.3 419.8L395.4 419.2L395.6 419.5L396 419.9L396.3 420.4V420.5Z" fill="#F0F0F0" stroke="black" stroke-width="0.5" stroke-linecap="round" stroke-linejoin="round"/>
<path d="M437.6 383.4H437.4L437.7 383H438L437.8 383.3L437.6 383.4V383.4Z" fill="#F0F0F0" stroke="black" stroke-width="0.5" stroke-linecap="round" stroke-linejoin="round"/>
<path d="M444.1 390.4L444.7 390.7L444.5 391H444.3L443.6 391.1L443.4 391V390.5L443.7 390.4L443.8 390.1H444L444.1 390.4Z" fill="#F0F0F0" stroke="black" stroke-width="0.5" stroke-linecap="round" stroke-linejoin="round"/>
<path d="M444.1 386.7H444.3L444.5 386.9L444.6 387.3L444.5 387.6L444.3 387.7L444.2 387.5L443.9 387.3V386.8L444.1 386.7Z" fill="#F0F0F0" stroke="black" stroke-width="0.5" stroke-linecap="round" stroke-linejoin="round"/>
<path d="M383.8 364.5L383.4 365L383.2 365.5L382.6 365.8H382.1L382 365.7L381.6 365.9L381.1 366L380.5 365.8L380.1 365.9L380 365.4L380.3 365.2L380.5 364.9L380.9 364.7L381.2 364.3H381.6L381.9 364.1L382.1 364.4L382.6 364.6L383.1 364.4L383.8 363.4H384.1V363.6L383.8 364.5Z" fill="#F0F0F0" stroke="black" stroke-width="0.5" stroke-linecap="round" stroke-linejoin="round"/>
<path d="M384 362.8L383.8 362.2L384.4 361.9L384.7 362.2V362.4L384.4 362.5L384 362.8Z" fill="#F0F0F0" stroke="black" stroke-width="0.5" stroke-linecap="round" stroke-linejoin="round"/>
<path d="M384.4 356.3L384.6 356.2L385.1 356.5H385.5L385.9 356.6L386.2 356.8V357.1L386 357.2L385.5 356.8H385.1L385 356.7L384.5 356.9L384 356.7V356.6L384.2 356.1L384.4 356.3Z" fill="#F0F0F0" stroke="black" stroke-width="0.5" stroke-linecap="round" stroke-linejoin="round"/>
<path d="M380.5 354.5L380.3 354.9V355.6L380.2 356L379.8 356.3L379.6 356.7L379.2 357L378.5 357.3L378.4 357.5L378.2 357.3L378.3 357.1L378.7 357L378.9 356.8V356.6L379.3 356.5L379.5 356.1L379.9 356L380.2 355.6L380 355.3H379.6L379.4 355.1L379.8 354.6L379.9 354.5H380.5Z" fill="#F0F0F0" stroke="black" stroke-width="0.5" stroke-linecap="round" stroke-linejoin="round"/>
<path d="M378.6 354.2L378.7 354.3H379.1L379.5 354.5L379.1 354.9L379 354.7H378.8L378.4 354.6L378 354.4L377.7 353.8L378 353.7L378.4 353.8L378.6 354.2Z" fill="#F0F0F0" stroke="black" stroke-width="0.5" stroke-linecap="round" stroke-linejoin="round"/>
<path d="M369.4 348.3L370 349L370.3 349.2L370.6 349.7L370.3 349.6L370.2 349.4L369.9 349.3L369.5 348.9L369.3 348.8L369.1 348.4L369.4 348.3Z" fill="#F0F0F0" stroke="black" stroke-width="0.5" stroke-linecap="round" stroke-linejoin="round"/>
<path d="M373.1 348.3L373.4 348.9L373.6 349.4V349.8L373.8 350L374 350.7V351.6L374.2 351.9L374.7 352.1L375.1 352.7V353.5L374.7 352.8V352.6L374.4 352.2L373.8 352L374 351.8L373.7 351.5V351.2L373.9 350.9L373.8 350.4L373.5 350L373.6 349.9L373.3 349.5L373.2 348.9L373 349L373.1 348.3Z" fill="#F0F0F0" stroke="black" stroke-width="0.5" stroke-linecap="round" stroke-linejoin="round"/>
<path d="M376 348.3L375.7 348.5L375.4 348.4L375.3 348.2L375.9 348L376 348.3Z" fill="#F0F0F0" stroke="black" stroke-width="0.5" stroke-linecap="round" stroke-linejoin="round"/>
<path d="M367.8 346.4L367.7 346.3L367.4 345.6H367.6L367.8 346.4Z" fill="#F0F0F0" stroke="black" stroke-width="0.5" stroke-linecap="round" stroke-linejoin="round"/>
<path d="M378.3 345.9L377.9 346.5H377.5L377.7 346.2L377.8 345.6L378.2 345.3L378.3 345.7V345.9Z" fill="#F0F0F0" stroke="black" stroke-width="0.5" stroke-linecap="round" stroke-linejoin="round"/>
<path d="M359.8 344.7L359.5 344.8L359.3 345.1L359 345L359.6 344.6L359.8 344.7Z" fill="#F0F0F0" stroke="black" stroke-width="0.5" stroke-linecap="round" stroke-linejoin="round"/>
<path d="M360 345.4L360.4 345.6L360.6 345.4L360.7 344.9L360.9 344.8L361.1 345.4V345.9L361 346.2L361.1 346.8V347.1L360.7 347.9L360.5 348L360.1 347.8L360.3 347.5L360.7 347.3L360.6 347.2L360 347.6L359.8 347.4L360.2 347.1H359.8L359.6 347.2L359.4 347V346.3L359.5 346.1L359.1 345.6V345.4L359.5 345.2L359.6 344.9L359.9 344.8L360 344.6L360.6 344.3L360.7 344.7L360.2 345.1L360 345.4Z" fill="#F0F0F0" stroke="black" stroke-width="0.5" stroke-linecap="round" stroke-linejoin="round"/>
<path d="M373.5 344.8L373.6 345.3L373.4 345.2L372.9 345.3L372.5 345.4L372.4 345.2L372.7 345L373.1 344.7V344.5L372.7 344.3L372.5 343.7L372.4 343.1L372 342.7V342.5L371.5 342L371.8 341.7L372.2 342.1V342.6L372.4 342.9L372.5 343.4L372.8 343.9L373.2 344.2L373.3 344.5L373.5 344.8Z" fill="#F0F0F0" stroke="black" stroke-width="0.5" stroke-linecap="round" stroke-linejoin="round"/>
<path d="M363.2 339.3L363.5 339.5L362.9 339.8L362.6 339.7L362.4 339.9L361.9 339.8L362.1 339.5L362.5 339.3H363.2Z" fill="#F0F0F0" stroke="black" stroke-width="0.5" stroke-linecap="round" stroke-linejoin="round"/>
<path d="M359 338.8L359.4 338.6L359.7 338.9L359.6 339.1L359.7 339.3L359.5 339.7L359.8 340L360 340.9L360.2 341.2L360.6 341.7L360.4 342.4L360.5 343L360.3 343.3L360 343.4L359.6 343.8L359.3 344H359L358.7 344.2H358.4V343.8L358.1 343.6L358.2 343L357.9 343.3L357.7 343.2L357.1 342.8L356.8 342.5L356.6 342.2L357.3 341.9L357.8 342.6L357.9 342L357.6 341.9L357.5 341.6L357.6 341.3L358.2 340.7L358.4 340.3L358.3 340.2L358.6 339.8V339.3L358.4 338.6L358.5 338.5H358.8L359 338.8Z" fill="#F0F0F0" stroke="black" stroke-width="0.5" stroke-linecap="round" stroke-linejoin="round"/>
<path d="M367.1 336.2L367.2 336.4L367.5 336.8L368.3 337.5L368.8 337.6L368.9 337.7L369.1 338.1L369.4 338.5L369.9 338.9V339.1L369.7 339.9L369.6 340.1V340.4L369.5 340.9L369.3 341.2L369.2 341.9L369.1 342L368.9 341.4L368.5 341.1L368.6 340.9L369.1 341L369.3 340.8L369.2 340.6L369.3 340.2L369.6 339.8L369.7 339.3V339L369.2 338.6L368.8 337.9L368.5 337.7L367.9 337.4L367.6 337.1L367 336.9L366.6 337.1L367 336.2H367.1Z" fill="#F0F0F0" stroke="black" stroke-width="0.5" stroke-linecap="round" stroke-linejoin="round"/>
<path d="M358.3 328.7L358.8 328.9H358.9L359.6 329L359.8 328.8L360 328.9H360.5L360.9 328.7H361.3L361.6 328.5L361.7 329L361.6 329.2H361.3H360.9L359.8 329.4H359.5L358 329.8L357.3 330.2H356.9L356.7 330.1L356.4 329.8L355.9 329.2L356.5 329.5L356.6 329.7H357.1L357.6 329.5L358 328.9L357.7 328.8L357.9 328.5L358 328.2L358.3 328.7Z" fill="#F0F0F0" stroke="black" stroke-width="0.5" stroke-linecap="round" stroke-linejoin="round"/>
<path d="M362.6 327.4L363.4 327.6L363.6 327.5L364 327.8L364.9 328.8L365.1 329.4L365.5 329.5L366.2 330V330.2L366 330.7L366.2 331.4H365.8L365.3 331.8L365.2 332L364.9 333L364.8 333.9L364.6 334.1L364.3 333.9L364.2 333.5L363.8 333.4L364.1 332.9H364.3L364.8 332.5L364.7 332.1L364.9 331.7V331.4L365.1 331.1V330.5L365.3 330.4L365.5 330.1L365.6 329.8L365.3 329.7L364.8 329.6L364.7 329.3V329.1L364.3 328.9V328.6L364 327.9L363.8 327.8L363.5 327.9L363 327.8H362.7L362.1 327.4H362.6Z" fill="#F0F0F0" stroke="black" stroke-width="0.5" stroke-linecap="round" stroke-linejoin="round"/>
<path d="M438.6 385.5L438.5 385.2L438.8 385.3L438.6 385.5V385.5Z" fill="#F0F0F0" stroke="black" stroke-width="0.5" stroke-linecap="round" stroke-linejoin="round"/>
<path d="M440.7 292.5H440.4L440.3 292.6L440.4 292.8L440 293L439.9 292.9L440.1 292.8H440.2L440.3 292.5L440.6 292.4L440.7 292.5V292.5Z" fill="#F0F0F0" stroke="black" stroke-width="0.5" stroke-linecap="round" stroke-linejoin="round"/>
<path d="M454.9 416.5L454.3 416.3L454.2 415.8V415L454.4 414.6L454.6 414.8L454.8 415.4L455.3 415.7L455.4 416.1L454.9 416.5V416.5Z" fill="#F0F0F0" stroke="black" stroke-width="0.5" stroke-linecap="round" stroke-linejoin="round"/>
<path d="M402.4 423H402.1L401.7 422.7L401.4 422.6L401.1 422.3L401 422.1L400.7 422L400.5 421.6L400.2 421.3L400.3 420.8L400.8 421.1L400.9 421.6L401.3 422L402 422.2L402.2 422.5L402.5 422.9L402.4 423V423Z" fill="#F0F0F0" stroke="black" stroke-width="0.5" stroke-linecap="round" stroke-linejoin="round"/>
<path d="M336.1 376.3L336.4 376.4L336.6 376L337 376.1H337.5L337.6 376.3L337.4 376.5L337.2 376.4L336.8 376.5L336.6 376.6H335.9L336.1 376.3Z" fill="#F0F0F0" stroke="black" stroke-width="0.5" stroke-linecap="round" stroke-linejoin="round"/>
<path d="M344.2 373.8L343.5 374.1L343.7 373.8H344.2Z" fill="#F0F0F0" stroke="black" stroke-width="0.5" stroke-linecap="round" stroke-linejoin="round"/>
<path d="M344.8 373.9L344.7 373.8L345.5 373.5L345.3 373.8L344.8 373.9Z" fill="#F0F0F0" stroke="black" stroke-width="0.5" stroke-linecap="round" stroke-linejoin="round"/>
<path d="M445.4 400.2L445.9 400.3L446.1 400.8V401.4L446 402.2L445.9 402.4L445.7 402.5L445.3 402.7L445.4 402.3L445.3 402.1L445.2 401.4L444.9 400.9V400.6L445 400.3V400H445.2L445.4 400.2V400.2Z" fill="#F0F0F0" stroke="black" stroke-width="0.5" stroke-linecap="round" stroke-linejoin="round"/>
<path d="M500.8 834.7L501.2 834.6V835L500.4 834.7L500.7 834.4L500.9 834.3L500.8 834.7Z" fill="#F0F0F0" stroke="black" stroke-width="0.5" stroke-linecap="round" stroke-linejoin="round"/>
<path d="M500.1 833.3L500.3 833.5L500.7 833.6L500.8 834L500.5 834.1L500.4 833.7L500.2 833.5L500.1 833.3Z" fill="#F0F0F0" stroke="black" stroke-width="0.5" stroke-linecap="round" stroke-linejoin="round"/>
<path d="M506.3 832.5L506.5 832.6L506.4 833L506.1 832.9L505.9 832.6L506.2 832.4L506.3 832.5Z" fill="#F0F0F0" stroke="black" stroke-width="0.5" stroke-linecap="round" stroke-linejoin="round"/>
<path d="M494.2 831.6V831.8L494.3 832.1L493.9 832.2L493.6 832.1L493.4 831.9L493.1 831.8L493 831.4H493.2L493.3 831.2L493.6 831.1L493.8 831.2L493.5 831.5L493.8 831.6L494.1 831.3L494.2 831.6Z" fill="#F0F0F0" stroke="black" stroke-width="0.5" stroke-linecap="round" stroke-linejoin="round"/>
<path d="M497.1 830.3L496.7 830.1L496.2 829.8L495.4 829.5L495.5 829.1L494.8 829L494.5 828.9L494.2 828.5L494.4 828.4L495.2 828.7L496 829.1L496.5 829.2L496.9 829.3L497.2 829L497.3 828.7L497.5 828.8L497.9 828.6L498 828.8H498.5V829.1H498.8L499.7 828.9L499.8 829.1H500.1L500.5 829L500.2 828.8L500.1 828.5H500.5L501.1 828.7L501.2 829.1L500.8 829.6L500.9 829.9L500.7 830.1H500.3L500 830.9L499.7 831.2L499.4 831.8L499.3 832.1L498.8 832.4L498.7 832.2H498.3V832.5L497.5 832.4L497.4 832.5L497.7 832.9L497.6 833L497.4 833.4H497L496.7 833.8L496.4 833.9H496.2L496 833.6L495.6 833.3V833.1H495.1L495.7 833.5H495.3L494.8 833.2L494.6 833.1L494.2 832.9L493.9 832.7V832.5L494.6 832.7L495.2 832.5L494.7 832.3L494.6 832.2H495.5L495.9 832.3L496.2 832.5V832.3L496.6 832.2L496.7 831.9L496.3 831.7L496.1 831.2L496.2 831H496.8L497 831.1L497.4 831L497.3 830.7H496.5V830.8L496.1 831H495.5L495 830.7V830.4L495.7 830.6L496.3 830.4H496.6L497.1 830.3L497.5 830.5V830.4L497.1 830.3Z" fill="#F0F0F0"/>
<path d="M497.1 830.3L496.7 830.1L496.2 829.8L495.4 829.5L495.5 829.1L494.8 829L494.5 828.9L494.2 828.5L494.4 828.4L495.2 828.7L496 829.1L496.5 829.2L496.9 829.3L497.2 829L497.3 828.7L497.5 828.8L497.9 828.6L498 828.8H498.5V829.1H498.8L499.7 828.9L499.8 829.1H500.1L500.5 829L500.2 828.8L500.1 828.5H500.5L501.1 828.7L501.2 829.1L500.8 829.6L500.9 829.9L500.7 830.1H500.3L500 830.9L499.7 831.2L499.4 831.8L499.3 832.1L498.8 832.4L498.7 832.2H498.3V832.5L497.5 832.4L497.4 832.5L497.7 832.9L497.6 833L497.4 833.4H497L496.7 833.8L496.4 833.9H496.2L496 833.6L495.6 833.3V833.1H495.1L495.7 833.5H495.3L494.8 833.2L494.6 833.1L494.2 832.9L493.9 832.7V832.5L494.6 832.7L495.2 832.5L494.7 832.3L494.6 832.2H495.5L495.9 832.3L496.2 832.5V832.3L496.6 832.2L496.7 831.9L496.3 831.7L496.1 831.2L496.2 831H496.8L497 831.1L497.4 831L497.3 830.7H496.5V830.8L496.1 831H495.5L495 830.7V830.4L495.7 830.6L496.3 830.4H496.6L497.1 830.3ZM497.1 830.3L497.5 830.5V830.4L497.1 830.3Z" stroke="black" stroke-width="0.5" stroke-linecap="round" stroke-linejoin="round"/>
<path d="M498.7 828.4H499L499.3 828.7L499 828.8H498.7V828.4Z" fill="#F0F0F0" stroke="black" stroke-width="0.5" stroke-linecap="round" stroke-linejoin="round"/>
<path d="M497.7 828.4H497.4L497.3 828.1L497.7 828.2V828.4Z" fill="#F0F0F0" stroke="black" stroke-width="0.5" stroke-linecap="round" stroke-linejoin="round"/>
<path d="M496.3 828.2L496.9 828.1L497.1 828.4L496.8 828.8L496.6 828.7L496.3 828.8L496 828.6L496.3 828.4L496.6 828.6L496.7 828.4L496.2 828.3L496.3 828.2Z" fill="#F0F0F0" stroke="black" stroke-width="0.5" stroke-linecap="round" stroke-linejoin="round"/>
<path d="M503.5 828.3H504.1L504.2 828.2L504.7 828.1L505.1 828.3L505.5 828.6L505.6 828.9V829L505.1 829.1L504.9 828.8L504.7 828.7L504.6 829L504.8 829.1L504.9 829.4L505.2 829.2L505.4 829.3L505.5 829.7L505.8 829.8L505.9 829.7L506.4 830L506.5 829.6L505.7 829.4L505.8 828.9L506.1 828.7L507.6 828.6L508.3 829.2L508.5 829.3V829.7L507.9 829.6L507.4 829.4L506.8 829.6L507.1 829.8L507.5 829.9L508.4 830L508.7 830.1L508.8 830.3L508.6 830.8H508.1L508 830.9L507.3 831L506.8 831.2L507.1 831.4L506.2 831.8L505.8 831.7L505.3 831.8H504.6L504 831.6L503.4 831.2V831.5L503.7 831.7L504.3 831.9L504.6 832.2L504.8 832.1L505.2 832.2L505.6 832.5L505.4 832.6L505.6 833.1H505.4L505.1 832.8L504.7 832.7L504.2 833.1L504 832.8L503.7 832.6H503.4L502.9 832.4L502.7 832.5L502.9 832.9H503.2L503.4 833.1L503.2 833.2L503.9 833.8L503.7 833.9L503.3 833.7H503L502.7 833.4L502.4 833.3L502.1 833.2L502 833.8L502.5 833.9V834.2L502.4 834.4L502 834.3L501.9 834.1L501.4 833.9L501.3 833.7H501.1L500.7 833.2L501 832.8V832.6L500.6 832.1V831.9L501.1 831.7L501 831.5L501.5 831.4L501.4 831.1L502 830.7L502.6 830.5L503 830.9V831.3L503.3 831.2L502.8 830.6L502.9 830.3L502.3 830.1L501.9 829.8L502 829.6L502.4 829.8L502.5 829.3L501.8 829.1L501.9 828.8L502.1 828.9L502.4 828.7H502.7L502.9 828.4L502.6 828.1H503L503.5 828.3Z" fill="#F0F0F0" stroke="black" stroke-width="0.5" stroke-linecap="round" stroke-linejoin="round"/>
<path d="M498.5 827.9H499.2L499.4 828.1L499.6 827.9L499.8 828L500 828.3L499.8 828.4L499.4 828.3L499 828.1L498.2 828L498.3 827.8L498.5 827.9Z" fill="#F0F0F0" stroke="black" stroke-width="0.5" stroke-linecap="round" stroke-linejoin="round"/>
<path d="M491.7 826.8L491.2 826.7L491.3 826.5L491.7 826.8Z" fill="#F0F0F0" stroke="black" stroke-width="0.5" stroke-linecap="round" stroke-linejoin="round"/>
<path d="M442.6 423L442.2 423.3L442 423.2L441.9 422.7L442.1 422.2L442.4 421.8H442.7L442.8 422.1L442.7 422.8L442.6 423V423Z" fill="#F0F0F0" stroke="black" stroke-width="0.5" stroke-linecap="round" stroke-linejoin="round"/>
<path d="M439.7 390.5H439.4L439.3 390.3L439.5 389.9H439.7L439.8 390.1L439.7 390.5Z" fill="#F0F0F0" stroke="black" stroke-width="0.5" stroke-linecap="round" stroke-linejoin="round"/>
<path d="M439 389L438.9 389.3H438.7L438.3 389.1L438.1 388.9L438.4 388.5L438.9 388.9L439 389Z" fill="#F0F0F0" stroke="black" stroke-width="0.5" stroke-linecap="round" stroke-linejoin="round"/>
<path d="M447.1 412.3L446.9 412.1L446.5 411.9L446.4 411.7V411.1L446.5 410.9L447.2 409.8L447.5 410V410.7L447.4 411.5L447.3 411.9L447.1 412.3V412.3Z" fill="#F0F0F0" stroke="black" stroke-width="0.5" stroke-linecap="round" stroke-linejoin="round"/>
<path d="M437.6 384.5L437.2 384.4L437.4 384.1L437.7 384L437.6 384.5V384.5Z" fill="#F0F0F0" stroke="black" stroke-width="0.5" stroke-linecap="round" stroke-linejoin="round"/>
<path d="M441.6 392.4L441.8 392.8V393.1L441.6 393.3L441.4 393.2L441.3 392.9L441.6 392.4V392.4Z" fill="#F0F0F0" stroke="black" stroke-width="0.5" stroke-linecap="round" stroke-linejoin="round"/>
<path d="M410.5 384.4L410.2 384.2L410.3 384H410.6L410.7 384.1L410.5 384.4Z" fill="#F0F0F0" stroke="black" stroke-width="0.5" stroke-linecap="round" stroke-linejoin="round"/>
<path d="M425.1 383.9H424.9L424 384.2H423.4L423.6 384L424 383.8L424.4 383.7L425 383.8L425.1 383.9Z" fill="#F0F0F0" stroke="black" stroke-width="0.5" stroke-linecap="round" stroke-linejoin="round"/>
<path d="M415.6 381.5L416.2 381.6H416.8L417.1 381.7L417.7 381.6L418 381.7L418.4 381.6L418.6 381.7L419.1 381.6L419.5 381.7H419.8L420.6 381.9V381.7L421.2 381.9L421.3 381.8L422.1 381.9L422.3 382.1H422.5L423.1 382.4L423.3 382.3L423.2 383L423.4 383.3L422.5 383.6L422.2 384L421.9 384.6L421.6 384.8L421.3 384.9H420.9L420.3 385L420 385.2L419.3 385.1L419.1 384.9L418.6 385.1L418.3 384.8L417.6 385L416.7 384.9L416.4 385L415.8 385.1L415.6 385.2L415.4 385L415 384.9L414.7 385.1L414.1 385L414.4 384.3V383.9L414.6 383.5L414.4 382.9L414.2 382.8L414.1 382.4L414.5 382.2L414.7 382.1V381.6L415.1 381.4L415.6 381.5Z" fill="#F0F0F0" stroke="black" stroke-width="0.5" stroke-linecap="round" stroke-linejoin="round"/>
<path d="M9.00011 639.7L8.9001 639.8L8.6001 639.6L8.80009 639.4L9.00011 639.7Z" fill="#F0F0F0" stroke="black" stroke-width="0.5" stroke-linecap="round" stroke-linejoin="round"/>
<path d="M2.80009 615L2.6001 614.9L2.80009 614.3L3.30009 613.9H3.6001V614.1L3.4001 614.5L2.80009 615Z" fill="#F0F0F0" stroke="black" stroke-width="0.5" stroke-linecap="round" stroke-linejoin="round"/>
<path d="M7.69995 568H7.39995V567.6L7.19995 567.3L7.59995 567.4L7.69995 567.8V568Z" fill="#F0F0F0" stroke="black" stroke-width="0.5" stroke-linecap="round" stroke-linejoin="round"/>
<path d="M4.60002 564.5H4.40002V564.1L4.60002 563.8L4.90002 564L4.70003 564.2L4.60002 564.5Z" fill="#F0F0F0" stroke="black" stroke-width="0.5" stroke-linecap="round" stroke-linejoin="round"/>
<path d="M5.80009 562.9V563.2L5.4001 563.3H4.80009V563.6L4.4001 563.5L4.2001 563.3L4.1001 563L4.80009 562.6H5.1001L5.30009 562.8L5.80009 562.9Z" fill="#F0F0F0" stroke="black" stroke-width="0.5" stroke-linecap="round" stroke-linejoin="round"/>
<path d="M1.29999 557.3L1.59999 557.4L1.7 557.5L1.09999 557.7L1 557.4L1.29999 557.3Z" fill="#F0F0F0" stroke="black" stroke-width="0.5" stroke-linecap="round" stroke-linejoin="round"/>
<path d="M437.6 384.5V384.6L437.2 384.5V384.4L437.6 384.5Z" fill="#F0F0F0" stroke="black" stroke-width="0.5" stroke-linecap="round" stroke-linejoin="round"/>
<path d="M391.1 360.1H391.8L392.1 360.5H391.8L391.5 360.4L391 360.5L390.9 360.2L391.1 360.1Z" fill="#F0F0F0" stroke="black" stroke-width="0.5" stroke-linecap="round" stroke-linejoin="round"/>
<path d="M388.4 360L388.7 360.4L389.3 360.3L389.1 360.5H388.5L388.1 360.3L388.4 360Z" fill="#F0F0F0" stroke="black" stroke-width="0.5" stroke-linecap="round" stroke-linejoin="round"/>
<path d="M390.6 359.4V359.9L390.1 359.7L390 359.4L390.1 359.3L390.6 359.4Z" fill="#F0F0F0" stroke="black" stroke-width="0.5" stroke-linecap="round" stroke-linejoin="round"/>
<path d="M446.2 430.7L446 431.2L445.7 431.6L445.5 431.7L445.4 432.1L445.6 432.7L445.4 432.8V433.5L445.6 433.8L445.8 434L445.6 434.2L445.5 434.5V435.2L445.3 435.3L444.9 435.5L444.4 435.6H444.1L443.6 435.7L443.1 435.6L442.7 435.7L442.4 435.6L441.9 435.8L441.5 435.6H440.9L440.6 435.8L440.3 435.7L440.8 435.5L441.1 435.2L441.5 435.1L441.9 434.8L442.1 434.5L442.7 434.6L443 434.2L442.8 433.4L443 433V432.5V432.3L442.7 431.9L442.4 431.8L442 431.7L441.9 431.6L442.3 431.3L443.4 431.2L443.6 431H444.7L444.8 430.9L446 430.7H446.2Z" fill="#F0F0F0" stroke="black" stroke-width="0.5" stroke-linecap="round" stroke-linejoin="round"/>
<path d="M448.6 427.5L448.5 428L448.2 428.1L447.8 428.4H447.6L446.9 428.8L446.7 428.6L447 428.3L447.7 427.8L448.6 427.5Z" fill="#F0F0F0" stroke="black" stroke-width="0.5" stroke-linecap="round" stroke-linejoin="round"/>
<path d="M445.6 415.9L445.5 416L445 415.7V415.3L445.2 415L445.4 414.5H445.8L445.9 414.9L445.8 415.7L445.6 415.9Z" fill="#F0F0F0" stroke="black" stroke-width="0.5" stroke-linecap="round" stroke-linejoin="round"/>
<path d="M429.5 381.9L429.1 382.1H429L428.7 382.3L428.6 382.2L428.7 381.9L429.3 381.8L429.5 381.9V381.9Z" fill="#F0F0F0" stroke="black" stroke-width="0.5" stroke-linecap="round" stroke-linejoin="round"/>
<path d="M427.9 386.3L428.2 386.6L427.1 386.8L427 386.3L427.7 386.1L427.9 386.3Z" fill="#F0F0F0" stroke="black" stroke-width="0.5" stroke-linecap="round" stroke-linejoin="round"/>
<path d="M428.6 382.5L428.4 382.7H427.9V382.5L428.2 382.4L428.6 382.5Z" fill="#F0F0F0" stroke="black" stroke-width="0.5" stroke-linecap="round" stroke-linejoin="round"/>
<path d="M427.2 382.3L427.6 382.6L427.4 382.8L427.1 382.6H426.6L426.8 382.4L427.2 382.3Z" fill="#F0F0F0" stroke="black" stroke-width="0.5" stroke-linecap="round" stroke-linejoin="round"/>
<path d="M405.4 423.1H405.2L405.1 422.6L405.2 422.3L405.1 422L404.7 421.9L404.4 421.6L404.5 421.3L405.7 421.9L405.6 422.1V422.5L405.4 422.7V423.1V423.1Z" fill="#F0F0F0" stroke="black" stroke-width="0.5" stroke-linecap="round" stroke-linejoin="round"/>
<path d="M437.7 388.1L437.5 388.2V388L437.6 387.9L437.7 388.1Z" fill="#F0F0F0" stroke="black" stroke-width="0.5" stroke-linecap="round" stroke-linejoin="round"/>
<path d="M436.2 387.2H436.1L436.2 387L436.3 387.1L436.2 387.2V387.2Z" fill="#F0F0F0" stroke="black" stroke-width="0.5" stroke-linecap="round" stroke-linejoin="round"/>
<path d="M447.4 405.4V405.6L447.8 405.5L447.6 406L447.8 406.2V406.4L448 406.6L448.2 407.5L447.9 407.8L447.8 407.4L447.7 407.5L447.1 407.4H446.7L446.5 407.1L447.1 406.6H446.7L446.3 406.2L446.2 405.7L446 405.2L446.3 404.8L446.7 404.9L447.2 405.2L447.4 405.4Z" fill="#F0F0F0" stroke="black" stroke-width="0.5" stroke-linecap="round" stroke-linejoin="round"/>
<path d="M446.4 398.4H446.1L445.9 398L446 397.8L446.3 397.5L446.6 397.7L446.7 398V398.2L446.4 398.4Z" fill="#F0F0F0" stroke="black" stroke-width="0.5" stroke-linecap="round" stroke-linejoin="round"/>
<path d="M444.6 395.8H444.9V396V396.1L444.7 396.2V397V397.4L444.5 397.6L443.9 397.9V397.7L443.7 397.5L443.6 397V396.5L443.5 396V395.7L443.7 395.4L444 395.3L444.5 395.6L444.6 395.8Z" fill="#F0F0F0" stroke="black" stroke-width="0.5" stroke-linecap="round" stroke-linejoin="round"/>
<path d="M446 395.4L446.4 395.5L446.9 395.9L445.6 396.2L445.3 396.3L444.9 396L445 395.4L445.2 395.3L445.1 394.7L445.2 394.5L445.5 394.3L445.8 394.7V395.1L446 395.4Z" fill="#F0F0F0" stroke="black" stroke-width="0.5" stroke-linecap="round" stroke-linejoin="round"/>
<path d="M323.178 450.883L320.521 453.873L323.178 450.883ZM320.466 448.253L318.074 451.459L320.466 448.253ZM333.926 464.92C333.76 464.82 333.595 464.718 333.431 464.615L337.682 457.838C337.812 457.919 337.943 458 338.074 458.08L333.926 464.92ZM332.46 463.986C332.139 463.772 331.824 463.555 331.513 463.335L336.133 456.804C336.388 456.984 336.645 457.161 336.903 457.334L332.46 463.986ZM330.591 462.665C330.287 462.439 329.987 462.21 329.692 461.98L334.61 455.67C334.861 455.866 335.114 456.059 335.368 456.249L330.591 462.665ZM328.815 461.282C328.525 461.048 328.24 460.812 327.958 460.575L333.105 454.45C333.354 454.66 333.604 454.866 333.855 455.07L328.815 461.282ZM327.121 459.861C326.845 459.622 326.572 459.382 326.301 459.143L331.608 453.156C331.857 453.377 332.106 453.595 332.356 453.811L327.121 459.861ZM325.497 458.423C325.231 458.183 324.968 457.943 324.707 457.704L330.107 451.802C330.358 452.031 330.608 452.259 330.859 452.485L325.497 458.423ZM323.928 456.989C323.67 456.751 323.413 456.513 323.159 456.279L328.588 450.403C328.844 450.639 329.097 450.873 329.351 451.107L323.928 456.989ZM322.399 455.577C322.146 455.344 321.895 455.114 321.644 454.886L327.034 448.974C327.297 449.213 327.558 449.452 327.817 449.691L322.399 455.577ZM320.895 454.207C320.77 454.095 320.645 453.983 320.521 453.873L325.835 447.893C325.97 448.013 326.105 448.134 326.239 448.254L320.895 454.207ZM320.521 453.873C320.35 453.722 320.191 453.572 320.043 453.428L325.621 447.693C325.697 447.767 325.768 447.833 325.835 447.893L320.521 453.873ZM319.257 452.62C319.016 452.364 318.847 452.182 318.667 451.997L324.379 446.396C324.639 446.662 324.898 446.941 325.09 447.145L319.257 452.62ZM318.239 451.592C318.18 451.541 318.125 451.498 318.074 451.459L322.858 445.047C323.062 445.2 323.252 445.353 323.431 445.505L318.239 451.592ZM318.074 451.459C317.891 451.323 317.725 451.186 317.593 451.075L322.745 444.955C322.782 444.986 322.809 445.009 322.83 445.025C322.85 445.042 322.859 445.048 322.858 445.047L318.074 451.459ZM316.992 450.558C316.827 450.417 316.709 450.321 316.616 450.252L321.382 443.827C321.693 444.058 321.974 444.292 322.191 444.478L316.992 450.558ZM316.604 450.232C316.662 450.26 316.791 450.318 316.981 450.368L319.019 442.632C319.441 442.743 319.808 442.894 320.106 443.039L316.604 450.232Z" fill="#898989"/>
<path d="M346.397 458.669L347.428 462.534L346.397 458.669ZM348.808 457.968L349.682 461.871L348.808 457.968ZM335.716 465.435C335.887 465.404 336.058 465.373 336.227 465.341L334.737 457.481C334.587 457.509 334.436 457.537 334.284 457.565L335.716 465.435ZM337.244 465.14C337.587 465.07 337.924 464.998 338.256 464.926L336.543 457.111C336.246 457.176 335.945 457.24 335.641 457.302L337.244 465.14ZM339.262 464.698C339.6 464.619 339.932 464.54 340.26 464.459L338.353 456.69C338.054 456.763 337.752 456.836 337.447 456.907L339.262 464.698ZM341.25 464.211C341.581 464.126 341.907 464.041 342.23 463.955L340.177 456.223C339.874 456.303 339.569 456.383 339.263 456.462L341.25 464.211ZM343.199 463.694C343.522 463.606 343.841 463.519 344.157 463.431L342.029 455.72C341.718 455.805 341.409 455.89 341.099 455.975L343.199 463.694ZM345.105 463.169C345.419 463.082 345.731 462.996 346.041 462.91L343.919 455.197C343.6 455.285 343.283 455.372 342.968 455.46L345.105 463.169ZM346.968 462.657C347.121 462.616 347.275 462.575 347.428 462.534L345.367 454.804C345.204 454.847 345.042 454.891 344.881 454.934L346.968 462.657ZM347.428 462.534C347.708 462.459 347.961 462.384 348.186 462.314L345.815 454.673C345.656 454.723 345.512 454.765 345.367 454.804L347.428 462.534ZM349.284 461.972C349.415 461.935 349.545 461.902 349.682 461.871L347.934 454.064C347.637 454.131 347.366 454.201 347.115 454.272L349.284 461.972ZM349.682 461.871C349.924 461.817 350.181 461.749 350.361 461.703L348.344 453.961C348.127 454.017 348.015 454.046 347.934 454.064L349.682 461.871ZM351.168 461.51C351.262 461.493 351.308 461.488 351.315 461.488L350.685 453.512C350.332 453.54 350.003 453.59 349.721 453.642L351.168 461.51Z" fill="#898989"/>
<path d="M212.341 91.2334C214.583 87.557 217.829 79.2844 221.908 77.1248C224.587 75.7062 230.363 74.1747 233.214 73.8392C239.725 73.0733 245.973 67.0251 251.478 64.2725" stroke="#3E4D74" stroke-width="8" stroke-linecap="round"/>
<path d="M178.121 345.364C178.241 345.98 178.513 346.386 179.074 346.683C179.503 346.91 179.818 347.247 180.134 347.598C180.68 348.205 181.244 348.835 181.588 349.525" stroke="#F29E42" stroke-width="8" stroke-linecap="round"/>
<path d="M195.072 342.421C201.185 342.421 207.771 342.978 212.701 346.812C218.664 351.45 222.596 358.726 227.206 364.653C230.886 369.385 235.364 373.911 240.38 377.384C244.815 380.454 249.417 384.225 253.977 386.504" stroke="#F29E42" stroke-width="8" stroke-linecap="round"/>
<path d="M253.217 385.364C259.469 386.771 265.91 386.504 272.408 386.504C273.432 386.504 275.111 385.38 276.018 384.9C277.58 384.073 278.532 382.396 279.988 381.564C281.088 380.935 282.085 380.047 283.239 379.368C284.408 378.681 286.023 378.288 287.039 377.384C288.061 376.475 290.477 376.193 291.22 374.892C291.639 374.159 294.122 372.443 295.02 372.443C296.837 372.443 296.16 374.579 296.16 376.054C296.16 377.557 296.145 378.862 295.759 380.213C295.449 381.299 295.02 382.663 295.02 383.844C295.02 385.314 294.276 386.164 293.901 387.476C293.094 390.3 292.041 392.604 290.164 394.95C288.755 396.71 288.387 400.431 289.404 402.466C290.376 404.41 293.487 406.646 295.59 406.646C298.672 406.646 300.932 407.051 303.55 408.546C306.055 409.978 308.43 411.698 310.306 413.782C311.994 415.658 312.363 418.603 312.501 421.087C312.661 423.957 314.063 426.268 314.803 428.857C315.493 431.273 317.442 433.041 317.442 435.718C317.442 438.623 318.202 441.642 318.202 444.649" stroke="#F29E42" stroke-width="8" stroke-linecap="round"/>
<path d="M190.411 344.669L192.124 348.283L190.411 344.669ZM191.767 343.968L193.246 347.684L191.767 343.968ZM185.231 351.306C185.395 351.253 185.558 351.198 185.718 351.143L183.114 343.579C183 343.618 182.885 343.657 182.769 343.694L185.231 351.306ZM186.675 350.794C186.995 350.672 187.305 350.546 187.606 350.419L184.5 343.047C184.27 343.144 184.039 343.237 183.805 343.327L186.675 350.794ZM188.505 350.026C188.802 349.892 189.091 349.757 189.371 349.624L185.933 342.4C185.689 342.516 185.448 342.628 185.208 342.737L188.505 350.026ZM190.2 349.223C190.469 349.091 190.739 348.957 190.994 348.832L187.461 341.654C187.193 341.786 186.94 341.911 186.682 342.038L190.2 349.223ZM191.755 348.46C191.88 348.4 192.002 348.341 192.124 348.283L188.698 341.054C188.555 341.122 188.415 341.189 188.276 341.256L191.755 348.46ZM192.124 348.283C192.342 348.18 192.53 348.08 192.682 347.996L188.818 340.991C188.755 341.026 188.72 341.044 188.698 341.054L192.124 348.283ZM193.214 347.699C193.227 347.693 193.235 347.689 193.239 347.687C193.244 347.685 193.246 347.684 193.246 347.684L190.288 340.251C190.039 340.35 189.818 340.452 189.624 340.55L193.214 347.699ZM193.246 347.684C193.458 347.6 193.667 347.502 193.75 347.463L190.389 340.204C190.361 340.217 190.339 340.227 190.319 340.236C190.299 340.245 190.285 340.251 190.275 340.256C190.264 340.261 190.261 340.262 190.262 340.262C190.263 340.261 190.272 340.257 190.288 340.251L193.246 347.684ZM193.934 347.377C193.895 347.39 193.76 347.432 193.556 347.461L192.444 339.539C192.032 339.597 191.681 339.696 191.424 339.781L193.934 347.377Z" fill="#898989"/>
<path d="M351.115 456.843C353.854 456.843 356.602 456.992 359.111 457.287C360.398 457.439 364.006 459.205 364.418 460.644C365.649 464.953 366.127 468.827 364.911 473.082C363.921 476.547 361.227 479.64 360.419 483.275C359.955 485.363 357.785 487.68 356.002 488.729C354.28 489.742 354.142 492.092 352.67 493.27C352.088 493.736 351.822 494.982 351.214 495.59C350.547 496.257 349.882 496.871 349.437 497.712C348.505 499.473 347.539 500.81 347.093 502.821C346.753 504.347 345.965 508.283 344.995 509.361C343.59 510.922 343.766 514.875 342.453 515.926C341.714 516.517 341.786 522.305 341.786 523.478C341.786 525.808 341.114 528.165 340.478 530.388C339.851 532.586 340.454 535.813 340.454 538.137C340.454 540.89 342.441 541.732 344.008 543.69C345.686 545.789 348.345 545.365 350.844 546.133C352.489 546.64 353.6 547.413 355.558 547.466C356.663 547.496 358.955 547.545 360 548.009C362.777 549.243 367.951 549.771 368.44 553.685C368.656 555.41 370.618 557.42 371.13 559.214C371.662 561.074 372.344 562.725 374.215 563.557C375.898 564.305 378.021 564.768 379.743 565.26C380.765 565.552 381.367 567.305 382.211 567.802C383.429 568.518 384.924 569.496 385.765 570.665C387.208 572.669 389.405 573.961 390.652 576.144C391.349 577.364 391.935 578.592 393.218 579.105C393.713 579.303 393.896 579.914 394.304 580.24C394.766 580.61 395.44 580.301 395.983 580.783C397.996 582.573 400.311 584.287 402.893 585.226C405.911 586.323 408.326 588.108 411.086 589.569C411.934 590.018 412.495 590.97 413.085 591.692C414.495 593.414 415.939 594.965 417.528 596.553C420.91 599.936 423.076 604.026 426.98 606.993C431.201 610.201 433.613 615.876 437.715 619.209C440.788 621.705 444.879 624.586 447.069 627.872" stroke="#F29E42" stroke-width="8" stroke-linecap="round"/>
<path d="M446.18 626.983C448.666 626.983 454.04 628.515 455.41 630.981C457.008 633.856 458.175 637.674 458.175 640.976C458.175 645.939 457.773 650.226 453.634 653.538C450.29 656.213 446.457 658.943 442.404 660.744C440.402 661.634 438.796 663.348 436.629 663.829C434.899 664.214 430.531 665.389 429.744 666.964" stroke="#F29E42" stroke-width="8" stroke-linecap="round"/>
<path d="M430.7 666.806C428.033 667.406 422.413 669.03 422.018 672.388C421.71 675.004 419.295 679.026 417.987 681.38C416.248 684.51 413.014 686.123 410.855 688.822C408.889 691.28 411.256 695.918 409.132 698.572C405.725 702.831 404.551 715.097 409.304 718.9C415.093 723.531 414.652 732.499 415.851 739.089C416.477 742.536 418.297 746.261 418.297 749.598C418.297 752.737 418.917 756.377 418.917 759.83C418.917 764.258 418.462 768.699 418.297 772.991C418.151 776.78 417.056 780.519 417.056 784.327C417.056 787.879 416.436 791.228 416.436 794.869C416.436 797.231 418.433 800.724 419.399 802.897C421.348 807.282 422.46 811.745 426.049 815.335C428.9 818.186 431.388 822.5 435.041 824.327" stroke="#F29E42" stroke-width="8" stroke-linecap="round"/>
<path d="M434.421 823.087C438.46 823.087 439.854 823.283 442.621 826.05C444.567 827.996 446.663 829.591 448.064 832.045C449.595 834.723 451.515 838.892 453.784 840.934C456.88 843.72 461.837 847.061 465.739 847.928C468.026 848.436 469.994 849.907 466.359 849.099C463.929 848.559 462.027 844.87 460.95 842.932C458.568 838.644 454.961 833.736 453.611 829.013C452.421 824.847 453.026 819.567 453.026 815.025C453.026 812.751 453.026 810.477 453.026 808.203C453.026 805.354 451.303 804.136 449.925 801.726C448.53 799.285 443.617 793.128 446.204 790.218C447.728 788.504 448.685 787.605 448.685 785.257C448.685 782.673 448.685 780.089 448.685 777.505C448.685 771.688 447.444 765.749 447.444 759.83C447.444 757.556 447.444 755.282 447.444 753.009C447.444 750.617 449.319 748.774 449.959 746.531C451.052 742.706 456.732 741.252 459.365 738.883C462.885 735.715 466.32 732.38 467.255 727.237C468.281 721.593 469.955 718.752 474.249 715.317C477.639 712.604 483.222 712.698 487.445 712.698C492.265 712.698 490.856 721.536 490.856 724.481" stroke="#F29E42" stroke-width="8" stroke-linecap="round"/>
<path d="M488.995 712.698C496.106 711.137 497.738 705.196 502.329 700.605C503.874 699.06 506.292 697.278 507.6 695.644C509.088 693.783 511.721 693.128 513.181 691.302C515.014 689.012 517.345 688.776 517.522 685.411C517.681 682.398 518.763 679.865 518.763 676.729C518.763 671.269 519.137 661.746 523.242 657.642C526.585 654.298 533.243 652.322 537.678 651.337C540.041 650.811 541.819 650.639 543.914 649.442C545.836 648.343 547.105 645.869 548.841 644.48C550.199 643.394 551.569 641.916 552.734 640.622C555.108 637.983 555.006 635.874 556.11 632.56C557.981 626.947 560.922 622.482 564.035 617.813" stroke="#3E4D74" stroke-width="8" stroke-linecap="round"/>
<path d="M388.296 221.222C384.568 219.638 384.946 217.017 384.152 213.446C383.225 209.272 380.13 205.541 377.258 202.567C375.396 200.638 373.715 198.965 371.404 197.594C370.151 196.851 369.236 195.711 368.054 194.879C366.58 193.842 365.142 192.996 363.628 192.023C360.489 190.004 357.53 187.692 354.301 185.763C350.198 183.312 345.665 181.434 341.729 178.728C339.311 177.065 336.487 175.986 333.935 174.514C331.467 173.089 328.794 171.977 326.089 171.075" stroke="#F1A037" stroke-width="7" stroke-linecap="round"/>
<path d="M326.945 171.389C319.982 171.389 313.582 170.273 306.714 169.189C300.689 168.237 294.769 167.902 288.71 167.498C282.047 167.054 275.178 166.559 268.506 166.559C264.121 166.559 259.816 165.593 255.466 165.593C243.448 165.593 231.652 167.042 219.727 167.042" stroke="#F1A037" stroke-width="7" stroke-linecap="round"/>
<path d="M209.527 96.2691C201.926 96.2691 194.82 95.9515 187.453 94.478C183.301 93.6477 179.335 92.3044 175.114 91.8078C172.711 91.5251 170.382 91.5225 167.982 91.0283C165.955 90.611 164.036 90.4845 162.012 90.282C159.432 90.0241 156.895 90.0001 154.3 90.0001C150.655 90.0001 146.499 89.969 143.022 91.1278C142.496 91.3032 141.64 91.5301 141.231 91.8576C140.3 92.6023 138.99 92.4972 137.881 93.0517C136.828 93.5781 135.203 93.8809 134 93.8809" stroke="#F1A037" stroke-width="7" stroke-linecap="round"/>
<path d="M209.037 96.8467C209.037 105.473 215.363 112.347 215.363 121.096C215.363 124.516 214.736 128.284 212.317 130.703C209.378 133.642 209.902 137.648 208.51 141.129" stroke="#F1A037" stroke-width="7" stroke-linecap="round"/>
<path d="M207.982 141.656C207.982 145.136 206.975 150.513 209.564 153.254C211.288 155.08 214.023 157.819 216.183 159.053C217.921 160.046 218.526 163.353 218.526 165.115C218.526 168.711 218.518 169.234 215.246 170.241C209.877 171.893 203.279 169.163 198.23 171.969C194.46 174.063 190.953 174.717 186.778 175.512C184.597 175.928 178.821 175.999 177.406 177.767C177.067 178.192 175.751 180.541 175.854 180.901C176.158 181.964 177.33 181.996 177.406 183.303C177.449 184.03 177.727 185.875 177.963 186.7C178.206 187.552 179.529 188.354 180.159 188.984C181.034 189.859 181.007 191.141 181.507 192.265C181.96 193.284 181.42 195.159 182.415 195.955C183.599 196.903 184.25 198.054 185.314 199.118C186.744 200.548 189.878 202.808 191.904 202.808C194.195 202.808 198.009 205.979 199.84 207.025C202.552 208.575 204.582 210.376 207.455 211.653C208.957 212.32 211.708 211.77 213.313 211.77C216.017 211.77 218.721 211.77 221.425 211.77C224.537 211.77 228.937 213.22 231.178 215.46" stroke="#F1A037" stroke-width="7" stroke-linecap="round"/>
<path d="M230.124 226.53C224.448 228.745 222.759 232.949 219.58 237.718C217.972 240.13 216.004 242.41 214.719 244.981C213.738 246.942 214.62 248.843 214.836 250.78C215.247 254.48 218.814 260.694 222.216 262.495C224.046 263.464 225.268 264.718 226.961 265.658C227.979 266.224 228.768 266.715 229.889 267.122C231.464 267.695 232.294 269.252 233.814 269.758" stroke="#F1A037" stroke-width="7" stroke-linecap="round"/>
<path d="M233.842 269.302C234.317 271.74 234.63 273.918 234.63 276.397C234.63 277.945 232.9 279.576 231.871 280.733C228.417 284.619 221.931 287.695 216.717 288.529C206.969 290.089 197.7 294.529 187.724 294.529" stroke="#F1A037" stroke-width="7" stroke-linecap="round"/>
<path d="M463.931 216.917C463.931 215.303 464.325 212.689 463.543 211.204C462.975 210.125 461.267 209.535 460.264 209.053C457.786 207.864 455.417 206.783 455.062 203.587C454.926 202.361 454.735 200.271 455.221 199.161C455.644 198.195 456.431 197.369 456.949 196.463C457.746 195.069 458.659 193.695 459.17 192.161" stroke="#F1A037" stroke-width="7" stroke-linecap="round"/>
<path d="M462.344 182.005C458.745 182.005 456.316 181.787 453.528 184.297C449.469 187.95 443.972 189.679 439.351 192.619C437.817 193.596 436.169 194.433 434.591 195.335C433.34 196.049 432.25 197.868 431.382 198.985C430.712 199.846 429.62 201.392 428.86 202C428.023 202.67 428.266 204.281 427.115 204.856" stroke="#F1A037" stroke-width="7" stroke-linecap="round"/>
<path d="M427.749 204.856C426.796 206.486 426.333 207.762 424.576 208.595C423.241 209.226 421.242 209.804 419.815 210.181C417.719 210.736 415.31 210.887 413.15 210.887C410.656 210.887 408.444 211.675 406.044 212.297C402.225 213.287 400.826 216.424 397.439 218.028C396.218 218.606 394.853 219.402 393.613 219.756C391.958 220.229 390.06 219.853 388.394 220.408" stroke="#F1A037" stroke-width="7" stroke-linecap="round"/>
<path d="M184.777 293.512C178.097 293.512 169.53 292.117 164.335 296.793C162.913 298.072 160 301.398 160 303.265C160 305.941 161.011 309.48 162.519 311.553C162.861 312.024 163.004 314.34 163.134 314.921C163.499 316.565 163.453 317.77 163.954 319.373C165.382 323.943 167.446 327.985 169.255 332.406C170.26 334.864 171.293 340.819 173.443 342.539C174.219 343.16 175.815 347.307 175.815 348.338" stroke="#F1A037" stroke-width="7" stroke-linecap="round"/>
<path d="M228.217 213C230.614 214.873 231.674 217.219 232.845 219.853C234.026 222.511 232.13 223.265 230.853 224.861C229.866 226.096 228.259 228.055 226.929 228.815C225.524 229.618 225.476 231.767 224 232.505" stroke="#F1A037" stroke-width="7" stroke-linecap="round"/>
</svg>
