<svg width="594" height="855" viewBox="0 0 594 855" fill="none" xmlns="http://www.w3.org/2000/svg">
<path d="M472.5 849.7L469.5 849.5H464.5L458.5 835.9L461.6 838.7L465.9 843.3L473.7 847L481 848.5L480.2 851.5L475.8 851.8L472.5 849.7Z" fill="#F0F0F0" stroke="black" stroke-width="0.5" stroke-linecap="round" stroke-linejoin="round"/>
<path d="M442 642.7L453.3 653.1L457.9 654.1L465.2 658.9L471.1 661.4L472.2 664.2L468 674L473.8 675.7L480.1 676.7L484.3 675.7L488.6 670.7L488.9 665.1L491.5 663.8L494.7 667.6L495.1 672.7L490.9 676.2L487.6 678.8L482.3 685.1L476.3 693.8L475.8 699L475.4 705.6L476.6 712L475.7 713.4L476.1 717.5L476.4 720.9L484.2 726.4L484.4 730.8L488.3 733.6L488.6 736.7L485.3 744.9L478.3 748.4L468.1 749.7L462.1 749L464.2 752.9L464.3 757.6L466.1 760.8L463.6 763.1L458.5 764L452.9 761.6L451.4 763.3L453.9 769.6L457.9 771.5L460.2 769.5L462.7 772.8L458.5 774.8L455.6 778.8L456.8 785.1L456.7 788.5H451.9L448.9 791.7L449 796.5L455.5 801.1L460.7 802.3L460.9 808L456.3 811.5L455.7 818.8L452.2 821.2L451.3 824.1L455.5 830.6L460.1 834.1L458 833.8L453.1 832.8L441 832L437.5 828.4L435.6 823.8L432.5 824.2L429.9 821.9L426.8 815.4L429.5 812.6L429.6 808.7L427.8 805.5L428.5 800.1L427.4 791.8L425.6 788.1L427.4 786.9L426 784.5L423.2 783.3L424 780.6L420.9 778.2L417.2 770.9L418.9 769.6L415.6 761.8L414.8 755.3L414.6 749.6L417.1 747.3L413.8 741L412.2 735.2L415.2 731L413.8 725.6L415.4 719.4L414 713.5L412.4 712.3L407.5 701.2L409.6 694.6L407.9 688.4L408.8 682.5L411.4 676.5L414.7 672.5L412.7 670L413.5 667.9L411.9 657.2L417.5 654.1L418.7 647.4L417.8 645.8L421.8 640L429.3 641.6L433 646.2L434.6 641L441 641.3L442 642.7Z" fill="#F0F0F0" stroke="black" stroke-width="0.5" stroke-linecap="round" stroke-linejoin="round"/>
<path d="M291.2 397.8H289.5L290.8 390.6L291.5 385.5L291.6 384.5L292.3 384.2L293.2 385L295.7 381.1L296.8 381L296.7 382H297.7L297.4 383.8L296.1 386.5L296.5 387.5L295.6 389.8L295.9 390.4L294.9 393.7L293.6 395.4L292.5 395.6L291.2 397.8V397.8Z" fill="#F0F0F0" stroke="black" stroke-width="0.5" stroke-linecap="round" stroke-linejoin="round"/>
<path d="M465.9 629.4L465.6 627.4L460.2 624.1L455 624L445.4 625.9L443.3 631.5L443.5 635L442 642.7L441 641.3L434.6 641L433 646.2L429.3 641.6L421.8 640L417.8 645.8L413.9 646.7L410.8 637.8L407.1 630.6L408.2 624.4L405 621.7L403.8 617.1L400.6 612.7L403.5 605.8L400.6 600.4L401.7 598.2L400.5 595.8L402.4 592.6L402.1 587.2V582.6L403.2 580.5L397.7 570.1L401.9 570.7L404.8 570.5L405.9 568.6L410.7 566L413.6 563.6L420.9 562.5L420.5 567.3L421.4 569.8L421.1 574.1L427.6 579.8L434 580.9L436.3 583.3L440.2 584.6L442.7 586.4H446.2L449.6 588.3L450.1 592L451.3 593.9L451.6 596.6L449.9 596.7L452.7 604.2L463.4 604.5L462.9 608.2L463.7 610.7L466.9 612.5L468.6 616.5L468 621.6L466.7 624.4L467.5 628L465.9 629.4V629.4Z" fill="#F0F0F0" stroke="black" stroke-width="0.5" stroke-linecap="round" stroke-linejoin="round"/>
<path d="M469.2 487.6L472.3 488.2L472.9 486.8L471.9 485.6L472.5 483.7L474.8 484.3L477.5 483.6L480.7 485L483.2 486.3L484.9 484.6L486.2 484.8L487 486.6L489.7 486.2L491.9 483.7L493.7 479L497.1 473.1L499.1 472.8L500.4 476.4L503.4 487.6L506.5 488.7L506.6 493.1L502.3 498.4L504 500.3L514.1 501.3L514.3 507.8L518.6 503.6L525.7 505.9L535.2 509.8L538 513.5L537.1 517.1L543.7 515.1L554.7 518.5L563.2 518.3L571.6 523.6L579 530.8L583.4 532.6L588.2 532.9L590.3 534.9L592.3 543.1L593.4 547L591.3 557.6L588.6 561.8L580.9 570.7L577.5 578L573.5 583.5L572.1 583.7L570.8 588.4L571.7 600.4L570.6 610.3L570.3 614.5L568.7 617.1L568.2 625.7L563 634L562.5 640.7L558.2 643.4L557.1 647.3H551.1L542.6 649.7L538.9 652.6L532.9 654.5L526.8 659.6L522.7 666L522.4 670.8L523.7 674.3L523.4 680.8L522.6 683.9L519.2 687.5L514.7 698.8L510.7 703.8L507.5 706.9L506 713L503.1 716.6L501 713L502.8 709.9L499 705.6L494.2 702L487.9 697.9L486 698.1L479.7 693.1L476.3 693.8L482.3 685.1L487.6 678.8L490.9 676.2L495.1 672.7L494.7 667.6L491.5 663.8L488.9 665.1L489.6 661.4L489.9 657.6L489.6 654L487.5 652.9L485.5 653.9L483.4 653.6L482.6 651.2L481.5 645.3L480.3 643.4L476.4 641.6L474.2 642.9L468.3 641.6L467.9 632.9L465.9 629.4L467.5 628L466.7 624.4L468 621.6L468.6 616.5L466.9 612.5L463.7 610.7L462.9 608.2L463.4 604.5L452.7 604.2L449.9 596.7L451.6 596.6L451.3 593.9L450.1 592L449.6 588.3L446.2 586.4H442.7L440.2 584.6L436.3 583.3L434 580.9L427.6 579.8L421.1 574.1L421.4 569.8L420.5 567.3L420.9 562.5L413.6 563.6L410.7 566L405.9 568.6L404.8 570.5L401.9 570.7L397.7 570.1L394.5 571.2L391.9 570.5L391.8 560.8L387.4 564.5L382.4 564.4L380.1 560.9L376.3 560.6L377.3 557.8L374 553.9L371.4 548.1L372.9 547L372.7 544.2L376.1 542.4L375.4 538.9L376.8 536.7L377.1 533.7L383.4 529.3L388 528.1L388.8 527.1L393.9 527.4L396.1 509.8L396.2 507L395.3 503.4L392.7 501L392.8 496.3L396 495.3L397.1 496L397.3 493.5L394 492.8V488.8L405 489L406.9 486.7L408.5 488.8L409.5 492.6L410.6 491.8L413.7 495.2L418.1 494.8L419.2 492.8L423.4 491.3L425.8 490.2L426.5 487.5L430.6 485.7L430.3 484.3L425.5 483.8L424.8 479.7L425.1 475.4L422.6 473.8L423.7 473.2L427.8 474L432.3 475.6L434 474.1L438.1 473.1L444.5 470.7L446.6 468.2L445.9 466.4L448.9 466.2L450.1 467.6L449.3 470.5L451.3 471.4L452.5 474.4L450.9 476.7L449.9 482.1L451.3 485.4L451.6 488.4L455.1 491.4L457.9 491.7L458.5 490.4L460.3 490.1L462.9 489L464.7 487.3L467.9 487.9L469.2 487.6V487.6Z" fill="#F0F0F0" stroke="black" stroke-width="0.5" stroke-linecap="round" stroke-linejoin="round"/>
<path d="M469.3 201.6L472.7 202.5L477.4 202.3L474.1 204.9L472.1 205.3L466.6 202.6L466 200.5L468.5 198.6L469.3 201.6Z" fill="#F0F0F0" stroke="black" stroke-width="0.5" stroke-linecap="round" stroke-linejoin="round"/>
<path d="M483.7 185.6L481.3 185.7L475.5 183.8L472 180.8L473.9 180.3L479.8 181.9L484 184.5L483.7 185.6Z" fill="#F0F0F0" stroke="black" stroke-width="0.5" stroke-linecap="round" stroke-linejoin="round"/>
<path d="M175.8 189.3L172.7 190.2L166.4 187.4V185.2L163.5 183L163.8 181.2L159.5 180.1L160.1 176.7L161.6 175.3L165.7 176.6L168.1 177.6L172.2 178.2L172.4 180.4L172.8 183.3L176 185.9L175.8 189.3Z" fill="#F0F0F0" stroke="black" stroke-width="0.5" stroke-linecap="round" stroke-linejoin="round"/>
<path d="M514.9 175.8L509.9 181.2L513.8 179.1L516.7 180.5L514.3 182.6L518.1 184.3L520.9 182.8L525.2 184.7L522.4 189.3L526.2 188.2L525.9 191.5L526.4 195.4L522.8 201L520.4 201.2L517.5 200L520 194.9L518.8 194.1L511.5 199.5L508.5 199.3L512.9 196.3L508.5 194.8L503 195.2L493.4 195L493.2 193.2L497 190.9L495.3 189.3L500.7 185.5L508.9 175.6L513.1 172.1L518.1 170L520.2 170.2L518.7 171.9L514.9 175.8Z" fill="#F0F0F0" stroke="black" stroke-width="0.5" stroke-linecap="round" stroke-linejoin="round"/>
<path d="M154.9 154.4L156.4 155.2L161.4 154.7L154.2 161.6L154.5 166.6H152.6L151.9 163.8L152.4 160.9L151.6 159L152.9 156.3L154.9 154.4Z" fill="#F0F0F0" stroke="black" stroke-width="0.5" stroke-linecap="round" stroke-linejoin="round"/>
<path d="M438.3 106.9L434.7 109.9L433 109.4L432.9 107.7L433.3 107.3L436.1 105.6L437.8 105.7L438.3 106.9Z" fill="#F0F0F0" stroke="black" stroke-width="0.5" stroke-linecap="round" stroke-linejoin="round"/>
<path d="M428.6 103.7L421.4 106.9L418.4 106.7V105.2L423.4 102.5L429.4 102.6L428.6 103.7Z" fill="#F0F0F0" stroke="black" stroke-width="0.5" stroke-linecap="round" stroke-linejoin="round"/>
<path d="M425.5 86.9L424.6 89.4L427.3 88.5L428.8 90L432.3 92L436.1 93.7L434.7 96.4L438.2 96L440.1 97.9L435.1 99.7L429.2 98.3L428.4 95.7L422.1 98.8L413.9 101.7L414.6 98.4L408.3 98.9L414 96.1L417.6 91.6L422.7 86.5L425.5 86.9Z" fill="#F0F0F0" stroke="black" stroke-width="0.5" stroke-linecap="round" stroke-linejoin="round"/>
<path d="M470.4 78.5999L465.5 78.8999L466.2 76.1999L470 73.0999L474.3 72.3999L476.6 73.8999L475.1 76.1999L474.2 76.9999L470.4 78.5999Z" fill="#F0F0F0" stroke="black" stroke-width="0.5" stroke-linecap="round" stroke-linejoin="round"/>
<path d="M395.9 67.8998L391.8 69.7998L387.6 68.1998L383.7 68.6998L380.3 66.2998L385.3 64.5998L390.2 62.2998L393.2 63.7998L394.8 64.7998L395.2 65.7998L395.9 67.8998Z" fill="#F0F0F0" stroke="black" stroke-width="0.5" stroke-linecap="round" stroke-linejoin="round"/>
<path d="M448.9 210.5L446.7 206.9L449.6 198.4L448 196.6L444.3 197.6L443.2 196L437.7 200.7L434.5 205.6L431.7 208.5L429.2 209.5L427.5 209.8L426.4 211.3H417.1L409.3 211.4L406.6 212.5L399.8 216.9V216.8L398.9 216.4L396.9 217.3L395 218.6L393.2 217.5L388.5 218.3L384.6 219.2L382.7 220L380.4 222.1L382.2 222.8L383.9 222.4H384.2L383.9 224.3L379.1 225L376.3 225.8L374.6 226.8L372 226.2L370.4 226.5L367.5 228.3L362.9 230.3L360.2 229.9L362.2 227.7L365.9 224.2L370 222.1L371.1 220.3L372 217.3L375.8 213.8L376.7 209.8L377.8 213.7L381.6 214.6L384 212.5L382.6 207.7L381.7 205.7L377.7 204.5L373.9 203.8H370L366.6 203L366.2 201.6L364.8 202.5L363.6 202.3L365.5 200.2L363.7 199.4L365.6 197L364.4 195.2L366.1 193.4L360.9 192.5L360.8 188.9L360 188.1L356.7 187.9L352.6 186.7L351.1 187.5L349.3 189L346 190L342.9 192.5L337.5 190.8L333.1 191.6L329.2 189.7L324.6 188.7L321.3 188.3L320.3 187.3L321.2 183.9H319.5L318.2 186.3H308H291H274.2H259.3H244.5H229.8H214.7H209.9H195.2H181.1H180.4L175 180.2L173.4 177.5L166.4 174.9L167.7 169.4L171.3 165.7L167.2 163L170.3 158.1L168.2 153.7L170.7 150.5L175.8 147.6L179 143.8L174.4 140L175.8 133.1L176.9 128.9L175.3 126.2L174.5 123.8L175.1 120.7L168.6 122.6L161 125.9L160.7 122.1L160.2 119.5L157.4 117.9L153.2 117.7L188.8 84.9999L213.4 64.5999L219.4 65.8999L222.7 68.4999L226.4 68.9999L232.7 66.7999L239.7 65.0999L245 65.6999L253.9 63.3999L262.1 62.0999L262.3 64.2999L266.8 62.9999L270.7 60.4999L272.8 61.0999L274.2 65.8999L283.7 62.1999L279.8 66.2999L285.8 65.3999L289 63.8999L293.6 64.1999L297.5 66.3999L305 68.3999L309.7 69.2999L314.1 68.9999L317 71.7999L308.5 74.4999L314.9 75.5999L326.8 74.9999L331.2 73.9999L332.6 77.2999L339.7 74.5999L337.6 72.1999L342.1 70.3999L347.3 70.0999L351.2 69.5999L353.3 70.8999L354.8 73.7999L359.8 73.3999L365.1 75.8999L372.3 74.9999L378.3 75.0999L380.7 71.6999L385.2 70.7999L390.1 72.5999L385.8 77.7999L392 73.3999L395.2 73.5999L401.6 68.0999L400 64.7999L397.1 62.5999L402.6 56.6999L410.8 52.8999L415.3 53.7999L417.3 56.0999L417.7 62.0999L411.9 64.6999L418.6 65.7999L414.2 71.2999L423.1 67.0999L425.3 70.5999L421 74.5999L422.3 78.2999L429.6 74.3999L436.1 69.5999L440.8 63.6999L446.3 64.0999L451.7 64.8999L455.3 67.5999L453.6 70.2999L448.5 73.1999L449.4 76.0999L447 78.7999L436.1 82.6999L429.6 83.5999L426.4 81.8999L423.1 84.6999L415.7 89.3999L412.7 91.8999L405 95.6999L398.5 96.0999L393.4 98.4999L390.5 102.3L384.8 103L376.1 107.7L366.7 114.2L361.7 118.8L356.8 125.7L362.8 126.7L361.3 132.2L360.5 136.8L367.8 135.6L374.8 138.2L378.1 140.5L379.8 143.3L384.7 145L388.3 147.5L395.9 147.9L400.7 148.5L397.1 153.7L395.4 159.8L395.5 166.7L399.9 172.6L404.6 170.6L410.2 164.2L412.5 154.6L410.8 151.4L419.8 148.5L427.3 144.3L432.1 140.1L433.8 136.1L433.4 131L430.2 126.5L439.1 120.3L440.1 115L444 106L447.8 104.6L454.5 106.2L458.7 106.8L463.2 105.2L466.3 107.2L469.9 110.6L470.1 112.8L477.8 113.3L475.2 118.2L472.9 125.6L476.7 126.6L478.3 130.1L486.5 126.8L494 120.2L498.2 117.5L499.3 122.8L501.9 130.3L503.9 137.5L500.5 141.3L505.3 144.7L508.2 148.1L515.1 149.7L517.5 151.6V156.8L520.9 157.6L522 159.9L520 166.8L515.7 169.1L511.5 171.3L502.7 173.5L494.8 178.5L486.2 179.6L476.1 178.2H468.8L463.5 178.6L457.8 183.1L450.4 185.9L440.3 194.1L432.4 199.9L437.1 198.9L448 190.6L460.3 185.4L467.9 184.8L471.2 187.9L465.1 192.1L464.5 198.8L464.6 203.6L470.2 206.7L478.8 205.8L486 198.7L485 203.3L487.5 205.6L480.1 209.7L467.7 213.5L461.9 216L454.7 220.6L451 220.1L452.5 214.8L462.9 209.5L454.8 209.7L448.9 210.5Z" fill="#F0F0F0" stroke="black" stroke-width="0.5" stroke-linecap="round" stroke-linejoin="round"/>
<path d="M342.4 46.7002L337.7 49.1002L348.2 47.6002L350.8 50.2002L358.1 47.5002L359.9 49.2002L357.7 54.3002L362 52.2002L364.8 46.9002L369.1 46.1002L372.1 46.9002L374.3 49.0002L371.6 54.1002L369.2 57.8002L373.4 60.4002L378.4 63.0002L375.8 65.3002L368.7 65.8002L369.5 67.8002L366.3 69.8002L359.6 69.0002L353.9 67.5002L348.8 67.8002L339.3 69.7002L328 70.5002L320.1 71.0002L320.4 68.4002L316.3 67.0002L312 67.6002L311.4 63.3002L314.7 62.7002L322 61.8002L327.5 62.1002L333.7 61.1002L327.2 59.9002L318.1 60.3002L312.4 60.2002V58.3002L324.1 56.1002L317.8 56.2002L312.4 54.8002L320.2 50.9002L325.4 48.8002L339.6 45.7002L342.4 46.7002Z" fill="#F0F0F0" stroke="black" stroke-width="0.5" stroke-linecap="round" stroke-linejoin="round"/>
<path d="M381.9 45.2L374.9 48.6L372.6 45L374.7 44.2L380.2 44L381.9 45.2Z" fill="#F0F0F0" stroke="black" stroke-width="0.5" stroke-linecap="round" stroke-linejoin="round"/>
<path d="M490.5 46.7999L489.8 48.1999L485.7 48.0999L481.6 47.9999L476.7 48.6999L475.8 48.2999L473.7 45.5999L475.4 43.7999L477.6 43.3999L486 43.9999L490.5 46.7999Z" fill="#F0F0F0" stroke="black" stroke-width="0.5" stroke-linecap="round" stroke-linejoin="round"/>
<path d="M450.7 46.5002L451 49.7002L458.2 45.6002L469.9 43.5002L472.2 48.8002L469 52.2002L478 50.7002L483.3 48.6002L490.1 51.2002L493.8 53.7002L492.7 56.0002L500.9 54.8002L502.8 58.2002L511.2 60.3002L513.4 62.4002L514.3 67.5002L505.2 70.0002L512.9 73.6002L518.8 74.8002L522.1 79.8002L528.6 80.2002L525.3 84.1002L514.4 90.6002L510.4 88.2002L506.6 82.8002L500.7 83.5002L498.4 86.8002L501.1 90.0002L505.6 92.6002L506.6 94.1002L506.5 99.8002L502.9 103.9L498.2 102.3L489.6 97.8002L493.2 102.7L496 106.2L495.7 108.2L484.8 105.9L477.2 102.5L473.4 99.8002L475.8 98.1002L471 95.2002L466.3 92.5002L465.4 94.1002L452.3 95.0002L449.9 93.1002L455.3 88.9002L463.4 88.8002L472.7 88.1002L472.5 86.1002L475.6 83.3002L484.4 77.9002L484.8 75.4002L484.3 73.6002L479.6 70.9002L472.5 69.1002L476 67.7002L474 64.3002L470.6 64.0002L468.7 62.2002L465.4 63.8002L457.5 64.5002L443.5 63.3002L436.1 61.7002L430.2 60.9002L428.3 59.0002L434.6 56.6002H428.9L432.2 51.3002L439.3 46.7002L445.3 44.6002L456.5 43.2002L450.7 46.5002Z" fill="#F0F0F0" stroke="black" stroke-width="0.5" stroke-linecap="round" stroke-linejoin="round"/>
<path d="M400.3 43L403.9 44.1L411.5 43.4L411 44.9L404.9 47.4L408.7 49.6L403.5 54.3L395.1 56.3L391.7 55.9L390.8 53.9L384.9 49.9L386.6 48.2L394 48.8L393.1 45.5L400.3 43Z" fill="#F0F0F0" stroke="black" stroke-width="0.5" stroke-linecap="round" stroke-linejoin="round"/>
<path d="M422.9 48.5L415.1 52.4L410.7 52.2L412.5 47.6L415.1 45.1L419.3 42.9L424.5 41.5L432.4 41.7L438.6 42.9L428.5 47.5L422.9 48.5Z" fill="#F0F0F0" stroke="black" stroke-width="0.5" stroke-linecap="round" stroke-linejoin="round"/>
<path d="M307.1 55.6999L293.6 58.2999L294.2 55.9999L288.2 53.1999L292.6 50.9999L300.1 47.1999L307.7 43.7999L308.1 40.6999L322.1 39.8999L326.3 40.9999L335.8 41.2999L337.7 42.6999L339.3 44.8999L332.8 46.1999L318.9 49.7999L309.7 53.4999L307.1 55.6999Z" fill="#F0F0F0" stroke="black" stroke-width="0.5" stroke-linecap="round" stroke-linejoin="round"/>
<path d="M432.3 37.2999L428.2 39.1999L423 38.7999L419.8 37.4999L424.3 35.2999L431.2 33.8999L432.6 35.6999L432.3 37.2999Z" fill="#F0F0F0" stroke="black" stroke-width="0.5" stroke-linecap="round" stroke-linejoin="round"/>
<path d="M423.5 28.6001L423.7 30.9001L420.9 33.4001L415.1 37.2001L408.2 37.7001L405 36.9001L408.4 34.0001L401.8 34.3001L406.1 30.5001L409.9 30.7001L417.6 29.0001L422.5 29.3001L423.5 28.6001Z" fill="#F0F0F0" stroke="black" stroke-width="0.5" stroke-linecap="round" stroke-linejoin="round"/>
<path d="M384.1 31.1998L383.4 32.8998L387.8 32.0998L391.4 32.2998L389.1 34.7998L384 37.0998L370.1 37.8998L357.8 40.0998L351.8 40.1998L353.3 38.5998L364 36.2998L346.1 36.8998L341.9 35.9998L353.6 31.1998L359 29.7998L367.3 31.4998L370.2 34.3998L376.3 34.7998L377 30.0998L382.8 28.2998L385.9 28.7998L384.1 31.1998Z" fill="#F0F0F0" stroke="black" stroke-width="0.5" stroke-linecap="round" stroke-linejoin="round"/>
<path d="M439.8 26.8L442.1 28.4H449.5L450.9 30L448.1 31.8L451.2 32.9L452.4 34.1L457.3 34.3L462.4 34.7L469.5 33.7L477.6 33.2L483.4 33.6L485.7 35.5L484.7 37.5L481.1 38.9L474.4 40L470.1 39.3L458.3 40.1L450.3 40.2L444.7 39.6L436.1 38L437.7 35.2L439.8 32.8L438.4 30.6L431.4 30L428.8 28.5L432.6 26.5L439.8 26.8Z" fill="#F0F0F0" stroke="black" stroke-width="0.5" stroke-linecap="round" stroke-linejoin="round"/>
<path d="M364.1 24.2002L358.3 27.9002L353 29.6002L349.2 29.8002L339.3 31.9002L332.2 32.7002L328.6 31.6002L340.3 27.9002L352.5 24.8002L358 24.9002L364.1 24.2002Z" fill="#F0F0F0" stroke="black" stroke-width="0.5" stroke-linecap="round" stroke-linejoin="round"/>
<path d="M445.3 24.7998L443.5 24.8998L436.9 24.5998L437.6 23.2998L444.8 23.3998L446.4 24.1998L445.3 24.7998Z" fill="#F0F0F0" stroke="black" stroke-width="0.5" stroke-linecap="round" stroke-linejoin="round"/>
<path d="M386.5 23.8998L377.7 25.2998L374.4 23.7998L379.5 22.2998L385.5 21.7998L389.6 22.4998L386.5 23.8998Z" fill="#F0F0F0" stroke="black" stroke-width="0.5" stroke-linecap="round" stroke-linejoin="round"/>
<path d="M394.3 19.7001L388.6 20.6001H382.6L383.6 19.9001L389.3 18.6001L391 18.8001L394.3 19.7001Z" fill="#F0F0F0" stroke="black" stroke-width="0.5" stroke-linecap="round" stroke-linejoin="round"/>
<path d="M441.1 22.2L434.5 23.2L432.9 22.1L433.5 20.4L435.7 18.5L440.1 18.7L441.8 19L444.1 20.6L441.1 22.2Z" fill="#F0F0F0" stroke="black" stroke-width="0.5" stroke-linecap="round" stroke-linejoin="round"/>
<path d="M427.3 21L426.2 22.9L420.9 22.4L416.9 20.9L409.1 20.7L414.4 19.4L411.6 18.3L413.8 16.5L419.9 17.1L427.4 18.8L427.3 21Z" fill="#F0F0F0" stroke="black" stroke-width="0.5" stroke-linecap="round" stroke-linejoin="round"/>
<path d="M481.4 14.9001L484.1 16.4001L477.6 17.7001L467 21.2001L460.2 21.5001L453.4 20.9001L451.8 19.0001L453.9 17.4001L458.2 16.2001H451.6L449.6 14.7001L450 12.8001L454.9 10.9001L459 9.6001L463 9.3001L462.7 8.3001L471 8.1001L472.6 10.3001L477.3 11.2001L482.1 12.1001L481.4 14.9001Z" fill="#F0F0F0" stroke="black" stroke-width="0.5" stroke-linecap="round" stroke-linejoin="round"/>
<path d="M560.6 0.9L569.3 1.2L576 1.7L581.2 2.7L580.1 3.7L570.3 5.4L561.3 6.2L557.3 7.1H564.8L554.3 9.6L547.5 10.8L538.2 14.3L530.1 15L527 16L515.7 16.4L520.1 17L516.8 17.8L517.5 20.1L512.5 21.7L505.6 23L502.1 24.8L495.5 26.3L495 27.4L501.5 27.2L500.4 28.4L487.7 31.3L479.2 29.9L467.5 30.7L462.5 30.1L455.7 29.8L457.8 27.5L465.8 26.4L467.8 23L470.4 22.7L477.9 24.7L476.2 21.7L471.3 20.8L476.3 19L483.9 17.9L486.7 16.3L483.7 14.6L484.8 12.4L494.2 12.5L496.4 13L503.7 11.4L496.4 10.9L483.8 11.2L479.4 9.8L478.6 8.1L476.1 6.9L477.2 5.6L483.2 4.8L487.4 4.7L494.8 4.1L501.6 2.6L505.5 2.8L507.9 3.9L512.9 1.9L518.1 1.3L524.6 0.9L535 0.7L536.3 1.1L546.6 0.5L553.6 0.7L560.6 0.9Z" fill="#F0F0F0" stroke="black" stroke-width="0.5" stroke-linecap="round" stroke-linejoin="round"/>
<path d="M387.8 424.2L384.1 425.3L382.5 428.5L380.2 430.3L378.4 432.7L377.5 437.3L375.7 441.1L378.6 441.5L379.2 444.4L380.4 445.9L380.7 448.4L380 450.8L380.1 452.2L381.5 452.7L382.7 454.9L390 454.3L393.3 455.1L397.1 460.7L399.4 460L403.5 460.3L406.7 459.6L408.7 460.7L407.5 464.1L406.2 466.3L405.6 470.9L406.7 475.2L408.2 477.1L408.4 478.5L405.5 481.7L407.5 483.1L409 485.4L410.6 491.8L409.5 492.6L408.5 488.8L406.9 486.7L405 489L394 488.8V492.8L397.3 493.5L397.1 496L396 495.3L392.8 496.3L392.7 501L395.3 503.4L396.2 507L396.1 509.8L393.9 527.4L391 524L389.3 523.9L392.8 517.3L388.4 514.3L385 514.9L382.9 513.8L379.8 515.5L375.6 514.6L372.1 507.9L369.5 506.3L367.7 503.2L363.9 500.2L362.4 500.8L360 499.3L357.2 497.2L355.6 498.2L350.8 497.3L349.4 494.5L348.3 494.6L342.7 491L342 489L344.1 488.5L343.9 485.3L345.3 482.9L348.1 482.5L350.6 478.5L352.8 475.1L350.8 473.6L352 469.9L350.9 464L352.2 462.3L351.5 456.9L349.3 453.4L350.2 450.3L352 450.8L353.1 448.9L352 445.1L352.7 444.2L355.6 444.4L360.1 439.9L362.5 439.2L362.6 437.1L364 431.6L367.4 428.7L370.9 428.5L371.5 427.2L375.9 427.7L380.5 424.5L382.8 423.1L385.7 420L387.7 420.4L389 422.1L387.8 424.2V424.2Z" fill="#F0F0F0" stroke="black" stroke-width="0.5" stroke-linecap="round" stroke-linejoin="round"/>
<path d="M318 429.6L319.2 433.1L321.2 435.7L323.7 438.4L321.5 439L321.4 441.6L322.5 442.5L321.6 443.3L321.8 444.4L321.2 445.7L320.9 447L317.9 445.6L316.8 444.2L317.5 443.1L317.4 441.7L315.9 440.2L313.7 438.9L311.9 438.1L311.6 436.2L310.2 435.1L310.4 436.9L309.2 438.5L308 436.7L306.3 436L305.6 434.8L305.7 432.8L306.6 430.8L305.1 429.9L306.5 428.6L307.4 427.8L311 429.5L312.3 428.7L314.1 429.2L314.9 430.5L316.6 431L318 429.6V429.6Z" fill="#F0F0F0" stroke="black" stroke-width="0.5" stroke-linecap="round" stroke-linejoin="round"/>
<path d="M348.2 353.7L350.1 356L355.3 355.3L357.1 356.8L361.3 360.8L364.5 363.7L366.3 363.6L369.5 364.9L368.9 366.7L372.9 367L376.8 369.6L376 371.1L372.2 371.9L368.4 372.2L364.7 371.7L356.6 372.3L360.8 368.8L358.7 367.1L355.1 366.7L353.4 364.8L352.6 361.2L349.4 361.4L344.4 359.7L342.9 358.3L335.8 357.3L334 356.1L336.3 354.5L330.9 354.2L326.5 357.5L324.2 357.6L323.2 359.2L320.4 359.9L318.1 359.2L321.3 357.3L322.8 354.9L325.5 353.5L328.5 352.3L332.8 351.7L334.2 350.9L338.9 351.4L343.3 351.5L348.2 353.7V353.7Z" fill="#F0F0F0" stroke="black" stroke-width="0.5" stroke-linecap="round" stroke-linejoin="round"/>
<path d="M389.1 384L389.4 382.2L388.1 380.3L389.6 379.2L390.3 376.7L390.2 373.3L391 372.2H395.3L398.5 373.8L400 373.7L400.7 376L403.8 375.8L403.4 377.7L405.9 378L408.4 380.3L406.1 382.9L403.5 381.5L400.9 381.8L399.1 381.5L398 382.7L395.8 383.1L395.1 381.5L393.2 382.4L390.5 386.8L389.2 385.8L389.1 384V384Z" fill="#F0F0F0" stroke="black" stroke-width="0.5" stroke-linecap="round" stroke-linejoin="round"/>
<path d="M362.4 500.8L363.2 505.7L361.5 509.8L355.4 516.6L348.7 519.1L345.3 524.7L344.4 529L341.3 531.7L338.8 528.4L336.5 527.7L334.2 528.2L333.9 525.9L335.5 524.4L334.8 521.7L337.7 516.9L336.4 514.1L334.3 517.1L330.8 514.2L331.9 512.4L330.9 506.6L332.9 505.6L333.9 501.6L336 497.5L335.7 494.9L338.8 493.5L342.7 491L348.3 494.6L349.4 494.5L350.8 497.3L355.6 498.2L357.2 497.2L360 499.3L362.4 500.8V500.8Z" fill="#F0F0F0" stroke="black" stroke-width="0.5" stroke-linecap="round" stroke-linejoin="round"/>
<path d="M291.5 385.5L290.8 390.6L289.5 397.8H291.2L292.9 399L293.5 398L295 398.8L292.2 401.3L289.3 403.1L288.8 404.3L289.1 405.6L287.8 407.2L286.4 407.6L286.7 408.4L285.5 409.1L283.5 410.7L283.2 411.6L280.4 410.5L276.9 410.4L274.5 409.1L271.7 406.5L272.1 404.6L272.9 403.1L272.2 401.9L275.5 396.7H282.7L283.1 394.5L282.3 394.1L281.8 392.7L279.9 391.2L278.1 389.1L280.6 389L281.1 385.4H286.3L291.5 385.5Z" fill="#F0F0F0" stroke="black" stroke-width="0.5" stroke-linecap="round" stroke-linejoin="round"/>
<path d="M466.3 461.5L465.3 467.3L461.8 468.9L462.1 470.4L461 473.8L463.4 478.4H465.2L465.9 482L469.2 487.6L467.9 487.9L464.7 487.3L462.9 489L460.3 490.1L458.5 490.4L457.9 491.7L455.1 491.4L451.6 488.4L451.3 485.4L449.9 482.1L450.9 476.7L452.5 474.4L451.3 471.4L449.3 470.5L450.1 467.6L448.9 466.2L445.9 466.4L442.2 461.6L443.8 459.8V456.8L447.3 455.8L448.7 454.6L446.9 452.2L447.4 449.9L452.1 446.1L455.7 448.5L459 452.6L459.1 456L461.2 456.1L464.2 459.2L466.3 461.5V461.5Z" fill="#F0F0F0" stroke="black" stroke-width="0.5" stroke-linecap="round" stroke-linejoin="round"/>
<path d="M323 403.5L321.1 403.4L320.2 404.3L318.2 405.1H316.8L315.5 405.9L314.4 405.7L313.5 404.7L312.9 404.9L312 406.4L311.5 406.3L311.3 407.7L309.2 409.4L308 410.2L307.4 411L305.9 409.7L304.5 411.4H303.3L302 411.5L301.8 414.7H301L300.2 416.2L298.4 416.5L297.6 414.5L295.9 413.9L296.6 411.3L295.9 410.6L294.7 410.2L292.2 410.9L292.1 410.1L290.5 409L289.4 407.8L287.8 407.2L289.1 405.6L288.8 404.3L289.3 403.1L292.2 401.3L295 398.8L295.6 399.1L296.9 398L298.5 397.9L299 398.4L299.9 398.1L302.5 398.7L305.1 398.5L306.9 397.8L307.7 397.1L309.4 397.4L310.7 397.8L312.2 397.7L313.4 397.1L315.9 398L316.7 398.2L318.3 399.4L319.8 400.8L321.7 401.8L323 403.5V403.5Z" fill="#F0F0F0" stroke="black" stroke-width="0.5" stroke-linecap="round" stroke-linejoin="round"/>
<path d="M390.2 373.3L390.3 376.7L389.6 379.2L388.1 380.3L389.4 382.2L389.1 384L385.5 382.9L382.8 383.3L379.4 382.9L376.7 384.1L373.9 382.1L374.6 380L379.7 380.9L383.8 381.4L386 380L383.7 377.2L384.1 374.7L380.6 373.7L382.1 372L385.5 372.2L390.2 373.3V373.3Z" fill="#F0F0F0" stroke="black" stroke-width="0.5" stroke-linecap="round" stroke-linejoin="round"/>
<path d="M359.9 385.1L358.1 386.2L355.1 385.1L352.2 382.8L353 381.3L355.4 380.9L356.7 381.1L360.4 381.7L363.1 383.2L363.9 385L359.9 385.1V385.1Z" fill="#F0F0F0" stroke="black" stroke-width="0.5" stroke-linecap="round" stroke-linejoin="round"/>
<path d="M252.7 333.9L254.9 333.7L251.7 339.4L249.9 344L248.1 352.6L247 355.7L247.4 359.2L248.7 362.4L249.1 367.3L252.1 372.1L252.9 375.8L254.6 378.9L260.3 380.6L262.2 383.3L267.4 381.5L271.7 380.9L276.1 379.7L279.7 378.6L283.6 376L285.4 372.3L286.6 366.9L287.8 365L291.8 363.3L297.9 361.8L302.8 362.1L306.2 361.5L307.4 362.9L306.8 366L303.3 369.8L301.5 373.7L302.4 374.8L301.2 377.6L299.1 382.6L297.9 380.9L296.8 381L295.7 381.1L293.2 385L292.3 384.2L291.6 384.5L291.5 385.5L286.3 385.4H281.1L280.6 389L278.1 389.1L279.9 391.2L281.8 392.7L282.3 394.1L283.1 394.5L282.7 396.7H275.5L272.2 401.9L272.9 403.1L272.1 404.6L271.7 406.5L266.1 399.6L263.5 397.5L259.1 395.8L255.9 396.3L251.1 398.7L248.2 399.3L244.5 397.6L240.4 396.4L235.6 393.5L231.5 392.6L225.6 389.6L221.3 386.5L220.2 384.8L217.1 384.4L211.7 382.4L209.8 379.5L204.4 375.8L202.2 371.8L201.4 368.6L203.3 368L203 366.2L204.6 364.5L205 362.3L203.5 359.4V356.9L202.2 353.6L198.4 347.2L193.8 342.2L191.9 338.2L187.8 335.6L187.1 334L188.8 330.1L186.4 328.6L183.9 325.4L183.7 321L180.9 320.4L178.6 317.1L176.9 313.9L177.2 311.9L175.7 307.1L175.4 302.2L176.2 299.7L173.1 297.1L171.2 297.4L168.8 295.7L167 298.3L166.9 301.3L165.9 306.2L166.9 308.8L169.7 313.2L170.1 314.8L170.8 315.2L170.9 317.4L171.9 317.3V321.5L173.2 323.1L173.7 325.4L176.4 328.6L176.8 334.6L177.8 337.4L178.7 340.4L178.4 343.8L181 344L182.6 346.9L184.1 349.8L183.8 351L181 353.3H180L179.3 349.4L176.4 345.7L173 342.6L170.5 341L171.7 336.3L171.6 332.8L169.5 330.8L166.4 328L165.5 328.8L164.5 327.1L161.5 325.6L159.3 321.8L159.8 321.4L161.9 321.7L164.6 319.3L165.6 316.4L162.7 311.8L160.1 310.1L159.3 306.1L158.7 301.8L157.9 296.7L157.7 290.9L164 290.4L171.1 289.7L170.2 291L177.2 294.1L188.1 298.6H198.9H203.2L204 295.9H213.4L214.7 298.2L216.8 300.3L219.2 303.1L220 306.4L220.4 310L222.7 311.9L226.7 313.8L231.5 308.8L236 308.6L239.2 311.2L240.8 315.6L241.7 319.4L244.1 323L244.3 327.5L245.2 330.5L249.1 332.5L252.7 333.9V333.9Z" fill="#F0F0F0" stroke="black" stroke-width="0.5" stroke-linecap="round" stroke-linejoin="round"/>
<path d="M323 403.5L322.5 404.2L322 405.6L322.4 407.9L320.9 410.1L320.1 412.7L319.6 415.5L319.8 417.2L319.7 420.1L318.8 420.7L318.1 423.5L318.3 425.2L317.1 426.8L317.2 428.5L318 429.6L316.6 431L314.9 430.5L314.1 429.2L312.3 428.7L311 429.5L307.4 427.8L306.5 428.6L304.7 426.6L302.2 424L301.1 421.9L298.9 419.8L296.4 416.9L297.1 415.9L297.9 416.9L298.4 416.5L300.2 416.2L301 414.7H301.8L302 411.5L303.3 411.4H304.5L305.9 409.7L307.4 411L308 410.2L309.2 409.4L311.3 407.7L311.5 406.3L312 406.4L312.9 404.9L313.5 404.7L314.4 405.7L315.5 405.9L316.8 405.1H318.2L320.2 404.3L321.1 403.4L323 403.5V403.5Z" fill="#F0F0F0" stroke="black" stroke-width="0.5" stroke-linecap="round" stroke-linejoin="round"/>
<path d="M352.7 444.2L352 445.1L353.1 448.9L352 450.8L350.2 450.3L349.3 453.4L347.5 451.6L346.5 448.1L347.9 446.4L346.5 446L345.6 443.9L342.8 442.1L340.4 442.5L339.1 444.7L336.7 446.3L335.5 446.5L334.9 447.9L337.4 451.4L335.8 452.2L335 453.1L332.3 453.5L331.5 449.6L330.7 450.7L328.9 450.3L327.9 447.8L325.6 447.3L324.1 446.6H321.7L321.5 448L320.9 447L321.2 445.7L321.8 444.4L321.6 443.3L322.5 442.5L321.4 441.6L321.5 439L323.7 438.4L325.6 440.7L325.4 442.1L327.6 442.4L328.2 441.8L329.7 443.4L332.5 442.9L335 441.3L338.5 440L340.5 438.1L343.6 438.5L343.4 439.1L346.5 439.3L348.9 440.5L350.7 442.4L352.7 444.2V444.2Z" fill="#F0F0F0" stroke="black" stroke-width="0.5" stroke-linecap="round" stroke-linejoin="round"/>
<path d="M393.9 527.4L388.8 527.1L388 528.1L383.4 529.3L377.1 533.7L376.8 536.7L375.4 538.9L376.1 542.4L372.7 544.2L372.9 547L371.4 548.1L374 553.9L377.3 557.8L376.3 560.6L380.1 560.9L382.4 564.4L387.4 564.5L391.8 560.8L391.9 570.5L394.5 571.2L397.7 570.1L403.2 580.5L402.1 582.6V587.2L402.4 592.6L400.5 595.8L401.7 598.2L400.6 600.4L403.5 605.8L400.6 612.7L399.5 616L396.7 617.6L390.8 613.9L390 611.3L378.3 604.9L367.6 597.8L362.9 593.9L360.1 588.6L360.9 586.7L355.5 578.3L349.1 566.5L343.1 553.7L340.7 550.7L338.7 546L334.1 541.8L330 539.2L331.7 536.4L328.7 530.2L330.4 525.7L334.8 521.7L335.5 524.4L333.9 525.9L334.2 528.2L336.5 527.7L338.8 528.4L341.3 531.7L344.4 529L345.3 524.7L348.7 519.1L355.4 516.6L361.5 509.8L363.2 505.7L362.4 500.8L363.9 500.2L367.7 503.2L369.5 506.3L372.1 507.9L375.6 514.6L379.8 515.5L382.9 513.8L385 514.9L388.4 514.3L392.8 517.3L389.3 523.9L391 524L393.9 527.4V527.4Z" fill="#F0F0F0" stroke="black" stroke-width="0.5" stroke-linecap="round" stroke-linejoin="round"/>
<path d="M465.9 629.4L467.9 632.9L468.3 641.6L474.2 642.9L476.4 641.6L480.3 643.4L481.5 645.3L482.6 651.2L483.4 653.6L485.5 653.9L487.5 652.9L489.6 654L489.9 657.6L489.6 661.4L488.9 665.1L488.6 670.7L484.3 675.7L480.1 676.7L473.8 675.7L468 674L472.2 664.2L471.1 661.4L465.2 658.9L457.9 654.1L453.3 653.1L442 642.7L443.5 635L443.3 631.5L445.4 625.9L455 624L460.2 624.1L465.6 627.4L465.9 629.4V629.4Z" fill="#F0F0F0" stroke="black" stroke-width="0.5" stroke-linecap="round" stroke-linejoin="round"/>
<path d="M295.9 413.9L295.2 415.4L291.9 415.3L289.9 414.7L287.7 413.4L284.7 413L283.2 411.6L283.5 410.7L285.5 409.1L286.7 408.4L286.4 407.6L287.8 407.2L289.4 407.8L290.5 409L292.1 410.1L292.2 410.9L294.7 410.2L295.9 410.6L296.6 411.3L295.9 413.9V413.9Z" fill="#F0F0F0" stroke="black" stroke-width="0.5" stroke-linecap="round" stroke-linejoin="round"/>
<path d="M484.4 462.9L481.3 468.4L481.6 472.8L483.8 476.6L482.7 479.3L482.2 482.3L480.7 485L477.5 483.6L474.8 484.3L472.5 483.7L471.9 485.6L472.9 486.8L472.3 488.2L469.2 487.6L465.9 482L465.2 478.4H463.4L461 473.8L462.1 470.4L461.8 468.9L465.3 467.3L466.3 461.5L473.1 462.8L473.7 461.6L478.3 461.1L484.4 462.9V462.9Z" fill="#F0F0F0" stroke="black" stroke-width="0.5" stroke-linecap="round" stroke-linejoin="round"/>
<path d="M503.1 716.6L501.5 720.7L496.1 724.2L491.9 722.9L489.1 723.6L483.6 720.9L480 721.1L476.1 717.5L475.7 713.4L476.6 712L475.4 705.6L475.8 699L476.3 693.8L479.7 693.1L486 698.1L487.9 697.9L494.2 702L499 705.6L502.8 709.9L501 713L503.1 716.6V716.6Z" fill="#F0F0F0" stroke="black" stroke-width="0.5" stroke-linecap="round" stroke-linejoin="round"/>
<path d="M452.1 446.1L447.4 449.9L446.9 452.2L448.7 454.6L447.3 455.8L443.8 456.8V459.8L442.2 461.6L445.9 466.4L446.6 468.2L444.5 470.7L438.1 473.1L434 474.1L432.3 475.6L427.8 474L423.7 473.2L422.6 473.8L425.1 475.4L424.8 479.7L425.5 483.8L430.3 484.3L430.6 485.7L426.5 487.5L425.8 490.2L423.4 491.3L419.2 492.8L418.1 494.8L413.7 495.2L410.6 491.8L409 485.4L407.5 483.1L405.5 481.7L408.4 478.5L408.2 477.1L406.7 475.2L405.6 470.9L406.2 466.3L407.5 464.1L408.7 460.7L406.7 459.6L403.5 460.3L399.4 460L397.1 460.7L393.3 455.1L390 454.3L382.7 454.9L381.5 452.7L380.1 452.2L380 450.8L380.7 448.4L380.4 445.9L379.2 444.4L378.6 441.5L375.7 441.1L377.5 437.3L378.4 432.7L380.2 430.3L382.5 428.5L384.1 425.3L387.8 424.2L387.6 425.7L384.2 426.5L385.9 429.4L385.6 432.8L382.9 436.5L384.8 441.6L387.3 441.2L388.8 436.5L387.1 434.3V429.4L394.3 426.8L393.7 423.8L395.8 421.7L397.5 426.3L401.5 426.4L404.9 429.9L405.1 432.1H410.1L416.2 431.5L419.3 434.3L423.5 435.1L426.8 433.1L426.9 431.5L434 431.1L440.7 431L435.8 432.9L437.6 436L442.1 436.4L446.3 439.6L447 444.7L449.9 444.6L452.1 446.1V446.1Z" fill="#F0F0F0" stroke="black" stroke-width="0.5" stroke-linecap="round" stroke-linejoin="round"/>
<path d="M458.5 835.9L464.5 849.5H469.5L472.5 849.7L472 852.1L468.8 854L466.4 853.8L463.3 853.3L459.1 851.5L453.7 850.6L446.2 847.2L439.8 844L430 837.1L434.6 838.4L443.2 842.5L450.5 844.7L451.7 841.9L451.4 837.7L454.8 835.1L458.5 835.9Z" fill="#F0F0F0" stroke="black" stroke-width="0.5" stroke-linecap="round" stroke-linejoin="round"/>
<path d="M417.8 645.8L418.7 647.4L417.5 654.1L411.9 657.2L413.5 667.9L412.7 670L414.7 672.5L411.4 676.5L408.8 682.5L407.9 688.4L409.6 694.6L407.5 701.2L412.4 712.3L414 713.5L415.4 719.4L413.8 725.6L415.2 731L412.2 735.2L413.8 741L417.1 747.3L414.6 749.6L414.8 755.3L415.6 761.8L418.9 769.6L417.2 770.9L420.9 778.2L424 780.6L423.2 783.3L426 784.5L427.4 786.9L425.6 788.1L427.4 791.8L428.5 800.1L427.8 805.5L429.6 808.7L429.5 812.6L426.8 815.4L429.9 821.9L432.5 824.2L435.6 823.8L437.5 828.4L441 832L453.1 832.8L458 833.8H453.7L452 835.3L448.6 837.5L450.3 843.2L448.4 843.3L442.1 841.4L434.6 837.1L427 833.6L423.8 829.7L423.5 826.1L419.3 821.9L414.3 811.3L414.1 805.3L417.5 800.5L409.2 798.6L411.9 793.1L409.9 782.6L416.4 784.8L414.6 771.7L410.6 770L411.6 777.9L408.1 777L406.6 768L404.6 756.2L405.7 751.8L402.4 745.6L400 738.4L402.2 738.1L402.8 727.8L404 717.5L404.1 708L400.8 698.3L401.4 693L399.3 685.1L401.1 677.3L400.2 664.9V651.5L400.3 637.2L398.8 626.7L396.7 617.6L399.5 616L400.6 612.7L403.8 617.1L405 621.7L408.2 624.4L407.1 630.6L410.8 637.8L413.9 646.7L417.8 645.8Z" fill="#F0F0F0" stroke="black" stroke-width="0.5" stroke-linecap="round" stroke-linejoin="round"/>
<path d="M342.9 192.5L336.8 194.5L332.1 197L327.5 199.7L327 200.6L332.7 199.3L334.8 201.4L339.4 199.9L344.3 197.8L349.7 195.7L346.6 199L349.1 199.8L351.6 202.2L356.7 200.8L361.8 200.3L362.1 202.1L363.6 202.3L364.8 202.5L366.3 205L361.6 205.6H361.5L357.8 204.9L353.3 206.1L349.6 206.7L344.9 210.8L341.9 213.1L342.3 213.8L347.8 209.7H348.5L343.8 214.6L340.9 219L338.4 222.6L337.8 225.7L337 227.2L336.4 228.9L336.5 232.2L336.8 232.7L338.6 232.6L340.2 231.9L341.6 231.1L344.9 228L346.7 223.8L346.6 219.9L348 217.2L350.6 214.1L352.7 211.9L355.4 210.4L355 212.5L357.2 209.4L358.5 208.8L360.2 206.4L364 207.7L366.8 210.1L366 213L364.4 215.9L360.6 218.4L360.2 220H361.2L365.5 217.3L367.1 217.9L366.6 221.6L365.9 224.2L362.2 227.7L360.2 229.9L357.5 232.3L360.2 233.6L362.7 234L366.7 233.1L370.4 231.4L373.4 230.5L378 228.7L383.8 224.9L383.9 224.3L384.2 222.4L386.9 221.6L390.8 221.9L394.8 222.4L399.4 220.3L400 217.8L399.8 216.9L406.6 212.5L409.3 211.4L417.1 211.3H426.4L427.5 209.8L429.2 209.5L431.7 208.5L434.5 205.6L437.7 200.7L443.2 196L444.3 197.6L448 196.6L449.6 198.4L446.7 206.9L448.9 210.5L449.1 212.6L442.7 215.6L436.7 217.8L430.7 219.7L426.7 223.5L425.4 224.9L424.2 228.3L424.9 231.6L427 231.8L427.2 229.5L428.3 230.9L427.3 232.7L423.5 233.7L421 233.6L416.8 234.7L414.5 235L411.4 235.3L406.4 237.2L414.5 236L415.6 237.2L407.7 239.1H404.4L404.8 238.3L402.7 240.1L404.1 240.4L401.6 245L396.3 249.9L396.4 248.2L395.3 247.9L394.1 246.3V249.8L395.1 250.9L394.5 253.3L392.1 255.8L387.6 260.9L387.2 260.7L390.1 256.3L388.1 253.9L389.1 248.5L387.2 251.3V255.4L384 254.4L387 256.4L385.5 262.5L386.9 263V265.2L385.9 271.6L381.3 276.3L375.2 278.2L370.8 282L368 282.4L364.6 284.8L363.3 286.9L356.4 291.1L352.6 294.2L349.1 298L347.2 302.5V307L347.8 312.5L349.3 317L348.8 319.8L350.1 327.2L349.1 331.6L348.5 334.1L346.5 338L344.7 338.8L342.1 338L341.7 335.2L339.9 333.7L337.9 328.2L336.3 323.3L335.9 320.8L337.9 316.5L337.1 313L334 307.6L332.1 306.6L326 309.6L325.1 309.2L323.1 306.2L320.1 304.6L313.7 305.5L309.1 304.7L304.8 305.2L302.3 306.2L302.9 307.9L302.2 310.5L303 311.8L301.8 312.6L300 311.7L297.7 312.9L293.8 312.7L290.5 309.3L285.6 310.1L282 308.6L278.5 309.1L273.5 310.6L267.4 315.3L261.3 318.1L257.6 321.1L255.7 324L254.7 328.5L254.3 331.5L254.9 333.7L252.7 333.9L249.1 332.5L245.2 330.5L244.3 327.5L244.1 323L241.7 319.4L240.8 315.6L239.2 311.2L236 308.6L231.5 308.8L226.7 313.8L222.7 311.9L220.4 310L220 306.4L219.2 303.1L216.8 300.3L214.7 298.2L213.4 295.9H204L203.2 298.6H198.9H188.1L177.2 294.1L170.2 291L171.1 289.7L164 290.4L157.7 290.9L158 287.7L155.9 284L153.7 283.2L153.8 281.4L150.9 281L149.7 279.3L144.9 278.7L144 277.6L144.8 274.1L142.3 267.7L141.8 258.8L142.7 257.3L141.4 255.2L139.9 249.8L141.7 244.6L140.8 241.1L144.7 235.8L147.5 230.4L148.6 225.5L154.1 219.5L158.1 213.8L162.1 208.1L166.4 199.6L168.2 194.3L168.6 191.4L170 190.1L175.8 192.3L174.8 198.2L177 196.5L179.5 191.4L181.1 186.3H195.2H209.9H214.7H229.8H244.5H259.3H274.2H291H308H318.2L319.5 183.9H321.2L320.3 187.3L321.3 188.3L324.6 188.7L329.2 189.7L333.1 191.6L337.5 190.8L342.9 192.5Z" fill="#F0F0F0" stroke="black" stroke-width="0.5" stroke-linecap="round" stroke-linejoin="round"/>
<path d="M78.4001 136.6L71.4001 138.9L70.6001 137.3L72.9001 134.5L79.3001 132.4L82.8001 131.5L85.4001 131.9V133.8L78.4001 136.6Z" fill="#F0F0F0" stroke="black" stroke-width="0.5" stroke-linecap="round" stroke-linejoin="round"/>
<path d="M39.4 120L35.5 120.9L33.8 119.8L33 118.2L38.7 117.2L41.7 117.8L39.4 120Z" fill="#F0F0F0" stroke="black" stroke-width="0.5" stroke-linecap="round" stroke-linejoin="round"/>
<path d="M40.6 97.6001L41.8 98.6001L45.3 98.1001L46.9 99.6001L50.2 100.3L49 101L44.1 102.2L42.4 100.9L42.1 99.9001L37.8 100.2L37.5 99.7001L40.6 97.6001Z" fill="#F0F0F0" stroke="black" stroke-width="0.5" stroke-linecap="round" stroke-linejoin="round"/>
<path d="M213.4 64.5999L188.8 84.9999L153.2 117.7L157.4 117.9L160.2 119.5L160.7 122.1L161 125.9L168.6 122.6L175.1 120.7L174.5 123.8L175.3 126.2L176.9 128.9L175.8 133.1L174.4 140L179 143.8L175.8 147.6L170.7 150.5L170.1 148.3L167.6 146.3L170.9 141.1L169.3 136.2L172 130.6L167.9 130.2L160.8 130.1L157 128.3L153.7 122.2L150.4 121.1L144.7 119L137.9 119.5L131.9 116.8L129.2 114.3L122.9 115.5L119.4 119.6L116.5 120L109.9 121.2L103.7 123.2L97.2999 124.5L100.5 121L108.9 115.2L115.7 113.4L116.1 112L106.7 115.2L99.2999 119.1L88.1 123.3L88.2999 126.2L79.2999 130.4L71.6 132.9L65 134.8L61 137.4L50.3999 140.5L45.8999 143.3L37.7 145.9L35 145.5L28.7999 147.1L21.7999 149.2L15.7 151.2L5.69995 153L6.09995 151.9L14.2999 149.1L20.8999 147.2L29.5 143.9L36 143.3L41 140.8L51.3999 137.2L53.7 136L59.3999 133.9L65.1999 129.4L71.3999 125.9L64.1 127.7L63.7999 126.6L58.8999 128.8L59.2999 125.8L55.7 127.9L57.2999 125L50 127.3H47.2L50.8999 123.8L54.2 121.6L53.7999 119.5L46.5999 120.7L46 117.9L44.7 116.5L48.7 113.2L48.2999 110.7L54.2 107.4L61.8999 104.1L67.1999 101.2L71.2999 100.8L73.1 101.7L80.1999 98.8999L82.6999 99.3999L88.2999 97.5999L90.7999 94.9999L89.6999 93.9999L95.6999 91.7999L92.8999 91.8999L86.6999 93.0999L83.7999 94.3999L82 93.0999L75.1 93.7999L70.5 92.3999L71.6999 90.0999L70.6999 86.8999L79.8999 84.4999L93.1 81.7999H96.6L92.2999 84.5999L101.5 84.3999L102.7 80.8999L100.4 78.7999L101.2 75.9999L100.5 73.6999L97.1999 71.9999L103.7 69.0999L111.2 68.8999L120 66.4999L124.8 63.8999L132.7 61.2999L137.5 60.6999L148.7 58.2999L151.8 58.6999L162.2 55.8999L166.6 56.9999L166.1 59.3999L169.4 58.3999L175.7 58.6999L173.8 59.8999L178.7 60.7999L183.6 60.2999L189.8 61.8999L197 62.4999L199.2 63.0999L205.8 62.2999L209.9 63.8999L213.4 64.5999Z" fill="#F0F0F0" stroke="black" stroke-width="0.5" stroke-linecap="round" stroke-linejoin="round"/>
<path d="M480.7 485L482.2 482.2L482.7 479.3L483.7 476.6L481.6 472.8L481.3 468.4L484.4 462.9L486.3 463.6L490.4 465.1L496.3 470.5L497.1 473.1L493.7 479L491.9 483.7L489.7 486.2L487 486.6L486.2 484.8L484.9 484.6L483.2 486.3L480.7 485V485Z" fill="#F0F0F0" stroke="black" stroke-width="0.5" stroke-linecap="round" stroke-linejoin="round"/>
<path d="M396.3 420L395.8 419.8L395.3 419.3L395.4 418.7L395.6 419L396 419.4L396.3 419.9V420Z" fill="#F0F0F0" stroke="black" stroke-width="0.5" stroke-linecap="round" stroke-linejoin="round"/>
<path d="M437.6 382.9H437.4L437.7 382.5H438L437.8 382.8L437.6 382.9V382.9Z" fill="#F0F0F0" stroke="black" stroke-width="0.5" stroke-linecap="round" stroke-linejoin="round"/>
<path d="M444.1 389.9L444.7 390.2L444.5 390.5H444.3L443.6 390.6L443.4 390.5V390L443.7 389.9L443.8 389.6H444L444.1 389.9Z" fill="#F0F0F0" stroke="black" stroke-width="0.5" stroke-linecap="round" stroke-linejoin="round"/>
<path d="M444.1 386.2H444.3L444.5 386.4L444.6 386.8L444.5 387.1L444.3 387.2L444.2 387L443.9 386.8V386.3L444.1 386.2Z" fill="#F0F0F0" stroke="black" stroke-width="0.5" stroke-linecap="round" stroke-linejoin="round"/>
<path d="M383.8 364L383.4 364.5L383.2 365L382.6 365.3H382.1L382 365.2L381.6 365.4L381.1 365.5L380.5 365.3L380.1 365.4L380 364.9L380.3 364.7L380.5 364.4L380.9 364.2L381.2 363.8H381.6L381.9 363.6L382.1 363.9L382.6 364.1L383.1 363.9L383.8 362.9H384.1V363.1L383.8 364Z" fill="#F0F0F0" stroke="black" stroke-width="0.5" stroke-linecap="round" stroke-linejoin="round"/>
<path d="M384 362.3L383.8 361.7L384.4 361.4L384.7 361.7V361.9L384.4 362L384 362.3Z" fill="#F0F0F0" stroke="black" stroke-width="0.5" stroke-linecap="round" stroke-linejoin="round"/>
<path d="M384.4 355.8L384.6 355.7L385.1 356H385.5L385.9 356.1L386.2 356.3V356.6L386 356.7L385.5 356.3H385.1L385 356.2L384.5 356.4L384 356.2V356.1L384.2 355.6L384.4 355.8Z" fill="#F0F0F0" stroke="black" stroke-width="0.5" stroke-linecap="round" stroke-linejoin="round"/>
<path d="M380.5 354L380.3 354.4V355.1L380.2 355.5L379.8 355.8L379.6 356.2L379.2 356.5L378.5 356.8L378.4 357L378.2 356.8L378.3 356.6L378.7 356.5L378.9 356.3V356.1L379.3 356L379.5 355.6L379.9 355.5L380.2 355.1L380 354.8H379.6L379.4 354.6L379.8 354.1L379.9 354H380.5Z" fill="#F0F0F0" stroke="black" stroke-width="0.5" stroke-linecap="round" stroke-linejoin="round"/>
<path d="M378.6 353.7L378.7 353.8H379.1L379.5 354L379.1 354.4L379 354.2H378.8L378.4 354.1L378 353.9L377.7 353.3L378 353.2L378.4 353.3L378.6 353.7Z" fill="#F0F0F0" stroke="black" stroke-width="0.5" stroke-linecap="round" stroke-linejoin="round"/>
<path d="M369.4 347.8L370 348.5L370.3 348.7L370.6 349.2L370.3 349.1L370.2 348.9L369.9 348.8L369.5 348.4L369.3 348.3L369.1 347.9L369.4 347.8Z" fill="#F0F0F0" stroke="black" stroke-width="0.5" stroke-linecap="round" stroke-linejoin="round"/>
<path d="M373.1 347.8L373.4 348.4L373.6 348.9V349.3L373.8 349.5L374 350.2V351.1L374.2 351.4L374.7 351.6L375.1 352.2V353L374.7 352.3V352.1L374.4 351.7L373.8 351.5L374 351.3L373.7 351V350.7L373.9 350.4L373.8 349.9L373.5 349.5L373.6 349.4L373.3 349L373.2 348.4L373 348.5L373.1 347.8Z" fill="#F0F0F0" stroke="black" stroke-width="0.5" stroke-linecap="round" stroke-linejoin="round"/>
<path d="M376 347.8L375.7 348L375.4 347.9L375.3 347.7L375.9 347.5L376 347.8Z" fill="#F0F0F0" stroke="black" stroke-width="0.5" stroke-linecap="round" stroke-linejoin="round"/>
<path d="M367.8 345.9L367.7 345.8L367.4 345.1H367.6L367.8 345.9Z" fill="#F0F0F0" stroke="black" stroke-width="0.5" stroke-linecap="round" stroke-linejoin="round"/>
<path d="M378.3 345.4L377.9 346H377.5L377.7 345.7L377.8 345.1L378.2 344.8L378.3 345.2V345.4Z" fill="#F0F0F0" stroke="black" stroke-width="0.5" stroke-linecap="round" stroke-linejoin="round"/>
<path d="M359.8 344.2L359.5 344.3L359.3 344.6L359 344.5L359.6 344.1L359.8 344.2Z" fill="#F0F0F0" stroke="black" stroke-width="0.5" stroke-linecap="round" stroke-linejoin="round"/>
<path d="M360 344.9L360.4 345.1L360.6 344.9L360.7 344.4L360.9 344.3L361.1 344.9V345.4L361 345.7L361.1 346.3V346.6L360.7 347.4L360.5 347.5L360.1 347.3L360.3 347L360.7 346.8L360.6 346.7L360 347.1L359.8 346.9L360.2 346.6H359.8L359.6 346.7L359.4 346.5V345.8L359.5 345.6L359.1 345.1V344.9L359.5 344.7L359.6 344.4L359.9 344.3L360 344.1L360.6 343.8L360.7 344.2L360.2 344.6L360 344.9Z" fill="#F0F0F0" stroke="black" stroke-width="0.5" stroke-linecap="round" stroke-linejoin="round"/>
<path d="M373.5 344.3L373.6 344.8L373.4 344.7L372.9 344.8L372.5 344.9L372.4 344.7L372.7 344.5L373.1 344.2V344L372.7 343.8L372.5 343.2L372.4 342.6L372 342.2V342L371.5 341.5L371.8 341.2L372.2 341.6V342.1L372.4 342.4L372.5 342.9L372.8 343.4L373.2 343.7L373.3 344L373.5 344.3Z" fill="#F0F0F0" stroke="black" stroke-width="0.5" stroke-linecap="round" stroke-linejoin="round"/>
<path d="M363.2 338.8L363.5 339L362.9 339.3L362.6 339.2L362.4 339.4L361.9 339.3L362.1 339L362.5 338.8H363.2Z" fill="#F0F0F0" stroke="black" stroke-width="0.5" stroke-linecap="round" stroke-linejoin="round"/>
<path d="M359 338.3L359.4 338.1L359.7 338.4L359.6 338.6L359.7 338.8L359.5 339.2L359.8 339.5L360 340.4L360.2 340.7L360.6 341.2L360.4 341.9L360.5 342.5L360.3 342.8L360 342.9L359.6 343.3L359.3 343.5H359L358.7 343.7H358.4V343.3L358.1 343.1L358.2 342.5L357.9 342.8L357.7 342.7L357.1 342.3L356.8 342L356.6 341.7L357.3 341.4L357.8 342.1L357.9 341.5L357.6 341.4L357.5 341.1L357.6 340.8L358.2 340.2L358.4 339.8L358.3 339.7L358.6 339.3V338.8L358.4 338.1L358.5 338H358.8L359 338.3Z" fill="#F0F0F0" stroke="black" stroke-width="0.5" stroke-linecap="round" stroke-linejoin="round"/>
<path d="M367.1 335.7L367.2 335.9L367.5 336.3L368.3 337L368.8 337.1L368.9 337.2L369.1 337.6L369.4 338L369.9 338.4V338.6L369.7 339.4L369.6 339.6V339.9L369.5 340.4L369.3 340.7L369.2 341.4L369.1 341.5L368.9 340.9L368.5 340.6L368.6 340.4L369.1 340.5L369.3 340.3L369.2 340.1L369.3 339.7L369.6 339.3L369.7 338.8V338.5L369.2 338.1L368.8 337.4L368.5 337.2L367.9 336.9L367.6 336.6L367 336.4L366.6 336.6L367 335.7H367.1Z" fill="#F0F0F0" stroke="black" stroke-width="0.5" stroke-linecap="round" stroke-linejoin="round"/>
<path d="M358.3 328.2L358.8 328.4H358.9L359.6 328.5L359.8 328.3L360 328.4H360.5L360.9 328.2H361.3L361.6 328L361.7 328.5L361.6 328.7H361.3H360.9L359.8 328.9H359.5L358 329.3L357.3 329.7H356.9L356.7 329.6L356.4 329.3L355.9 328.7L356.5 329L356.6 329.2H357.1L357.6 329L358 328.4L357.7 328.3L357.9 328L358 327.7L358.3 328.2Z" fill="#F0F0F0" stroke="black" stroke-width="0.5" stroke-linecap="round" stroke-linejoin="round"/>
<path d="M362.6 326.9L363.4 327.1L363.6 327L364 327.3L364.9 328.3L365.1 328.9L365.5 329L366.2 329.5V329.7L366 330.2L366.2 330.9H365.8L365.3 331.3L365.2 331.5L364.9 332.5L364.8 333.4L364.6 333.6L364.3 333.4L364.2 333L363.8 332.9L364.1 332.4H364.3L364.8 332L364.7 331.6L364.9 331.2V330.9L365.1 330.6V330L365.3 329.9L365.5 329.6L365.6 329.3L365.3 329.2L364.8 329.1L364.7 328.8V328.6L364.3 328.4V328.1L364 327.4L363.8 327.3L363.5 327.4L363 327.3H362.7L362.1 326.9H362.6Z" fill="#F0F0F0" stroke="black" stroke-width="0.5" stroke-linecap="round" stroke-linejoin="round"/>
<path d="M438.6 385L438.5 384.7L438.8 384.8L438.6 385V385Z" fill="#F0F0F0" stroke="black" stroke-width="0.5" stroke-linecap="round" stroke-linejoin="round"/>
<path d="M440.7 292H440.4L440.3 292.1L440.4 292.3L440 292.5L439.9 292.4L440.1 292.3H440.2L440.3 292L440.6 291.9L440.7 292V292Z" fill="#F0F0F0" stroke="black" stroke-width="0.5" stroke-linecap="round" stroke-linejoin="round"/>
<path d="M454.9 416L454.3 415.8L454.2 415.3V414.5L454.4 414.1L454.6 414.3L454.8 414.9L455.3 415.2L455.4 415.6L454.9 416V416Z" fill="#F0F0F0" stroke="black" stroke-width="0.5" stroke-linecap="round" stroke-linejoin="round"/>
<path d="M402.4 422.5H402.1L401.7 422.2L401.4 422.1L401.1 421.8L401 421.6L400.7 421.5L400.5 421.1L400.2 420.8L400.3 420.3L400.8 420.6L400.9 421.1L401.3 421.5L402 421.7L402.2 422L402.5 422.4L402.4 422.5V422.5Z" fill="#F0F0F0" stroke="black" stroke-width="0.5" stroke-linecap="round" stroke-linejoin="round"/>
<path d="M336.1 375.8L336.4 375.9L336.6 375.5L337 375.6H337.5L337.6 375.8L337.4 376L337.2 375.9L336.8 376L336.6 376.1H335.9L336.1 375.8Z" fill="#F0F0F0" stroke="black" stroke-width="0.5" stroke-linecap="round" stroke-linejoin="round"/>
<path d="M344.2 373.3L343.5 373.6L343.7 373.3H344.2Z" fill="#F0F0F0" stroke="black" stroke-width="0.5" stroke-linecap="round" stroke-linejoin="round"/>
<path d="M344.8 373.4L344.7 373.3L345.5 373L345.3 373.3L344.8 373.4Z" fill="#F0F0F0" stroke="black" stroke-width="0.5" stroke-linecap="round" stroke-linejoin="round"/>
<path d="M445.4 399.7L445.9 399.8L446.1 400.3V400.9L446 401.7L445.9 401.9L445.7 402L445.3 402.2L445.4 401.8L445.3 401.6L445.2 400.9L444.9 400.4V400.1L445 399.8V399.5H445.2L445.4 399.7V399.7Z" fill="#F0F0F0" stroke="black" stroke-width="0.5" stroke-linecap="round" stroke-linejoin="round"/>
<path d="M500.8 834.2L501.2 834.1V834.5L500.4 834.2L500.7 833.9L500.9 833.8L500.8 834.2Z" fill="#F0F0F0" stroke="black" stroke-width="0.5" stroke-linecap="round" stroke-linejoin="round"/>
<path d="M500.1 832.8L500.3 833L500.7 833.1L500.8 833.5L500.5 833.6L500.4 833.2L500.2 833L500.1 832.8Z" fill="#F0F0F0" stroke="black" stroke-width="0.5" stroke-linecap="round" stroke-linejoin="round"/>
<path d="M506.3 832L506.5 832.1L506.4 832.5L506.1 832.4L505.9 832.1L506.2 831.9L506.3 832Z" fill="#F0F0F0" stroke="black" stroke-width="0.5" stroke-linecap="round" stroke-linejoin="round"/>
<path d="M494.2 831.1V831.3L494.3 831.6L493.9 831.7L493.6 831.6L493.4 831.4L493.1 831.3L493 830.9H493.2L493.3 830.7L493.6 830.6L493.8 830.7L493.5 831L493.8 831.1L494.1 830.8L494.2 831.1Z" fill="#F0F0F0" stroke="black" stroke-width="0.5" stroke-linecap="round" stroke-linejoin="round"/>
<path d="M497.1 829.8L496.7 829.6L496.2 829.3L495.4 829L495.5 828.6L494.8 828.5L494.5 828.4L494.2 828L494.4 827.9L495.2 828.2L496 828.6L496.5 828.7L496.9 828.8L497.2 828.5L497.3 828.2L497.5 828.3L497.9 828.1L498 828.3H498.5V828.6H498.8L499.7 828.4L499.8 828.6H500.1L500.5 828.5L500.2 828.3L500.1 828H500.5L501.1 828.2L501.2 828.6L500.8 829.1L500.9 829.4L500.7 829.6H500.3L500 830.4L499.7 830.7L499.4 831.3L499.3 831.6L498.8 831.9L498.7 831.7H498.3V832L497.5 831.9L497.4 832L497.7 832.4L497.6 832.5L497.4 832.9H497L496.7 833.3L496.4 833.4H496.2L496 833.1L495.6 832.8V832.6H495.1L495.7 833H495.3L494.8 832.7L494.6 832.6L494.2 832.4L493.9 832.2V832L494.6 832.2L495.2 832L494.7 831.8L494.6 831.7H495.5L495.9 831.8L496.2 832V831.8L496.6 831.7L496.7 831.4L496.3 831.2L496.1 830.7L496.2 830.5H496.8L497 830.6L497.4 830.5L497.3 830.2H496.5V830.3L496.1 830.5H495.5L495 830.2V829.9L495.7 830.1L496.3 829.9H496.6L497.1 829.8L497.5 830V829.9L497.1 829.8Z" fill="#F0F0F0"/>
<path d="M497.1 829.8L496.7 829.6L496.2 829.3L495.4 829L495.5 828.6L494.8 828.5L494.5 828.4L494.2 828L494.4 827.9L495.2 828.2L496 828.6L496.5 828.7L496.9 828.8L497.2 828.5L497.3 828.2L497.5 828.3L497.9 828.1L498 828.3H498.5V828.6H498.8L499.7 828.4L499.8 828.6H500.1L500.5 828.5L500.2 828.3L500.1 828H500.5L501.1 828.2L501.2 828.6L500.8 829.1L500.9 829.4L500.7 829.6H500.3L500 830.4L499.7 830.7L499.4 831.3L499.3 831.6L498.8 831.9L498.7 831.7H498.3V832L497.5 831.9L497.4 832L497.7 832.4L497.6 832.5L497.4 832.9H497L496.7 833.3L496.4 833.4H496.2L496 833.1L495.6 832.8V832.6H495.1L495.7 833H495.3L494.8 832.7L494.6 832.6L494.2 832.4L493.9 832.2V832L494.6 832.2L495.2 832L494.7 831.8L494.6 831.7H495.5L495.9 831.8L496.2 832V831.8L496.6 831.7L496.7 831.4L496.3 831.2L496.1 830.7L496.2 830.5H496.8L497 830.6L497.4 830.5L497.3 830.2H496.5V830.3L496.1 830.5H495.5L495 830.2V829.9L495.7 830.1L496.3 829.9H496.6L497.1 829.8ZM497.1 829.8L497.5 830V829.9L497.1 829.8Z" stroke="black" stroke-width="0.5" stroke-linecap="round" stroke-linejoin="round"/>
<path d="M498.7 827.9H499L499.3 828.2L499 828.3H498.7V827.9Z" fill="#F0F0F0" stroke="black" stroke-width="0.5" stroke-linecap="round" stroke-linejoin="round"/>
<path d="M497.7 827.9H497.4L497.3 827.6L497.7 827.7V827.9Z" fill="#F0F0F0" stroke="black" stroke-width="0.5" stroke-linecap="round" stroke-linejoin="round"/>
<path d="M496.3 827.7L496.9 827.6L497.1 827.9L496.8 828.3L496.6 828.2L496.3 828.3L496 828.1L496.3 827.9L496.6 828.1L496.7 827.9L496.2 827.8L496.3 827.7Z" fill="#F0F0F0" stroke="black" stroke-width="0.5" stroke-linecap="round" stroke-linejoin="round"/>
<path d="M503.5 827.8H504.1L504.2 827.7L504.7 827.6L505.1 827.8L505.5 828.1L505.6 828.4V828.5L505.1 828.6L504.9 828.3L504.7 828.2L504.6 828.5L504.8 828.6L504.9 828.9L505.2 828.7L505.4 828.8L505.5 829.2L505.8 829.3L505.9 829.2L506.4 829.5L506.5 829.1L505.7 828.9L505.8 828.4L506.1 828.2L507.6 828.1L508.3 828.7L508.5 828.8V829.2L507.9 829.1L507.4 828.9L506.8 829.1L507.1 829.3L507.5 829.4L508.4 829.5L508.7 829.6L508.8 829.8L508.6 830.3H508.1L508 830.4L507.3 830.5L506.8 830.7L507.1 830.9L506.2 831.3L505.8 831.2L505.3 831.3H504.6L504 831.1L503.4 830.7V831L503.7 831.2L504.3 831.4L504.6 831.7L504.8 831.6L505.2 831.7L505.6 832L505.4 832.1L505.6 832.6H505.4L505.1 832.3L504.7 832.2L504.2 832.6L504 832.3L503.7 832.1H503.4L502.9 831.9L502.7 832L502.9 832.4H503.2L503.4 832.6L503.2 832.7L503.9 833.3L503.7 833.4L503.3 833.2H503L502.7 832.9L502.4 832.8L502.1 832.7L502 833.3L502.5 833.4V833.7L502.4 833.9L502 833.8L501.9 833.6L501.4 833.4L501.3 833.2H501.1L500.7 832.7L501 832.3V832.1L500.6 831.6V831.4L501.1 831.2L501 831L501.5 830.9L501.4 830.6L502 830.2L502.6 830L503 830.4V830.8L503.3 830.7L502.8 830.1L502.9 829.8L502.3 829.6L501.9 829.3L502 829.1L502.4 829.3L502.5 828.8L501.8 828.6L501.9 828.3L502.1 828.4L502.4 828.2H502.7L502.9 827.9L502.6 827.6H503L503.5 827.8Z" fill="#F0F0F0" stroke="black" stroke-width="0.5" stroke-linecap="round" stroke-linejoin="round"/>
<path d="M498.5 827.4H499.2L499.4 827.6L499.6 827.4L499.8 827.5L500 827.8L499.8 827.9L499.4 827.8L499 827.6L498.2 827.5L498.3 827.3L498.5 827.4Z" fill="#F0F0F0" stroke="black" stroke-width="0.5" stroke-linecap="round" stroke-linejoin="round"/>
<path d="M491.7 826.3L491.2 826.2L491.3 826L491.7 826.3Z" fill="#F0F0F0" stroke="black" stroke-width="0.5" stroke-linecap="round" stroke-linejoin="round"/>
<path d="M442.6 422.5L442.2 422.8L442 422.7L441.9 422.2L442.1 421.7L442.4 421.3H442.7L442.8 421.6L442.7 422.3L442.6 422.5V422.5Z" fill="#F0F0F0" stroke="black" stroke-width="0.5" stroke-linecap="round" stroke-linejoin="round"/>
<path d="M439.7 390H439.4L439.3 389.8L439.5 389.4H439.7L439.8 389.6L439.7 390Z" fill="#F0F0F0" stroke="black" stroke-width="0.5" stroke-linecap="round" stroke-linejoin="round"/>
<path d="M439 388.5L438.9 388.8H438.7L438.3 388.6L438.1 388.4L438.4 388L438.9 388.4L439 388.5Z" fill="#F0F0F0" stroke="black" stroke-width="0.5" stroke-linecap="round" stroke-linejoin="round"/>
<path d="M447.1 411.8L446.9 411.6L446.5 411.4L446.4 411.2V410.6L446.5 410.4L447.2 409.3L447.5 409.5V410.2L447.4 411L447.3 411.4L447.1 411.8V411.8Z" fill="#F0F0F0" stroke="black" stroke-width="0.5" stroke-linecap="round" stroke-linejoin="round"/>
<path d="M437.6 384L437.2 383.9L437.4 383.6L437.7 383.5L437.6 384V384Z" fill="#F0F0F0" stroke="black" stroke-width="0.5" stroke-linecap="round" stroke-linejoin="round"/>
<path d="M441.6 391.9L441.8 392.3V392.6L441.6 392.8L441.4 392.7L441.3 392.4L441.6 391.9V391.9Z" fill="#F0F0F0" stroke="black" stroke-width="0.5" stroke-linecap="round" stroke-linejoin="round"/>
<path d="M410.5 383.9L410.2 383.7L410.3 383.5H410.6L410.7 383.6L410.5 383.9Z" fill="#F0F0F0" stroke="black" stroke-width="0.5" stroke-linecap="round" stroke-linejoin="round"/>
<path d="M425.1 383.4H424.9L424 383.7H423.4L423.6 383.5L424 383.3L424.4 383.2L425 383.3L425.1 383.4Z" fill="#F0F0F0" stroke="black" stroke-width="0.5" stroke-linecap="round" stroke-linejoin="round"/>
<path d="M415.6 381L416.2 381.1H416.8L417.1 381.2L417.7 381.1L418 381.2L418.4 381.1L418.6 381.2L419.1 381.1L419.5 381.2H419.8L420.6 381.4V381.2L421.2 381.4L421.3 381.3L422.1 381.4L422.3 381.6H422.5L423.1 381.9L423.3 381.8L423.2 382.5L423.4 382.8L422.5 383.1L422.2 383.5L421.9 384.1L421.6 384.3L421.3 384.4H420.9L420.3 384.5L420 384.7L419.3 384.6L419.1 384.4L418.6 384.6L418.3 384.3L417.6 384.5L416.7 384.4L416.4 384.5L415.8 384.6L415.6 384.7L415.4 384.5L415 384.4L414.7 384.6L414.1 384.5L414.4 383.8V383.4L414.6 383L414.4 382.4L414.2 382.3L414.1 381.9L414.5 381.7L414.7 381.6V381.1L415.1 380.9L415.6 381Z" fill="#F0F0F0" stroke="black" stroke-width="0.5" stroke-linecap="round" stroke-linejoin="round"/>
<path d="M9.00011 639.2L8.9001 639.3L8.6001 639.1L8.80009 638.9L9.00011 639.2Z" fill="#F0F0F0" stroke="black" stroke-width="0.5" stroke-linecap="round" stroke-linejoin="round"/>
<path d="M2.80009 614.5L2.6001 614.4L2.80009 613.8L3.30009 613.4H3.6001V613.6L3.4001 614L2.80009 614.5Z" fill="#F0F0F0" stroke="black" stroke-width="0.5" stroke-linecap="round" stroke-linejoin="round"/>
<path d="M7.69995 567.5H7.39995V567.1L7.19995 566.8L7.59995 566.9L7.69995 567.3V567.5Z" fill="#F0F0F0" stroke="black" stroke-width="0.5" stroke-linecap="round" stroke-linejoin="round"/>
<path d="M4.60002 564H4.40002V563.6L4.60002 563.3L4.90002 563.5L4.70003 563.7L4.60002 564Z" fill="#F0F0F0" stroke="black" stroke-width="0.5" stroke-linecap="round" stroke-linejoin="round"/>
<path d="M5.80009 562.4V562.7L5.4001 562.8H4.80009V563.1L4.4001 563L4.2001 562.8L4.1001 562.5L4.80009 562.1H5.1001L5.30009 562.3L5.80009 562.4Z" fill="#F0F0F0" stroke="black" stroke-width="0.5" stroke-linecap="round" stroke-linejoin="round"/>
<path d="M1.29999 556.8L1.59999 556.9L1.7 557L1.09999 557.2L1 556.9L1.29999 556.8Z" fill="#F0F0F0" stroke="black" stroke-width="0.5" stroke-linecap="round" stroke-linejoin="round"/>
<path d="M437.6 384V384.1L437.2 384V383.9L437.6 384Z" fill="#F0F0F0" stroke="black" stroke-width="0.5" stroke-linecap="round" stroke-linejoin="round"/>
<path d="M391.1 359.6H391.8L392.1 360H391.8L391.5 359.9L391 360L390.9 359.7L391.1 359.6Z" fill="#F0F0F0" stroke="black" stroke-width="0.5" stroke-linecap="round" stroke-linejoin="round"/>
<path d="M388.4 359.5L388.7 359.9L389.3 359.8L389.1 360H388.5L388.1 359.8L388.4 359.5Z" fill="#F0F0F0" stroke="black" stroke-width="0.5" stroke-linecap="round" stroke-linejoin="round"/>
<path d="M390.6 358.9V359.4L390.1 359.2L390 358.9L390.1 358.8L390.6 358.9Z" fill="#F0F0F0" stroke="black" stroke-width="0.5" stroke-linecap="round" stroke-linejoin="round"/>
<path d="M446.2 430.2L446 430.7L445.7 431.1L445.5 431.2L445.4 431.6L445.6 432.2L445.4 432.3V433L445.6 433.3L445.8 433.5L445.6 433.7L445.5 434V434.7L445.3 434.8L444.9 435L444.4 435.1H444.1L443.6 435.2L443.1 435.1L442.7 435.2L442.4 435.1L441.9 435.3L441.5 435.1H440.9L440.6 435.3L440.3 435.2L440.8 435L441.1 434.7L441.5 434.6L441.9 434.3L442.1 434L442.7 434.1L443 433.7L442.8 432.9L443 432.5V432V431.8L442.7 431.4L442.4 431.3L442 431.2L441.9 431.1L442.3 430.8L443.4 430.7L443.6 430.5H444.7L444.8 430.4L446 430.2H446.2Z" fill="#F0F0F0" stroke="black" stroke-width="0.5" stroke-linecap="round" stroke-linejoin="round"/>
<path d="M448.6 427L448.5 427.5L448.2 427.6L447.8 427.9H447.6L446.9 428.3L446.7 428.1L447 427.8L447.7 427.3L448.6 427Z" fill="#F0F0F0" stroke="black" stroke-width="0.5" stroke-linecap="round" stroke-linejoin="round"/>
<path d="M445.6 415.4L445.5 415.5L445 415.2V414.8L445.2 414.5L445.4 414H445.8L445.9 414.4L445.8 415.2L445.6 415.4Z" fill="#F0F0F0" stroke="black" stroke-width="0.5" stroke-linecap="round" stroke-linejoin="round"/>
<path d="M429.5 381.4L429.1 381.6H429L428.7 381.8L428.6 381.7L428.7 381.4L429.3 381.3L429.5 381.4V381.4Z" fill="#F0F0F0" stroke="black" stroke-width="0.5" stroke-linecap="round" stroke-linejoin="round"/>
<path d="M427.9 385.8L428.2 386.1L427.1 386.3L427 385.8L427.7 385.6L427.9 385.8Z" fill="#F0F0F0" stroke="black" stroke-width="0.5" stroke-linecap="round" stroke-linejoin="round"/>
<path d="M428.6 382L428.4 382.2H427.9V382L428.2 381.9L428.6 382Z" fill="#F0F0F0" stroke="black" stroke-width="0.5" stroke-linecap="round" stroke-linejoin="round"/>
<path d="M427.2 381.8L427.6 382.1L427.4 382.3L427.1 382.1H426.6L426.8 381.9L427.2 381.8Z" fill="#F0F0F0" stroke="black" stroke-width="0.5" stroke-linecap="round" stroke-linejoin="round"/>
<path d="M405.4 422.6H405.2L405.1 422.1L405.2 421.8L405.1 421.5L404.7 421.4L404.4 421.1L404.5 420.8L405.7 421.4L405.6 421.6V422L405.4 422.2V422.6V422.6Z" fill="#F0F0F0" stroke="black" stroke-width="0.5" stroke-linecap="round" stroke-linejoin="round"/>
<path d="M437.7 387.6L437.5 387.7V387.5L437.6 387.4L437.7 387.6Z" fill="#F0F0F0" stroke="black" stroke-width="0.5" stroke-linecap="round" stroke-linejoin="round"/>
<path d="M436.2 386.7H436.1L436.2 386.5L436.3 386.6L436.2 386.7V386.7Z" fill="#F0F0F0" stroke="black" stroke-width="0.5" stroke-linecap="round" stroke-linejoin="round"/>
<path d="M447.4 404.9V405.1L447.8 405L447.6 405.5L447.8 405.7V405.9L448 406.1L448.2 407L447.9 407.3L447.8 406.9L447.7 407L447.1 406.9H446.7L446.5 406.6L447.1 406.1H446.7L446.3 405.7L446.2 405.2L446 404.7L446.3 404.3L446.7 404.4L447.2 404.7L447.4 404.9Z" fill="#F0F0F0" stroke="black" stroke-width="0.5" stroke-linecap="round" stroke-linejoin="round"/>
<path d="M446.4 397.9H446.1L445.9 397.5L446 397.3L446.3 397L446.6 397.2L446.7 397.5V397.7L446.4 397.9Z" fill="#F0F0F0" stroke="black" stroke-width="0.5" stroke-linecap="round" stroke-linejoin="round"/>
<path d="M444.6 395.3H444.9V395.5V395.6L444.7 395.7V396.5V396.9L444.5 397.1L443.9 397.4V397.2L443.7 397L443.6 396.5V396L443.5 395.5V395.2L443.7 394.9L444 394.8L444.5 395.1L444.6 395.3Z" fill="#F0F0F0" stroke="black" stroke-width="0.5" stroke-linecap="round" stroke-linejoin="round"/>
<path d="M446 394.9L446.4 395L446.9 395.4L445.6 395.7L445.3 395.8L444.9 395.5L445 394.9L445.2 394.8L445.1 394.2L445.2 394L445.5 393.8L445.8 394.2V394.6L446 394.9Z" fill="#F0F0F0" stroke="black" stroke-width="0.5" stroke-linecap="round" stroke-linejoin="round"/>
<path d="M86.9178 157.695L90.7435 158.863L86.9178 157.695ZM93.2466 135.078L97.0058 136.445L93.2466 135.078ZM60.6511 250.634C60.7201 250.48 60.789 250.325 60.8578 250.17L53.5474 246.921C53.4813 247.07 53.4151 247.218 53.3489 247.366L60.6511 250.634ZM61.2695 249.238C61.4063 248.926 61.5428 248.613 61.6789 248.299L54.3375 245.12C54.2064 245.423 54.075 245.724 53.9433 246.024L61.2695 249.238ZM62.0806 247.365C62.2138 247.053 62.3467 246.741 62.4792 246.427L55.1095 243.314C54.9815 243.617 54.8533 243.919 54.7247 244.22L62.0806 247.365ZM62.8748 245.485C63.0047 245.173 63.1343 244.861 63.2635 244.548L55.8678 241.497C55.7427 241.801 55.6174 242.103 55.4918 242.404L62.8748 245.485ZM63.6502 243.605C63.778 243.291 63.9055 242.977 64.0326 242.661L56.6131 239.67C56.4898 239.976 56.3662 240.28 56.2424 240.584L63.6502 243.605ZM64.4102 241.72C64.5358 241.405 64.661 241.089 64.786 240.773L57.3445 237.836C57.2231 238.144 57.1014 238.45 56.9795 238.756L64.4102 241.72ZM65.1566 239.829C65.2793 239.515 65.4018 239.199 65.524 238.883L58.0623 235.998C57.9434 236.306 57.8242 236.613 57.7049 236.918L65.1566 239.829ZM65.8896 237.933C66.0099 237.619 66.13 237.304 66.2497 236.988L58.7695 234.151C58.6527 234.459 58.5357 234.766 58.4185 235.073L65.8896 237.933ZM66.6077 236.039C66.7267 235.723 66.8455 235.405 66.964 235.087L59.4665 232.296C59.3508 232.607 59.2348 232.917 59.1187 233.226L66.6077 236.039ZM67.3148 234.14C67.4315 233.824 67.5479 233.507 67.6641 233.189L60.1508 230.441C60.0371 230.752 59.9233 231.062 59.8092 231.371L67.3148 234.14ZM68.0114 232.235C68.1259 231.919 68.2401 231.603 68.3542 231.286L60.8261 228.579C60.7144 228.889 60.6026 229.199 60.4905 229.508L68.0114 232.235ZM68.6956 230.332C68.8089 230.015 68.9219 229.697 69.0348 229.378L61.4931 226.709C61.3824 227.022 61.2716 227.333 61.1606 227.645L68.6956 230.332ZM69.3702 228.426C69.4818 228.108 69.5932 227.79 69.7044 227.471L62.15 224.838C62.0409 225.151 61.9316 225.464 61.8221 225.776L69.3702 228.426ZM70.0363 226.515C70.146 226.198 70.2555 225.88 70.3649 225.562L62.7989 222.963C62.6914 223.276 62.5838 223.588 62.476 223.899L70.0363 226.515ZM70.6924 224.605C70.801 224.287 70.9095 223.968 71.0177 223.648L63.4409 221.081C63.3344 221.395 63.2277 221.709 63.1209 222.022L70.6924 224.605ZM71.3402 222.694C71.4475 222.375 71.5546 222.056 71.6616 221.736L64.0747 219.198C63.9694 219.513 63.8639 219.828 63.7583 220.141L71.3402 222.694ZM71.981 220.778C72.0868 220.46 72.1924 220.141 72.2978 219.822L64.7017 217.312C64.5977 217.627 64.4936 217.941 64.3894 218.255L71.981 220.778ZM72.6137 218.863C72.7185 218.544 72.8232 218.224 72.9277 217.904L65.3229 215.421C65.2198 215.736 65.1165 216.052 65.0131 216.367L72.6137 218.863ZM73.2394 216.947C73.3432 216.627 73.4468 216.307 73.5502 215.987L65.9375 213.528C65.8353 213.845 65.733 214.16 65.6306 214.476L73.2394 216.947ZM73.8594 215.027C73.9619 214.708 74.0643 214.389 74.1665 214.069L66.5464 211.633C66.4454 211.949 66.3442 212.265 66.2429 212.58L73.8594 215.027ZM74.4727 213.109C74.5745 212.789 74.6761 212.469 74.7776 212.148L67.1507 209.734C67.0503 210.051 66.9498 210.368 66.8492 210.684L74.4727 213.109ZM75.0805 211.19C75.1813 210.87 75.282 210.549 75.3826 210.229L67.7495 207.834C67.6499 208.151 67.5502 208.468 67.4504 208.785L75.0805 211.19ZM75.6836 209.267C75.7834 208.948 75.8831 208.628 75.9827 208.308L68.3438 205.931C68.2452 206.249 68.1464 206.565 68.0475 206.882L75.6836 209.267ZM76.2811 207.347C76.3804 207.026 76.4796 206.706 76.5786 206.385L68.9345 204.025C68.8363 204.343 68.738 204.661 68.6396 204.979L76.2811 207.347ZM76.8744 205.425C76.9729 205.104 77.0713 204.784 77.1695 204.463L69.5206 202.119C69.4231 202.438 69.3255 202.755 69.2278 203.073L76.8744 205.425ZM77.464 203.501C77.5617 203.181 77.6593 202.861 77.7568 202.54L70.1036 200.211C70.0067 200.529 69.9098 200.847 69.8128 201.164L77.464 203.501ZM78.0491 201.579C78.1464 201.258 78.2436 200.937 78.3408 200.616L70.6836 198.299C70.5871 198.618 70.4905 198.937 70.3938 199.256L78.0491 201.579ZM78.6311 199.655C78.7278 199.335 78.8244 199.014 78.9209 198.693L71.2601 196.388C71.1642 196.707 71.0682 197.026 70.9721 197.344L78.6311 199.655ZM79.2101 197.731C79.3063 197.41 79.4023 197.09 79.4983 196.769L71.8345 194.475C71.739 194.794 71.6434 195.112 71.5478 195.431L79.2101 197.731ZM79.786 195.807C79.8818 195.487 79.9775 195.166 80.0732 194.845L72.4065 192.56C72.3113 192.879 72.216 193.198 72.1207 193.518L79.786 195.807ZM80.3596 193.883C80.455 193.563 80.5502 193.242 80.6455 192.921L72.9765 190.644C72.8816 190.963 72.7867 191.283 72.6917 191.602L80.3596 193.883ZM80.931 191.959C81.026 191.639 81.121 191.318 81.2159 190.997L73.5449 188.727C73.4503 189.046 73.3556 189.366 73.2609 189.685L80.931 191.959ZM81.5004 190.035C81.5952 189.715 81.6899 189.394 81.7845 189.073L74.1118 186.809C74.0174 187.128 73.923 187.448 73.8285 187.768L81.5004 190.035ZM82.0683 188.112C82.1628 187.791 82.2573 187.47 82.3517 187.15L74.6777 184.889C74.5835 185.209 74.4892 185.529 74.3949 185.849L82.0683 188.112ZM82.6349 186.188C82.7292 185.868 82.8235 185.547 82.9178 185.227L75.2428 182.969C75.1487 183.289 75.0545 183.609 74.9604 183.929L82.6349 186.188ZM83.2005 184.265C83.2947 183.944 83.3889 183.624 83.483 183.304L75.8074 181.048C75.7134 181.369 75.6193 181.689 75.5252 182.009L83.2005 184.265ZM83.7654 182.342C83.8595 182.022 83.9536 181.701 84.0477 181.381L76.3719 179.127C76.2778 179.447 76.1837 179.768 76.0896 180.088L83.7654 182.342ZM84.3299 180.42C84.424 180.1 84.518 179.78 84.612 179.46L76.9362 177.205C76.8422 177.525 76.7481 177.846 76.6541 178.166L84.3299 180.42ZM84.8944 178.498C84.9885 178.178 85.0825 177.858 85.1766 177.538L77.5012 175.282C77.4071 175.602 77.3129 175.923 77.2187 176.243L84.8944 178.498ZM85.4587 176.578C85.5529 176.258 85.6472 175.937 85.7414 175.617L78.0668 173.359C77.9724 173.68 77.878 174 77.7837 174.321L85.4587 176.578ZM86.024 174.657C86.1182 174.337 86.2124 174.018 86.3065 173.698L78.6331 171.436C78.5387 171.756 78.4443 172.077 78.3499 172.397L86.024 174.657ZM86.5898 172.738C86.6843 172.418 86.7787 172.098 86.8731 171.779L79.2012 169.511C79.1064 169.832 79.0117 170.153 78.917 170.474L86.5898 172.738ZM87.1565 170.821C87.2512 170.501 87.3459 170.181 87.4406 169.861L79.7705 167.588C79.6755 167.908 79.5804 168.229 79.4854 168.55L87.1565 170.821ZM87.7251 168.903C87.8199 168.583 87.9147 168.264 88.0096 167.945L80.3417 165.664C80.2465 165.984 80.1513 166.305 80.0561 166.625L87.7251 168.903ZM88.295 166.987C88.3903 166.667 88.4856 166.348 88.5809 166.029L80.9157 163.739C80.8199 164.06 80.7241 164.38 80.6284 164.702L88.295 166.987ZM88.8668 165.073C88.9625 164.754 89.0582 164.435 89.1538 164.116L81.4917 161.816C81.3955 162.136 81.2993 162.457 81.2031 162.778L88.8668 165.073ZM89.4416 163.159C89.5375 162.84 89.6334 162.522 89.7294 162.204L82.0708 159.892C81.9742 160.212 81.8776 160.532 81.7811 160.853L89.4416 163.159ZM90.0184 161.248C90.115 160.929 90.2116 160.61 90.3083 160.292L82.6536 157.967C82.5562 158.288 82.4589 158.609 82.3616 158.93L90.0184 161.248ZM90.5984 159.338C90.6468 159.18 90.6951 159.021 90.7435 158.863L83.0921 156.527C83.0433 156.687 82.9946 156.846 82.9459 157.006L90.5984 159.338ZM90.7435 158.863C90.7929 158.701 90.842 158.539 90.8907 158.376L83.2281 156.077C83.183 156.228 83.1376 156.378 83.0921 156.527L90.7435 158.863ZM91.1778 157.403C91.2715 157.081 91.364 156.758 91.4555 156.433L83.7564 154.26C83.67 154.566 83.5831 154.87 83.4954 155.172L91.1778 157.403ZM91.7253 155.465C91.8138 155.144 91.9014 154.822 91.9883 154.499L84.2635 152.419C84.1801 152.728 84.0964 153.036 84.0121 153.342L91.7253 155.465ZM92.2453 153.536C92.3299 153.216 92.414 152.895 92.4974 152.575L84.7557 150.558C84.6744 150.87 84.5929 151.181 84.511 151.491L92.2453 153.536ZM92.7456 151.616C92.8277 151.297 92.9093 150.979 92.9906 150.661L85.2395 148.681C85.1592 148.995 85.0789 149.308 84.9983 149.621L92.7456 151.616ZM93.2334 149.708C93.314 149.391 93.3946 149.074 93.4747 148.758L85.721 146.788C85.6406 147.105 85.5605 147.42 85.4802 147.736L93.2334 149.708ZM93.7153 147.812C93.7957 147.496 93.8759 147.182 93.9562 146.869L86.2067 144.883C86.1252 145.201 86.0439 145.519 85.9629 145.837L93.7153 147.812ZM94.1979 145.93C94.2789 145.617 94.36 145.306 94.4413 144.996L86.7032 142.966C86.6194 143.285 86.536 143.605 86.4531 143.926L94.1979 145.93ZM94.6873 144.066C94.7702 143.755 94.8533 143.447 94.9367 143.141L87.2183 141.037C87.1308 141.358 87.044 141.68 86.9579 142.003L94.6873 144.066ZM95.1902 142.222C95.276 141.915 95.3622 141.611 95.4489 141.309L87.7605 139.098C87.6678 139.421 87.5761 139.744 87.4853 140.069L95.1902 142.222ZM95.7136 140.403C95.8035 140.101 95.8939 139.802 95.985 139.506L88.3402 137.149C88.2405 137.472 88.1422 137.798 88.0451 138.124L95.7136 140.403ZM96.2649 138.617C96.3603 138.32 96.4565 138.027 96.5535 137.739L88.9711 135.188C88.8618 135.513 88.7544 135.84 88.6486 136.169L96.2649 138.617ZM96.8524 136.872C96.9033 136.729 96.9544 136.586 97.0058 136.445L89.4874 133.711C89.428 133.874 89.3691 134.039 89.3108 134.203L96.8524 136.872ZM97.0058 136.445C97.0681 136.273 97.1306 136.097 97.1931 135.918L89.6381 133.287C89.5859 133.437 89.5357 133.578 89.4874 133.711L97.0058 136.445ZM97.5389 134.894C97.6454 134.571 97.7534 134.237 97.8625 133.895L90.2414 131.462C90.1376 131.787 90.0373 132.098 89.9405 132.392L97.5389 134.894ZM98.1739 132.911C98.2743 132.591 98.3761 132.266 98.4785 131.938L90.8427 129.552C90.7402 129.879 90.64 130.2 90.5417 130.513L98.1739 132.911ZM98.7797 130.975C98.8794 130.657 98.9797 130.339 99.0806 130.02L91.4547 127.603C91.3504 127.931 91.2475 128.258 91.1463 128.581L98.7797 130.975ZM99.3827 129.075C99.4843 128.761 99.5861 128.449 99.6881 128.141L92.0943 125.625C91.9849 125.955 91.8766 126.286 91.7698 126.617L99.3827 129.075ZM99.9983 127.221C100.104 126.912 100.21 126.611 100.315 126.318L92.7854 123.615C92.6661 123.947 92.548 124.285 92.4314 124.624L99.9983 127.221ZM100.639 125.441C100.752 125.144 100.863 124.863 100.972 124.6L93.5764 121.549C93.4362 121.889 93.2983 122.238 93.1631 122.593L100.639 125.441ZM101.31 123.821C101.433 123.556 101.543 123.335 101.64 123.157L94.6228 119.317C94.4191 119.689 94.2267 120.078 94.0454 120.471L101.31 123.821ZM101.87 122.782C101.877 122.773 101.874 122.776 101.862 122.79C101.851 122.804 101.825 122.832 101.786 122.87L96.214 117.13C95.9215 117.414 95.6753 117.708 95.4714 117.98L101.87 122.782Z" fill="#898989"/>
<path d="M323.178 450.383L320.521 453.373L323.178 450.383ZM320.466 447.753L318.074 450.959L320.466 447.753ZM333.926 464.42C333.76 464.32 333.595 464.218 333.431 464.115L337.682 457.338C337.812 457.419 337.943 457.5 338.074 457.58L333.926 464.42ZM332.46 463.486C332.139 463.272 331.824 463.055 331.513 462.835L336.133 456.304C336.388 456.484 336.645 456.661 336.903 456.834L332.46 463.486ZM330.591 462.165C330.287 461.939 329.987 461.71 329.692 461.48L334.61 455.17C334.861 455.366 335.114 455.559 335.368 455.749L330.591 462.165ZM328.815 460.782C328.525 460.548 328.24 460.312 327.958 460.075L333.105 453.95C333.354 454.16 333.604 454.366 333.855 454.57L328.815 460.782ZM327.121 459.361C326.845 459.122 326.572 458.882 326.301 458.643L331.608 452.656C331.857 452.877 332.106 453.095 332.356 453.311L327.121 459.361ZM325.497 457.923C325.231 457.683 324.968 457.443 324.707 457.204L330.107 451.302C330.358 451.531 330.608 451.759 330.859 451.985L325.497 457.923ZM323.928 456.489C323.67 456.251 323.413 456.013 323.159 455.779L328.588 449.903C328.844 450.139 329.097 450.373 329.351 450.607L323.928 456.489ZM322.399 455.077C322.146 454.844 321.895 454.614 321.644 454.386L327.034 448.474C327.297 448.713 327.558 448.952 327.817 449.191L322.399 455.077ZM320.895 453.707C320.77 453.595 320.645 453.483 320.521 453.373L325.835 447.393C325.97 447.513 326.105 447.634 326.239 447.754L320.895 453.707ZM320.521 453.373C320.35 453.222 320.191 453.072 320.043 452.928L325.621 447.193C325.697 447.267 325.768 447.333 325.835 447.393L320.521 453.373ZM319.257 452.12C319.016 451.864 318.847 451.682 318.667 451.497L324.379 445.896C324.639 446.162 324.898 446.441 325.09 446.645L319.257 452.12ZM318.239 451.092C318.18 451.041 318.125 450.998 318.074 450.959L322.858 444.547C323.062 444.7 323.252 444.853 323.431 445.005L318.239 451.092ZM318.074 450.959C317.891 450.823 317.725 450.686 317.593 450.575L322.745 444.455C322.782 444.486 322.809 444.509 322.83 444.525C322.85 444.542 322.859 444.548 322.858 444.547L318.074 450.959ZM316.992 450.058C316.827 449.917 316.709 449.821 316.616 449.752L321.382 443.327C321.693 443.558 321.974 443.792 322.191 443.978L316.992 450.058ZM316.604 449.732C316.662 449.76 316.791 449.818 316.981 449.868L319.019 442.132C319.441 442.243 319.808 442.394 320.106 442.539L316.604 449.732Z" fill="#898989"/>
<path d="M346.397 458.169L347.428 462.034L346.397 458.169ZM348.808 457.468L349.682 461.371L348.808 457.468ZM335.716 464.935C335.887 464.904 336.058 464.873 336.227 464.841L334.737 456.981C334.587 457.009 334.436 457.037 334.284 457.065L335.716 464.935ZM337.244 464.64C337.587 464.57 337.924 464.498 338.256 464.426L336.543 456.611C336.246 456.676 335.945 456.74 335.641 456.802L337.244 464.64ZM339.262 464.198C339.6 464.119 339.932 464.04 340.26 463.959L338.353 456.19C338.054 456.263 337.752 456.336 337.447 456.407L339.262 464.198ZM341.25 463.711C341.581 463.626 341.907 463.541 342.23 463.455L340.177 455.723C339.874 455.803 339.569 455.883 339.263 455.962L341.25 463.711ZM343.199 463.194C343.522 463.106 343.841 463.019 344.157 462.931L342.029 455.22C341.718 455.305 341.409 455.39 341.099 455.475L343.199 463.194ZM345.105 462.669C345.419 462.582 345.731 462.496 346.041 462.41L343.919 454.697C343.6 454.785 343.283 454.872 342.968 454.96L345.105 462.669ZM346.968 462.157C347.121 462.116 347.275 462.075 347.428 462.034L345.367 454.304C345.204 454.347 345.042 454.391 344.881 454.434L346.968 462.157ZM347.428 462.034C347.708 461.959 347.961 461.884 348.186 461.814L345.815 454.173C345.656 454.223 345.512 454.265 345.367 454.304L347.428 462.034ZM349.284 461.472C349.415 461.435 349.545 461.402 349.682 461.371L347.934 453.564C347.637 453.631 347.366 453.701 347.115 453.772L349.284 461.472ZM349.682 461.371C349.924 461.317 350.181 461.249 350.361 461.203L348.344 453.461C348.127 453.517 348.015 453.546 347.934 453.564L349.682 461.371ZM351.168 461.01C351.262 460.993 351.308 460.988 351.315 460.988L350.685 453.012C350.332 453.04 350.003 453.09 349.721 453.142L351.168 461.01Z" fill="#898989"/>
<path d="M107.976 111.607C107.976 108.962 106.808 91.0585 112.325 90.734C117.214 90.4463 122.21 90.734 127.11 90.734C132.038 90.734 136.967 90.734 141.895 90.734C144.218 90.734 146.483 89.8643 148.418 89.8643C150.203 89.8643 152.344 91.5021 154.071 91.6037C158.929 91.8894 160.204 95.9522 165.377 95.9522C170.422 95.9522 175.557 95.6242 180.162 95.0825C184.786 94.5385 189.525 91.6037 194.077 91.6037C200.212 91.6037 206.458 90.734 212.341 90.734" stroke="#F29E42" stroke-width="8" stroke-linecap="round"/>
<path d="M212.341 90.7334C214.583 87.057 217.829 78.7844 221.908 76.6248C224.587 75.2062 230.363 73.6747 233.214 73.3392C239.725 72.5733 245.973 66.5251 251.478 63.7725" stroke="#3E4D74" stroke-width="8" stroke-linecap="round"/>
<path d="M212.475 90.6777C212.475 102.8 217.395 110.143 224.312 118.791C226.239 121.199 225.979 129.862 225.792 133.049C225.583 136.606 220.908 139.153 218.797 141.792C216.911 144.15 218.954 153.678 220.008 156.05C223.259 163.365 218.146 164.104 213.417 167.887C211.665 169.289 207.933 166.873 206.422 168.761C205.752 169.599 201.531 170.577 200.369 170.577C198.644 170.577 187.974 172.452 187.053 173.604C183.92 177.52 180.789 179.012 182.278 185.71C183.263 190.145 187.839 195.898 191.29 197.816C200.301 202.822 211.903 200.143 220.008 206.626C222.426 208.561 232.314 206.895 235.477 206.895C240.895 206.895 245.733 210.527 251.215 210.527C254.877 210.527 262.194 211.544 264.8 213.89C266.594 215.504 269.282 216.265 271.189 217.791C272.851 219.12 273.498 221.574 274.821 222.633C276.202 223.738 276.202 236.056 274.821 237.16C271.669 239.682 267.788 240.986 263.993 242.07C252.822 245.262 260.899 263.746 260.899 270.452C260.899 274.618 262.259 281.767 259.689 284.979C256.549 288.904 249.129 290.924 244.556 293.386C236.078 297.951 220.283 301.762 213.955 291.637C208.673 283.186 195.848 281.953 187.053 281.953C183.531 281.953 174.915 278.347 171.584 281.011C167.925 283.938 165.262 288.235 165.262 293.453C165.262 298.622 162.841 302.804 162.841 307.98C162.841 313.571 163.853 316.67 165.195 321.364C166.286 325.184 170.254 328.177 171.382 332.125C171.899 333.934 174.832 335.697 174.947 337.64C175.089 340.063 175.172 343.806 177.368 344.904" stroke="#F29E42" stroke-width="8" stroke-linecap="round"/>
<path d="M178.121 344.864C178.241 345.48 178.513 345.886 179.074 346.183C179.503 346.41 179.818 346.747 180.134 347.098C180.68 347.705 181.244 348.335 181.588 349.025" stroke="#F29E42" stroke-width="8" stroke-linecap="round"/>
<path d="M195.072 341.921C201.185 341.921 207.771 342.478 212.701 346.312C218.664 350.95 222.596 358.226 227.206 364.153C230.886 368.885 235.364 373.411 240.38 376.884C244.815 379.954 249.417 383.725 253.977 386.004" stroke="#F29E42" stroke-width="8" stroke-linecap="round"/>
<path d="M253.217 384.864C259.469 386.271 265.91 386.004 272.408 386.004C273.432 386.004 275.111 384.88 276.018 384.4C277.58 383.573 278.532 381.896 279.988 381.064C281.088 380.435 282.085 379.547 283.239 378.868C284.408 378.181 286.023 377.788 287.039 376.884C288.061 375.975 290.477 375.693 291.22 374.392C291.639 373.659 294.122 371.943 295.02 371.943C296.837 371.943 296.16 374.079 296.16 375.554C296.16 377.057 296.145 378.362 295.759 379.713C295.449 380.799 295.02 382.163 295.02 383.344C295.02 384.814 294.276 385.664 293.901 386.976C293.094 389.8 292.041 392.104 290.164 394.45C288.755 396.21 288.387 399.931 289.404 401.966C290.376 403.91 293.487 406.146 295.59 406.146C298.672 406.146 300.932 406.551 303.55 408.046C306.055 409.478 308.43 411.198 310.306 413.282C311.994 415.158 312.363 418.103 312.501 420.587C312.661 423.457 314.063 425.768 314.803 428.357C315.493 430.773 317.442 432.541 317.442 435.218C317.442 438.123 318.202 441.142 318.202 444.149" stroke="#F29E42" stroke-width="8" stroke-linecap="round"/>
<path d="M190.411 344.169L192.124 347.783L190.411 344.169ZM191.767 343.468L193.246 347.184L191.767 343.468ZM185.231 350.806C185.395 350.753 185.558 350.698 185.718 350.643L183.114 343.079C183 343.118 182.885 343.157 182.769 343.194L185.231 350.806ZM186.675 350.294C186.995 350.172 187.305 350.046 187.606 349.919L184.5 342.547C184.27 342.644 184.039 342.737 183.805 342.827L186.675 350.294ZM188.505 349.526C188.802 349.392 189.091 349.257 189.371 349.124L185.933 341.9C185.689 342.016 185.448 342.128 185.208 342.237L188.505 349.526ZM190.2 348.723C190.469 348.591 190.739 348.457 190.994 348.332L187.461 341.154C187.193 341.286 186.94 341.411 186.682 341.538L190.2 348.723ZM191.755 347.96C191.88 347.9 192.002 347.841 192.124 347.783L188.698 340.554C188.555 340.622 188.415 340.689 188.276 340.756L191.755 347.96ZM192.124 347.783C192.342 347.68 192.53 347.58 192.682 347.496L188.818 340.491C188.755 340.526 188.72 340.544 188.698 340.554L192.124 347.783ZM193.214 347.199C193.227 347.193 193.235 347.189 193.239 347.187C193.244 347.185 193.246 347.184 193.246 347.184L190.288 339.751C190.039 339.85 189.818 339.952 189.624 340.05L193.214 347.199ZM193.246 347.184C193.458 347.1 193.667 347.002 193.75 346.963L190.389 339.704C190.361 339.717 190.339 339.727 190.319 339.736C190.299 339.745 190.285 339.751 190.275 339.756C190.264 339.761 190.261 339.762 190.262 339.762C190.263 339.761 190.272 339.757 190.288 339.751L193.246 347.184ZM193.934 346.877C193.895 346.89 193.76 346.932 193.556 346.961L192.444 339.039C192.032 339.097 191.681 339.196 191.424 339.281L193.934 346.877Z" fill="#898989"/>
<path d="M351.115 456.343C353.854 456.343 356.602 456.492 359.111 456.787C360.398 456.939 364.006 458.705 364.418 460.144C365.649 464.453 366.127 468.327 364.911 472.582C363.921 476.047 361.227 479.14 360.419 482.775C359.955 484.863 357.785 487.18 356.002 488.229C354.28 489.242 354.142 491.592 352.67 492.77C352.088 493.236 351.822 494.482 351.214 495.09C350.547 495.757 349.882 496.371 349.437 497.212C348.505 498.973 347.539 500.31 347.093 502.321C346.753 503.847 345.965 507.783 344.995 508.861C343.59 510.422 343.766 514.375 342.453 515.426C341.714 516.017 341.786 521.805 341.786 522.978C341.786 525.308 341.114 527.665 340.478 529.888C339.851 532.086 340.454 535.313 340.454 537.637C340.454 540.39 342.441 541.232 344.008 543.19C345.686 545.289 348.345 544.865 350.844 545.633C352.489 546.14 353.6 546.913 355.558 546.966C356.663 546.996 358.955 547.045 360 547.509C362.777 548.743 367.951 549.271 368.44 553.185C368.656 554.91 370.618 556.92 371.13 558.714C371.662 560.574 372.344 562.225 374.215 563.057C375.898 563.805 378.021 564.268 379.743 564.76C380.765 565.052 381.367 566.805 382.211 567.302C383.429 568.018 384.924 568.996 385.765 570.165C387.208 572.169 389.405 573.461 390.652 575.644C391.349 576.864 391.935 578.092 393.218 578.605C393.713 578.803 393.896 579.414 394.304 579.74C394.766 580.11 395.44 579.801 395.983 580.283C397.996 582.073 400.311 583.787 402.893 584.726C405.911 585.823 408.326 587.608 411.086 589.069C411.934 589.518 412.495 590.47 413.085 591.192C414.495 592.914 415.939 594.465 417.528 596.053C420.91 599.436 423.076 603.526 426.98 606.493C431.201 609.701 433.613 615.376 437.715 618.709C440.788 621.205 444.879 624.086 447.069 627.372" stroke="#F29E42" stroke-width="8" stroke-linecap="round"/>
<path d="M446.18 626.483C448.667 626.483 454.041 628.015 455.411 630.481C457.008 633.356 458.175 637.174 458.175 640.476C458.175 645.439 457.774 649.726 453.634 653.038C450.29 655.713 446.457 658.443 442.405 660.244C440.402 661.134 438.796 662.848 436.63 663.329C434.899 663.714 430.531 664.889 429.744 666.464" stroke="#F29E42" stroke-width="8" stroke-linecap="round"/>
<path d="M430.7 666.306C428.033 666.906 422.413 668.53 422.018 671.888C421.71 674.504 419.295 678.526 417.987 680.88C416.248 684.01 413.014 685.623 410.855 688.322C408.889 690.78 411.256 695.418 409.132 698.072C405.725 702.331 404.551 714.597 409.304 718.4C415.093 723.031 414.652 731.999 415.851 738.589C416.477 742.036 418.297 745.761 418.297 749.098C418.297 752.237 418.917 755.877 418.917 759.33C418.917 763.758 418.462 768.199 418.297 772.491C418.151 776.28 417.056 780.019 417.056 783.827C417.056 787.379 416.436 790.728 416.436 794.369C416.436 796.731 418.433 800.224 419.399 802.397C421.348 806.782 422.46 811.245 426.049 814.835C428.9 817.686 431.388 822 435.041 823.827" stroke="#F29E42" stroke-width="8" stroke-linecap="round"/>
<path d="M434.421 822.587C438.46 822.587 439.854 822.783 442.621 825.55C444.568 827.496 446.663 829.091 448.064 831.545C449.595 834.223 451.516 838.392 453.784 840.434C456.88 843.22 461.837 846.561 465.739 847.428C468.026 847.936 469.994 849.407 466.359 848.599C463.929 848.059 462.027 844.37 460.95 842.432C458.568 838.144 454.961 833.236 453.611 828.513C452.421 824.347 453.026 819.067 453.026 814.525C453.026 812.251 453.026 809.977 453.026 807.703C453.026 804.854 451.303 803.636 449.925 801.226C448.53 798.785 443.617 792.628 446.204 789.718C447.728 788.004 448.685 787.105 448.685 784.757C448.685 782.173 448.685 779.589 448.685 777.005C448.685 771.188 447.444 765.249 447.444 759.33C447.444 757.056 447.444 754.782 447.444 752.509C447.444 750.117 449.319 748.274 449.959 746.031C451.052 742.206 456.733 740.752 459.365 738.383C462.885 735.215 466.32 731.88 467.255 726.737C468.281 721.093 469.955 718.252 474.249 714.817C477.639 712.104 483.222 712.198 487.445 712.198C492.265 712.198 490.856 721.036 490.856 723.981" stroke="#F29E42" stroke-width="8" stroke-linecap="round"/>
<path d="M488.995 712.198C496.106 710.637 497.738 704.696 502.329 700.105C503.874 698.56 506.292 696.778 507.6 695.144C509.088 693.283 511.721 692.628 513.181 690.802C515.014 688.512 517.345 688.276 517.522 684.911C517.681 681.898 518.763 679.365 518.763 676.229C518.763 670.769 519.137 661.246 523.242 657.142C526.585 653.798 533.243 651.822 537.678 650.837C540.041 650.311 541.819 650.139 543.914 648.942C545.836 647.843 547.105 645.369 548.841 643.98C550.199 642.894 551.569 641.416 552.734 640.122C555.108 637.483 555.006 635.374 556.11 632.06C557.981 626.447 560.922 621.982 564.035 617.313" stroke="#3E4D74" stroke-width="8" stroke-linecap="round"/>
</svg>
