<svg width="542" height="610" viewBox="0 0 542 610" fill="none" xmlns="http://www.w3.org/2000/svg">
<path d="M539.5 138.8L541 140.6L538.1 141.4L535.7 142.5L529.8 143.3L524.5 144.6L522.1 147.4L524 150.1L525.4 153.3L523.4 156L524.2 158.5L523.3 160.8L518.1 160.6L521.2 164.8L518.1 166.5L516.7 170.3L517.8 174.2L516 176L513.9 175.4L509.9 176.3L509.7 178H505.6L503.3 181.7L504.1 187.1L497.5 189.8L493.6 189.2L492.7 190.6L489.3 189.8L484 190.8L474.4 187.5L478.3 181.7L477.2 177.6L472.9 176.5L471.7 172.4L469 167.3L470.6 163.8L468.1 162.8L468.6 158.1L469.2 150.1L475.1 152.6L479 151.7L479.4 148.8L483.4 147.9L486 145.9L485.8 140.8L490 139.5L490.3 137.3L493.2 139L494.8 139.2H497.8L502.1 140.6L503.9 141.3L507.3 139.3L509.4 140.5L510.3 137.6L513.5 137.7L514.1 136.8L513.9 134.2L515.6 132L518.9 133.4L518.8 135.4L520.5 135.7L521.4 141.1L524.1 143.2L525.6 141.8L527.8 141.2L530.3 138.3L534.1 138.8H539.5V138.8Z" fill="#F0F0F0" stroke="black" stroke-width="0.5" stroke-linecap="round" stroke-linejoin="round"/>
<path d="M277.7 449.2L278.3 451.2L277.6 454.3L278.5 457.3L277.6 459.7L278 461.9L266.3 461.8L265.5 482.3L269.1 487.5L272.7 491.5L262.3 494.1L248.8 493.2L245 490.2L222.3 490.4L221.5 490.9L218.2 488L214.6 487.8L211.2 488.9L208.5 490.1L208 486.1L208.9 480.4L210.9 474.5L211.2 471.8L213.1 466L214.5 463.4L217.8 459.2L219.7 456.3L220.3 451.6L220 447.9L218.4 445.6L216.9 441.7L215.6 437.9L215.9 436.5L217.6 434L216 427.8L214.8 423.5L212 419.4L212.6 418.2L214.9 417.3L216.6 417.4L218.6 416.7L235.3 416.8L236.6 421.5L238.2 425.4L239.5 427.5L241.6 430.8L245.4 430.3L247.2 429.4L250.3 430.3L251.2 428.7L252.7 425L256.2 424.7L256.5 423.6H259.4L258.9 425.9L265.7 425.8L265.8 429.9L266.9 432.3L266 436.2L266.4 440.2L268.2 442.6L267.8 450.2L269.2 449.6L271.6 449.8L275.1 448.8L277.7 449.2Z" fill="#F0F0F0" stroke="black" stroke-width="0.5" stroke-linecap="round" stroke-linejoin="round"/>
<path d="M211.8 416.2L210.3 411.4L212.6 408.6L214.3 407.5L216.4 409.7L214.4 411.1L213.4 412.7L213.2 415.5L211.8 416.2Z" fill="#F0F0F0" stroke="black" stroke-width="0.5" stroke-linecap="round" stroke-linejoin="round"/>
<path d="M244.5 105.2L244.9 106.4L246.3 105.8L247.5 107.5L248.8 108.2L249.4 110.5L248.9 112.7L249.9 115.4L252.2 116.9L252.3 118.6L250.6 119.5L250.5 121.6L248.3 124.7L247.4 124.3L247.2 122.9L244.1 120.7L243.4 117.7L243.5 113.3L244 111.4L243.1 110.4L242.6 108.3L244.5 105.2V105.2Z" fill="#F0F0F0" stroke="black" stroke-width="0.5" stroke-linecap="round" stroke-linejoin="round"/>
<path d="M452.7 213.9L454 219H451.2V223.2L452.3 224.1L449.9 225.4L450.1 228L448.8 230.6V233.2L447.8 234.6L430.9 231.4L428.2 224.8L427.9 223.4L428.8 223L429.2 224.8L433.4 223.8L438 224L441.4 224.2L444.7 219.8L448.4 215.7L451.4 211.7L452.7 213.9V213.9Z" fill="#F0F0F0" stroke="black" stroke-width="0.5" stroke-linecap="round" stroke-linejoin="round"/>
<path d="M387.3 130.2L385.5 130.4L382.7 126.7L382.5 125.7H380.2L378.3 124L377.3 124.1L374.9 122.3L370.7 120.7L370.6 117.6L369.3 115.4L376.3 114.4L377.7 116L379.9 117.1L379.2 118.7L382.4 120.9L381.3 123L383.9 124.7L386.4 125.7L387.3 130.2V130.2Z" fill="#F0F0F0" stroke="black" stroke-width="0.5" stroke-linecap="round" stroke-linejoin="round"/>
<path d="M227.1 68.0002L226.8 68.8002L227.5 70.9002L227.3 73.5002H224.5L225.6 74.9002L224.3 78.9002L223.4 80.0002L219 80.1002L216.6 81.6002L212.4 81.1002L205.1 79.4002L203.8 77.3002L198.9 78.4002L198.4 79.6002L195.3 78.7002L192.7 78.5002L190.4 77.3002L191.1 75.8002L190.9 74.7002L192.3 74.4002L195 76.1002L195.6 74.4002L200 74.7002L203.5 73.6002L205.9 73.8002L207.6 75.1002L208 74.0002L207 69.9002L208.7 69.1002L210.3 66.2002L214.1 68.3002L216.7 65.7002L218.4 65.2002L222.4 67.1002L224.7 66.8002L227.1 68.0002V68.0002Z" fill="#F0F0F0" stroke="black" stroke-width="0.5" stroke-linecap="round" stroke-linejoin="round"/>
<path d="M385.5 130.4L381.7 129.5L378.5 126.6L377.3 124.1L378.3 124L380.2 125.7H382.5L382.7 126.7L385.5 130.4Z" fill="#F0F0F0" stroke="black" stroke-width="0.5" stroke-linecap="round" stroke-linejoin="round"/>
<path d="M391.8 113.4L394.3 110.8L397.8 114.1L401.4 118.7L403.9 119L405.8 120.7L401.6 121.2L401.7 126.2L401.3 128.4L399.6 129.9L400.4 133L399.1 133.4L395.2 130L396.4 126.9L394.5 125L392.6 125.5L387.3 130.2L386.4 125.7L383.9 124.7L381.3 123L382.4 120.9L379.2 118.7L379.9 117.1L377.7 116L376.3 114.4L377.4 113.3L381.6 115.2L384.5 115.5L385.1 114.8L381.8 111.3L383 110.5L384.5 110.7L388.8 114.5L391.2 115L391.8 113.4Z" fill="#F0F0F0" stroke="black" stroke-width="0.5" stroke-linecap="round" stroke-linejoin="round"/>
<path d="M311.4 407.6L310.8 407.7V407.4L308.8 401.3L308.79 401.24L308.7 400.2L307.3 397.3L310.8 397.8L312.5 394.1L315.6 394.5L315.9 397L317.1 398.5V400.6L315.7 401.9L313.4 405.3L311.4 407.6Z" fill="#F0F0F0" stroke="black" stroke-width="0.5" stroke-linecap="round" stroke-linejoin="round"/>
<path d="M173 54.3001L172.6 58.5001L171.3 58.7001L170.9 62.2001L166.5 59.3001L164 59.8001L160.5 56.9001L158.1 54.4001L155.9 54.3001L155.1 52.1001L159 50.9001L162.6 51.4001L167.1 50.1001L170.2 52.8001L173 54.3001V54.3001Z" fill="#F0F0F0" stroke="black" stroke-width="0.5" stroke-linecap="round" stroke-linejoin="round"/>
<path d="M163.2 304.2L163 306.3L164.3 310.1L163.2 312.7L163.8 314.4L161 318.4L159.3 320.4L158.2 324.4L158.4 328.5L158.1 338.8L153.4 339.6L152 335.2L152.3 320.4L151.1 319.1L150.9 315.9L148.9 313.7L147.2 311.8L147.9 308.4L149.9 307.7L151 304.9L153.8 304.3L155 302.4L156.9 300.5H158.9L163.2 304.2V304.2Z" fill="#F0F0F0" stroke="black" stroke-width="0.5" stroke-linecap="round" stroke-linejoin="round"/>
<path d="M145 283.2L144.5 286.3L145.3 289.2L148.4 293.4L148.6 296.5L155.1 298L155 302.4L153.8 304.3L151 304.9L149.9 307.7L147.9 308.4L143 308.3L140.4 307.8L138.6 308.8L136.1 308.3L126.3 308.6L126.1 312.3L126.9 317.1L123 315.5L120.4 315.7L118.4 317.3L115.9 316L114.9 313.8L112.4 312.4L112 308.7L113.6 306L113.4 303.8L117.9 298.5L118.8 294.1L120.3 292.5L123 293.4L125.4 292.1L126.2 290.4L130.5 287.6L131.6 285.6L136.9 282.9L140 282L141.4 283.2H145V283.2Z" fill="#F0F0F0" stroke="black" stroke-width="0.5" stroke-linecap="round" stroke-linejoin="round"/>
<path d="M289.1 98.8004L286.8 101.4L285.5 105.9L287.6 109.5L283 108.7L278 110.7L278.3 113.9L273.7 114.5L269.8 112.2L265.8 114L262 113.8L261.2 109.6L258.4 107.5L259.1 106.7L258.5 105.9L259.1 103.9L260.9 101.9L258.1 99.2004L257.4 96.8004L258.5 95.4004L260.3 98.0004L262.2 97.6004L266.2 98.5004L273.8 98.9004L276.1 97.3004L282 95.8004L286 98.1004L289.1 98.8004V98.8004Z" fill="#F0F0F0" stroke="black" stroke-width="0.5" stroke-linecap="round" stroke-linejoin="round"/>
<path d="M239.5 91.5001L241.4 91.4001L240.3 94.2001L243 96.7001L242.5 99.6001L241.4 99.9001L240.5 100.5L238.9 102L238.5 105.5L233.7 103.1L231.6 100.4L229.5 99.0001L227 96.6001L225.7 94.7001L223 91.7001L223.8 89.1001L225.8 90.6001L226.8 89.2001L229.1 89.1001L233.6 90.2001L237.1 90.1001L239.5 91.5001V91.5001Z" fill="#F0F0F0" stroke="black" stroke-width="0.5" stroke-linecap="round" stroke-linejoin="round"/>
<path d="M298.1 39.9L294.2 39.7L293.4 40.3L294.9 42.3L296.9 46.3L292.8 46.6L291.5 48L291.8 51.1L289.7 50.5L285.4 50.8L283.9 49.3L282.2 50.4L280.3 49.5L276.4 49.4L270.7 47.9L265.8 47.4L262 47.6L259.6 49.2L257.3 49.5L256.8 46.7L254.9 43.9L257.7 42.6L257.3 40.2L255.6 37.9L255 35.2H259.7L264.5 32.9L265 29.5L268.6 27.5L267.6 24.8L270.3 23.8L274.9 21.5L280.2 23L281.1 24.5L283.5 23.8L288.3 25.2L289.4 28.1L288.7 29.7L292.5 33.7L294.6 34.8V35.9L298 37L299.7 38.6L298.1 39.9V39.9Z" fill="#F0F0F0" stroke="black" stroke-width="0.5" stroke-linecap="round" stroke-linejoin="round"/>
<path d="M284.1 492.9L286 498L287.1 499.2L288.7 502.9L294.8 509.9L297.1 510.6L297 512.9L298.5 517L302.8 518L306.2 520.9L298.1 525.6L292.9 530.4L290.9 534.7L289.1 537.1L286.1 537.6L284.9 540.7L284.3 542.7L280.7 544.1L276.2 543.8L273.7 542L271.4 541.3L268.6 542.7L267.1 545.8L264.4 547.7L261.6 550.6L257.6 551.3L256.5 549L257.1 545.1L254.1 539L252.7 538L253.3 519.3L258.8 519.1L259.6 496.2L263.8 496L272.5 493.7L274.5 496.4L278.2 493.9H279.9L283.1 492.4L284.1 492.9V492.9Z" fill="#F0F0F0" stroke="black" stroke-width="0.5" stroke-linecap="round" stroke-linejoin="round"/>
<path d="M277.8 323.7L281.7 326.2L284.8 328.8L284.9 330.9L288.8 334.2L291.2 337L292.6 340.8L296.9 343.4L297.8 345.4L296 346.1L292.3 346L288.1 345.3L286 345.8L285.1 347.4L283.3 347.6L281.1 346.2L274.8 349.4L272.2 348.8L271.4 349.3L269.8 353.2L265.5 351.9L261.4 351.3L257.8 348.9L253.1 346.7L250.1 348.8L247.9 352L247.4 356.5L243.8 356.2L239.9 355.1L236.6 358.5L233.6 364.5L233 362.6L232.7 359.7L230.1 357.6L228 354.3L227.5 352L224.8 348.6L225.3 346.7L224.7 344L225.1 339L226.5 337.9L229.3 331.4L233.9 330.9L234.9 329.2L235.9 329.4L237.3 330.8L244.4 328.4L246.8 325.9L249.7 323.6L249.1 321.4L250.7 320.8L256.2 321.2L261.4 318.2L265.4 311.2L268.2 308.6L271.8 307.5L272.5 310.2L275.8 314.2V316.9L275 319.5L275.4 321.5L277.3 323.4L277.8 323.7V323.7Z" fill="#F0F0F0" stroke="black" stroke-width="0.5" stroke-linecap="round" stroke-linejoin="round"/>
<path d="M190.9 74.7003L191.1 75.8003L190.4 77.3003L192.7 78.5003L195.3 78.7003L195 81.2003L192.9 82.3003L189.1 81.5003L188.1 84.0003L185.7 84.2003L184.8 83.2003L182.1 85.4003L179.6 85.7003L177.4 84.3003L175.6 81.6003L173.2 82.6003V79.7003L176.8 76.2003L176.6 74.6003L178.9 75.2003L180.2 74.1003H184.4L185.4 72.8003L190.9 74.7003V74.7003Z" fill="#F0F0F0" stroke="black" stroke-width="0.5" stroke-linecap="round" stroke-linejoin="round"/>
<path d="M112.4 312.4L114.9 313.8L115.9 316L118.4 317.3L120.4 315.7L123 315.5L126.9 317.1L128.4 326.3L126 331.6L124.5 338.9L126.9 344.4L126.7 347H124.1L120.2 345.8H116.5L109.8 347L105.9 348.8L100.3 351.2L99.2 351L99.6 345.7L100.2 344.9L100 342.4L97.6 339.7L95.8 339.3L94.2 337.5L95.4 334.6L94.9 331.5L95.1 329.7H96L96.4 326.9L96 325.6L96.5 324.7L98.6 324L97.2 318.8L95.9 316.2L96.4 314L97.5 313.5L98.3 312.9L99.8 313.9H104.2L105.2 312.1L106.2 312.2L107.8 311.5L108.7 314.2L110 313.4L112.4 312.4V312.4Z" fill="#F0F0F0" stroke="black" stroke-width="0.5" stroke-linecap="round" stroke-linejoin="round"/>
<path d="M229.3 331.4L226.5 337.9L225.1 339L224.7 344L225.3 346.7L224.8 348.6L227.5 352L228 354.3L230.1 357.6L232.7 359.7L233 362.6L233.6 364.5L233.2 367.9L228.7 366.4L224.1 364.7L217 364.5L216.3 364.1L212.9 364.9L209.5 364.1L206.8 364.5L197.5 364.4L198.4 359.3L196.1 355L193.5 354L192.4 351.1L190.9 350.2L191 348.4L192.4 343.8L195.1 337.6H196.7L200.1 333.8L202.2 333.7L205.4 336.4L209.3 334.2L209.8 331.5L211.1 328.9L211.9 325.7L214.9 323.1L216 318.6L217.2 317.1L218 313.8L219.4 309.7L224.1 304.7L224.4 302.6L225 301.4L222.7 298.9L222.9 296.8L224.4 296.5L226.7 300.6L227.2 304.8L227 309.1L230.2 314.9H227L225.4 315.3L222.8 314.7L221.6 317.7L225 321.5L227.5 322.6L228.3 325.2L230.1 329.6L229.3 331.4V331.4Z" fill="#F0F0F0" stroke="black" stroke-width="0.5" stroke-linecap="round" stroke-linejoin="round"/>
<path d="M297.8 345.4L301.3 350.7L303.9 351.5L305.4 350.4L308 350.8L311.1 349.5L312.5 352.2L317.6 356.5L317.3 364L319.6 364.9L317.7 367.1L315.6 368.9L313.4 372.2L312.2 375.2L311.9 380.3L310.6 382.8L310.5 387.6L308.9 389.4L308.7 393.2L307.9 393.7L307.3 397.3L308.7 400.2L308.8 401.2L307.6 411.5L309.1 415.1L308.1 417.8L309.9 422.4L313.3 425.9L314 429.4L315.6 431.1L315.3 432.2L314.4 431.9L306.7 433L305.2 433.8L303.5 437.9L304.7 440.7L303.6 448.3L302.7 454.7L304.2 455.9L308.1 458.4L309.7 457.2L309.9 464.1H305.6L303.4 460.6L301.4 457.8L297.1 456.9L295.9 453.6L292.4 455.6L288 454.7L286.1 451.8L282.6 451.2L279.9 451.3L279.6 449.3L277.7 449.2L275.1 448.8L271.6 449.8L269.2 449.6L267.8 450.2L268.2 442.6L266.4 440.2L266 436.2L266.9 432.3L265.8 429.9L265.7 425.8L258.9 425.9L259.4 423.6H256.5L256.2 424.7L252.7 425L251.2 428.7L250.3 430.3L247.2 429.4L245.4 430.3L241.6 430.8L239.5 427.5L238.2 425.4L236.6 421.5L235.3 416.8L218.6 416.7L216.6 417.4L214.9 417.3L212.6 418.2L211.8 416.2L213.2 415.5L213.4 412.7L214.4 411.1L216.4 409.7L217.9 410.4L219.9 407.9L223 408L223.3 409.8L225.4 410.9L228.8 406.9L232.1 403.8L233.5 401.7L233.4 396.4L235.9 390.2L238.5 386.9L242.2 383.8L242.9 381.8L243 379.4L243.9 377.2L243.6 373.5L244.3 367.8L245.4 363.8L247.1 360.4L247.4 356.5L247.9 352L250.1 348.8L253.1 346.7L257.8 348.9L261.4 351.3L265.5 351.9L269.8 353.2L271.4 349.3L272.2 348.8L274.8 349.4L281.1 346.2L283.3 347.6L285.1 347.4L286 345.8L288.1 345.3L292.3 346L296 346.1L297.8 345.4V345.4Z" fill="#F0F0F0" stroke="black" stroke-width="0.5" stroke-linecap="round" stroke-linejoin="round"/>
<path d="M247.4 356.5L247.1 360.4L245.4 363.8L244.3 367.8L243.6 373.5L243.9 377.2L243 379.4L242.9 381.8L242.2 383.8L238.5 386.9L235.9 390.2L233.4 396.4L233.5 401.7L232.1 403.8L228.8 406.9L225.4 410.9L223.3 409.8L223 408L219.9 407.9L217.9 410.4L216.4 409.7L214.3 407.5L212.6 408.6L210.3 411.4L205.7 404.6L210 401L207.9 396.8L209.9 395.2L213.7 394.4L214.1 391.5L217.2 394.6L222.2 394.9L223.9 391.9L224.6 387.6L224 382.6L221.3 378.8L223.8 371.3L222.4 370.1L218.2 370.6L216.6 367.3L217 364.5L224.1 364.7L228.7 366.4L233.2 367.9L233.6 364.5L236.6 358.5L239.9 355.1L243.8 356.2L247.4 356.5V356.5Z" fill="#F0F0F0" stroke="black" stroke-width="0.5" stroke-linecap="round" stroke-linejoin="round"/>
<path d="M216.2 52.4003L218.7 54.4003L222.4 54.9003L222.2 56.6003L225 57.9003L225.6 56.3003L229 57.0003L229.7 59.0003L233.4 59.3003L236 62.4003H234.5L233.8 63.5003L232.7 63.8003L232.5 65.2003L231.6 65.5003L231.5 66.1003L229.9 66.7003L227.7 66.6003L227.1 68.0003L224.7 66.8003L222.4 67.1003L218.4 65.2003L216.7 65.7003L214.1 68.3003L210.3 66.2003L207.3 63.6003L204.7 62.1003L204 59.4003L203 57.6003L206.4 56.3003L208.1 54.7003L211.6 53.5003L212.7 52.3003L214 53.0003L216.2 52.4003V52.4003Z" fill="#F0F0F0" stroke="black" stroke-width="0.5" stroke-linecap="round" stroke-linejoin="round"/>
<path d="M210.4 36.1002L211.8 39.2002L210.6 40.9002L212.5 43.0002L214 46.3002L213.8 48.5002L216.2 52.4002L214 53.0002L212.7 52.3002L211.6 53.5002L208.1 54.7002L206.4 56.3002L203 57.6002L204 59.4002L204.7 62.1002L207.3 63.6002L210.3 66.2002L208.7 69.1002L207 69.9002L208 74.0002L207.6 75.1002L205.9 73.8002L203.5 73.6002L200 74.7002L195.6 74.4002L195 76.1002L192.3 74.4002L190.9 74.7002L185.4 72.8002L184.4 74.1002H180.2L180.6 69.6002L183 65.4002L175.8 64.2002L173.4 62.6002L173.6 59.9002L172.6 58.5002L173 54.3002L171.9 47.8002H174.8L176 45.5002L176.9 39.9002L176 37.8002L176.8 36.5002L180.8 36.2002L181.8 37.5002L184.9 34.5002L183.6 32.2002L183.2 28.8002L186.9 29.6002L189.8 28.7002L190.1 31.0002L195 32.4002L195.1 34.6002L199.8 33.4002L202.4 31.8002L208 34.2002L210.4 36.1002V36.1002Z" fill="#F0F0F0" stroke="black" stroke-width="0.5" stroke-linecap="round" stroke-linejoin="round"/>
<path d="M386 305.4L384.1 308.9L382.8 307.7L381.5 308.2L378.3 308.1L378.1 306.1L377.6 304.3L379.4 301.3L381.3 298.5L383.7 299.1L385.4 297.5L386.8 299.5L386.7 302.1L383.6 303.7L386 305.4V305.4Z" fill="#F0F0F0" stroke="black" stroke-width="0.5" stroke-linecap="round" stroke-linejoin="round"/>
<path d="M202.6 24.9003L200.2 29.8003L195 26.3003L194.1 23.8003L200.9 21.8003L202.6 24.9003Z" fill="#F0F0F0" stroke="black" stroke-width="0.5" stroke-linecap="round" stroke-linejoin="round"/>
<path d="M189.8 28.7001L186.9 29.6001L183.2 28.8001L181.1 25.4001L180.7 19.3001L181.3 17.6001L182.6 15.8001L186.6 15.5001L188.2 13.8001L191.8 12.1001V15.2001L190.6 17.2001L191.3 18.8001L193.9 19.7001L192.9 22.0001L191.5 21.4001L188.4 25.7001L189.8 28.7001Z" fill="#F0F0F0" stroke="black" stroke-width="0.5" stroke-linecap="round" stroke-linejoin="round"/>
<path d="M187.5 141.8L186.5 145.1L187.5 151.2L186.4 156.5L183.2 160.1L183.8 164.9L188.3 168.8L188.4 170.3L191.8 172.9L194.4 184.4L196.3 190.1L196.7 193.1L195.9 198.3L196.3 201.3L195.7 204.8L196.3 208.8L194.1 211.5L197.5 216.2L197.7 218.9L199.8 222.5L202.3 221.3L206.8 224.3L209.3 228.3L190.5 240.6L174.5 253.2L166.7 256L160.5 256.7L160.4 252.6L157.8 251.5L154.3 249.7L153 246.7L134.3 232.7L115.7 218.7L95.2 203.1L95.3 201.9L95.4 201.5L95.5 193.9L104.4 189.1L109.8 188.1L114.3 186.4L116.4 183.2L122.8 180.7L123.1 175.9L126.2 175.3L128.7 173L135.8 171.9L136.8 169.4L135.4 168L133.5 161.2L133.2 157.3L131.3 153.2L136.4 149.7L142.2 148.6L145.5 146L150.6 144L159.6 142.9L168.4 142.4L171.1 143.3L176 140.8L181.7 140.7L183.9 142.2L187.5 141.8V141.8Z" fill="#F0F0F0" stroke="black" stroke-width="0.5" stroke-linecap="round" stroke-linejoin="round"/>
<path d="M328.6 178.6L332.5 188L333.2 189.6L331.9 192.2L331.2 197L330 200.4L328.8 201.5L326.8 199.4L324.1 196.6L319.4 187.4L318.9 188L321.7 194.7L325.6 201.2L330.5 211.2L332.8 214.7L334.8 218.3L340.2 225.4L339.2 226.5L339.6 230.7L346.4 236.5L347.5 237.8H325.4H303.9H281.6L280.6 214.1L279.3 191.3L277.3 186.1L278.4 182.2L277.4 179.4L279.1 176.3L286.3 176.2L291.7 177.9L297.2 179.8L299.8 180.8L303.8 178.8L305.9 177L310.6 176.4L314.5 177.2L316.3 180.4L317.4 178.3L321.8 179.8L326.1 180.2L328.6 178.6V178.6Z" fill="#F0F0F0" stroke="black" stroke-width="0.5" stroke-linecap="round" stroke-linejoin="round"/>
<path d="M385.4 297.5L383.7 299.1L381.3 298.5L379.3 296.4L376.8 292.7L374.2 290.6L372.7 288.4L367.7 285.8L363.8 285.7L362.4 284.4L359.2 285.9L355.6 283L354.1 287.8L347.5 286.4L346.8 283.9L348.8 274.4L349.1 270.2L350.8 268.2L354.8 267.1L357.5 263.5L361.1 270.9L363 276.8L366.2 279.9L374.2 286L377.5 289.6L380.7 293.4L382.5 295.6L385.4 297.5V297.5Z" fill="#F0F0F0" stroke="black" stroke-width="0.5" stroke-linecap="round" stroke-linejoin="round"/>
<path d="M270.2 1.8L271.1 2.8L268.5 6.2L270.9 11.8L269.3 13.7L265.5 13.6L261.1 11.4L259 10.7L255.2 11.7L255.1 8.2L253.6 9L250.3 6.89999L249.3 3.5L254.8 1.8L260.4 1L265.5 1.89999L270.2 1.8V1.8Z" fill="#F0F0F0" stroke="black" stroke-width="0.5" stroke-linecap="round" stroke-linejoin="round"/>
<path d="M363.8 285.7L367.7 285.8L372.7 288.4L374.2 290.6L376.8 292.7L379.3 296.4L381.3 298.5L379.4 301.3L377.6 304.3L378.1 306.1L378.3 308.1L381.5 308.2L382.8 307.7L384.1 308.9L382.9 311.1L385.1 314.7L387.3 317.8L389.5 320.1L408.2 327.7L413 327.6L397.4 346.9L390.1 347.2L385.1 351.7L381.5 351.8L380 353.9H376.1L373.8 351.7L368.6 354.4L367 357.1L363.2 356.5L361.9 355.8L360.6 356L358.8 355.9L351.6 350.5H347.6L345.7 348.4L345.6 344.8L342.7 343.7L339.2 336.7L336.6 335.2L335.6 332.6L332.6 329.5L329.1 329L331 325.4L334 325.2L334.8 323.3L334.6 318.3V317.5L336.1 310.8L338.7 309L339.2 306.4L341.5 301.4L344.8 298.3L346.8 291.9L347.5 286.4L354.1 287.8L355.6 283L359.2 285.9L362.4 284.4L363.8 285.7V285.7Z" fill="#F0F0F0" stroke="black" stroke-width="0.5" stroke-linecap="round" stroke-linejoin="round"/>
<path d="M217 364.5L216.6 367.3L218.2 370.6L222.4 370.1L223.8 371.3L221.3 378.8L224 382.6L224.6 387.6L223.9 391.9L222.2 394.9L217.2 394.6L214.1 391.5L213.7 394.4L209.9 395.2L207.9 396.8L210 401L205.7 404.6L199.9 398.1L196.2 392.8L192.7 386.2L192.9 384L194.2 382L195.5 377.3L196.7 372.5L198.6 372.2H206.8V364.5L209.5 364.1L212.9 364.9L216.3 364.1L217 364.5V364.5Z" fill="#F0F0F0" stroke="black" stroke-width="0.5" stroke-linecap="round" stroke-linejoin="round"/>
<path d="M113.2 35.4L109.7 34.2L106.7 34.3L107.9 31L107 27.8L111 27.5L115.9 31.3L113.2 35.4Z" fill="#F0F0F0" stroke="black" stroke-width="0.5" stroke-linecap="round" stroke-linejoin="round"/>
<path d="M129.1 6.7002L124 13.2002L128.7 12.4002H133.8L132.5 17.3002L128.2 22.7002L133.1 23.0002L133.4 23.7002L137.6 30.8002L140.8 31.8002L143.7 38.8002L145.1 41.2002L151 42.3002L150.4 46.3002L148 48.1002L149.9 51.3002L145.5 54.5002L139 54.4002L130.6 56.2002L128.4 54.9002L125.1 57.8002L120.6 57.1002L117 59.5002L114.5 58.3002L121.8 51.8002L126.2 50.4002L118.6 49.4002L117.3 46.9002L122.4 45.0002L119.9 41.7002L120.9 37.7002L128 38.3002L128.8 34.7002L125.7 31.0002L125.6 30.9002L119.9 29.8002L118.8 28.2002L120.6 25.5002L119.1 23.8002L116.5 26.7002L116.4 20.8002L114.2 17.8002L116.1 11.6002L119.9 6.8002L123.5 7.2002L129.1 6.7002Z" fill="#F0F0F0" stroke="black" stroke-width="0.5" stroke-linecap="round" stroke-linejoin="round"/>
<path d="M372.2 105.1L377.3 106.4L379.4 109L383 110.5L381.8 111.3L385.1 114.8L384.5 115.5L381.6 115.2L377.4 113.3L376.3 114.4L369.3 115.4L363.7 112.2L358.2 112.5L358.5 109.8L356.4 105.5L353 103.1L350 102.4L347.8 100.5L348.2 99.7002L352.8 100.8L360.5 101.8L368.1 104.9L369.3 106.1L372.2 105.1V105.1Z" fill="#F0F0F0" stroke="black" stroke-width="0.5" stroke-linecap="round" stroke-linejoin="round"/>
<path d="M143 308.3L142.6 310.3L144.9 313.6V318.3L145.5 323.3L146.9 325.7L145.6 331.4L146.1 334.6L147.6 338.7L148.9 341L140 344.7L136.8 346.9L131.7 348.8L126.7 347L126.9 344.4L124.5 338.9L126 331.6L128.4 326.3L126.9 317.1L126.1 312.3L126.3 308.6L136.1 308.3L138.6 308.8L140.4 307.8L143 308.3V308.3Z" fill="#F0F0F0" stroke="black" stroke-width="0.5" stroke-linecap="round" stroke-linejoin="round"/>
<path d="M78 299.1L78.3 301.5H79.2L80.7 300.6L81.6 300.8L83.2 302.5L85.6 303L87.1 301.6L89 300.7L90.3 299.8L91.4 300L92.7 301.4L93.3 303.2L95.6 305.9L94.5 307.5L94.2 309.6L95.4 309L96.1 309.7L95.8 311.6L97.5 313.5L96.4 314L95.9 316.2L97.2 318.8L98.6 324L96.5 324.7L96 325.6L96.4 326.9L96 329.7H95.1L93.5 329.5L92.4 332.1H90.8L89.7 330.7L90.1 328.1L87.7 324.2L86.3 324.9L85 325.1L83.5 325.4L83.6 323.1L82.7 321.4L82.9 319.5L81.7 316.8L80.1 314.5H75.6L74.3 315.7L72.7 315.9L71.7 317.3L71.1 319L68 321.9L65.6 318.1L63.4 315.6L62 314.7L60.6 313.4L60 310.6L59.2 309.2L57.5 308.1L60.1 305L61.8 305.1L63.3 304.1L64.5 304L65.4 303.2L65 301.1L65.6 300.4L65.7 298.2L68.4 298.3L72.5 299.8L73.7 299.7L74.1 299L77.2 299.5L78 299.1V299.1Z" fill="#F0F0F0" stroke="black" stroke-width="0.5" stroke-linecap="round" stroke-linejoin="round"/>
<path d="M48.1 294.6L48.9 291.7L55 291.6L56.3 290L58.1 289.9L60.3 291.5H62L63.9 290.5L65 292.3L62.5 293.8L60.1 293.6L57.7 292.3L55.6 293.8H54.6L53.2 294.7L48.1 294.6V294.6Z" fill="#F0F0F0" stroke="black" stroke-width="0.5" stroke-linecap="round" stroke-linejoin="round"/>
<path d="M65.7 298.2L65.6 300.4L65 301.1L65.4 303.2L64.5 304L63.3 304.1L61.8 305.1L60.1 305L57.5 308.1L54.6 305.5L52.2 305L50.9 303.2L51 302.2L49.3 300.9L48.9 299.5L51.9 298.5L53.8 298.7L55.3 297.9L65.7 298.2V298.2Z" fill="#F0F0F0" stroke="black" stroke-width="0.5" stroke-linecap="round" stroke-linejoin="round"/>
<path d="M206.8 364.5V372.2H198.6L196.7 372.5L195.6 371.6L197.5 364.4L206.8 364.5V364.5Z" fill="#F0F0F0" stroke="black" stroke-width="0.5" stroke-linecap="round" stroke-linejoin="round"/>
<path d="M269.2 149.8L272.3 152L276.4 151.6L280.4 152V153.2L283.2 152.4L282.7 154.3L275.1 154.8L275 153.8L268.4 152.5L269.2 149.8Z" fill="#F0F0F0" stroke="black" stroke-width="0.5" stroke-linecap="round" stroke-linejoin="round"/>
<path d="M278.4 117.1L275.2 116.9L272.5 116.3L266.3 117.9L270.3 121.5L267.8 122.6H264.9L261.8 119.3L260.9 120.7L262.5 124.5L265.4 127.5L263.5 128.9L266.7 131.8L269.5 133.7L269.9 137.3L264.9 135.6L266.7 138.9L263.4 139.5L265.9 145.2L262.4 145.3L257.8 142.5L255.4 137.4L254.1 133.1L251.8 130.2L248.8 126.5L248.3 124.7L250.5 121.6L250.6 119.5L252.3 118.6L252.2 116.9L255.6 116.4L257.4 115L260.2 115.1L261 114L262 113.8L265.8 114L269.8 112.2L273.7 114.5L278.3 113.9L278 110.7L280.7 112.4L279.6 116.4L278.4 117.1Z" fill="#F0F0F0" stroke="black" stroke-width="0.5" stroke-linecap="round" stroke-linejoin="round"/>
<path d="M238 84.8001L239.5 87.3001L241.2 89.1001L239.5 91.5001L237.1 90.1001L233.6 90.2001L229.1 89.1001L226.8 89.2001L225.8 90.6001L223.8 89.1001L223 91.7001L225.7 94.7001L227 96.6001L229.5 99.0001L231.6 100.4L233.7 103.1L238.5 105.5L238 106.5L233 104.2L229.8 101.9L225 100L220.3 95.4001L221.3 94.9001L218.8 92.2001L218.5 90.1001L215.2 89.1001L213.8 91.8001L212.2 89.7001V87.5001L212.3 87.4001L215.9 87.6001L216.7 86.6001L218.5 87.6001L220.5 87.7001L220.4 86.0001L222.1 85.3001L222.4 82.8001L226.3 81.1001L227.9 81.9001L231.9 84.6001L236.2 85.8001L238 84.8001V84.8001Z" fill="#F0F0F0" stroke="black" stroke-width="0.5" stroke-linecap="round" stroke-linejoin="round"/>
<path d="M252.7 69.1003L255.7 70.8003L256.2 72.5003L253.3 73.8003L251.4 78.0003L248.8 82.3003L244.9 83.5003L241.7 83.2003L238 84.8003L236.2 85.8003L231.9 84.6003L227.9 81.9003L226.3 81.1003L225.1 79.0003L224.3 78.9003L225.6 74.9003L224.5 73.5003H227.3L227.5 70.9003L230.2 72.6003L232.1 73.2003L236.2 72.5003L236.5 71.2003L238.4 71.0003L240.7 70.1003L241.3 70.5003L243.6 69.7003L244.6 68.2003L246.2 67.8003L251.7 69.7003L252.7 69.1003V69.1003Z" fill="#F0F0F0" stroke="black" stroke-width="0.5" stroke-linecap="round" stroke-linejoin="round"/>
<path d="M113.2 35.4003L113.9 39.8003L110 45.3003L101.2 48.9003L94.4 48.0003L98.7 41.6003L96.6 35.4003L103.3 30.6003L107 27.8003L107.9 31.0003L106.7 34.3003L109.7 34.2003L113.2 35.4003V35.4003Z" fill="#F0F0F0" stroke="black" stroke-width="0.5" stroke-linecap="round" stroke-linejoin="round"/>
<path d="M385.5 130.4L387.3 130.2L392.6 125.5L394.5 125L396.4 126.9L395.2 130L399.1 133.4L400.4 133L402.9 137.8L408.2 139.1L412.5 142.3L420.2 143.4L428.2 141.7L428.4 140.2L432.8 139L435.8 135.3L439.4 135.5L441.4 134.3L445.3 134.9L451.9 138.2L456.2 138.9L463.5 144.5L467.5 144.8L469.2 150.1L468.6 158.1L468.1 162.8L470.6 163.8L469 167.3L471.7 172.4L472.9 176.5L477.2 177.6L478.3 181.7L474.4 187.5L477.6 190.9L480.4 194.8L486.1 197.6L487.1 203.2L489.8 204.3L490.7 207.2L483.2 210.6L482.1 218L471.5 216.1L465.3 214.6L459 213.8L455.7 205.9L452.9 204.8L448.8 205.9L443.7 209L436.7 206.9L430.6 201.9L425.1 200.1L420.7 194L415.5 185.5L412.7 186.5L409 184.4L407.3 186.9L403.8 183.5L403.3 180.1H401.6L401.8 175.4L398.3 170.6L391.2 167L386.6 160.9L387.1 155.9L389.4 153.7L388.5 150L384.7 148L380 140.4L376.2 135.3L376.9 133.3L374 126L377.3 124.1L378.5 126.6L381.7 129.5L385.5 130.4V130.4Z" fill="#F0F0F0" stroke="black" stroke-width="0.5" stroke-linecap="round" stroke-linejoin="round"/>
<path d="M380 140.4L384.7 148L388.5 150L389.4 153.7L387.1 155.9L386.6 160.9L391.2 167L398.3 170.6L401.8 175.4L401.6 180.1H403.3L403.8 183.5L407.3 186.9L404 186.6L400.3 186L397 192.2L386.8 191.7L370 178.8L361.4 174.3L354.6 172.5L351.5 164.7L362.5 158L363.5 150.3L362.3 145.6L365 144L367.1 140L369.2 139L375.5 139.9L377.6 141.5L380 140.4V140.4Z" fill="#F0F0F0" stroke="black" stroke-width="0.5" stroke-linecap="round" stroke-linejoin="round"/>
<path d="M335.6 165.4L336 168L335.4 169H335.5L334.8 171L332.7 170.2L332 174.4L333.5 175.1L332.2 176L332.1 177.7L334.6 176.9L335 179.4L333.2 189.6L332.5 188L328.6 178.6L330 176.5L329.6 176.1L330.7 173.1L331.3 168.3L331.9 166.6H332H333.8L334.2 165.5L335.6 165.4V165.4Z" fill="#F0F0F0" stroke="black" stroke-width="0.5" stroke-linecap="round" stroke-linejoin="round"/>
<path d="M224.7 133.6L223 138.7L223.9 140.6L223 143.9L218.8 141.5L216.1 140.8L208.6 137.6L209.1 134.3L215.3 134.9L220.7 134.2L224.7 133.6Z" fill="#F0F0F0" stroke="black" stroke-width="0.5" stroke-linecap="round" stroke-linejoin="round"/>
<path d="M190.7 114.6L194 119.1L193.6 127.6L191.2 127.2L189.1 129.3L187.1 127.6L186.6 119.9L185.3 116.3L188.2 116.6L190.7 114.6Z" fill="#F0F0F0" stroke="black" stroke-width="0.5" stroke-linecap="round" stroke-linejoin="round"/>
<path d="M212.4 81.1003L212 84.2003L213.4 86.9003L209.3 85.9003L205.4 88.2003L205.8 91.3003L205.3 93.1003L207.2 96.3003L212.2 99.5003L215.1 104.8L221.2 109.9L225.2 109.8L226.6 111.2L225.2 112.5L230 114.8L234 116.7L238.7 120.1L239.3 121.2L238.5 123.5L235.4 120.5L230.8 119.5L228.9 123.6L232.8 126L232.4 129.3L230.3 129.7L227.8 135.2L225.6 135.7L225.5 133.7L226.4 130.3L227.5 128.9L225.2 125.2L223.4 122L221.2 121.2L219.4 118.5L216 117.3L213.6 114.7L209.8 114.3L205.5 111.5L200.6 107.3L196.9 103.7L195 97.4003L192.4 96.7003L188.2 94.6003L185.9 95.4003L183 98.4003L180.9 98.8003L181.4 96.1003L178.6 95.3003L177.1 90.4003L178.8 88.5003L177.3 86.1003L177.4 84.3003L179.6 85.7003L182.1 85.4003L184.8 83.2003L185.7 84.2003L188.1 84.0003L189.1 81.5003L192.9 82.3003L195 81.2003L195.3 78.7003L198.4 79.6003L198.9 78.4003L203.8 77.3003L205.1 79.4003L212.4 81.1003Z" fill="#F0F0F0" stroke="black" stroke-width="0.5" stroke-linecap="round" stroke-linejoin="round"/>
<path d="M354.6 172.5L353.7 173.5L343.3 176.7L349.3 183.2L347.7 184.2L347 186.4L342.9 187.3L341.8 189.6L339.7 191.6L333.5 190.5L333.2 189.6L335 179.4L334.6 176.9L335.2 175L334.8 171L335.5 169L341.8 171.6L351.5 164.7L354.6 172.5V172.5Z" fill="#F0F0F0" stroke="black" stroke-width="0.5" stroke-linecap="round" stroke-linejoin="round"/>
<path d="M380 353.9L375.1 361.1L375.3 384.5L378.6 389.8L374.6 392.4L373.2 395.1L371 395.5L370.2 400.1L368.3 402.7L367.2 406.9L364.9 409L356.8 402.6L356.5 398.9L336 385.8L336.4 381.1L335 378.6V378.3L336.6 375.7L339.4 371.5L341.5 366.8L338.9 359.4L338.2 356.2L335.5 351.7L338.9 347.9L342.7 343.7L345.6 344.8L345.7 348.4L347.6 350.5H351.6L358.8 355.9L360.6 356L361.9 355.8L363.2 356.5L367 357.1L368.6 354.4L373.8 351.7L376.1 353.9H380V353.9Z" fill="#F0F0F0" stroke="black" stroke-width="0.5" stroke-linecap="round" stroke-linejoin="round"/>
<path d="M404 186.6L405.5 189.4L405.2 190.9L407.6 195.7L403.7 195.9L402 192.8L397 192.2L400.3 186L404 186.6Z" fill="#F0F0F0" stroke="black" stroke-width="0.5" stroke-linecap="round" stroke-linejoin="round"/>
<path d="M335.6 165.4L334.2 165.5L333.8 166.6H332L333.3 161.3L335.5 156.8V156.6L338 156.9L339.2 159.4L336.5 161.9L335.6 165.4V165.4Z" fill="#F0F0F0" stroke="black" stroke-width="0.5" stroke-linecap="round" stroke-linejoin="round"/>
<path d="M95.1 329.7L94.9 331.5L95.4 334.6L94.2 337.5L95.8 339.3L97.6 339.7L100 342.4L100.2 344.9L99.6 345.7L99.2 351L97.7 351.1L91.9 348L86.7 343.1L81.9 339.6L78.1 335.5L79.5 333.4L79.8 331.5L82.4 328.1L85 325.1L86.3 324.9L87.7 324.2L90.1 328.1L89.7 330.7L90.8 332.1H92.4L93.5 329.5L95.1 329.7Z" fill="#F0F0F0" stroke="black" stroke-width="0.5" stroke-linecap="round" stroke-linejoin="round"/>
<path d="M279.1 176.3L277.4 179.4L278.4 182.2L277.3 186.1L279.3 191.3L280.6 214.1L281.6 237.8L282.1 250.6H275.7V253.3L253.1 241L230.6 228.7L225.1 232.2L221.3 234.6L218.1 231.1L209.3 228.3L206.8 224.3L202.3 221.3L199.8 222.5L197.7 218.9L197.5 216.2L194.1 211.5L196.3 208.8L195.7 204.8L196.3 201.3L195.9 198.3L196.7 193.1L196.3 190.1L194.4 184.4L197 183L197.4 180.2L196.8 177.6L200.4 175.1L202 173L204.6 171.2L204.7 166.3L211.1 168.5L213.4 167.9L217.9 169L225.2 171.9L228 177.6L232.9 178.8L240.7 181.5L246.7 184.7L249.2 183L251.7 180.1L250.1 175.2L251.6 172L255.3 169L259 168.2L266.4 169.5L268.4 172.3L270.4 172.4L272.2 173.5L277.6 174.2L279.1 176.3V176.3Z" fill="#F0F0F0" stroke="black" stroke-width="0.5" stroke-linecap="round" stroke-linejoin="round"/>
<path d="M295.6 575.1L293.6 575.8L289.9 570.8L293.1 566.8L296.2 564.3L298.9 562.9L301.1 564.9L302.8 566.9L300.9 570L299.8 572.1L296.7 573.1L295.6 575.1V575.1Z" fill="#F0F0F0" stroke="black" stroke-width="0.5" stroke-linecap="round" stroke-linejoin="round"/>
<path d="M267.6 24.8003L268.6 27.5003L265 29.5003L264.5 32.9003L259.7 35.2003H255L253.6 33.3003L251.1 32.6003L250.5 31.1003L250.7 29.4003L248.5 28.5003L243.4 27.4003L241.7 22.3003L246.8 20.5003L254.7 20.9003L259.2 20.3003L260.1 21.5003L262.6 21.9003L267.6 24.8003V24.8003Z" fill="#F0F0F0" stroke="black" stroke-width="0.5" stroke-linecap="round" stroke-linejoin="round"/>
<path d="M173.4 62.6L172 62.7L170.9 62.2L171.3 58.7L172.6 58.5L173.6 59.9L173.4 62.6V62.6Z" fill="#F0F0F0" stroke="black" stroke-width="0.5" stroke-linecap="round" stroke-linejoin="round"/>
<path d="M269.3 13.7002L271.8 15.0002L272.8 17.9002L274.9 21.5002L270.3 23.8002L267.6 24.8002L262.6 21.9002L260.1 21.5002L259.2 20.3002L254.7 20.9002L246.8 20.5002L241.7 22.3002L241.2 17.8002L242.9 14.0002L247 12.0002L251.4 16.5002L255.1 16.3002L255.2 11.7002L259 10.7002L261.1 11.4002L265.5 13.6002L269.3 13.7002V13.7002Z" fill="#F0F0F0" stroke="black" stroke-width="0.5" stroke-linecap="round" stroke-linejoin="round"/>
<path d="M131.3 153.2L133.2 157.3L133.5 161.2L135.4 168L136.8 169.4L135.8 171.9L128.7 173L126.2 175.3L123.1 175.9L122.8 180.7L116.4 183.2L114.3 186.4L109.8 188.1L104.4 189.1L95.5 193.9L95.4 201.5H94.5L94.6 204.9L91.2 205.1L89.4 206.6H86.9L84.9 205.7L80.3 206.4L78.4 211.4L76.6 211.9L73.9 220L66 226.9L64 235.8L61.6 238.7L60.9 241L48.4 241.5H48.3L48.6 238.5L50.8 236.8L52.7 233.4L52.4 231.2L54.4 226.7L57.6 222.6L59.5 221.6L61.1 217.9L61.3 214.4L63.4 210.5L67.2 208.1L70.8 201.6L70.9 201.5L73.8 199L78.9 198.3L83.3 193.9L86.1 192.2L90.8 186.8L89.6 178.9L91.8 173.3L92.7 169.9L96.3 165.6L101.7 162.7L105.8 160L109.5 153.4L111.3 149.4L115.2 149.5L118.3 152.2L123.4 151.8L128.9 153.2H131.3V153.2Z" fill="#F0F0F0" stroke="black" stroke-width="0.5" stroke-linecap="round" stroke-linejoin="round"/>
<path d="M285.9 87.5003L284.6 84.6003L284.8 81.9003L284.2 79.2003L280.8 75.4003L278.8 72.8003L277 71.0003L275.4 70.3003L276.5 69.4003L279.7 68.8003L283.7 70.7003L285.7 71.0003L288.3 72.7003L288.2 74.8003L290.2 75.8003L291.3 78.4003L293.3 80.0003L293.1 81.0003L294.1 81.6003L292.8 82.1003L289.8 81.9003L289.2 81.0003L288.2 81.5003L288.8 82.6003L287.7 84.7003L287.1 86.8003L285.9 87.5003V87.5003Z" fill="#F0F0F0" stroke="black" stroke-width="0.5" stroke-linecap="round" stroke-linejoin="round"/>
<path d="M424.4 466.1L424.8 473.8L426.1 476.8L425.4 479.9L424.2 481.7L422.6 478L421.4 479.9L422.2 484.6L421.5 487.4L419.8 488.8L419.1 494.3L416.4 501.8L413 510.6L408.7 522.8L405.8 531.7L402.7 539.2L398.1 540.7L393 543.4L390 541.8L385.8 539.5L384.6 536.1V530.4L383.1 525.3L382.9 520.6L384.2 516L386.8 514.9L387 512.8L389.9 507.9L390.7 503.8L389.6 500.8L388.8 496.7L388.7 490.8L390.9 487.2L391.9 483.1L394.7 482.9L397.9 481.6L400.1 480.4L402.5 480.3L405.9 476.7L410.8 472.7L412.6 469.5L412 466.7L414.4 467.5L417.7 463.1L418 459.2L420 456.3L421.8 459.1L423.2 461.8L424.4 466.1V466.1Z" fill="#F0F0F0" stroke="black" stroke-width="0.5" stroke-linecap="round" stroke-linejoin="round"/>
<path d="M262 113.8L261 114L260.2 115.1L257.4 115L255.6 116.4L252.2 116.9L249.9 115.4L248.9 112.7L249.4 110.5L250.1 110.6L250.2 109.3L253.1 108.3L254.3 108L256 107.7L258.4 107.5L261.2 109.6L262 113.8V113.8Z" fill="#F0F0F0" stroke="black" stroke-width="0.5" stroke-linecap="round" stroke-linejoin="round"/>
<path d="M166.7 256L166.8 270.8L163.7 275.1L163.3 279.1L158.3 280.1L150.6 280.6L148.6 282.9L145 283.2H141.4L140 282L136.9 282.9L131.6 285.6L130.5 287.6L126.2 290.4L125.4 292.1L123 293.4L120.3 292.5L118.8 294.1L117.9 298.5L113.4 303.8L113.6 306L112 308.7L112.4 312.4L110 313.4L108.7 314.2L107.8 311.5L106.2 312.2L105.2 312.1L104.2 313.9H99.8L98.3 312.9L97.5 313.5L95.8 311.6L96.1 309.7L95.4 309L94.2 309.6L94.5 307.5L95.6 305.9L93.3 303.2L92.7 301.4L91.4 300L90.3 299.8L89 300.7L87.1 301.6L85.6 303L83.2 302.5L81.6 300.8L80.7 300.6L79.2 301.5H78.3L78 299.1L78.3 297.1L77.8 294.7L75.8 292.9L74.7 289.2L74.5 285.2L76.4 284L77.4 280.2L79.2 280.1L83.1 281.9L86.3 280.6L88.4 281L89.3 279.6L111.8 279.5L113.1 275L112.1 274.2L109.6 246.5L107.2 218.8L115.7 218.7L134.3 232.7L153 246.7L154.3 249.7L157.8 251.5L160.4 252.6L160.5 256.7L166.7 256V256Z" fill="#F0F0F0" stroke="black" stroke-width="0.5" stroke-linecap="round" stroke-linejoin="round"/>
<path d="M247.1 104.4L246.3 105.8L244.9 106.4L244.5 105.2L242.6 108.3L243.1 110.4L242 109.9L240.3 107.8L238 106.5L238.5 105.5L238.9 102L240.5 100.5L241.4 99.9004L242.8 101L243.7 101.9L245.4 102.6L247.5 103.9L247.1 104.4Z" fill="#F0F0F0" stroke="black" stroke-width="0.5" stroke-linecap="round" stroke-linejoin="round"/>
<path d="M323.2 550.7H319.1L318.8 547.8L318.2 544.9L317.8 542.6L319.2 535.5L318.1 530.9L315.9 521.9L322.1 514.6L323.8 510L324.6 509.4L325.5 505.6L324.7 503.7L325.1 498.9L326.4 494.5L326.8 486.3L324 484.3L321.3 483.8L320.2 482.2L317.6 480.9L312.9 481L312.7 478.6L312.3 474L329.5 468.7L332.7 471.8L334.2 471.2L336.4 472.8L336.6 475.4L335.3 478.4L335.5 482.9L339 486.9L340.9 482.4L343.4 481.1L343.3 472.8L341.1 468.2L339.2 466.1H338.8L338.2 458.8L339.7 452.7L341.9 452.5L348.6 454.3L350.1 453.5L354 453.3L356.1 451.4L359.5 451.5L365.7 449L370.3 445.3L371.2 448.1L370.7 454.5L371.2 460.2L371 470.2L371.8 473.3L369.9 477.9L367.5 482.4L363.8 486.4L358.5 488.8L352 491.9L345.4 498.8L343.2 500L339 504.6L336.7 506L335.9 510.6L338.3 515.5L339.2 519.2V521.2L340.2 520.8L339.7 527.1L338.6 530.1L339.8 531.2L338.8 533.9L336.4 536.2L331.7 538.3L324.8 541.8L322.3 544.2L322.6 546.9L323.9 547.3L323.2 550.7V550.7Z" fill="#F0F0F0" stroke="black" stroke-width="0.5" stroke-linecap="round" stroke-linejoin="round"/>
<path d="M115.7 218.7L107.2 218.8L109.6 246.5L112.1 274.2L113.1 275L111.8 279.5L89.3 279.6L88.4 281L86.3 280.6L83.1 281.9L79.2 280.1L77.4 280.2L76.4 284L74.5 285.2L70.9 280.8L67.5 276L63.9 274.3L61.2 272.5H58.1L55.3 273.9L52.6 273.4L50.6 275.4L50.2 272L51.8 268.8L52.6 262.8L52.2 256.4L51.6 253.2L52.2 250L50.8 247L48 244.2L49.3 242.1H71L70.1 232.8L71.6 229.5L76.8 229L77 212.5L95 212.9L95.2 203.1L115.7 218.7V218.7Z" fill="#F0F0F0" stroke="black" stroke-width="0.5" stroke-linecap="round" stroke-linejoin="round"/>
<path d="M338.8 466.1H339.2L341.1 468.2L343.3 472.8L343.4 481.1L340.9 482.4L339 486.9L335.5 482.9L335.3 478.4L336.6 475.4L336.4 472.8L334.2 471.2L332.7 471.8L329.5 468.7L326.6 467.1L328.6 461.1L330.4 458.9L329.5 453.5L330.8 448.3L331.8 446.6L330.5 441.2L327.9 438.3L333.4 439.5L334.4 441.2L334.3 442L336.1 446.1L336.3 453.8L334.5 457.4L336.1 462.1L335.9 464.9L337.1 466.8L337 469.2L337.9 470.6L338.9 469L340.8 471.5L341 470.7L340 467.3L338.9 467L338.8 466.1V466.1Z" fill="#F0F0F0" stroke="black" stroke-width="0.5" stroke-linecap="round" stroke-linejoin="round"/>
<path d="M272.7 491.5L277.3 490.1L280.9 490.4L283.1 491.9V492.4L279.9 493.9H278.2L274.5 496.4L272.5 493.7L263.8 496L259.6 496.2L258.8 519.1L253.3 519.3L252.7 538L251.6 561.7L246.6 565L243.7 565.5L240.3 564.3L237.8 563.8L237 561.1L235 559.3L232.2 562.5L228.3 557.6L226.3 553L225.3 546.7L224.1 542.1L222.5 532.2L222.6 524.5L222 521L219.9 518.3L217.1 513L214.3 505.3L213.2 501.3L208.8 495L208.5 490.1L211.2 488.9L214.6 487.8L218.2 488L221.5 490.9L222.3 490.4L245 490.2L248.8 493.2L262.3 494.1L272.7 491.5V491.5Z" fill="#F0F0F0" stroke="black" stroke-width="0.5" stroke-linecap="round" stroke-linejoin="round"/>
<path d="M225.1 232.2L226.7 242.2L228.9 243.9L229 245.9L231.4 248.1L230.2 250.9L228.4 263.9L228.2 272.3L221.2 278.3L218.9 286.8L221.3 289.2V293.3L225 293.4L224.4 296.5L222.9 296.8L222.7 298.9L221.7 299L217.8 292L216.4 291.7L212.1 295.3L207.7 293.4L204.7 293.1L203.1 294L199.8 293.8L196.5 296.5L193.6 296.7L186.8 293.4L184.1 294.9L181.2 294.8L179.1 292.4L173.5 290L167.4 290.8L166 292.1L165.2 295.8L163.6 298.4L163.2 304.2L158.9 300.5H156.9L155 302.4L155.1 298L148.6 296.5L148.4 293.4L145.3 289.2L144.5 286.3L145 283.2L148.6 282.9L150.6 280.6L158.3 280.1L163.3 279.1L163.7 275.1L166.8 270.8L166.7 256L174.5 253.2L190.5 240.6L209.3 228.3L218.1 231.1L221.3 234.6L225.1 232.2V232.2Z" fill="#F0F0F0" stroke="black" stroke-width="0.5" stroke-linecap="round" stroke-linejoin="round"/>
<path d="M222.7 298.9L225 301.4L224.4 302.6L224.1 304.7L219.4 309.7L218 313.8L217.2 317.1L216 318.6L214.9 323.1L211.9 325.7L211.1 328.9L209.8 331.5L209.3 334.2L205.4 336.4L202.2 333.7L200.1 333.8L196.7 337.6H195.1L192.4 343.8L191 348.4L185.1 350.7L183 350.4L180.8 351.8L176.3 351.7L173.2 347.6L171.3 343L167.3 338.8H163.1H158.1L158.4 328.5L158.2 324.4L159.3 320.4L161 318.4L163.8 314.4L163.2 312.7L164.3 310.1L163 306.3L163.2 304.2L163.6 298.4L165.2 295.8L166 292.1L167.4 290.8L173.5 290L179.1 292.4L181.2 294.8L184.1 294.9L186.8 293.4L193.6 296.7L196.5 296.5L199.8 293.8L203.1 294L204.7 293.1L207.7 293.4L212.1 295.3L216.4 291.7L217.8 292L221.7 299L222.7 298.9V298.9Z" fill="#F0F0F0" stroke="black" stroke-width="0.5" stroke-linecap="round" stroke-linejoin="round"/>
<path d="M440.3 272.1L438.1 267.6L432.9 257L449.2 250.6L451.8 237.8L448.8 233.2V230.6L450.1 228L449.9 225.4L452.3 224.1L451.2 223.2V219H454L457 223.4L460.3 225.7L464.4 226.6L467.8 227.7L470.7 231.4L472.4 233.5L474.4 234.4L474.6 235.8L472.9 239.6L472.2 241.4L470 243.5L468.3 247.9L465.8 247.5L464.8 249.1L464.1 252.3L465.2 256.6L464.7 257.4H462.2L458.9 259.8L458.6 262.9L457.4 264.3L453.9 264.2L451.9 265.8L452.1 268.4L449.5 270.2L446.4 269.6L442.8 271.8L440.3 272.1Z" fill="#F0F0F0" stroke="black" stroke-width="0.5" stroke-linecap="round" stroke-linejoin="round"/>
<path d="M452.4 216.5L451.1 214.3L452.5 212.2L453.2 212.7L453 215.4L452.4 216.5Z" fill="#F0F0F0" stroke="black" stroke-width="0.5" stroke-linecap="round" stroke-linejoin="round"/>
<path d="M449.388 208.246L447.901 208.445L449.388 208.246ZM449.237 207.018L447.756 207.255L449.237 207.018ZM448.628 213.489C448.6 213.347 448.573 213.201 448.547 213.052L451.5 212.528C451.524 212.661 451.548 212.789 451.572 212.911L448.628 213.489ZM448.406 212.194C448.363 211.918 448.322 211.634 448.283 211.348L451.254 210.935C451.293 211.211 451.331 211.48 451.371 211.74L448.406 212.194ZM448.17 210.51C448.133 210.233 448.097 209.954 448.062 209.678L451.037 209.295C451.073 209.571 451.108 209.846 451.144 210.119L448.17 210.51ZM447.955 208.854C447.937 208.716 447.919 208.58 447.901 208.445L450.874 208.047C450.893 208.185 450.911 208.324 450.93 208.464L447.955 208.854ZM447.901 208.445C447.886 208.332 447.872 208.219 447.86 208.11L450.84 207.767C450.852 207.867 450.863 207.96 450.874 208.047L447.901 208.445ZM447.791 207.509C447.779 207.412 447.767 207.327 447.756 207.255L450.718 206.782C450.737 206.901 450.754 207.023 450.768 207.14L447.791 207.509ZM447.756 207.255C447.744 207.18 447.732 207.092 447.721 207.017L450.693 206.609C450.705 206.69 450.712 206.745 450.718 206.782L447.756 207.255ZM447.669 206.655C447.663 206.621 447.66 206.61 447.661 206.613C447.662 206.616 447.665 206.632 447.673 206.657C447.677 206.671 447.683 206.69 447.692 206.715C447.7 206.738 447.713 206.774 447.733 206.818L450.467 205.582C450.541 205.746 450.576 205.9 450.586 205.944C450.602 206.017 450.616 206.089 450.626 206.149L447.669 206.655Z" fill="#898989"/>
<path d="M236.4 32L242.3 32.7L251.1 32.6L253.6 33.3L255 35.2L255.6 37.9L257.3 40.2L257.7 42.6L254.9 43.9L256.8 46.7L257.3 49.5L260.5 54.9L260.2 56.6L257.9 57.3L254.1 62.5L255.7 65.3L254.6 64.9L249.6 62.5L246.1 63.4L243.7 62.8L240.9 64.1L238.2 61.9L236.3 62.8L236 62.4L233.4 59.3L229.7 59L229 57L225.6 56.3L225 57.9L222.2 56.6L222.4 54.9L218.7 54.4L216.2 52.4L213.8 48.5L214 46.3L212.5 43L210.6 40.9L211.8 39.2L210.4 36.1L213.5 34.3L220.6 31.5L226.4 29.5L231.2 30.5L231.8 32H236.4V32Z" fill="#F0F0F0" stroke="black" stroke-width="0.5" stroke-linecap="round" stroke-linejoin="round"/>
<path d="M334.8 171L335.2 175L334.6 176.9L332.1 177.7L332.2 176L333.5 175.1L332 174.4L332.7 170.2L334.8 171V171Z" fill="#F0F0F0" stroke="black" stroke-width="0.5" stroke-linecap="round" stroke-linejoin="round"/>
<path d="M426.6 220.9L425.1 221.4L423.3 220.1L422.5 215.4L423.6 212.1L425.1 211.4L426.9 213.4L427.4 217.1L426.6 220.9Z" fill="#F0F0F0" stroke="black" stroke-width="0.5" stroke-linecap="round" stroke-linejoin="round"/>
<path d="M275.4 70.3003L277 71.0003L278.8 72.8003L280.8 75.4003L284.2 79.2003L284.8 81.9003L284.6 84.6003L285.9 87.5003L288.3 88.7003L290.6 87.6003L293 88.7003L293.4 90.4003L291.1 91.7003L289.5 91.1003L289.1 98.8003L286 98.1003L282 95.8003L276.1 97.3003L273.8 98.9003L266.2 98.5003L262.2 97.6003L260.3 98.0003L258.5 95.4003L257.5 94.3003L258.5 93.2003L257.2 92.5003L255.7 93.9003L252.6 92.0003L251.9 89.4003L248.7 88.0003L247.9 85.9003L244.9 83.5003L248.8 82.3003L251.4 78.0003L253.3 73.8003L256.2 72.5003L258.2 71.1003L261.4 71.8003H264.6L267.1 73.4003L268.7 72.4003L272.3 71.8003L273.3 70.3003H275.4V70.3003Z" fill="#F0F0F0" stroke="black" stroke-width="0.5" stroke-linecap="round" stroke-linejoin="round"/>
<path d="M315.3 386.3L317.5 389.9L317.2 393.7L315.6 394.5L312.5 394.1L310.8 397.8L307.3 397.3L307.9 393.7L308.7 393.2L308.9 389.4L310.5 387.6L311.9 388.3L315.3 386.3V386.3Z" fill="#F0F0F0" stroke="black" stroke-width="0.5" stroke-linecap="round" stroke-linejoin="round"/>
<path d="M95.4 201.5L95.3 201.9L95.2 203.1L95 212.9L77 212.5L76.8 229L71.6 229.5L70.1 232.8L71 242.1H49.3L48 244.2L48.3 241.5H48.4L60.9 241L61.6 238.7L64 235.8L66 226.9L73.9 220L76.6 211.9L78.4 211.4L80.3 206.4L84.9 205.7L86.9 206.6H89.4L91.2 205.1L94.6 204.9L94.5 201.5H95.4V201.5Z" fill="#F0F0F0" stroke="black" stroke-width="0.5" stroke-linecap="round" stroke-linejoin="round"/>
<path d="M397 192.2L402 192.8L403.7 195.9L407.6 195.7L410.3 201.3L413.2 202.7L414.4 205L418.4 207.7L419.1 210.3L418.7 212.5L419.6 214.6L421.4 216.4L422.3 218.5L423.3 220.1L425.1 221.4L426.6 220.9L427.9 223.4L428.2 224.8L430.9 231.4L447.8 234.6L448.8 233.2L451.8 237.8L449.2 250.6L432.9 257L417 259.5L412 262.4L408.5 269.1L405.9 270.2L404.4 268.1L402.3 268.4L396.8 267.7L395.7 267.1L389.3 267.2L387.8 267.8L385.4 266.2L384.1 269.3L384.9 272L382.5 274.1L381.6 271.3L379.8 269.4L379.3 266.8L376.2 264.5L372.9 259.1L371 253.9L366.9 249.5L364.4 248.4L360.3 242.3L359.4 237.9V234.1L355.8 226.9L353 224.4L350 223.1L347.9 219.4L348.1 218L346.3 214.6L344.6 213.2L342.1 208.4L338.3 203.3L335.2 198.9H332.5L333 195.4L333.1 193.1L333.5 190.5L339.7 191.6L341.8 189.6L342.9 187.3L347 186.4L347.7 184.2L349.3 183.2L343.3 176.7L353.7 173.5L354.6 172.5L361.4 174.3L370 178.8L386.8 191.7L397 192.2V192.2Z" fill="#F0F0F0" stroke="black" stroke-width="0.5" stroke-linecap="round" stroke-linejoin="round"/>
<path d="M347.5 286.4L346.8 291.9L344.8 298.3L341.5 301.4L339.2 306.4L338.7 309L336.1 310.8L334.6 317.5V318.3L333.8 318.1L333.9 314.9L333.1 312.7L330.2 310.2L329.3 305.6L329.9 300.8L327.3 300.4L326.9 301.8L323.5 302.2L325 304L325.5 307.9L322.5 311.4L319.8 316L316.9 316.7L312.1 313L310 314.3L309.5 316.1L306.6 317.4L306.4 318.7H300.8L300 317.4L295.9 317.1L293.9 318.2L292.3 317.7L289.4 313.9L288.4 312.2L284.3 313.1L282.8 316L281.5 321.8L279.5 323L277.8 323.7L277.3 323.4L275.4 321.5L275 319.5L275.8 316.9V314.2L272.5 310.2L271.8 307.5V305.9L269.7 304L269.6 300.3L268.3 297.8L266.4 298.2L266.9 295.8L268.3 293.2L267.6 290.5L269.4 288.5L268.2 287L269.5 283.1L272 278.3L276.8 278.8L275.7 253.3V250.6H282.1L281.6 237.8H303.9H325.4H347.5L349.6 244.1L348.4 245.2L349.6 251.9L352.1 259.5L354.3 261.1L357.5 263.5L354.8 267.1L350.8 268.2L349.1 270.2L348.8 274.4L346.8 283.9L347.5 286.4V286.4Z" fill="#F0F0F0" stroke="black" stroke-width="0.5" stroke-linecap="round" stroke-linejoin="round"/>
<path d="M334.6 318.3L334.8 323.3L334 325.2L331 325.4L329.1 329L332.6 329.5L335.6 332.6L336.6 335.2L339.2 336.7L342.7 343.7L338.9 347.9L335.5 351.7L332 354.7H328L323.5 356.2L319.9 354.7L317.6 356.5L312.5 352.2L311.1 349.5L308 350.8L305.4 350.4L303.9 351.5L301.3 350.7L297.8 345.4L296.9 343.4L292.6 340.8L291.2 337L288.8 334.2L284.9 330.9L284.8 328.8L281.7 326.2L277.8 323.7L279.5 323L281.5 321.8L282.8 316L284.3 313.1L288.4 312.2L289.4 313.9L292.3 317.7L293.9 318.2L295.9 317.1L300 317.4L300.8 318.7H306.4L306.6 317.4L309.5 316.1L310 314.3L312.1 313L316.9 316.7L319.8 316L322.5 311.4L325.5 307.9L325 304L323.5 302.2L326.9 301.8L327.3 300.4L329.9 300.8L329.3 305.6L330.2 310.2L333.1 312.7L333.9 314.9L333.8 318.1L334.6 318.3V318.3Z" fill="#F0F0F0" stroke="black" stroke-width="0.5" stroke-linecap="round" stroke-linejoin="round"/>
<path d="M74.5 285.2L74.7 289.2L75.8 292.9L77.8 294.7L78.3 297.1L78 299.1L77.2 299.5L74.1 299L73.7 299.7L72.5 299.8L68.4 298.3L65.7 298.2L55.3 297.9L53.8 298.7L51.9 298.5L48.9 299.5L48.1 294.6L53.2 294.7L54.6 293.8H55.6L57.7 292.3L60.1 293.6L62.5 293.8L65 292.3L63.9 290.5L62 291.5H60.3L58.1 289.9L56.3 290L55 291.6L48.9 291.7L46.6 286.7L43.9 284.5L46.4 283.2L49.2 278.7L50.6 275.4L52.6 273.4L55.3 273.9L58.1 272.5H61.2L63.9 274.3L67.5 276L70.9 280.8L74.5 285.2V285.2Z" fill="#F0F0F0" stroke="black" stroke-width="0.5" stroke-linecap="round" stroke-linejoin="round"/>
<path d="M85 325.1L82.4 328.1L79.8 331.5L79.5 333.4L78.1 335.5L76.6 335L72.6 332.4L69.6 329L68.7 326.6L68 321.9L71.1 319L71.7 317.3L72.7 315.9L74.3 315.7L75.6 314.5H80.1L81.7 316.8L82.9 319.5L82.7 321.4L83.6 323.1L83.5 325.4L85 325.1V325.1Z" fill="#F0F0F0" stroke="black" stroke-width="0.5" stroke-linecap="round" stroke-linejoin="round"/>
<path d="M258.5 95.4002L257.4 96.8002L258.1 99.2002L260.9 101.9L259.1 103.9L258.5 105.9L259.1 106.7L258.4 107.5L256 107.7L254.3 108L254 107.5L254.6 106.8L255 105.2L254.3 105.3L253.2 104.1L252.3 103.8L251.5 102.8L250.5 102.4L249.7 101.5L248.8 101.9L248.3 104L247.1 104.4L247.5 103.9L245.4 102.6L243.7 101.9L242.8 101L241.4 99.9002L242.5 99.6002L243 96.7002L240.3 94.2002L241.4 91.4002L239.5 91.5002L241.2 89.1002L239.5 87.3002L238 84.8002L241.7 83.2002L244.9 83.5002L247.9 85.9002L248.7 88.0002L251.9 89.4002L252.6 92.0002L255.7 93.9002L257.2 92.5002L258.5 93.2002L257.5 94.3002L258.5 95.4002V95.4002Z" fill="#F0F0F0" stroke="black" stroke-width="0.5" stroke-linecap="round" stroke-linejoin="round"/>
<path d="M254.6 64.9004L253.4 66.6004L252.7 69.1004L251.7 69.7004L246.2 67.8004L244.6 68.2004L243.6 69.7004L241.3 70.5004L240.7 70.1004L238.4 71.0004L236.5 71.2004L236.2 72.5004L232.1 73.2004L230.2 72.6004L227.5 70.9004L226.8 68.8004L227.1 68.0004L227.7 66.6004L229.9 66.7004L231.5 66.1004L231.6 65.5004L232.5 65.2004L232.7 63.8004L233.8 63.5004L234.5 62.4004H236L236.3 62.8004L238.2 61.9004L240.9 64.1004L243.7 62.8004L246.1 63.4004L249.6 62.5004L254.6 64.9004V64.9004Z" fill="#F0F0F0" stroke="black" stroke-width="0.5" stroke-linecap="round" stroke-linejoin="round"/>
<path d="M226.3 81.1004L222.4 82.8004L222.1 85.3004L220.4 86.0004L220.5 87.7004L218.5 87.6004L216.7 86.6004L215.9 87.6004L212.3 87.4004L213.4 86.9004L212 84.2004L212.4 81.1004L216.6 81.6004L219 80.1004L223.4 80.0004L224.3 78.9004L225.1 79.0004L226.3 81.1004V81.1004Z" fill="#F0F0F0" stroke="black" stroke-width="0.5" stroke-linecap="round" stroke-linejoin="round"/>
<path d="M318.2 544.9L318.8 547.8L319.1 550.7L317.7 553.5L314.5 554.2L311.4 550.7L311.5 548.5L313.2 546.1L313.8 544.2L315.5 543.8L318.2 544.9V544.9Z" fill="#F0F0F0" stroke="black" stroke-width="0.5" stroke-linecap="round" stroke-linejoin="round"/>
<path d="M351.5 164.7L341.8 171.6L335.5 169H335.4L336 168L335.6 165.4L336.5 161.9L339.2 159.4L338 156.9L335.5 156.6L334.4 151.7L335.4 149L336.7 147.6L337.9 146.2L337.7 142.7L339.6 143.9L345.2 142.1L348.2 143.3H352.6L358.3 140.9L361.2 141L367.1 140L365 144L362.3 145.6L363.5 150.3L362.5 158L351.5 164.7V164.7Z" fill="#F0F0F0" stroke="black" stroke-width="0.5" stroke-linecap="round" stroke-linejoin="round"/>
<path d="M275.7 253.3L276.8 278.8L272 278.3L269.5 283.1L268.2 287L269.4 288.5L267.6 290.5L268.3 293.2L266.9 295.8L266.4 298.2L268.3 297.8L269.6 300.3L269.7 304L271.8 305.9V307.5L268.2 308.6L265.4 311.2L261.4 318.2L256.2 321.2L250.7 320.8L249.1 321.4L249.7 323.6L246.8 325.9L244.4 328.4L237.3 330.8L235.9 329.4L234.9 329.2L233.9 330.9L229.3 331.4L230.1 329.6L228.3 325.2L227.5 322.6L225 321.5L221.6 317.7L222.8 314.7L225.4 315.3L227 314.9H230.2L227 309.1L227.2 304.8L226.7 300.6L224.4 296.5L225 293.4L221.3 293.3V289.2L218.9 286.8L221.2 278.3L228.2 272.3L228.4 263.9L230.2 250.9L231.4 248.1L229 245.9L228.9 243.9L226.7 242.2L225.1 232.2L230.6 228.7L253.1 241L275.7 253.3V253.3Z" fill="#F0F0F0" stroke="black" stroke-width="0.5" stroke-linecap="round" stroke-linejoin="round"/>
<path d="M147.9 308.4L147.2 311.8L148.9 313.7L150.9 315.9L151.1 319.1L152.3 320.4L152 335.2L153.4 339.6L148.9 341L147.6 338.7L146.1 334.6L145.6 331.4L146.9 325.7L145.5 323.3L144.9 318.3V313.6L142.6 310.3L143 308.3L147.9 308.4V308.4Z" fill="#F0F0F0" stroke="black" stroke-width="0.5" stroke-linecap="round" stroke-linejoin="round"/>
<path d="M513.5 120.8L512.1 122.7L506.1 121.7L506.7 125.3L512.2 124.8L519.3 126.9L528.9 125.9L532 131.9L533.5 131.2L537.2 132.7L537.7 135.2L539.5 138.8H534.1L530.3 138.3L527.8 141.2L525.6 141.8L524.1 143.2L521.4 141.1L520.5 135.7L518.8 135.4L518.9 133.4L515.6 132L513.9 134.2L514.1 136.8L513.5 137.7L510.3 137.6L509.4 140.5L507.3 139.3L503.9 141.3L502.1 140.6L503.4 134.1L501 129.3L496.8 127.8L497.4 125L501.8 125.3L503.3 121.8L503.8 117.7L510.3 116.2L510.1 119.2L511.4 120.9L513.5 120.8V120.8Z" fill="#F0F0F0" stroke="black" stroke-width="0.5" stroke-linecap="round" stroke-linejoin="round"/>
<path d="M494.8 139.2L493.2 139L490.3 137.3L490 139.5L485.8 140.8L486 145.9L483.4 147.9L479.4 148.8L479 151.7L475.1 152.6L469.2 150.1L467.5 144.8L463.5 144.5L456.2 138.9L451.9 138.2L445.3 134.9L441.4 134.3L439.4 135.5L435.8 135.3L432.8 139L428.4 140.2L426.5 135.7L425.9 129L421.3 126.8L421.7 122.5L418.2 122.1L418.1 116.7L423.4 118.3L427.5 116.3L422.8 112.4L420.4 108.8L416.6 110.4L417.2 115.1L414.6 111L416.4 108.8L422 107.5L425.9 109.3L430.7 114.3L433.3 114L439.2 113.9L437.5 110.7L441.3 108.5L444.7 104.8L452.6 108.2L454.5 113.2L456.8 114.5L462.3 114.2L464.4 115.4L468.7 122L475.8 126.4L480 129.4L486.3 132.5L494 135.3L494.8 139.2V139.2Z" fill="#F0F0F0" stroke="black" stroke-width="0.5" stroke-linecap="round" stroke-linejoin="round"/>
<path d="M204.7 166.3L204.6 171.2L202 173L200.4 175.1L196.8 177.6L197.4 180.2L197 183L194.4 184.4L191.8 172.9L188.4 170.3L188.3 168.8L183.8 164.9L183.2 160.1L186.4 156.5L187.5 151.2L186.5 145.1L187.5 141.8L193.2 139.3L196.9 140V143.3L201.3 140.9L201.7 142.1L199.2 145.3L199.3 148.2L201.2 149.8L200.7 155.4L197.2 158.6L198.4 162.1L201.2 162.2L202.6 165.3L204.7 166.3V166.3Z" fill="#F0F0F0" stroke="black" stroke-width="0.5" stroke-linecap="round" stroke-linejoin="round"/>
<path d="M358.2 112.5L363.7 112.2L369.3 115.4L370.6 117.6L370.7 120.7L374.9 122.3L377.3 124.1L374 126L376.9 133.3L376.2 135.3L380 140.4L377.6 141.5L375.5 139.9L369.2 139L367.1 140L361.2 141L358.3 140.9L352.6 143.3H348.2L345.2 142.1L339.6 143.9L337.7 142.7L337.9 146.2L336.7 147.6L335.4 149L333.1 146.1L334.8 143.7L331.6 144.3L327 142.8L323.8 146.5L315.8 147.2L311.1 143.8L305.4 143.6L304.4 146.2L300.8 147L295.4 143.6L289.6 143.7L285.8 137.3L281.6 133.8L283.6 128.8L280 125.7L285.1 119.6L293.1 119.4L294.7 114.5L304.7 115.4L310.3 111.3L316.1 109.5L324.6 109.3L334.4 113.8L342.3 116.3L348.1 115.3L352.7 115.9L358.2 112.5Z" fill="#F0F0F0" stroke="black" stroke-width="0.5" stroke-linecap="round" stroke-linejoin="round"/>
<path d="M278.4 117.1L279.6 116.4L280.7 112.4L278 110.7L283 108.7L287.6 109.5L288.5 112L293.3 114L292.6 115.6L286.4 115.9L284.4 117.9L280.5 121.3L278.5 118.4L278.4 117.1Z" fill="#F0F0F0" stroke="black" stroke-width="0.5" stroke-linecap="round" stroke-linejoin="round"/>
<path d="M323.5 385.6L323.3 389.5L322.2 394L323.8 396.5L326.3 395L329.6 394.6L330.3 395.4L333.6 393.8L331.3 391.6L333.2 388.7L336 385.8L356.5 398.9L356.8 402.6L364.9 409L362.1 417L362.4 420.6L365.9 422.9L366.1 424.6L364.4 428.5L364.7 430.4L364.3 433.5L366.1 437.5L368.3 443.9L370.3 445.3L365.7 449L359.5 451.5L356.1 451.4L354 453.3L350.1 453.5L348.6 454.3L341.9 452.5L339.7 452.7L339.8 452.6L338 450.2L337.7 443.4L334.8 440L334.4 441.2L333.4 439.5L327.9 438.3L324.7 436.4L321.1 435.3L318.9 434.2L318.6 434L315.9 427.4L315.5 423.5L311 419.1L312.4 416.7L311.3 414.1L311.5 411.4L310.5 410.5L310.8 407.7L311.4 407.6L313.4 405.3L315.7 401.9L317.1 400.6V398.5L315.9 397L315.6 394.5L317.2 393.7L317.5 389.9L315.3 386.3L317.3 385.5L323.5 385.6V385.6Z" fill="#F0F0F0" stroke="black" stroke-width="0.5" stroke-linecap="round" stroke-linejoin="round"/>
<path d="M335.5 351.7L338.2 356.2L338.9 359.4L341.5 366.8L339.4 371.5L336.6 375.7L335 378.3V378.6L334.8 378.2L331.8 376.9L329.4 378.5L325.8 379.4L323.2 383.1L323.5 385.6L317.3 385.5L315.3 386.3L311.9 388.3L310.5 387.6L310.6 382.8L311.9 380.3L312.2 375.2L313.4 372.2L315.6 368.9L317.7 367.1L319.6 364.9L317.3 364L317.6 356.5L319.9 354.7L323.5 356.2L328 354.7H332L335.5 351.7V351.7Z" fill="#F0F0F0" stroke="black" stroke-width="0.5" stroke-linecap="round" stroke-linejoin="round"/>
<path d="M313.7 51.8003L316 54.5003L316.1 55.7003L322.8 57.9003L326.4 56.9003L330 59.8003L332.9 59.7003L340.6 61.7003L341 63.6003L339.7 66.8003L341.5 70.3003L341.2 72.4003L336.4 72.8003L334.2 74.6003L334.6 77.3003L330.7 77.8003L327.7 79.9003L323.1 80.2003L319.1 82.6003L320.1 86.5003L322.9 88.0003L328 87.6003L327.4 89.9003L322 91.0003L315.7 94.6003L312.6 93.3003L313.3 90.4003L307.4 88.5003L308.1 87.3003L312.7 85.2003L311 83.8003L302.9 82.2003L302.1 79.8003L297.6 80.6003L296.3 84.1003L293 88.7003L290.6 87.6003L288.3 88.7003L285.9 87.5003L287.1 86.8003L287.7 84.7003L288.8 82.6003L288.2 81.5003L289.2 81.0003L289.8 81.9003L292.8 82.1003L294.1 81.6003L293.1 81.0003L293.3 80.0003L291.3 78.4003L290.2 75.8003L288.2 74.8003L288.3 72.7003L285.7 71.0003L283.7 70.7003L279.7 68.8003L276.5 69.4003L275.4 70.3003H273.3L272.3 71.8003L268.7 72.4003L267.1 73.4003L264.6 71.8003H261.4L258.2 71.1003L256.2 72.5003L255.7 70.8003L252.7 69.1003L253.4 66.6003L254.6 64.9003L255.7 65.3003L254.1 62.5003L257.9 57.3003L260.2 56.6003L260.5 54.9003L257.3 49.5003L259.6 49.2003L262 47.6003L265.8 47.4003L270.7 47.9003L276.4 49.4003L280.3 49.5003L282.2 50.4003L283.9 49.3003L285.4 50.8003L289.7 50.5003L291.8 51.1003L291.5 48.0003L292.8 46.6003L296.9 46.3003L298.7 46.5003L299.7 45.1003L301.2 45.4003L306.1 44.8003L309.9 48.3003L309 49.6003L309.8 51.5003L313.7 51.8003V51.8003Z" fill="#F0F0F0" stroke="black" stroke-width="0.5" stroke-linecap="round" stroke-linejoin="round"/>
<path d="M509.2 107.9L510.9 108.5L507.9 112.6L512.5 115L515.7 113.4L522.9 116.8L517.6 121.4L513.5 120.8L511.4 120.9L510.1 119.2L510.3 116.2L503.8 117.7L503.3 121.8L501.8 125.3L497.4 125L496.8 127.8L501 129.3L503.4 134.1L502.1 140.6L497.8 139.2H494.8L494 135.3L486.3 132.5L480 129.4L475.8 126.4L468.7 122L464.4 115.4L462.3 114.2L456.8 114.5L454.5 113.2L452.6 108.2L444.7 104.8L441.3 108.5L437.5 110.7L439.2 113.9L433.3 114L427.1 90.6004L439.1 86.9004L440.2 87.4004L449.4 91.9004L454.2 94.3004L460.8 100L466.5 99.1004L475.1 98.6004L482.7 103.2L484.2 109.6L486.8 109.7L489.3 114.9L496 115.1L498.3 118.1H500.3L501.2 113.5L506.6 109.1L509.2 107.9V107.9Z" fill="#F0F0F0" stroke="black" stroke-width="0.5" stroke-linecap="round" stroke-linejoin="round"/>
<path d="M440.3 272.1L436.3 273.8L435.4 276.7V278.9L430 281.6L421.2 284.6L416.5 289.1L414 289.5L412.3 289.1L409.1 291.8L405.6 293L400.9 293.3L399.5 293.7L398.4 295.4L396.9 295.9L396.1 297.5L393.3 297.3L391.6 298.2L387.6 297.9L386 294.1V290.6L385 288.7L383.7 284L381.9 281.4L383 281L382.3 278.1L382.9 276.9L382.5 274.1L384.9 272L384.1 269.3L385.4 266.2L387.8 267.8L389.3 267.2L395.7 267.1L396.8 267.7L402.3 268.4L404.4 268.1L405.9 270.2L408.5 269.1L412 262.4L417 259.5L432.9 257L438.1 267.6L440.3 272.1V272.1Z" fill="#F0F0F0" stroke="black" stroke-width="0.5" stroke-linecap="round" stroke-linejoin="round"/>
<path d="M318.6 434L318.9 434.2L321.1 435.3L324.7 436.4L327.9 438.3L330.5 441.2L331.8 446.6L330.8 448.3L329.5 453.5L330.4 458.9L328.6 461.1L326.6 467.1L329.5 468.7L312.3 474L312.7 478.6L308.4 479.5L305.1 482L304.3 484.2L302.3 484.8L297.2 490L294 494.2L292.1 494.3L290.3 493.6L284.1 492.9L283.1 492.4V491.9L280.9 490.4L277.3 490.1L272.7 491.5L269.1 487.5L265.5 482.3L266.3 461.8L278 461.9L277.6 459.7L278.5 457.3L277.6 454.3L278.3 451.2L277.7 449.2L279.6 449.3L279.9 451.3L282.6 451.2L286.1 451.8L288 454.7L292.4 455.6L295.9 453.6L297.1 456.9L301.4 457.8L303.4 460.6L305.6 464.1H309.9L309.7 457.2L308.1 458.4L304.2 455.9L302.7 454.7L303.6 448.3L304.7 440.7L303.5 437.9L305.2 433.8L306.7 433L314.4 431.9L315.3 432.2L315 433.6L316.9 434.1L318.1 435.4L319.1 435.1L318.6 434V434Z" fill="#F0F0F0" stroke="black" stroke-width="0.5" stroke-linecap="round" stroke-linejoin="round"/>
<path d="M315.9 521.9L313 521.2L311.1 522L308.4 520.9H306.2L302.8 518L298.5 517L297 512.9L297.1 510.6L294.8 509.9L288.7 502.9L287.1 499.2L286 498L284.1 492.9L290.3 493.6L292.1 494.3L294 494.2L297.2 490L302.3 484.8L304.3 484.2L305.1 482L308.4 479.5L312.7 478.6L312.9 481L317.6 480.9L320.2 482.2L321.3 483.8L324 484.3L326.8 486.3L326.4 494.5L325.1 498.9L324.7 503.7L325.5 505.6L324.6 509.4L323.8 510L322.1 514.6L315.9 521.9V521.9Z" fill="#F0F0F0" stroke="black" stroke-width="0.5" stroke-linecap="round" stroke-linejoin="round"/>
<path d="M378.6 389.8L375.3 384.5L375.1 361.1L380 353.9L381.5 351.8L385.1 351.7L390.1 347.2L397.4 346.9L413 327.6L408.2 327.7L389.5 320.1L387.3 317.8L385.1 314.7L382.9 311.1L384.1 308.9L386 305.4L387.9 306.6L389.1 309.3L391.8 312H394.6L399.8 310.3L405.9 309.6L410.8 307.6L413.6 307.2L415.6 306L418.8 305.8L420.6 305.6L423.1 304.7L426.1 304L428.6 301.8H430.8L431 303.6L430.6 307.3L430.8 310.7L429.7 313L428.3 320L425.9 327.1L422.6 335.3L418 344.7L413.3 351.9L406.7 360.7L401.1 365.9L392.7 372.3L387.4 377.1L381.2 384.9L379.9 388.3L378.6 389.8V389.8Z" fill="#F0F0F0" stroke="black" stroke-width="0.5" stroke-linecap="round" stroke-linejoin="round"/>
<path d="M254.3 108L253.1 108.3L250.2 109.3L250.1 110.6L249.4 110.5L248.8 108.2L247.5 107.5L246.3 105.8L247.1 104.4L248.3 104L248.8 101.9L249.7 101.5L250.5 102.4L251.5 102.8L252.3 103.8L253.2 104.1L254.3 105.3L255 105.2L254.6 106.8L254 107.5L254.3 108V108Z" fill="#F0F0F0" stroke="black" stroke-width="0.5" stroke-linecap="round" stroke-linejoin="round"/>
<path d="M315.9 521.9L318.1 530.9L319.2 535.5L317.8 542.6L318.2 544.9L315.5 543.8L313.8 544.2L313.2 546.1L311.5 548.5L311.4 550.7L314.5 554.2L317.7 553.5L319.1 550.7H323.2L321.5 555.4L320.5 560.7L318.8 563.6L314.8 566.9L313.7 567.8L311.1 571.1L309.3 574.4L305.8 579L299.1 585.6L295 589.4L290.7 592.4L284.8 594.8L282.1 595.2L281.2 597L278 596L275.3 597.2L269.6 596L266.3 596.8L264.1 596.4L258.3 599L253.7 600L250.2 602.4L247.8 602.6L245.7 600.3L243.9 600.2L241.7 597.3L241.4 598.2L240.8 596.5L241.1 592.7L239.6 588.4L241.4 587.2L241.5 582.3L238.2 576.3L235.8 570.9V570.8L232.2 562.5L235 559.3L237 561.1L237.8 563.8L240.3 564.3L243.7 565.5L246.6 565L251.6 561.7L252.7 538L254.1 539L257.1 545.1L256.5 549L257.6 551.3L261.6 550.6L264.4 547.7L267.1 545.8L268.6 542.7L271.4 541.3L273.7 542L276.2 543.8L280.7 544.1L284.3 542.7L284.9 540.7L286.1 537.6L289.1 537.1L290.9 534.7L292.9 530.4L298.1 525.6L306.2 520.9H308.4L311.1 522L313 521.2L315.9 521.9V521.9ZM295.6 575.1L296.7 573.1L299.8 572.1L300.9 570L302.8 566.9L301.1 564.9L298.9 562.9L296.2 564.3L293.1 566.8L289.9 570.8L293.6 575.8L295.6 575.1V575.1Z" fill="#F0F0F0" stroke="black" stroke-width="0.5" stroke-linecap="round" stroke-linejoin="round"/>
<path d="M173 54.3001L170.2 52.8001L167.1 50.1001L162.6 51.4001L159 50.9001L161.5 49.2001L165.5 40.2001L172 37.6001L176 37.8001L176.9 39.9001L176 45.5001L174.8 47.8001H171.9L173 54.3001V54.3001Z" fill="#F0F0F0" stroke="black" stroke-width="0.5" stroke-linecap="round" stroke-linejoin="round"/>
<path d="M103.4 140.9L101.2 142.5L98.4 141.6L95.7 142.3L96.6 137.3L96.3 133.4L93.9 132.8L92.8 130.4L93.3 126.2L95.5 123.9L96 121.3L97.2 117.5V114.8L96.3 112.5L96.1 110.3L98 108.7L100.2 107.8L101.4 110.9H104.4L105.3 110.1L108.4 110.3L109.7 113.5L107.3 115.2L107 120.2L106.2 121.1L105.9 124.2L103.6 124.7L105.6 128.5L104 132.7L105.8 134.6L105 136.3L103 138.7L103.4 140.9V140.9Z" fill="#F0F0F0" stroke="black" stroke-width="0.5" stroke-linecap="round" stroke-linejoin="round"/>
<path d="M251.1 32.6004L242.3 32.7004L236.4 32.0004L237.1 29.4004L243.4 27.4004L248.5 28.5004L250.7 29.4004L250.5 31.1004L251.1 32.6004Z" fill="#F0F0F0" stroke="black" stroke-width="0.5" stroke-linecap="round" stroke-linejoin="round"/>
<path d="M133.1 100.6L135.1 103L144.6 105.9L146.5 104.5L152.3 107.4L158.2 106.6L158.6 110.3L153.7 114.5L147.1 115.9L146.6 118L143.4 121.5L141.4 126.7L143.4 130.4L140.4 133.2L139.2 137.4L135.2 138.7L131.5 143.6L124.7 143.7L119.7 143.6L116.3 145.8L114.2 148.2L111.6 147.7L109.7 145.5L108.3 141.9L103.4 140.9L103 138.7L105 136.3L105.8 134.6L104 132.7L105.6 128.5L103.6 124.7L105.9 124.2L106.2 121.1L107 120.2L107.3 115.2L109.7 113.5L108.4 110.3L105.3 110.1L104.4 110.9H101.4L100.2 107.8L98 108.7L96.1 110.3L96.6 105.8L94.6 103.1L102 98.5L108.2 99.6H115.1L120.5 100.7L124.8 100.3L133.1 100.6V100.6Z" fill="#F0F0F0" stroke="black" stroke-width="0.5" stroke-linecap="round" stroke-linejoin="round"/>
<path d="M192.2 108.6L190.7 113.5L188.3 112.2L187 108L187.9 105.6L191.1 103.2L192.2 108.6Z" fill="#F0F0F0" stroke="black" stroke-width="0.5" stroke-linecap="round" stroke-linejoin="round"/>
<path d="M170.9 62.2001L172 62.7001L173.4 62.6001L175.8 64.2001L183 65.4001L180.6 69.6001L180.2 74.1001L178.9 75.2001L176.6 74.6001L176.8 76.2001L173.2 79.7001V82.6001L175.6 81.6001L177.4 84.3001L177.3 86.1001L178.8 88.5001L177.1 90.4001L178.6 95.3001L181.4 96.1001L180.9 98.8001L176.4 102.4L166.2 100.7L158.8 102.8L158.2 106.6L152.3 107.4L146.5 104.5L144.6 105.9L135.1 103L133.1 100.6L135.8 96.8001L136.8 84.2001L131.7 77.6001L128 74.4001L120.4 72.0001L120 67.4001L126.5 66.1001L134.8 67.7001L133.3 60.6001L138 63.3001L149.4 58.5001L150.9 53.4001L155.1 52.1001L155.9 54.3001L158.1 54.4001L160.5 56.9001L164 59.8001L166.5 59.3001L170.9 62.2001Z" fill="#F0F0F0" stroke="black" stroke-width="0.5" stroke-linecap="round" stroke-linejoin="round"/>
<path d="M420.6 210.5L420.9 210.6L421.1 210.5L421.5 211.2L421.4 211.4L421.5 212.3V213L421.3 213.4L421.2 213L420.6 212.2L420.7 211.8L420.5 211.1V210.7L420.6 210.5Z" fill="#F0F0F0" stroke="black" stroke-width="0.5" stroke-linecap="round" stroke-linejoin="round"/>
<path d="M389.7 458.5L388.8 458.4L388.6 458V457.7L389.1 457.8L389.8 458.3L389.7 458.5Z" fill="#F0F0F0" stroke="black" stroke-width="0.5" stroke-linecap="round" stroke-linejoin="round"/>
<path d="M393.4 456.6L393.6 457.6V458.3L393.5 458.5L393.3 458.2L392.9 457.9L392.8 457.7L392.5 457.6L391.9 457.2L392 457.1L392.5 457.3L392.8 457.2L393 456.8V456.6L393.3 456.5L393.4 456.6Z" fill="#F0F0F0" stroke="black" stroke-width="0.5" stroke-linecap="round" stroke-linejoin="round"/>
<path d="M387.7 455.6L387.2 455.2L386.9 455.1L386.6 454.9L386.4 454.3L386.5 454V453.8L386.7 452.6L386.6 452.5L386.8 452.1L387.3 452L387.5 452.3L387.3 453.5L387.4 453.8L387.6 454.2L387.7 454.7L387.9 455.3L387.7 455.6Z" fill="#F0F0F0" stroke="black" stroke-width="0.5" stroke-linecap="round" stroke-linejoin="round"/>
<path d="M4.29999 283.7L4.09998 284L3.90002 283.8V283.5L4.20001 283.4L4.29999 283.7Z" fill="#F0F0F0" stroke="black" stroke-width="0.5" stroke-linecap="round" stroke-linejoin="round"/>
<path d="M6.20001 283.8L6 283.9L5.59998 283.8L5.29999 283.5L5.20001 283.2L5.40002 282.8L5.90002 282.5H6.29999L6.5 283.2L6.40002 283.6L6.20001 283.8Z" fill="#F0F0F0" stroke="black" stroke-width="0.5" stroke-linecap="round" stroke-linejoin="round"/>
<path d="M9.70001 280.7L9.90002 280.8V281L10.1 281.2L10.5 281.7H10.7L10.9 282L11.1 282.5L11.3 282.7L11 283.2L10.7 283.3L10.2 283.2L9.90002 283.1L9.59998 282.8V282.6L9.40002 282.5L9.29999 282.1L9.40002 281.9V281.6L9.59998 281.2L9.40002 280.7H9.70001Z" fill="#F0F0F0" stroke="black" stroke-width="0.5" stroke-linecap="round" stroke-linejoin="round"/>
<path d="M12.8 280.7L13.1 280.8L13.2 281.4L13.1 281.8L12.7 282L12.3 281.6L12.5 281.2L12.4 281L12.8 280.7Z" fill="#F0F0F0" stroke="black" stroke-width="0.5" stroke-linecap="round" stroke-linejoin="round"/>
<path d="M14.8 275L15.1 274.8L15.6 275L15.7 275.2V275.9L15.3 276.2L15 276.4H14.7L14.2 276.2V275.7L14.4 275.5V274.9L14.5 274.8L14.8 275Z" fill="#F0F0F0" stroke="black" stroke-width="0.5" stroke-linecap="round" stroke-linejoin="round"/>
<path d="M6.79999 272.2L7.20001 272.1L7.5 272.3H7.90002L8.20001 272.5L8.29999 272.7H7.79999L7.09998 272.4L6.90002 272.5L6.59998 273.1L6.29999 272.5L6.20001 272.4L6.09998 272L6.40002 271.9L6.79999 272.2Z" fill="#F0F0F0" stroke="black" stroke-width="0.5" stroke-linecap="round" stroke-linejoin="round"/>
<path d="M14.6 271.7L14.7 271.8L14.6 272.4L14.4 272.5V272L14.2 271.7V271.4L14.1 271.1L14.5 270.8L14.7 271L14.6 271.6V271.7Z" fill="#F0F0F0" stroke="black" stroke-width="0.5" stroke-linecap="round" stroke-linejoin="round"/>
<path d="M3.29999 270.4L3.5 270.7L3.59998 271L2.90002 271.3L2.59998 271.1L2.40002 270.9L2.79999 270.5L3.29999 270.4Z" fill="#F0F0F0" stroke="black" stroke-width="0.5" stroke-linecap="round" stroke-linejoin="round"/>
<path d="M2.5 268.6L2.79999 268.7V268.9L3.09998 269.2L2.90002 269.6L2.29999 269.9L1.90002 270.3L1.20001 270.4V270.3V269.8L1 269.6V269.4L1.20001 269.2H1.40002L1.59998 269L2.29999 268.6H2.5Z" fill="#F0F0F0" stroke="black" stroke-width="0.5" stroke-linecap="round" stroke-linejoin="round"/>
<path d="M324.7 153.9L324.8 154.1L325.1 154.5L324.7 154.4H324.4L324 154.6L323.7 154.3V154L324 153.9L324.2 154L324.7 153.9Z" fill="#F0F0F0" stroke="black" stroke-width="0.5" stroke-linecap="round" stroke-linejoin="round"/>
<path d="M323 154.4V154.5L322.8 154.7L322.7 155.3L322.6 155.5H322.3L322.1 155.7L321.6 155.9L321.4 156L320.8 156.3L320.4 156.2L319.9 156.3L319.6 156.7L319.4 156.4L319.1 156.5H318.9L318.6 156.2L318.2 156.5H317.7L317.2 156.3L316.7 156.2L316.3 155.9L316 155.3L315.7 155L315.5 154.3L315.3 154L315.4 153.7L315.9 154L316.3 153.9L316.5 153.6L316.6 153.3L316.9 153.2L317.1 153.3L317.3 153.1H317.5L317.6 153.5L318.1 153.7L318.2 153.9H318.8L319.4 153.4L319.8 153.5L320.1 153.3L320.4 153.4L320.8 153.6L321 153.3H321.3L321.6 153.7V154.3L321.9 154.1L322.2 154.3L322.3 154.2L323 154.4Z" fill="#F0F0F0" stroke="black" stroke-width="0.5" stroke-linecap="round" stroke-linejoin="round"/>
<path d="M220.4 148.9L220.2 149.2L219.7 149L219.2 148.7V148.2L219.1 148.1H219.7L220.1 148.4L220.3 148.6L220.4 148.9Z" fill="#F0F0F0" stroke="black" stroke-width="0.5" stroke-linecap="round" stroke-linejoin="round"/>
<path d="M218.8 147.8L218.3 147.7V147.5L218.7 147.4L219.1 147.7L218.8 147.8Z" fill="#F0F0F0" stroke="black" stroke-width="0.5" stroke-linecap="round" stroke-linejoin="round"/>
<path d="M464.2 508L464.6 508.9L464.4 509.5L464 509.9L464.1 510.2L463.8 510.5L463.3 510.7H462.8L462.2 510.6L462.1 510.7L461.8 510.4L462 510.2L462.1 509.8L462.2 509.1L462.4 508.7L462.9 508.3L463 508.1L463.2 507.6L463.6 507.3L464 507.4L464.2 508Z" fill="#F0F0F0" stroke="black" stroke-width="0.5" stroke-linecap="round" stroke-linejoin="round"/>
<path d="M496 505.9L495.7 505.6L496.1 505.4L496.4 505.3L496.6 505.4L496.5 505.6L496 505.9Z" fill="#F0F0F0" stroke="black" stroke-width="0.5" stroke-linecap="round" stroke-linejoin="round"/>
<path d="M180.4 378.5H180.2L180 378.8H179.8L179.7 378.4L179.5 377.6V377.3L179.9 376.8L180.2 376.7L180.5 376.4L180.9 376.5L181.1 376.9L181.2 377.2L181.1 377.6L180.9 377.9L180.6 378.3L180.4 378.5Z" fill="#F0F0F0" stroke="black" stroke-width="0.5" stroke-linecap="round" stroke-linejoin="round"/>
<path d="M185 368.7L184.9 369L184.7 369.1L184.4 369V368.7L184.6 368.6V368.3L184.8 368.1L185.1 368.2L185 368.7Z" fill="#F0F0F0" stroke="black" stroke-width="0.5" stroke-linecap="round" stroke-linejoin="round"/>
<path d="M405.5 439.3L405.2 439.5H404.7L404.3 439.7H403.9V439.5H404.4L404.8 439.4L405.2 439.1H405.4L405.5 439.3Z" fill="#F0F0F0" stroke="black" stroke-width="0.5" stroke-linecap="round" stroke-linejoin="round"/>
<path d="M405 439L404.8 439.1H404.4V438.9L405 439Z" fill="#F0F0F0" stroke="black" stroke-width="0.5" stroke-linecap="round" stroke-linejoin="round"/>
<path d="M456.9 408.7L457.3 409.1L457.1 409.4L456.9 409.1L456.6 408.9L456.8 408.4L456.9 408.7Z" fill="#F0F0F0" stroke="black" stroke-width="0.5" stroke-linecap="round" stroke-linejoin="round"/>
<path d="M44.9 200.6L44.6 201.1L44.2 201.6L43.9 201.2H43.5L43.3 201L43.5 200.7L43.9 200.8L44.3 200.4L44.6 200.2L44.8 200.3L44.9 200.6Z" fill="#F0F0F0" stroke="black" stroke-width="0.5" stroke-linecap="round" stroke-linejoin="round"/>
<path d="M58.5 198.3V198.8L58.7 199.2L58.5 199.9L58.6 200.2L58.2 200.6L57.7 200.8L57.5 201L56.9 200.8L56.4 200.3L56.2 199.9V199.3L56.8 198.9L56.9 198.4V198.2L57.5 198.3H57.9L58.2 198.4L58.5 198.3Z" fill="#F0F0F0" stroke="black" stroke-width="0.5" stroke-linecap="round" stroke-linejoin="round"/>
<path d="M48.6 199.1H48.4L48.1 198.9L47.9 198.6L48 198.2L48.1 197.9H48.4H48.7L49.2 198.3L49.3 198.6L48.8 199.1H48.6Z" fill="#F0F0F0" stroke="black" stroke-width="0.5" stroke-linecap="round" stroke-linejoin="round"/>
<path d="M54.7 195.6V195.8L54.1 196.1L53.7 196.6L53.4 196.8V197.2L53 197.9L52.9 198.3L52.4 198.9L52.3 199.1H52.1L51.5 199.3L51.4 199.2L51.3 198.8L51 198.4L50.9 198.2L50.7 197.9V197.6L50.3 197L50.8 196.7L51.1 196.9L51.7 196.7H52.1L52.6 196.5L53.1 196.1V195.9L53.7 195.6H54.3L54.6 195.5L54.7 195.6Z" fill="#F0F0F0" stroke="black" stroke-width="0.5" stroke-linecap="round" stroke-linejoin="round"/>
<path d="M64.9 198.4L64.6 198.8L64.2 198.9L63.9 198.8H63.5V198.6H63.8L64.4 198.4L64.8 198.1L65.1 197.8L65.2 197.3L65.3 197L65.5 196.5L65.8 196.1L66.1 195.5L66.3 194.7L66.5 194.5L66.9 194.4L67.2 194.7L67.3 195.2L67.2 195.7L67.1 196.2V196.7L67 196.8L66.7 197.5L66.4 197.8L65.8 197.9L65.1 198.2L64.9 198.4Z" fill="#F0F0F0" stroke="black" stroke-width="0.5" stroke-linecap="round" stroke-linejoin="round"/>
<path d="M45.3 193.9L45.6 193.8L45.8 194.1L46 194.6L45.8 194.9L45.9 195.3L45.3 196.3L45.2 196.2L45.1 195.8L44.7 194.9L44.6 194.6L44.5 194.4L44.7 194L45 193.8L45.3 193.9Z" fill="#F0F0F0" stroke="black" stroke-width="0.5" stroke-linecap="round" stroke-linejoin="round"/>
<path d="M69.4 191.9V192.3L69.2 192.8L68.5 193.3L68 193.4L67.6 193.9L67.1 193.7V193.6L67.3 193.2V192.8L67.5 192.5L67.8 192.3H68.1L68.4 192H68.9L69 191.9L69.2 191.4L69.4 191.3L69.6 191.5L69.4 191.9Z" fill="#F0F0F0" stroke="black" stroke-width="0.5" stroke-linecap="round" stroke-linejoin="round"/>
<path d="M396.7 460.3L396.9 460.6L397.4 460.8V461.1L397.2 461.3L397.3 461.5L397 462.1L397.1 462.3L396.8 462.4L396.6 462.1V461.8L396.8 461.6L396.6 460.9L396.5 460.8L396.4 460.6L396.7 460.3V460.3Z" fill="#F0F0F0" stroke="black" stroke-width="0.5" stroke-linecap="round" stroke-linejoin="round"/>
<path d="M451.5 513H451.9L452.3 513.2L452.6 513.5V513.8L452.7 514.3L453 514.5L453.2 514.7L453.3 514.9L453.1 515.5L453 515.9L452.8 516.1L452.4 516.2H451.5L451.3 516L450.5 515.6L450.2 515.1V514.8L449.9 514.2L450 513.8L450.2 513.6L450.4 513.2H450.5L451 513H451.5V513Z" fill="#F0F0F0" stroke="black" stroke-width="0.5" stroke-linecap="round" stroke-linejoin="round"/>
<circle cx="164.6" cy="86.7002" r="5.5" fill="#209403" stroke="#F3755D" stroke-width="2"/>
<circle cx="194.6" cy="82.7002" r="5.5" fill="#209403" stroke="#FFF500" stroke-width="2"/>
<path d="M193.237 9.36903L196.509 11.6699L193.237 9.36903ZM193.689 8.66773L196.755 11.2362L193.689 8.66773ZM193.885 15.0712C194.061 14.9009 194.224 14.7296 194.377 14.5607L188.439 9.19977C188.391 9.25249 188.35 9.29504 188.315 9.32917L193.885 15.0712ZM195.167 13.5958C195.393 13.295 195.601 12.9989 195.784 12.7319L189.187 8.20671C189.034 8.42981 188.9 8.61994 188.772 8.78938L195.167 13.5958ZM196.289 11.9881C196.367 11.8742 196.439 11.769 196.509 11.6699L189.965 7.06816C189.866 7.20938 189.77 7.34835 189.68 7.48067L196.289 11.9881ZM196.509 11.6699C196.622 11.5089 196.712 11.3642 196.774 11.2624L189.927 7.12496C189.922 7.13236 189.924 7.12981 189.929 7.12081C189.935 7.11164 189.947 7.09319 189.965 7.06816L196.509 11.6699ZM196.91 11.0302C196.891 11.0592 196.839 11.1365 196.755 11.2362L190.623 6.09922C190.451 6.30457 190.317 6.49507 190.221 6.64172L196.91 11.0302ZM196.755 11.2362C196.895 11.07 197.014 10.9018 197.029 10.8805L190.538 6.20451C190.521 6.2284 190.522 6.22617 190.529 6.21677C190.534 6.21051 190.544 6.19715 190.558 6.17897C190.572 6.16109 190.594 6.1334 190.623 6.09922L196.755 11.2362ZM196.876 11.0513C196.807 11.1235 196.686 11.2448 196.514 11.3799C196.351 11.5086 196.061 11.7144 195.653 11.8863L192.547 4.51405C191.732 4.85717 191.23 5.37949 191.077 5.53976L196.876 11.0513Z" fill="#898989"/>
<path d="M311.566 587.798L313.393 591.356L311.566 587.798ZM319.703 583.239L321.286 586.912L319.703 583.239ZM274.422 609.975C274.588 609.917 274.753 609.859 274.918 609.801L272.244 602.261C272.089 602.316 271.933 602.371 271.778 602.425L274.422 609.975ZM275.902 609.447C276.231 609.328 276.559 609.207 276.885 609.086L274.096 601.588C273.789 601.702 273.48 601.816 273.17 601.928L275.902 609.447ZM277.865 608.717C278.192 608.593 278.517 608.468 278.84 608.342L275.94 600.886C275.635 601.005 275.328 601.123 275.02 601.24L277.865 608.717ZM279.813 607.96C280.138 607.831 280.461 607.701 280.783 607.57L277.777 600.157C277.472 600.28 277.166 600.403 276.859 600.525L279.813 607.96ZM281.749 607.174C282.072 607.041 282.392 606.907 282.712 606.772L279.603 599.401C279.3 599.529 278.996 599.656 278.691 599.782L281.749 607.174ZM283.672 606.364C283.992 606.226 284.311 606.088 284.628 605.949L281.423 598.619C281.121 598.751 280.818 598.883 280.514 599.013L283.672 606.364ZM285.581 605.529C285.899 605.388 286.215 605.246 286.53 605.103L283.234 597.814C282.934 597.95 282.632 598.085 282.33 598.219L285.581 605.529ZM287.477 604.672C287.793 604.527 288.107 604.381 288.42 604.235L285.04 596.984C284.74 597.124 284.44 597.263 284.138 597.402L287.477 604.672ZM289.36 603.794C289.673 603.646 289.985 603.498 290.296 603.349L286.838 596.134C286.54 596.277 286.24 596.42 285.94 596.562L289.36 603.794ZM291.229 602.898C291.541 602.747 291.851 602.596 292.16 602.444L288.633 595.263C288.335 595.41 288.036 595.556 287.736 595.701L291.229 602.898ZM293.087 601.986C293.396 601.833 293.704 601.679 294.01 601.525L290.422 594.375C290.125 594.524 289.827 594.673 289.528 594.821L293.087 601.986ZM294.932 601.06C295.239 600.905 295.545 600.749 295.851 600.593L292.21 593.469C291.912 593.621 291.615 593.773 291.316 593.924L294.932 601.06ZM296.766 600.123C297.072 599.965 297.376 599.808 297.679 599.651L293.994 592.55C293.697 592.704 293.4 592.858 293.102 593.011L296.766 600.123ZM298.59 599.176C298.894 599.018 299.197 598.859 299.499 598.7L295.778 591.618C295.481 591.774 295.184 591.93 294.886 592.085L298.59 599.176ZM300.405 598.223C300.707 598.064 301.008 597.904 301.309 597.745L297.563 590.676C297.266 590.834 296.969 590.991 296.671 591.148L300.405 598.223ZM302.211 597.266C302.512 597.106 302.812 596.946 303.112 596.787L299.35 589.726C299.052 589.885 298.755 590.044 298.456 590.202L302.211 597.266ZM304.011 596.307C304.31 596.148 304.61 595.988 304.908 595.829L301.141 588.771C300.842 588.931 300.544 589.09 300.245 589.249L304.011 596.307ZM305.804 595.35C306.103 595.191 306.401 595.032 306.699 594.873L302.936 587.813C302.637 587.973 302.337 588.133 302.038 588.292L305.804 595.35ZM307.593 594.397C307.891 594.238 308.189 594.08 308.487 593.922L304.738 586.855C304.438 587.014 304.137 587.174 303.837 587.334L307.593 594.397ZM309.379 593.45C309.677 593.293 309.974 593.136 310.272 592.979L306.548 585.899C306.246 586.058 305.944 586.217 305.642 586.376L309.379 593.45ZM311.163 592.512C311.461 592.356 311.758 592.201 312.055 592.047L308.367 584.948C308.063 585.106 307.76 585.264 307.457 585.422L311.163 592.512ZM312.947 591.585C313.096 591.509 313.244 591.432 313.393 591.356L309.738 584.239C309.586 584.318 309.433 584.396 309.281 584.475L312.947 591.585ZM313.393 591.356C313.552 591.274 313.709 591.192 313.863 591.11L310.096 584.052C309.978 584.115 309.859 584.178 309.738 584.239L313.393 591.356ZM314.777 590.605C315.079 590.433 315.371 590.261 315.654 590.092L311.55 583.225C311.305 583.372 311.061 583.515 310.816 583.654L314.777 590.605ZM316.492 589.584C316.763 589.418 317.037 589.248 317.293 589.09L313.096 582.28C312.824 582.447 312.57 582.605 312.308 582.766L316.492 589.584ZM318.061 588.621C318.31 588.47 318.555 588.324 318.8 588.182L314.787 581.261C314.49 581.434 314.201 581.606 313.921 581.775L318.061 588.621ZM319.519 587.777C319.754 587.65 319.989 587.526 320.227 587.407L316.64 580.256C316.314 580.419 315.999 580.585 315.694 580.751L319.519 587.777ZM320.932 587.069C321.049 587.016 321.167 586.964 321.286 586.912L318.119 579.566C317.95 579.639 317.783 579.713 317.619 579.788L320.932 587.069ZM321.286 586.912C321.477 586.83 321.666 586.745 321.85 586.659L318.468 579.409C318.338 579.469 318.222 579.522 318.119 579.566L321.286 586.912ZM322.845 586.176C323.124 586.037 323.47 585.863 323.747 585.725L320.172 578.567C319.832 578.737 319.578 578.866 319.279 579.015L322.845 586.176ZM324.593 585.308C324.867 585.177 325.135 585.052 325.397 584.935L322.142 577.627C321.791 577.783 321.451 577.942 321.126 578.099L324.593 585.308ZM326.157 584.615C326.405 584.517 326.638 584.434 326.855 584.365L324.423 576.743C324.013 576.874 323.614 577.019 323.232 577.169L326.157 584.615ZM327.457 584.2C327.548 584.181 327.629 584.166 327.702 584.155L326.498 576.246C326.245 576.284 325.998 576.331 325.757 576.383L327.457 584.2Z" fill="#898989"/>
<path d="M319.264 570.583L315.968 572.85L319.264 570.583ZM317.607 567.953L314.512 570.488L317.607 567.953ZM324.283 584.04C324.151 583.909 324.021 583.778 323.893 583.645L329.644 578.083C329.735 578.178 329.826 578.27 329.917 578.361L324.283 584.04ZM323.149 582.846C322.909 582.578 322.674 582.308 322.445 582.035L328.567 576.886C328.745 577.097 328.923 577.302 329.102 577.501L323.149 582.846ZM321.778 581.219C321.562 580.947 321.35 580.674 321.142 580.399L327.518 575.568C327.692 575.797 327.865 576.021 328.04 576.24L321.778 581.219ZM320.533 579.579C320.335 579.307 320.14 579.033 319.947 578.76L326.489 574.155C326.66 574.398 326.83 574.637 327.001 574.872L320.533 579.579ZM319.381 577.945C319.195 577.674 319.012 577.404 318.831 577.135L325.467 572.667C325.638 572.921 325.808 573.171 325.978 573.419L319.381 577.945ZM318.293 576.331C318.116 576.065 317.94 575.799 317.766 575.536L324.438 571.122C324.612 571.384 324.783 571.643 324.955 571.901L318.293 576.331ZM317.247 574.752C317.075 574.491 316.904 574.234 316.733 573.98L323.383 569.532C323.562 569.799 323.739 570.066 323.916 570.332L317.247 574.752ZM316.223 573.222C316.138 573.097 316.053 572.973 315.968 572.85L322.56 568.317C322.654 568.453 322.746 568.588 322.839 568.724L316.223 573.222ZM315.968 572.85C315.858 572.689 315.757 572.533 315.664 572.385L322.439 568.131C322.484 568.203 322.524 568.264 322.56 568.317L315.968 572.85ZM315.184 571.58C315.039 571.326 314.938 571.149 314.83 570.967L321.698 566.865C321.854 567.125 322.01 567.4 322.123 567.599L315.184 571.58ZM314.585 570.584C314.554 570.54 314.53 570.509 314.512 570.488L320.701 565.419C320.847 565.597 320.98 565.773 321.1 565.942L314.585 570.584ZM314.512 570.488C314.3 570.229 314.098 569.94 313.991 569.788L320.531 565.181C320.594 565.27 320.637 565.331 320.673 565.38C320.709 565.43 320.716 565.437 320.701 565.419L314.512 570.488ZM313.622 569.28C313.633 569.292 313.697 569.362 313.813 569.455C313.919 569.541 314.156 569.718 314.517 569.874L317.683 562.527C318.612 562.927 319.227 563.56 319.486 563.839L313.622 569.28Z" fill="#898989"/>
<path d="M408.675 189.122L404.744 189.859L408.675 189.122ZM408.374 187.369L404.47 188.241L408.374 187.369ZM406.243 197.26C406.197 197.092 406.152 196.922 406.108 196.751L413.861 194.778C413.893 194.904 413.925 195.025 413.957 195.14L406.243 197.26ZM405.873 195.765C405.802 195.45 405.734 195.13 405.668 194.809L413.503 193.197C413.561 193.479 413.619 193.749 413.677 194.008L405.873 195.765ZM405.482 193.876C405.423 193.57 405.365 193.264 405.309 192.958L413.175 191.503C413.229 191.794 413.283 192.08 413.337 192.36L405.482 193.876ZM405.144 192.055C405.09 191.759 405.036 191.455 404.983 191.165L412.856 189.743C412.91 190.044 412.962 190.333 413.016 190.63L405.144 192.055ZM404.824 190.291C404.797 190.145 404.77 190.002 404.744 189.859L412.607 188.385C412.635 188.537 412.664 188.689 412.692 188.841L404.824 190.291ZM404.744 189.859C404.708 189.67 404.677 189.486 404.651 189.32L412.549 188.048C412.57 188.18 412.589 188.29 412.607 188.385L404.744 189.859ZM404.518 188.491C404.498 188.373 404.482 188.294 404.47 188.241L412.278 186.497C412.327 186.718 412.367 186.932 412.4 187.12L404.518 188.491ZM404.47 188.241C404.437 188.093 404.406 187.931 404.386 187.83L412.243 186.319C412.253 186.374 412.261 186.415 412.268 186.45C412.275 186.486 412.278 186.499 412.278 186.497L404.47 188.241ZM404.304 187.419C404.3 187.401 404.311 187.45 404.338 187.536C404.353 187.58 404.381 187.666 404.427 187.777C404.466 187.871 404.559 188.085 404.72 188.339L411.48 184.061C411.782 184.539 411.922 184.987 411.954 185.087C412.013 185.27 412.056 185.437 412.083 185.55L404.304 187.419Z" fill="#898989"/>
<path d="M316.029 563.259C316.029 559.176 315.736 554.953 315.736 550.963C315.736 548.754 310.33 550.739 309.425 551.256C306.409 552.98 305.678 556.643 303.44 559.161C301.343 561.52 299.562 564.154 297.585 566.626C296.668 567.772 295.209 568.426 294.088 569.407C292.422 570.865 291.454 572.362 290.412 574.238C288.62 577.464 288.067 581.732 285.517 584.566C283.73 586.551 282.939 589.614 280.751 591.364C277.805 593.721 273.491 592.564 270.066 593.934C267.884 594.807 264.928 593.257 262.747 594.227C261.689 594.697 260.486 594.34 259.591 595.235C257.837 596.99 254.438 597.512 252.061 597.512C250.69 597.512 248.594 597.905 247.393 597.219C246.359 596.628 245.826 594.815 245.409 593.771C244.838 592.344 244.54 591.183 244.075 589.673C243.666 588.343 244.01 586.457 244.01 585.07C244.01 582.32 244.303 579.54 244.303 576.872C244.303 575.66 243.987 573.952 244.319 572.79C244.722 571.379 245.101 569.474 245.181 567.943C245.269 566.275 245.767 564.74 245.767 562.966C245.767 560.914 245.128 559.38 244.449 557.42C243.509 554.705 242.235 552.239 241.083 549.646C240.594 548.546 239.733 547.674 239.033 546.702C238.404 545.827 236.691 544.477 236.691 543.352" stroke="#FFF500" stroke-width="8" stroke-linecap="round"/>
<path d="M236.398 543.645C235.228 542.51 233.469 541.299 232.658 539.839C231.744 538.195 230.568 536.643 229.226 535.301C227.78 533.855 225.978 531.029 225.859 529.007C225.715 526.562 225.566 524.284 225.566 521.834C225.566 519.522 225.391 516.755 224.46 514.661C223.96 513.535 223.769 512.247 223.159 511.148C222.465 509.899 221.47 508.812 220.882 507.489C220.415 506.438 219.418 505.444 219.418 504.269C219.418 503.049 219.418 501.829 219.418 500.609C219.418 498.765 224.015 497.225 225.436 496.819C226.357 496.556 227.712 495.925 228.64 495.925C229.729 495.925 231.498 495.825 232.593 495.567C235.705 494.835 239.244 494.461 242.4 494.461C245.499 494.461 248.512 493.996 251.622 494.168C253.608 494.279 255.677 496.616 257.331 497.535C259.247 498.599 260.164 500.955 261.803 502.431C262.428 502.993 262.616 503.996 263.625 504.122C264.124 504.185 265.344 505.319 265.674 505.732C266.282 506.492 267.721 506.621 268.472 507.05C269.676 507.738 270.762 507.635 272.115 507.635C272.822 507.635 274.367 507.285 275.043 506.985C276.026 506.548 278.479 506.267 279.141 505.44C279.347 505.182 280.385 505.084 280.735 504.984C281.432 504.785 282.06 504.093 282.784 503.829C284.211 503.311 285.531 502.595 286.753 501.78" stroke="#FFF500" stroke-width="8" stroke-linecap="round"/>
<path d="M285.582 502.073C290.005 501.981 293.113 499.145 296.707 497.031C300.24 494.953 303.733 492.418 303.733 488.021C303.733 484.106 303.44 480.313 303.44 476.31C303.44 472.655 306.367 469.431 309.588 467.82" stroke="#FFF500" stroke-width="8" stroke-linecap="round"/>
<path d="M308.71 468.406C311.352 467.826 314.301 464.84 317.054 466.063C318.964 466.913 320.785 468.186 322.242 469.804C323.673 471.394 324.848 473.194 325.82 475.139C326.706 476.911 329.09 479.245 329.203 481.287C329.315 483.308 330.482 486.219 331.382 488.02C332.678 490.611 335.6 491.241 338.279 491.241C341.09 491.241 341.067 488.834 342.816 487.435C344.325 486.228 343.662 483.072 344.573 481.433C345.379 479.983 344.719 476.518 344.719 474.846C344.719 473.533 345.356 469.266 344.28 468.406C343.715 467.954 344.027 466.563 343.402 466.063C342.772 465.56 342.668 464.012 342.149 463.364C341.117 462.072 340.705 459.866 339.303 458.745C338.303 457.944 337.693 454.994 337.693 453.768C337.693 451.682 336.815 449.855 336.815 447.766C336.815 445.621 336.522 443.444 336.522 441.179C336.522 438.337 336.815 435.547 336.815 432.689" stroke="#FFF500" stroke-width="8" stroke-linecap="round"/>
<path d="M335.936 435.617C335.936 432.299 335.936 428.981 335.936 425.663C335.936 422.657 339.347 421.46 341.206 419.808C342.333 418.806 344.39 417.774 345.744 417.173C347.203 416.524 348.295 415.345 349.696 414.603C350.711 414.066 351.632 412.542 352.786 412.212C354.194 411.81 354.087 410.498 354.087 409.268C354.087 406.079 350.918 405.179 348.753 403.706C346.371 402.086 343.552 401.071 340.621 401.071C338.918 401.071 337.216 401.071 335.514 401.071C333.315 401.071 331.312 400.304 329.203 400.193C327.957 400.127 326.319 399.469 325.251 398.875C323.852 398.098 322.12 397.924 320.941 396.745C320.134 395.938 320.127 393.857 320.127 392.727C320.127 391.215 320.127 389.702 320.127 388.19C320.127 386.525 320.127 384.861 320.127 383.197C320.127 381.447 321.006 379.568 321.006 377.943C321.006 377.033 322.451 374.884 323.201 374.3C324.238 373.494 325.122 372.539 326.275 371.86C327.277 371.271 328.183 370.445 329.057 369.746C330.04 368.959 331.25 368.518 332.196 367.762C333.113 367.028 335.555 367.404 336.668 367.404C338.296 367.404 340.923 369.748 341.792 370.982C343.238 373.037 345.168 375.294 346.329 377.488C347.548 379.79 349.383 381.59 350.867 383.733C353.245 387.168 354.903 390.892 357.828 393.817C359.581 395.569 361.168 397.374 362.285 399.607" stroke="#FFF500" stroke-width="8" stroke-linecap="round"/>
<path d="M360.821 398.436C361.732 399.099 363.54 399.772 364.627 399.9C365.162 399.963 365.981 400.592 366.091 399.607C366.166 398.929 366.638 398.249 366.676 397.558C366.731 396.566 367.847 395.904 367.847 394.923C367.847 393.702 367.218 392.749 366.953 391.556C366.717 390.496 366.091 389.452 366.091 388.336C366.091 387.121 365.124 386.083 364.936 384.953C364.76 383.897 363.622 381.589 362.724 380.871C361.98 380.276 361.834 378.826 361.179 378.171C360.478 377.47 360.204 376.024 359.878 375.081C359.542 374.112 358.827 372.741 358.772 371.795C358.642 369.597 357.601 367.718 357.601 365.355C357.601 362.745 356.722 360.243 356.722 357.596C356.722 356.521 355.501 350.888 356.43 350.424" stroke="#FFF500" stroke-width="8" stroke-linecap="round"/>
<path d="M356.137 351.009C356.137 347.798 355.653 343.898 356.153 340.649C356.567 337.956 358.06 335.261 359.195 332.858C360.093 330.955 361.605 329.746 362.578 328.044C363.311 326.761 363.829 325.004 364.985 323.848C365.465 323.367 365.977 323.146 366.497 322.742C367.107 322.267 367.654 321.225 368.303 320.855C369.532 320.153 370.725 319.571 371.718 318.578C372.244 318.052 372.927 316.764 373.133 316.041C373.464 314.882 374.522 313.667 374.857 312.495C375.499 310.247 377.399 308.763 379.118 307.388C381.212 305.713 381.046 303.075 379.118 301.533C376.844 299.713 374.842 297.834 371.799 297.158C370.178 296.797 369.454 295.8 368.14 295.027C366.847 294.266 366.678 292.169 366.091 290.994" stroke="#FFF500" stroke-width="8" stroke-linecap="round"/>
<path d="M365.798 290.994C362.773 290.994 359.748 290.994 356.722 290.994C355.41 290.994 354.031 290.704 352.77 290.424C351.567 290.157 350.63 289.53 349.403 289.53C347.081 289.53 344.134 288.961 344.134 286.309C344.134 285.019 343.841 283.683 343.841 282.341C343.841 280.686 344.134 279.137 344.134 277.527C344.134 275.139 344.719 272.834 344.719 270.5C344.719 267.343 345.335 264.228 344.557 261.002C343.754 257.676 342.7 254.66 340.978 251.699C340.267 250.476 339.661 249.197 338.864 248.023C338.188 247.026 337.17 246.038 336.815 244.884C336.346 243.361 334.966 242.295 334.245 240.932C332.89 238.372 329.203 236.159 329.203 233.027" stroke="#FFF500" stroke-width="8" stroke-linecap="round"/>
<path d="M329.203 234.784C327.815 232.876 327.038 230.652 325.918 228.636C324.581 226.231 324.412 223.191 323.055 220.797C322.139 219.18 322.005 217.114 321.006 215.527C320.283 214.379 320.624 213.133 320.062 211.949C318.832 209.352 318.286 205.848 317.769 203.003C316.806 197.707 315.151 192.638 315.151 187.211C315.151 183.4 320.007 182.255 323.055 183.779C324.732 184.617 325.84 185.015 327.739 185.015C329.157 185.015 329.787 182.488 330.309 181.502C330.667 180.826 330.912 179.968 330.96 179.16C330.978 178.84 331.095 176.868 331.317 176.59C332.148 175.552 330.827 172.719 333.155 172.719C333.875 172.719 334.613 172.195 335.481 172.443C336.06 172.608 336.117 173.864 336.376 174.329C336.772 175.043 336.544 175.92 336.961 176.671C337.334 177.343 337.107 178.548 337.107 179.306C337.107 182.772 337.457 187.971 340.913 189.699" stroke="#FFF500" stroke-width="8" stroke-linecap="round"/>
<path d="M339.157 189.113C340.533 190.323 341.972 191.957 343.857 192.334C344.748 192.512 345.66 192.515 346.541 192.691C348.299 193.043 350.22 193.582 351.892 194.237C353.744 194.961 355.633 195.573 357.503 196.27C359.569 197.039 361.636 198.836 363.732 199.36C364.78 199.622 365.399 200.238 366.53 200.238C368.216 200.238 369.902 200.238 371.588 200.238C376.581 200.238 381.701 200.423 386.649 201.051C389.869 201.46 393.139 201.409 396.391 201.409C398.302 201.409 400.142 200.824 401.954 200.824C402.903 200.824 404.107 199.686 404.8 199.132C404.986 198.983 406.1 198.572 406.361 198.498C406.901 198.344 407.175 197.847 407.662 197.603" stroke="#FFF500" stroke-width="8" stroke-linecap="round"/>
<path d="M407.077 185.307C407.077 183.009 407.077 180.71 407.077 178.411C407.077 175.921 407.24 173.081 406.719 170.669C406.208 168.305 406.322 166.042 405.32 163.79C404.602 162.174 404.306 160.63 403.564 158.959C402.235 155.97 400.792 153.016 399.465 150.03C398.699 148.307 398.725 146.303 398.229 144.484C397.649 142.357 395.952 140.021 395.952 137.734C395.952 136.651 395.484 133.723 396.538 133.196" stroke="#FFF500" stroke-width="8" stroke-linecap="round"/>
<path d="M396.212 132.156C396.212 129.653 396.212 127.151 396.212 124.649C396.212 121.913 393.735 120.316 391.633 119.203C389.442 118.043 387.219 117.351 384.878 116.831C382.888 116.389 381.592 114.711 379.874 113.756C378.403 112.939 377.095 111.683 375.605 110.894C373.942 110.014 372.178 107.722 370.159 107.722C369.129 107.722 367.855 107.492 366.937 108.016C366.178 108.45 365.616 109.468 365.008 110.077C363.996 111.088 362.279 113.315 360.592 113.315" stroke="#FFF500" stroke-width="8" stroke-linecap="round"/>
<path d="M369.423 108.605C369.423 112.819 370.959 116.144 374.722 118.025" stroke="#3E4D74" stroke-width="8" stroke-linecap="round"/>
<path d="M360.886 113.315C358.91 114.155 358.878 116.196 357.223 117.142C355.796 117.957 354.63 118.934 353.069 119.644C351.294 120.451 349.215 120.456 347.475 120.953C346.721 121.168 345.629 120.969 344.842 120.969C343.922 120.969 343.087 121.558 342.193 121.558C341.652 121.558 340.203 121.996 339.69 122.212C338.723 122.619 337.209 122.735 336.158 122.735C335.052 122.735 333.623 122.985 332.56 122.67C331.582 122.38 330.642 121.611 329.681 121.558C328.708 121.504 327.773 121.026 326.738 120.969C325.876 120.921 325.021 120.675 324.088 120.675C322.31 120.675 319.919 120.934 319.018 122.735C317.32 126.132 313.969 128.512 311.577 131.436C309.002 134.583 308.063 138.585 304.806 141.118C302.119 143.208 299.428 144.839 296.122 142.819C293.638 141.301 289.645 137.894 289.645 134.805" stroke="#FFF500" stroke-width="8" stroke-linecap="round"/>
<path d="M288.96 135.095C288.96 134.388 288.63 132.469 289.327 131.911C289.813 131.523 290.227 130.414 290.552 129.83C291.292 128.498 291.899 126.307 291.899 124.81C291.899 123.673 292.206 120.892 291.286 120.157C290.078 119.19 290.048 117.087 289.014 115.939C288.214 115.05 287.518 113.518 286.633 112.81C285.984 112.29 285.573 111.452 284.797 111.041C284.176 110.712 283.532 110.338 283.028 109.926C282.239 109.28 279.796 107.667 278.797 107.667C276.802 107.667 274.806 107.667 272.811 107.667C270.813 107.667 267.913 107.131 265.995 107.722C264.266 108.253 262.853 109.197 261.287 109.98C259.649 110.799 259.083 111.729 259.083 113.545C259.083 115.381 259.083 117.218 259.083 119.055C259.083 120.646 259.083 122.238 259.083 123.83C259.083 124.564 258.758 125.054 257.981 125.054C257.508 125.054 256.964 124.977 256.525 125.177C255.936 125.445 255.99 125.064 255.546 124.81C253.061 123.39 249.777 120.503 249.777 117.463" stroke="#FFF500" stroke-width="8" stroke-linecap="round"/>
<path d="M250.267 118.687C250.267 116.763 249.815 114.962 249.301 113.164C248.992 112.082 248.553 110.766 248.553 109.626C248.553 108.285 248.384 106.969 249.043 105.817C249.664 104.73 250.405 103.068 251.492 102.524" stroke="#FFF500" stroke-width="8" stroke-linecap="round"/>
<path d="M249.714 102.246C255.183 101.046 257.378 94.3979 261.45 91.2309C264.084 89.1823 267.112 86.8098 269.137 84.2052C269.971 83.1327 271.746 82.1396 273.01 81.5779C274.715 80.8201 275.871 79.5279 277.564 78.7754C279.787 77.7876 283.118 75.503 283.675 72.9952C284.08 71.1722 284.746 69.4844 284.746 67.5654C284.746 65.4867 283.329 64.8932 282.371 63.3616C280.597 60.523 274.803 61.2951 272.057 60.4813C270.008 59.8743 267.934 59.3536 265.907 58.7298C264.563 58.3164 262.609 57.7567 261.275 57.7567C259.615 57.7567 258.036 56.8037 256.37 56.7057C255.74 56.6686 254.983 56.0427 254.269 56.0051C253.34 55.9563 252.396 56.0051 251.466 56.0051" stroke="#FFF500" stroke-width="8" stroke-linecap="round"/>
<path d="M251.466 56.0053C249.856 56.0053 246.74 55.6456 246.192 57.5623C246.004 58.22 244.282 59.792 243.837 60.2869C242.953 61.2692 242.151 62.4818 241.307 63.537C240.352 64.7305 238.403 66.0425 237.804 67.3904C237.544 67.9744 236.753 68.5321 236.753 69.142C236.753 70.0406 236.672 70.6381 236.325 71.419C235.655 72.9256 235.515 74.4892 234.729 75.9731C233.624 78.0604 228.034 77.9492 227.314 75.4281C226.801 73.6337 220.447 73.5209 218.712 73.5209C217.068 73.5209 215.458 73.6868 213.983 73.8712C212.643 74.0387 212.137 75.7401 211.453 76.5958C210.454 77.8444 209.531 78.9274 208.728 80.3325C207.748 82.0482 205.474 80.9168 204.524 82.1035C204.14 82.5845 200.389 83.3296 199.62 83.3296C198.382 83.3296 195.338 83.8743 194.716 82.629" stroke="#FFF500" stroke-width="8" stroke-linecap="round"/>
</svg>
