<?xml version="1.0" encoding="utf-8"?>
<!-- Generator: Adobe Illustrator 21.0.2, SVG Export Plug-In . SVG Version: 6.00 Build 0)  -->
<svg version="1.1" id="Layer_1" xmlns="http://www.w3.org/2000/svg" xmlns:xlink="http://www.w3.org/1999/xlink" x="0px" y="0px"
	 viewBox="0 0 922.2 200.9" style="enable-background:new 0 0 922.2 200.9;" xml:space="preserve">
<style type="text/css">
	.st0{fill:#FFFFFF;}
</style>
<title>explmore_b</title>
<path class="st0" d="M884.8,72.1V52.2h-7.4v-2.7h17.9v2.7h-7.4v19.9H884.8z"/>
<path class="st0" d="M900.7,72.1V49.6h4.5l5.3,16c0.5,1.5,0.9,2.6,1.1,3.3c0.3-0.8,0.7-2,1.2-3.6l5.4-15.7h4v22.6h-2.9V53.3
	l-6.5,18.9h-2.7l-6.5-19.2v19.2H900.7z"/>
<path class="st0" d="M6.4,74.6c4.1-7.8,10.4-14.1,18-18.3c7.8-4.2,16.8-6.4,27-6.4c13,0,22.9,3,29.9,9.1
	c6.9,6.1,10.5,14.8,10.8,26.1c0,7.9-0.5,13.8-1.4,17.9H31.1c0.7,11.3,3.5,19.7,8.4,25.2s11.2,8.2,19.2,8.2c4.9,0,9.8-0.9,14.4-2.4
	c4.3-1.3,8.4-3.1,12.2-5.4l5.4,11.4c-2.8,2.8-6,5.1-9.6,6.9c-4.6,2.5-9.5,4.5-14.5,5.9c-5.3,1.5-10.8,2.3-16.4,2.3
	c-11.4,0-20.9-2.2-28.5-6.5c-7.3-4.2-13.1-10.6-16.6-18.3c-3.5-7.8-5.3-17-5.3-27.5C0,92,2.1,82.6,6.4,74.6z M62.7,90.4l0.1-6.6
	c0-6.6-1.1-11.7-3.3-15.3s-6-5.4-11.3-5.4c-3.2-0.1-6.3,0.7-9,2.3c-2.5,1.5-4.4,4.3-5.9,8.3c-1.5,4-2.3,9.6-2.4,16.8L62.7,90.4z"/>
<path class="st0" d="M109.3,141l29.5-37.4l-30.5-39.1l-9.7-2.3V50h57.6v12.1l-11.6,2.3L158,83.1l4.8,8l4.6-7.9L181,64.5l-12.1-2.3
	V50.1h42.2v12.1l-10.9,2.3l-28.6,35.4l31.9,41.3l10.2,1.9v12.2h-57.1v-12.2l10.2-1.9l-13.2-20.2l-5.6-8.2l-4.2,8.1l-13.7,20.2
	l13.7,2v12.2H97.5v-12.2L109.3,141z"/>
<path class="st0" d="M263.5,154.7c-2-0.3-3.9-0.7-5.8-1.2l0.5,16.1v16.7l16.4,2.5v12.2h-57.9v-12.2l11.9-2.4V72.6l-11.3-3.4V50.1
	l32.8,0.1h0.5l5,4.1v9.9c3.4-4.1,7.6-7.5,12.3-10c5.3-2.8,11.2-4.2,17.1-4.2c7.3-0.1,14.5,1.7,20.8,5.3c6.2,3.5,11,8.9,14.7,16.3
	s5.4,16.8,5.5,28.1c0.1,9.7-2.2,19.2-6.6,27.8c-4.4,8.4-11,15.5-19.2,20.2c-8.4,5-18.5,7.5-30.2,7.5
	C267.9,155.2,265.6,155,263.5,154.7z M258.2,138.7c0.8,1.1,2.4,2,4.7,2.9c2.5,0.8,5.2,1.2,7.9,1.2c7,0,12.7-3.2,17-9.7
	c4.3-6.5,6.5-16.9,6.5-31.2c0-11.6-1.9-20.3-5.6-26s-8.7-8.5-15-8.5c-3.1,0-6.1,0.7-8.9,2c-2.5,1.1-4.7,2.7-6.6,4.6L258.2,138.7z"/>
<path class="st0" d="M343.8,140.9V18.3l-13.6-2.4V4.5L367.5,0h0.5l5.5,4.1v136.8l12.5,1.9v12.4h-54.6v-12.4L343.8,140.9z"/>
<path class="st0" d="M406.1,141.5V72.7l-11.4-3.6v-19l33.3-0.5h0.5l5,4.1v6.7l-0.1,4.3c3.2-3,6.8-5.5,10.8-7.4
	c4.5-2.3,9.2-4.1,14-5.4c4.1-1.2,8.4-1.9,12.7-2c6.8,0,12.4,1.2,16.6,3.5c4.3,2.4,7.7,6.2,9.5,10.8c4.8-4.3,10.2-7.7,16.2-10.1
	c6.3-2.7,13.1-4.1,19.9-4.2c7.6,0,13.7,1.4,18.2,4.3c4.5,2.9,7.7,7.3,9.7,13.2c2,6,3,13.8,3,23.4v50.6l11.5,1.7v11.9H525v-12
	l8.6-1.8V91.9c0.1-4.8-0.3-9.7-1.3-14.4c-0.9-3.5-2.4-6-4.6-7.5c-2.2-1.6-5.3-2.3-9.3-2.4c-3.3,0-6.5,0.8-9.5,2.2
	c-3.1,1.4-6.1,3.2-8.9,5.3c0.9,5.5,1.3,11.1,1.2,16.6v49.7l11.3,1.8v11.9h-51.5v-11.9l9.8-1.8V91.2c0.1-4.7-0.3-9.4-1.2-13.9
	c-0.5-2.9-2.1-5.5-4.3-7.4c-2.1-1.6-5.1-2.3-9-2.4c-3.7,0-7.3,0.8-10.6,2.3c-3.3,1.4-6.3,3.2-9,5.5v66l10.5,1.8v11.9h-51.2v-11.9
	L406.1,141.5z"/>
<path class="st0" d="M659.3,56.2c7.5,4.1,13.5,10.3,17.3,17.9c4,7.8,6,17.1,6,27.8c0,11.7-2.4,21.6-7.2,29.6
	c-4.5,7.7-11.2,13.9-19.2,17.9c-8.3,3.9-17.3,5.9-26.5,5.8c-10.5,0-19.5-2.1-27-6.2c-7.5-4.1-13.5-10.3-17.3-17.9
	c-4-7.8-6-17.1-6-27.8c0-11.4,2.4-21.1,7.2-29.2c4.6-7.8,11.3-14,19.3-18.1c8.2-4.1,17.2-6.2,26.4-6.1C642.8,50,651.8,52,659.3,56.2
	z M645.5,73.4c-3-6.8-7.9-10.2-14.6-10.2c-6.4,0-11.2,3.1-14.3,9.2s-4.7,15.7-4.7,28.6c0,13.5,1.6,23.7,4.7,30.6
	c3.1,6.9,8,10.3,14.8,10.3c6.3,0,11-3.1,14.1-9.2c3-6.1,4.6-15.7,4.6-28.7C650,90.5,648.5,80.2,645.5,73.4z"/>
<path class="st0" d="M701.5,141.7v-69L690.3,69V49.6l30.9,0.6h0.5l5.5,4.1v5.4l-0.5,14.6h0.5c0.9-2.8,2.8-6.1,5.9-9.9
	c3.3-4,7.2-7.4,11.7-10c4.7-2.8,10-4.3,15.5-4.3c1.4,0,2.8,0.1,4.2,0.4c1.1,0.2,2.1,0.6,3,1.1v32.3c-2-1.7-4.2-3-6.6-3.9
	c-2.6-0.9-5.4-1.3-8.2-1.2c-4.2,0-8.5,0.5-12.6,1.7c-3.2,0.8-6.1,2.3-8.7,4.3v56.9l21.8,1.9v11.7h-63.9v-11.9L701.5,141.7z"/>
<path class="st0" d="M780.8,74.6c4.1-7.7,10.3-14.1,18-18.3c7.8-4.2,16.8-6.4,27-6.4c13,0,22.9,3,29.9,9.1
	c6.9,6.1,10.5,14.8,10.8,26.1c0,7.9-0.5,13.8-1.4,17.9h-59.7c0.7,11.3,3.5,19.7,8.4,25.2c4.8,5.5,11.2,8.2,19.2,8.2
	c4.9,0,9.8-0.9,14.5-2.4c4.3-1.3,8.4-3.1,12.3-5.5l5.4,11.4c-2.8,2.8-6,5.1-9.6,6.9c-4.6,2.5-9.5,4.5-14.5,5.9
	c-5.3,1.5-10.9,2.3-16.4,2.3c-11.4,0-20.9-2.2-28.4-6.6c-7.3-4.2-13.1-10.6-16.6-18.3c-3.5-7.8-5.3-17-5.3-27.5
	C774.4,92,776.6,82.6,780.8,74.6z M837.1,90.4l0.1-6.6c0-6.6-1.1-11.7-3.3-15.3s-6-5.4-11.3-5.4c-3.2-0.1-6.3,0.7-9,2.3
	c-2.5,1.5-4.4,4.3-5.9,8.3c-1.5,4-2.3,9.6-2.5,16.8L837.1,90.4z"/>
</svg>
