<svg width="563" height="94" viewBox="0 0 563 94" fill="none" xmlns="http://www.w3.org/2000/svg">
<path d="M269.2 20.2016C268.1 19.1016 266 18.1016 264.4 18.1016H248.9C247.3 18.1016 246.9 19.0016 248 20.2016L271.7 46.0016C272.8 47.1016 272.7 49.0016 271.7 50.1016L232.8 91.6016C231.7 92.7016 232.1 93.7016 233.7 93.7016H249.2C250.8 93.7016 252.9 92.8016 254 91.6016L282.3 61.2016C283.4 60.1016 285.1 60.1016 286.2 61.2016L295.5 71.0016C296.6 72.1016 298.7 73.1016 300.3 73.1016H315.8C317.4 73.1016 317.8 72.2016 316.7 71.0016L269.2 20.2016Z" fill="#F1A037" fill-opacity="0.63"/>
<path d="M339.7 23.3C338.1 23.3 336.9 24.6 336.9 26.1V41.5C336.9 43.1 335.6 44.3 334.1 44.3H305.3C303.7 44.3 303.3 43.4 304.4 42.2L341.9 2.1C343 1 342.6 0 341 0H326C324.4 0 322.3 0.9 321.2 2.1L292 33.3C290.9 34.4 290.9 36.3 292 37.4L309.2 55.9C310.3 57 312.4 58 314 58H334C335.6 58 336.8 59.3 336.8 60.8V70.3C336.8 71.9 338.1 73.1 339.6 73.1H347.2C348.8 73.1 350 71.8 350 70.2V26.1C350 24.5 348.7 23.3 347.2 23.3H339.7Z" fill="#F1A037" fill-opacity="0.63"/>
<path d="M264.5 50.2016C265.6 49.1016 265.6 47.2016 264.5 46.1016L244.7 25.3016C243.6 24.2016 242.7 24.5016 242.7 26.1016V41.5016C242.7 43.1016 241.4 44.3016 239.9 44.3016H211.1C209.5 44.3016 209.1 43.4016 210.2 42.2016L246.4 2.20156C247.4 1.00156 247 0.101562 245.5 0.101562H230.5C228.9 0.101562 226.8 1.00156 225.8 2.20156L190.3 41.5016C189.3 42.7016 188.4 43.6016 188.4 43.6016C188.4 43.6016 187.7 44.7016 186.8 46.0016C186.8 46.0016 186 47.3016 186 49.5016C186 51.8016 186.9 53.9016 188.4 55.4016C189.8 56.9016 191.7 57.8016 193.8 58.0016C194.1 58.0016 239.9 58.0016 239.9 58.0016C241.5 58.0016 242.7 59.3016 242.7 60.8016V70.3016C242.7 71.9016 243.6 72.2016 244.6 71.1016L264.5 50.2016Z" fill="#F1A037" fill-opacity="0.63"/>
<path d="M13.5 52.1016V58.9016C13.5 60.5016 14.1 61.7016 15.3 62.6016C16.5 63.5016 18.1 63.9016 20.1 63.9016C22.6 63.9016 24.3 63.3016 25.2 62.2016C26 61.1016 26.5 60.0016 26.7 58.8016H40.2C40.2 60.9016 39.7 62.9016 38.8 64.7016C37.9 66.5016 36.5 68.1016 34.8 69.5016C33 70.9016 30.9 72.0016 28.5 72.8016C26 73.6016 23.3 74.0016 20.2 74.0016C16.1 74.0016 12.5 73.3016 9.5 72.0016C6.5 70.7016 4.2 68.9016 2.6 66.8016C1.6 65.5016 1 64.0016 0.6 62.2016C0.2 60.5016 0 58.6016 0 56.5016V40.0016C0 38.0016 0.2 36.1016 0.5 34.4016C0.9 32.7016 1.5 31.2016 2.5 29.8016C4.1 27.6016 6.4 25.9016 9.4 24.6016C12.4 23.3016 16 22.6016 20.1 22.6016C23.2 22.6016 26 23.0016 28.5 23.8016C31 24.6016 33.1 25.7016 34.8 27.1016C36.5 28.5016 37.8 30.2016 38.8 32.1016C39.7 34.0016 40.2 36.1016 40.2 38.2016V52.1016H13.5ZM13.5 44.2016H26.7V38.5016C26.7 36.6016 26.1 35.2016 24.9 34.2016C23.7 33.2016 22.1 32.8016 20.1 32.8016C18.1 32.8016 16.5 33.3016 15.3 34.2016C14.1 35.2016 13.5 36.6016 13.5 38.5016V44.2016V44.2016Z" fill="#F1A037" fill-opacity="0.63"/>
<path d="M134.1 40.0016C134.1 38.0016 134.3 36.1016 134.6 34.4016C135 32.7016 135.6 31.2016 136.6 29.8016C138.2 27.6016 140.5 25.9016 143.5 24.6016C146.5 23.3016 150.1 22.6016 154.2 22.6016C158.3 22.6016 161.9 23.3016 164.9 24.6016C167.9 25.9016 170.2 27.7016 171.8 29.8016C172.8 31.1016 173.4 32.6016 173.8 34.4016C174.2 36.1016 174.3 38.0016 174.3 40.0016V56.5016C174.3 58.5016 174.1 60.4016 173.8 62.1016C173.4 63.8016 172.8 65.3016 171.8 66.7016C170.2 68.9016 167.9 70.6016 164.9 71.9016C161.9 73.2016 158.3 73.9016 154.2 73.9016C150.1 73.9016 146.5 73.2016 143.5 71.9016C140.5 70.6016 138.2 68.8016 136.6 66.7016C135.6 65.4016 135 63.9016 134.6 62.1016C134.2 60.4016 134.1 58.5016 134.1 56.5016V40.0016ZM147.5 58.1016C147.5 60.0016 148.1 61.4016 149.3 62.4016C150.5 63.4016 152.1 63.8016 154.1 63.8016C156.1 63.8016 157.7 63.3016 158.9 62.4016C160.1 61.4016 160.7 60.0016 160.7 58.1016V38.4016C160.7 36.5016 160.1 35.1016 158.9 34.1016C157.7 33.1016 156.1 32.7016 154.1 32.7016C152.1 32.7016 150.5 33.2016 149.3 34.1016C148.1 35.1016 147.5 36.5016 147.5 38.4016V58.1016Z" fill="#F1A037" fill-opacity="0.63"/>
<path d="M87.3996 23.1992H79.5996C77.9996 23.1992 76.7996 24.4992 76.7996 25.9992V54.0992C76.7996 55.6992 76.5996 58.1992 76.4996 59.6992C76.4996 59.6992 76.4996 59.7992 76.4996 59.8992C76.2996 60.6992 75.8996 61.3992 75.3996 61.9992C74.3996 63.1992 72.6996 63.7992 70.0996 63.7992C67.9996 63.7992 66.3996 63.2992 65.1996 62.1992C64.5996 61.6992 64.1996 61.0992 63.8996 60.2992C63.6996 58.7992 63.4996 56.3992 63.4996 54.9992V23.1992H52.8996C51.2996 23.1992 50.0996 24.4992 50.0996 25.9992V61.1992C50.0996 62.1992 50.1996 63.1992 50.3996 63.9992C50.3996 63.9992 50.3996 64.1992 50.4996 64.3992C50.5996 64.6992 50.6996 65.0992 50.7996 65.5992C50.8996 65.9992 51.0996 66.3992 51.2996 66.7992C52.0996 68.3992 53.0996 69.5992 54.4996 70.5992C55.7996 71.5992 57.2996 72.2992 58.9996 72.6992L60.1996 72.9992C60.5996 72.9992 60.8996 73.0992 61.2996 73.0992C61.5996 73.0992 61.8996 73.1992 62.1996 73.1992C62.4996 73.1992 62.6996 73.2992 62.6996 73.2992H90.4996V23.1992H87.3996Z" fill="#F1A037" fill-opacity="0.63"/>
<path d="M122.9 24.1992C122.5 24.3992 122 24.5992 121.6 24.7992C120 25.4992 118.4 26.3992 116.8 27.3992C116.2 27.7992 115.5 28.1992 114.9 28.5992V25.8992V23.1992H112H104.2C102.6 23.1992 101.4 24.4992 101.4 25.9992V70.4992V73.2992H104.2H112H114.8V70.4992V43.5992C114.8 41.5992 115.2 39.7992 116.1 38.4992C117 37.0992 118.1 35.9992 119.5 35.0992C120.9 34.1992 122.4 33.5992 124 33.2992C125.6 32.8992 127.1 32.7992 128.6 32.7992C129.3 32.7992 130 32.7992 130.6 32.8992V22.6992C127.6 22.7992 125 23.2992 122.9 24.1992Z" fill="#F1A037" fill-opacity="0.63"/>
<path d="M549.3 37.2008C549.2 35.5008 548.5 34.2008 547.1 33.3008C545.7 32.4008 544.2 32.0008 542.4 32.0008C540.3 32.0008 538.7 32.5008 537.5 33.5008C536.4 34.5008 535.8 35.7008 535.8 37.0008C535.8 37.9008 536.1 38.8008 536.7 39.7008C537.3 40.6008 538.9 41.4008 541.5 42.1008L549.4 44.5008C554.4 46.0008 557.9 47.9008 559.8 50.4008C561.7 52.9008 562.6 55.6008 562.6 58.6008C562.6 60.7008 562.1 62.7008 561.1 64.5008C560.1 66.3008 558.7 67.9008 556.9 69.3008C555.1 70.7008 553 71.8008 550.6 72.6008C548.1 73.4008 545.5 73.8008 542.6 73.8008C540 73.8008 537.5 73.5008 535.1 72.8008C532.7 72.1008 530.6 71.2008 528.8 69.9008C527 68.6008 525.5 67.1008 524.4 65.2008C523.3 63.3008 522.6 61.1008 522.6 58.6008H535.3C535.6 60.0008 536.2 61.3008 537.2 62.5008C538.2 63.7008 540 64.3008 542.5 64.3008C544.4 64.3008 546.2 63.8008 547.7 62.9008C549.2 61.9008 550 60.6008 550 58.9008C550 57.5008 549.5 56.3008 548.5 55.3008C547.5 54.3008 545.8 53.5008 543.2 52.7008L536.7 50.9008C532.5 49.7008 529.2 47.9008 526.7 45.6008C524.3 43.3008 523.1 40.4008 523.1 37.0008C523.1 34.9008 523.6 32.9008 524.7 31.1008C525.8 29.3008 527.2 27.7008 529 26.4008C530.8 25.1008 532.9 24.1008 535.3 23.4008C537.7 22.7008 540.2 22.3008 543 22.3008C545.7 22.3008 548.3 22.7008 550.6 23.4008C552.9 24.2008 554.9 25.2008 556.6 26.5008C558.3 27.8008 559.6 29.3008 560.6 31.2008C561.6 33.0008 562.1 34.9008 562.1 37.0008H549.3V37.2008Z" fill="#F1A037" fill-opacity="0.63"/>
<path d="M452.4 38.4016C452.4 35.8016 451.9 33.5016 450.8 31.5016C449.7 29.5016 448.3 27.9016 446.5 26.6016C444.7 25.3016 442.6 24.3016 440.1 23.6016C437.6 22.9016 435 22.6016 432.2 22.6016C429.1 22.6016 426.3 23.0016 423.9 23.7016C421.4 24.5016 419.3 25.5016 417.6 26.8016C414 29.5016 412 33.1016 411.5 37.7016H424.6C425 36.1016 426 34.8016 427.4 33.9016C428.9 33.0016 430.5 32.6016 432.2 32.6016C434.8 32.6016 436.5 33.2016 437.5 34.3016C438.5 35.4016 439 36.8016 439 38.6016V43.8016C437.6 43.7016 436.4 43.7016 435.4 43.6016C434.4 43.5016 433.5 43.5016 432.5 43.5016C428.3 43.5016 424.8 43.8016 422.1 44.5016C419.4 45.2016 417.2 46.2016 415.6 47.7016C414 49.1016 412.8 50.9016 412.2 53.0016C411.6 55.1016 411.3 57.1016 411.3 59.9016C411.3 62.7016 411.8 64.9016 412.7 66.7016C413.6 68.5016 414.8 69.8016 416.3 70.8016C417.8 71.8016 419.3 72.4016 421 72.8016C422.7 73.2016 424.3 73.3016 425.9 73.3016C426.4 73.3016 452.6 73.3016 452.6 73.3016V38.4016H452.4ZM427.8 53.0016C429.9 52.0016 432.4 51.5016 435.3 51.5016C436.3 51.5016 437.5 51.6016 439 51.8016V58.6016C439 60.6016 438.4 62.2016 437.1 63.4016C435.8 64.5016 434 65.1016 431.8 65.1016C429.6 65.1016 427.9 64.5016 426.7 63.3016C425.5 62.1016 424.9 60.6016 424.9 58.6016C424.7 55.9016 425.7 54.0016 427.8 53.0016Z" fill="#F1A037" fill-opacity="0.63"/>
<path d="M402.1 33.7016C402.1 33.5016 402 33.3016 402 33.1016C401.9 32.7016 401.9 32.4016 401.8 32.1016C401.4 30.5016 400.9 29.1016 400.1 27.9016C397.8 24.7016 393.9 23.1016 388.4 23.1016C388 23.1016 365 23.1016 365 23.1016C363.4 23.1016 362.2 24.4016 362.2 25.9016V93.6016H372.8C374.4 93.6016 375.6 92.3016 375.6 90.8016V74.0016H388.8C388.8 74.0016 388.8 74.0016 388.9 74.0016C391.2 74.0016 393.1 73.7016 394.6 73.2016C394.9 73.1016 395.1 73.0016 395.4 72.9016C395.6 72.8016 395.7 72.8016 395.8 72.7016C397.6 71.8016 399.1 70.8016 400.2 69.4016C401.1 68.3016 401.7 67.0016 401.9 65.2016C401.9 65.1016 401.9 64.9016 402 64.8016C402.2 63.1016 402.3 60.6016 402.3 57.2016V54.4016V41.5016V38.7016C402.4 36.7016 402.3 35.1016 402.1 33.7016ZM388.6 60.2016C388.4 60.9016 388 61.5016 387.6 62.1016C386.7 63.3016 384.9 63.9016 382.4 63.9016C380.5 63.9016 378.9 63.4016 377.6 62.4016C377 61.9016 376.5 61.3016 376.2 60.7016C375.9 60.0016 375.7 59.3016 375.7 58.5016V38.9016C375.7 38.0016 375.9 37.1016 376.2 36.4016C376.5 35.7016 377 35.0016 377.6 34.4016C378.8 33.2016 380.5 32.7016 382.5 32.7016C384.8 32.7016 386.5 33.3016 387.5 34.6016C388 35.2016 388.4 36.0016 388.7 36.8016C389 37.6016 389.1 38.6016 389.1 39.6016V58.0016C388.9 58.7016 388.8 59.5016 388.6 60.2016Z" fill="#F1A037" fill-opacity="0.63"/>
<path d="M472.9 73.4016H475.7V70.6016C475.8 72.1016 474.5 73.4016 472.9 73.4016Z" fill="#F1A037" fill-opacity="0.63"/>
<path d="M462.3 70.5V73.3H465.1C463.6 73.4 462.3 72.1 462.3 70.5Z" fill="#F1A037" fill-opacity="0.63"/>
<path d="M483.8 24.1992C483.4 24.3992 482.9 24.5992 482.5 24.7992C480.9 25.4992 479.3 26.3992 477.7 27.3992C477.1 27.7992 476.4 28.1992 475.8 28.5992V25.8992V23.1992H473H465.2C463.6 23.1992 462.4 24.4992 462.4 25.9992V70.4992V73.2992H465.2H473H475.8V70.4992V43.5992C475.8 41.5992 476.2 39.7992 477.1 38.4992C478 37.0992 479.1 35.9992 480.5 35.0992C481.9 34.1992 483.4 33.5992 485 33.2992C486.6 32.8992 488.1 32.7992 489.6 32.7992C490.3 32.7992 491 32.7992 491.6 32.8992V22.6992C488.5 22.7992 485.9 23.2992 483.8 24.1992Z" fill="#F1A037" fill-opacity="0.63"/>
<path d="M511.4 23.2V8H500.8C499.2 8 498 9.3 498 10.8V61.6C498 62.9 498.3 64.3 498.9 65.7C499.5 67.1 500.4 68.4 501.6 69.5C502.8 70.6 504.5 71.5 506.5 72.3C506.9 72.4 507.3 72.5 507.7 72.7C509.5 73.2 511.7 73.4 514.2 73.4H517H519.8V63.9C518.3 63.9 517 63.9 516 63.8C514.9 63.7 514.1 63.5 513.4 63.2C512.7 62.9 512.3 62.4 511.9 61.7C511.7 61.4 511.6 61 511.6 60.5C511.5 59.3 511.5 57.4 511.5 56.1V31.1H519.8V23.2H511.4Z" fill="#F1A037" fill-opacity="0.63"/>
</svg>
