<svg width="1000" height="707" viewBox="0 0 1000 707" fill="none" xmlns="http://www.w3.org/2000/svg">
<path d="M27.1914 3.83962C28.384 5.50927 40.0716 19.8205 53.1902 35.8015C75.3727 62.6351 90.161 80.6434 140.37 141.705C150.865 154.466 170.9 178.914 184.973 195.968C281.932 313.798 279.07 310.339 278.593 311.055C278.354 311.532 268.336 311.532 256.291 311.293C244.246 310.936 232.677 310.816 230.65 310.816C225.641 310.936 173.166 310.936 168.038 310.816C165.891 310.816 154.681 310.936 143.232 311.293C131.783 311.532 118.426 311.413 113.655 310.816C102.326 309.743 98.5092 310.578 93.7388 315.348C87.0602 322.027 86.8217 331.448 92.904 346.237C94.3351 349.457 96.6011 355.301 98.0322 358.998C101.61 368.061 106.023 372.474 113.178 374.144C116.398 374.859 127.847 375.336 139.654 375.098C156.828 374.859 161.24 374.382 164.341 372.713C168.038 370.685 168.396 370.685 171.497 372.713C174.359 374.621 177.818 374.859 199.284 374.859C219.797 374.859 224.329 374.502 227.311 372.832C230.65 371.043 231.127 371.043 234.466 372.832C237.329 374.382 242.338 374.859 259.511 375.098C271.318 375.217 282.767 374.859 285.033 374.263C287.299 373.667 289.326 373.309 289.445 373.428C289.922 373.786 279.07 386.428 233.989 438.067C213.953 460.965 192.725 485.414 186.762 492.212C180.918 499.01 168.515 513.321 159.332 523.816C150.03 534.43 127.49 560.19 109.243 581.299C90.8766 602.289 69.2904 626.976 61.4192 636.159C53.4287 645.223 37.4478 663.47 25.7603 676.589C14.192 689.707 3.69708 701.872 2.38521 703.661L0 707H163.268H326.655L336.076 695.432C367.68 656.434 436.494 572.116 439.475 568.538C441.503 566.273 455.456 549.218 470.483 530.733C485.51 512.247 498.271 497.459 498.748 497.817C499.583 498.294 568.157 581.896 601.789 623.279C608.348 631.389 616.935 642.003 620.871 646.773C624.806 651.663 637.448 667.167 648.897 681.24L669.767 707H834.943H1000L995.826 702.468C993.441 700.083 984.615 690.304 976.267 680.763C967.919 671.222 955.516 657.507 948.837 650.351C942.159 643.076 922.004 620.298 903.995 599.665C886.106 579.033 864.997 554.824 857.007 545.998C849.135 537.054 837.09 523.219 830.173 515.11C823.256 507 813.596 495.67 808.706 490.065C800.596 480.882 780.561 457.745 727.37 396.565C717.591 385.354 709.72 375.933 709.72 375.575C709.72 374.859 731.425 374.382 766.13 374.502C770.185 374.502 776.267 374.502 779.487 374.502C785.092 374.621 802.982 374.621 818.008 374.502C821.705 374.382 833.154 374.382 843.292 374.502C853.429 374.621 863.924 374.502 866.547 374.263C869.171 374.144 875.85 374.382 881.574 374.859C903.637 376.767 917.472 366.75 917.472 348.741C917.472 340.035 916.041 325.962 914.848 322.265C913.059 316.899 907.692 312.605 901.491 311.651C898.748 311.174 894.693 309.385 892.546 307.835C889.684 305.688 886.702 304.734 881.216 304.257C877.042 303.899 872.63 302.945 871.318 302.11C868.694 300.56 858.438 298.055 854.621 298.175C853.309 298.175 849.493 298.89 846.273 299.844C836.374 302.468 832.677 308.193 832.32 320.954C832.2 326.797 831.843 327.751 830.889 325.843C828.265 321.192 819.439 313.559 815.027 312.128C806.917 309.743 788.432 309.385 780.799 311.532C774.598 313.321 773.643 313.321 767.323 311.532C762.314 310.101 758.14 309.743 751.58 310.22L742.516 310.936L740.131 307.239C738.819 305.092 735.48 302.349 732.737 300.918L727.728 298.413L757.066 262.754C773.166 243.076 796.064 215.169 807.871 200.739C819.678 186.308 838.879 163.052 850.328 148.98C861.896 135.026 879.07 114.036 888.611 102.468C898.151 90.8998 909.72 76.9464 914.252 71.3411C929.875 52.2594 955.874 20.6554 963.983 10.7567L972.212 0.97737H815.504H658.795L611.807 59.6536C586.047 91.9732 550.149 137.054 532.141 159.832C514.013 182.492 498.748 201.097 498.271 200.977C497.317 200.739 470.722 167.584 384.496 59.1765L338.223 1.09663H181.634L24.9255 0.97737L27.1914 3.83962ZM366.249 327.751V339.677H369.231C371.974 339.677 372.212 340.154 372.212 344.448C372.212 348.741 371.974 349.218 369.231 349.218C366.607 349.218 366.249 349.695 366.249 353.392V357.567H360.286H354.323V353.392V349.218H338.223H322.123V341.705V334.191L336.792 325.128C350.745 316.422 351.699 316.064 358.855 315.945L366.249 315.825V327.751ZM464.043 327.751V339.677H467.024C469.767 339.677 470.006 340.154 470.006 344.448C470.006 348.741 469.767 349.218 467.024 349.218C464.401 349.218 464.043 349.695 464.043 353.392V357.567H458.08H452.117V353.392V349.218H436.017H419.917V341.705V334.072L434.586 325.128C448.539 316.422 449.493 316.064 456.649 315.945L464.043 315.825V327.751ZM725.224 320.596V325.366H719.857H714.49V320.596V315.825H719.857H725.224V320.596ZM860.942 320.238C860.584 324.77 860.584 324.77 855.218 324.77C850.567 324.77 849.851 324.412 849.493 322.027C848.778 317.018 849.97 315.825 855.814 315.825H861.3L860.942 320.238ZM881.455 324.77C881.455 327.513 881.813 327.632 890.161 327.99L898.748 328.348L899.106 332.164L899.463 335.98L890.757 336.338L882.051 336.696L882.29 342.54C882.409 345.76 883.125 348.741 883.84 349.218C886.106 350.649 889.565 349.218 890.161 346.714C890.638 344.925 891.831 344.448 895.647 344.448C899.94 344.448 900.537 344.806 900.537 347.072C900.417 355.181 894.454 358.64 882.528 357.567C872.749 356.612 870.722 354.227 870.722 343.732C870.722 336.338 870.602 336.1 867.621 336.1C864.878 336.1 864.639 335.742 864.997 332.164C865.236 329.302 865.951 328.228 868.098 327.99C870.006 327.632 870.722 326.797 870.722 324.651C870.722 322.027 871.199 321.788 876.088 321.788C880.978 321.788 881.455 322.027 881.455 324.77ZM120.572 338.366C122.361 343.971 124.031 347.906 124.389 347.31C124.866 346.714 126.297 342.659 127.847 338.485C131.187 328.705 131.902 327.751 136.792 327.751C141.324 327.751 142.636 329.66 146.333 341.109C147.406 344.925 148.718 347.668 149.076 347.31C149.434 346.952 151.103 342.54 152.773 337.531L155.754 328.348L161.598 327.99C168.515 327.513 168.515 326.797 161.598 345.402L156.947 357.567L149.314 357.328L141.682 356.97L139.296 349.815L136.911 342.778L135.361 346.237C134.526 348.264 133.214 351.603 132.499 353.631C131.067 357.447 130.829 357.567 123.673 357.567H116.398L111.27 344.09C108.527 336.577 106.261 329.898 106.261 329.063C106.261 328.109 108.05 327.751 111.866 327.99L117.472 328.348L120.572 338.366ZM183.304 337.889C185.212 343.374 186.881 347.668 187.12 347.429C187.478 347.191 189.147 342.778 190.936 337.65L194.275 328.348H199.404H204.413L207.871 337.889C209.779 343.136 211.568 347.549 211.807 347.787C212.045 348.026 213.715 343.613 215.385 338.008L218.485 327.751H224.448C227.668 327.751 230.292 328.109 230.292 328.586C230.292 329.063 227.788 335.742 224.806 343.494L219.32 357.567H211.926H204.413L202.266 350.411C201.073 346.595 199.761 343.613 199.284 343.852C198.927 344.09 197.496 347.31 196.303 350.888L194.037 357.567H186.643H179.129L176.863 351.246C175.552 347.906 173.166 341.466 171.497 337.054C169.827 332.76 168.754 328.825 169.112 328.467C169.589 328.109 172.212 327.751 174.955 327.751H180.083L183.304 337.889ZM245.915 337.65C247.704 342.778 249.255 347.191 249.612 347.429C249.851 347.668 251.64 343.494 253.667 338.127C257.126 328.467 257.245 328.348 261.419 327.99C266.547 327.513 267.263 328.467 270.722 337.889C272.153 341.824 273.584 345.879 274.061 346.833C274.419 347.906 276.088 344.448 277.996 338.485L281.216 328.348L285.629 327.99C293.739 327.274 293.739 327.513 287.776 343.136L282.29 357.567H274.896H267.501L265.355 351.246C262.493 342.301 262.373 342.182 259.511 349.934L256.887 356.97H249.374H241.86L236.732 343.852C233.87 336.577 231.604 330.017 231.604 329.182C231.485 328.109 233.035 327.751 237.209 327.99L242.815 328.348L245.915 337.65ZM392.964 331.568L395.945 335.503L399.523 331.568C402.624 328.228 403.816 327.751 409.064 327.751C412.403 327.751 415.146 328.109 415.146 328.467C415.146 328.825 412.999 331.925 410.376 335.146C407.752 338.485 405.605 341.586 405.605 342.182C405.605 342.659 407.99 346.117 410.972 349.695C413.953 353.392 416.339 356.612 416.339 356.97C416.339 357.328 413.238 357.567 409.541 357.567C402.982 357.567 402.504 357.328 399.881 353.392C398.45 351.126 396.78 349.218 396.184 349.218C395.587 349.218 393.918 351.126 392.487 353.392C389.982 357.447 389.624 357.567 382.707 357.567C374.598 357.567 374.478 358.521 383.304 347.668L387.955 342.063L382.469 335.623C379.487 332.164 377.46 328.944 377.818 328.467C378.175 328.109 381.157 327.751 384.258 327.751C389.267 327.751 390.34 328.228 392.964 331.568ZM486.702 329.421C486.702 330.971 487.179 330.971 490.042 329.421C495.17 326.797 503.876 327.274 507.692 330.494L510.912 333.237L513.775 330.375C516.398 327.751 517.472 327.513 524.389 327.99C535.838 328.705 537.269 330.614 537.746 345.64L538.223 357.567H532.737H527.251V348.86C527.251 344.209 526.774 339.677 526.297 338.843C524.985 336.696 519.738 335.861 516.16 337.173C513.059 338.366 512.94 338.723 512.94 348.026V357.567H506.977H501.014V347.549V337.531L496.84 336.815C491.115 335.742 487.895 337.65 487.657 342.42C487.537 344.567 487.299 347.787 487.179 349.815C487.06 351.723 486.822 354.346 486.822 355.42C486.702 357.089 485.629 357.567 481.336 357.567H475.969V342.659V327.751H481.336C485.271 327.751 486.702 328.228 486.702 329.421ZM576.506 329.063C580.918 331.091 582.111 335.026 582.111 346.833V357.567H576.744C573.763 357.567 571.377 356.97 571.377 356.374C571.377 355.539 570.662 355.539 569.112 356.374C567.8 356.97 562.433 357.567 557.185 357.567C545.856 357.567 543.948 356.255 543.948 348.741C543.948 340.154 545.498 339.081 558.736 339.081C568.277 339.081 570.185 338.723 569.946 337.292C569.469 335.146 555.874 333.953 555.874 336.1C555.874 336.696 553.488 337.292 550.388 337.292C545.259 337.292 545.021 337.173 545.379 334.072C545.617 332.045 546.81 330.256 548.718 329.302C552.415 327.394 572.57 327.274 576.506 329.063ZM614.073 329.66C616.458 331.329 616.696 331.329 616.696 329.54C616.696 327.99 617.77 327.632 621.825 327.99L626.834 328.348L627.191 342.778C627.668 365.676 625.999 367.584 605.963 367.704C594.991 367.704 592.725 367.346 590.578 365.438C589.147 364.126 588.074 362.218 588.074 360.906C588.074 359.117 589.028 358.759 593.918 358.759C597.257 358.759 600.239 359.236 600.596 359.952C602.504 363.172 615.742 360.071 616.458 356.374C616.696 354.824 614.908 354.704 605.605 354.943C595.11 355.42 594.156 355.181 590.936 352.438C587.835 349.695 587.478 348.741 587.478 341.705C587.478 330.256 590.221 327.99 603.578 327.871C608.825 327.751 612.284 328.348 614.073 329.66ZM668.098 331.21C670.006 333.476 670.364 335.98 670.364 345.76V357.567H664.997C661.658 357.567 659.63 357.089 659.63 356.135C659.63 355.062 659.273 355.062 658.199 356.135C657.245 357.089 652.832 357.567 646.392 357.567C636.971 357.567 635.778 357.328 634.109 354.943C631.366 351.007 631.723 344.09 634.705 341.347C636.852 339.439 639.117 339.081 648.42 339.081C657.841 339.081 659.63 338.723 659.392 337.292C658.915 335.146 646.869 334.072 644.961 335.98C644.246 336.696 641.383 337.292 638.521 337.292C634.466 337.292 633.393 336.815 633.393 335.146C633.512 329.302 637.806 327.632 652.832 327.99C664.878 328.348 665.951 328.586 668.098 331.21ZM707.335 332.403C707.335 336.815 706.738 337.531 700.179 342.659C696.243 345.64 693.023 348.503 693.023 348.98C693.023 349.457 696.363 349.815 700.417 349.815H707.931L708.289 353.631L708.646 357.567H692.069C677.758 357.567 675.253 357.328 674.657 355.658C673.345 352.081 675.134 349.457 683.244 343.017L691.115 336.696L683.482 336.1C677.281 335.623 675.73 335.026 675.373 333.357C674.299 328.109 675.492 327.751 691.831 327.751H707.335V332.403ZM725.224 342.659V357.567H719.857H714.49V342.659V327.751H719.857H725.224V342.659ZM743.828 329.421C744.425 330.852 744.902 330.852 747.645 329.421C751.461 327.394 759.213 327.274 764.46 329.063C769.946 330.971 771.735 335.384 771.735 347.429V357.567H765.772H759.928L759.571 347.787L759.213 338.008L755.516 336.934C752.892 336.1 750.745 336.338 748.36 337.411C745.021 339.081 744.902 339.439 744.544 348.383L744.186 357.567H738.342H732.379V343.494C732.379 335.742 732.737 328.944 733.214 328.586C734.764 327.036 743.113 327.751 743.828 329.421ZM809.302 329.54C813.834 331.329 815.862 335.026 815.862 341.586V345.64H802.743C791.771 345.64 789.624 345.998 789.624 347.429C789.624 348.503 791.055 349.815 792.844 350.53C796.422 351.842 805.128 350.888 805.128 349.099C805.128 348.503 807.513 348.026 810.495 348.026C816.816 348.026 817.531 350.053 812.88 354.585C810.256 357.328 809.183 357.567 797.973 357.567C791.294 357.567 784.854 356.97 783.423 356.255C775.909 352.2 775.909 333.595 783.542 329.54C787.716 327.274 803.936 327.155 809.302 329.54ZM860.942 342.897L861.3 357.567H855.218H849.255V343.494C849.255 335.742 849.612 328.944 850.089 328.467C850.567 327.99 853.071 327.751 855.814 327.99L860.584 328.348L860.942 342.897ZM311.389 351.603V357.567H305.426H299.463V351.603V345.64H305.426H311.389V351.603ZM837.329 351.603V357.567H831.366H825.403V351.603V345.64H831.366H837.329V351.603Z" fill="#F1A037" fill-opacity="0.63"/>
<path d="M343.59 333.116L333.453 339.676H343.948H354.323V333.116C354.323 329.539 354.204 326.557 354.085 326.557C353.846 326.557 349.195 329.539 343.59 333.116Z" fill="#F1A037" fill-opacity="0.63"/>
<path d="M441.384 333.116L431.247 339.676H441.742H452.117V333.116C452.117 329.539 451.998 326.557 451.879 326.557C451.64 326.557 446.989 329.539 441.384 333.116Z" fill="#F1A037" fill-opacity="0.63"/>
<path d="M554.681 347.907C554.681 350.65 557.901 351.604 564.58 350.888C574.955 349.934 573.286 345.641 562.314 345.641C555.635 345.641 554.681 345.879 554.681 347.907Z" fill="#F1A037" fill-opacity="0.63"/>
<path d="M598.808 339.08C596.661 344.805 598.927 346.832 607.752 346.832C615.146 346.832 615.504 346.713 616.22 343.612C617.531 338.365 615.504 336.695 607.275 336.337C600.358 335.979 599.881 336.099 598.808 339.08Z" fill="#F1A037" fill-opacity="0.63"/>
<path d="M643.769 346.479C641.86 348.387 643.172 350.415 646.869 351.011C652.117 352.084 658.915 350.176 659.392 347.672C659.75 345.883 658.676 345.644 652.117 345.644C647.943 345.644 644.126 346.002 643.769 346.479Z" fill="#F1A037" fill-opacity="0.63"/>
<path d="M790.459 335.741C788.432 337.769 790.221 338.484 797.376 338.484C804.77 338.484 807.394 337.173 803.22 335.622C800.716 334.668 791.413 334.668 790.459 335.741Z" fill="#F1A037" fill-opacity="0.63"/>
<path d="M287.955 415.786C268.873 437.635 244.258 465.875 233.19 478.469C209.052 506.233 164.973 556.8 149.04 575.023C142.648 582.274 129.863 596.871 120.608 607.366C111.354 617.861 102.958 627.593 101.908 629.024L100 631.695H230.614H361.228L375.444 614.331C383.268 604.79 392.618 593.246 396.243 588.762C399.964 584.277 414.085 566.913 427.728 550.216C441.467 533.425 455.683 516.06 459.308 511.481C486.213 478.374 498.33 463.872 498.998 464.349C499.666 464.731 527.621 498.887 598.318 585.422C611.58 601.737 625.51 618.815 629.135 623.395L635.814 631.695H767.955H900L896.661 628.165C894.753 626.162 887.692 618.338 881.014 610.705C874.335 603.073 864.413 592.101 859.07 586.376C853.727 580.556 842.946 568.535 835.218 559.662C808.026 528.273 804.592 524.265 789.422 507.187C781.026 497.742 769.672 484.671 764.138 478.183C753.262 465.494 732.463 441.451 697.543 401.475L675.408 376.001H498.998H322.588L287.955 415.786Z" fill="#F1A037" fill-opacity="0.43"/>
<path d="M100.128 52.7158C100.935 53.7244 105.676 59.4738 110.719 65.6267C121.814 79.2437 151.368 115.152 173.66 142.285C182.738 153.381 198.473 172.444 208.459 184.649C218.545 196.854 238.517 221.163 252.84 238.613C267.163 256.063 284.31 276.841 290.867 284.81L302.87 299.133H499.459H696.048L718.945 271.092C731.654 255.76 750.314 232.964 760.602 220.457C770.891 207.949 787.231 188.079 796.914 176.176C806.698 164.375 821.223 146.623 829.293 136.838C837.362 127.054 847.146 115.253 850.979 110.512C864.192 94.3737 886.181 67.644 893.04 59.2721L900 51.001H767.461H634.923L595.181 100.627C573.394 127.962 543.033 166.09 527.802 185.355C512.471 204.52 499.56 220.255 499.156 220.154C498.349 219.953 475.856 191.912 402.929 100.224L363.793 51.1019H231.255C105.272 51.001 98.8168 51.1019 100.128 52.7158Z" fill="#F1A037" fill-opacity="0.43"/>
</svg>
