<svg width="1881" height="515" viewBox="0 0 1881 515" fill="none" xmlns="http://www.w3.org/2000/svg">
<path d="M589.131 304V183.141H632.544C648.094 183.141 659.909 185.991 667.988 191.69C676.123 197.39 680.19 205.663 680.19 216.51C680.19 222.763 678.752 228.103 675.874 232.53C672.996 236.957 668.763 240.222 663.174 242.325C669.482 243.985 674.325 247.084 677.7 251.622C681.076 256.16 682.764 261.694 682.764 268.224C682.764 280.066 679.001 288.976 671.475 294.952C664.004 300.873 652.909 303.889 638.188 304H589.131ZM618.267 252.618V281.588H637.358C642.616 281.588 646.655 280.398 649.478 278.019C652.3 275.584 653.711 272.18 653.711 267.809C653.711 257.737 648.703 252.674 638.687 252.618H618.267ZM618.267 233.526H633.457C639.821 233.471 644.359 232.309 647.07 230.04C649.782 227.771 651.138 224.423 651.138 219.996C651.138 214.905 649.671 211.253 646.738 209.039C643.805 206.77 639.074 205.636 632.544 205.636H618.267V233.526ZM767.515 281.422H727.588L720.615 304H689.487L733.813 183.141H761.206L805.864 304H774.57L767.515 281.422ZM734.561 258.927H760.542L747.51 217.008L734.561 258.927ZM859.653 261.334H843.882V304H814.746V183.141H862.31C876.642 183.141 887.848 186.323 895.928 192.687C904.007 199.05 908.047 208.043 908.047 219.664C908.047 228.076 906.331 235.048 902.9 240.582C899.525 246.116 894.212 250.598 886.963 254.029L912.197 302.755V304H880.986L859.653 261.334ZM843.882 238.839H862.31C867.843 238.839 871.994 237.4 874.761 234.522C877.583 231.59 878.994 227.522 878.994 222.32C878.994 217.118 877.583 213.051 874.761 210.118C871.938 207.13 867.788 205.636 862.31 205.636H843.882V238.839ZM1016.37 205.636H980.098V304H950.962V205.636H915.352V183.141H1016.37V205.636ZM1142.21 255.855H1095.23V304H1066.09V183.141H1146.94V205.636H1095.23V233.443H1142.21V255.855ZM1188.2 281.588H1238.92V304H1159.06V183.141H1188.2V281.588ZM1344 183.141V262.247C1344 271.212 1342.09 278.987 1338.28 285.572C1334.46 292.102 1328.98 297.083 1321.84 300.514C1314.7 303.945 1306.26 305.66 1296.52 305.66C1281.8 305.66 1270.21 301.842 1261.74 294.205C1253.28 286.568 1248.96 276.109 1248.79 262.828V183.141H1278.1V263.409C1278.43 276.635 1284.57 283.248 1296.52 283.248C1302.56 283.248 1307.12 281.588 1310.22 278.268C1313.32 274.947 1314.87 269.552 1314.87 262.081V183.141H1344ZM1393.31 304H1364.26V183.141H1393.31V304ZM1505.95 205.636H1469.68V304H1440.54V205.636H1404.93V183.141H1505.95V205.636ZM1579.33 271.876C1579.33 267.615 1577.81 264.295 1574.77 261.915C1571.78 259.535 1566.49 257.073 1558.91 254.527C1551.33 251.982 1545.13 249.519 1540.32 247.14C1524.66 239.448 1516.83 228.878 1516.83 215.431C1516.83 208.735 1518.76 202.841 1522.64 197.75C1526.57 192.604 1532.1 188.619 1539.24 185.797C1546.38 182.919 1554.4 181.48 1563.31 181.48C1572 181.48 1579.77 183.03 1586.64 186.129C1593.55 189.228 1598.92 193.655 1602.74 199.41C1606.56 205.11 1608.47 211.64 1608.47 219H1579.41C1579.41 214.075 1577.89 210.257 1574.85 207.545C1571.86 204.833 1567.79 203.478 1562.65 203.478C1557.44 203.478 1553.32 204.64 1550.28 206.964C1547.29 209.233 1545.8 212.138 1545.8 215.68C1545.8 218.779 1547.46 221.601 1550.78 224.146C1554.1 226.637 1559.93 229.238 1568.29 231.949C1576.65 234.605 1583.51 237.483 1588.88 240.582C1601.94 248.108 1608.47 258.484 1608.47 271.71C1608.47 282.28 1604.48 290.58 1596.51 296.612C1588.54 302.644 1577.62 305.66 1563.73 305.66C1553.93 305.66 1545.05 303.917 1537.08 300.431C1529.17 296.889 1523.19 292.075 1519.15 285.987C1515.17 279.845 1513.17 272.789 1513.17 264.82H1542.39C1542.39 271.295 1544.05 276.082 1547.37 279.181C1550.75 282.224 1556.2 283.746 1563.73 283.746C1568.54 283.746 1572.33 282.722 1575.1 280.675C1577.92 278.572 1579.33 275.639 1579.33 271.876ZM1661.67 183.141L1688.65 267.228L1715.55 183.141H1753.9V304H1724.68V275.777L1727.5 218.004L1698.28 304H1679.02L1649.72 217.921L1652.54 275.777V304H1623.41V183.141H1661.67ZM1842.63 281.422H1802.71L1795.73 304H1764.6L1808.93 183.141H1836.32L1880.98 304H1849.69L1842.63 281.422ZM1809.68 258.927H1835.66L1822.63 217.008L1809.68 258.927Z" fill="#F1A037" fill-opacity="0.63"/>
<path d="M651.331 426.892L653.748 439.03L656.702 427.429L673.675 369.797H679.637L696.395 427.429L699.295 439.138L701.873 426.892L715.999 369.797H722.767L702.732 448H696.395L678.67 386.823L676.683 379.089L674.749 386.823L656.595 448H650.257L630.276 369.797H637.044L651.331 426.892ZM778.68 410.51H742.103V442.414H784.158V448H735.496V369.797H783.89V375.437H742.103V404.924H778.68V410.51ZM798.123 448V369.797H821.219C829.598 369.797 835.953 371.534 840.286 375.007C844.619 378.444 846.785 383.529 846.785 390.261C846.785 394.307 845.675 397.834 843.455 400.842C841.271 403.814 838.263 405.944 834.432 407.233C838.979 408.236 842.632 410.474 845.389 413.947C848.182 417.421 849.578 421.431 849.578 425.979C849.578 432.889 847.34 438.296 842.864 442.199C838.424 446.066 832.229 448 824.28 448H798.123ZM804.729 410.402V442.414H824.549C830.206 442.414 834.682 440.982 837.977 438.117C841.307 435.217 842.972 431.206 842.972 426.086C842.972 421.252 841.378 417.438 838.191 414.646C835.04 411.817 830.672 410.402 825.086 410.402H804.729ZM804.729 404.87H822.776C828.291 404.763 832.552 403.474 835.56 401.003C838.603 398.496 840.125 394.862 840.125 390.1C840.125 385.087 838.549 381.398 835.398 379.035C832.283 376.636 827.557 375.437 821.219 375.437H804.729V404.87ZM892.332 448V369.797H914.192C920.602 369.797 926.349 371.265 931.434 374.201C936.518 377.102 940.475 381.273 943.304 386.716C946.168 392.159 947.601 398.353 947.601 405.3V412.497C947.601 419.479 946.186 425.674 943.357 431.081C940.529 436.488 936.536 440.66 931.38 443.596C926.259 446.532 920.369 448 913.709 448H892.332ZM898.938 375.437V442.414H913.763C921.998 442.414 928.605 439.693 933.582 434.25C938.559 428.771 941.048 421.377 941.048 412.067V405.192C941.048 396.205 938.595 389.007 933.689 383.601C928.784 378.194 922.321 375.472 914.3 375.437H898.938ZM1007.6 410.51H971.019V442.414H1013.07V448H964.412V369.797H1012.81V375.437H971.019V404.924H1007.6V410.51ZM1071.3 428.771C1071.3 424.439 1069.78 421.019 1066.73 418.513C1063.69 415.97 1058.12 413.571 1050.03 411.315C1041.93 409.024 1036.03 406.535 1032.3 403.85C1027 400.054 1024.35 395.077 1024.35 388.918C1024.35 382.938 1026.81 378.086 1031.71 374.362C1036.65 370.603 1042.96 368.723 1050.62 368.723C1055.81 368.723 1060.45 369.725 1064.53 371.73C1068.65 373.736 1071.83 376.529 1074.09 380.109C1076.35 383.69 1077.47 387.683 1077.47 392.087H1070.81C1070.81 386.752 1068.99 382.473 1065.33 379.25C1061.68 375.992 1056.78 374.362 1050.62 374.362C1044.64 374.362 1039.88 375.705 1036.33 378.391C1032.79 381.04 1031.01 384.514 1031.01 388.811C1031.01 392.785 1032.61 396.026 1035.79 398.532C1038.98 401.039 1044.08 403.259 1051.1 405.192C1058.12 407.09 1063.44 409.077 1067.05 411.154C1070.67 413.195 1073.39 415.648 1075.22 418.513C1077.04 421.377 1077.96 424.761 1077.96 428.664C1077.96 434.823 1075.49 439.764 1070.54 443.488C1065.64 447.212 1059.16 449.074 1051.1 449.074C1045.59 449.074 1040.52 448.09 1035.9 446.12C1031.32 444.151 1027.83 441.394 1025.43 437.849C1023.06 434.304 1021.88 430.24 1021.88 425.656H1028.49C1028.49 431.171 1030.55 435.521 1034.67 438.708C1038.78 441.895 1044.26 443.488 1051.1 443.488C1057.19 443.488 1062.08 442.146 1065.76 439.46C1069.45 436.774 1071.3 433.212 1071.3 428.771ZM1100.3 448H1093.69V369.797H1100.3V448ZM1178.02 438.708C1175.73 441.966 1172.13 444.509 1167.22 446.335C1162.35 448.161 1156.89 449.074 1150.84 449.074C1144.72 449.074 1139.28 447.606 1134.51 444.67C1129.75 441.734 1126.06 437.58 1123.45 432.209C1120.84 426.838 1119.51 420.679 1119.48 413.732V403.85C1119.48 393 1122.21 384.442 1127.69 378.176C1133.17 371.874 1140.53 368.723 1149.77 368.723C1157.83 368.723 1164.31 370.782 1169.21 374.899C1174.12 378.981 1177.04 384.621 1177.97 391.818H1171.36C1170.39 386.089 1168.05 381.757 1164.32 378.82C1160.64 375.848 1155.8 374.362 1149.82 374.362C1142.52 374.362 1136.73 376.958 1132.47 382.15C1128.21 387.342 1126.08 394.665 1126.08 404.118V413.356C1126.08 419.3 1127.08 424.564 1129.09 429.147C1131.13 433.695 1134.03 437.222 1137.79 439.729C1141.59 442.235 1145.94 443.488 1150.84 443.488C1156.54 443.488 1161.42 442.593 1165.51 440.803C1168.16 439.621 1170.12 438.243 1171.41 436.667V416.472H1150.41V410.886H1178.02V438.708ZM1254.99 448H1248.38L1203.43 381.076V448H1196.77V369.797H1203.43L1248.44 436.774V369.797H1254.99V448Z" fill="#F1A037" fill-opacity="0.63"/>
<path d="M182.3 110.343C145.989 166.842 125.493 227.336 125.396 227.581C125.202 228.042 126.01 228.073 133.382 228.011L141.595 227.919L199.634 137.687C244.029 68.6228 257.738 47.5163 258.029 47.8236C258.223 48.0079 284.349 88.5617 316.036 137.902C347.756 187.243 373.85 227.704 374.044 227.827C374.432 228.104 412.116 213.294 412.245 213.018C412.31 212.864 264.086 1.07638 263.213 0.00109072C262.922 -0.336858 234.713 28.8361 182.3 110.343Z" fill="#F1A037" fill-opacity="0.63"/>
<path d="M221.318 169.482C201.306 201.996 184.875 228.805 184.812 229.023C184.718 229.366 186.132 229.428 192.635 229.366H206.286L235.709 191.253C251.385 165.816 257.697 136.656 257.854 136.625C257.98 136.594 268.473 153.396 281.165 174.033C293.857 194.639 330.292 279.728 375.468 353.08C420.644 426.431 468.561 478.443 468.655 478.692C468.781 479.066 441.826 463.416 257.792 463.416C141.741 463.416 88.5937 470.865 88.5937 470.772C88.5937 470.709 66.5265 470.772 47.9017 477.196C66.5265 470.772 64.6459 471.055 73.8822 456.06C83.1185 441.066 105.487 414.327 111.55 404.57C128.484 377.168 119.122 361.791 119.153 361.511C119.216 361.012 88.7818 347.576 88.5933 347.794C88.342 348.106 0.125669 514.314 5.21259e-06 514.657C-0.0628267 514.782 135.603 514.906 265.131 514.906C471.785 514.906 500.06 492.782 499.934 492.377C499.746 491.91 508.919 486.15 368.112 257.461C317.438 175.163 258.451 111 258.357 110.751C258.263 110.533 258.106 110.346 257.98 110.346C257.823 110.346 241.361 136.968 221.318 169.482Z" fill="#F1A037" fill-opacity="0.63"/>
</svg>
