<svg width="1000" height="274" viewBox="0 0 1000 274" fill="none" xmlns="http://www.w3.org/2000/svg">
<path d="M313.002 159.949V98.3309H335.135C343.063 98.3309 349.087 99.7839 353.206 102.69C357.354 105.596 359.427 109.814 359.427 115.344C359.427 118.532 358.694 121.254 357.227 123.511C355.76 125.769 353.601 127.433 350.752 128.505C353.968 129.352 356.437 130.932 358.158 133.245C359.879 135.559 360.739 138.38 360.739 141.709C360.739 147.747 358.821 152.289 354.984 155.336C351.175 158.355 345.518 159.893 338.013 159.949H313.002ZM327.856 133.753V148.523H337.59C340.27 148.523 342.33 147.916 343.769 146.703C345.208 145.462 345.927 143.726 345.927 141.498C345.927 136.363 343.374 133.781 338.267 133.753H327.856ZM327.856 124.019H335.601C338.846 123.991 341.159 123.399 342.541 122.242C343.924 121.085 344.615 119.378 344.615 117.121C344.615 114.525 343.868 112.663 342.372 111.535C340.877 110.378 338.465 109.8 335.135 109.8H327.856V124.019ZM403.948 148.438H383.592L380.037 159.949H364.167L386.766 98.3309H400.732L423.5 159.949H407.545L403.948 148.438ZM387.147 136.969H400.393L393.749 115.598L387.147 136.969ZM450.924 138.197H442.883V159.949H428.028V98.3309H452.278C459.585 98.3309 465.299 99.9531 469.418 103.198C473.537 106.442 475.597 111.027 475.597 116.952C475.597 121.24 474.722 124.795 472.973 127.617C471.252 130.438 468.543 132.723 464.847 134.472L477.713 159.314V159.949H461.8L450.924 138.197ZM442.883 126.728H452.278C455.099 126.728 457.215 125.994 458.626 124.527C460.065 123.032 460.784 120.958 460.784 118.306C460.784 115.654 460.065 113.58 458.626 112.085C457.187 110.561 455.071 109.8 452.278 109.8H442.883V126.728ZM530.825 109.8H512.331V159.949H497.476V109.8H479.321V98.3309H530.825V109.8ZM594.982 135.403H571.029V159.949H556.174V98.3309H597.394V109.8H571.029V123.977H594.982V135.403ZM618.428 148.523H644.285V159.949H603.573V98.3309H618.428V148.523ZM697.863 98.3309V138.662C697.863 143.233 696.889 147.197 694.943 150.554C692.996 153.883 690.203 156.423 686.563 158.172C682.924 159.921 678.621 160.796 673.656 160.796C666.151 160.796 660.24 158.849 655.923 154.955C651.607 151.062 649.406 145.73 649.321 138.958V98.3309H664.26V139.255C664.43 145.998 667.561 149.369 673.656 149.369C676.731 149.369 679.058 148.523 680.638 146.83C682.218 145.137 683.008 142.386 683.008 138.577V98.3309H697.863ZM723.001 159.949H708.189V98.3309H723.001V159.949ZM780.43 109.8H761.936V159.949H747.081V109.8H728.926V98.3309H780.43V109.8ZM817.841 143.571C817.841 141.399 817.065 139.706 815.513 138.493C813.99 137.28 811.295 136.024 807.43 134.726C803.565 133.428 800.405 132.173 797.95 130.96C789.966 127.038 785.974 121.649 785.974 114.793C785.974 111.38 786.961 108.375 788.936 105.779C790.939 103.155 793.761 101.124 797.4 99.6851C801.04 98.218 805.131 97.4845 809.673 97.4845C814.103 97.4845 818.067 98.2744 821.565 99.8544C825.092 101.434 827.828 103.691 829.775 106.626C831.722 109.532 832.695 112.861 832.695 116.613H817.883C817.883 114.102 817.107 112.155 815.556 110.773C814.032 109.391 811.958 108.699 809.334 108.699C806.682 108.699 804.58 109.292 803.029 110.477C801.505 111.634 800.743 113.115 800.743 114.92C800.743 116.5 801.59 117.939 803.283 119.237C804.975 120.507 807.952 121.833 812.212 123.215C816.472 124.569 819.971 126.037 822.708 127.617C829.366 131.454 832.695 136.744 832.695 143.487C832.695 148.875 830.664 153.107 826.601 156.183C822.538 159.258 816.966 160.796 809.885 160.796C804.891 160.796 800.363 159.907 796.3 158.129C792.265 156.324 789.218 153.869 787.159 150.766C785.127 147.634 784.112 144.037 784.112 139.974H799.008C799.008 143.275 799.855 145.715 801.548 147.295C803.269 148.847 806.048 149.623 809.885 149.623C812.339 149.623 814.272 149.101 815.682 148.057C817.121 146.985 817.841 145.49 817.841 143.571ZM859.823 98.3309L873.577 141.201L887.288 98.3309H906.84V159.949H891.944V145.56L893.383 116.105L878.486 159.949H868.667L853.728 116.063L855.167 145.56V159.949H840.313V98.3309H859.823ZM952.081 148.438H931.725L928.17 159.949H912.3L934.899 98.3309H948.864L971.633 159.949H955.678L952.081 148.438ZM935.28 136.969H948.526L941.882 115.598L935.28 136.969Z" fill="#F1A037" fill-opacity="0.63"/>
<path d="M345.738 226.535L346.97 232.724L348.476 226.809L357.129 197.426H360.169L368.713 226.809L370.192 232.779L371.506 226.535L378.708 197.426H382.158L371.944 237.297H368.713L359.676 206.107L358.663 202.164L357.677 206.107L348.421 237.297H345.19L335.003 197.426H338.454L345.738 226.535ZM410.665 218.183H392.016V234.449H413.458V237.297H388.648V197.426H413.321V200.301H392.016V215.335H410.665V218.183ZM420.578 237.297V197.426H432.353C436.624 197.426 439.865 198.312 442.074 200.082C444.283 201.835 445.387 204.427 445.387 207.859C445.387 209.922 444.821 211.72 443.689 213.254C442.576 214.769 441.042 215.855 439.089 216.513C441.407 217.024 443.27 218.165 444.675 219.936C446.099 221.706 446.811 223.751 446.811 226.07C446.811 229.593 445.67 232.35 443.388 234.339C441.124 236.311 437.966 237.297 433.913 237.297H420.578ZM423.946 218.128V234.449H434.05C436.935 234.449 439.217 233.719 440.896 232.258C442.594 230.78 443.443 228.735 443.443 226.124C443.443 223.66 442.631 221.716 441.006 220.292C439.399 218.849 437.172 218.128 434.324 218.128H423.946ZM423.946 215.308H433.147C435.958 215.253 438.131 214.596 439.664 213.336C441.216 212.058 441.992 210.205 441.992 207.777C441.992 205.221 441.188 203.341 439.582 202.136C437.994 200.913 435.584 200.301 432.353 200.301H423.946V215.308ZM468.609 237.297V197.426H479.754C483.022 197.426 485.952 198.175 488.544 199.672C491.136 201.15 493.154 203.277 494.596 206.052C496.056 208.827 496.786 211.985 496.786 215.527V219.196C496.786 222.756 496.065 225.914 494.623 228.671C493.181 231.428 491.145 233.554 488.517 235.051C485.906 236.548 482.903 237.297 479.507 237.297H468.609ZM471.977 200.301V234.449H479.535C483.734 234.449 487.102 233.062 489.639 230.287C492.177 227.494 493.446 223.724 493.446 218.977V215.472C493.446 210.89 492.195 207.22 489.694 204.464C487.193 201.707 483.898 200.32 479.809 200.301H471.977ZM527.374 218.183H508.726V234.449H530.167V237.297H505.358V197.426H530.03V200.301H508.726V215.335H527.374V218.183ZM559.851 227.494C559.851 225.285 559.075 223.541 557.524 222.263C555.972 220.967 553.133 219.744 549.007 218.594C544.881 217.425 541.869 216.157 539.971 214.787C537.269 212.852 535.918 210.315 535.918 207.175C535.918 204.126 537.168 201.652 539.669 199.754C542.189 197.837 545.402 196.878 549.308 196.878C551.956 196.878 554.32 197.39 556.401 198.412C558.5 199.434 560.125 200.858 561.275 202.684C562.425 204.509 563 206.545 563 208.79H559.605C559.605 206.07 558.674 203.889 556.812 202.246C554.949 200.584 552.448 199.754 549.308 199.754C546.26 199.754 543.832 200.438 542.024 201.808C540.217 203.158 539.313 204.929 539.313 207.12C539.313 209.146 540.126 210.799 541.751 212.076C543.375 213.354 545.977 214.486 549.555 215.472C553.133 216.44 555.844 217.453 557.688 218.512C559.532 219.552 560.919 220.803 561.85 222.263C562.781 223.724 563.247 225.449 563.247 227.439C563.247 230.579 561.987 233.098 559.468 234.997C556.967 236.895 553.662 237.845 549.555 237.845C546.744 237.845 544.16 237.343 541.805 236.338C539.469 235.334 537.689 233.929 536.465 232.121C535.261 230.314 534.658 228.242 534.658 225.905H538.026C538.026 228.717 539.076 230.935 541.175 232.559C543.275 234.184 546.068 234.997 549.555 234.997C552.658 234.997 555.15 234.312 557.031 232.943C558.911 231.574 559.851 229.757 559.851 227.494ZM574.638 237.297H571.27V197.426H574.638V237.297ZM614.263 232.559C613.094 234.221 611.26 235.517 608.759 236.448C606.276 237.379 603.492 237.845 600.406 237.845C597.285 237.845 594.51 237.096 592.082 235.599C589.654 234.102 587.773 231.984 586.441 229.246C585.108 226.508 584.433 223.368 584.414 219.826V214.787C584.414 209.256 585.811 204.893 588.604 201.698C591.397 198.485 595.149 196.878 599.859 196.878C603.966 196.878 607.271 197.928 609.772 200.028C612.273 202.109 613.761 204.984 614.235 208.653H610.867C610.374 205.733 609.178 203.524 607.28 202.027C605.399 200.511 602.935 199.754 599.886 199.754C596.162 199.754 593.214 201.077 591.041 203.724C588.869 206.372 587.783 210.105 587.783 214.924V219.634C587.783 222.665 588.294 225.348 589.316 227.685C590.357 230.004 591.835 231.802 593.752 233.08C595.687 234.358 597.905 234.997 600.406 234.997C603.309 234.997 605.801 234.54 607.882 233.627C609.233 233.025 610.237 232.322 610.894 231.519V221.223H600.187V218.375H614.263V232.559ZM653.504 237.297H650.135L627.215 203.177V237.297H623.82V197.426H627.215L650.163 231.574V197.426H653.504V237.297Z" fill="#F1A037" fill-opacity="0.63"/>
<path d="M96.9165 58.6616C77.6124 88.6982 66.7159 120.859 66.6644 120.989C66.5612 121.234 66.991 121.251 70.9102 121.218L75.2764 121.169L106.132 73.1985C129.734 36.4817 137.022 25.2609 137.177 25.4242C137.28 25.5222 151.169 47.0819 168.015 73.3129C184.878 99.5438 198.75 121.055 198.854 121.12C199.06 121.267 219.094 113.394 219.163 113.247C219.197 113.165 140.397 0.57189 139.933 0.000231492C139.778 -0.179433 124.781 15.3299 96.9165 58.6616Z" fill="#F1A037" fill-opacity="0.63"/>
<path d="M117.66 90.1034C107.021 107.389 98.2856 121.642 98.2522 121.758C98.2021 121.94 98.9537 121.973 102.411 121.94H109.668L125.31 101.678C133.645 88.1544 137 72.6522 137.084 72.6356C137.151 72.6191 142.729 81.5518 149.476 92.5231C156.224 103.478 175.594 148.714 199.611 187.71C223.628 226.706 249.102 254.357 249.152 254.489C249.219 254.688 234.889 246.368 137.05 246.368C75.3542 246.368 47.0993 250.329 47.0993 250.279C47.0993 250.246 35.3676 250.279 25.4661 253.694C35.3676 250.279 34.3679 250.429 39.2782 242.458C44.1885 234.486 56.0803 220.271 59.3038 215.084C68.306 200.516 63.3289 192.341 63.3456 192.192C63.379 191.927 47.1993 184.784 47.0991 184.9C46.9654 185.066 0.0668096 273.427 2.77118e-06 273.61C-0.0334007 273.676 72.0911 273.742 140.952 273.742C250.816 273.742 265.848 261.98 265.781 261.765C265.681 261.516 270.557 258.454 195.7 136.876C168.761 93.1235 137.401 59.0128 137.351 58.8802C137.301 58.7642 137.217 58.6647 137.151 58.6647C137.067 58.6647 128.315 72.818 117.66 90.1034Z" fill="#F1A037" fill-opacity="0.63"/>
</svg>
