<svg width="1000" height="271" viewBox="0 0 1000 271" fill="none" xmlns="http://www.w3.org/2000/svg">
<path d="M0 2.93106C0 10.7416 2.15974 20.5049 5.79877 29.1734C9.26027 37.487 14.2602 44.9425 21.0057 51.8359C27.4554 58.4631 33.55 62.9305 41.5677 66.8654C47.2185 69.6169 50.7984 70.9778 56.035 72.3091C60.7095 73.4926 64.3781 74.1139 68.9343 74.5281C71.094 74.7056 97.0406 74.8239 139.407 74.8239C211.566 74.8239 209.377 74.7943 215.974 76.3328C223.992 78.1967 231.921 81.8357 238.4 86.6285C241.921 89.2617 242.424 89.4688 244.968 89.4688C246.803 89.4688 247.453 89.3208 248.666 88.6699C250.678 87.6049 292.808 45.4159 293.814 43.4632C294.879 41.4218 294.79 38.2266 293.636 36.126C292.305 33.7 284.938 27.7237 276.299 22.1025C258.607 10.5345 240.471 3.96655 217.897 0.948825C214.318 0.475456 206.921 0.416285 107.04 0.357114L0 0.268357V2.93106Z" fill="#F1A037" fill-opacity="0.63"/>
<path d="M412.955 73.6705C383.754 76.067 361.654 95.3567 356.387 123.049C355.174 129.469 355.026 140.268 356.062 146.421C357.778 156.628 361.654 165.918 367.423 173.64C369.464 176.392 374.316 181.421 377.097 183.729C386.062 191.066 397.837 195.977 410.203 197.456C416.002 198.166 429.049 197.93 435.055 197.013C442.511 195.888 448.665 194.143 454.375 191.539L456.801 190.415V180.267V170.09H455.913C455.41 170.09 453.724 170.741 452.126 171.539C438.28 178.462 420.322 179.942 406.298 175.267C391.476 170.326 381.417 158.196 379.109 142.457C378.458 138.078 378.695 130.031 379.553 126.096C382.718 111.747 392.156 101.037 405.795 96.3331C419.671 91.5106 437.629 92.8715 452.629 99.8537C454.168 100.564 455.736 101.155 456.091 101.155H456.801V90.9781V80.8302L454.375 79.706C449.079 77.28 441.091 75.1202 434.168 74.2327C427.866 73.4339 418.724 73.1972 412.955 73.6705Z" fill="#F1A037" fill-opacity="0.63"/>
<path d="M473.96 134.437V195.531L484.7 195.472L495.41 195.383L495.558 169.644C495.706 144.082 495.706 143.875 496.386 141.538C499.138 131.715 505.824 125.65 514.759 124.881C526.534 123.875 534.7 129.171 537.629 139.763C538.309 142.129 538.309 142.248 538.398 168.816L538.487 195.531H549.137H559.788L559.699 166.005C559.611 136.656 559.581 136.479 558.93 133.313C556.534 121.982 550.912 114.201 541.859 109.674C534.552 106.005 524.581 104.763 515.528 106.331C508.487 107.573 501.712 111.508 497.688 116.686C496.505 118.224 495.795 118.875 495.351 118.875L494.67 118.905V96.1238V73.343H484.315H473.96V134.437Z" fill="#F1A037" fill-opacity="0.63"/>
<path d="M811.531 134.437V195.531L821.975 195.472L832.389 195.383L832.478 175.324L832.537 155.295H833.217C833.75 155.295 837.833 159.792 851.59 175.413L869.253 195.531H881.412C892.98 195.531 893.542 195.502 893.128 194.999C892.891 194.732 883.602 184.141 872.507 171.478C861.412 158.816 852.359 148.342 852.418 148.194C852.478 148.076 861.176 139.052 871.738 128.195C882.329 117.337 891.028 108.343 891.057 108.224C891.116 108.076 885.791 107.958 879.193 107.958H867.211L850.555 126.005C837.744 139.881 833.75 144.052 833.217 144.052H832.537V108.698V73.343H822.034H811.531V134.437Z" fill="#F1A037" fill-opacity="0.63"/>
<path d="M30.325 101.656C31.1238 116.034 34.7036 129.644 40.887 141.744C48.5793 156.774 59.0821 167.099 70.6501 170.975C76.0938 172.809 74.9695 172.75 114.703 172.75H150.916L151.626 172.01C152.04 171.626 152.365 170.945 152.365 170.531C152.365 170.117 151.537 168.401 150.531 166.744C138.874 147.454 138.874 123.49 150.531 104.2C151.537 102.543 152.365 100.827 152.365 100.413C152.365 99.9989 152.04 99.3185 151.626 98.9339L150.916 98.1942H90.5315H30.1475L30.325 101.656Z" fill="#F1A037" fill-opacity="0.63"/>
<path d="M613.752 106.037C595.113 109.055 581.06 122.723 577.214 141.628C573.841 158.285 578.19 174.35 589.048 185.178C595.054 191.214 602.42 195.149 611.178 197.042C614.817 197.811 623.9 198.137 627.568 197.634C633.515 196.776 638.988 194.735 643.692 191.598C646.769 189.557 650.674 185.77 652.213 183.344C652.893 182.279 653.278 181.954 653.87 181.924C654.609 181.924 654.668 182.042 654.846 183.67C655.467 189.261 657.834 193.788 661.089 195.711C663.722 197.249 665.556 197.663 670.112 197.811C674.727 197.989 677.686 197.516 680.881 196.155L682.331 195.533L682.124 194.143C682.035 193.403 681.946 189.291 681.946 185.001C681.946 176.066 682.242 176.835 678.988 177.664C676 178.433 673.81 177.723 672.745 175.652C671.739 173.699 671.621 169.321 671.591 137.605V108.256H663.958H656.325L655.319 114.617L654.313 120.978H653.544C652.953 120.978 652.509 120.652 651.769 119.617C647.095 113.108 639.846 108.493 631.059 106.422C627.657 105.623 617.687 105.416 613.752 106.037ZM629.58 124.972C639.55 127.072 647.272 134.35 650.349 144.646C651.089 147.102 651.414 153.877 650.911 156.569C648.692 168.285 639.757 177.131 628.278 178.965C625.26 179.468 619.403 179.202 616.71 178.433C606.651 175.652 599.699 168.315 597.45 158.108C596.622 154.35 596.77 148.256 597.746 144.498C600.675 133.226 608.87 126.037 620.408 124.528C622.775 124.203 626.947 124.41 629.58 124.972Z" fill="#F1A037" fill-opacity="0.63"/>
<path d="M743.337 105.77C732.242 107.397 722.952 112.397 718.159 119.379C717.39 120.474 716.858 120.977 716.414 120.977C715.793 120.977 715.704 120.652 714.816 115.119C714.284 111.924 713.781 109.054 713.722 108.758C713.574 108.285 712.952 108.255 705.881 108.255H698.219V169.645V231.035H708.574H718.929V207.663V184.29H719.757C720.349 184.29 720.704 184.527 721.118 185.207C722.035 186.746 725.585 190.059 728.189 191.805C732.538 194.704 737.065 196.509 742.39 197.456C746.621 198.225 754.816 197.959 759.165 196.923C764.55 195.651 769.076 193.728 773.514 190.858C787.597 181.805 795.318 164.586 793.455 146.391C792.33 135.208 788.129 125.799 780.999 118.433C775.023 112.279 767.981 108.433 759.106 106.45C756.946 105.977 755.053 105.829 750.289 105.74C746.946 105.681 743.84 105.711 743.337 105.77ZM752.36 125.001C756.769 125.888 761.236 128.225 764.668 131.45C770.141 136.509 773.07 143.61 773.07 151.805C773.07 159.468 770.762 165.651 765.999 170.74C762.419 174.556 758.84 176.805 753.928 178.255C750.408 179.32 744.461 179.556 740.792 178.817C735.497 177.752 731.177 175.503 727.272 171.746C723.011 167.663 720.171 162.574 719.047 157.101C718.337 153.462 718.574 147.781 719.639 144.261C721.917 136.569 726.917 130.681 734.136 127.19C739.994 124.35 745.733 123.669 752.36 125.001Z" fill="#F1A037" fill-opacity="0.63"/>
<path d="M932.092 106.036C926.708 106.865 920.583 108.995 916.353 111.451C907.27 116.776 900.347 125.445 896.915 135.77C892.241 149.853 893.661 165.296 900.702 177.012C906.974 187.426 916.856 194.349 929.4 197.071C933.512 197.959 944.311 198.047 948.216 197.219C953.216 196.154 957.891 194.231 961.619 191.775C964.281 190 968.305 186.184 970.021 183.758C971.027 182.367 971.53 181.923 972.062 181.923C972.595 181.923 972.772 182.071 972.772 182.574C972.772 184.113 973.985 188.905 974.784 190.621C976.323 193.905 978.394 195.71 982.121 197.041C983.482 197.544 984.814 197.722 988.038 197.811C992.506 197.988 995.109 197.604 998.423 196.331L999.991 195.74V186.479C999.991 175.858 1000.32 176.805 997.032 177.663C993.926 178.462 991.766 177.693 990.731 175.474L990.08 174.083L989.991 141.154L989.932 108.255H982.151H974.4L973.394 114.616L972.358 120.977H971.559C970.968 120.977 970.583 120.681 969.991 119.794C969.577 119.143 968.335 117.664 967.21 116.48C961.885 110.829 954.4 107.072 946.027 105.918C943.009 105.504 935.08 105.563 932.092 106.036ZM945.11 124.557C950.968 125.267 956.352 127.782 960.554 131.746C966.352 137.22 969.311 144.024 969.311 151.894C969.311 156.421 968.542 159.675 966.559 163.758C962.684 171.716 955.761 177.13 947.358 178.846C944.311 179.438 937.802 179.29 935.051 178.551C921.708 174.941 913.66 162.959 915.081 148.876C916.294 137.131 923.453 128.344 934.222 125.385C938.098 124.32 941.175 124.084 945.11 124.557Z" fill="#F1A037" fill-opacity="0.63"/>
<path d="M242.72 181.656C242.187 181.804 241.122 182.396 240.353 182.958C230.442 190.059 223.282 193.283 212.868 195.295C209.614 195.946 209.614 195.946 145.62 196.124L81.6562 196.272L83.6681 199.97C103.609 236.567 138.786 261.804 179.732 268.874C187.987 270.295 191.33 270.531 202.661 270.531C214.17 270.531 216.744 270.324 226.034 268.727C248.903 264.821 271.092 254.496 289.376 239.23C293.696 235.62 294.524 234.319 294.524 231.035C294.524 229.141 294.406 228.579 293.696 227.307C293.104 226.242 286.654 219.615 271.063 204.053C251.211 184.23 249.14 182.248 247.809 181.804C246.211 181.301 244.17 181.213 242.72 181.656Z" fill="#F1A037" fill-opacity="0.63"/>
</svg>
