<svg width="1296" height="350" viewBox="0 0 1296 350" fill="none" xmlns="http://www.w3.org/2000/svg">
<path d="M0 3.45014C0 13.5651 2.79695 26.2089 7.50961 37.4349C11.9924 48.2013 18.4675 57.8565 27.2032 66.7837C35.5557 75.3661 43.4484 81.1516 53.8316 86.2474C61.1497 89.8106 65.7857 91.5731 72.5673 93.2972C78.621 94.8298 83.372 95.6344 89.2724 96.1708C92.0693 96.4007 125.671 96.5539 180.537 96.5539C273.986 96.5539 271.15 96.5156 279.695 98.508C290.078 100.922 300.346 105.634 308.737 111.841C313.296 115.251 313.948 115.52 317.243 115.52C319.618 115.52 320.461 115.328 322.032 114.485C324.637 113.106 379.197 58.4695 380.5 55.9408C381.879 53.2971 381.764 49.1591 380.27 46.4388C378.545 43.297 369.005 35.5575 357.817 28.2778C334.905 13.2969 311.419 4.79115 282.185 0.883085C277.549 0.270056 267.97 0.193428 138.621 0.116799L0 0.00185601V3.45014Z" fill="#F1A037" fill-opacity="0.63"/>
<path d="M534.791 95.0582C496.975 98.1617 468.354 123.143 461.534 159.005C459.963 167.319 459.772 181.304 461.113 189.273C463.335 202.492 468.354 214.522 475.825 224.522C478.469 228.086 484.753 234.599 488.354 237.587C499.964 247.089 515.213 253.45 531.228 255.365C538.738 256.285 555.634 255.978 563.412 254.791C573.067 253.335 581.037 251.074 588.431 247.702L591.573 246.246V233.105V219.925H590.424C589.772 219.925 587.588 220.767 585.519 221.802C567.588 230.768 544.331 232.683 526.17 226.63C506.975 220.231 493.948 204.522 490.96 184.139C490.117 178.468 490.423 168.047 491.534 162.951C495.634 144.369 507.856 130.499 525.519 124.407C543.489 118.162 566.745 119.924 586.171 128.966C588.163 129.886 590.194 130.652 590.653 130.652H591.573V117.472V104.33L588.431 102.874C581.573 99.7326 571.228 96.9356 562.263 95.7862C554.102 94.7517 542.263 94.4452 534.791 95.0582Z" fill="#F1A037" fill-opacity="0.63"/>
<path d="M613.796 173.752V252.871L627.704 252.794L641.574 252.68L641.765 219.346C641.957 186.242 641.957 185.974 642.838 182.947C646.401 170.227 655.06 162.373 666.631 161.377C681.88 160.074 692.455 166.932 696.248 180.649C697.129 183.714 697.129 183.867 697.244 218.273L697.359 252.871H711.152H724.945L724.831 214.633C724.716 176.626 724.677 176.396 723.834 172.296C720.731 157.622 713.451 147.545 701.727 141.683C692.263 136.932 679.351 135.323 667.627 137.353C658.508 138.963 649.734 144.058 644.524 150.763C642.991 152.756 642.072 153.599 641.497 153.599L640.616 153.637V124.135V94.633H627.206H613.796V173.752Z" fill="#F1A037" fill-opacity="0.63"/>
<path d="M1050.96 173.752V252.871L1064.49 252.794L1077.97 252.68L1078.09 226.702L1078.17 200.764H1079.05C1079.74 200.764 1085.02 206.587 1102.84 226.817L1125.71 252.871H1141.46C1156.44 252.871 1157.17 252.833 1156.63 252.181C1156.33 251.837 1144.3 238.12 1129.93 221.722C1115.56 205.323 1103.84 191.76 1103.91 191.568C1103.99 191.415 1115.25 179.729 1128.93 165.668C1142.65 151.606 1153.91 139.959 1153.95 139.806C1154.03 139.614 1147.13 139.461 1138.59 139.461H1123.07L1101.5 162.832C1084.91 180.802 1079.74 186.204 1079.05 186.204H1078.17V140.419V94.633H1064.56H1050.96V173.752Z" fill="#F1A037" fill-opacity="0.63"/>
<path d="M39.2719 131.302C40.3064 149.922 44.9424 167.547 52.9501 183.217C62.9118 202.681 76.5134 216.053 91.4943 221.072C98.5441 223.447 97.0882 223.371 148.544 223.371H195.441L196.361 222.413C196.897 221.915 197.318 221.034 197.318 220.497C197.318 219.961 196.246 217.739 194.943 215.593C179.847 190.612 179.847 159.577 194.943 134.597C196.246 132.451 197.318 130.229 197.318 129.692C197.318 129.156 196.897 128.275 196.361 127.777L195.441 126.819H117.242H39.042L39.2719 131.302Z" fill="#F1A037" fill-opacity="0.63"/>
<path d="M794.83 136.973C770.692 140.881 752.493 158.582 747.512 183.065C743.144 204.636 748.776 225.441 762.838 239.464C770.616 247.28 780.156 252.376 791.497 254.828C796.21 255.824 807.972 256.245 812.723 255.594C820.424 254.483 827.512 251.839 833.604 247.778C837.589 245.134 842.647 240.23 844.639 237.088C845.52 235.709 846.018 235.287 846.784 235.249C847.742 235.249 847.819 235.402 848.049 237.51C848.853 244.751 851.919 250.613 856.133 253.104C859.543 255.096 861.919 255.632 867.819 255.824C873.796 256.054 877.627 255.441 881.765 253.678L883.643 252.874L883.375 251.073C883.26 250.115 883.145 244.789 883.145 239.234C883.145 227.663 883.528 228.659 879.313 229.732C875.444 230.728 872.608 229.808 871.229 227.126C869.926 224.598 869.773 218.927 869.735 177.854V139.846H859.85H849.965L848.662 148.084L847.359 156.322H846.363C845.597 156.322 845.022 155.9 844.064 154.559C838.01 146.13 828.623 140.153 817.244 137.471C812.838 136.436 799.926 136.168 794.83 136.973ZM815.328 161.494C828.24 164.214 838.24 173.64 842.225 186.973C843.183 190.153 843.604 198.927 842.953 202.414C840.079 217.586 828.509 229.042 813.643 231.418C809.735 232.069 802.148 231.724 798.662 230.728C785.635 227.126 776.631 217.625 773.719 204.406C772.646 199.54 772.838 191.647 774.102 186.781C777.895 172.184 788.508 162.873 803.451 160.919C806.516 160.498 811.918 160.766 815.328 161.494Z" fill="#F1A037" fill-opacity="0.63"/>
<path d="M962.647 136.629C948.28 138.736 936.249 145.211 930.042 154.253C929.046 155.671 928.356 156.322 927.781 156.322C926.977 156.322 926.862 155.901 925.712 148.736C925.023 144.598 924.371 140.882 924.295 140.498C924.103 139.885 923.299 139.847 914.141 139.847H904.218V219.349V298.852H917.628H931.038V268.583V238.315H932.111C932.877 238.315 933.337 238.621 933.873 239.503C935.061 241.495 939.659 245.786 943.03 248.047C948.663 251.802 954.525 254.139 961.421 255.365C966.9 256.361 977.513 256.016 983.146 254.675C990.119 253.028 995.981 250.537 1001.73 246.821C1019.97 235.097 1029.97 212.798 1027.55 189.234C1026.1 174.751 1020.66 162.568 1011.42 153.027C1003.68 145.058 994.563 140.077 983.069 137.51C980.272 136.897 977.82 136.705 971.651 136.59C967.322 136.514 963.299 136.552 962.647 136.629ZM974.333 161.533C980.042 162.682 985.828 165.709 990.272 169.886C997.36 176.437 1001.15 185.633 1001.15 196.246C1001.15 206.169 998.165 214.177 991.996 220.767C987.36 225.71 982.724 228.621 976.364 230.499C971.805 231.878 964.103 232.185 959.352 231.227C952.494 229.847 946.9 226.936 941.843 222.07C936.325 216.782 932.647 210.192 931.191 203.104C930.272 198.391 930.578 191.035 931.958 186.476C934.908 176.514 941.383 168.889 950.732 164.368C958.318 160.69 965.751 159.809 974.333 161.533Z" fill="#F1A037" fill-opacity="0.63"/>
<path d="M1207.09 136.975C1200.12 138.048 1192.19 140.806 1186.71 143.987C1174.95 150.883 1165.98 162.109 1161.54 175.481C1155.48 193.719 1157.32 213.719 1166.44 228.891C1174.56 242.378 1187.36 251.343 1203.61 254.868C1208.93 256.018 1222.92 256.133 1227.97 255.06C1234.45 253.68 1240.5 251.19 1245.33 248.01C1248.78 245.711 1253.99 240.768 1256.21 237.627C1257.51 235.826 1258.17 235.251 1258.86 235.251C1259.54 235.251 1259.77 235.443 1259.77 236.094C1259.77 238.086 1261.35 244.293 1262.38 246.516C1264.37 250.769 1267.05 253.106 1271.88 254.83C1273.64 255.481 1275.37 255.711 1279.54 255.826C1285.33 256.056 1288.7 255.558 1292.99 253.91L1295.02 253.144V241.152C1295.02 227.397 1295.45 228.623 1291.19 229.734C1287.17 230.768 1284.37 229.772 1283.03 226.899L1282.19 225.098L1282.07 182.454L1282 139.849H1271.92H1261.88L1260.58 148.086L1259.24 156.324H1258.2C1257.44 156.324 1256.94 155.941 1256.17 154.791C1255.64 153.948 1254.03 152.033 1252.57 150.5C1245.68 143.182 1235.98 138.316 1225.14 136.822C1221.23 136.285 1210.96 136.362 1207.09 136.975ZM1223.95 160.96C1231.54 161.879 1238.51 165.136 1243.95 170.27C1251.46 177.358 1255.29 186.171 1255.29 196.362C1255.29 202.224 1254.3 206.439 1251.73 211.726C1246.71 222.033 1237.74 229.044 1226.86 231.267C1222.92 232.033 1214.49 231.841 1210.92 230.883C1193.64 226.209 1183.22 210.692 1185.06 192.454C1186.63 177.243 1195.9 165.864 1209.85 162.033C1214.87 160.653 1218.85 160.347 1223.95 160.96Z" fill="#F1A037" fill-opacity="0.63"/>
<path d="M314.331 234.904C313.641 235.095 312.262 235.862 311.266 236.59C298.431 245.785 289.158 249.961 275.672 252.567C271.457 253.41 271.457 253.41 188.583 253.639L105.748 253.831L108.353 258.62C134.177 306.015 179.733 338.697 232.76 347.854C243.449 349.693 247.779 350 262.453 350C277.358 350 280.691 349.732 292.722 347.663C322.339 342.605 351.074 329.234 374.753 309.463C380.347 304.789 381.419 303.103 381.419 298.85C381.419 296.398 381.266 295.67 380.347 294.023C379.58 292.643 371.228 284.061 351.036 263.908C325.327 238.237 322.645 235.67 320.921 235.095C318.852 234.444 316.208 234.329 314.331 234.904Z" fill="#F1A037" fill-opacity="0.63"/>
</svg>
