<svg width="995" height="342" viewBox="0 0 995 342" fill="none" xmlns="http://www.w3.org/2000/svg">
<path d="M156.072 15.604C156.072 37.1866 151.413 62.7537 147.42 66.7381C143.427 70.7226 136.771 65.0779 125.457 49.8041L119.467 41.5031L123.46 49.8041C128.785 61.0935 140.099 73.0469 145.423 73.0469C147.753 73.0469 151.413 69.0624 153.41 64.0818C157.403 53.4565 161.729 -0.0018096 158.402 -0.0018096C157.403 -0.0018096 156.405 6.97102 156.072 15.604Z" fill="#F1A037" fill-opacity="0.63"/>
<path d="M6.65553 8.30259C0.332791 15.6075 3.99333 16.6036 10.9816 9.29871C13.9766 5.97831 15.3077 3.32199 13.6438 3.32199C11.9799 3.32199 8.98496 5.64627 6.65553 8.30259Z" fill="#F1A037" fill-opacity="0.63"/>
<path d="M196.337 83.0097V162.699H241.262H286.187V149.418V136.136H256.237H226.287L225.622 113.557L225.289 91.3107L222.959 112.893L220.63 134.476L220.297 114.221C219.632 96.9554 220.63 92.9709 226.953 87.6583C233.276 82.6777 233.608 82.3457 229.948 86.9942C225.622 92.6389 227.286 92.9709 253.908 92.9709H282.526L282.194 79.3573V66.0757L251.578 66.7398C223.958 67.4039 221.296 66.7398 220.63 61.0951C219.632 55.4505 219.964 55.4505 222.627 61.4272C224.956 66.4078 225.954 63.0874 225.954 48.1456C226.287 34.1999 225.289 29.5514 222.959 33.2038C221.296 35.8601 219.632 36.5242 219.632 34.864C219.632 32.8718 221.296 29.2193 222.959 26.563C224.956 23.2426 226.287 22.9106 226.287 25.5669C226.287 28.8873 234.607 29.8834 256.237 29.8834H286.187V16.6018V3.32026H241.262H196.337V83.0097ZM282.194 8.63289C279.531 10.9572 202.993 10.9572 200.331 8.63289C199.332 7.63677 217.635 6.64065 241.262 6.64065C264.889 6.64065 283.192 7.63677 282.194 8.63289ZM207.985 16.6018C208.983 18.5941 207.652 18.9261 204.99 17.93C199 15.6057 198.001 13.2814 202.66 13.2814C204.657 13.2814 206.986 14.6096 207.985 16.6018ZM222.959 48.4776C222.959 51.1339 221.296 53.1262 219.299 53.1262C217.635 53.1262 216.97 51.466 217.968 49.8058C219.299 47.8135 218.301 43.497 215.638 40.5087C211.645 35.5281 211.978 35.196 217.302 39.5126C220.297 41.8368 222.959 46.1534 222.959 48.4776ZM224.956 76.701C225.954 78.6932 225.289 82.0136 222.959 84.0059C219.632 86.9942 219.299 86.9942 221.296 83.3418C222.627 80.6855 221.961 77.6971 219.299 76.0369C216.304 74.0447 215.971 73.0486 218.633 73.0486C220.63 73.0486 223.625 74.7087 224.956 76.701ZM255.239 144.769C254.24 145.765 251.245 146.097 248.916 145.101C246.254 144.105 247.252 143.109 250.913 143.109C254.573 142.777 256.57 143.773 255.239 144.769ZM279.531 149.086C283.857 157.387 283.857 159.379 279.199 159.379C277.535 159.379 276.869 157.719 277.867 156.058C278.866 154.066 278.2 152.738 276.204 152.738C274.207 152.738 273.209 151.41 274.207 149.75C275.538 148.089 274.207 145.765 272.21 145.101C268.883 143.773 268.883 143.109 271.878 143.109C274.207 142.777 277.535 145.765 279.531 149.086ZM228.284 154.398C228.949 157.719 225.954 159.379 220.297 159.379L211.312 159.047L218.966 155.062C222.959 152.738 225.622 149.75 224.623 148.422C223.625 147.093 223.958 146.761 225.289 147.757C226.62 148.754 227.951 151.742 228.284 154.398ZM208.65 158.051C207.652 159.047 204.657 159.379 202.327 158.383C199.665 157.387 200.663 156.39 204.324 156.39C207.985 156.058 209.981 157.055 208.65 158.051ZM263.891 158.383C257.901 159.047 247.918 159.047 242.26 158.383C236.271 157.719 240.929 157.055 252.909 157.055C264.889 157.055 269.548 157.719 263.891 158.383Z" fill="#F1A037" fill-opacity="0.63"/>
<path d="M39.9326 34.5323C62.8941 58.4392 98.5011 83.0101 111.479 84.0062C120.132 84.6703 121.463 83.3421 122.461 75.7052C123.127 70.7246 121.795 64.0838 120.132 60.7634C117.469 56.1149 117.137 58.4392 118.8 69.3965L120.797 84.0062L111.479 81.6819C98.5011 78.3615 72.8774 60.7634 44.9242 36.1925L21.6299 15.274L39.9326 34.5323Z" fill="#F1A037" fill-opacity="0.63"/>
<path d="M26.9549 34.5305C49.9165 60.4296 69.883 86.6607 76.8713 100.274C85.8563 117.872 82.1957 122.189 62.8947 116.544C55.5737 114.22 48.5854 113.224 47.5871 113.888C44.9248 116.544 69.2175 123.517 77.2041 122.189C95.5068 119.533 77.5369 85.0005 36.6054 43.1636C24.6255 31.2101 20.2994 27.2257 26.9549 34.5305Z" fill="#F1A037" fill-opacity="0.63"/>
<path d="M111.813 47.4823C112.811 50.8027 114.808 52.4629 115.806 51.4668C116.805 50.4707 115.806 47.8144 113.477 45.4901C110.149 42.5017 109.816 42.8338 111.813 47.4823Z" fill="#F1A037" fill-opacity="0.63"/>
<path d="M364.39 56.7786C360.729 59.1029 354.407 63.4194 350.746 67.0719C343.758 73.3806 343.758 73.3806 345.089 65.0796C346.753 56.7786 346.42 56.4466 330.114 56.4466C316.803 56.4466 312.477 57.7748 309.482 62.7553C304.49 72.3845 305.156 74.0447 315.472 71.7204C320.464 70.7243 322.46 70.7243 320.464 71.7204C317.136 73.0486 316.138 85.6661 316.138 118.206V162.699H332.111H347.751L346.753 128.167C345.755 95.6273 346.087 93.303 354.074 84.3379C361.395 75.3728 363.059 75.0408 372.377 78.6932C381.694 82.0136 387.352 79.3573 379.365 75.3728C377.368 74.3767 377.701 74.0447 380.03 74.3767C385.022 75.3728 385.022 74.7088 385.688 125.179L386.02 162.699H401.994H417.634L415.97 117.874C414.306 75.3728 413.974 72.7165 405.654 64.4155C395.671 54.7864 374.706 50.8019 364.39 56.7786ZM370.713 62.4233C371.711 64.0835 370.38 65.4117 367.718 65.4117C365.056 65.4117 363.724 64.0835 364.723 62.4233C365.721 61.0951 367.052 59.767 367.718 59.767C368.383 59.767 369.714 61.0951 370.713 62.4233ZM397.335 63.4194C401.661 65.4117 406.32 70.3923 407.318 74.3767C408.982 80.6855 408.316 80.6855 402.326 73.0486C397.668 67.4039 395.005 66.0757 393.674 68.7321C393.009 71.0563 390.679 73.0486 388.683 73.0486C386.686 73.0486 386.686 71.0563 389.348 68.068C392.01 65.0796 392.343 63.0874 390.014 63.0874C388.017 63.0874 385.355 64.4155 384.357 66.4078C383.358 68.068 380.363 69.7282 378.367 69.3961C375.704 69.3961 376.037 68.4 379.032 67.4039C382.693 65.7437 382.693 65.0796 379.032 62.7553C372.044 58.4388 387.352 59.1029 397.335 63.4194ZM361.395 70.3923C362.726 72.7165 362.726 73.7126 361.062 72.3845C359.731 71.0563 354.74 74.7088 350.413 80.3534C343.425 89.9826 342.76 94.6311 342.76 125.179V159.379L333.775 159.047C325.788 158.383 325.455 158.383 332.111 157.055C339.099 155.726 339.432 154.066 339.432 123.519C339.432 94.6311 340.097 90.6467 348.084 79.0253C358.067 64.7476 358.067 64.7476 361.395 70.3923ZM397.335 93.303C396.336 94.9632 394.007 95.6273 392.343 94.2991C390.679 93.303 390.014 90.9787 391.345 89.3185C392.343 87.6583 394.673 86.9942 396.336 88.3224C398 89.3185 398.666 91.6428 397.335 93.303ZM412.643 124.515C412.643 143.773 411.644 159.379 410.313 159.379C408.649 159.379 407.984 143.773 408.649 124.515C409.315 105.256 410.313 89.6505 411.311 89.6505C411.977 89.6505 412.643 105.256 412.643 124.515ZM402.659 158.051C402.659 158.715 400.33 159.379 397.668 159.379C395.005 159.379 392.676 158.051 392.676 156.058C392.676 154.398 395.005 153.734 397.668 154.73C400.33 156.058 402.659 157.387 402.659 158.051Z" fill="#F1A037" fill-opacity="0.63"/>
<path d="M467.217 59.4349C450.245 67.0718 443.923 76.0369 439.264 97.6194C434.938 116.214 440.262 140.785 448.582 141.449C450.578 141.781 453.573 142.445 455.237 142.777C456.568 143.109 458.898 143.441 460.229 143.109C461.893 142.777 462.225 144.105 460.894 146.097C459.23 149.086 463.889 151.078 466.884 148.421C467.55 148.089 470.545 149.75 473.207 151.742C477.866 155.726 488.847 155.394 496.501 150.746C498.498 149.418 499.164 149.75 497.832 152.074C496.834 153.734 497.832 156.058 499.829 157.055C502.158 157.719 497.5 158.051 489.18 157.719C480.861 157.055 474.205 156.39 474.205 156.058C474.205 155.726 471.543 155.062 468.215 154.398C464.888 153.734 459.23 150.746 455.57 147.425C452.242 144.437 449.247 143.109 449.247 144.769C449.247 146.429 454.572 151.41 461.227 156.058C471.543 163.031 477.2 164.027 497.5 164.027C510.478 164.027 523.123 162.699 525.12 161.371C527.449 160.043 529.113 153.734 529.113 147.757C529.113 136.8 528.781 136.468 520.461 139.456C503.157 146.097 489.18 143.441 477.2 131.487C459.23 113.557 461.227 112.229 502.491 113.557L539.097 114.553V102.932C539.097 89.6505 532.108 74.3767 526.784 75.3728C524.787 75.7048 521.127 73.7126 518.465 70.3922C514.471 65.4116 514.804 65.0796 520.128 69.3961C524.122 72.3844 525.786 72.7165 525.786 70.0602C525.786 65.0796 500.162 53.1261 489.18 53.1261C484.521 53.1261 474.538 56.1145 467.217 59.4349ZM485.852 63.0873C481.859 65.7437 482.192 66.4077 487.849 66.4077C491.842 66.4077 498.498 69.3961 502.824 73.3806L510.811 80.3534L502.491 75.0408C498.165 72.0524 491.842 69.7281 488.847 69.7281C485.852 69.7281 481.526 67.4038 479.197 64.7475C475.869 60.431 476.202 59.7669 482.857 59.7669C489.18 59.7669 489.846 60.431 485.852 63.0873ZM500.827 63.0873C501.826 65.0796 500.495 65.4116 497.832 64.4155C491.842 62.0912 490.844 59.7669 495.503 59.7669C497.5 59.7669 499.829 61.0951 500.827 63.0873ZM462.558 67.4038C462.558 68.0679 459.23 71.3883 455.237 75.0408L447.583 81.3495L453.906 73.7126C459.896 66.7398 462.558 64.7475 462.558 67.4038ZM474.871 73.0485C472.874 80.6854 473.873 81.0175 483.19 76.0369C488.515 73.0485 491.842 73.7126 499.164 79.0252C506.152 84.3379 509.147 85.0019 512.142 82.0136C515.47 79.0252 516.135 79.0252 515.137 83.0097C514.471 85.9981 516.468 87.9903 519.463 87.6583C522.458 87.3262 524.787 89.3185 524.787 91.6427C524.787 95.2952 523.123 95.2952 516.801 90.9787C509.147 86.3301 508.814 86.3301 509.48 91.9748C510.145 95.2952 509.48 99.6117 508.481 101.604C506.817 103.928 510.811 105.256 519.796 105.588C547.083 106.917 536.102 109.573 505.486 109.241C488.182 109.241 476.202 108.245 478.864 107.249C482.525 105.588 482.525 104.924 478.864 102.268C475.869 100.276 479.53 99.6117 489.846 100.276C498.498 100.608 506.485 99.9437 507.816 98.6156C509.147 97.2874 500.162 96.2913 488.182 96.2913C475.869 96.2913 465.886 94.9631 465.886 92.9709C465.886 91.3107 463.889 90.6466 461.227 91.6427C455.237 93.967 451.244 87.6583 456.235 84.3379C458.898 83.0097 459.23 83.3417 457.899 85.666C456.235 88.3223 457.899 89.3185 462.891 88.6544C467.217 87.9903 471.21 85.334 471.876 83.0097C472.874 80.6854 471.876 79.6893 469.546 81.0175C467.55 82.3456 465.886 81.6815 465.886 80.0213C465.886 78.0291 467.55 76.3689 469.214 76.3689C471.21 76.3689 472.541 74.0446 472.541 71.3883C472.541 68.732 473.54 66.4077 474.538 66.4077C475.869 66.4077 475.869 69.3961 474.871 73.0485ZM534.105 92.6389C535.103 94.299 534.771 96.6233 533.107 97.6194C531.443 98.6156 530.112 97.2874 530.112 94.6311C530.112 88.9864 531.11 88.3223 534.105 92.6389ZM456.901 112.893C455.903 116.878 454.239 119.202 453.24 118.206C451.577 116.214 454.904 106.252 457.234 106.252C457.899 106.252 457.899 109.241 456.901 112.893ZM446.252 119.866C444.588 124.183 442.924 126.175 442.924 123.851C442.592 118.87 446.252 108.909 447.916 110.569C448.914 111.233 447.916 115.55 446.252 119.866ZM477.533 138.128C483.19 143.109 484.854 145.433 480.861 143.441C477.2 141.781 471.876 141.117 469.214 141.781C465.22 143.109 465.22 142.777 468.548 140.12C472.209 137.796 470.878 135.472 463.556 129.827C458.565 125.843 457.234 124.183 460.894 125.843C464.555 127.835 472.209 133.148 477.533 138.128ZM521.459 154.73C518.797 157.387 505.486 159.047 507.15 156.722C507.816 155.394 511.809 154.066 515.802 153.734C519.796 153.402 522.458 153.734 521.459 154.73Z" fill="#F1A037" fill-opacity="0.63"/>
<path d="M490.179 105.256C493.174 105.92 497.833 105.92 500.162 105.256C502.159 104.26 499.829 103.596 494.172 103.596C488.848 103.596 486.851 104.26 490.179 105.256Z" fill="#F1A037" fill-opacity="0.63"/>
<path d="M612.973 58.4388C608.647 61.4272 603.655 67.7359 601.326 72.7165L597.665 81.3495L596.334 68.732C595.336 56.4466 595.003 56.4466 580.694 56.4466C569.379 56.4466 565.053 58.1068 562.391 62.7553C557.732 72.0524 558.065 74.0447 565.053 72.3845C570.378 70.7243 570.71 74.3767 569.712 116.878L568.714 162.699H583.689H598.996L599.662 131.82C599.995 115.218 600.327 98.6156 600.327 95.6272C600.327 92.6389 601.326 90.6466 602.657 91.6428C603.988 92.3068 606.317 91.3107 607.316 89.3185C610.976 83.6738 623.289 80.3534 630.61 83.0097C636.933 85.334 637.266 84.3379 636.267 69.3961C635.269 55.1184 633.938 53.1262 627.615 53.1262C623.622 53.1262 616.966 55.4504 612.973 58.4388ZM591.342 67.0718C590.344 69.7281 589.346 68.732 589.346 65.0796C589.013 61.4272 590.011 59.4349 591.01 60.7631C592.008 61.7592 592.341 64.7476 591.342 67.0718ZM632.274 64.7476C632.274 67.4039 629.944 69.7281 627.282 69.7281C622.956 69.7281 622.623 68.732 626.284 64.7476C631.608 58.7708 632.274 58.7708 632.274 64.7476ZM609.645 74.7087C608.98 79.3573 606.983 84.0058 605.319 84.6699C602.324 86.6622 603.988 75.3728 607.316 69.7281C610.643 64.4155 611.642 66.0757 609.645 74.7087ZM586.684 74.0447C589.013 73.0485 589.346 73.3806 588.015 74.7087C583.356 80.0214 576.035 79.3573 578.364 73.7126C579.695 70.3922 580.694 69.7281 581.692 72.3845C582.358 74.7087 584.687 75.3728 586.684 74.0447ZM578.031 98.6156C577.033 101.936 576.368 99.2797 576.368 92.9709C576.368 86.6622 577.033 84.0058 578.031 86.9942C578.697 90.3146 578.697 95.6272 578.031 98.6156ZM595.336 100.608C595.336 103.596 594.67 103.264 593.339 100.276C592.674 98.2835 590.011 97.2874 588.347 98.2835C586.018 99.6117 585.685 98.9476 587.016 96.6234C590.011 92.3068 595.669 94.9632 595.336 100.608ZM578.031 126.839C577.033 129.163 576.368 127.503 576.368 122.854C576.368 118.206 577.033 116.546 578.031 118.538C578.697 120.862 578.697 124.847 578.031 126.839ZM578.031 146.761C577.033 149.418 576.035 148.422 576.035 144.769C575.702 141.117 576.7 139.124 577.699 140.453C578.697 141.449 579.03 144.437 578.031 146.761ZM584.687 158.051C583.689 159.047 580.694 159.379 578.364 158.383C575.702 157.387 576.7 156.39 580.361 156.39C584.021 156.058 586.018 157.055 584.687 158.051Z" fill="#F1A037" fill-opacity="0.63"/>
<path d="M683.855 57.1125C669.545 62.0931 659.229 72.3863 654.903 86.664C651.908 97.2893 652.241 101.274 658.231 113.227C665.219 126.841 665.219 127.505 659.229 131.821C650.577 137.798 648.913 147.427 654.237 158.052C658.564 166.021 658.231 167.682 653.572 173.326C648.247 178.971 648.58 179.303 661.891 179.303C669.545 179.303 675.202 177.975 674.204 176.315C673.206 174.986 674.537 171.002 676.866 167.682C680.86 162.037 681.192 162.037 680.527 168.014C678.863 182.623 676.201 184.284 656.234 183.287C638.264 182.291 636.6 182.623 632.94 190.592C629.945 197.565 629.945 199.225 633.605 199.225C636.268 199.225 637.931 196.569 637.599 193.249C637.266 188.6 640.594 187.272 655.569 186.608C670.211 185.612 673.206 186.276 669.878 189.596C666.883 192.585 665.885 202.878 666.217 220.476L666.883 247.371L668.88 219.148C670.211 196.901 671.209 192.917 673.538 200.221C674.87 205.202 675.535 212.175 674.537 215.495C672.54 223.132 679.861 225.789 702.157 225.789C724.453 225.789 740.759 220.144 750.077 208.855C764.719 191.588 759.727 171.998 737.764 160.709C726.117 154.4 677.199 150.748 680.527 156.06C681.525 158.052 681.192 159.381 679.528 159.381C677.532 159.381 675.202 157.056 674.204 154.068C672.873 150.748 673.538 149.751 676.201 151.412C678.53 153.072 679.196 152.076 677.865 148.423C674.87 140.454 682.191 136.802 700.826 136.802C722.124 136.802 734.769 131.157 744.42 116.548C753.405 103.598 754.07 92.9728 747.082 79.6912C743.754 73.3824 743.421 69.398 745.418 68.0698C747.415 66.7416 747.747 64.4174 746.749 62.4251C745.418 60.1008 746.084 59.7688 748.413 61.097C751.408 63.0892 751.408 64.7494 748.413 68.4018C745.751 71.7222 745.751 73.0504 748.08 73.0504C751.408 73.0504 758.729 62.7572 758.729 58.4406C758.729 55.1203 736.1 56.1164 733.771 59.4368C732.773 61.429 727.448 60.7649 720.46 57.7766C707.149 52.4639 697.831 52.1319 683.855 57.1125ZM695.502 61.097C695.502 64.7494 689.179 66.0776 687.182 63.0892C686.184 61.429 687.515 59.7688 690.177 59.7688C693.172 59.7688 695.502 60.4329 695.502 61.097ZM682.856 75.0426C685.186 75.0426 689.512 73.3824 692.174 71.7222C696.5 68.4018 696.5 68.7339 692.507 73.7145C688.513 79.0271 688.846 79.3591 697.831 77.6989C705.818 76.0387 709.478 77.3669 715.135 83.3436C724.12 93.3048 723.122 101.938 711.475 110.571C702.823 116.88 702.157 116.88 693.838 111.567C682.856 104.262 680.194 97.2893 684.853 89.3203C691.176 79.3591 689.179 77.3669 682.191 85.9999C677.865 90.9805 675.535 91.9766 675.202 89.3203C674.87 86.664 674.204 80.3553 673.538 74.7106C672.873 67.7378 673.206 66.0776 675.535 69.73C677.199 72.3863 680.527 74.7106 682.856 75.0426ZM734.436 71.3902C734.436 74.0465 733.105 75.3747 731.441 74.3785C729.778 73.3824 729.445 71.0581 730.443 69.398C733.438 65.0814 734.436 65.7455 734.436 71.3902ZM722.124 77.6989C721.791 79.3591 723.455 82.0154 726.117 83.3436C728.446 85.0038 728.779 86.332 726.783 86.332C724.786 86.332 720.46 83.0116 716.799 79.3591C710.809 72.7183 710.809 72.3863 716.467 73.3824C719.794 74.0465 722.124 76.0387 722.124 77.6989ZM745.085 84.0077C745.085 86.996 744.42 86.664 743.089 83.6756C742.423 81.6834 739.761 80.6873 738.097 81.6834C735.768 83.0116 735.435 82.3475 736.766 80.0232C739.761 75.7067 745.418 78.363 745.085 84.0077ZM662.89 90.3164C660.56 92.6407 658.896 92.9728 658.896 90.9805C658.896 86.332 662.89 82.3475 665.219 84.6718C665.885 85.6679 664.886 88.3242 662.89 90.3164ZM672.207 90.9805C672.207 91.6446 669.545 94.3009 666.55 96.6252C661.226 100.942 660.893 100.61 665.219 95.297C669.545 89.9844 672.207 88.3242 672.207 90.9805ZM727.781 100.278C726.783 102.934 725.784 101.938 725.784 98.2854C725.451 94.6329 726.45 92.6407 727.448 93.9689C728.446 94.965 728.779 97.9533 727.781 100.278ZM693.505 119.204C692.507 120.2 688.513 117.212 684.52 113.227L677.199 105.258L686.184 111.567C690.843 114.887 694.171 118.54 693.505 119.204ZM725.451 107.582C725.451 108.247 722.789 110.903 719.794 113.227C714.47 117.544 714.137 117.212 718.463 111.899C722.789 106.586 725.451 104.926 725.451 107.582ZM745.418 109.243C745.418 111.235 744.087 113.227 742.756 114.223C741.092 115.219 739.761 113.891 739.761 111.235C739.761 108.579 741.092 106.254 742.756 106.254C744.087 106.254 745.418 107.582 745.418 109.243ZM668.88 117.876C673.538 124.184 673.538 124.184 668.214 119.868C664.886 117.544 662.224 113.891 662.224 111.899C662.224 109.907 662.557 109.243 663.222 109.907C663.555 110.571 666.217 114.223 668.88 117.876ZM725.784 117.544C723.122 120.532 723.122 122.856 725.119 124.184C726.783 125.513 729.778 123.52 731.774 120.532C733.771 117.212 735.435 116.216 735.435 118.208C735.435 120.2 733.105 123.852 730.11 126.509C725.784 129.829 724.453 129.829 722.124 126.177C719.462 121.86 723.455 112.895 727.781 112.895C728.779 112.895 727.781 114.887 725.784 117.544ZM713.804 119.536C714.803 121.196 714.137 122.856 712.473 122.856C710.477 122.856 708.813 121.196 708.813 119.536C708.813 117.544 709.478 116.216 710.144 116.216C711.142 116.216 712.806 117.544 713.804 119.536ZM704.487 125.845C704.154 131.821 698.164 133.15 693.172 128.169C691.841 126.841 692.839 126.177 695.502 126.841C698.164 127.173 700.161 125.845 699.828 123.52C699.162 121.528 700.161 119.536 701.824 119.536C703.821 119.536 704.819 122.192 704.487 125.845ZM674.87 139.458C667.548 149.419 663.222 153.072 667.548 145.103C670.543 139.79 679.528 129.497 681.192 129.497C681.858 129.497 679.196 133.814 674.87 139.458ZM661.559 139.458C659.229 142.779 656.9 145.103 655.901 144.439C654.57 143.111 661.891 132.817 664.221 132.817C664.886 132.817 663.888 135.806 661.559 139.458ZM667.881 158.385C666.55 159.381 667.548 162.701 669.878 165.689C673.538 170.338 673.206 170.338 668.214 166.353C661.226 161.373 660.56 156.06 666.217 156.06C668.214 156.06 668.88 157.056 667.881 158.385ZM690.843 168.014C691.176 171.002 690.843 172.33 689.512 171.334C688.513 170.006 687.182 166.686 686.849 164.029C686.517 161.041 686.849 159.713 688.181 160.709C689.179 162.037 690.51 165.357 690.843 168.014ZM723.122 161.705C720.793 162.369 716.799 162.369 714.803 161.705C712.473 160.709 714.137 160.045 718.796 160.045C723.455 160.045 725.119 160.709 723.122 161.705ZM752.406 179.635C754.403 193.581 753.072 198.893 745.751 206.53C741.425 211.843 736.433 215.827 734.769 215.827C733.438 215.827 736.433 211.843 741.425 206.53C754.403 194.245 752.739 169.01 739.428 174.322C736.433 175.319 735.102 175.319 736.433 173.99C737.764 172.662 736.766 169.342 734.436 166.353C732.44 163.697 735.435 164.693 741.425 169.01C747.082 172.994 752.406 177.975 752.406 179.635ZM728.779 167.35C728.779 168.014 726.117 170.67 723.122 172.994C717.798 177.311 717.465 176.979 721.791 171.666C726.117 166.353 728.779 164.693 728.779 167.35ZM723.455 185.612C729.778 192.253 729.778 192.585 724.12 198.893C716.134 207.526 700.493 210.847 688.846 205.866C678.863 201.882 673.538 192.253 677.199 185.612C684.187 174.654 712.14 174.654 723.455 185.612ZM734.769 184.616C736.1 183.952 737.099 186.94 737.099 191.256C737.099 195.573 736.766 199.225 736.433 199.225C735.435 199.225 725.451 178.307 725.451 176.315C725.451 175.319 727.115 176.979 729.112 180.299C731.109 183.287 733.438 185.612 734.769 184.616ZM728.779 205.866C726.783 209.519 724.453 212.507 723.455 212.507C722.789 212.507 723.455 209.519 725.451 205.866C727.448 202.214 729.778 199.225 730.776 199.225C731.441 199.225 730.776 202.214 728.779 205.866ZM723.788 219.148C720.127 220.808 709.811 221.804 700.493 221.804L683.855 221.472L702.157 219.148C728.446 215.827 731.441 215.827 723.788 219.148Z" fill="#F1A037" fill-opacity="0.63"/>
<path d="M675.535 80.3515C675.535 81.6797 676.866 83.0078 678.53 83.0078C680.527 83.0078 682.524 81.6797 683.522 80.3515C684.52 78.6913 683.189 77.3632 680.527 77.3632C677.865 77.3632 675.535 78.6913 675.535 80.3515Z" fill="#F1A037" fill-opacity="0.63"/>
<path d="M866.881 58.1067C850.908 63.7514 840.592 75.7048 835.267 94.9631C828.612 118.87 836.931 141.781 857.563 156.058C867.546 163.031 873.204 164.027 893.503 164.027C906.481 164.027 919.127 162.699 921.123 161.371C923.453 160.043 925.117 153.734 925.117 147.757C925.117 136.8 924.784 136.468 916.465 139.456C895.167 147.757 868.878 137.464 864.219 119.534C862.555 112.893 863.553 112.561 899.493 113.225L936.764 113.557L935.766 102.6C934.102 88.9864 929.443 76.0369 926.115 77.033C924.451 77.365 919.46 75.0408 914.468 71.7204C903.153 64.4155 895.5 67.7359 903.819 76.701C907.812 81.0175 910.475 82.0136 911.806 79.3573C913.47 77.033 914.801 77.6971 916.132 81.3495C917.463 84.3379 917.13 85.666 915.133 84.6699C913.137 83.6738 911.806 84.3379 911.806 86.6621C911.806 88.6544 908.478 86.3301 904.485 81.0175C900.158 75.7048 897.164 70.0602 897.829 68.4C898.495 66.7398 896.831 64.0835 894.501 62.4233C891.839 60.431 893.17 60.099 898.495 61.4271C903.153 62.7553 911.14 66.7398 916.465 70.3922C922.787 74.7087 925.449 75.7048 924.451 72.7165C922.787 66.7398 895.832 53.1261 886.847 53.1261C883.187 53.4582 874.202 55.4504 866.881 58.1067ZM878.528 61.0951C878.528 61.7592 876.199 63.4194 873.204 64.4155C870.541 65.4116 869.21 65.0796 870.209 63.0873C872.205 59.7669 878.528 58.4388 878.528 61.0951ZM885.184 64.7475C885.184 67.4038 883.852 69.7281 881.856 69.7281C880.192 69.7281 879.526 67.4038 880.525 64.7475C881.856 62.0912 883.187 59.7669 883.852 59.7669C884.518 59.7669 885.184 62.0912 885.184 64.7475ZM859.56 70.7242C860.558 73.0485 858.561 75.0408 854.901 75.0408C850.575 75.0408 849.909 74.0446 852.572 70.7242C854.568 68.4 856.565 66.4077 856.898 66.4077C857.563 66.4077 858.561 68.4 859.56 70.7242ZM894.169 78.0291C898.495 81.0175 904.152 88.3223 907.147 94.6311C909.809 100.94 914.801 106.585 917.796 107.249C921.123 108.245 913.137 108.909 900.824 109.241C883.852 109.573 878.195 108.577 879.526 105.256C880.192 103.264 885.516 101.272 891.506 100.94C911.806 100.276 906.148 96.2913 884.851 96.2913C867.546 96.2913 862.888 94.9631 859.56 89.9825C855.234 83.3417 859.227 79.6893 872.538 78.0291C875.866 77.6971 879.526 76.3689 880.857 75.3728C883.852 72.0524 886.182 72.3844 894.169 78.0291ZM847.247 86.3301C847.247 90.3146 845.916 91.6427 844.252 89.9825C842.588 88.3223 842.255 85.334 843.254 83.3417C846.582 78.3612 847.247 78.6932 847.247 86.3301ZM930.441 100.608C929.776 102.932 928.777 101.936 928.777 98.6156C928.444 95.6272 926.781 92.9709 924.784 92.9709C923.12 92.9709 922.454 91.3107 923.786 89.3185C926.781 84.3379 933.103 94.6311 930.441 100.608ZM874.202 104.592C874.202 106.585 872.205 108.577 870.209 108.577C868.212 108.577 866.215 106.585 866.215 104.592C866.215 102.6 868.212 100.608 870.209 100.608C872.205 100.608 874.202 102.6 874.202 104.592ZM843.587 109.573C844.585 111.233 843.919 112.893 842.255 112.893C840.259 112.893 838.595 111.233 838.595 109.573C838.595 107.581 839.26 106.252 839.926 106.252C840.924 106.252 842.588 107.581 843.587 109.573ZM843.254 124.847C844.252 127.503 843.919 128.831 841.923 127.835C839.926 126.839 838.595 124.515 838.595 122.522C838.595 117.874 840.924 118.87 843.254 124.847ZM863.553 125.843C865.883 129.827 859.56 133.812 855.234 131.155C851.573 128.831 853.903 122.854 858.561 122.854C860.225 122.854 862.222 124.183 863.553 125.843ZM885.184 148.421C885.184 150.746 872.205 142.777 870.209 139.456C868.878 137.464 866.548 137.132 864.551 138.128C862.222 139.456 861.889 138.792 863.22 136.8C864.884 134.144 868.545 135.14 875.533 140.12C880.857 144.105 885.184 147.757 885.184 148.421ZM868.212 155.062C868.878 155.726 868.212 156.058 866.215 156.058C864.219 156.058 859.227 153.07 854.901 149.086L846.914 142.445L856.898 148.089C862.555 151.41 867.546 154.398 868.212 155.062ZM895.167 150.746C895.167 151.742 893.836 153.402 891.839 154.398C890.175 155.394 888.511 154.73 888.511 153.07C888.511 151.078 890.175 149.418 891.839 149.418C893.836 149.418 895.167 150.082 895.167 150.746ZM880.857 158.051C879.859 159.047 876.864 159.379 874.535 158.383C871.873 157.387 872.871 156.39 876.531 156.39C880.192 156.058 882.189 157.055 880.857 158.051ZM906.148 158.383C903.819 159.047 899.826 159.047 897.829 158.383C895.5 157.387 897.164 156.722 901.822 156.722C906.481 156.722 908.145 157.387 906.148 158.383Z" fill="#F1A037" fill-opacity="0.63"/>
<path d="M864.219 82.0159C862.888 83.0121 861.89 85.6684 861.89 87.6606C861.89 89.6528 863.554 89.3208 865.883 86.9965C867.88 85.0043 868.878 82.348 868.212 81.3519C867.214 80.3557 865.217 80.6878 864.219 82.0159Z" fill="#F1A037" fill-opacity="0.63"/>
<path d="M901.823 102.93C897.497 105.586 897.83 106.25 902.821 106.25C905.816 106.25 908.478 104.59 908.478 102.93C908.478 98.9451 908.146 98.9451 901.823 102.93Z" fill="#F1A037" fill-opacity="0.63"/>
<path d="M884.519 105.256C886.516 105.92 890.509 105.92 892.838 105.256C894.835 104.26 893.171 103.596 888.512 103.596C883.853 103.596 882.19 104.26 884.519 105.256Z" fill="#F1A037" fill-opacity="0.63"/>
<path d="M775.701 65.0796C772.04 73.3806 772.373 73.7126 779.028 72.0524C787.681 69.7282 796 72.7165 793.338 77.033C792.007 79.0253 790.01 78.6932 788.346 76.0369C786.682 73.0486 785.351 84.6699 785.351 104.592C785.351 122.854 784.353 143.441 783.354 150.082L781.025 162.699H797.331H813.637V109.573V56.4466H796.666C781.691 56.4466 779.361 57.4427 775.701 65.0796ZM807.647 126.839C806.982 132.816 806.316 128.831 806.316 117.874C806.316 106.917 806.982 101.936 807.647 106.917C808.313 111.897 808.313 120.862 807.647 126.839ZM808.645 142.777C808.645 144.437 807.98 146.097 807.314 146.097C806.316 146.097 804.652 144.437 803.654 142.777C802.655 140.785 803.321 139.456 804.985 139.456C806.982 139.456 808.645 140.785 808.645 142.777ZM799.661 158.383C797.331 159.047 793.338 159.047 791.341 158.383C789.012 157.387 790.676 156.723 795.334 156.723C799.993 156.723 801.657 157.387 799.661 158.383Z" fill="#F1A037" fill-opacity="0.63"/>
<path d="M55.9059 129.829C61.5631 133.814 66.5547 138.13 66.5547 139.79C66.5547 141.45 66.5547 143.775 66.8875 145.103C66.8875 146.763 61.2303 149.419 54.242 151.744C45.9226 154.068 43.926 155.728 48.9176 155.728C58.9009 156.06 73.2102 150.416 73.2102 145.767C73.2102 140.786 54.5748 122.856 49.2504 122.856C46.921 122.856 49.9159 126.177 55.9059 129.829Z" fill="#F1A037" fill-opacity="0.63"/>
<path d="M8.98478 158.385C14.9747 159.049 24.958 159.049 30.948 158.385C36.6052 157.721 31.9463 157.057 19.9664 157.057C7.98645 157.057 3.32759 157.721 8.98478 158.385Z" fill="#F1A037" fill-opacity="0.63"/>
<path d="M786.017 186.605C783.687 188.929 782.023 194.574 782.023 199.222C782.023 209.515 787.681 215.824 796.998 215.824C807.98 215.824 812.972 210.512 812.972 199.222C812.972 193.578 810.975 187.269 808.313 185.609C801.657 181.624 790.676 181.956 786.017 186.605ZM803.654 209.183C802.656 210.844 799.661 212.504 797.664 212.504C795.334 212.504 795.667 211.176 798.662 209.183C804.985 205.199 806.316 205.199 803.654 209.183Z" fill="#F1A037" fill-opacity="0.63"/>
<path d="M836.266 188.266C835.267 191.586 833.603 195.571 832.938 197.563C832.272 199.223 834.269 197.563 837.264 193.246C841.257 187.934 846.249 185.941 855.567 185.941H868.545V262.311V338.68H857.896H846.914L847.913 268.951C848.578 221.47 847.913 199.223 845.583 199.223C842.921 199.223 841.923 222.798 841.923 270.612V342H857.896H873.536V262.311V182.621H855.899C842.256 182.621 837.929 183.949 836.266 188.266Z" fill="#F1A037" fill-opacity="0.63"/>
<path d="M246.92 189.924C240.597 196.233 242.261 208.518 249.582 210.842C262.56 214.827 271.545 199.221 262.227 189.924C257.236 184.943 251.911 184.943 246.92 189.924ZM257.901 192.58C259.232 194.572 258.234 195.568 255.905 195.236C253.908 194.572 251.246 196.233 250.247 198.889C249.582 201.545 250.247 202.541 252.244 201.213C254.241 200.217 256.57 200.549 257.568 202.209C258.9 203.869 257.236 204.866 254.573 204.533C246.92 203.537 244.923 199.885 249.582 194.24C254.573 188.264 255.239 188.264 257.901 192.58Z" fill="#F1A037" fill-opacity="0.63"/>
<path d="M174.375 193.909C171.047 202.542 175.706 209.847 183.693 208.519C194.674 207.191 194.674 191.253 183.693 189.925C179.367 189.261 175.373 190.921 174.375 193.909ZM188.352 196.234C191.679 201.878 184.026 208.187 179.367 203.538C175.373 199.554 178.036 192.581 183.027 192.581C184.691 192.581 187.02 194.241 188.352 196.234Z" fill="#F1A037" fill-opacity="0.63"/>
<path d="M179.699 199.223C179.699 200.883 181.363 202.543 183.027 202.543C185.024 202.543 186.355 200.883 186.355 199.223C186.355 197.23 185.024 195.902 183.027 195.902C181.363 195.902 179.699 197.23 179.699 199.223Z" fill="#F1A037" fill-opacity="0.63"/>
<path d="M109.816 199.222C109.816 203.539 112.145 205.863 116.471 205.863C120.798 205.863 123.127 203.539 123.127 199.222C123.127 194.906 120.798 192.582 116.471 192.582C112.145 192.582 109.816 194.906 109.816 199.222ZM119.799 199.222C119.799 200.883 118.135 202.543 116.139 202.543C114.475 202.543 113.809 200.883 114.808 199.222C115.806 197.23 117.47 195.902 118.468 195.902C119.134 195.902 119.799 197.23 119.799 199.222Z" fill="#F1A037" fill-opacity="0.63"/>
<path d="M0 199.223C0 200.883 1.66388 202.543 3.32776 202.543C5.32441 202.543 6.65552 200.883 6.65552 199.223C6.65552 197.23 5.32441 195.902 3.32776 195.902C1.66388 195.902 0 197.23 0 199.223Z" fill="#F1A037" fill-opacity="0.63"/>
<path d="M50.5819 199.551C51.2474 201.543 53.2441 202.871 54.9079 202.871C56.5718 202.871 58.5685 201.543 59.234 199.551C59.8996 197.558 57.9029 195.898 54.9079 195.898C51.913 195.898 49.9163 197.558 50.5819 199.551Z" fill="#F1A037" fill-opacity="0.63"/>
<path d="M642.257 269.947L640.593 342L657.232 341.336C673.871 341.004 673.871 341.004 659.894 339.676L645.585 338.348L644.919 267.955L643.921 197.563L642.257 269.947Z" fill="#F1A037" fill-opacity="0.63"/>
<path d="M361.728 237.743C356.403 240.732 352.743 243.72 353.741 244.384C354.407 245.048 359.398 243.72 364.723 240.732C378.699 233.427 390.679 234.755 402.326 244.384C409.315 250.029 411.977 251.025 410.646 247.704C407.651 240.4 392.01 232.431 380.363 232.431C375.371 232.763 366.719 235.087 361.728 237.743Z" fill="#F1A037" fill-opacity="0.63"/>
<path d="M426.951 237.408C420.961 240.064 415.97 243.716 415.97 246.041C415.97 248.365 418.632 247.701 422.625 244.048C427.284 239.732 434.938 237.74 446.252 237.74C460.894 237.408 464.222 238.736 471.211 246.705C478.532 255.338 479.197 258.99 479.863 296.511L480.528 337.02L481.527 298.835C482.858 255.338 480.195 245.045 464.222 237.74C450.911 231.431 440.928 231.099 426.951 237.408Z" fill="#F1A037" fill-opacity="0.63"/>
<path d="M535.77 239.732C508.482 253.677 498.499 285.221 512.475 313.777C519.464 327.722 539.097 342 551.077 342C554.738 341.668 551.743 339.676 544.755 337.351C528.781 331.375 519.464 323.406 513.807 309.792C503.49 285.885 511.144 260.982 533.44 244.38C546.419 234.751 578.365 234.751 591.011 244.38C608.648 257.33 613.972 267.955 613.972 288.874C613.972 312.448 606.984 323.738 585.686 334.363C577.699 338.68 573.373 342 576.036 342C584.355 342 602.99 328.054 611.31 315.769C623.955 297.175 619.962 263.307 603.323 248.365C594.006 240.064 574.039 232.427 561.393 232.427C555.403 232.427 543.756 235.747 535.77 239.732Z" fill="#F1A037" fill-opacity="0.63"/>
<path d="M922.788 238.738C887.181 255.34 884.851 314.443 919.127 335.361C925.117 339.014 933.104 342.002 936.764 341.67C941.756 341.338 941.423 340.674 934.435 338.682C910.808 331.709 898.495 314.443 898.495 288.876C898.495 257.332 916.132 237.742 944.751 237.742C965.716 238.074 979.359 246.043 988.012 262.977C991.672 270.946 995 275.262 995 272.938C995 270.614 992.671 264.305 990.008 258.992C978.361 236.414 947.746 227.116 922.788 238.738Z" fill="#F1A037" fill-opacity="0.63"/>
<path d="M309.482 242.719C307.152 246.371 306.487 250.356 307.152 251.352C308.151 252.016 310.48 249.692 312.81 246.039C315.472 240.727 319.465 239.066 329.448 239.066C336.437 239.066 343.092 241.059 343.758 243.051C344.756 245.707 345.754 245.043 345.754 241.391C346.087 236.742 343.092 235.746 329.448 235.746C316.137 235.746 312.477 237.074 309.482 242.719Z" fill="#F1A037" fill-opacity="0.63"/>
<path d="M776.033 242.72C773.704 246.705 772.373 250.357 773.039 251.353C774.037 252.349 776.366 249.693 778.696 246.041C781.358 240.728 785.351 239.068 795.334 239.068H808.646V288.874V338.68H797.997H787.015L787.681 294.85C788.013 270.611 788.013 252.017 787.015 254.01C786.35 255.67 785.351 276.256 784.353 299.499L783.022 342H798.329H813.637L812.639 288.874L811.64 235.747H796C783.687 235.747 779.361 237.076 776.033 242.72Z" fill="#F1A037" fill-opacity="0.63"/>
<path d="M728.779 248.036C720.459 251.688 710.476 252.684 694.17 251.356C673.538 250.028 671.874 250.36 679.195 254.344C683.521 256.669 690.51 257.665 694.17 257.001C703.155 254.676 720.792 263.309 725.451 271.942C731.774 283.896 729.444 299.502 719.794 309.463C705.152 324.737 683.854 321.084 673.871 302.158C666.883 288.544 667.548 280.908 677.531 269.286C682.19 263.641 684.52 258.993 682.856 258.993C680.859 258.993 676.2 264.306 672.207 270.946C651.575 304.15 694.836 340.011 722.456 312.451C735.102 299.502 735.767 280.575 724.12 266.63L715.801 257.001L727.448 252.684C741.091 247.704 744.752 249.696 750.742 264.306C763.387 294.521 749.078 329.717 720.459 338.35C714.802 340.011 713.138 341.671 716.466 341.671C725.784 342.003 740.759 333.038 748.08 322.744C761.724 303.818 761.391 267.958 747.747 251.688C740.759 243.387 740.093 243.387 728.779 248.036Z" fill="#F1A037" fill-opacity="0.63"/>
<path d="M928.112 259.32C922.787 265.297 919.127 270.941 920.458 271.938C921.789 272.934 923.453 271.938 924.451 269.281C927.113 261.312 938.095 252.347 945.416 252.347C949.409 252.347 957.063 257.328 962.72 262.972C973.702 274.594 972.038 268.949 960.724 256.332C951.073 246.038 939.759 247.035 928.112 259.32Z" fill="#F1A037" fill-opacity="0.63"/>
<path d="M356.736 254.674C347.418 258.326 342.76 275.26 342.76 307.136V338.68H331.445C321.462 338.68 319.798 337.351 318.467 329.715C317.136 321.082 317.136 321.082 316.47 331.043C316.137 342 316.137 342 332.111 342H347.751L346.753 307.8C345.755 277.252 346.42 272.936 352.743 264.635C361.395 253.677 373.708 253.013 380.696 262.975C384.689 268.619 386.02 279.245 386.02 306.14V342H400.995H415.97V305.476C415.97 272.936 416.636 268.287 422.959 261.978C431.943 253.013 445.92 254.674 451.577 265.631C454.572 271.276 455.571 285.221 455.238 308.132L454.239 342L470.878 341.336C487.184 341.004 487.184 340.672 473.54 339.676L459.897 338.348L458.566 302.155C457.9 272.604 456.569 264.967 451.244 259.322C442.925 250.025 430.945 250.357 420.962 260.65C413.308 268.287 412.642 270.944 412.642 303.815V338.68H400.995H389.348V302.819C389.348 269.615 388.683 266.295 381.694 259.654C374.373 252.681 365.721 251.021 356.736 254.674Z" fill="#F1A037" fill-opacity="0.63"/>
<path d="M553.739 255.67C550.079 256.998 542.757 263.307 537.766 269.284C530.112 278.249 528.781 282.233 530.445 291.863C532.774 307.136 548.747 322.078 562.391 322.078C576.035 322.078 592.008 307.136 594.005 292.195L596.002 280.573L591.01 293.855C579.696 323.406 550.744 328.055 537.433 302.156C530.112 288.21 531.11 280.241 541.759 268.288C555.07 254.01 569.712 254.01 583.023 268.288C588.015 274.264 592.341 277.917 592.341 276.257C592.341 271.94 574.704 256.666 567.383 254.674C563.722 253.678 557.732 254.01 553.739 255.67Z" fill="#F1A037" fill-opacity="0.63"/>
<path d="M934.435 277.916C940.092 278.58 950.075 278.58 956.065 277.916C961.722 277.252 957.063 276.588 945.083 276.588C933.103 276.588 928.445 277.252 934.435 277.916Z" fill="#F1A037" fill-opacity="0.63"/>
<path d="M942.754 291.197C953.07 291.861 970.375 291.861 981.024 291.197C991.34 290.533 982.687 290.201 961.723 290.201C940.758 290.201 932.105 290.533 942.754 291.197Z" fill="#F1A037" fill-opacity="0.63"/>
<path d="M921.789 299.168C921.789 301.824 926.448 308.465 932.105 314.109C941.09 322.742 944.418 323.738 962.055 323.738C980.025 323.406 982.021 324.07 981.023 330.047C980.358 334.032 976.364 337.684 971.705 339.012C967.047 340.34 965.715 341.337 969.043 341.669C980.358 342.333 985.016 338.016 985.016 326.727C985.016 316.102 984.684 315.769 976.364 318.758C957.396 326.063 935.766 319.09 927.113 302.82C924.118 297.507 922.122 295.847 921.789 299.168Z" fill="#F1A037" fill-opacity="0.63"/>
<path d="M678.53 335.031C682.856 339.016 689.512 341.672 693.505 341.672C699.828 341.34 699.828 341.008 693.838 339.68C690.51 338.684 683.522 335.695 678.863 333.039L670.543 328.058L678.53 335.031Z" fill="#F1A037" fill-opacity="0.63"/>
</svg>
