<svg width="1170" height="400" viewBox="0 0 1170 400" fill="none" xmlns="http://www.w3.org/2000/svg">
<path d="M183.457 18.2533C183.457 43.4959 177.981 73.3987 173.287 78.0589C168.593 82.7191 160.769 76.1171 147.47 58.2531L140.429 48.5444L145.123 58.2531C151.381 71.457 164.681 85.4375 170.94 85.4375C173.678 85.4375 177.981 80.7773 180.328 74.9521C185.022 62.525 190.107 0.000891209 186.195 0.000891209C185.022 0.000891209 183.848 8.1562 183.457 18.2533Z" fill="#F1A037" fill-opacity="0.63"/>
<path d="M7.82331 9.71441C0.391165 18.2581 4.69398 19.4231 12.9085 10.8795C16.4289 6.99597 17.9936 3.88919 16.0378 3.88919C14.082 3.88919 10.5615 6.60763 7.82331 9.71441Z" fill="#F1A037" fill-opacity="0.63"/>
<path d="M230.787 97.0894V190.293H283.594H336.402V174.759V159.225H301.197H265.992L265.21 132.817L264.818 106.798L262.08 132.041L259.342 157.283L258.951 133.594C258.169 113.4 259.342 108.74 266.774 102.526C274.206 96.701 274.598 96.3127 270.295 101.75C265.21 108.351 267.165 108.74 298.459 108.74H332.099L331.708 92.8176V77.2836L295.721 78.0603C263.254 78.837 260.125 78.0603 259.342 71.4584C258.169 64.8565 258.56 64.8565 261.689 71.8468C264.427 77.672 265.601 73.7885 265.601 56.3128C265.992 40.0022 264.818 34.5653 262.08 38.8372C260.125 41.9439 258.169 42.7206 258.169 40.7789C258.169 38.4488 260.125 34.177 262.08 31.0702C264.427 27.1867 265.992 26.7984 265.992 29.9051C265.992 33.7886 275.771 34.9537 301.197 34.9537H336.402V19.4197V3.88581H283.594H230.787V97.0894ZM331.708 10.0994C328.578 12.8178 238.61 12.8178 235.481 10.0994C234.308 8.93434 255.822 7.76929 283.594 7.76929C311.367 7.76929 332.881 8.93434 331.708 10.0994ZM244.478 19.4197C245.651 21.7498 244.087 22.1382 240.957 20.9731C233.916 18.2547 232.743 15.5363 238.219 15.5363C240.566 15.5363 243.304 17.0896 244.478 19.4197ZM262.08 56.7012C262.08 59.808 260.125 62.138 257.778 62.138C255.822 62.138 255.039 60.1963 256.213 58.2546C257.778 55.9245 256.604 50.8759 253.475 47.3808C248.781 41.5556 249.172 41.1672 255.431 46.2158C258.951 48.9342 262.08 53.9827 262.08 56.7012ZM264.427 89.7108C265.601 92.0409 264.818 95.9243 262.08 98.2544C258.169 101.75 257.778 101.75 260.125 97.4777C261.689 94.371 260.907 90.8758 257.778 88.9341C254.257 86.604 253.866 85.4389 256.995 85.4389C259.342 85.4389 262.863 87.3807 264.427 89.7108ZM300.023 169.322C298.85 170.487 295.329 170.876 292.591 169.711C289.462 168.545 290.635 167.38 294.938 167.38C299.241 166.992 301.588 168.157 300.023 169.322ZM328.578 174.371C333.664 184.079 333.664 186.409 328.187 186.409C326.231 186.409 325.449 184.468 326.623 182.526C327.796 180.196 327.014 178.643 324.667 178.643C322.32 178.643 321.146 177.089 322.32 175.147C323.884 173.206 322.32 170.487 319.973 169.711C316.061 168.157 316.061 167.38 319.582 167.38C322.32 166.992 326.231 170.487 328.578 174.371ZM268.339 180.584C269.121 184.468 265.601 186.409 258.951 186.409L248.39 186.021L257.386 181.361C262.08 178.643 265.21 175.147 264.036 173.594C262.863 172.041 263.254 171.652 264.818 172.817C266.383 173.982 267.948 177.477 268.339 180.584ZM245.26 184.856C244.087 186.021 240.566 186.409 237.828 185.244C234.699 184.079 235.872 182.914 240.175 182.914C244.478 182.526 246.825 183.691 245.26 184.856ZM310.194 185.244C303.153 186.021 291.418 186.021 284.768 185.244C277.727 184.468 283.203 183.691 297.285 183.691C311.367 183.691 316.843 184.468 310.194 185.244Z" fill="#F1A037" fill-opacity="0.63"/>
<path d="M46.9391 40.3903C73.9296 68.3514 115.784 97.0891 131.04 98.2542C141.21 99.0309 142.775 97.4775 143.948 88.5455C144.73 82.7203 143.166 74.9533 141.21 71.0698C138.081 65.6329 137.69 68.3514 139.645 81.1669L141.992 98.2542L131.04 95.5357C115.784 91.6523 85.6645 71.0698 52.8066 42.332L25.425 17.8661L46.9391 40.3903Z" fill="#F1A037" fill-opacity="0.63"/>
<path d="M31.6844 40.3868C58.6748 70.6779 82.1447 101.357 90.3592 117.28C100.921 137.862 96.6178 142.911 73.9302 136.309C65.3246 133.59 57.1101 132.425 55.9366 133.202C52.8073 136.309 81.3624 144.464 90.7504 142.911C112.264 139.804 91.1415 99.4157 43.0282 50.4838C28.9462 36.5033 23.8611 31.8431 31.6844 40.3868Z" fill="#F1A037" fill-opacity="0.63"/>
<path d="M131.432 55.5353C132.605 59.4188 134.952 61.3605 136.126 60.1955C137.299 59.0304 136.126 55.9236 133.388 53.2052C129.476 49.7101 129.085 50.0984 131.432 55.5353Z" fill="#F1A037" fill-opacity="0.63"/>
<path d="M428.327 66.4099C424.024 69.1283 416.592 74.1769 412.289 78.4487C404.074 85.8273 404.074 85.8273 405.639 76.1186C407.595 66.4099 407.204 66.0215 388.036 66.0215C372.39 66.0215 367.305 67.5749 363.784 73.4002C357.917 84.6623 358.699 86.604 370.825 83.8856C376.693 82.7205 379.04 82.7205 376.693 83.8856C372.781 85.439 371.608 100.196 371.608 138.254V190.293H390.383H408.768L407.595 149.905C406.421 111.847 406.812 109.128 416.2 98.6428C424.806 88.1574 426.762 87.769 437.714 92.0409C448.667 95.9244 455.317 92.8176 445.929 88.1574C443.582 86.9923 443.973 86.604 446.711 86.9923C452.579 88.1574 452.579 87.3807 453.361 146.41L453.752 190.293H472.528H490.913L488.957 137.866C487.001 88.1574 486.61 85.0506 476.831 75.3419C465.096 64.0798 440.453 59.4196 428.327 66.4099ZM435.759 73.0118C436.932 74.9536 435.367 76.5069 432.238 76.5069C429.109 76.5069 427.544 74.9536 428.718 73.0118C429.891 71.4584 431.456 69.905 432.238 69.905C433.02 69.905 434.585 71.4584 435.759 73.0118ZM467.052 74.1769C472.137 76.5069 477.613 82.3322 478.787 86.9923C480.743 94.371 479.96 94.371 472.919 85.439C467.443 78.837 464.314 77.2836 462.749 80.3904C461.967 83.1089 459.229 85.439 456.882 85.439C454.535 85.439 454.535 83.1089 457.664 79.6137C460.793 76.1186 461.184 73.7885 458.446 73.7885C456.099 73.7885 452.97 75.3419 451.796 77.672C450.623 79.6137 447.102 81.5555 444.755 81.1671C441.626 81.1671 442.017 80.0021 445.538 78.837C449.841 76.8953 449.841 76.1186 445.538 73.4002C437.323 68.3516 455.317 69.1283 467.052 74.1769ZM424.806 82.3322C426.371 85.0506 426.371 86.2157 424.415 84.6623C422.85 83.1089 416.983 87.3807 411.898 93.9826C403.683 105.245 402.901 110.682 402.901 146.41V186.409L392.339 186.021C382.951 185.244 382.56 185.244 390.383 183.691C398.598 182.138 398.989 180.196 398.989 144.468C398.989 110.682 399.771 106.021 409.159 92.4292C420.894 75.7303 420.894 75.7303 424.806 82.3322ZM467.052 109.128C465.878 111.07 463.14 111.847 461.184 110.293C459.229 109.128 458.446 106.41 460.011 104.468C461.184 102.526 463.923 101.75 465.878 103.303C467.834 104.468 468.617 107.186 467.052 109.128ZM485.045 145.633C485.045 168.157 483.872 186.409 482.307 186.409C480.351 186.409 479.569 168.157 480.351 145.633C481.134 123.109 482.307 104.856 483.481 104.856C484.263 104.856 485.045 123.109 485.045 145.633ZM473.311 184.856C473.311 185.633 470.572 186.409 467.443 186.409C464.314 186.409 461.576 184.856 461.576 182.526C461.576 180.584 464.314 179.808 467.443 180.973C470.572 182.526 473.311 184.079 473.311 184.856Z" fill="#F1A037" fill-opacity="0.63"/>
<path d="M549.196 69.5179C529.246 78.45 521.814 88.9354 516.338 114.178C511.253 135.926 517.511 164.663 527.291 165.44C529.638 165.828 533.158 166.605 535.114 166.993C536.679 167.382 539.417 167.77 540.981 167.382C542.937 166.993 543.328 168.547 541.764 170.877C539.808 174.372 545.284 176.702 548.805 173.595C549.587 173.207 553.108 175.149 556.237 177.479C561.713 182.139 574.622 181.751 583.618 176.314C585.965 174.76 586.748 175.149 585.183 177.867C584.01 179.809 585.183 182.527 587.53 183.692C590.268 184.469 584.792 184.857 575.013 184.469C565.234 183.692 557.41 182.916 557.41 182.527C557.41 182.139 554.281 181.362 550.369 180.586C546.458 179.809 539.808 176.314 535.505 172.43C531.593 168.935 528.073 167.382 528.073 169.323C528.073 171.265 534.332 177.09 542.155 182.527C554.281 190.683 560.931 191.848 584.792 191.848C600.047 191.848 614.912 190.294 617.259 188.741C619.997 187.187 621.953 179.809 621.953 172.819C621.953 160.003 621.561 159.615 611.782 163.11C591.442 170.877 575.013 167.77 560.931 153.79C539.808 132.819 542.155 131.265 590.659 132.819L633.688 133.984V120.392C633.688 104.858 625.473 86.9936 619.214 88.1587C616.867 88.547 612.565 86.2169 609.435 82.3334C604.741 76.5082 605.132 76.1199 611.391 81.1684C616.085 84.6635 618.041 85.0519 618.041 81.9451C618.041 76.1199 587.921 62.1393 575.013 62.1393C569.536 62.1393 557.801 65.6345 549.196 69.5179ZM571.101 73.7898C566.407 76.8966 566.798 77.6733 573.448 77.6733C578.142 77.6733 585.965 81.1684 591.051 85.8286L600.439 93.9839L590.659 87.7703C585.574 84.2752 578.142 81.5567 574.622 81.5567C571.101 81.5567 566.016 78.8383 563.278 75.7315C559.366 70.683 559.757 69.9063 567.581 69.9063C575.013 69.9063 575.795 70.683 571.101 73.7898ZM588.704 73.7898C589.877 76.1199 588.312 76.5082 585.183 75.3432C578.142 72.6247 576.969 69.9063 582.445 69.9063C584.792 69.9063 587.53 71.4597 588.704 73.7898ZM543.72 78.8383C543.72 79.615 539.808 83.4985 535.114 87.7703L526.117 95.1489L533.549 86.2169C540.59 78.0616 543.72 75.7315 543.72 78.8383ZM558.193 85.4402C555.846 94.3722 557.019 94.7606 567.972 88.9354C574.23 85.4402 578.142 86.2169 586.748 92.4305C594.962 98.6441 598.483 99.4208 602.003 95.9256C605.915 92.4305 606.697 92.4305 605.524 97.0907C604.741 100.586 607.088 102.916 610.609 102.528C614.129 102.139 616.867 104.469 616.867 107.188C616.867 111.46 614.912 111.46 607.479 106.411C598.483 100.974 598.092 100.974 598.874 107.576C599.656 111.46 598.874 116.508 597.7 118.838C595.745 121.557 600.439 123.11 611 123.498C643.076 125.052 630.167 128.159 594.18 127.77C573.839 127.77 559.757 126.605 562.887 125.44C567.189 123.498 567.189 122.722 562.887 119.615C559.366 117.285 563.669 116.508 575.795 117.285C585.965 117.673 595.353 116.896 596.918 115.343C598.483 113.79 587.921 112.625 573.839 112.625C559.366 112.625 547.631 111.071 547.631 108.741C547.631 106.799 545.284 106.023 542.155 107.188C535.114 109.906 530.42 102.528 536.287 98.6441C539.417 97.0907 539.808 97.479 538.243 100.197C536.287 103.304 538.243 104.469 544.111 103.693C549.196 102.916 553.89 99.8091 554.672 97.0907C555.846 94.3722 554.672 93.2072 551.934 94.7606C549.587 96.314 547.631 95.5373 547.631 93.5955C547.631 91.2655 549.587 89.3237 551.543 89.3237C553.89 89.3237 555.455 86.6053 555.455 83.4985C555.455 80.3917 556.628 77.6733 557.801 77.6733C559.366 77.6733 559.366 81.1684 558.193 85.4402ZM627.82 108.353C628.994 110.295 628.602 113.013 626.647 114.178C624.691 115.343 623.126 113.79 623.126 110.683C623.126 104.081 624.3 103.304 627.82 108.353ZM537.07 132.042C535.896 136.702 533.94 139.421 532.767 138.256C530.811 135.926 534.723 124.275 537.461 124.275C538.243 124.275 538.243 127.77 537.07 132.042ZM524.552 140.197C522.597 145.246 520.641 147.576 520.641 144.858C520.25 139.032 524.552 127.382 526.508 129.324C527.682 130.1 526.508 135.149 524.552 140.197ZM561.322 161.556C567.972 167.382 569.928 170.1 565.234 167.77C560.931 165.828 554.672 165.052 551.543 165.828C546.849 167.382 546.849 166.993 550.761 163.887C555.063 161.168 553.499 158.45 544.893 151.848C539.026 147.188 537.461 145.246 541.764 147.188C546.067 149.518 555.063 155.731 561.322 161.556ZM612.956 180.974C609.826 184.081 594.18 186.022 596.136 183.304C596.918 181.751 601.612 180.197 606.306 179.809C611 179.421 614.129 179.809 612.956 180.974Z" fill="#F1A037" fill-opacity="0.63"/>
<path d="M576.186 123.109C579.707 123.886 585.183 123.886 587.921 123.109C590.268 121.944 587.53 121.167 580.88 121.167C574.622 121.167 572.275 121.944 576.186 123.109Z" fill="#F1A037" fill-opacity="0.63"/>
<path d="M720.526 68.3516C715.441 71.8467 709.574 79.2254 706.836 85.0506L702.533 95.1476L700.968 80.3904C699.795 66.0215 699.404 66.0215 682.583 66.0215C669.284 66.0215 664.199 67.9633 661.069 73.4001C655.593 84.2739 655.984 86.604 664.199 84.6622C670.457 82.7205 670.848 86.9923 669.675 136.701L668.501 190.293H686.104H704.098L704.88 154.177C705.271 134.759 705.662 115.342 705.662 111.847C705.662 108.351 706.836 106.021 708.4 107.186C709.965 107.963 712.703 106.798 713.877 104.468C718.179 97.8661 732.653 93.9826 741.258 97.0894C748.69 99.8078 749.082 98.6428 747.908 81.1671C746.735 64.4681 745.17 62.138 737.738 62.138C733.044 62.138 725.22 64.8565 720.526 68.3516ZM695.101 78.4487C693.927 81.5554 692.754 80.3904 692.754 76.1186C692.363 71.8467 693.536 69.5167 694.71 71.07C695.883 72.2351 696.274 75.7302 695.101 78.4487ZM743.214 75.7302C743.214 78.837 740.476 81.5554 737.347 81.5554C732.261 81.5554 731.87 80.3904 736.173 75.7302C742.432 68.74 743.214 68.74 743.214 75.7302ZM716.615 87.3807C715.832 92.8176 713.485 98.2544 711.53 99.0311C708.009 101.361 709.965 88.1574 713.877 81.5554C717.788 75.3419 718.962 77.2836 716.615 87.3807ZM689.624 86.604C692.363 85.4389 692.754 85.8273 691.189 87.3807C685.713 93.5942 677.107 92.8176 679.845 86.2156C681.41 82.3321 682.583 81.5554 683.757 84.6622C684.539 87.3807 687.277 88.1574 689.624 86.604ZM679.454 115.342C678.281 119.225 677.498 116.118 677.498 108.74C677.498 101.361 678.281 98.2544 679.454 101.75C680.236 105.633 680.236 111.847 679.454 115.342ZM699.795 117.672C699.795 121.167 699.012 120.779 697.448 117.283C696.665 114.953 693.536 113.788 691.58 114.953C688.842 116.507 688.451 115.73 690.016 113.012C693.536 107.963 700.186 111.07 699.795 117.672ZM679.454 148.351C678.281 151.07 677.498 149.128 677.498 143.691C677.498 138.254 678.281 136.313 679.454 138.643C680.236 141.361 680.236 146.021 679.454 148.351ZM679.454 171.652C678.281 174.759 677.107 173.594 677.107 169.322C676.716 165.05 677.889 162.72 679.063 164.274C680.236 165.439 680.628 168.934 679.454 171.652ZM687.277 184.856C686.104 186.021 682.583 186.409 679.845 185.244C676.716 184.079 677.889 182.914 682.192 182.914C686.495 182.526 688.842 183.691 687.277 184.856Z" fill="#F1A037" fill-opacity="0.63"/>
<path d="M803.845 66.8007C787.025 72.6259 774.899 84.6647 769.813 101.364C766.293 113.791 766.684 118.451 773.725 132.432C781.939 148.354 781.939 149.131 774.899 154.179C764.728 161.169 762.772 172.431 769.031 184.859C774.116 194.179 773.725 196.121 768.249 202.723C761.99 209.324 762.381 209.713 778.028 209.713C787.025 209.713 793.674 208.159 792.501 206.218C791.327 204.664 792.892 200.004 795.63 196.121C800.324 189.519 800.715 189.519 799.933 196.509C797.977 213.596 794.848 215.538 771.378 214.373C750.255 213.208 748.299 213.596 743.996 222.917C740.476 231.072 740.476 233.014 744.779 233.014C747.908 233.014 749.864 229.907 749.473 226.023C749.082 220.587 752.993 219.033 770.596 218.256C787.807 217.091 791.327 217.868 787.416 221.752C783.895 225.247 782.722 237.286 783.113 257.868L783.895 289.324L786.242 256.315C787.807 230.295 788.98 225.635 791.719 234.179C793.283 240.004 794.066 248.159 792.892 252.043C790.545 260.975 799.151 264.082 825.359 264.082C851.567 264.082 870.734 257.48 881.687 244.276C898.898 224.082 893.03 201.169 867.214 187.965C853.523 180.587 796.021 176.315 799.933 182.528C801.107 184.859 800.715 186.412 798.76 186.412C796.413 186.412 793.674 183.694 792.501 180.198C790.936 176.315 791.719 175.15 794.848 177.092C797.586 179.033 798.368 177.868 796.804 173.596C793.283 164.276 801.889 160.004 823.794 160.004C848.829 160.004 863.693 153.402 875.037 136.315C885.598 121.169 886.381 108.742 878.166 93.2084C874.254 85.8298 873.863 81.1696 876.21 79.6162C878.557 78.0628 878.948 75.3444 877.775 73.0143C876.21 70.2958 876.993 69.9075 879.731 71.4609C883.251 73.791 883.251 75.7327 879.731 80.0045C876.601 83.888 876.601 85.4414 879.34 85.4414C883.251 85.4414 891.857 73.4026 891.857 68.3541C891.857 64.4706 865.258 65.6357 862.52 69.5191C861.346 71.8492 855.087 71.0725 846.873 67.5774C831.226 61.3638 820.274 60.9755 803.845 66.8007ZM817.536 71.4609C817.536 75.7327 810.103 77.2861 807.756 73.791C806.583 71.8492 808.148 69.9075 811.277 69.9075C814.797 69.9075 817.536 70.6842 817.536 71.4609ZM802.671 87.7715C805.409 87.7715 810.495 85.8298 813.624 83.888C818.709 80.0045 818.709 80.3929 814.015 86.2181C809.321 92.4317 809.712 92.82 820.274 90.8783C829.662 88.9366 833.964 90.4899 840.614 97.4802C851.176 109.131 850.002 119.228 836.311 129.325C826.141 136.703 825.359 136.703 815.58 130.49C802.671 121.946 799.542 113.791 805.018 104.47C812.45 92.82 810.103 90.4899 801.889 100.587C796.804 106.412 794.066 107.577 793.674 104.47C793.283 101.364 792.501 93.9851 791.719 87.3832C790.936 79.2278 791.327 77.2861 794.066 81.5579C796.021 84.6647 799.933 87.3832 802.671 87.7715ZM863.302 83.4997C863.302 86.6065 861.737 88.1599 859.781 86.9948C857.826 85.8298 857.434 83.1113 858.608 81.1696C862.128 76.1211 863.302 76.8978 863.302 83.4997ZM848.829 90.8783C848.438 92.82 850.393 95.9268 853.523 97.4802C856.261 99.422 856.652 100.975 854.305 100.975C851.958 100.975 846.873 97.0919 842.57 92.82C835.529 85.0531 835.529 84.6647 842.179 85.8298C846.091 86.6065 848.829 88.9366 848.829 90.8783ZM875.819 98.2569C875.819 101.752 875.037 101.364 873.472 97.8686C872.69 95.5385 869.56 94.3734 867.605 95.5385C864.867 97.0919 864.475 96.3152 866.04 93.5967C869.56 88.5482 876.21 91.655 875.819 98.2569ZM779.201 105.636C776.463 108.354 774.507 108.742 774.507 106.412C774.507 100.975 779.201 96.3152 781.939 99.0336C782.722 100.199 781.548 103.305 779.201 105.636ZM790.154 106.412C790.154 107.189 787.025 110.296 783.504 113.014C777.246 118.063 776.854 117.674 781.939 111.461C787.025 105.247 790.154 103.305 790.154 106.412ZM855.479 117.286C854.305 120.393 853.132 119.228 853.132 114.956C852.74 110.684 853.914 108.354 855.087 109.907C856.261 111.072 856.652 114.568 855.479 117.286ZM815.189 139.422C814.015 140.587 809.321 137.092 804.627 132.432L796.021 123.111L806.583 130.49C812.059 134.373 815.971 138.645 815.189 139.422ZM852.74 125.83C852.74 126.606 849.611 129.713 846.091 132.432C839.832 137.48 839.441 137.092 844.526 130.878C849.611 124.665 852.74 122.723 852.74 125.83ZM876.21 127.771C876.21 130.101 874.646 132.432 873.081 133.597C871.125 134.762 869.56 133.208 869.56 130.101C869.56 126.995 871.125 124.276 873.081 124.276C874.646 124.276 876.21 125.83 876.21 127.771ZM786.242 137.868C791.719 145.247 791.719 145.247 785.46 140.199C781.548 137.48 778.419 133.208 778.419 130.878C778.419 128.548 778.81 127.771 779.592 128.548C779.984 129.325 783.113 133.597 786.242 137.868ZM853.132 137.48C850.002 140.975 850.002 143.694 852.349 145.247C854.305 146.8 857.826 144.47 860.173 140.975C862.52 137.092 864.475 135.927 864.475 138.257C864.475 140.587 861.737 144.859 858.217 147.965C853.132 151.849 851.567 151.849 848.829 147.577C845.699 142.529 850.393 132.043 855.479 132.043C856.652 132.043 855.479 134.373 853.132 137.48ZM839.05 139.81C840.223 141.752 839.441 143.694 837.485 143.694C835.138 143.694 833.182 141.752 833.182 139.81C833.182 137.48 833.964 135.927 834.747 135.927C835.92 135.927 837.876 137.48 839.05 139.81ZM828.097 147.189C827.706 154.179 820.665 155.732 814.797 149.907C813.233 148.354 814.406 147.577 817.536 148.354C820.665 148.742 823.012 147.189 822.621 144.47C821.838 142.14 823.012 139.81 824.968 139.81C827.315 139.81 828.488 142.917 828.097 147.189ZM793.283 163.111C784.678 174.762 779.592 179.033 784.678 169.713C788.198 163.499 798.76 151.461 800.715 151.461C801.498 151.461 798.368 156.509 793.283 163.111ZM777.637 163.111C774.899 166.995 772.16 169.713 770.987 168.936C769.422 167.383 778.028 155.344 780.766 155.344C781.548 155.344 780.375 158.839 777.637 163.111ZM785.069 185.247C783.504 186.412 784.678 190.295 787.416 193.791C791.719 199.227 791.327 199.227 785.46 194.567C777.246 188.742 776.463 182.528 783.113 182.528C785.46 182.528 786.242 183.694 785.069 185.247ZM812.059 196.509C812.45 200.004 812.059 201.558 810.495 200.392C809.321 198.839 807.756 194.956 807.365 191.849C806.974 188.354 807.365 186.8 808.93 187.965C810.103 189.519 811.668 193.402 812.059 196.509ZM850.002 189.13C847.264 189.907 842.57 189.907 840.223 189.13C837.485 187.965 839.441 187.189 844.917 187.189C850.393 187.189 852.349 187.965 850.002 189.13ZM884.425 210.101C886.772 226.412 885.207 232.625 876.601 241.557C871.516 247.771 865.649 252.431 863.693 252.431C862.128 252.431 865.649 247.771 871.516 241.557C886.772 227.189 884.816 197.674 869.169 203.888C865.649 205.053 864.084 205.053 865.649 203.499C867.214 201.946 866.04 198.062 863.302 194.567C860.955 191.46 864.475 192.626 871.516 197.674C878.166 202.334 884.425 208.159 884.425 210.101ZM856.652 195.732C856.652 196.509 853.523 199.616 850.002 202.334C843.744 207.383 843.352 206.994 848.438 200.781C853.523 194.567 856.652 192.626 856.652 195.732ZM850.393 217.091C857.826 224.858 857.826 225.247 851.176 232.625C841.788 242.722 823.403 246.606 809.712 240.781C797.977 236.121 791.719 224.858 796.021 217.091C804.236 204.276 837.094 204.276 850.393 217.091ZM863.693 215.926C865.258 215.15 866.431 218.645 866.431 223.693C866.431 228.742 866.04 233.014 865.649 233.014C864.475 233.014 852.74 208.548 852.74 206.218C852.74 205.053 854.696 206.994 857.043 210.878C859.39 214.373 862.128 217.091 863.693 215.926ZM856.652 240.781C854.305 245.053 851.567 248.548 850.393 248.548C849.611 248.548 850.393 245.053 852.74 240.781C855.087 236.509 857.826 233.014 858.999 233.014C859.781 233.014 858.999 236.509 856.652 240.781ZM850.785 256.315C846.482 258.256 834.356 259.421 823.403 259.421L803.845 259.033L825.359 256.315C856.261 252.431 859.781 252.431 850.785 256.315Z" fill="#F1A037" fill-opacity="0.63"/>
<path d="M794.066 93.9792C794.066 95.5325 795.63 97.0859 797.586 97.0859C799.933 97.0859 802.28 95.5325 803.454 93.9792C804.627 92.0374 803.063 90.484 799.933 90.484C796.804 90.484 794.066 92.0374 794.066 93.9792Z" fill="#F1A037" fill-opacity="0.63"/>
<path d="M1018.99 67.9646C1000.21 74.5665 988.083 88.547 981.825 111.071C974.002 139.032 983.781 165.828 1008.03 182.527C1019.77 190.683 1026.42 191.848 1050.28 191.848C1065.53 191.848 1080.4 190.294 1082.75 188.741C1085.48 187.187 1087.44 179.809 1087.44 172.819C1087.44 160.003 1087.05 159.615 1077.27 163.11C1052.23 172.819 1021.33 160.78 1015.86 139.809C1013.9 132.042 1015.07 131.654 1057.32 132.43L1101.13 132.819L1099.96 120.003C1098 104.081 1092.52 88.9354 1088.61 90.1004C1086.66 90.4888 1080.79 87.7703 1074.92 83.8868C1061.62 75.3432 1052.63 79.2267 1062.4 89.7121C1067.1 94.7606 1070.23 95.9256 1071.79 92.8188C1073.75 90.1004 1075.31 90.8771 1076.88 95.1489C1078.44 98.6441 1078.05 100.197 1075.7 99.0324C1073.36 97.8674 1071.79 98.6441 1071.79 101.363C1071.79 103.693 1067.88 100.974 1063.19 94.7606C1058.1 88.547 1054.58 81.9451 1055.36 80.0034C1056.15 78.0616 1054.19 74.9548 1051.45 73.0131C1048.32 70.683 1049.89 70.2946 1056.15 71.848C1061.62 73.4014 1071.01 78.0616 1077.27 82.3334C1084.7 87.382 1087.83 88.547 1086.66 85.0519C1084.7 78.0616 1053.02 62.1393 1042.46 62.1393C1038.15 62.5277 1027.59 64.8578 1018.99 67.9646ZM1032.68 71.4597C1032.68 72.2364 1029.94 74.1781 1026.42 75.3432C1023.29 76.5082 1021.72 76.1199 1022.9 73.7898C1025.24 69.9063 1032.68 68.3529 1032.68 71.4597ZM1040.5 75.7315C1040.5 78.8383 1038.93 81.5567 1036.59 81.5567C1034.63 81.5567 1033.85 78.8383 1035.02 75.7315C1036.59 72.6247 1038.15 69.9063 1038.93 69.9063C1039.72 69.9063 1040.5 72.6247 1040.5 75.7315ZM1010.38 82.7218C1011.55 85.4402 1009.21 87.7703 1004.9 87.7703C999.818 87.7703 999.036 86.6053 1002.17 82.7218C1004.51 80.0034 1006.86 77.6733 1007.25 77.6733C1008.03 77.6733 1009.21 80.0034 1010.38 82.7218ZM1051.06 91.2655C1056.15 94.7606 1062.8 103.304 1066.32 110.683C1069.45 118.061 1075.31 124.663 1078.83 125.44C1082.75 126.605 1073.36 127.382 1058.88 127.77C1038.93 128.159 1032.29 126.993 1033.85 123.11C1034.63 120.78 1040.89 118.45 1047.93 118.061C1071.79 117.285 1065.14 112.625 1040.11 112.625C1019.77 112.625 1014.29 111.071 1010.38 105.246C1005.29 97.479 1009.99 93.2072 1025.64 91.2655C1029.55 90.8771 1033.85 89.3237 1035.41 88.1587C1038.93 84.2752 1041.67 84.6635 1051.06 91.2655ZM995.907 100.974C995.907 105.634 994.342 107.188 992.386 105.246C990.43 103.304 990.039 99.8091 991.213 97.479C995.124 91.6538 995.907 92.0421 995.907 100.974ZM1093.7 117.673C1092.92 120.392 1091.74 119.227 1091.74 115.343C1091.35 111.848 1089.4 108.741 1087.05 108.741C1085.09 108.741 1084.31 106.799 1085.87 104.469C1089.4 98.6441 1096.83 110.683 1093.7 117.673ZM1027.59 122.333C1027.59 124.663 1025.24 126.993 1022.9 126.993C1020.55 126.993 1018.2 124.663 1018.2 122.333C1018.2 120.003 1020.55 117.673 1022.9 117.673C1025.24 117.673 1027.59 120.003 1027.59 122.333ZM991.604 128.159C992.777 130.1 991.995 132.042 990.039 132.042C987.692 132.042 985.736 130.1 985.736 128.159C985.736 125.828 986.519 124.275 987.301 124.275C988.475 124.275 990.43 125.828 991.604 128.159ZM991.213 146.023C992.386 149.129 991.995 150.683 989.648 149.518C987.301 148.353 985.736 145.634 985.736 143.304C985.736 137.867 988.475 139.032 991.213 146.023ZM1015.07 147.188C1017.81 151.848 1010.38 156.508 1005.29 153.401C1000.99 150.683 1003.73 143.692 1009.21 143.692C1011.16 143.692 1013.51 145.246 1015.07 147.188ZM1040.5 173.595C1040.5 176.314 1025.24 166.993 1022.9 163.11C1021.33 160.78 1018.59 160.391 1016.25 161.556C1013.51 163.11 1013.12 162.333 1014.68 160.003C1016.64 156.896 1020.94 158.061 1029.16 163.887C1035.41 168.547 1040.5 172.819 1040.5 173.595ZM1020.55 181.362C1021.33 182.139 1020.55 182.527 1018.2 182.527C1015.86 182.527 1009.99 179.032 1004.9 174.372L995.516 166.605L1007.25 173.207C1013.9 177.09 1019.77 180.586 1020.55 181.362ZM1052.23 176.314C1052.23 177.479 1050.67 179.421 1048.32 180.586C1046.37 181.751 1044.41 180.974 1044.41 179.032C1044.41 176.702 1046.37 174.76 1048.32 174.76C1050.67 174.76 1052.23 175.537 1052.23 176.314ZM1035.41 184.857C1034.24 186.022 1030.72 186.411 1027.98 185.246C1024.85 184.081 1026.03 182.916 1030.33 182.916C1034.63 182.527 1036.98 183.692 1035.41 184.857ZM1065.14 185.246C1062.4 186.022 1057.71 186.022 1055.36 185.246C1052.63 184.081 1054.58 183.304 1060.06 183.304C1065.53 183.304 1067.49 184.081 1065.14 185.246Z" fill="#F1A037" fill-opacity="0.63"/>
<path d="M1015.86 95.9267C1014.29 97.0917 1013.12 100.199 1013.12 102.529C1013.12 104.859 1015.07 104.47 1017.81 101.752C1020.16 99.4218 1021.33 96.315 1020.55 95.15C1019.38 93.9849 1017.03 94.3733 1015.86 95.9267Z" fill="#F1A037" fill-opacity="0.63"/>
<path d="M1060.06 120.386C1054.97 123.493 1055.36 124.27 1061.23 124.27C1064.75 124.27 1067.88 122.328 1067.88 120.386C1067.88 115.726 1067.49 115.726 1060.06 120.386Z" fill="#F1A037" fill-opacity="0.63"/>
<path d="M1039.72 123.109C1042.07 123.886 1046.76 123.886 1049.5 123.109C1051.84 121.944 1049.89 121.167 1044.41 121.167C1038.94 121.167 1036.98 121.944 1039.72 123.109Z" fill="#F1A037" fill-opacity="0.63"/>
<path d="M911.806 76.1186C907.504 85.8273 907.895 86.2156 915.718 84.2739C925.888 81.5555 935.667 85.0506 932.538 90.0991C930.973 92.4292 928.627 92.0409 926.671 88.9341C924.715 85.4389 923.15 99.0311 923.15 122.332C923.15 143.691 921.977 167.769 920.803 175.536L918.065 190.293H937.232H956.399V128.157V66.0215H936.45C918.847 66.0215 916.109 67.1866 911.806 76.1186ZM949.358 148.351C948.576 155.342 947.794 150.681 947.794 137.866C947.794 125.05 948.576 119.225 949.358 125.05C950.141 130.876 950.141 141.361 949.358 148.351ZM950.532 166.992C950.532 168.934 949.749 170.876 948.967 170.876C947.794 170.876 945.838 168.934 944.664 166.992C943.491 164.662 944.273 163.109 946.229 163.109C948.576 163.109 950.532 164.662 950.532 166.992ZM939.97 185.244C937.232 186.021 932.538 186.021 930.191 185.244C927.453 184.079 929.409 183.303 934.885 183.303C940.361 183.303 942.317 184.079 939.97 185.244Z" fill="#F1A037" fill-opacity="0.63"/>
<path d="M65.7151 151.849C72.365 156.509 78.2324 161.557 78.2324 163.499C78.2324 165.441 78.2324 168.159 78.6236 169.713C78.6236 171.654 71.9738 174.761 63.7593 177.48C53.9802 180.198 51.6332 182.14 57.5007 182.14C69.2356 182.528 86.0557 175.926 86.0557 170.489C86.0557 164.664 64.1505 143.693 57.8918 143.693C55.1537 143.693 58.6742 147.577 65.7151 151.849Z" fill="#F1A037" fill-opacity="0.63"/>
<path d="M10.5613 185.246C17.6023 186.022 29.3372 186.022 36.3782 185.246C43.028 184.469 37.5517 183.692 23.4698 183.692C9.38782 183.692 3.9115 184.469 10.5613 185.246Z" fill="#F1A037" fill-opacity="0.63"/>
<path d="M923.933 218.251C921.194 220.97 919.239 227.571 919.239 233.008C919.239 245.047 925.888 252.426 936.841 252.426C949.749 252.426 955.617 246.212 955.617 233.008C955.617 226.406 953.27 219.028 950.141 217.086C942.317 212.426 929.409 212.814 923.933 218.251ZM944.664 244.659C943.491 246.601 939.97 248.542 937.623 248.542C934.885 248.542 935.276 246.989 938.797 244.659C946.229 239.999 947.794 239.999 944.664 244.659Z" fill="#F1A037" fill-opacity="0.63"/>
<path d="M982.998 220.195C981.825 224.078 979.869 228.738 979.087 231.069C978.304 233.01 980.651 231.069 984.172 226.02C988.866 219.806 994.733 217.476 1005.69 217.476H1020.94V306.796V396.117H1008.42H995.516L996.689 314.563C997.472 259.03 996.689 233.01 993.951 233.01C990.822 233.01 989.648 260.583 989.648 316.505V400H1008.42H1026.81V306.796V213.593H1006.08C990.039 213.593 984.954 215.146 982.998 220.195Z" fill="#F1A037" fill-opacity="0.63"/>
<path d="M290.245 222.135C282.812 229.514 284.768 243.883 293.374 246.601C308.629 251.261 319.191 233.009 308.238 222.135C302.371 216.31 296.112 216.31 290.245 222.135ZM303.153 225.242C304.718 227.572 303.544 228.737 300.806 228.349C298.459 227.572 295.33 229.514 294.156 232.621C293.374 235.727 294.156 236.892 296.503 235.339C298.85 234.174 301.588 234.562 302.762 236.504C304.327 238.446 302.371 239.611 299.241 239.223C290.245 238.058 287.898 233.786 293.374 227.184C299.241 220.194 300.024 220.194 303.153 225.242Z" fill="#F1A037" fill-opacity="0.63"/>
<path d="M204.971 226.796C201.06 236.893 206.536 245.436 215.924 243.883C228.832 242.33 228.832 223.689 215.924 222.136C210.839 221.359 206.145 223.301 204.971 226.796ZM221.4 229.514C225.312 236.116 216.315 243.495 210.839 238.058C206.145 233.398 209.274 225.242 215.141 225.242C217.097 225.242 219.835 227.184 221.4 229.514Z" fill="#F1A037" fill-opacity="0.63"/>
<path d="M211.23 233.011C211.23 234.953 213.186 236.895 215.141 236.895C217.488 236.895 219.053 234.953 219.053 233.011C219.053 230.681 217.488 229.128 215.141 229.128C213.186 229.128 211.23 230.681 211.23 233.011Z" fill="#F1A037" fill-opacity="0.63"/>
<path d="M129.084 233.01C129.084 238.059 131.822 240.777 136.908 240.777C141.993 240.777 144.731 238.059 144.731 233.01C144.731 227.962 141.993 225.243 136.908 225.243C131.822 225.243 129.084 227.962 129.084 233.01ZM140.819 233.01C140.819 234.952 138.863 236.894 136.516 236.894C134.561 236.894 133.778 234.952 134.952 233.01C136.125 230.68 138.081 229.127 139.255 229.127C140.037 229.127 140.819 230.68 140.819 233.01Z" fill="#F1A037" fill-opacity="0.63"/>
<path d="M0 233.011C0 234.953 1.95583 236.895 3.91165 236.895C6.25865 236.895 7.82331 234.953 7.82331 233.011C7.82331 230.681 6.25865 229.128 3.91165 229.128C1.95583 229.128 0 230.681 0 233.011Z" fill="#F1A037" fill-opacity="0.63"/>
<path d="M59.4569 233.394C60.2392 235.724 62.5862 237.277 64.5421 237.277C66.4979 237.277 68.8449 235.724 69.6272 233.394C70.4095 231.064 68.0625 229.122 64.5421 229.122C61.0216 229.122 58.6746 231.064 59.4569 233.394Z" fill="#F1A037" fill-opacity="0.63"/>
<path d="M754.949 315.728L752.993 400L772.551 399.223C792.109 398.835 792.109 398.835 775.68 397.282L758.86 395.728L758.078 313.398L756.904 231.068L754.949 315.728Z" fill="#F1A037" fill-opacity="0.63"/>
<path d="M425.197 278.064C418.938 281.559 414.636 285.055 415.809 285.831C416.591 286.608 422.459 285.055 428.718 281.559C445.147 273.016 459.228 274.569 472.919 285.831C481.134 292.433 484.263 293.598 482.698 289.715C479.178 281.171 460.793 271.851 447.102 271.851C441.235 272.239 431.065 274.958 425.197 278.064Z" fill="#F1A037" fill-opacity="0.63"/>
<path d="M501.865 277.671C494.824 280.778 488.957 285.05 488.957 287.768C488.957 290.487 492.086 289.71 496.78 285.438C502.256 280.39 511.253 278.06 524.553 278.06C541.764 277.671 545.676 279.225 553.89 288.545C562.496 298.642 563.278 302.914 564.06 346.797L564.843 394.176L566.016 349.516C567.581 298.642 564.451 286.603 545.676 278.06C530.029 270.681 518.294 270.293 501.865 277.671Z" fill="#F1A037" fill-opacity="0.63"/>
<path d="M629.777 280.389C597.701 296.699 585.966 333.592 602.395 366.99C610.61 383.301 633.689 400 647.771 400C652.073 399.612 648.553 397.282 640.338 394.563C621.562 387.573 610.61 378.252 603.96 362.33C591.834 334.369 600.831 305.243 627.039 285.826C642.294 274.564 679.846 274.564 694.71 285.826C715.442 300.971 721.701 313.398 721.701 337.864C721.701 365.437 713.486 378.641 688.452 391.068C679.064 396.117 673.979 400 677.108 400C686.887 400 708.792 383.689 718.571 369.32C733.436 347.573 728.742 307.961 709.184 290.486C698.231 280.777 674.761 271.845 659.897 271.845C652.856 271.845 639.165 275.729 629.777 280.389Z" fill="#F1A037" fill-opacity="0.63"/>
<path d="M1084.7 279.227C1042.85 298.644 1040.11 367.77 1080.4 392.236C1087.44 396.508 1096.83 400.003 1101.13 399.615C1107 399.227 1106.61 398.45 1098.39 396.12C1070.62 387.965 1056.15 367.77 1056.15 337.868C1056.15 300.975 1076.88 278.062 1110.52 278.062C1135.16 278.45 1151.2 287.771 1161.37 307.576C1165.67 316.897 1169.58 321.945 1169.58 319.227C1169.58 316.508 1166.85 309.13 1163.72 302.916C1150.03 276.509 1114.04 265.635 1084.7 279.227Z" fill="#F1A037" fill-opacity="0.63"/>
<path d="M363.784 283.884C361.046 288.156 360.264 292.816 361.046 293.981C362.219 294.758 364.957 292.039 367.696 287.767C370.825 281.554 375.519 279.612 387.254 279.612C395.468 279.612 403.292 281.942 404.074 284.272C405.248 287.379 406.421 286.602 406.421 282.331C406.812 276.894 403.292 275.729 387.254 275.729C371.607 275.729 367.304 277.282 363.784 283.884Z" fill="#F1A037" fill-opacity="0.63"/>
<path d="M912.198 283.884C909.46 288.544 907.895 292.816 908.677 293.981C909.851 295.146 912.589 292.039 915.327 287.767C918.456 281.554 923.15 279.612 934.885 279.612H950.532V337.864V396.117H938.015H925.106L925.888 344.855C926.28 316.505 926.28 294.758 925.106 297.088C924.324 299.029 923.15 323.107 921.977 350.291L920.412 400H938.406H956.399L955.226 337.864L954.052 275.729H935.668C921.195 275.729 916.109 277.282 912.198 283.884Z" fill="#F1A037" fill-opacity="0.63"/>
<path d="M856.652 290.1C846.873 294.372 835.138 295.537 815.971 293.984C791.718 292.43 789.762 292.819 798.368 297.479C803.453 300.197 811.668 301.362 815.971 300.586C826.532 297.867 847.264 307.964 852.74 318.061C860.172 332.042 857.434 350.294 846.09 361.945C828.879 379.809 803.844 375.537 792.109 353.401C783.895 337.479 784.677 328.547 796.412 314.955C801.889 308.353 804.627 302.916 802.671 302.916C800.324 302.916 794.848 309.129 790.154 316.896C765.901 355.731 816.753 397.673 849.22 365.44C864.084 350.294 864.866 328.158 851.175 311.848L841.396 300.586L855.087 295.537C871.125 289.712 875.428 292.042 882.469 309.129C897.333 344.469 880.513 385.634 846.873 395.731C840.223 397.673 838.267 399.615 842.179 399.615C853.131 400.003 870.734 389.517 879.339 377.479C895.377 355.343 894.986 313.401 878.948 294.372C870.734 284.663 869.951 284.663 856.652 290.1Z" fill="#F1A037" fill-opacity="0.63"/>
<path d="M1090.96 303.3C1084.7 310.29 1080.4 316.892 1081.96 318.057C1083.53 319.222 1085.48 318.057 1086.66 314.95C1089.79 305.63 1102.69 295.144 1111.3 295.144C1115.99 295.144 1124.99 300.97 1131.64 307.571C1144.55 321.164 1142.59 314.562 1129.29 299.804C1117.95 287.766 1104.65 288.931 1090.96 303.3Z" fill="#F1A037" fill-opacity="0.63"/>
<path d="M419.33 297.864C408.377 302.136 402.901 321.942 402.901 359.223V396.117H389.601C377.866 396.117 375.91 394.563 374.346 385.631C372.781 375.534 372.781 375.534 371.999 387.185C371.608 400 371.608 400 390.383 400H408.768L407.595 360C406.421 324.272 407.204 319.224 414.636 309.515C424.806 296.699 439.279 295.923 447.494 307.573C452.188 314.175 453.752 326.602 453.752 358.058V400H471.355H488.957V357.282C488.957 319.224 489.739 313.787 497.172 306.408C507.733 295.923 524.162 297.864 530.812 310.68C534.332 317.282 535.506 333.592 535.115 360.388L533.941 400L553.499 399.223C572.667 398.835 572.667 398.447 556.629 397.282L540.591 395.728L539.026 353.398C538.244 318.835 536.679 309.903 530.421 303.301C520.642 292.428 506.56 292.816 494.825 304.855C485.828 313.787 485.045 316.893 485.045 355.34V396.117H471.355H457.664V354.175C457.664 315.34 456.882 311.457 448.667 303.69C440.061 295.534 429.891 293.593 419.33 297.864Z" fill="#F1A037" fill-opacity="0.63"/>
<path d="M650.899 299.03C646.596 300.583 637.991 307.962 632.123 314.952C623.126 325.437 621.562 330.097 623.518 341.36C626.256 359.224 645.032 376.699 661.069 376.699C677.107 376.699 695.883 359.224 698.23 341.748L700.577 328.156L694.71 343.69C681.41 378.253 647.379 383.689 631.732 353.398C623.126 337.088 624.3 327.767 636.817 313.787C652.464 297.088 669.675 297.088 685.322 313.787C691.189 320.777 696.274 325.049 696.274 323.107C696.274 318.059 675.543 300.195 666.937 297.865C662.634 296.7 655.593 297.088 650.899 299.03Z" fill="#F1A037" fill-opacity="0.63"/>
<path d="M1098.39 325.05C1105.04 325.827 1116.78 325.827 1123.82 325.05C1130.47 324.274 1124.99 323.497 1110.91 323.497C1096.83 323.497 1091.35 324.274 1098.39 325.05Z" fill="#F1A037" fill-opacity="0.63"/>
<path d="M1108.17 340.582C1120.3 341.358 1140.64 341.358 1153.16 340.582C1165.28 339.805 1155.11 339.416 1130.47 339.416C1105.82 339.416 1095.65 339.805 1108.17 340.582Z" fill="#F1A037" fill-opacity="0.63"/>
<path d="M1083.53 349.902C1083.53 353.009 1089 360.776 1095.65 367.378C1106.22 377.475 1110.13 378.64 1130.86 378.64C1151.98 378.251 1154.33 379.028 1153.16 386.018C1152.37 390.679 1147.68 394.95 1142.2 396.504C1136.73 398.057 1135.16 399.222 1139.07 399.611C1152.37 400.387 1157.85 395.339 1157.85 382.135C1157.85 369.708 1157.46 369.319 1147.68 372.815C1125.38 381.358 1099.96 373.203 1089.79 354.174C1086.27 347.96 1083.92 346.018 1083.53 349.902Z" fill="#F1A037" fill-opacity="0.63"/>
<path d="M797.586 391.85C802.671 396.51 810.495 399.617 815.189 399.617C822.621 399.229 822.621 398.84 815.58 397.287C811.668 396.122 803.454 392.627 797.977 389.52L788.198 383.695L797.586 391.85Z" fill="#F1A037" fill-opacity="0.63"/>
</svg>
