<svg width="1000" height="167" viewBox="0 0 1000 167" fill="none" xmlns="http://www.w3.org/2000/svg">
<path d="M478.492 35.9084C476.537 33.9532 472.804 32.1758 469.96 32.1758H442.41C439.566 32.1758 438.855 33.7755 440.81 35.9084L482.936 81.767C484.891 83.7222 484.713 87.0994 482.936 89.0546L413.793 162.819C411.837 164.774 412.548 166.552 415.392 166.552H442.943C445.787 166.552 449.52 164.952 451.475 162.819L501.777 108.784C503.732 106.829 506.754 106.829 508.709 108.784L525.24 126.204C527.195 128.159 530.927 129.936 533.771 129.936H561.322C564.166 129.936 564.877 128.336 562.922 126.204L478.492 35.9084Z" fill="#F1A037" fill-opacity="0.63"/>
<path d="M603.804 41.4149C600.96 41.4149 598.827 43.7256 598.827 46.3918V73.7647C598.827 76.6086 596.516 78.7416 593.85 78.7416H542.659C539.815 78.7416 539.104 77.1418 541.059 75.0089L607.714 3.73267C609.669 1.77746 608.958 0 606.114 0H579.452C576.608 0 572.876 1.59972 570.921 3.73267L519.019 59.1895C517.063 61.1447 517.063 64.5219 519.019 66.4771L549.591 99.3601C551.546 101.315 555.279 103.093 558.123 103.093H593.672C596.516 103.093 598.649 105.403 598.649 108.07V124.956C598.649 127.8 600.96 129.932 603.626 129.932H617.135C619.979 129.932 622.111 127.622 622.111 124.778V46.3918C622.111 43.5478 619.801 41.4149 617.135 41.4149H603.804Z" fill="#F1A037" fill-opacity="0.63"/>
<path d="M470.139 89.2305C472.094 87.2753 472.094 83.8981 470.139 81.9429L434.945 44.9717C432.99 43.0165 431.39 43.5498 431.39 46.3937V73.7666C431.39 76.6106 429.079 78.7435 426.413 78.7435H375.222C372.378 78.7435 371.667 77.1438 373.622 75.0108L437.967 3.91236C439.744 1.7794 439.033 0.179688 436.367 0.179688H409.705C406.861 0.179688 403.128 1.7794 401.351 3.91236L338.251 73.7666C336.474 75.8996 334.874 77.4993 334.874 77.4993C334.874 77.4993 333.63 79.4545 332.03 81.7652C332.03 81.7652 330.608 84.0759 330.608 87.9863C330.608 92.0745 332.208 95.8071 334.874 98.4733C337.362 101.14 340.739 102.739 344.472 103.095C345.005 103.095 426.413 103.095 426.413 103.095C429.257 103.095 431.39 105.405 431.39 108.072V124.958C431.39 127.801 432.99 128.335 434.767 126.379L470.139 89.2305Z" fill="#F1A037" fill-opacity="0.63"/>
<path d="M23.9957 92.607V104.694C23.9957 107.538 25.0622 109.671 27.1952 111.27C29.3281 112.87 32.1721 113.581 35.727 113.581C40.1706 113.581 43.1923 112.515 44.792 110.559C46.214 108.604 47.1027 106.649 47.4582 104.516H71.454C71.454 108.249 70.5652 111.804 68.9655 115.003C67.3658 118.202 64.8774 121.046 61.8557 123.535C58.6562 126.023 54.9236 127.978 50.6577 129.4C46.214 130.822 41.4149 131.533 35.9047 131.533C28.6171 131.533 22.2183 130.289 16.8859 127.978C11.5535 125.668 7.46534 122.468 4.6214 118.736C2.84394 116.425 1.77746 113.759 1.06648 110.559C0.355493 107.538 0 104.161 0 100.428V71.0997C0 67.5448 0.355492 64.1676 0.888731 61.1459C1.59972 58.1242 2.66619 55.458 4.44366 52.9696C7.28759 49.0592 11.3758 46.0375 16.7081 43.7268C22.0405 41.4161 28.4394 40.1719 35.727 40.1719C41.2371 40.1719 46.214 40.8829 50.6577 42.3048C55.1013 43.7268 58.834 45.682 61.8557 48.1705C64.8774 50.6589 67.1881 53.6806 68.9655 57.0578C70.5652 60.4349 71.454 64.1676 71.454 67.9003V92.607H23.9957ZM23.9957 78.565H47.4582V68.4335C47.4582 65.0563 46.3918 62.5679 44.2588 60.7904C42.1259 59.013 39.2819 58.302 35.727 58.302C32.1721 58.302 29.3281 59.1907 27.1952 60.7904C25.0622 62.5679 23.9957 65.0563 23.9957 68.4335V78.565V78.565Z" fill="#F1A037" fill-opacity="0.63"/>
<path d="M238.358 71.0997C238.358 67.5448 238.713 64.1676 239.247 61.1459C239.958 58.1242 241.024 55.458 242.802 52.9696C245.646 49.0592 249.734 46.0375 255.066 43.7268C260.398 41.4161 266.797 40.1719 274.085 40.1719C281.372 40.1719 287.771 41.4161 293.104 43.7268C298.436 46.0375 302.524 49.2369 305.368 52.9696C307.146 55.2803 308.212 57.9465 308.923 61.1459C309.634 64.1676 309.812 67.5448 309.812 71.0997V100.428C309.812 103.983 309.456 107.36 308.923 110.382C308.212 113.403 307.146 116.069 305.368 118.558C302.524 122.468 298.436 125.49 293.104 127.801C287.771 130.111 281.372 131.356 274.085 131.356C266.797 131.356 260.398 130.111 255.066 127.801C249.734 125.49 245.646 122.291 242.802 118.558C241.024 116.247 239.958 113.581 239.247 110.382C238.536 107.36 238.358 103.983 238.358 100.428V71.0997ZM262.176 103.272C262.176 106.649 263.242 109.137 265.375 110.915C267.508 112.692 270.352 113.403 273.907 113.403C277.462 113.403 280.306 112.515 282.439 110.915C284.572 109.137 285.638 106.649 285.638 103.272V68.2558C285.638 64.8786 284.572 62.3901 282.439 60.6127C280.306 58.8352 277.462 58.1242 273.907 58.1242C270.352 58.1242 267.508 59.013 265.375 60.6127C263.242 62.3901 262.176 64.8786 262.176 68.2558V103.272Z" fill="#F1A037" fill-opacity="0.63"/>
<path d="M155.35 41.2344H141.486C138.642 41.2344 136.509 43.5451 136.509 46.2113V96.1579C136.509 99.0019 136.154 103.446 135.976 106.112C135.976 106.112 135.976 106.289 135.976 106.467C135.62 107.889 134.909 109.133 134.021 110.2C132.243 112.333 129.221 113.399 124.6 113.399C120.867 113.399 118.023 112.511 115.89 110.555C114.824 109.667 114.113 108.6 113.58 107.178C113.224 104.512 112.869 100.246 112.869 97.7577V41.2344H94.0277C91.1837 41.2344 89.0508 43.5451 89.0508 46.2113V108.778C89.0508 110.555 89.2285 112.333 89.584 113.755C89.584 113.755 89.584 114.11 89.7618 114.466C89.9395 114.999 90.1173 115.71 90.295 116.599C90.4728 117.31 90.8283 118.021 91.1837 118.732C92.6057 121.576 94.3832 123.709 96.8716 125.486C99.1823 127.264 101.849 128.508 104.87 129.219L107.003 129.752C107.714 129.752 108.247 129.93 108.958 129.93C109.492 129.93 110.025 130.107 110.558 130.107C111.091 130.107 111.447 130.285 111.447 130.285H160.86V41.2344H155.35Z" fill="#F1A037" fill-opacity="0.63"/>
<path d="M218.45 43.0138C217.739 43.3693 216.85 43.7248 216.139 44.0803C213.295 45.3246 210.451 46.9243 207.607 48.7017C206.541 49.4127 205.297 50.1237 204.23 50.8347V46.0355V41.2364H199.075H185.211C182.367 41.2364 180.234 43.5471 180.234 46.2133V125.31V130.287H185.211H199.075H204.052V125.31V77.4966C204.052 73.9417 204.763 70.7423 206.363 68.4316C207.963 65.9431 209.918 63.9879 212.406 62.3882C214.895 60.7885 217.561 59.722 220.405 59.1888C223.249 58.4778 225.915 58.3 228.581 58.3C229.826 58.3 231.07 58.3 232.136 58.4778V40.3477C226.804 40.5254 222.182 41.4141 218.45 43.0138Z" fill="#F1A037" fill-opacity="0.63"/>
<path d="M976.36 66.1248C976.182 63.1031 974.938 60.7924 972.45 59.1927C969.961 57.593 967.295 56.882 964.096 56.882C960.363 56.882 957.519 57.7707 955.386 59.5482C953.431 61.3257 952.364 63.4586 952.364 65.7693C952.364 67.369 952.898 68.9687 953.964 70.5685C955.031 72.1682 957.875 73.5901 962.496 74.8344L976.538 79.1003C985.425 81.7665 991.646 85.1436 995.023 89.5873C998.401 94.031 1000 98.8301 1000 104.162C1000 107.895 999.112 111.45 997.334 114.65C995.557 117.849 993.068 120.693 989.869 123.181C986.669 125.67 982.937 127.625 978.671 129.047C974.227 130.469 969.606 131.18 964.451 131.18C959.83 131.18 955.386 130.647 951.12 129.402C946.854 128.158 943.122 126.559 939.922 124.248C936.723 121.937 934.057 119.271 932.101 115.894C930.146 112.517 928.902 108.606 928.902 104.162H951.476C952.009 106.651 953.075 108.962 954.853 111.095C956.63 113.228 959.83 114.294 964.273 114.294C967.651 114.294 970.85 113.405 973.516 111.806C976.182 110.028 977.604 107.717 977.604 104.696C977.604 102.207 976.716 100.074 974.938 98.2969C973.161 96.5194 970.139 95.0974 965.518 93.6755L953.964 90.476C946.499 88.3431 940.633 85.1436 936.19 81.0555C931.924 76.9673 929.791 71.8127 929.791 65.7693C929.791 62.0366 930.679 58.4817 932.635 55.2823C934.59 52.0829 937.078 49.2389 940.278 46.9282C943.477 44.6175 947.21 42.8401 951.476 41.5958C955.742 40.3516 960.185 39.6406 965.162 39.6406C969.961 39.6406 974.583 40.3516 978.671 41.5958C982.759 43.0178 986.314 44.7953 989.336 47.106C992.357 49.4167 994.668 52.0829 996.445 55.46C998.223 58.6595 999.112 62.0366 999.112 65.7693H976.36V66.1248Z" fill="#F1A037" fill-opacity="0.63"/>
<path d="M804.124 68.2558C804.124 63.6344 803.235 59.5462 801.28 55.9913C799.324 52.4364 796.836 49.5924 793.637 47.2817C790.437 44.971 786.704 43.1936 782.261 41.9493C777.817 40.7051 773.196 40.1719 768.219 40.1719C762.709 40.1719 757.732 40.8829 753.466 42.1271C749.022 43.549 745.29 45.3265 742.268 47.6372C735.869 52.4364 732.314 58.8352 731.425 67.0115H754.71C755.421 64.1676 757.199 61.8569 759.687 60.2572C762.353 58.6575 765.197 57.9465 768.219 57.9465C772.84 57.9465 775.862 59.013 777.639 60.9682C779.417 62.9234 780.306 65.4118 780.306 68.6113V77.8541C777.817 77.6763 775.684 77.6763 773.907 77.4986C772.129 77.3208 770.529 77.3208 768.752 77.3208C761.287 77.3208 755.066 77.8541 750.266 79.0983C745.467 80.3425 741.557 82.12 738.713 84.7862C735.869 87.2746 733.736 90.474 732.67 94.2067C731.603 97.9394 731.07 101.494 731.07 106.471C731.07 111.448 731.959 115.359 733.558 118.558C735.158 121.757 737.291 124.068 739.957 125.846C742.623 127.623 745.29 128.689 748.311 129.4C751.333 130.111 754.177 130.289 757.021 130.289C757.91 130.289 804.479 130.289 804.479 130.289V68.2558H804.124ZM760.398 94.2067C764.131 92.4293 768.574 91.5405 773.729 91.5405C775.506 91.5405 777.639 91.7183 780.306 92.0738V104.161C780.306 107.715 779.239 110.559 776.928 112.692C774.618 114.648 771.418 115.714 767.508 115.714C763.597 115.714 760.576 114.648 758.443 112.515C756.31 110.382 755.243 107.715 755.243 104.161C754.888 99.3614 756.665 95.9842 760.398 94.2067Z" fill="#F1A037" fill-opacity="0.63"/>
<path d="M714.718 59.9036C714.718 59.5481 714.54 59.1926 714.54 58.8371C714.362 58.1261 714.362 57.5929 714.184 57.0597C713.473 54.2157 712.585 51.7273 711.163 49.5943C707.075 43.9064 700.142 41.0625 690.366 41.0625C689.655 41.0625 648.774 41.0625 648.774 41.0625C645.93 41.0625 643.797 43.3732 643.797 46.0394V166.374H662.638C665.482 166.374 667.615 164.063 667.615 161.397V131.535H691.077C691.077 131.535 691.077 131.535 691.255 131.535C695.343 131.535 698.72 131.002 701.387 130.113C701.92 129.936 702.275 129.758 702.809 129.58C703.164 129.402 703.342 129.402 703.52 129.225C706.719 127.625 709.385 125.847 711.34 123.359C712.94 121.404 714.007 119.093 714.362 115.894C714.362 115.716 714.362 115.36 714.54 115.183C714.895 112.161 715.073 107.717 715.073 101.674V96.6971V73.7678V68.7909C715.251 65.236 715.073 62.392 714.718 59.9036ZM690.722 107.006C690.366 108.251 689.655 109.317 688.944 110.384C687.345 112.516 684.145 113.583 679.702 113.583C676.324 113.583 673.48 112.694 671.17 110.917C670.103 110.028 669.215 108.962 668.681 107.895C668.148 106.651 667.793 105.407 667.793 103.985V69.1464C667.793 67.5467 668.148 65.947 668.681 64.7027C669.215 63.4585 670.103 62.2143 671.17 61.1478C673.303 59.0149 676.324 58.1261 679.879 58.1261C683.967 58.1261 686.989 59.1926 688.767 61.5033C689.655 62.5698 690.366 63.9918 690.9 65.4137C691.433 66.8357 691.611 68.6132 691.611 70.3906V103.096C691.255 104.34 691.077 105.762 690.722 107.006Z" fill="#F1A037" fill-opacity="0.63"/>
<path d="M840.562 130.469H845.538V125.492C845.716 128.158 843.405 130.469 840.562 130.469Z" fill="#F1A037" fill-opacity="0.63"/>
<path d="M821.72 125.312V130.289H826.697C824.031 130.467 821.72 128.156 821.72 125.312Z" fill="#F1A037" fill-opacity="0.63"/>
<path d="M859.936 43.0138C859.225 43.3693 858.336 43.7248 857.625 44.0803C854.781 45.3246 851.938 46.9243 849.094 48.7017C848.027 49.4127 846.783 50.1237 845.716 50.8347V46.0355V41.2364H840.74H826.875C824.031 41.2364 821.898 43.5471 821.898 46.2133V125.31V130.287H826.875H840.74H845.716V125.31V77.4966C845.716 73.9417 846.427 70.7423 848.027 68.4316C849.627 65.9431 851.582 63.9879 854.071 62.3882C856.559 60.7885 859.225 59.722 862.069 59.1888C864.913 58.4778 867.579 58.3 870.245 58.3C871.49 58.3 872.734 58.3 873.8 58.4778V40.3477C868.29 40.5254 863.669 41.4141 859.936 43.0138Z" fill="#F1A037" fill-opacity="0.63"/>
<path d="M908.994 41.2362V14.2188H890.153C887.309 14.2188 885.176 16.5295 885.176 19.1956V109.491C885.176 111.801 885.709 114.29 886.776 116.778C887.842 119.267 889.442 121.577 891.575 123.533C893.708 125.488 896.729 127.088 900.284 128.51C900.995 128.687 901.706 128.865 902.417 129.221C905.617 130.109 909.527 130.465 913.971 130.465H918.948H923.924V113.579C921.258 113.579 918.948 113.579 917.17 113.401C915.215 113.223 913.793 112.868 912.549 112.335C911.305 111.801 910.594 110.913 909.883 109.668C909.527 109.135 909.349 108.424 909.349 107.535C909.171 105.403 909.172 102.025 909.172 99.7147V55.2781H923.924V41.2362H908.994Z" fill="#F1A037" fill-opacity="0.63"/>
</svg>
