<?xml version="1.0" encoding="utf-8"?>
<!-- Generator: Adobe Illustrator 19.2.1, SVG Export Plug-In . SVG Version: 6.00 Build 0)  -->
<svg version="1.1" id="Calque_1" xmlns="http://www.w3.org/2000/svg" xmlns:xlink="http://www.w3.org/1999/xlink" x="0px" y="0px"
	 viewBox="0 0 606.7 120.7" style="enable-background:new 0 0 606.7 120.7;" xml:space="preserve">
<style type="text/css">
	.st0{display:none;}
	.st1{display:inline;}
	.st2{clip-path:url(#SVGID_2_);fill:#1B203F;}
	.st3{clip-path:url(#SVGID_2_);}
	.st4{clip-path:url(#SVGID_4_);fill:#E52F24;}
	.st5{clip-path:url(#SVGID_4_);fill:#FFFFFF;}
	.st6{fill:#E52F24;}
	.st7{fill:#1B203F;}
</style>
<g id="RVB" class="st0">
	<g class="st1">
		<defs>
			<rect id="SVGID_1_" width="606.7" height="120.7"/>
		</defs>
		<clipPath id="SVGID_2_">
			<use xlink:href="#SVGID_1_"  style="overflow:visible;"/>
		</clipPath>
		<rect y="0" class="st2" width="606.7" height="120.7"/>
		<g class="st3">
			<defs>
				<rect id="SVGID_3_" y="0" width="606.7" height="120.7"/>
			</defs>
			<clipPath id="SVGID_4_">
				<use xlink:href="#SVGID_3_"  style="overflow:visible;"/>
			</clipPath>
			<path class="st4" d="M291.2,33.6c-1.1-1.1-3.2-2.1-4.8-2.1h-15.5c-1.6,0-2,0.9-0.9,2.1l23.7,25.8c1.1,1.1,1,3,0,4.1l-38.9,41.5
				c-1.1,1.1-0.7,2.1,0.9,2.1h15.5c1.6,0,3.7-0.9,4.8-2.1l28.3-30.4c1.1-1.1,2.8-1.1,3.9,0l9.3,9.8c1.1,1.1,3.2,2.1,4.8,2.1h15.5
				c1.6,0,2-0.9,0.9-2.1L291.2,33.6z"/>
			<path class="st4" d="M361.7,36.7c-1.6,0-2.8,1.3-2.8,2.8v15.4c0,1.6-1.3,2.8-2.8,2.8h-28.8c-1.6,0-2-0.9-0.9-2.1l37.5-40.1
				c1.1-1.1,0.7-2.1-0.9-2.1h-15c-1.6,0-3.7,0.9-4.8,2.1L314,46.7c-1.1,1.1-1.1,3,0,4.1l17.2,18.5c1.1,1.1,3.2,2.1,4.8,2.1H356
				c1.6,0,2.8,1.3,2.8,2.8v9.5c0,1.6,1.3,2.8,2.8,2.8l7.6,0c1.6,0,2.8-1.3,2.8-2.9V39.5c0-1.6-1.3-2.8-2.8-2.8H361.7z"/>
			<path class="st4" d="M286.5,63.6c1.1-1.1,1.1-3,0-4.1l-19.8-20.8c-1.1-1.1-2-0.8-2,0.8v15.4c0,1.6-1.3,2.8-2.8,2.8h-28.8
				c-1.6,0-2-0.9-0.9-2.1l36.2-40c1-1.2,0.6-2.1-0.9-2.1h-15c-1.6,0-3.7,0.9-4.7,2.1l-35.5,39.3c-1,1.2-1.9,2.1-1.9,2.1
				c0,0-0.7,1.1-1.6,2.4c0,0-0.8,1.3-0.8,3.5c0,2.3,0.9,4.4,2.4,5.9c1.4,1.5,3.3,2.4,5.4,2.6c0.3,0,46.1,0,46.1,0
				c1.6,0,2.8,1.3,2.8,2.8v9.5c0,1.6,0.9,1.9,1.9,0.8L286.5,63.6z"/>
			<path class="st5" d="M35.5,65.5v6.8c0,1.6,0.6,2.8,1.8,3.7c1.2,0.9,2.8,1.3,4.8,1.3c2.5,0,4.2-0.6,5.1-1.7
				c0.8-1.1,1.3-2.2,1.5-3.4h13.5c0,2.1-0.5,4.1-1.4,5.9c-0.9,1.8-2.3,3.4-4,4.8c-1.8,1.4-3.9,2.5-6.3,3.3c-2.5,0.8-5.2,1.2-8.3,1.2
				c-4.1,0-7.7-0.7-10.7-2c-3-1.3-5.3-3.1-6.9-5.2c-1-1.3-1.6-2.8-2-4.6C22.2,73.9,22,72,22,69.9V53.4c0-2,0.2-3.9,0.5-5.6
				c0.4-1.7,1-3.2,2-4.6c1.6-2.2,3.9-3.9,6.9-5.2c3-1.3,6.6-2,10.7-2c3.1,0,5.9,0.4,8.4,1.2c2.5,0.8,4.6,1.9,6.3,3.3
				c1.7,1.4,3,3.1,4,5c0.9,1.9,1.4,4,1.4,6.1v13.9H35.5z M35.5,57.6h13.2v-5.7c0-1.9-0.6-3.3-1.8-4.3c-1.2-1-2.8-1.4-4.8-1.4
				c-2,0-3.6,0.5-4.8,1.4c-1.2,1-1.8,2.4-1.8,4.3V57.6z"/>
			<path class="st5" d="M156.1,53.4c0-2,0.2-3.9,0.5-5.6c0.4-1.7,1-3.2,2-4.6c1.6-2.2,3.9-3.9,6.9-5.2c3-1.3,6.6-2,10.7-2
				c4.1,0,7.7,0.7,10.7,2c3,1.3,5.3,3.1,6.9,5.2c1,1.3,1.6,2.8,2,4.6c0.4,1.7,0.5,3.6,0.5,5.6v16.5c0,2-0.2,3.9-0.5,5.6
				c-0.4,1.7-1,3.2-2,4.6c-1.6,2.2-3.9,3.9-6.9,5.2c-3,1.3-6.6,2-10.7,2c-4.1,0-7.7-0.7-10.7-2c-3-1.3-5.3-3.1-6.9-5.2
				c-1-1.3-1.6-2.8-2-4.6c-0.4-1.7-0.5-3.6-0.5-5.6V53.4z M169.5,71.5c0,1.9,0.6,3.3,1.8,4.3c1.2,1,2.8,1.4,4.8,1.4
				c2,0,3.6-0.5,4.8-1.4c1.2-1,1.8-2.4,1.8-4.3V51.8c0-1.9-0.6-3.3-1.8-4.3c-1.2-1-2.8-1.4-4.8-1.4c-2,0-3.6,0.5-4.8,1.4
				c-1.2,1-1.8,2.4-1.8,4.3V71.5z"/>
			<path class="st5" d="M109.4,36.6h-7.8c-1.6,0-2.8,1.3-2.8,2.8v28.1c0,1.6-0.2,4.1-0.3,5.6c0,0,0,0.1,0,0.2
				c-0.2,0.8-0.6,1.5-1.1,2.1c-1,1.2-2.7,1.8-5.3,1.8c-2.1,0-3.7-0.5-4.9-1.6c-0.6-0.5-1-1.1-1.3-1.9c-0.2-1.5-0.4-3.9-0.4-5.3V36.6
				H74.9c-1.6,0-2.8,1.3-2.8,2.8v35.2c0,1,0.1,2,0.3,2.8c0,0,0,0.2,0.1,0.4c0.1,0.3,0.2,0.7,0.3,1.2c0,0,0,0,0,0
				c0.1,0.4,0.3,0.8,0.5,1.2c0.8,1.6,1.8,2.8,3.2,3.8c1.3,1,2.8,1.7,4.5,2.1l1.2,0.3c0.4,0,0.7,0.1,1.1,0.1c0.3,0,0.6,0.1,0.9,0.1
				c0.3,0,0.5,0.1,0.5,0.1v0l27.8,0V36.6H109.4z"/>
			<path class="st5" d="M144.9,37.6c-0.4,0.2-0.9,0.4-1.3,0.6c-1.6,0.7-3.2,1.6-4.8,2.6c-0.6,0.4-1.3,0.8-1.9,1.2v-2.7v-2.7H134
				h-7.8c-1.6,0-2.8,1.3-2.8,2.8v44.5v2.8h2.8h7.8h2.8v-2.8V57c0-2,0.4-3.8,1.3-5.1c0.9-1.4,2-2.5,3.4-3.4c1.4-0.9,2.9-1.5,4.5-1.8
				c1.6-0.4,3.1-0.5,4.6-0.5c0.7,0,1.4,0,2,0.1V36.1C149.6,36.2,147,36.7,144.9,37.6"/>
			<path class="st5" d="M571.3,50.6c-0.1-1.7-0.8-3-2.2-3.9c-1.4-0.9-2.9-1.3-4.7-1.3c-2.1,0-3.7,0.5-4.9,1.5
				c-1.1,1-1.7,2.2-1.7,3.5c0,0.9,0.3,1.8,0.9,2.7c0.6,0.9,2.2,1.7,4.8,2.4l7.9,2.4c5,1.5,8.5,3.4,10.4,5.9c1.9,2.5,2.8,5.2,2.8,8.2
				c0,2.1-0.5,4.1-1.5,5.9c-1,1.8-2.4,3.4-4.2,4.8c-1.8,1.4-3.9,2.5-6.3,3.3c-2.5,0.8-5.1,1.2-8,1.2c-2.6,0-5.1-0.3-7.5-1
				c-2.4-0.7-4.5-1.6-6.3-2.9c-1.8-1.3-3.3-2.8-4.4-4.7c-1.1-1.9-1.8-4.1-1.8-6.6h12.7c0.3,1.4,0.9,2.7,1.9,3.9
				c1,1.2,2.8,1.8,5.3,1.8c1.9,0,3.7-0.5,5.2-1.4c1.5-1,2.3-2.3,2.3-4c0-1.4-0.5-2.6-1.5-3.6c-1-1-2.7-1.8-5.3-2.6l-6.5-1.8
				c-4.2-1.2-7.5-3-10-5.3c-2.4-2.3-3.6-5.2-3.6-8.6c0-2.1,0.5-4.1,1.6-5.9c1.1-1.8,2.5-3.4,4.3-4.7c1.8-1.3,3.9-2.3,6.3-3
				c2.4-0.7,4.9-1.1,7.7-1.1c2.7,0,5.3,0.4,7.6,1.1c2.3,0.8,4.3,1.8,6,3.1c1.7,1.3,3,2.8,4,4.7c1,1.8,1.5,3.7,1.5,5.8H571.3z"/>
			<path class="st5" d="M474.4,51.8c0-2.6-0.5-4.9-1.6-6.9c-1.1-2-2.5-3.6-4.3-4.9c-1.8-1.3-3.9-2.3-6.4-3c-2.5-0.7-5.1-1-7.9-1
				c-3.1,0-5.9,0.4-8.3,1.1c-2.5,0.8-4.6,1.8-6.3,3.1c-3.6,2.7-5.6,6.3-6.1,10.9h13.1c0.4-1.6,1.4-2.9,2.8-3.8
				c1.5-0.9,3.1-1.3,4.8-1.3c2.6,0,4.3,0.6,5.3,1.7c1,1.1,1.5,2.5,1.5,4.3v5.2c-1.4-0.1-2.6-0.1-3.6-0.2c-1-0.1-1.9-0.1-2.9-0.1
				c-4.2,0-7.7,0.3-10.4,1c-2.7,0.7-4.9,1.7-6.5,3.2c-1.6,1.4-2.8,3.2-3.4,5.3c-0.6,2.1-0.9,4.1-0.9,6.9c0,2.8,0.5,5,1.4,6.8
				c0.9,1.8,2.1,3.1,3.6,4.1c1.5,1,3,1.6,4.7,2c1.7,0.4,3.3,0.5,4.9,0.5c0.5,0,26.7,0,26.7,0V51.8z M449.8,66.4
				c2.1-1,4.6-1.5,7.5-1.5c1,0,2.2,0.1,3.7,0.3V72c0,2-0.6,3.6-1.9,4.8c-1.3,1.1-3.1,1.7-5.3,1.7c-2.2,0-3.9-0.6-5.1-1.8
				c-1.2-1.2-1.8-2.7-1.8-4.7C446.7,69.3,447.7,67.4,449.8,66.4"/>
			<path class="st5" d="M424.1,47.1c0-0.2-0.1-0.4-0.1-0.6c-0.1-0.4-0.1-0.7-0.2-1c-0.4-1.6-0.9-3-1.7-4.2
				c-2.3-3.2-6.2-4.8-11.7-4.8c-0.4,0-23.4,0-23.4,0c-1.6,0-2.8,1.3-2.8,2.8V107h10.6c1.6,0,2.8-1.3,2.8-2.8V87.4h13.2v0
				c0,0,0,0,0.1,0c2.3,0,4.2-0.3,5.7-0.8c0.3-0.1,0.5-0.2,0.8-0.3c0.2-0.1,0.3-0.1,0.4-0.2c1.8-0.9,3.3-1.9,4.4-3.3
				c0.9-1.1,1.5-2.4,1.7-4.2c0-0.1,0-0.3,0.1-0.4c0.2-1.7,0.3-4.2,0.3-7.6v-2.8V54.9v-2.8C424.4,50.1,424.3,48.5,424.1,47.1
				 M410.6,73.6c-0.2,0.7-0.6,1.3-1,1.9c-0.9,1.2-2.7,1.8-5.2,1.8c-1.9,0-3.5-0.5-4.8-1.5c-0.6-0.5-1.1-1.1-1.4-1.7
				c-0.3-0.7-0.5-1.4-0.5-2.2V52.3c0-0.9,0.2-1.8,0.5-2.5c0.3-0.7,0.8-1.4,1.4-2c1.2-1.2,2.9-1.7,4.9-1.7c2.3,0,4,0.6,5,1.9
				c0.5,0.6,0.9,1.4,1.2,2.2c0.3,0.8,0.4,1.8,0.4,2.8v18.4C410.9,72.1,410.8,72.9,410.6,73.6"/>
			<path class="st5" d="M494.9,86.8h2.8v-2.8C497.8,85.5,496.5,86.8,494.9,86.8"/>
			<path class="st5" d="M484.3,83.9v2.8h2.8C485.6,86.8,484.3,85.5,484.3,83.9"/>
			<path class="st5" d="M505.8,37.6c-0.4,0.2-0.9,0.4-1.3,0.6c-1.6,0.7-3.2,1.6-4.8,2.6c-0.6,0.4-1.3,0.8-1.9,1.2v-2.7v-2.7h-2.8
				h-7.8c-1.6,0-2.8,1.3-2.8,2.8v44.5v2.8h2.8h7.8h2.8v-2.8V57c0-2,0.4-3.8,1.3-5.1c0.9-1.4,2-2.5,3.4-3.4c1.4-0.9,2.9-1.5,4.5-1.8
				c1.6-0.4,3.1-0.5,4.6-0.5c0.7,0,1.4,0,2,0.1V36.1C510.5,36.2,507.9,36.7,505.8,37.6"/>
			<path class="st5" d="M533.4,36.6V21.4h-10.6c-1.6,0-2.8,1.3-2.8,2.8V75c0,1.3,0.3,2.7,0.9,4.1c0.6,1.4,1.5,2.7,2.7,3.8
				c1.2,1.1,2.9,2,4.9,2.8c0.4,0.1,0.8,0.2,1.2,0.4c1.8,0.5,4,0.7,6.5,0.7h2.8h2.8v-9.5c-1.5,0-2.8,0-3.8-0.1
				c-1.1-0.1-1.9-0.3-2.6-0.6c-0.7-0.3-1.1-0.8-1.5-1.5c-0.2-0.3-0.3-0.7-0.3-1.2c-0.1-1.2-0.1-3.1-0.1-4.4v-25h8.3v-7.9H533.4z"/>
		</g>
	</g>
</g>
<g id="RVB_1_">
	<g>
		<g>
			<path class="st6" d="M291.2,33.6c-1.1-1.1-3.2-2.1-4.8-2.1h-15.5c-1.6,0-2,0.9-0.9,2.1l23.7,25.8c1.1,1.1,1,3,0,4.1l-38.9,41.5
				c-1.1,1.1-0.7,2.1,0.9,2.1h15.5c1.6,0,3.7-0.9,4.8-2.1l28.3-30.4c1.1-1.1,2.8-1.1,3.9,0l9.3,9.8c1.1,1.1,3.2,2.1,4.8,2.1h15.5
				c1.6,0,2-0.9,0.9-2.1L291.2,33.6z"/>
			<path class="st6" d="M361.7,36.7c-1.6,0-2.8,1.3-2.8,2.8v15.4c0,1.6-1.3,2.8-2.8,2.8h-28.8c-1.6,0-2-0.9-0.9-2.1l37.5-40.1
				c1.1-1.1,0.7-2.1-0.9-2.1h-15c-1.6,0-3.7,0.9-4.8,2.1L314,46.7c-1.1,1.1-1.1,3,0,4.1l17.2,18.5c1.1,1.1,3.2,2.1,4.8,2.1H356
				c1.6,0,2.8,1.3,2.8,2.8v9.5c0,1.6,1.3,2.8,2.8,2.8l7.6,0c1.6,0,2.8-1.3,2.8-2.9V39.5c0-1.6-1.3-2.8-2.8-2.8H361.7z"/>
			<path class="st6" d="M286.5,63.6c1.1-1.1,1.1-3,0-4.1l-19.8-20.8c-1.1-1.1-2-0.8-2,0.8v15.4c0,1.6-1.3,2.8-2.8,2.8h-28.8
				c-1.6,0-2-0.9-0.9-2.1l36.2-40c1-1.2,0.6-2.1-0.9-2.1h-15c-1.6,0-3.7,0.9-4.7,2.1l-35.5,39.3c-1,1.2-1.9,2.1-1.9,2.1
				c0,0-0.7,1.1-1.6,2.4c0,0-0.8,1.3-0.8,3.5c0,2.3,0.9,4.4,2.4,5.9c1.4,1.5,3.3,2.4,5.4,2.6c0.3,0,46.1,0,46.1,0
				c1.6,0,2.8,1.3,2.8,2.8v9.5c0,1.6,0.9,1.9,1.9,0.8L286.5,63.6z"/>
			<path class="st7" d="M35.5,65.5v6.8c0,1.6,0.6,2.8,1.8,3.7c1.2,0.9,2.8,1.3,4.8,1.3c2.5,0,4.2-0.6,5.1-1.7
				c0.8-1.1,1.3-2.2,1.5-3.4h13.5c0,2.1-0.5,4.1-1.4,5.9c-0.9,1.8-2.3,3.4-4,4.8c-1.8,1.4-3.9,2.5-6.3,3.3c-2.5,0.8-5.2,1.2-8.3,1.2
				c-4.1,0-7.7-0.7-10.7-2c-3-1.3-5.3-3.1-6.9-5.2c-1-1.3-1.6-2.8-2-4.6C22.2,73.9,22,72,22,69.9V53.4c0-2,0.2-3.9,0.5-5.6
				c0.4-1.7,1-3.2,2-4.6c1.6-2.2,3.9-3.9,6.9-5.2c3-1.3,6.6-2,10.7-2c3.1,0,5.9,0.4,8.4,1.2c2.5,0.8,4.6,1.9,6.3,3.3
				c1.7,1.4,3,3.1,4,5c0.9,1.9,1.4,4,1.4,6.1v13.9H35.5z M35.5,57.6h13.2v-5.7c0-1.9-0.6-3.3-1.8-4.3c-1.2-1-2.8-1.4-4.8-1.4
				c-2,0-3.6,0.5-4.8,1.4c-1.2,1-1.8,2.4-1.8,4.3V57.6z"/>
			<path class="st7" d="M156.1,53.4c0-2,0.2-3.9,0.5-5.6c0.4-1.7,1-3.2,2-4.6c1.6-2.2,3.9-3.9,6.9-5.2c3-1.3,6.6-2,10.7-2
				c4.1,0,7.7,0.7,10.7,2c3,1.3,5.3,3.1,6.9,5.2c1,1.3,1.6,2.8,2,4.6c0.4,1.7,0.5,3.6,0.5,5.6v16.5c0,2-0.2,3.9-0.5,5.6
				c-0.4,1.7-1,3.2-2,4.6c-1.6,2.2-3.9,3.9-6.9,5.2c-3,1.3-6.6,2-10.7,2c-4.1,0-7.7-0.7-10.7-2c-3-1.3-5.3-3.1-6.9-5.2
				c-1-1.3-1.6-2.8-2-4.6c-0.4-1.7-0.5-3.6-0.5-5.6V53.4z M169.5,71.5c0,1.9,0.6,3.3,1.8,4.3c1.2,1,2.8,1.4,4.8,1.4
				c2,0,3.6-0.5,4.8-1.4c1.2-1,1.8-2.4,1.8-4.3V51.8c0-1.9-0.6-3.3-1.8-4.3c-1.2-1-2.8-1.4-4.8-1.4c-2,0-3.6,0.5-4.8,1.4
				c-1.2,1-1.8,2.4-1.8,4.3V71.5z"/>
			<path class="st7" d="M109.4,36.6h-7.8c-1.6,0-2.8,1.3-2.8,2.8v28.1c0,1.6-0.2,4.1-0.3,5.6c0,0,0,0.1,0,0.2
				c-0.2,0.8-0.6,1.5-1.1,2.1c-1,1.2-2.7,1.8-5.3,1.8c-2.1,0-3.7-0.5-4.9-1.6c-0.6-0.5-1-1.1-1.3-1.9c-0.2-1.5-0.4-3.9-0.4-5.3V36.6
				H74.9c-1.6,0-2.8,1.3-2.8,2.8v35.2c0,1,0.1,2,0.3,2.8c0,0,0,0.2,0.1,0.4c0.1,0.3,0.2,0.7,0.3,1.2c0,0,0,0,0,0
				c0.1,0.4,0.3,0.8,0.5,1.2c0.8,1.6,1.8,2.8,3.2,3.8c1.3,1,2.8,1.7,4.5,2.1l1.2,0.3c0.4,0,0.7,0.1,1.1,0.1c0.3,0,0.6,0.1,0.9,0.1
				c0.3,0,0.5,0.1,0.5,0.1v0l27.8,0V36.6H109.4z"/>
			<path class="st7" d="M144.9,37.6c-0.4,0.2-0.9,0.4-1.3,0.6c-1.6,0.7-3.2,1.6-4.8,2.6c-0.6,0.4-1.3,0.8-1.9,1.2v-2.7v-2.7H134
				h-7.8c-1.6,0-2.8,1.3-2.8,2.8v44.5v2.8h2.8h7.8h2.8v-2.8V57c0-2,0.4-3.8,1.3-5.1c0.9-1.4,2-2.5,3.4-3.4c1.4-0.9,2.9-1.5,4.5-1.8
				c1.6-0.4,3.1-0.5,4.6-0.5c0.7,0,1.4,0,2,0.1V36.1C149.6,36.2,147,36.7,144.9,37.6"/>
			<path class="st7" d="M571.3,50.6c-0.1-1.7-0.8-3-2.2-3.9c-1.4-0.9-2.9-1.3-4.7-1.3c-2.1,0-3.7,0.5-4.9,1.5
				c-1.1,1-1.7,2.2-1.7,3.5c0,0.9,0.3,1.8,0.9,2.7c0.6,0.9,2.2,1.7,4.8,2.4l7.9,2.4c5,1.5,8.5,3.4,10.4,5.9c1.9,2.5,2.8,5.2,2.8,8.2
				c0,2.1-0.5,4.1-1.5,5.9c-1,1.8-2.4,3.4-4.2,4.8c-1.8,1.4-3.9,2.5-6.3,3.3c-2.5,0.8-5.1,1.2-8,1.2c-2.6,0-5.1-0.3-7.5-1
				c-2.4-0.7-4.5-1.6-6.3-2.9c-1.8-1.3-3.3-2.8-4.4-4.7c-1.1-1.9-1.8-4.1-1.8-6.6h12.7c0.3,1.4,0.9,2.7,1.9,3.9
				c1,1.2,2.8,1.8,5.3,1.8c1.9,0,3.7-0.5,5.2-1.4c1.5-1,2.3-2.3,2.3-4c0-1.4-0.5-2.6-1.5-3.6c-1-1-2.7-1.8-5.3-2.6l-6.5-1.8
				c-4.2-1.2-7.5-3-10-5.3c-2.4-2.3-3.6-5.2-3.6-8.6c0-2.1,0.5-4.1,1.6-5.9c1.1-1.8,2.5-3.4,4.3-4.7c1.8-1.3,3.9-2.3,6.3-3
				c2.4-0.7,4.9-1.1,7.7-1.1c2.7,0,5.3,0.4,7.6,1.1c2.3,0.8,4.3,1.8,6,3.1c1.7,1.3,3,2.8,4,4.7c1,1.8,1.5,3.7,1.5,5.8H571.3z"/>
			<path class="st7" d="M474.4,51.8c0-2.6-0.5-4.9-1.6-6.9c-1.1-2-2.5-3.6-4.3-4.9c-1.8-1.3-3.9-2.3-6.4-3c-2.5-0.7-5.1-1-7.9-1
				c-3.1,0-5.9,0.4-8.3,1.1c-2.5,0.8-4.6,1.8-6.3,3.1c-3.6,2.7-5.6,6.3-6.1,10.9h13.1c0.4-1.6,1.4-2.9,2.8-3.8
				c1.5-0.9,3.1-1.3,4.8-1.3c2.6,0,4.3,0.6,5.3,1.7c1,1.1,1.5,2.5,1.5,4.3v5.2c-1.4-0.1-2.6-0.1-3.6-0.2c-1-0.1-1.9-0.1-2.9-0.1
				c-4.2,0-7.7,0.3-10.4,1c-2.7,0.7-4.9,1.7-6.5,3.2c-1.6,1.4-2.8,3.2-3.4,5.3c-0.6,2.1-0.9,4.1-0.9,6.9c0,2.8,0.5,5,1.4,6.8
				c0.9,1.8,2.1,3.1,3.6,4.1c1.5,1,3,1.6,4.7,2c1.7,0.4,3.3,0.5,4.9,0.5c0.5,0,26.7,0,26.7,0V51.8z M449.8,66.4
				c2.1-1,4.6-1.5,7.5-1.5c1,0,2.2,0.1,3.7,0.3V72c0,2-0.6,3.6-1.9,4.8c-1.3,1.1-3.1,1.7-5.3,1.7c-2.2,0-3.9-0.6-5.1-1.8
				c-1.2-1.2-1.8-2.7-1.8-4.7C446.7,69.3,447.7,67.4,449.8,66.4"/>
			<path class="st7" d="M424.1,47.1c0-0.2-0.1-0.4-0.1-0.6c-0.1-0.4-0.1-0.7-0.2-1c-0.4-1.6-0.9-3-1.7-4.2
				c-2.3-3.2-6.2-4.8-11.7-4.8c-0.4,0-23.4,0-23.4,0c-1.6,0-2.8,1.3-2.8,2.8V107h10.6c1.6,0,2.8-1.3,2.8-2.8V87.4h13.2v0
				c0,0,0,0,0.1,0c2.3,0,4.2-0.3,5.7-0.8c0.3-0.1,0.5-0.2,0.8-0.3c0.2-0.1,0.3-0.1,0.4-0.2c1.8-0.9,3.3-1.9,4.4-3.3
				c0.9-1.1,1.5-2.4,1.7-4.2c0-0.1,0-0.3,0.1-0.4c0.2-1.7,0.3-4.2,0.3-7.6v-2.8V54.9v-2.8C424.4,50.1,424.3,48.5,424.1,47.1
				 M410.6,73.6c-0.2,0.7-0.6,1.3-1,1.9c-0.9,1.2-2.7,1.8-5.2,1.8c-1.9,0-3.5-0.5-4.8-1.5c-0.6-0.5-1.1-1.1-1.4-1.7
				c-0.3-0.7-0.5-1.4-0.5-2.2V52.3c0-0.9,0.2-1.8,0.5-2.5c0.3-0.7,0.8-1.4,1.4-2c1.2-1.2,2.9-1.7,4.9-1.7c2.3,0,4,0.6,5,1.9
				c0.5,0.6,0.9,1.4,1.2,2.2c0.3,0.8,0.4,1.8,0.4,2.8v18.4C410.9,72.1,410.8,72.9,410.6,73.6"/>
			<path class="st7" d="M494.9,86.8h2.8v-2.8C497.8,85.5,496.5,86.8,494.9,86.8"/>
			<path class="st7" d="M484.3,83.9v2.8h2.8C485.6,86.8,484.3,85.5,484.3,83.9"/>
			<path class="st7" d="M505.8,37.6c-0.4,0.2-0.9,0.4-1.3,0.6c-1.6,0.7-3.2,1.6-4.8,2.6c-0.6,0.4-1.3,0.8-1.9,1.2v-2.7v-2.7h-2.8
				h-7.8c-1.6,0-2.8,1.3-2.8,2.8v44.5v2.8h2.8h7.8h2.8v-2.8V57c0-2,0.4-3.8,1.3-5.1c0.9-1.4,2-2.5,3.4-3.4c1.4-0.9,2.9-1.5,4.5-1.8
				c1.6-0.4,3.1-0.5,4.6-0.5c0.7,0,1.4,0,2,0.1V36.1C510.5,36.2,507.9,36.7,505.8,37.6"/>
			<path class="st7" d="M533.4,36.6V21.4h-10.6c-1.6,0-2.8,1.3-2.8,2.8V75c0,1.3,0.3,2.7,0.9,4.1c0.6,1.4,1.5,2.7,2.7,3.8
				c1.2,1.1,2.9,2,4.9,2.8c0.4,0.1,0.8,0.2,1.2,0.4c1.8,0.5,4,0.7,6.5,0.7h2.8h2.8v-9.5c-1.5,0-2.8,0-3.8-0.1
				c-1.1-0.1-1.9-0.3-2.6-0.6c-0.7-0.3-1.1-0.8-1.5-1.5c-0.2-0.3-0.3-0.7-0.3-1.2c-0.1-1.2-0.1-3.1-0.1-4.4v-25h8.3v-7.9H533.4z"/>
		</g>
	</g>
</g>
</svg>
