<svg width="1000" height="218" viewBox="0 0 1000 218" fill="none" xmlns="http://www.w3.org/2000/svg">
<path d="M959.455 78.1654V56.5912H951.432V53.6641H970.838V56.5912H962.815V78.1654H959.455Z" fill="#F1A037" fill-opacity="0.63"/>
<path d="M976.691 78.1664V53.7734H981.57L987.316 71.1195C987.858 72.7457 988.292 73.9383 988.508 74.6972C988.834 73.8298 989.267 72.5289 989.809 70.7943L995.664 53.7734H1000V78.2748H996.856V57.7847L989.809 78.2748H986.882L979.835 57.4595V78.2748H976.691V78.1664Z" fill="#F1A037" fill-opacity="0.63"/>
<path d="M7.15526 80.8757C11.6002 72.4195 18.4302 65.5894 26.6696 61.0361C35.1258 56.4827 44.883 54.0977 55.9411 54.0977C70.0348 54.0977 80.7677 57.35 88.3566 63.9632C95.8371 70.5764 99.74 80.0084 100.065 92.259C100.065 100.824 99.5231 107.22 98.5474 111.665H33.9333C34.6922 123.916 37.7277 133.022 43.04 138.985C48.3522 144.948 55.1822 147.875 63.8553 147.875C69.1675 147.875 74.4797 146.899 79.4667 145.273C84.1285 143.864 88.5734 141.912 92.6931 139.419L98.5474 151.778C95.5119 154.813 92.0426 157.307 88.1398 159.258C83.1528 161.969 77.8405 164.137 72.4199 165.655C66.674 167.281 60.7113 168.148 54.6402 168.148C42.2811 168.148 31.9818 165.763 23.7425 161.101C15.8283 156.548 9.54035 149.61 5.74589 141.262C1.95143 132.806 0 122.832 0 111.448C0.216826 99.7395 2.4935 89.5487 7.15526 80.8757ZM68.1918 98.0049L68.3002 90.8497C68.3002 83.6944 67.1077 78.1653 64.7226 74.2625C62.3375 70.3596 58.2178 68.4082 52.4719 68.4082C49.0027 68.2998 45.6419 69.1671 42.7147 70.9017C40.0044 72.5279 37.9446 75.5634 36.3184 79.8999C34.6922 84.2365 33.8249 90.3076 33.7164 98.1133L68.1918 98.0049Z" fill="#F1A037" fill-opacity="0.63"/>
<path d="M118.711 152.863L150.693 112.316L117.627 69.9269L107.111 67.4334V54.207H169.557V67.325L156.981 69.8185L171.508 90.0917L176.712 98.7648L181.699 90.2001L196.443 69.9269L183.325 67.4334V54.3154H229.076V67.4334L217.259 69.9269L186.253 108.305L220.836 153.08L231.894 155.14V168.366H169.991V155.14L181.049 153.08L166.738 131.18L160.667 122.29L156.114 131.072L141.261 152.971L156.114 155.14V168.366H105.918V155.14L118.711 152.863Z" fill="#F1A037" fill-opacity="0.63"/>
<path d="M285.883 167.716C283.715 167.391 281.655 166.957 279.595 166.415L280.137 183.869V201.974L297.917 204.685V217.911H235.146V204.685L248.047 202.083V78.7087L235.796 75.0227V54.3158L271.356 54.4242H271.898L277.319 58.8692V69.6021C281.005 65.1571 285.558 61.4711 290.653 58.7608C296.399 55.7252 302.796 54.2074 309.192 54.2074C317.106 54.099 324.912 56.0504 331.742 59.9533C338.464 63.7478 343.667 69.6021 347.679 77.6246C351.69 85.6472 353.533 95.838 353.641 108.089C353.75 118.605 351.256 128.904 346.486 138.227C341.716 147.334 334.561 155.032 325.671 160.127C316.564 165.548 305.614 168.258 292.93 168.258C290.653 168.258 288.16 168.041 285.883 167.716ZM280.137 150.37C281.005 151.562 282.739 152.538 285.233 153.514C287.943 154.381 290.87 154.815 293.797 154.815C301.386 154.815 307.566 151.345 312.228 144.299C316.889 137.252 319.274 125.977 319.274 110.474C319.274 97.8979 317.215 88.4659 313.203 82.2864C309.192 76.1068 303.771 73.0713 296.941 73.0713C293.581 73.0713 290.328 73.8302 287.293 75.2395C284.582 76.4321 282.197 78.1667 280.137 80.2265V150.37Z" fill="#F1A037" fill-opacity="0.63"/>
<path d="M372.939 152.754V19.8396L358.195 17.2377V4.87859L398.633 0H399.175L405.138 4.44493V152.754L418.689 154.814V168.257H359.496V154.814L372.939 152.754Z" fill="#F1A037" fill-opacity="0.63"/>
<path d="M440.48 153.405V78.8168L428.121 74.914V54.3155L464.223 53.7734H464.765L470.185 58.2184V65.482L470.077 70.1438C473.546 66.8914 477.449 64.1811 481.786 62.1212C486.664 59.6277 491.76 57.6763 496.963 56.2669C501.408 54.966 506.07 54.2071 510.732 54.0987C518.104 54.0987 524.175 55.3996 528.728 57.8931C533.39 60.495 537.076 64.6147 539.028 69.6017C544.231 64.94 550.086 61.2539 556.591 58.652C563.421 55.7249 570.793 54.2071 578.165 54.0987C586.404 54.0987 593.017 55.6165 597.896 58.7604C602.774 61.9044 606.244 66.6746 608.412 73.071C610.58 79.5757 611.664 88.032 611.664 98.4396V153.297L624.132 155.14V168.041H569.383V155.031L578.707 153.08V99.6322C578.815 94.4283 578.382 89.1161 577.297 84.0207C576.322 80.2262 574.695 77.5159 572.31 75.8897C569.925 74.1551 566.565 73.3962 562.228 73.2878C558.65 73.2878 555.181 74.1551 551.929 75.6729C548.568 77.1907 545.316 79.1421 542.28 81.4188C543.256 87.3815 543.689 93.4526 543.581 99.4153V153.297L555.832 155.248V168.149H499.999V155.248L510.623 153.297V98.8733C510.732 93.7778 510.298 88.6824 509.322 83.8039C508.78 80.6599 507.046 77.8411 504.661 75.7813C502.384 74.0467 499.132 73.2878 494.903 73.1794C490.892 73.1794 486.989 74.0467 483.412 75.6729C479.834 77.1907 476.582 79.1421 473.655 81.6356V153.188L485.038 155.14V168.041H429.53V155.14L440.48 153.405Z" fill="#F1A037" fill-opacity="0.63"/>
<path d="M714.983 60.9314C723.114 65.3763 729.619 72.0979 733.739 80.3373C738.075 88.7935 740.244 98.8759 740.244 110.476C740.244 123.16 737.642 133.893 732.438 142.566C727.559 150.914 720.296 157.636 711.623 161.972C702.624 166.2 692.867 168.369 682.893 168.26C671.51 168.26 661.753 165.984 653.622 161.539C645.491 157.094 638.986 150.372 634.866 142.133C630.53 133.677 628.361 123.594 628.361 111.994C628.361 99.6348 630.963 89.1188 636.167 80.3373C641.154 71.8811 648.418 65.1595 657.091 60.7145C665.981 56.2696 675.738 53.9929 685.712 54.1014C697.095 54.2098 706.852 56.378 714.983 60.9314ZM700.022 79.5784C696.77 72.2063 691.458 68.5203 684.194 68.5203C677.256 68.5203 672.052 71.8811 668.691 78.4943C665.33 85.1075 663.596 95.5151 663.596 109.5C663.596 124.136 665.33 135.194 668.691 142.675C672.052 150.155 677.364 153.841 684.736 153.841C691.566 153.841 696.662 150.481 700.022 143.867C703.275 137.254 705.009 126.846 705.009 112.753C704.901 98.117 703.275 86.9505 700.022 79.5784Z" fill="#F1A037" fill-opacity="0.63"/>
<path d="M760.734 153.622V78.8168L748.592 74.8056V53.7734L782.092 54.4239H782.634L788.596 58.8689V64.7232L788.054 80.5515H788.596C789.572 77.5159 791.632 73.9383 794.993 69.8186C798.57 65.482 802.798 61.796 807.677 58.9773C812.772 55.9417 818.518 54.3155 824.481 54.3155C825.999 54.3155 827.517 54.4239 829.034 54.7492C830.227 54.966 831.311 55.3996 832.287 55.9417V90.9591C830.119 89.1161 827.733 87.7067 825.132 86.731C822.313 85.7553 819.277 85.3216 816.242 85.43C811.688 85.43 807.027 85.9721 802.582 87.2731C799.112 88.1404 795.968 89.7666 793.15 91.9348V153.622L816.784 155.682V168.366H747.508V155.465L760.734 153.622Z" fill="#F1A037" fill-opacity="0.63"/>
<path d="M846.705 80.8757C851.15 72.5279 857.872 65.5894 866.219 61.0361C874.676 56.4827 884.433 54.0977 895.491 54.0977C909.585 54.0977 920.317 57.35 927.906 63.9632C935.387 70.5764 939.29 80.0084 939.615 92.259C939.615 100.824 939.073 107.22 938.097 111.665H873.375C874.134 123.916 877.169 133.022 882.481 138.985C887.685 144.948 894.624 147.875 903.297 147.875C908.609 147.875 913.921 146.899 919.016 145.273C923.678 143.864 928.123 141.912 932.351 139.31L938.206 151.669C935.17 154.705 931.701 157.198 927.798 159.15C922.811 161.86 917.499 164.028 912.078 165.546C906.332 167.172 900.261 168.04 894.298 168.04C881.939 168.04 871.64 165.655 863.509 160.884C855.595 156.331 849.307 149.393 845.512 141.045C841.718 132.589 839.767 122.615 839.767 111.231C839.767 99.7395 842.152 89.5487 846.705 80.8757ZM907.742 98.0049L907.85 90.8497C907.85 83.6944 906.657 78.1653 904.272 74.2625C901.887 70.3596 897.768 68.4082 892.022 68.4082C888.552 68.2998 885.192 69.1671 882.264 70.9017C879.554 72.5279 877.494 75.5634 875.868 79.9C874.242 84.2365 873.375 90.3076 873.158 98.1133L907.742 98.0049Z" fill="#F1A037" fill-opacity="0.63"/>
</svg>
