<svg width="923" height="201" viewBox="0 0 923 201" fill="none" xmlns="http://www.w3.org/2000/svg">
<path d="M885 72.1V52.2H877.6V49.5H895.5V52.2H888.1V72.1H885Z" fill="#F1A037" fill-opacity="0.6"/>
<path d="M900.898 72.1016V49.6016H905.398L910.698 65.6016C911.198 67.1016 911.598 68.2016 911.798 68.9016C912.098 68.1016 912.498 66.9016 912.998 65.3016L918.398 49.6016H922.398V72.2016H919.498V53.3016L912.998 72.2016H910.298L903.798 53.0016V72.2016H900.898V72.1016Z" fill="#F1A037" fill-opacity="0.6"/>
<path d="M6.6 74.5984C10.7 66.7984 17 60.4984 24.6 56.2984C32.4 52.0984 41.4 49.8984 51.6 49.8984C64.6 49.8984 74.5 52.8984 81.5 58.9984C88.4 65.0984 92 73.7984 92.3 85.0984C92.3 92.9984 91.8 98.8984 90.9 102.998H31.3C32 114.298 34.8 122.698 39.7 128.198C44.6 133.698 50.9 136.398 58.9 136.398C63.8 136.398 68.7 135.498 73.3 133.998C77.6 132.698 81.7 130.898 85.5 128.598L90.9 139.998C88.1 142.798 84.9 145.098 81.3 146.898C76.7 149.398 71.8 151.398 66.8 152.798C61.5 154.298 56 155.098 50.4 155.098C39 155.098 29.5 152.898 21.9 148.598C14.6 144.398 8.8 137.998 5.3 130.298C1.8 122.498 0 113.298 0 102.798C0.2 91.9984 2.3 82.5984 6.6 74.5984ZM62.9 90.3984L63 83.7984C63 77.1984 61.9 72.0984 59.7 68.4984C57.5 64.8984 53.7 63.0984 48.4 63.0984C45.2 62.9984 42.1 63.7984 39.4 65.3984C36.9 66.8984 35 69.6984 33.5 73.6984C32 77.6984 31.2 83.2984 31.1 90.4984L62.9 90.3984Z" fill="#F1A037" fill-opacity="0.6"/>
<path d="M109.499 141L138.999 103.6L108.499 64.5L98.7992 62.2V50H156.399V62.1L144.799 64.4L158.199 83.1L162.999 91.1L167.599 83.2L181.199 64.5L169.099 62.2V50.1H211.299V62.2L200.399 64.5L171.799 99.9L203.699 141.2L213.899 143.1V155.3H156.799V143.1L166.999 141.2L153.799 121L148.199 112.8L143.999 120.9L130.299 141.1L143.999 143.1V155.3H97.6992V143.1L109.499 141Z" fill="#F1A037" fill-opacity="0.6"/>
<path d="M263.698 154.7C261.698 154.4 259.798 154 257.898 153.5L258.398 169.6V186.3L274.798 188.8V201H216.898V188.8L228.798 186.4V72.6L217.498 69.2V50.1L250.298 50.2H250.798L255.798 54.3V64.2C259.198 60.1 263.398 56.7 268.098 54.2C273.398 51.4 279.298 50 285.198 50C292.498 49.9 299.698 51.7 305.998 55.3C312.198 58.8 316.998 64.2 320.698 71.6C324.398 79 326.098 88.4 326.198 99.7C326.298 109.4 323.998 118.9 319.598 127.5C315.198 135.9 308.598 143 300.398 147.7C291.998 152.7 281.898 155.2 270.198 155.2C268.098 155.2 265.798 155 263.698 154.7ZM258.398 138.7C259.198 139.8 260.798 140.7 263.098 141.6C265.598 142.4 268.298 142.8 270.998 142.8C277.998 142.8 283.698 139.6 287.998 133.1C292.298 126.6 294.498 116.2 294.498 101.9C294.498 90.3 292.598 81.6 288.898 75.9C285.198 70.2 280.198 67.4 273.898 67.4C270.798 67.4 267.798 68.1 264.998 69.4C262.498 70.5 260.298 72.1 258.398 74V138.7Z" fill="#F1A037" fill-opacity="0.6"/>
<path d="M343.998 140.9V18.3L330.398 15.9V4.5L367.698 0H368.198L373.698 4.1V140.9L386.198 142.8V155.2H331.598V142.8L343.998 140.9Z" fill="#F1A037" fill-opacity="0.6"/>
<path d="M406.298 141.502V72.7016L394.898 69.1016V50.1016L428.198 49.6016H428.698L433.698 53.7016V60.4016L433.598 64.7016C436.798 61.7016 440.398 59.2016 444.398 57.3016C448.898 55.0016 453.598 53.2016 458.398 51.9016C462.498 50.7016 466.798 50.0016 471.098 49.9016C477.898 49.9016 483.498 51.1016 487.698 53.4016C491.998 55.8016 495.398 59.6016 497.198 64.2016C501.998 59.9016 507.398 56.5016 513.398 54.1016C519.698 51.4016 526.498 50.0016 533.298 49.9016C540.898 49.9016 546.998 51.3016 551.498 54.2016C555.998 57.1016 559.198 61.5016 561.198 67.4016C563.198 73.4016 564.198 81.2016 564.198 90.8016V141.402L575.698 143.102V155.002H525.198V143.002L533.798 141.202V91.9016C533.898 87.1016 533.498 82.2016 532.498 77.5016C531.598 74.0016 530.098 71.5016 527.898 70.0016C525.698 68.4016 522.598 67.7016 518.598 67.6016C515.298 67.6016 512.098 68.4016 509.098 69.8016C505.998 71.2016 502.998 73.0016 500.198 75.1016C501.098 80.6016 501.498 86.2016 501.398 91.7016V141.402L512.698 143.202V155.102H461.198V143.202L470.998 141.402V91.2016C471.098 86.5016 470.698 81.8016 469.798 77.3016C469.298 74.4016 467.698 71.8016 465.498 69.9016C463.398 68.3016 460.398 67.6016 456.498 67.5016C452.798 67.5016 449.198 68.3016 445.898 69.8016C442.598 71.2016 439.598 73.0016 436.898 75.3016V141.302L447.398 143.102V155.002H396.198V143.102L406.298 141.502Z" fill="#F1A037" fill-opacity="0.6"/>
<path d="M659.5 56.2018C667 60.3018 673 66.5018 676.8 74.1018C680.8 81.9018 682.8 91.2018 682.8 101.902C682.8 113.602 680.4 123.502 675.6 131.502C671.1 139.202 664.4 145.402 656.4 149.402C648.1 153.302 639.1 155.302 629.9 155.202C619.4 155.202 610.4 153.102 602.9 149.002C595.4 144.902 589.4 138.702 585.6 131.102C581.6 123.302 579.6 114.002 579.6 103.302C579.6 91.9018 582 82.2018 586.8 74.1018C591.4 66.3018 598.1 60.1018 606.1 56.0018C614.3 51.9018 623.3 49.8018 632.5 49.9018C643 50.0018 652 52.0018 659.5 56.2018ZM645.7 73.4018C642.7 66.6018 637.8 63.2018 631.1 63.2018C624.7 63.2018 619.9 66.3018 616.8 72.4018C613.7 78.5018 612.1 88.1018 612.1 101.002C612.1 114.502 613.7 124.702 616.8 131.602C619.9 138.502 624.8 141.902 631.6 141.902C637.9 141.902 642.6 138.802 645.7 132.702C648.7 126.602 650.3 117.002 650.3 104.002C650.2 90.5018 648.7 80.2018 645.7 73.4018Z" fill="#F1A037" fill-opacity="0.6"/>
<path d="M701.7 141.702V72.7016L690.5 69.0016V49.6016L721.4 50.2016H721.9L727.4 54.3016V59.7016L726.9 74.3016H727.4C728.3 71.5016 730.2 68.2016 733.3 64.4016C736.6 60.4016 740.5 57.0016 745 54.4016C749.7 51.6016 755 50.1016 760.5 50.1016C761.9 50.1016 763.3 50.2016 764.7 50.5016C765.8 50.7016 766.8 51.1016 767.7 51.6016V83.9016C765.7 82.2016 763.5 80.9016 761.1 80.0016C758.5 79.1016 755.7 78.7016 752.9 78.8016C748.7 78.8016 744.4 79.3016 740.3 80.5016C737.1 81.3016 734.2 82.8016 731.6 84.8016V141.702L753.4 143.602V155.302H689.5V143.402L701.7 141.702Z" fill="#F1A037" fill-opacity="0.6"/>
<path d="M781 74.5984C785.1 66.8984 791.3 60.4984 799 56.2984C806.8 52.0984 815.8 49.8984 826 49.8984C839 49.8984 848.9 52.8984 855.9 58.9984C862.8 65.0984 866.4 73.7984 866.7 85.0984C866.7 92.9984 866.2 98.8984 865.3 102.998H805.6C806.3 114.298 809.1 122.698 814 128.198C818.8 133.698 825.2 136.398 833.2 136.398C838.1 136.398 843 135.498 847.7 133.998C852 132.698 856.1 130.898 860 128.498L865.4 139.898C862.6 142.698 859.4 144.998 855.8 146.798C851.2 149.298 846.3 151.298 841.3 152.698C836 154.198 830.4 154.998 824.9 154.998C813.5 154.998 804 152.798 796.5 148.398C789.2 144.198 783.4 137.798 779.9 130.098C776.4 122.298 774.6 113.098 774.6 102.598C774.6 91.9984 776.8 82.5984 781 74.5984ZM837.3 90.3984L837.4 83.7984C837.4 77.1984 836.3 72.0984 834.1 68.4984C831.9 64.8984 828.1 63.0984 822.8 63.0984C819.6 62.9984 816.5 63.7984 813.8 65.3984C811.3 66.8984 809.4 69.6984 807.9 73.6984C806.4 77.6984 805.6 83.2984 805.4 90.4984L837.3 90.3984Z" fill="#F1A037" fill-opacity="0.6"/>
</svg>
