<svg width="1000" height="421" viewBox="0 0 1000 421" fill="none" xmlns="http://www.w3.org/2000/svg">
<path d="M352.878 1.23663C352.569 1.8537 351.798 4.93909 351.18 8.17875C350.1 13.5782 350.255 13.8867 354.112 13.8867C357.044 13.8867 359.049 12.344 361.981 7.71594C364.141 4.32202 365.839 1.23663 365.839 0.773819C365.839 -0.460337 353.803 -0.151798 352.878 1.23663Z" fill="#F1A037" fill-opacity="0.63"/>
<path d="M463.2 4.78482C460.732 12.1898 461.04 13.8867 465.361 13.8867C467.984 13.8867 470.298 12.1898 473.075 8.17875C475.236 4.93909 476.933 1.8537 476.933 1.23663C476.933 0.46528 474.155 0.00247166 470.915 0.00247166C465.515 0.00247166 464.743 0.46528 463.2 4.78482Z" fill="#F1A037" fill-opacity="0.63"/>
<path d="M98.4416 136.687L0 257.943L15.8926 285.557L31.6309 313.171H112.328C171.733 313.171 193.026 313.634 193.026 314.868C193.026 315.948 191.637 321.502 189.94 327.21L186.7 337.854H155.994H125.289L123.746 343.562C121.74 350.967 106.619 417.766 106.619 418.846C106.619 419.309 146.428 419.617 195.186 419.617H283.598L294.708 381.05C300.725 359.915 305.663 341.557 305.663 340.168C305.663 338.317 303.657 337.854 296.405 337.854C285.913 337.854 286.067 338.317 290.079 323.97L292.856 313.943L326.647 313.48C346.243 313.326 359.667 313.634 358.895 314.405C332.819 338.163 333.436 337.854 324.95 337.854H317.081L312.915 351.584C310.6 359.298 308.749 365.777 308.749 366.24C308.749 366.857 340.534 367.166 379.417 367.166H450.085L453.479 354.207C455.331 347.111 456.874 340.477 456.874 339.551C456.874 338.626 451.165 337.854 441.29 337.546L425.86 337.083L458.263 305.766L490.665 274.45L506.249 305.304C514.735 322.427 521.679 336.62 521.679 337.083C521.679 337.392 514.581 338.009 505.94 338.163L490.356 338.626L486.808 351.739C484.802 358.989 483.259 365.314 483.104 366.086C483.104 366.703 519.056 367.011 562.876 366.857L642.802 366.394L645.425 356.83C646.814 351.43 648.357 345.105 648.974 342.482L650.054 337.854H633.081H616.263L591.884 296.51C578.46 273.833 566.579 253.778 565.345 252.081C563.339 248.995 565.499 246.835 609.628 208.422L656.072 168.158H670.421H684.771L691.868 140.544C695.88 125.271 699.12 112.467 699.12 112.004C699.12 111.541 665.175 111.078 623.515 111.078H548.064L546.521 116.786C545.749 120.026 542.509 132.059 539.577 143.629C536.491 155.045 534.022 165.227 534.022 166.307C534.022 167.387 538.96 168.158 549.144 168.467L564.265 168.929L535.103 194.23C513.192 213.205 505.477 218.913 504.552 217.37C503.935 216.136 496.837 204.72 488.813 192.07L474.155 168.929L489.893 168.467L505.786 168.004L512.884 140.698C516.895 125.734 520.136 112.93 520.136 112.158C520.136 111.541 486.19 111.078 444.53 111.078C403.024 111.078 368.925 111.387 368.925 111.695C368.925 112.004 365.839 124.037 361.981 138.384C358.124 152.577 355.038 165.227 355.038 166.153C355.038 167.541 358.587 168.158 367.844 168.158H380.497L405.184 206.108C418.762 226.935 430.335 244.984 431.106 246.064C431.878 247.453 423.237 256.246 404.104 273.678C388.52 287.563 375.714 298.516 375.405 297.899C375.251 297.282 378.491 282.317 382.811 264.731C386.977 247.144 390.526 231.408 390.526 229.712C390.526 226.935 388.983 226.78 352.26 226.78H313.84L328.807 164.61L343.774 102.594L332.819 101.668C326.801 101.051 318.469 101.359 314.149 102.131C297.485 105.062 282.518 99.9709 276.192 88.8635C272.797 83.1556 272.489 80.3787 272.026 60.478C271.409 35.332 272.952 26.0759 279.124 19.5966L283.135 15.4313H239.932H196.883L98.4416 136.687ZM245.487 106.605C241.166 120.489 233.143 150.571 227.588 173.557C221.879 196.389 216.788 217.833 216.016 220.918L214.473 226.78H172.813H130.998L138.559 217.833C142.571 212.896 169.881 179.882 199.198 144.555C228.36 109.227 252.584 80.533 252.739 80.8415C253.047 81.1501 249.807 92.7203 245.487 106.605Z" fill="#F1A037" fill-opacity="0.63"/>
<path d="M98.4416 136.687L0 257.943L15.8926 285.557L31.6309 313.171H112.328C171.733 313.171 193.026 313.634 193.026 314.868C193.026 315.948 191.637 321.502 189.94 327.21L186.7 337.854H155.994H125.289L123.746 343.562C121.74 350.967 106.619 417.766 106.619 418.846C106.619 419.309 146.428 419.617 195.186 419.617H283.598L294.708 381.05C300.725 359.915 305.663 341.557 305.663 340.168C305.663 338.317 303.657 337.854 296.405 337.854C285.913 337.854 286.067 338.317 290.079 323.97L292.856 313.943L326.647 313.48C346.243 313.326 359.667 313.634 358.895 314.405C332.819 338.163 333.436 337.854 324.95 337.854H317.081L312.915 351.584C310.6 359.298 308.749 365.777 308.749 366.24C308.749 366.857 340.534 367.166 379.417 367.166H450.085L453.479 354.207C455.331 347.111 456.874 340.477 456.874 339.551C456.874 338.626 451.165 337.854 441.29 337.546L425.86 337.083L458.263 305.766L490.665 274.45L506.249 305.304C514.735 322.427 521.679 336.62 521.679 337.083C521.679 337.392 514.581 338.009 505.94 338.163L490.356 338.626L486.808 351.739C484.802 358.989 483.259 365.314 483.104 366.086C483.104 366.703 519.056 367.011 562.876 366.857L642.802 366.394L645.425 356.83C646.814 351.43 648.357 345.105 648.974 342.482L650.054 337.854H633.081H616.263L591.884 296.51C578.46 273.833 566.579 253.778 565.345 252.081C563.339 248.995 565.499 246.835 609.628 208.422L656.072 168.158H670.421H684.771L691.868 140.544C695.88 125.271 699.12 112.467 699.12 112.004C699.12 111.541 665.175 111.078 623.515 111.078H548.064L546.521 116.786C545.749 120.026 542.509 132.059 539.577 143.629C536.491 155.045 534.022 165.227 534.022 166.307C534.022 167.387 538.96 168.158 549.144 168.467L564.265 168.929L535.103 194.23C513.192 213.205 505.477 218.913 504.552 217.37C503.935 216.136 496.837 204.72 488.813 192.07L474.155 168.929L489.893 168.467L505.786 168.004L512.884 140.698C516.895 125.734 520.136 112.93 520.136 112.158C520.136 111.541 486.19 111.078 444.53 111.078C403.024 111.078 368.925 111.387 368.925 111.695C368.925 112.004 365.839 124.037 361.981 138.384C358.124 152.577 355.038 165.227 355.038 166.153C355.038 167.541 358.587 168.158 367.844 168.158H380.497L405.184 206.108C418.762 226.935 430.335 244.984 431.106 246.064C431.878 247.453 423.237 256.246 404.104 273.678C388.52 287.563 375.714 298.516 375.405 297.899C375.251 297.282 378.491 282.317 382.811 264.731C386.977 247.144 390.526 231.408 390.526 229.712C390.526 226.935 388.983 226.78 352.26 226.78H313.84L328.807 164.61L343.774 102.594L332.819 101.668C326.801 101.051 318.469 101.359 314.149 102.131C297.485 105.062 282.518 99.9709 276.192 88.8635C272.797 83.1556 272.489 80.3787 272.026 60.478C271.409 35.332 272.952 26.0759 279.124 19.5966L283.135 15.4313H239.932H196.883L98.4416 136.687ZM245.487 106.605C241.166 120.489 233.143 150.571 227.588 173.557C221.879 196.389 216.788 217.833 216.016 220.918L214.473 226.78H172.813H130.998L138.559 217.833C142.571 212.896 169.881 179.882 199.198 144.555C228.36 109.227 252.584 80.533 252.739 80.8415C253.047 81.1501 249.807 92.7203 245.487 106.605Z" fill="#F1A037" fill-opacity="0.43"/>
<path d="M808.209 32.7095C807.591 42.2742 807.128 61.7121 807.128 75.9049V101.822H773.337C752.507 101.822 739.238 101.205 738.929 100.279C738.621 99.3539 736.615 99.3539 733.066 100.434L727.665 102.131L716.247 154.737C709.921 183.739 703.749 211.816 702.515 217.061L700.355 226.78H661.472H622.589L613.486 267.97C608.548 290.802 604.228 310.24 603.919 311.166C603.302 312.708 612.097 313.171 642.185 313.48L681.376 313.943L679.216 325.976L677.21 337.854H669.804C665.638 337.854 661.935 338.471 661.472 339.089C660.7 340.323 640.488 416.84 640.488 418.692C640.488 419.154 680.759 419.617 729.826 419.617C813.609 419.617 819.318 419.463 820.089 416.84C821.324 412.675 837.988 340.477 837.988 339.089C837.988 338.471 824.101 337.854 806.974 337.854C778.275 337.854 776.115 337.7 776.886 335.078C777.503 332.764 780.898 315.023 780.898 313.634C780.898 313.326 817.466 313.171 862.367 313.171L943.681 313.017L971.918 285.557L1000 257.943L957.26 136.687L914.365 15.4313H861.75H809.134L808.209 32.7095ZM856.658 154.12C871.162 193.458 882.734 225.855 882.271 226.163C881.963 226.472 863.293 226.626 840.765 226.472L800.031 226.009L808.98 185.128C817.775 144.092 824.718 106.45 826.57 88.0922C827.341 81.9214 828.113 79.1446 828.884 80.533C829.656 81.7671 842 114.935 856.658 154.12Z" fill="#F1A037" fill-opacity="0.63"/>
<path d="M808.209 32.7095C807.591 42.2742 807.128 61.7121 807.128 75.9049V101.822H773.337C752.507 101.822 739.238 101.205 738.929 100.279C738.621 99.3539 736.615 99.3539 733.066 100.434L727.665 102.131L716.247 154.737C709.921 183.739 703.749 211.816 702.515 217.061L700.355 226.78H661.472H622.589L613.486 267.97C608.548 290.802 604.228 310.24 603.919 311.166C603.302 312.708 612.097 313.171 642.185 313.48L681.376 313.943L679.216 325.976L677.21 337.854H669.804C665.638 337.854 661.935 338.471 661.472 339.089C660.7 340.323 640.488 416.84 640.488 418.692C640.488 419.154 680.759 419.617 729.826 419.617C813.609 419.617 819.318 419.463 820.089 416.84C821.324 412.675 837.988 340.477 837.988 339.089C837.988 338.471 824.101 337.854 806.974 337.854C778.275 337.854 776.115 337.7 776.886 335.078C777.503 332.764 780.898 315.023 780.898 313.634C780.898 313.326 817.466 313.171 862.367 313.171L943.681 313.017L971.918 285.557L1000 257.943L957.26 136.687L914.365 15.4313H861.75H809.134L808.209 32.7095ZM856.658 154.12C871.162 193.458 882.734 225.855 882.271 226.163C881.963 226.472 863.293 226.626 840.765 226.472L800.031 226.009L808.98 185.128C817.775 144.092 824.718 106.45 826.57 88.0922C827.341 81.9214 828.113 79.1446 828.884 80.533C829.656 81.7671 842 114.935 856.658 154.12Z" fill="#F1A037" fill-opacity="0.43"/>
<path d="M290.85 20.6733C281.747 24.8386 280.975 27.3069 280.975 55.0754C280.975 68.8053 281.592 81.764 282.518 83.9237C286.221 93.797 307.669 97.6537 322.327 91.0201L328.807 88.089V69.4224V50.9101H317.235H305.663V58.6236C305.663 62.7888 306.434 66.337 307.206 66.337C309.829 66.337 309.057 77.1359 306.28 78.2158C302.114 79.7585 301.034 75.5932 301.034 56.1553C301.034 41.6539 301.497 37.0258 303.348 35.4832C306.434 32.8606 308.749 34.8661 308.749 40.2655V44.7393H318.778H328.807V35.0203C328.807 25.3014 328.807 25.3014 323.098 22.3703C315.383 18.6678 297.176 17.7422 290.85 20.6733Z" fill="#F1A037" fill-opacity="0.63"/>
<path d="M702.361 21.139C694.337 25.15 692.949 30.3951 692.949 57.0837C692.949 83.6181 694.337 88.2461 702.978 91.9486C709.767 94.7255 725.505 94.7255 732.295 91.9486C740.935 88.2461 742.324 83.6181 742.324 57.0837C742.324 30.0866 740.935 24.9957 732.603 21.139C725.505 17.745 709.304 17.745 702.361 21.139ZM720.722 36.8744C721.494 38.5714 722.265 47.8276 722.265 57.5465C722.265 71.4308 721.802 75.5961 719.951 77.1387C718.099 78.6814 717.173 78.6814 715.322 77.1387C713.47 75.5961 713.007 71.4308 713.007 57.5465C713.007 40.8854 714.396 33.9433 717.636 33.9433C718.408 33.9433 719.796 35.3317 720.722 36.8744Z" fill="#F1A037" fill-opacity="0.63"/>
<path d="M334.208 56.3092V92.5625H358.586H382.811V79.4496V66.3367H373.553C365.53 66.3367 364.295 66.6452 364.295 69.2678C364.295 74.3587 362.598 77.1356 359.512 77.1356C357.043 77.1356 356.581 75.9014 356.581 70.3477V63.4056L363.215 62.9428L369.696 62.48V55.5378V48.5957L363.215 48.1329C356.581 47.6701 356.581 47.6701 356.581 41.4993C356.581 37.6426 357.352 35.4828 358.586 35.4828C361.518 35.4828 364.295 38.7225 364.295 41.9621C364.295 44.2762 365.684 44.739 373.553 44.739H382.811V32.3974V20.0559H358.586H334.208V56.3092Z" fill="#F1A037" fill-opacity="0.63"/>
<path d="M386.669 27.3065C388.058 36.8712 388.058 75.7471 386.669 85.1576L385.589 92.5625H396.544H407.499V85.7746C407.499 81.9179 406.882 78.3697 405.956 77.9069C405.185 77.4441 404.413 73.7416 404.413 69.7306C404.413 60.4745 405.956 62.3257 412.128 78.9868L417.22 92.5625H427.712H438.358V66.6452C438.358 52.4525 438.821 36.2542 439.439 30.3919L440.364 20.0559H429.255H418.3V26.8437C418.3 30.7005 419.071 34.2487 419.843 34.7115C420.769 35.1743 421.386 38.8767 421.386 42.7335C421.386 46.7445 420.923 49.3671 420.306 48.75C419.689 48.1329 416.911 41.6536 414.288 34.2487L409.505 20.8272L397.47 20.3644L385.589 19.9016L386.669 27.3065Z" fill="#F1A037" fill-opacity="0.63"/>
<path d="M445.302 56.3092V92.5625H470.452H495.448V79.4496V66.3367H485.573H475.544L475.081 71.2733C474.773 75.1301 473.847 76.5185 471.224 76.827C467.983 77.2898 467.675 76.6728 467.675 70.3477V63.2513H474.618H481.562V55.5378V47.8244H474.618H467.675V41.4993C467.675 35.9456 467.983 35.3285 471.224 35.7914C473.692 36.0999 474.773 37.4883 475.081 40.4194C475.544 44.5847 475.853 44.739 485.573 44.739H495.448V32.3974V20.0559H470.452H445.302V56.3092Z" fill="#F1A037" fill-opacity="0.63"/>
<path d="M497.763 56.3092V92.5625H510.569H523.222V86.546C523.222 83.1521 522.605 79.9124 521.679 79.4496C519.056 77.9069 519.673 64.794 522.45 64.794C526.153 64.794 527.851 70.1934 527.851 81.6094V92.5625H539.577H551.304L550.532 85.1576C548.218 65.8739 546.829 59.8574 544.36 58.3147C541.892 56.9263 542.046 56.4635 545.595 52.2982C552.692 43.6591 550.069 26.0724 540.966 21.9071C538.497 20.8272 529.239 20.0559 517.358 20.0559H497.763V56.3092ZM527.079 42.4249C527.079 47.6701 526.616 48.5957 523.685 49.0585C520.444 49.5213 520.136 48.9043 520.136 42.4249C520.136 35.9456 520.444 35.3285 523.685 35.7914C526.616 36.2542 527.079 37.1798 527.079 42.4249Z" fill="#F1A037" fill-opacity="0.63"/>
<path d="M558.864 48.9043C556.087 64.9483 553.464 81.1466 553.001 85.1576L552.229 92.5625H563.956H575.683V86.546C575.683 83.1521 575.065 79.9124 574.14 79.4496C570.437 77.1356 572.751 74.0502 577.997 74.0502C583.243 74.0502 585.558 77.1356 581.855 79.4496C581.083 79.9124 580.312 83.1521 580.312 86.546V92.5625H594.198H608.085V86.7003C608.085 83.4606 607.314 80.0667 606.388 79.1411C605.308 78.0612 594.198 24.9925 594.198 20.3644C594.198 20.2101 587.409 20.0559 579.077 20.0559H564.11L558.864 48.9043ZM580.157 55.8464C580.312 58.6232 579.54 60.1659 578.151 60.1659C574.603 60.1659 574.294 58.469 576.146 48.5957L577.843 39.3396L578.923 45.5103C579.54 48.9043 580.157 53.5323 580.157 55.8464Z" fill="#F1A037" fill-opacity="0.63"/>
<path d="M603.456 36.2542V52.4525H611.171H618.886V44.8933C618.886 40.5737 619.657 36.717 620.737 36.0999C621.972 35.3285 622.28 42.2707 621.663 63.7141L620.737 92.5625H632.773H644.808L643.882 63.7141C643.265 42.2707 643.573 35.3285 644.808 36.0999C645.888 36.717 646.659 40.5737 646.659 44.8933V52.4525H654.374H662.089V36.2542V20.0559H632.773H603.456V36.2542Z" fill="#F1A037" fill-opacity="0.63"/>
<path d="M664.403 56.3092V92.5625H675.976H687.548V56.3092V20.0559H675.976H664.403V56.3092Z" fill="#F1A037" fill-opacity="0.63"/>
<path d="M746.953 26.8437C746.953 30.7005 747.724 34.2487 748.496 34.7115C749.421 35.3286 750.039 44.2762 750.039 56.3092C750.039 68.3422 749.421 77.2898 748.496 77.9069C747.724 78.3697 746.953 81.9179 746.953 85.7746V92.5625H757.908H768.863L767.937 85.1576C764.388 58.6232 765.005 57.6976 773.183 78.9868L778.275 92.5625H788.767H799.414V66.6452C799.414 52.4525 799.877 36.2542 800.494 30.3919L801.42 20.0559H790.31H779.355V26.3809C779.355 29.7749 780.127 33.9401 781.052 35.6371C781.824 37.3341 782.441 41.6536 782.132 45.2018C781.67 51.5268 781.515 51.3726 776.115 36.2542L770.406 20.8272L758.679 20.3644L746.953 19.9016V26.8437Z" fill="#F1A037" fill-opacity="0.63"/>
<path d="M306.588 374.262C306.125 375.65 305.663 378.582 305.663 381.05C305.663 387.066 301.342 405.424 298.719 411.441C295.17 418.846 295.633 419.617 303.965 419.617C312.297 419.617 313.377 418.537 313.532 409.127C313.532 406.041 314.149 402.03 314.92 400.334C315.846 398.174 316.309 399.716 316.309 406.041C316.618 423.011 320.321 424.091 327.881 409.127C330.967 403.265 333.282 400.179 333.282 401.876C333.436 403.573 332.51 406.659 331.43 408.818C330.196 410.978 328.961 414.372 328.498 416.223C327.573 419.617 327.881 419.771 336.985 419.309L346.551 418.846L347.014 413.446C347.631 404.807 352.106 385.215 354.42 380.741C358.432 372.874 357.506 371.794 346.86 371.794H337.139L332.665 380.587L328.036 389.535L327.573 380.587L327.11 371.794H317.389C309.829 371.794 307.36 372.411 306.588 374.262Z" fill="#F1A037" fill-opacity="0.63"/>
<path d="M361.209 391.077C356.735 401.722 352.415 410.824 351.643 411.287C351.026 411.749 350.409 413.755 350.409 415.915C350.409 419.309 350.872 419.617 358.741 419.617C366.301 419.617 367.073 419.309 367.999 415.915C368.461 413.755 368.461 410.978 367.999 409.744C367.227 407.893 367.999 407.276 371.085 407.276C375.096 407.276 376.485 409.281 373.553 411.132C372.782 411.595 372.01 413.755 372.01 415.915C372.01 419.463 372.473 419.617 382.04 419.617H392.069V395.705V371.794H380.651H369.387L361.209 391.077ZM376.639 392.62C376.639 396.323 375.868 398.019 374.325 398.019C371.547 398.019 371.547 398.174 373.708 392.003C375.868 385.832 376.639 385.986 376.639 392.62Z" fill="#F1A037" fill-opacity="0.63"/>
<path d="M406.882 376.729C402.87 380.894 401.481 384.288 399.167 395.087C394.538 417.61 397.007 421.93 414.442 420.696C428.483 419.616 431.724 417.61 433.729 408.2C434.655 403.88 435.735 398.789 436.198 396.938C437.124 393.544 436.815 393.39 427.866 393.39C419.071 393.39 418.608 393.544 417.837 397.555C417.374 400.024 417.528 402.183 418.3 402.646C420.151 403.88 417.065 410.36 414.442 410.36C413.208 410.36 412.128 410.051 412.128 409.434C412.128 406.966 417.374 385.985 418.608 383.671C420.614 379.814 422.929 380.431 422.929 384.905C422.929 388.453 423.392 388.762 430.489 388.762C437.895 388.762 438.05 388.762 439.593 382.591C441.136 376.575 440.981 376.266 436.661 374.106C434.192 372.718 428.175 371.792 422.003 371.792C412.591 371.792 411.511 372.101 406.882 376.729Z" fill="#F1A037" fill-opacity="0.63"/>
<path d="M452.399 374.416C451.628 375.959 448.387 383.364 445.302 391.077C442.061 398.637 438.204 407.276 436.661 410.207C432.032 419 432.495 419.771 442.678 419.309L451.473 418.846V413.446C451.628 408.818 452.091 408.047 455.794 407.584C459.805 407.121 459.805 407.121 457.645 411.441C453.788 418.846 454.405 419.617 465.206 419.617C471.686 419.617 475.235 419 475.698 417.612C476.007 416.686 476.007 405.887 475.698 393.7L475.081 371.794H464.434C455.948 371.794 453.634 372.256 452.399 374.416ZM460.268 392.62C459.805 395.86 458.725 398.019 457.491 398.019C455.948 398.019 455.794 397.094 457.028 394.008C460.114 385.678 461.04 385.215 460.268 392.62Z" fill="#F1A037" fill-opacity="0.63"/>
<path d="M488.659 373.645C487.733 376.73 484.647 389.997 484.647 390.923C484.647 391.386 487.116 391.849 490.202 391.849C494.831 391.849 495.911 391.232 497.146 387.221C498.226 384.135 499.923 382.593 501.929 382.593C504.398 382.593 503.009 384.752 495.294 393.546C482.95 407.276 478.476 413.446 478.476 416.84C478.476 419.309 480.327 419.617 497.608 419.617H516.896L518.593 410.67C519.673 405.887 520.753 401.413 521.216 400.642C521.524 400.025 519.056 399.562 515.815 399.562C510.569 399.562 509.489 400.179 508.718 403.419C507.792 406.967 502.237 411.441 500.54 409.898C500.231 409.435 505.478 402.802 512.421 395.088C519.364 387.529 525.536 379.044 526.308 376.422L527.696 371.794H508.409C494.368 371.794 488.968 372.256 488.659 373.645Z" fill="#F1A037" fill-opacity="0.63"/>
<path d="M531.862 374.262C531.399 375.65 530.937 379.044 530.937 381.975C530.937 387.683 526.616 406.967 524.765 409.59C524.147 410.361 523.222 412.984 522.604 415.298L521.679 419.617H531.708C542.2 419.617 542.817 419 541.892 410.978C541.583 408.201 547.909 382.284 549.298 380.433C549.915 379.507 550.995 377.193 551.458 375.188C552.23 371.948 551.767 371.794 542.509 371.794C535.103 371.794 532.634 372.411 531.862 374.262Z" fill="#F1A037" fill-opacity="0.63"/>
<path d="M556.704 372.874C556.087 373.336 555.624 376.267 555.624 379.044C555.624 385.832 551.304 405.27 548.526 410.67C544.669 418.229 545.595 419.617 554.081 419.617C560.87 419.617 561.796 419.154 562.567 416.069C563.184 414.063 563.339 411.904 563.184 410.978C563.03 410.207 563.03 407.584 563.184 405.27C563.339 400.642 566.425 400.796 566.425 405.424C566.425 406.813 567.196 410.67 568.122 413.755C569.665 419.463 569.819 419.617 577.225 419.617C583.089 419.617 584.94 419 585.558 416.84C585.866 415.452 587.718 407.584 589.569 399.562C591.267 391.54 593.89 382.747 594.97 379.97C598.519 372.411 598.056 371.794 588.798 371.794C580.62 371.794 580.311 371.948 580.157 375.959C580.003 378.427 579.849 381.358 579.694 382.593C579.386 383.827 579.077 386.604 578.923 388.763C578.46 392.466 578.46 392.466 577.225 387.992C576.608 385.369 575.528 380.741 575.065 377.502L573.985 371.794H565.808C561.333 371.794 557.167 372.256 556.704 372.874Z" fill="#F1A037" fill-opacity="0.63"/>
<path d="M601.296 375.648C600.679 377.808 600.679 380.276 600.987 380.893C601.913 382.282 596.513 406.194 594.353 411.13C590.341 420.078 589.569 419.615 610.4 419.615C631.538 419.615 629.995 420.386 632.155 408.353L633.081 402.645H626.138C620.583 402.645 618.886 403.262 618.114 405.577C617.651 407.273 616.109 408.97 614.874 409.433C613.023 410.205 612.56 409.279 613.023 405.268C613.485 400.948 614.103 400.177 618.886 399.56C623.36 398.943 624.441 398.017 624.749 394.469C625.212 390.767 624.749 390.304 620.429 390.304C616.571 390.304 615.646 389.841 616.417 387.836C616.88 386.447 617.343 384.75 617.343 383.979C617.343 383.207 618.423 382.59 619.657 382.59C620.892 382.59 621.972 383.979 621.972 385.676C621.972 388.298 623.052 388.761 628.915 388.761C636.476 388.761 637.402 387.836 639.407 376.728L640.487 371.792H621.355H602.222L601.296 375.648Z" fill="#F1A037" fill-opacity="0.63"/>
</svg>
