<svg width="1000" height="349" viewBox="0 0 1000 349" fill="none" xmlns="http://www.w3.org/2000/svg">
<path d="M85.4789 64.5247C85.3755 122.878 85.3066 129.496 84.7896 133.39C83.0662 145.971 79.9641 150.934 72.3124 153.244C69.4172 154.14 62.1101 154.14 59.2148 153.244C51.3563 150.865 47.6683 145.557 46.3241 134.597C46.1173 132.873 45.9449 127.496 45.9449 122.602V113.744H22.9552H0L0.206804 122.602C0.654879 141.042 2.79185 151.968 8.03088 162.929C14.9588 177.44 26.5398 186.608 43.1531 190.744C59.9731 194.949 83.2385 193.949 98.2663 188.331C119.291 180.473 129.183 164.928 133.044 133.735C133.561 129.599 133.63 121.982 133.733 64.5247L133.871 0.00186157H109.744H85.6168L85.4789 64.5247Z" fill="#F1A037" fill-opacity="0.63"/>
<path d="M445.421 96.8509V193.359H468.169H490.918L490.952 174.127V154.928L499.397 146.139C504.05 141.314 508.014 137.316 508.255 137.281C508.496 137.212 515.252 149.517 523.627 165.269L538.62 193.359H564.264C586.944 193.359 589.873 193.29 589.701 192.842C589.598 192.567 578.258 172.782 564.505 148.897C550.753 124.976 539.517 105.364 539.517 105.295C539.517 105.123 592.217 46.8733 594.768 44.1849L596.181 42.7372H568.883H541.619L516.355 71.414L491.09 100.125L490.987 50.2167L490.918 0.342468H468.169H445.421V96.8509Z" fill="#F1A037" fill-opacity="0.63"/>
<path d="M207.252 42.7738C198.601 43.3943 188.295 45.4968 182.297 47.9095C163.72 55.2855 152.276 70.003 151.311 87.7882L151.208 89.9596H172.13H193.086L193.637 87.9605C195.567 81.3428 200.427 76.8276 207.769 74.9318C211.216 74.0357 221.28 74.0012 224.485 74.8974C229.518 76.2761 233.24 79.2747 234.309 82.7904C235.032 85.2376 234.998 91.0281 234.274 92.5791C232.413 96.4739 224.313 99.507 208.631 102.195C198.256 103.953 184.883 106.642 181.263 107.71C169.097 111.26 160.618 116.362 154.827 123.669C152.07 127.115 150.691 129.735 149.037 134.595C147.141 140.213 146.589 143.108 146.348 148.382C145.555 166.477 153.586 181.47 167.787 188.433C177.782 193.327 191.293 194.637 204.15 191.948C214.8 189.777 224.003 184.883 233.137 176.645L236.032 174.025L236.135 182.47L236.204 190.949H257.746H279.288V147.589C279.288 103.953 279.047 91.9587 278.082 83.4797C276.807 72.5881 273.601 64.9019 267.742 58.6633C258.78 49.1158 246.028 44.187 226.726 42.7394C221.246 42.3602 213.111 42.3602 207.252 42.7738ZM234.309 143.798C234.033 145.176 233.171 147.623 232.378 149.243C231.207 151.622 230.345 152.759 227.967 155.137C225.485 157.584 224.382 158.377 221.694 159.721C217.902 161.583 215.49 162.238 211.078 162.686C199.531 163.789 192.19 158.618 190.673 148.347C189.915 143.349 191.569 137.869 194.602 135.284C198.015 132.354 204.908 129.7 213.456 128.046C221.763 126.46 228.897 124.324 232.93 122.29L234.653 121.394L234.757 131.355C234.826 139.144 234.722 141.867 234.309 143.798Z" fill="#F1A037" fill-opacity="0.63"/>
<path d="M358.391 42.7729C326.681 45.7371 304.829 64.1082 297.211 94.1981C294.178 106.296 293.351 119.98 294.971 132.181C297.315 149.863 304.277 164.236 315.755 175.127C324.096 183.089 335.125 188.845 346.913 191.396C353.6 192.878 356.599 193.188 364.595 193.154C378.451 193.119 389.411 190.81 400.096 185.605C406.714 182.4 410.436 179.78 415.469 174.748C423.051 167.269 427.291 159.514 429.497 149.208C430.255 145.83 430.944 140.246 430.944 137.868V136.49H409.23H387.516V137.213C387.516 137.627 386.964 139.592 386.275 141.625C382.794 152.034 376.348 156.825 365.801 156.825C359.08 156.825 354.875 155.24 350.808 151.138C347.017 147.347 344.742 142.487 343.225 135.007C340.985 123.874 341.295 108.157 343.949 97.955C346.948 86.443 353.117 79.6529 362.01 78.0329C373.867 75.896 383 82.1346 386.206 94.5428L386.999 97.5414H408.954H430.944V96.1972C430.944 91.3718 429.29 82.169 427.601 77.3781C421.638 60.7304 406.886 48.8391 386.826 44.4962C378.899 42.8074 366.249 42.0146 358.391 42.7729Z" fill="#F1A037" fill-opacity="0.63"/>
<path d="M641.713 42.738C617.965 45.1507 600.628 55.5599 589.632 73.9309C576.397 96.1279 574.846 131.733 586.013 155.963C595.526 176.506 613.105 189.017 637.576 192.567C643.367 193.395 656.292 193.395 662.048 192.533C677.145 190.327 690.415 184.812 700.548 176.575C703.685 174.024 708.441 169.199 710.647 166.303C715.748 159.651 719.436 151.172 719.436 146.071V144.417H697.446H675.456L674.87 146.071C672.768 151.896 667.046 156.894 660.153 158.927C656.154 160.065 647.641 160.272 643.47 159.272C633.647 156.928 627.65 149.552 625.858 137.523C625.582 135.731 625.341 133.111 625.341 131.733V129.251H672.561H719.781V124.15C719.781 94.1633 713.267 73.345 699.652 59.7993C690.277 50.4587 678.972 45.3575 663.082 43.255C658.153 42.6002 646.055 42.3244 641.713 42.738ZM655.672 74.1377C665.426 75.6888 672.388 81.5827 675.732 91.1301C676.766 93.9565 677.731 99.0921 677.731 101.574V103.056H650.846C624.824 103.056 623.962 103.021 623.962 102.401C623.962 101.022 625.065 95.5075 625.892 92.7846C627.409 87.7179 629.58 83.9609 632.923 80.6176C637.714 75.7922 642.471 73.9309 650.329 73.8275C652.053 73.7931 654.431 73.9309 655.672 74.1377Z" fill="#F1A037" fill-opacity="0.63"/>
<path d="M811.498 42.7717C805.122 43.1508 799.228 43.9091 794.265 45.0121C773.412 49.6652 754.938 64.6929 744.666 85.3388C739.841 94.9897 737.256 103.538 735.567 115.463C734.843 120.633 734.809 122.012 734.705 157.065L734.567 193.359H758.177H781.788L781.925 156.893C782.029 124.183 782.098 120.082 782.649 116.842C783.339 112.602 785.2 106.777 786.716 104.089C791.611 95.3688 799.676 90.5089 812.36 88.5443C813.946 88.303 821.149 88.0617 829.559 87.9239L844.07 87.7171L836.074 65.141L828.077 42.5649L822.287 42.5304C819.081 42.496 814.221 42.5994 811.498 42.7717Z" fill="#F1A037" fill-opacity="0.63"/>
<path d="M866.026 42.6344C853.445 42.7033 843.174 42.8067 843.174 42.9101C843.174 43.0135 854.307 72.0694 867.887 107.467C896.667 182.468 895.84 180.297 897.391 185.432C899.114 191.051 899.562 194.463 899.08 197.599C897.632 206.94 892.048 209.56 873.677 209.56H866.956V228.344V247.129H877.055C900.493 247.094 910.971 246.026 917.589 242.958C926.55 238.822 932.065 230.619 939.958 209.663C942.095 204.079 999.621 44.082 999.931 42.979C1000.07 42.4276 998.725 42.3931 974.873 42.3931H949.712L947.506 49.1832C939.303 74.4477 921.966 127.079 921.725 127.321C921.587 127.493 921.139 126.562 920.76 125.253C920.346 123.943 914.245 104.813 907.18 82.7198L894.289 42.5654H891.566C890.084 42.5654 878.572 42.5999 866.026 42.6344Z" fill="#F1A037" fill-opacity="0.63"/>
<path d="M96.267 271.223C85.5477 273.601 77.4134 280.012 72.4156 290.042C67.6592 299.521 66.9353 312.963 70.5544 323.751C75.173 337.469 85.5477 345.983 99.8516 347.775C113.57 349.498 126.391 344.156 133.836 333.575C142.315 321.58 143.728 306.035 137.662 291.973C133.974 283.39 129.045 278.013 121.6 274.36C115.982 271.568 112.742 270.879 105.401 270.706C100.231 270.603 98.7142 270.672 96.267 271.223ZM109.123 286.251C112.019 287.009 114.224 288.216 116.603 290.422C118.257 291.973 119.015 293.041 120.222 295.523C122.359 299.969 122.841 302.278 123.048 308.345C123.255 314.652 122.703 317.961 120.773 322.097C118.74 326.371 115.534 329.68 111.812 331.3C106.848 333.437 100.334 333.058 95.8189 330.438C92.1654 328.301 88.4085 322.855 87.1332 317.961C86.2026 314.411 85.8579 309.103 86.2715 305.311C87.3744 295.454 91.9586 288.733 99.1623 286.423C101.747 285.631 106.366 285.527 109.123 286.251Z" fill="#F1A037" fill-opacity="0.63"/>
<path d="M443.697 271.222C433.357 273.428 425.051 279.977 420.122 289.8C416.951 296.108 415.607 302.76 415.882 310.687C416.227 320.614 418.95 328.61 424.292 335.366C431.082 343.983 442.25 348.636 454.382 348.015C458.829 347.774 463.585 346.706 467.411 345.086C476.924 341.087 484.576 331.609 487.678 319.924C488.884 315.444 489.194 307.482 488.367 302.725C487.126 295.522 483.886 287.904 480.06 283.044C475.2 276.909 467.583 272.532 459.242 271.084C455.209 270.36 447.42 270.429 443.697 271.222ZM456.829 286.284C461.034 287.525 464.998 290.489 466.997 293.833C471.581 301.657 472.029 314.996 467.997 322.992C465.894 327.094 461.793 330.609 457.519 331.919C454.348 332.919 449.764 332.919 446.765 331.919C440.182 329.713 435.77 324.061 434.184 315.788C433.633 312.824 433.564 306.172 434.047 303.07C435.46 294.488 440.423 288.077 447.179 286.284C449.695 285.595 454.486 285.595 456.829 286.284Z" fill="#F1A037" fill-opacity="0.63"/>
<path d="M732.362 270.981C717.747 273.704 707.476 284.32 704.064 300.209C703.306 303.759 703.064 311.067 703.547 314.789C705.408 328.817 712.474 339.399 723.331 344.5C732.913 349.015 744.908 349.291 754.627 345.189C767.587 339.743 776.342 325.577 776.376 310.033C776.411 297.211 771.103 284.871 762.658 278.15C758.109 274.531 752.697 272.118 746.734 271.084C743.495 270.499 735.153 270.43 732.362 270.981ZM744.218 286.25C750.905 288.008 755.351 293.144 757.385 301.416C758.005 303.897 758.178 305.517 758.178 309.516C758.178 315.513 757.592 318.408 755.661 322.406C753.249 327.335 749.733 330.472 744.977 331.954C742.357 332.746 737.67 332.919 735.257 332.264C728.501 330.437 723.503 324.509 721.815 316.237C720.849 311.687 721.056 304.173 722.194 300.209C724.296 292.902 728.811 287.836 734.636 286.285C737.049 285.63 741.84 285.595 744.218 286.25Z" fill="#F1A037" fill-opacity="0.63"/>
<path d="M813.705 270.981C799.194 273.704 788.888 284.251 785.407 300.037C784.683 303.415 784.407 311.066 784.89 314.858C787.509 334.677 800.331 347.085 819.219 347.981C831.765 348.601 842.381 343.879 849.482 334.573C854.031 328.61 856.823 321.407 857.616 313.41C858.684 302.967 854.686 289.697 848.103 282.011C843.45 276.565 835.901 272.463 828.043 271.084C824.837 270.498 816.462 270.464 813.705 270.981ZM827.078 286.698C829.87 287.698 833.247 290.214 834.867 292.489C840.451 300.278 841.244 314.548 836.591 323.302C834.419 327.438 830.628 330.609 826.32 331.919C823.7 332.746 819.012 332.919 816.6 332.264C810.465 330.609 805.605 325.336 803.537 318.132C802.606 314.892 802.227 307.413 802.813 303.69C804.26 294.557 809.051 288.18 815.979 286.25C818.668 285.526 824.458 285.733 827.078 286.698Z" fill="#F1A037" fill-opacity="0.63"/>
<path d="M961.224 271.257C957.881 271.706 953.125 273.119 950.229 274.566C941.75 278.84 937.614 285.527 937.614 295.005C937.614 300.934 938.89 304.381 942.474 308.137C946.645 312.48 953.297 314.996 964.843 316.547C967.015 316.858 969.979 317.271 971.392 317.444C980.009 318.65 983.697 322.269 981.422 327.267C979.63 331.265 974.184 333.54 967.256 333.195C960.432 332.851 953.883 330.334 949.609 326.44C948.368 325.268 947.231 324.337 947.127 324.337C947.024 324.337 943.922 326.233 940.199 328.542L933.513 332.713L934.857 334.367C942.164 343.053 952.918 347.499 966.705 347.465C977.114 347.465 985.179 345.224 991.004 340.744C996.622 336.435 1000 329.438 1000 322.304C999.966 315.203 997.277 310.033 991.694 306.414C988.074 304.07 980.388 302.071 968.463 300.382C960.673 299.279 959.122 298.831 957.502 297.28C955.848 295.66 955.262 293.765 955.848 291.697C957.433 285.734 965.326 283.631 974.632 286.664C977.665 287.698 980.561 289.456 983.697 292.179C985.076 293.385 986.006 293.971 986.282 293.799C986.661 293.592 998.484 285.182 998.966 284.803C999.07 284.7 998.311 283.907 997.277 283.045C987.902 274.911 979.389 271.361 968.29 271.085C965.74 271.016 962.569 271.085 961.224 271.257Z" fill="#F1A037" fill-opacity="0.63"/>
<path d="M0.103516 309.309V346.051H9.23735H18.3712V333.987V321.924H26.9536C39.9477 321.924 45.0489 321.2 50.3913 318.58C54.0449 316.788 58.0086 312.79 60.0077 308.964C63.4889 302.174 63.7991 293.626 60.8004 285.871C58.4567 279.805 53.4244 275.6 46.1174 273.6C43.4289 272.877 42.7051 272.842 21.749 272.704L0.103516 272.601V309.309ZM37.018 286.56C42.6362 287.87 45.2212 291.799 44.8421 298.279C44.5319 302.725 43.0843 305.207 39.7409 306.93C37.2593 308.171 34.6742 308.481 26.2297 308.481H18.3712V297.28V286.078H26.7467C32.4683 286.078 35.7082 286.216 37.018 286.56Z" fill="#F1A037" fill-opacity="0.63"/>
<path d="M145.211 272.877C145.245 273.049 149.381 289.524 154.483 309.515L163.72 345.878L173.061 345.982L182.401 346.051L182.884 344.431C183.159 343.5 186.158 332.953 189.536 320.959C192.914 308.998 195.774 299.175 195.878 299.175C195.981 299.175 199.014 309.722 202.599 322.613L209.148 346.051H218.488H227.829L229.794 338.365C230.897 334.16 235.067 317.684 239.1 301.76L246.441 272.808L237.48 272.704C232.551 272.67 228.484 272.67 228.449 272.704C228.381 272.773 225.968 284.079 223.073 297.865C220.143 311.687 217.696 322.958 217.592 322.958C217.489 322.958 214.49 312.135 210.906 298.9C207.321 285.699 204.253 274.359 204.081 273.738L203.771 272.635H195.706C188.33 272.635 187.64 272.67 187.468 273.221C187.399 273.566 184.4 284.906 180.85 298.417C177.3 311.928 174.267 322.854 174.163 322.716C174.026 322.544 171.544 311.239 168.649 297.521L163.341 272.635H154.276C149.278 272.635 145.211 272.739 145.211 272.877Z" fill="#F1A037" fill-opacity="0.63"/>
<path d="M253.093 309.343V346.051H281.701H310.309V338.813V331.575H290.663H271.016V322.785V313.996H287.905H304.794V307.103V300.209H287.905H271.016V293.488V286.767H289.112H307.207V279.701V272.635H280.15H253.093V309.343Z" fill="#F1A037" fill-opacity="0.63"/>
<path d="M318.926 309.309V346.051H328.06H337.193V332.953V319.856H343.156L349.085 319.89L356.323 332.884L363.595 345.878L373.488 345.982C378.933 346.016 383.38 345.982 383.38 345.878C383.38 345.775 379.657 339.261 375.107 331.402C370.558 323.544 366.835 316.995 366.835 316.823C366.835 316.685 368.283 315.961 370.006 315.203C372.764 314.031 373.556 313.479 375.831 311.239C377.348 309.757 378.864 307.861 379.381 306.827C381.691 302.277 382.277 295.797 380.967 290.214C378.899 281.597 373.488 276.186 364.492 273.738L361.148 272.842L340.054 272.704L318.926 272.601V309.309ZM358.563 286.974C360.562 287.904 362.561 290.11 363.078 292.006C363.32 292.833 363.492 294.763 363.492 296.314C363.492 298.693 363.354 299.451 362.561 301.036C362.044 302.105 361.045 303.415 360.355 304.001C358.046 305.931 356.599 306.172 346.431 306.344L337.193 306.482V296.246V286.009L347.12 286.147C356.288 286.25 357.116 286.319 358.563 286.974Z" fill="#F1A037" fill-opacity="0.63"/>
<path d="M498.156 294.422C498.156 323.753 498.466 327.234 501.671 333.404C509.151 347.846 533.519 352.154 549.167 341.745C553.372 338.953 556.819 334.576 558.646 329.716C560.576 324.58 560.611 323.822 560.783 297.179L560.921 272.638H551.787H542.653L542.55 298.213C542.412 327.648 542.584 326.166 539.413 329.337C537.242 331.508 535.277 332.267 531.244 332.508C526.143 332.818 521.352 331.371 519.008 328.786C516.734 326.269 516.768 326.717 516.768 298.247V272.638H507.462H498.156V294.422Z" fill="#F1A037" fill-opacity="0.63"/>
<path d="M567.435 279.874V287.112H576.914H586.392V316.581V346.051H595.526H604.66V316.581V287.112H614.311H623.961V279.874V272.635H595.698H567.435V279.874Z" fill="#F1A037" fill-opacity="0.63"/>
<path d="M630.855 309.309V346.051H645.641C661.496 346.051 667.563 345.741 671.664 344.672C686.658 340.846 695.137 329.955 696.274 312.962C697.653 293.04 689.622 279.494 673.698 274.876C667.356 273.015 665.701 272.877 647.675 272.739L630.855 272.566V309.309ZM665.495 288.663C668.528 289.455 670.32 290.421 672.56 292.489C677.145 296.728 679.109 304.104 678.075 313.272C676.972 323.164 673.25 328.128 665.15 330.403C663.668 330.816 661.221 331.023 656.292 331.126L649.467 331.299V309.722V288.146H656.464C661.634 288.146 663.978 288.284 665.495 288.663Z" fill="#F1A037" fill-opacity="0.63"/>
<path d="M866.956 309.309V346.051H876.09H885.224V332.953V319.856H891.049H896.874L904.181 332.953L911.522 346.051H921.483H931.479L930.79 344.913C929.273 342.432 914.762 317.271 914.624 316.857C914.521 316.616 914.624 316.409 914.866 316.409C915.107 316.409 916.727 315.72 918.485 314.892C922.655 312.928 925.619 310.067 927.377 306.379C929.032 302.863 929.48 300.657 929.48 296.246C929.411 284.63 923.207 276.53 912.039 273.6C909.282 272.877 908.386 272.842 888.085 272.739L866.956 272.601V309.309ZM906.628 287.146C909.833 288.663 911.419 291.523 911.419 295.901C911.419 300.588 909.351 303.966 905.628 305.448C903.802 306.138 902.974 306.207 894.461 306.344L885.224 306.482V296.246V286.043L894.978 286.147C904.663 286.25 904.698 286.25 906.628 287.146Z" fill="#F1A037" fill-opacity="0.63"/>
</svg>
