<svg width="1000" height="168" viewBox="0 0 1000 168" fill="none" xmlns="http://www.w3.org/2000/svg">
<path d="M3.26211 1.93102C2.20945 2.98368 1.11293 4.60652 0.805906 5.5276C0.0164106 7.89608 -0.334476 46.3182 0.411158 50.5288C0.981349 53.9061 2.51648 56.2307 5.19199 57.8974L6.94643 58.994V83.9946V108.995L5.19199 110.092C2.51648 111.759 0.981349 114.083 0.411158 117.46C-0.290615 121.627 0.0164106 160.093 0.762045 162.418C1.06907 163.295 2.07787 164.83 2.99895 165.795L4.66566 167.55H103.791C202.522 167.55 202.917 167.55 204.057 166.672C205.592 165.488 206.776 163.383 207.391 160.839C207.785 159.26 210.505 140.224 210.505 139.172C210.505 139.084 210.812 139.04 211.163 139.04C211.513 139.04 211.82 139.172 211.82 139.347C211.82 140.838 214.101 159.041 214.496 160.751C214.759 161.935 215.461 163.69 216.075 164.567C218.268 167.813 211.952 167.55 285.331 167.55H351.43L353.272 165.62C355.86 162.944 356.21 161.102 356.21 151.54L356.167 143.645L358.667 153.295C360.114 158.821 361.605 163.646 362.175 164.567C364.193 167.813 360.07 167.55 412.089 167.55H458.933L460.775 165.576C462.134 164.085 462.661 163.076 462.924 161.628C463.275 159.172 463.845 159.084 464.24 161.409C464.547 163.295 466.564 166.365 467.924 167.111C468.538 167.418 486.477 167.506 526.873 167.462L584.901 167.33L588.19 165.707C592.971 163.295 596.699 160.269 605.208 151.979C612.84 144.479 617.095 139.435 619.112 135.487C619.683 134.303 620.647 131.321 621.262 128.864L622.358 124.347V85.0912C622.358 47.5463 622.314 45.6603 621.481 41.6689C620.165 35.4846 619.463 33.7301 616.568 29.2563C612.095 22.4579 596.349 7.36975 589.287 3.11525C584.068 0.00113126 589.287 0.220438 526.171 0.0888554C474.196 0.00113369 469.196 0.0449919 468.187 0.702905C467.178 1.36082 467.003 1.36082 465.994 0.702905C465.029 0.0888528 461.783 0.00112833 434.414 0.00112833H403.931L402.484 0.966072C399.194 3.11525 397.615 7.80836 397.966 14.212L398.185 18.2034L396.519 11.6243C394.764 4.65038 393.755 2.5012 391.343 0.966072L389.896 0.00112833H338.798H287.656L285.726 1.93102C284.673 2.98368 283.577 4.60652 283.27 5.5276C282.48 7.89608 282.129 46.3182 282.875 50.5288C283.445 53.9061 284.98 56.2307 287.656 57.8974L289.41 58.994L289.454 84.0824V109.215H288.27C287.568 109.215 286.823 109.039 286.559 108.864C286.296 108.688 282.349 86.5386 277.875 59.6519C273.357 32.7652 269.322 9.29963 268.927 7.50134C268.313 4.69424 268.006 4.03634 266.164 2.15032L264.059 0.00112833H211.777H159.494L157.565 2.06259C156.468 3.24684 155.415 4.60652 155.24 5.13285C154.758 6.27324 153.617 11.712 153.091 15.4402C152.828 16.9753 152.433 19.3876 152.17 20.835C151.907 22.2824 151.512 24.5632 151.293 25.879C151.073 27.1949 150.591 30.002 150.24 32.0634C149.845 34.1249 148.968 39.3882 148.222 43.6865C147.477 47.9849 146.38 54.3886 145.766 57.8974C143.661 70.1785 142.038 79.6524 141.643 82.0209C140.678 87.8983 140.283 90.0913 140.064 90.4422C139.933 90.6615 139.318 90.4422 138.661 90.0036C138.003 89.5211 136.468 88.8193 135.239 88.4246C133.266 87.7667 130.502 87.7228 109.8 87.8544C97.0366 87.8983 86.1591 88.1176 85.6328 88.3369L84.624 88.6878V73.7751V58.9063L86.3346 57.7659C88.6153 56.2746 90.3259 53.95 90.8961 51.6254C91.1593 50.5288 91.4224 41.6251 91.5102 30.0458C91.7295 6.22937 91.6856 6.01006 87.8258 1.75556L86.203 0.00112833H45.7194H5.19199L3.26211 1.93102ZM81.0274 29.2563L80.8958 48.906L77.5185 49.0376L74.0974 49.1691V84.3017V119.39L78.6151 119.215C85.1942 118.996 85.5889 118.645 86.7732 111.627C87.0363 110.18 87.6504 106.583 88.1767 103.6L89.0978 98.2494H110.546H131.994V100.53C131.994 101.802 131.818 105.925 131.555 109.653C130.941 119.478 130.327 131.233 129.801 142.549C129.538 147.988 129.23 153.865 129.099 155.576L128.836 158.777H69.8868H10.9378V139.04V119.303H14.4466H17.9555V84.214V49.1691L14.5782 49.0376L11.1571 48.906L11.0255 29.2563L10.9378 9.65052H46.0264H81.1151L81.0274 29.2563ZM258.927 10.6155C259.059 11.1857 259.366 12.9839 259.629 14.6945C260.331 19.256 260.418 19.7385 261.866 28.0721C263.489 37.546 263.927 40.2215 264.454 43.862C264.673 45.441 265.111 48.2042 265.462 50.0025C265.813 51.8008 266.34 54.6517 266.603 56.3623C266.91 58.029 267.304 60.573 267.524 61.9326C267.787 63.3362 268.182 65.6608 268.401 67.1082C268.664 68.5556 269.059 70.9241 269.278 72.3715C270.419 79.2577 270.638 80.6174 271.033 82.6788C271.384 84.828 272.041 88.6439 272.831 93.5125C273.796 99.4775 274.892 105.881 275.419 108.776C275.638 109.873 276.033 112.416 276.34 114.434C276.647 116.452 277.173 118.382 277.524 118.689C277.919 119.083 279.147 119.303 281.164 119.303H284.191V139.04V158.777H254.409H224.672L224.365 156.76C224.233 155.619 224.102 153.865 224.102 152.812C224.102 151.76 223.926 149.961 223.707 148.821C223.487 147.681 223.049 144.435 222.786 141.672C222.479 138.908 221.996 134.829 221.733 132.68L221.207 128.733L211.294 128.601L201.382 128.513L200.943 131.452C200.68 133.119 200.241 136.101 199.978 138.163C199.496 141.716 199.189 144.084 198.267 150.795C198.004 152.418 197.697 154.874 197.566 156.233L197.303 158.777H168.135H139.011V139.04V119.303H142.476H145.898L146.161 117.46C146.468 115.267 147.082 111.408 147.784 107.68C148.047 106.232 148.442 103.951 148.661 102.636C148.88 101.32 149.45 97.8547 149.977 94.9599C150.503 92.065 151.073 88.6 151.293 87.2842C151.512 85.9684 151.907 83.7753 152.17 82.4595C152.433 81.1437 152.828 78.7752 153.091 77.1962C153.705 73.2049 154.187 70.3539 155.24 64.2573C155.766 61.3625 156.337 57.8974 156.556 56.5816C156.775 55.2658 157.17 53.0289 157.433 51.6254C157.652 50.2657 158.091 47.9849 158.31 46.5814C158.573 45.2217 158.968 42.9848 159.187 41.6689C160.021 36.6249 160.503 33.6863 160.898 31.2301C161.117 29.8704 161.731 26.4492 162.214 23.686C162.74 20.9228 163.267 17.8525 163.398 16.8876C163.661 15.0015 164.407 11.0979 164.67 10.1769C164.846 9.7821 174.626 9.65052 211.777 9.65052H258.752L258.927 10.6155ZM387.571 19.5192C388.887 24.8264 390.29 30.6599 390.773 32.4582C391.255 34.2565 392.045 37.5022 392.527 39.6952C393.054 41.8444 394.457 47.6779 395.641 52.6341C396.869 57.5904 398.799 65.6608 400.027 70.6171C404.326 88.3369 404.896 90.6615 406.694 97.9424C407.703 102.021 408.756 105.311 408.975 105.311C409.282 105.267 409.37 89.1264 409.238 57.4588L409.063 9.65052H434.59H460.073L459.985 29.2563L459.854 48.906L456.476 49.0376L453.055 49.1691V103.951V158.777L411.958 158.69L370.904 158.558L358.184 108.118C351.21 80.3542 345.333 56.8009 345.114 55.7044C344.675 53.5114 344.061 52.678 343.403 53.3359C343.008 53.7307 343.359 73.6874 344.28 106.364C344.5 113.82 344.807 128.689 344.982 139.391L345.289 158.777H319.323H293.402V139.04V119.303H296.911H300.419V84.214V49.1691L297.042 49.0376L293.621 48.906L293.489 29.2563L293.402 9.65052L339.324 9.73824L385.246 9.86982L387.571 19.5192ZM581.173 11.0979C585.69 13.0717 588.804 15.5717 597.533 24.1246C607.577 33.9494 610.121 37.6337 611.217 43.8181C612.095 48.7744 612.095 122.899 611.217 126.101C609.682 131.584 607.489 134.61 598.585 143.47C590.866 151.102 586.304 154.874 582.883 156.453C577.927 158.734 576.567 158.777 523.408 158.69L474.328 158.558L474.196 138.952L474.108 119.346L477.705 119.215L481.345 119.083V84.214V49.3446L477.837 49.1253L474.328 48.906L474.196 29.2563L474.108 9.65052H525.952H577.839L581.173 11.0979ZM469.021 57.9852L470.556 58.994V83.9946V108.995L468.801 110.092C466.433 111.539 464.854 113.732 464.196 116.408C463.757 118.25 463.67 113.425 463.626 88.8193L463.582 58.994L465.248 58.029C467.266 56.8009 467.178 56.8009 469.021 57.9852Z" fill="#F1A037" fill-opacity="0.63"/>
<path d="M210.812 47.6783C210.548 50.5293 210.198 53.2925 209.189 61.4068C208.926 63.4682 208.531 66.7139 208.312 68.6438C208.092 70.5737 207.698 73.7317 207.434 75.6616C206.908 79.2581 206.382 83.8635 205.855 89.1268L205.548 92.1094H211.294C214.452 92.1094 217.128 91.9778 217.215 91.7585C217.435 91.4515 217.171 88.3373 216.207 79.8283C215.943 77.5476 215.549 73.7755 215.329 71.4948C215.066 69.214 214.715 65.6613 214.452 63.5998C213.487 55.2663 213.092 51.3626 212.829 48.1169C212.61 45.3098 212.434 44.7397 211.82 44.7397C211.206 44.7397 211.031 45.3098 210.812 47.6783Z" fill="#F1A037" fill-opacity="0.63"/>
<path d="M537.268 84.6068V119.301H542.18C547.839 119.301 551.611 118.424 553.233 116.801C555.207 114.871 555.295 112.941 555.163 83.291L555.032 55.4832L553.979 53.7727C552.268 51.0533 550.032 50.2638 543.102 50.0884L537.268 49.9129V84.6068Z" fill="#F1A037" fill-opacity="0.63"/>
<path d="M819.863 1.36032C818.723 1.62349 817.451 2.41298 816.355 3.46564L814.688 5.13235L799.994 69.0376L785.345 132.899H783.547C782.582 132.943 781.09 133.162 780.257 133.469C779.073 133.908 778.371 133.908 777.187 133.513L775.652 132.987L775.52 83.8187C775.432 38.7736 775.476 34.6507 776.134 34.6507C777.582 34.6507 780.169 32.7647 781.178 30.9664C782.187 29.2558 782.231 28.7295 782.362 19.5187C782.494 13.3343 782.362 9.07983 782.012 7.63242C781.397 4.82533 779.248 2.41298 776.748 1.75507C775.564 1.44804 767.45 1.31646 752.055 1.40418L729.159 1.53576L727.536 2.76387C726.659 3.46564 725.519 4.82533 725.08 5.83413C724.598 6.84293 719.641 24.475 713.983 45.0457C703.983 81.4941 703.72 82.3275 703.194 80.573C702.93 79.5642 698.193 62.1953 692.711 42.0193C683.149 6.71135 682.711 5.22008 681.307 3.72881C680.474 2.89545 679.07 2.01823 678.149 1.79893C675.956 1.14102 631.525 1.14102 629.288 1.75507C627.227 2.32526 625.165 4.38672 624.507 6.49204C623.718 8.90439 623.455 25.0013 624.156 28.247C624.814 31.405 627.095 33.9928 629.551 34.4753L631.13 34.7384V83.8187V132.855L629.463 133.294C628.542 133.557 627.183 134.434 626.393 135.224C624.156 137.504 623.674 140.092 623.674 149.698C623.674 160.795 624.332 163.163 627.972 165.444C629.595 166.453 629.639 166.453 645.604 166.453C661.57 166.453 661.613 166.453 663.236 165.444C665.342 164.128 666.394 162.593 667.008 160.005C667.403 158.558 667.535 147.066 667.579 120.092V82.2397L679.202 120.837C685.561 142.066 690.956 160.137 691.22 161.014C691.439 161.847 692.36 163.295 693.237 164.172C695.386 166.277 697.93 166.847 704.685 166.584C710.387 166.409 712.01 165.795 713.852 163.295C714.378 162.593 719.773 145.268 726.791 121.89L738.809 81.6695L739.028 121.451L739.247 161.189L740.256 162.812C740.826 163.689 742.01 164.874 742.888 165.444C744.467 166.453 744.73 166.453 759.555 166.584C771.924 166.716 774.994 166.628 776.836 166.058C778.634 165.531 779.292 165.531 779.994 165.926C780.652 166.321 785.257 166.453 796.486 166.453C812.012 166.453 812.056 166.453 813.679 165.444C814.6 164.874 815.697 163.865 816.179 163.207C816.749 162.417 818.109 156.979 820.39 146.233C822.232 137.592 823.811 130.136 823.942 129.697C824.162 128.995 825.258 128.952 838.592 128.952H853.022L853.461 130.574C853.68 131.495 855.303 138.864 857.057 146.934C860.479 162.9 860.917 164.128 863.9 165.619C865.435 166.409 866.707 166.453 880.041 166.453C888.023 166.453 895.041 166.321 895.699 166.102C896.357 165.926 897.585 165.181 898.462 164.435C900.787 162.374 901.313 160.005 901.313 151.189V143.777L903.725 146.803C907.629 151.715 918.945 161.233 923.638 163.602C924.691 164.128 927.454 165.049 929.735 165.619L933.902 166.672H963.025C982.806 166.672 992.763 166.496 994.079 166.189C996.579 165.575 998.903 163.251 999.517 160.751C999.868 159.391 1000 145.531 1000 115.223C1000 67.6779 1000.04 68.8183 997.5 66.1428C995.175 63.6866 994.123 63.5989 969.736 63.5989C945.042 63.5989 944.384 63.6427 941.753 66.3621C940.963 67.1516 940.13 68.5113 939.911 69.3446C939.384 71.2307 939.34 89.082 939.911 91.4067C940.13 92.4155 940.919 93.7751 941.753 94.6085C943.946 96.8015 946.665 97.3717 955.174 97.3717H962.28V115.179V133.031L951.183 132.811C941.358 132.636 939.911 132.548 938.375 131.759C935.174 130.224 935.305 132.46 935.305 83.5556C935.305 37.2824 935.305 37.0631 937.411 35.8788C938.112 35.4841 941.446 35.2648 948.99 35.177L959.604 35.0016L959.823 36.0543C959.955 36.6244 960.481 40.221 960.964 44.0808C962.587 56.625 962.981 57.9408 965.876 60.09C967.324 61.1865 967.367 61.1865 978.377 61.3181C985.263 61.4058 990.044 61.2742 991.14 61.0111C993.64 60.3093 995.877 57.6777 996.316 55.0021C996.667 52.5459 994.079 11.4483 993.289 7.89559C992.675 4.91305 990.57 2.41298 988.114 1.75507C986.973 1.44804 976.973 1.31646 958.201 1.40418C930.437 1.57963 929.998 1.57963 926.796 2.54456C920.305 4.56216 916.313 7.36926 906.971 16.6239C899.909 23.6416 898.813 25.2645 897.629 30.7032C896.971 33.6858 896.927 38.8175 897.015 83.3363C897.102 110.486 897.322 132.987 897.497 133.425C897.848 134.083 897.716 134.083 896.181 133.557C895.26 133.206 893.857 132.943 893.111 132.899C892.322 132.899 891.664 132.767 891.664 132.548C891.664 132.373 885.085 103.775 877.014 68.9499C861.049 0.00063467 862.058 3.72881 858.461 1.93051C856.926 1.14102 855.478 1.09716 839.25 1.00943C829.25 0.965573 820.916 1.14102 819.863 1.36032ZM854.952 9.07983C855.084 9.29914 861.838 38.1596 869.953 73.2483C878.067 108.337 884.909 137.899 885.172 138.908L885.611 140.794H889.514H893.418V149.785V158.777H880.523H867.672L865.347 148.119C864.075 142.285 862.233 133.732 861.224 129.171L859.382 120.837L838.68 120.706C822.32 120.618 817.89 120.706 817.758 121.144C817.627 121.451 815.872 129.697 813.811 139.478C811.749 149.259 809.951 157.593 809.819 157.987C809.6 158.733 808.591 158.777 796.222 158.777H782.889V149.785V140.794H787.275C789.687 140.794 791.661 140.706 791.661 140.575C791.661 140.268 821.442 10.5272 821.749 9.51844C821.969 8.81667 823.153 8.77281 838.373 8.77281C847.408 8.77281 854.864 8.90439 854.952 9.07983ZM689.421 59.9584C701.702 105.354 703.895 113.03 703.939 111.714C703.939 111.363 730.563 14.6502 731.659 10.8343L732.142 9.21141H753.37H774.555V18.2029V27.1944H770.827H767.099V83.9942V140.794H770.827H774.555V149.785V158.777H760.739H746.923L746.835 93.2049L746.704 27.6768L728.107 89.8277C717.843 123.995 709.027 153.514 708.457 155.356L707.404 158.777H703.15H698.851L679.377 93.7751C668.675 57.9847 659.771 28.4225 659.596 28.0716C659.377 27.7207 659.201 56.9759 659.201 93.0734V158.777H645.604H632.007V149.785V140.794H635.516H639.025V83.9942V27.1944H635.516H632.007V18.2029V9.21141H653.85H675.649L689.421 59.9584ZM985.701 10.615C985.833 11.4045 986.447 20.045 987.061 29.826C987.675 39.607 988.289 48.9055 988.465 50.5283L988.728 53.5109H979.429C974.341 53.5109 970.175 53.3793 970.175 53.16C970.175 51.2301 967.324 31.7998 966.841 30.4401C965.788 27.4575 965.613 27.4137 950.7 27.4137C938.946 27.4137 937.235 27.5014 935.174 28.247C930.612 29.826 928.726 32.6331 927.673 39.3438C927.366 41.493 927.191 55.5723 927.191 83.4678C927.191 117.592 927.279 125.092 927.849 128.162C929.121 135.618 931.007 138.031 937.06 139.829C938.77 140.355 942.63 140.531 954.736 140.662L970.175 140.882V114.96V89.0382H958.771H947.367V80.266V71.4938L969.648 71.5815L991.886 71.7131L992.017 115.267L992.105 158.821L962.192 158.689L932.235 158.558L929.735 157.549C926.226 156.145 922.893 153.821 917.059 148.733C908.769 141.496 906.094 137.504 905.261 130.925C904.953 128.601 904.822 111.363 904.91 79.8274L905.041 32.2384L906.094 29.9576C906.839 28.247 908.55 26.2733 912.892 22.0626C922.015 13.115 925.744 10.615 931.138 9.69388C932.454 9.47458 945.218 9.29914 959.516 9.25527L985.482 9.21141L985.701 10.615Z" fill="#F1A037" fill-opacity="0.63"/>
<path d="M837.54 24.564C837.364 25.3974 833.504 43.6435 828.987 65.1353L820.785 104.171L829.469 104.303C834.25 104.347 842.057 104.347 846.838 104.303L855.522 104.171L846.882 64.2581C842.189 42.2838 838.197 24.0377 838.066 23.6868C837.934 23.292 837.715 23.6429 837.54 24.564ZM842.057 79.0392C844.031 88.1184 845.61 95.794 845.61 96.0133C845.61 96.3204 843.066 96.4958 838.154 96.4958C832.496 96.4958 830.697 96.3642 830.697 95.9256C830.697 95.6625 832.32 87.6359 834.294 78.162C836.575 67.3722 838.022 61.1878 838.241 61.7142C838.417 62.1528 840.127 69.96 842.057 79.0392Z" fill="#F1A037" fill-opacity="0.63"/>
</svg>
