<svg width="2280" height="383" viewBox="0 0 2280 383" fill="none" xmlns="http://www.w3.org/2000/svg">
<path d="M7.43742 4.40009C5.03742 6.80009 2.53742 10.5001 1.83742 12.6001C0.0374151 18.0001 -0.762585 105.6 0.937415 115.2C2.23742 122.9 5.73742 128.2 11.8374 132L15.8374 134.5V191.5V248.5L11.8374 251C5.73742 254.8 2.23742 260.1 0.937415 267.8C-0.662585 277.3 0.0374151 365 1.73742 370.3C2.43742 372.3 4.73742 375.8 6.83742 378L10.6374 382H236.637C461.737 382 462.637 382 465.237 380C468.737 377.3 471.437 372.5 472.837 366.7C473.737 363.1 479.937 319.7 479.937 317.3C479.937 317.1 480.637 317 481.437 317C482.237 317 482.937 317.3 482.937 317.7C482.937 321.1 488.137 362.6 489.037 366.5C489.637 369.2 491.237 373.2 492.637 375.2C497.637 382.6 483.237 382 650.537 382H801.237L805.437 377.6C811.337 371.5 812.137 367.3 812.137 345.5L812.037 327.5L817.737 349.5C821.037 362.1 824.437 373.1 825.737 375.2C830.337 382.6 820.937 382 939.537 382H1046.34L1050.54 377.5C1053.64 374.1 1054.84 371.8 1055.44 368.5C1056.24 362.9 1057.54 362.7 1058.44 368C1059.14 372.3 1063.74 379.3 1066.84 381C1068.24 381.7 1109.14 381.9 1201.24 381.8L1333.54 381.5L1341.04 377.8C1351.94 372.3 1360.44 365.4 1379.84 346.5C1397.24 329.4 1406.94 317.9 1411.54 308.9C1412.84 306.2 1415.04 299.4 1416.44 293.8L1418.94 283.5V194C1418.94 108.4 1418.84 104.1 1416.94 95.0001C1413.94 80.9001 1412.34 76.9001 1405.74 66.7001C1395.54 51.2001 1359.64 16.8001 1343.54 7.10007C1331.64 6.77109e-05 1343.54 0.500073 1199.64 0.200073C1081.14 7.32541e-05 1069.74 0.100067 1067.44 1.60007C1065.14 3.10007 1064.74 3.10007 1062.44 1.60007C1060.24 0.200067 1052.84 6.10352e-05 990.437 6.10352e-05H920.937L917.637 2.20007C910.137 7.10007 906.537 17.8001 907.337 32.4001L907.837 41.5001L904.037 26.5001C900.037 10.6001 897.737 5.70007 892.237 2.20007L888.937 6.10352e-05H772.437H655.837L651.437 4.40009C649.037 6.80009 646.537 10.5001 645.837 12.6001C644.037 18.0001 643.237 105.6 644.937 115.2C646.237 122.9 649.737 128.2 655.837 132L659.837 134.5L659.937 191.7V249H657.237C655.637 249 653.937 248.6 653.337 248.2C652.737 247.8 643.737 197.3 633.537 136C623.237 74.7001 614.037 21.2001 613.137 17.1001C611.737 10.7001 611.037 9.20009 606.837 4.90009L602.037 6.10352e-05H482.837H363.637L359.237 4.70007C356.737 7.40007 354.337 10.5001 353.937 11.7001C352.837 14.3001 350.237 26.7001 349.037 35.2001C348.437 38.7001 347.537 44.2001 346.937 47.5001C346.337 50.8001 345.437 56.0001 344.937 59.0001C344.437 62.0001 343.337 68.4001 342.537 73.1001C341.637 77.8001 339.637 89.8001 337.937 99.6001C336.237 109.4 333.737 124 332.337 132C327.537 160 323.837 181.6 322.937 187C320.737 200.4 319.837 205.4 319.337 206.2C319.037 206.7 317.637 206.2 316.137 205.2C314.637 204.1 311.137 202.5 308.337 201.6C303.837 200.1 297.537 200 250.337 200.3C221.237 200.4 196.437 200.9 195.237 201.4L192.937 202.2V168.2V134.3L196.837 131.7C202.037 128.3 205.937 123 207.237 117.7C207.837 115.2 208.437 94.9001 208.637 68.5001C209.137 14.2001 209.037 13.7001 200.237 4.00006L196.537 6.10352e-05H104.237H11.8374L7.43742 4.40009ZM184.737 66.7001L184.437 111.5L176.737 111.8L168.937 112.1V192.2V272.2L179.237 271.8C194.237 271.3 195.137 270.5 197.837 254.5C198.437 251.2 199.837 243 201.037 236.2L203.137 224H252.037H300.937V229.2C300.937 232.1 300.537 241.5 299.937 250C298.537 272.4 297.137 299.2 295.937 325C295.337 337.4 294.637 350.8 294.337 354.7L293.737 362H159.337H24.9374V317V272H32.9374H40.9374V192V112.1L33.2374 111.8L25.4374 111.5L25.1374 66.7001L24.9374 22.0001H104.937H184.937L184.737 66.7001ZM590.337 24.2001C590.637 25.5001 591.337 29.6001 591.937 33.5001C593.537 43.9001 593.737 45.0001 597.037 64.0001C600.737 85.6001 601.737 91.7001 602.937 100C603.437 103.6 604.437 109.9 605.237 114C606.037 118.1 607.237 124.6 607.837 128.5C608.537 132.3 609.437 138.1 609.937 141.2C610.537 144.4 611.437 149.7 611.937 153C612.537 156.3 613.437 161.7 613.937 165C616.537 180.7 617.037 183.8 617.937 188.5C618.737 193.4 620.237 202.1 622.037 213.2C624.237 226.8 626.737 241.4 627.937 248C628.437 250.5 629.337 256.3 630.037 260.9C630.737 265.5 631.937 269.9 632.737 270.6C633.637 271.5 636.437 272 641.037 272H647.937V317V362H580.037H512.237L511.537 357.4C511.237 354.8 510.937 350.8 510.937 348.4C510.937 346 510.537 341.9 510.037 339.3C509.537 336.7 508.537 329.3 507.937 323C507.237 316.7 506.137 307.4 505.537 302.5L504.337 293.5L481.737 293.2L459.137 293L458.137 299.7C457.537 303.5 456.537 310.3 455.937 315C454.837 323.1 454.137 328.5 452.037 343.8C451.437 347.5 450.737 353.1 450.437 356.2L449.837 362H383.337H316.937V317V272H324.837H332.637L333.237 267.8C333.937 262.8 335.337 254 336.937 245.5C337.537 242.2 338.437 237 338.937 234C339.437 231 340.737 223.1 341.937 216.5C343.137 209.9 344.437 202 344.937 199C345.437 196 346.337 191 346.937 188C347.537 185 348.437 179.6 349.037 176C350.437 166.9 351.537 160.4 353.937 146.5C355.137 139.9 356.437 132 356.937 129C357.437 126 358.337 120.9 358.937 117.7C359.437 114.6 360.437 109.4 360.937 106.2C361.537 103.1 362.437 98.0001 362.937 95.0001C364.837 83.5001 365.937 76.8001 366.837 71.2001C367.337 68.1001 368.737 60.3001 369.837 54.0001C371.037 47.7001 372.237 40.7001 372.537 38.5001C373.137 34.2001 374.837 25.3001 375.437 23.2001C375.837 22.3001 398.137 22.0001 482.837 22.0001H589.937L590.337 24.2001ZM883.637 44.5001C886.637 56.6001 889.837 69.9001 890.937 74.0001C892.037 78.1001 893.837 85.5001 894.937 90.5001C896.137 95.4001 899.337 108.7 902.037 120C904.837 131.3 909.237 149.7 912.037 161C921.837 201.4 923.137 206.7 927.237 223.3C929.537 232.6 931.937 240.1 932.437 240.1C933.137 240 933.337 203.2 933.037 131L932.637 22.0001H990.837H1048.94L1048.74 66.7001L1048.44 111.5L1040.74 111.8L1032.94 112.1V237V362L939.237 361.8L845.637 361.5L816.637 246.5C800.737 183.2 787.337 129.5 786.837 127C785.837 122 784.437 120.1 782.937 121.6C782.037 122.5 782.837 168 784.937 242.5C785.437 259.5 786.137 293.4 786.537 317.8L787.237 362H728.037H668.937V317V272H676.937H684.937V192V112.1L677.237 111.8L669.437 111.5L669.137 66.7001L668.937 22.0001L773.637 22.2001L878.337 22.5001L883.637 44.5001ZM1325.04 25.3001C1335.34 29.8001 1342.44 35.5001 1362.34 55.0001C1385.24 77.4001 1391.04 85.8001 1393.54 99.9001C1395.54 111.2 1395.54 280.2 1393.54 287.5C1390.04 300 1385.04 306.9 1364.74 327.1C1347.14 344.5 1336.74 353.1 1328.94 356.7C1317.64 361.9 1314.54 362 1193.34 361.8L1081.44 361.5L1081.14 316.8L1080.94 272.1L1089.14 271.8L1097.44 271.5V192V112.5L1089.44 112L1081.44 111.5L1081.14 66.7001L1080.94 22.0001H1199.14H1317.44L1325.04 25.3001ZM1069.34 132.2L1072.84 134.5V191.5V248.5L1068.84 251C1063.44 254.3 1059.84 259.3 1058.34 265.4C1057.34 269.6 1057.14 258.6 1057.04 202.5L1056.94 134.5L1060.74 132.3C1065.34 129.5 1065.14 129.5 1069.34 132.2Z" fill="#F1A037" fill-opacity="0.63"/>
<path d="M480.637 108.7C480.037 115.2 479.237 121.5 476.937 140C476.337 144.7 475.437 152.1 474.937 156.5C474.437 160.9 473.537 168.1 472.937 172.5C471.737 180.7 470.537 191.2 469.337 203.2L468.637 210H481.737C488.937 210 495.037 209.7 495.237 209.2C495.737 208.5 495.137 201.4 492.937 182C492.337 176.8 491.437 168.2 490.937 163C490.337 157.8 489.537 149.7 488.937 145C486.737 126 485.837 117.1 485.237 109.7C484.737 103.3 484.337 102 482.937 102C481.537 102 481.137 103.3 480.637 108.7Z" fill="#F1A037" fill-opacity="0.63"/>
<path d="M1224.94 192.9V272H1236.14C1249.04 272 1257.64 270 1261.34 266.3C1265.84 261.9 1266.04 257.5 1265.74 189.9L1265.44 126.5L1263.04 122.6C1259.14 116.4 1254.04 114.6 1238.24 114.2L1224.94 113.8V192.9Z" fill="#F1A037" fill-opacity="0.63"/>
<path d="M1869.24 3.09999C1866.64 3.69999 1863.74 5.49999 1861.24 7.89999L1857.44 11.7L1823.94 157.4L1790.54 303H1786.44C1784.24 303.1 1780.84 303.6 1778.94 304.3C1776.24 305.3 1774.64 305.3 1771.94 304.4L1768.44 303.2L1768.14 191.1C1767.94 88.4 1768.04 79 1769.54 79C1772.84 79 1778.74 74.7 1781.04 70.6C1783.34 66.7 1783.44 65.5 1783.74 44.5C1784.04 30.4 1783.74 20.7 1782.94 17.4C1781.54 11 1776.64 5.49999 1770.94 3.99999C1768.24 3.29999 1749.74 2.99999 1714.64 3.19999L1662.44 3.49999L1658.74 6.29999C1656.74 7.89999 1654.14 11 1653.14 13.3C1652.04 15.6 1640.74 55.8 1627.84 102.7C1605.04 185.8 1604.44 187.7 1603.24 183.7C1602.64 181.4 1591.84 141.8 1579.34 95.8C1557.54 15.3 1556.54 11.9 1553.34 8.49999C1551.44 6.59999 1548.24 4.59999 1546.14 4.09999C1541.14 2.59999 1439.84 2.59999 1434.74 3.99999C1430.04 5.29999 1425.34 9.99999 1423.84 14.8C1422.04 20.3 1421.44 57 1423.04 64.4C1424.54 71.6 1429.74 77.5 1435.34 78.6L1438.94 79.2V191.1V302.9L1435.14 303.9C1433.04 304.5 1429.94 306.5 1428.14 308.3C1423.04 313.5 1421.94 319.4 1421.94 341.3C1421.94 366.6 1423.44 372 1431.74 377.2C1435.44 379.5 1435.54 379.5 1471.94 379.5C1508.34 379.5 1508.44 379.5 1512.14 377.2C1516.94 374.2 1519.34 370.7 1520.74 364.8C1521.64 361.5 1521.94 335.3 1522.04 273.8V187.5L1548.54 275.5C1563.04 323.9 1575.34 365.1 1575.94 367.1C1576.44 369 1578.54 372.3 1580.54 374.3C1585.44 379.1 1591.24 380.4 1606.64 379.8C1619.64 379.4 1623.34 378 1627.54 372.3C1628.74 370.7 1641.04 331.2 1657.04 277.9L1684.44 186.2L1684.94 276.9L1685.44 367.5L1687.74 371.2C1689.04 373.2 1691.74 375.9 1693.74 377.2C1697.34 379.5 1697.94 379.5 1731.74 379.8C1759.94 380.1 1766.94 379.9 1771.14 378.6C1775.24 377.4 1776.74 377.4 1778.34 378.3C1779.84 379.2 1790.34 379.5 1815.94 379.5C1851.34 379.5 1851.44 379.5 1855.14 377.2C1857.24 375.9 1859.74 373.6 1860.84 372.1C1862.14 370.3 1865.24 357.9 1870.44 333.4C1874.64 313.7 1878.24 296.7 1878.54 295.7C1879.04 294.1 1881.54 294 1911.94 294H1944.84L1945.84 297.7C1946.34 299.8 1950.04 316.6 1954.04 335C1961.84 371.4 1962.84 374.2 1969.64 377.6C1973.14 379.4 1976.04 379.5 2006.44 379.5C2024.64 379.5 2040.64 379.2 2042.14 378.7C2043.64 378.3 2046.44 376.6 2048.44 374.9C2053.74 370.2 2054.94 364.8 2054.94 344.7V327.8L2060.44 334.7C2069.34 345.9 2095.14 367.6 2105.84 373C2108.24 374.2 2114.54 376.3 2119.74 377.6L2129.24 380H2195.64C2240.74 380 2263.44 379.6 2266.44 378.9C2272.14 377.5 2277.44 372.2 2278.84 366.5C2279.64 363.4 2279.94 331.8 2279.94 262.7C2279.94 154.3 2280.04 156.9 2274.24 150.8C2268.94 145.2 2266.54 145 2210.94 145C2154.64 145 2153.14 145.1 2147.14 151.3C2145.34 153.1 2143.44 156.2 2142.94 158.1C2141.74 162.4 2141.64 203.1 2142.94 208.4C2143.44 210.7 2145.24 213.8 2147.14 215.7C2152.14 220.7 2158.34 222 2177.74 222H2193.94V262.6V303.3L2168.64 302.8C2146.24 302.4 2142.94 302.2 2139.44 300.4C2132.14 296.9 2132.44 302 2132.44 190.5C2132.44 85 2132.44 84.5 2137.24 81.8C2138.84 80.9 2146.44 80.4 2163.64 80.2L2187.84 79.8L2188.34 82.2C2188.64 83.5 2189.84 91.7 2190.94 100.5C2194.64 129.1 2195.54 132.1 2202.14 137C2205.44 139.5 2205.54 139.5 2230.64 139.8C2246.34 140 2257.24 139.7 2259.74 139.1C2265.44 137.5 2270.54 131.5 2271.54 125.4C2272.34 119.8 2266.44 26.1 2264.64 18C2263.24 11.2 2258.44 5.49999 2252.84 3.99999C2250.24 3.29999 2227.44 2.99999 2184.64 3.19999C2121.34 3.59999 2120.34 3.59999 2113.04 5.79999C2098.24 10.4 2089.14 16.8 2067.84 37.9C2051.74 53.9 2049.24 57.6 2046.54 70C2045.04 76.8 2044.94 88.5 2045.14 190C2045.34 251.9 2045.84 303.2 2046.24 304.2C2047.04 305.7 2046.74 305.7 2043.24 304.5C2041.14 303.7 2037.94 303.1 2036.24 303C2034.44 303 2032.94 302.7 2032.94 302.2C2032.94 301.8 2017.94 236.6 1999.54 157.2C1963.14 -5.66244e-06 1965.44 8.49999 1957.24 4.39999C1953.74 2.59999 1950.44 2.49999 1913.44 2.29999C1890.64 2.19999 1871.64 2.59999 1869.24 3.09999ZM1949.24 20.7C1949.54 21.2 1964.94 87 1983.44 167C2001.94 247 2017.54 314.4 2018.14 316.7L2019.14 321H2028.04H2036.94V341.5V362H2007.54H1978.24L1972.94 337.7C1970.04 324.4 1965.84 304.9 1963.54 294.5L1959.34 275.5L1912.14 275.2C1874.84 275 1864.74 275.2 1864.44 276.2C1864.14 276.9 1860.14 295.7 1855.44 318C1850.74 340.3 1846.64 359.3 1846.34 360.2C1845.84 361.9 1843.54 362 1815.34 362H1784.94V341.5V321H1794.94C1800.44 321 1804.94 320.8 1804.94 320.5C1804.94 319.8 1872.84 24 1873.54 21.7C1874.04 20.1 1876.74 20 1911.44 20C1932.04 20 1949.04 20.3 1949.24 20.7ZM1571.84 136.7C1599.84 240.2 1604.84 257.7 1604.94 254.7C1604.94 253.9 1665.64 33.4 1668.14 24.7L1669.24 21H1717.64H1765.94V41.5V62H1757.44H1748.94V191.5V321H1757.44H1765.94V341.5V362H1734.44H1702.94L1702.74 212.5L1702.44 63.1L1660.04 204.8C1636.64 282.7 1616.54 350 1615.24 354.2L1612.84 362H1603.14H1593.34L1548.94 213.8C1524.54 132.2 1504.24 64.8 1503.84 64C1503.34 63.2 1502.94 129.9 1502.94 212.2V362H1471.94H1440.94V341.5V321H1448.94H1456.94V191.5V62H1448.94H1440.94V41.5V21H1490.74H1540.44L1571.84 136.7ZM2247.34 24.2C2247.64 26 2249.04 45.7 2250.44 68C2251.84 90.3 2253.24 111.5 2253.64 115.2L2254.24 122H2233.04C2221.44 122 2211.94 121.7 2211.94 121.2C2211.94 116.8 2205.44 72.5 2204.34 69.4C2201.94 62.6 2201.54 62.5 2167.54 62.5C2140.74 62.5 2136.84 62.7 2132.14 64.4C2121.74 68 2117.44 74.4 2115.04 89.7C2114.34 94.6 2113.94 126.7 2113.94 190.3C2113.94 268.1 2114.14 285.2 2115.44 292.2C2118.34 309.2 2122.64 314.7 2136.44 318.8C2140.34 320 2149.14 320.4 2176.74 320.7L2211.94 321.2V262.1V203H2185.94H2159.94V183V163L2210.74 163.2L2261.44 163.5L2261.74 262.8L2261.94 362.1L2193.74 361.8L2125.44 361.5L2119.74 359.2C2111.74 356 2104.14 350.7 2090.84 339.1C2071.94 322.6 2065.84 313.5 2063.94 298.5C2063.24 293.2 2062.94 253.9 2063.14 182L2063.44 73.5L2065.84 68.3C2067.54 64.4 2071.44 59.9 2081.34 50.3C2102.14 29.9 2110.64 24.2 2122.94 22.1C2125.94 21.6 2155.04 21.2 2187.64 21.1L2246.84 21L2247.34 24.2Z" fill="#F1A037" fill-opacity="0.63"/>
<path d="M1909.54 56C1909.14 57.9 1900.34 99.5 1890.04 148.5L1871.34 237.5L1891.14 237.8C1902.04 237.9 1919.84 237.9 1930.74 237.8L1950.54 237.5L1930.84 146.5C1920.14 96.4 1911.04 54.8 1910.74 54C1910.44 53.1 1909.94 53.9 1909.54 56ZM1919.84 180.2C1924.34 200.9 1927.94 218.4 1927.94 218.9C1927.94 219.6 1922.14 220 1910.94 220C1898.04 220 1893.94 219.7 1893.94 218.7C1893.94 218.1 1897.64 199.8 1902.14 178.2C1907.34 153.6 1910.64 139.5 1911.14 140.7C1911.54 141.7 1915.44 159.5 1919.84 180.2Z" fill="#F1A037" fill-opacity="0.63"/>
</svg>
