<svg width="1000" height="151" viewBox="0 0 1000 151" fill="none" xmlns="http://www.w3.org/2000/svg">
<path d="M0 13.4077V26.4353L20.4184 26.9364C37.3293 27.1869 41.2126 27.688 43.9684 29.567C48.3527 32.5734 50.1065 36.8324 50.1065 44.9747C50.1065 50.9875 49.6054 52.4907 46.599 55.4971C42.0894 59.8814 35.7008 61.7604 24.5522 61.7604C17.2867 61.7604 16.1593 62.0109 16.7857 63.7646C17.1615 64.892 25.0532 77.7945 34.0724 92.5759L50.7328 119.383H66.8921C79.544 119.383 82.8009 119.007 82.2999 117.754C81.9241 116.877 75.786 106.981 68.3953 95.8328L55.1171 75.5397L60.7541 72.9091C73.6565 66.8963 79.544 54.8708 78.6671 36.8324C78.0408 24.8069 75.6607 18.6688 68.6458 11.7792C60.0025 3.01057 48.478 0.505251 18.5394 0.379984H0V13.4077Z" fill="#F1A037" fill-opacity="0.45"/>
<path d="M135.413 2.38821C123.888 4.76827 114.994 9.52838 105.85 18.1717C74.5334 47.3587 85.5568 99.9705 126.268 115.754C135.914 119.512 156.332 119.888 166.604 116.38C192.409 107.737 208.067 86.6923 208.192 60.5117C208.318 31.4499 188.15 6.89779 159.84 1.76188C150.445 0.00815295 145.434 0.133419 135.413 2.38821ZM162.846 29.6962C180.007 38.0891 184.141 66.3992 170.738 83.8112C160.341 97.4652 134.912 96.4631 124.765 82.1827C119.379 74.4162 118.001 70.0319 117.875 59.6348C117.625 34.2058 140.799 18.7981 162.846 29.6962Z" fill="#F1A037" fill-opacity="0.45"/>
<path d="M216.961 42.596C217.337 83.1822 217.462 85.1865 220.218 92.0761C224.227 102.097 232.369 110.616 242.014 115.125C249.155 118.382 251.159 118.758 263.059 118.758C274.458 118.633 277.089 118.257 283.102 115.501C298.259 108.486 304.898 98.59 307.028 79.8C307.654 73.662 308.03 53.3689 307.904 34.8295L307.529 1.00766H288.112H268.696V13.5343V26.0609L272.83 26.4367L276.838 26.8125V54.371C276.838 84.6854 276.212 87.5665 269.322 91.1993C261.556 95.2078 253.789 92.8277 249.656 85.1865C247.777 81.8043 247.401 76.9189 247.025 53.87L246.524 26.6872H251.034H255.543V13.5343V0.381329H236.002H216.585L216.961 42.596Z" fill="#F1A037" fill-opacity="0.45"/>
<path d="M369.535 1.63266C320.556 7.52017 299.887 64.8921 333.834 100.468C347.488 114.748 360.891 119.383 389.702 119.383H407.991L429.161 87.0642C440.686 69.4016 450.707 54.1192 451.333 53.2423C452.336 52.1149 444.068 51.7391 411.374 51.7391H370.161L382.061 63.6394C392.834 74.4123 394.337 75.5397 398.596 75.5397C404.233 75.5397 404.609 77.0429 400.601 83.0556C393.46 93.578 376.174 96.8349 363.522 89.9453C351.622 83.4314 346.235 72.9091 347.237 57.6266C347.864 47.3548 350.87 40.7157 357.259 34.5776C364.775 27.3122 367.906 26.6859 396.717 26.6859H422.773L435.049 14.4098C441.688 7.7707 447.2 1.75793 447.2 1.25686C447.2 0.129466 380.057 0.379999 369.535 1.63266Z" fill="#F1A037" fill-opacity="0.45"/>
<path d="M462.232 59.8814V119.383H477.264H492.296V94.9559V70.529H506.701H521.107V94.9559V119.383H534.886H548.666V59.8814V0.254733L529.625 0.630531L510.459 1.00633L510.084 13.7835L509.708 26.5606L515.094 26.9364L520.481 27.3122L520.856 35.705L521.232 44.2231H506.827H492.296L492.045 22.5521L491.669 1.00633L477.013 0.630531L462.232 0.254733V59.8814Z" fill="#F1A037" fill-opacity="0.45"/>
<path d="M729.049 13.2806V26.6841H749.467C771.89 26.6841 773.644 27.1852 777.402 34.4506C780.158 39.837 780.158 49.3573 777.402 53.6163C773.894 58.8775 766.253 61.7586 755.104 61.7586C749.718 61.7586 745.334 62.0091 745.334 62.3849C745.334 62.7607 748.34 68.0219 752.098 74.0347L758.862 84.9329L755.731 87.0624C753.977 88.1898 751.221 90.5698 749.843 92.4488L747.087 95.831L716.272 49.1067L685.456 2.2572L670.299 1.8814L655.142 1.50561V52.8647V104.099L651.259 111.364C647.751 118.003 647.501 119.632 647.877 127.398C648.252 134.538 648.879 136.417 651.259 138.296C657.021 142.931 666.792 140.676 673.18 133.16C676.187 129.402 677.69 123.139 675.435 123.139C674.934 123.139 672.554 125.018 670.299 127.398C664.788 133.035 659.652 135.29 657.021 133.16C654.14 130.78 654.766 129.152 660.528 123.39L665.915 118.128H675.56H685.206L685.456 79.7969L685.832 41.5908L701.24 68.0219C715.395 92.1983 716.522 94.7036 714.769 96.5826C710.885 100.967 707.754 109.986 707.754 117.126C707.754 126.646 711.387 131.281 718.777 131.156C724.79 130.906 731.179 127.273 734.686 122.012C737.818 117.126 739.947 117.126 744.081 122.137C748.215 127.022 751.847 126.396 759.113 119.882L764.124 115.373V128.525C764.124 142.179 765 144.184 769.761 142.43C771.264 141.804 771.389 139.173 770.763 126.396C770.387 117.001 770.512 110.111 771.264 108.859C772.391 106.854 772.892 107.355 775.899 112.366C779.657 118.88 779.03 118.755 797.945 118.128C808.844 117.878 814.23 116.5 814.23 113.995C814.23 113.494 812.977 111.239 811.474 109.234C809.094 105.978 808.593 103.598 808.343 94.7036C808.343 88.9414 807.841 83.8055 807.34 83.3044C805.587 81.4254 802.33 85.5592 801.077 91.3214C800.451 94.7036 799.323 97.4595 798.822 97.4595C798.321 97.4595 794.563 92.3236 790.429 86.1855L782.913 74.9116L788.175 72.6568C798.697 68.1472 804.71 59.6291 806.839 46.2256C809.47 30.5673 803.457 15.1596 792.183 7.89418C784.166 2.88353 776.901 1.63087 751.346 0.754009L729.049 0.00241256V13.2806ZM764.124 94.3278C764.875 95.7057 765.126 98.3363 764.625 100.215C763.748 104.224 759.363 111.865 758.111 111.865C757.234 111.865 751.597 102.595 751.597 101.343C751.597 99.8395 759.489 91.8225 761.117 91.8225C761.994 91.8225 763.372 92.9499 764.124 94.3278ZM721.533 103.598C721.533 104.474 719.779 106.729 717.65 108.859L713.892 112.491L715.145 108.984C717.525 102.971 719.153 100.466 720.406 101.217C721.032 101.719 721.533 102.721 721.533 103.598ZM728.297 114.621C730.678 118.504 730.678 118.504 727.796 120.884C722.285 125.269 715.27 125.394 715.27 121.009C715.27 119.131 723.287 110.738 725.291 110.612C725.667 110.612 727.045 112.366 728.297 114.621Z" fill="#F1A037" fill-opacity="0.63"/>
<path d="M821.746 13.5302V26.6831H833.646H845.546V49.9826C845.546 70.0252 845.296 73.1568 843.667 72.5305C840.536 71.4031 837.654 75.4116 838.782 79.7959C839.283 81.9255 839.784 94.3268 839.909 107.229C840.16 131.03 840.786 134.287 844.795 132.784C846.298 132.157 846.799 130.153 846.799 125.017V118.127H863.71H880.621L880.746 96.4563C880.871 79.2949 881.122 76.1632 882.124 81.1739C882.75 84.5561 883.001 95.83 882.875 106.227L882.5 125.017H885.631C888.763 125.017 888.763 124.892 889.139 112.741C889.389 102.219 889.765 100.59 891.268 101.843C894.149 104.223 900.413 102.093 905.549 96.9574C912.188 90.3183 915.069 83.8045 915.069 75.1611C915.069 68.8978 914.568 67.3946 911.937 65.2651C909.808 63.5114 907.803 63.0103 905.173 63.5114C900.663 64.5135 893.899 70.6515 891.769 75.9127C890.391 79.2949 890.016 79.4201 889.264 77.2906C888.763 76.038 888.262 73.5326 888.262 71.7789C888.011 66.5177 886.132 64.6388 883.126 66.5177C880.621 68.0209 880.621 67.7704 880.621 47.352V26.6831H892.521H904.547L904.171 13.7807L903.795 1.00356L862.833 0.627764L821.746 0.377232V13.5302ZM907.929 76.4138C908.555 84.8066 901.29 95.5795 895.026 95.5795C892.396 95.5795 891.895 94.9531 891.895 92.072C892.02 84.8066 901.415 70.0252 905.549 70.7768C906.927 71.0273 907.678 72.781 907.929 76.4138Z" fill="#F1A037" fill-opacity="0.63"/>
<path d="M554.928 59.8813V118.13H561.943C570.963 118.13 570.461 120.385 560.816 123.767C554.302 126.022 552.047 128.277 554.678 129.905C555.304 130.281 558.561 129.78 561.943 128.903L568.207 127.274L567.706 131.408C567.205 135.166 566.703 135.667 563.447 135.667C558.812 135.667 554.928 137.672 554.928 140.177C554.928 141.805 556.056 142.056 560.565 141.68L566.202 141.304V145.939C566.202 148.57 566.703 150.699 567.455 150.699C569.084 150.699 571.213 146.44 571.213 143.183C571.213 141.555 572.34 140.177 574.47 139.425C579.23 137.546 579.731 137.797 580.232 142.181C580.483 144.937 581.36 146.44 582.863 146.691C584.617 147.067 584.992 146.19 584.992 141.555C584.992 136.419 585.243 135.793 588.876 134.54C591.13 133.788 594.513 133.162 596.392 133.162C600.275 133.162 601.653 131.784 600.525 128.903C599.523 126.398 596.642 126.398 590.755 128.778C586.871 130.406 586.245 130.406 586.245 128.903C586.245 124.268 588.75 120.886 592.759 120.009C600.275 118.506 601.277 118.005 601.277 115.499C601.277 112.744 600.024 112.618 593.385 114.497C590.629 115.249 588.375 115.625 588.124 115.374C587.873 115.124 588.124 112.493 588.75 109.487C589.878 103.098 589.126 100.217 586.746 101.094C585.368 101.595 584.992 99.7159 584.992 91.9494V82.1786L597.895 81.4271C618.689 80.2997 630.339 74.9132 637.604 63.3887C642.364 55.998 644.243 47.1041 643.617 36.206C642.489 20.0467 634.097 8.3969 620.317 4.13786C613.302 2.00833 608.542 1.63253 583.614 1.63253H554.928V59.8813ZM608.292 20.2972C618.063 24.6815 622.697 34.7028 620.067 45.6009C616.81 59.0044 606.914 66.7709 592.759 66.7709H584.992V42.344V17.9171H594.137C600.15 17.9171 604.784 18.6687 608.292 20.2972ZM581.861 127.149C580.733 132.16 581.109 131.784 576.349 133.162C572.591 134.164 572.466 134.164 572.466 130.03C572.466 126.272 572.967 125.521 576.6 124.519C582.612 122.765 582.738 122.765 581.861 127.149Z" fill="#F1A037" fill-opacity="0.63"/>
<path d="M940.123 5.26413C925.091 12.1538 918.201 21.5487 918.201 34.8269C918.201 43.7208 921.458 51.2368 927.847 56.7485L932.231 60.6318L929.726 63.3876C921.834 72.1562 920.331 87.8145 926.719 94.7041L929.224 97.46L920.581 107.732L911.812 118.129H939.246C971.439 118.129 976.199 117.127 985.845 108.483C998.998 96.7084 1001 75.9142 990.229 63.3876L985.97 58.377L987.097 47.8546C988.726 33.8248 988.726 32.0711 986.471 31.1942C982.713 29.8163 980.834 33.9501 980.834 43.5956C980.834 48.7315 980.458 53.1158 979.957 53.3663C978.204 54.3685 948.39 39.2113 947.012 36.8312C945.259 33.3237 947.889 26.9352 952.148 24.8056C954.528 23.553 959.539 22.9267 967.932 22.9267H980.333L987.223 15.6612C990.981 11.778 995.365 7.01786 997.119 5.0136L1000 1.63141H973.819C947.889 1.75668 947.639 1.75668 940.123 5.26413ZM939.496 66.1435C939.496 68.1477 930.728 78.5448 929.851 77.5427C929.6 77.2922 930.101 75.1626 931.103 72.7826C933.985 66.0182 939.496 61.6339 939.496 66.1435ZM956.658 79.1711C956.783 85.3092 957.409 87.6892 959.539 89.944C961.919 92.4494 961.919 92.8252 960.165 93.5767C957.535 94.5789 945.76 94.5789 945.76 93.5767C945.76 93.2009 947.138 91.1967 948.891 89.0672C951.898 85.4344 953.15 79.2964 950.896 79.2964C950.269 79.2964 948.515 80.7996 947.012 82.6786C941.125 90.1946 933.233 92.8252 930.728 88.1903C929.6 86.0608 930.227 85.0587 934.987 81.1754C937.993 78.6701 941.751 74.411 943.38 71.7804L946.386 67.1456L951.397 69.2751L956.407 71.4046L956.658 79.1711ZM967.556 79.6722C968.433 81.927 968.308 83.5555 967.431 84.4323C965.176 86.6871 963.297 84.5576 963.297 79.7975C963.297 74.5363 965.802 74.5363 967.556 79.6722Z" fill="#F1A037" fill-opacity="0.63"/>
<path d="M822.998 60.3774C821.37 63.6343 823.875 69.5218 826.631 69.0207C829.011 68.5197 832.268 62.2564 831.266 59.751C830.264 57.1205 824.627 57.6215 822.998 60.3774Z" fill="#F1A037" fill-opacity="0.63"/>
<path d="M821.997 80.1744C820.744 82.8049 820.869 107.357 822.247 111.616C822.999 113.62 824.001 114.372 825.88 114.121C828.135 113.871 828.636 112.994 828.385 109.361C828.26 106.981 828.009 99.0895 827.759 91.8241C827.383 80.6754 827.007 78.6712 825.254 78.2954C824.126 78.0448 822.623 78.9217 821.997 80.1744Z" fill="#F1A037" fill-opacity="0.63"/>
<path d="M613.178 88.5671C610.923 90.1955 610.672 92.3251 610.296 113.495L609.795 136.669L613.303 141.304C616.56 145.563 617.186 145.939 621.696 145.313C630.84 144.06 639.859 132.41 640.861 120.134C641.613 111.741 639.483 107.608 634.222 107.106C629.086 106.605 624.827 109.487 620.067 116.627C616.435 122.264 616.309 122.264 616.309 118.631C616.309 116.627 616.936 109.487 617.812 102.722C619.065 92.1998 619.065 90.3208 617.437 88.6923C615.808 87.0639 615.307 87.0639 613.178 88.5671ZM634.598 116.251C634.974 117.879 634.348 122.138 633.22 125.521C629.963 135.542 619.065 143.308 617.812 136.544C616.81 131.659 628.46 113.119 632.469 113.119C633.22 113.119 634.097 114.497 634.598 116.251Z" fill="#F1A037" fill-opacity="0.63"/>
</svg>
