<svg width="799" height="121" viewBox="0 0 799 121" fill="none" xmlns="http://www.w3.org/2000/svg">
<path d="M0 10.7008V21.1008L16.3 21.5008C29.8 21.7008 32.9 22.1008 35.1 23.6008C38.6 26.0008 40 29.4008 40 35.9008C40 40.7008 39.6 41.9008 37.2 44.3008C33.6 47.8008 28.5 49.3008 19.6 49.3008C13.8 49.3008 12.9 49.5008 13.4 50.9008C13.7 51.8008 20 62.1008 27.2 73.9008L40.5 95.3008H53.4C63.5 95.3008 66.1 95.0008 65.7 94.0008C65.4 93.3008 60.5 85.4008 54.6 76.5008L44 60.3008L48.5 58.2008C58.8 53.4008 63.5 43.8008 62.8 29.4008C62.3 19.8008 60.4 14.9008 54.8 9.40078C47.9 2.40078 38.7 0.40078 14.8 0.30078H0V10.7008Z" fill="#F1A037" fill-opacity="0.45"/>
<path d="M108.1 1.90061C98.9002 3.80061 91.8002 7.60061 84.5002 14.5006C59.5002 37.8006 68.3002 79.8006 100.8 92.4006C108.5 95.4006 124.8 95.7006 133 92.9006C153.6 86.0006 166.1 69.2006 166.2 48.3006C166.3 25.1006 150.2 5.50061 127.6 1.40061C120.1 0.000608938 116.1 0.100609 108.1 1.90061ZM130 23.7006C143.7 30.4006 147 53.0006 136.3 66.9006C128 77.8006 107.7 77.0006 99.6002 65.6006C95.3002 59.4006 94.2002 55.9006 94.1002 47.6006C93.9002 27.3006 112.4 15.0006 130 23.7006Z" fill="#F1A037" fill-opacity="0.45"/>
<path d="M173.2 34.0008C173.5 66.4008 173.6 68.0008 175.8 73.5008C179 81.5008 185.5 88.3008 193.2 91.9008C198.9 94.5008 200.5 94.8008 210 94.8008C219.1 94.7008 221.2 94.4008 226 92.2008C238.1 86.6008 243.4 78.7008 245.1 63.7008C245.6 58.8008 245.9 42.6008 245.8 27.8008L245.5 0.80078H230H214.5V10.8008V20.8008L217.8 21.1008L221 21.4008V43.4008C221 67.6008 220.5 69.9008 215 72.8008C208.8 76.0008 202.6 74.1008 199.3 68.0008C197.8 65.3008 197.5 61.4008 197.2 43.0008L196.8 21.3008H200.4H204V10.8008V0.30078H188.4H172.9L173.2 34.0008Z" fill="#F1A037" fill-opacity="0.45"/>
<path d="M295 1.30078C255.9 6.00078 239.4 51.8008 266.5 80.2008C277.4 91.6008 288.1 95.3008 311.1 95.3008H325.7L342.6 69.5008C351.8 55.4008 359.8 43.2008 360.3 42.5008C361.1 41.6008 354.5 41.3008 328.4 41.3008H295.5L305 50.8008C313.6 59.4008 314.8 60.3008 318.2 60.3008C322.7 60.3008 323 61.5008 319.8 66.3008C314.1 74.7008 300.3 77.3008 290.2 71.8008C280.7 66.6008 276.4 58.2008 277.2 46.0008C277.7 37.8008 280.1 32.5008 285.2 27.6008C291.2 21.8008 293.7 21.3008 316.7 21.3008H337.5L347.3 11.5008C352.6 6.20078 357 1.40078 357 1.00078C357 0.10078 303.4 0.30078 295 1.30078Z" fill="#F1A037" fill-opacity="0.45"/>
<path d="M369 47.8008V95.3008H381H393V75.8008V56.3008H404.5H416V75.8008V95.3008H427H438V47.8008V0.20078L422.8 0.50078L407.5 0.80078L407.2 11.0008L406.9 21.2008L411.2 21.5008L415.5 21.8008L415.8 28.5008L416.1 35.3008H404.6H393L392.8 18.0008L392.5 0.80078L380.8 0.50078L369 0.20078V47.8008Z" fill="#F1A037" fill-opacity="0.45"/>
<path d="M582 10.6027V21.3027H598.3C616.2 21.3027 617.6 21.7027 620.6 27.5027C622.8 31.8027 622.8 39.4027 620.6 42.8027C617.8 47.0027 611.7 49.3027 602.8 49.3027C598.5 49.3027 595 49.5027 595 49.8027C595 50.1027 597.4 54.3027 600.4 59.1027L605.8 67.8027L603.3 69.5027C601.9 70.4027 599.7 72.3027 598.6 73.8027L596.4 76.5027L571.8 39.2027L547.2 1.80273L535.1 1.50273L523 1.20273V42.2027V83.1027L519.9 88.9027C517.1 94.2027 516.9 95.5027 517.2 101.703C517.5 107.403 518 108.903 519.9 110.403C524.5 114.103 532.3 112.303 537.4 106.303C539.8 103.303 541 98.3027 539.2 98.3027C538.8 98.3027 536.9 99.8027 535.1 101.703C530.7 106.203 526.6 108.003 524.5 106.303C522.2 104.403 522.7 103.103 527.3 98.5027L531.6 94.3027H539.3H547L547.2 63.7027L547.5 33.2027L559.8 54.3027C571.1 73.6027 572 75.6027 570.6 77.1027C567.5 80.6027 565 87.8027 565 93.5027C565 101.103 567.9 104.803 573.8 104.703C578.6 104.503 583.7 101.603 586.5 97.4027C589 93.5027 590.7 93.5027 594 97.5027C597.3 101.403 600.2 100.903 606 95.7027L610 92.1027V102.603C610 113.503 610.7 115.103 614.5 113.703C615.7 113.203 615.8 111.103 615.3 100.903C615 93.4027 615.1 87.9027 615.7 86.9027C616.6 85.3027 617 85.7027 619.4 89.7027C622.4 94.9027 621.9 94.8027 637 94.3027C645.7 94.1027 650 93.0027 650 91.0027C650 90.6027 649 88.8027 647.8 87.2027C645.9 84.6027 645.5 82.7027 645.3 75.6027C645.3 71.0027 644.9 66.9027 644.5 66.5027C643.1 65.0027 640.5 68.3027 639.5 72.9027C639 75.6027 638.1 77.8027 637.7 77.8027C637.3 77.8027 634.3 73.7027 631 68.8027L625 59.8027L629.2 58.0027C637.6 54.4027 642.4 47.6027 644.1 36.9027C646.2 24.4027 641.4 12.1027 632.4 6.30273C626 2.30273 620.2 1.30273 599.8 0.602733L582 0.00273267V10.6027ZM610 75.3027C610.6 76.4027 610.8 78.5027 610.4 80.0027C609.7 83.2027 606.2 89.3027 605.2 89.3027C604.5 89.3027 600 81.9027 600 80.9027C600 79.7027 606.3 73.3027 607.6 73.3027C608.3 73.3027 609.4 74.2027 610 75.3027ZM576 82.7027C576 83.4027 574.6 85.2027 572.9 86.9027L569.9 89.8027L570.9 87.0027C572.8 82.2027 574.1 80.2027 575.1 80.8027C575.6 81.2027 576 82.0027 576 82.7027ZM581.4 91.5027C583.3 94.6027 583.3 94.6027 581 96.5027C576.6 100.003 571 100.103 571 96.6027C571 95.1027 577.4 88.4027 579 88.3027C579.3 88.3027 580.4 89.7027 581.4 91.5027Z" fill="#F1A037" fill-opacity="0.63"/>
<path d="M656 10.8023V21.3023H665.5H675V39.9023C675 55.9023 674.8 58.4023 673.5 57.9023C671 57.0023 668.7 60.2023 669.6 63.7023C670 65.4023 670.4 75.3023 670.5 85.6023C670.7 104.602 671.2 107.202 674.4 106.002C675.6 105.502 676 103.902 676 99.8023V94.3023H689.5H703L703.1 77.0023C703.2 63.3023 703.4 60.8023 704.2 64.8023C704.7 67.5023 704.9 76.5023 704.8 84.8023L704.5 99.8023H707C709.5 99.8023 709.5 99.7023 709.8 90.0023C710 81.6023 710.3 80.3023 711.5 81.3023C713.8 83.2023 718.8 81.5023 722.9 77.4023C728.2 72.1023 730.5 66.9023 730.5 60.0023C730.5 55.0023 730.1 53.8023 728 52.1023C726.3 50.7023 724.7 50.3023 722.6 50.7023C719 51.5023 713.6 56.4023 711.9 60.6023C710.8 63.3023 710.5 63.4023 709.9 61.7023C709.5 60.7023 709.1 58.7023 709.1 57.3023C708.9 53.1023 707.4 51.6023 705 53.1023C703 54.3023 703 54.1023 703 37.8023V21.3023H712.5H722.1L721.8 11.0023L721.5 0.802342L688.8 0.502342L656 0.302342V10.8023ZM724.8 61.0023C725.3 67.7023 719.5 76.3023 714.5 76.3023C712.4 76.3023 712 75.8023 712 73.5023C712.1 67.7023 719.6 55.9023 722.9 56.5023C724 56.7023 724.6 58.1023 724.8 61.0023Z" fill="#F1A037" fill-opacity="0.63"/>
<path d="M443 47.8008V94.3008H448.6C455.8 94.3008 455.4 96.1008 447.7 98.8008C442.5 100.601 440.7 102.401 442.8 103.701C443.3 104.001 445.9 103.601 448.6 102.901L453.6 101.601L453.2 104.901C452.8 107.901 452.4 108.301 449.8 108.301C446.1 108.301 443 109.901 443 111.901C443 113.201 443.9 113.401 447.5 113.101L452 112.801V116.501C452 118.601 452.4 120.301 453 120.301C454.3 120.301 456 116.901 456 114.301C456 113.001 456.9 111.901 458.6 111.301C462.4 109.801 462.8 110.001 463.2 113.501C463.4 115.701 464.1 116.901 465.3 117.101C466.7 117.401 467 116.701 467 113.001C467 108.901 467.2 108.401 470.1 107.401C471.9 106.801 474.6 106.301 476.1 106.301C479.2 106.301 480.3 105.201 479.4 102.901C478.6 100.901 476.3 100.901 471.6 102.801C468.5 104.101 468 104.101 468 102.901C468 99.2008 470 96.5008 473.2 95.8008C479.2 94.6008 480 94.2008 480 92.2008C480 90.0008 479 89.9008 473.7 91.4008C471.5 92.0008 469.7 92.3008 469.5 92.1008C469.3 91.9008 469.5 89.8008 470 87.4008C470.9 82.3008 470.3 80.0008 468.4 80.7008C467.3 81.1008 467 79.6008 467 73.4008V65.6008L477.3 65.0008C493.9 64.1008 503.2 59.8008 509 50.6008C512.8 44.7008 514.299 37.6008 513.799 28.9008C512.899 16.0008 506.2 6.70078 495.2 3.30078C489.6 1.60078 485.8 1.30078 465.9 1.30078H443V47.8008ZM485.6 16.2008C493.4 19.7008 497.1 27.7008 495 36.4008C492.4 47.1008 484.5 53.3008 473.2 53.3008H467V33.8008V14.3008H474.3C479.1 14.3008 482.8 14.9008 485.6 16.2008ZM464.5 101.501C463.6 105.501 463.9 105.201 460.1 106.301C457.1 107.101 457 107.101 457 103.801C457 100.801 457.4 100.201 460.3 99.4008C465.1 98.0008 465.2 98.0008 464.5 101.501Z" fill="#F1A037" fill-opacity="0.63"/>
<path d="M750.5 4.20078C738.5 9.70078 733 17.2008 733 27.8008C733 34.9008 735.6 40.9008 740.7 45.3008L744.2 48.4008L742.2 50.6008C735.9 57.6008 734.7 70.1008 739.8 75.6008L741.8 77.8008L734.9 86.0008L727.9 94.3008H749.8C775.5 94.3008 779.3 93.5008 787 86.6008C797.5 77.2008 799.1 60.6008 790.5 50.6008L787.1 46.6008L788 38.2008C789.3 27.0008 789.3 25.6008 787.5 24.9008C784.5 23.8008 783 27.1008 783 34.8008C783 38.9008 782.7 42.4008 782.3 42.6008C780.9 43.4008 757.1 31.3008 756 29.4008C754.6 26.6008 756.7 21.5008 760.1 19.8008C762 18.8008 766 18.3008 772.7 18.3008H782.6L788.1 12.5008C791.1 9.40078 794.6 5.60078 796 4.00078L798.3 1.30078H777.4C756.7 1.40078 756.5 1.40078 750.5 4.20078ZM750 52.8008C750 54.4008 743 62.7008 742.3 61.9008C742.1 61.7008 742.5 60.0008 743.3 58.1008C745.6 52.7008 750 49.2008 750 52.8008ZM763.7 63.2008C763.8 68.1008 764.3 70.0008 766 71.8008C767.9 73.8008 767.9 74.1008 766.5 74.7008C764.4 75.5008 755 75.5008 755 74.7008C755 74.4008 756.1 72.8008 757.5 71.1008C759.9 68.2008 760.9 63.3008 759.1 63.3008C758.6 63.3008 757.2 64.5008 756 66.0008C751.3 72.0008 745 74.1008 743 70.4008C742.1 68.7008 742.6 67.9008 746.4 64.8008C748.8 62.8008 751.8 59.4008 753.1 57.3008L755.5 53.6008L759.5 55.3008L763.5 57.0008L763.7 63.2008ZM772.4 63.6008C773.1 65.4008 773 66.7008 772.3 67.4008C770.5 69.2008 769 67.5008 769 63.7008C769 59.5008 771 59.5008 772.4 63.6008Z" fill="#F1A037" fill-opacity="0.63"/>
<path d="M657 48.201C655.7 50.801 657.7 55.501 659.9 55.101C661.8 54.701 664.4 49.701 663.6 47.701C662.8 45.601 658.3 46.001 657 48.201Z" fill="#F1A037" fill-opacity="0.63"/>
<path d="M656.2 63.9996C655.2 66.0996 655.3 85.6996 656.4 89.0996C657 90.6996 657.8 91.2996 659.3 91.0996C661.1 90.8996 661.5 90.1996 661.3 87.2996C661.2 85.3996 661 79.0996 660.8 73.2996C660.5 64.3996 660.2 62.7996 658.8 62.4996C657.9 62.2996 656.7 62.9996 656.2 63.9996Z" fill="#F1A037" fill-opacity="0.63"/>
<path d="M489.5 70.7013C487.7 72.0013 487.5 73.7013 487.2 90.6013L486.8 109.101L489.6 112.801C492.2 116.201 492.7 116.501 496.3 116.001C503.6 115.001 510.8 105.701 511.6 95.9013C512.2 89.2013 510.5 85.9013 506.3 85.5013C502.2 85.1013 498.8 87.4013 495 93.1013C492.1 97.6013 492 97.6013 492 94.7013C492 93.1013 492.5 87.4013 493.2 82.0013C494.2 73.6013 494.2 72.1013 492.9 70.8013C491.6 69.5013 491.2 69.5013 489.5 70.7013ZM506.6 92.8013C506.9 94.1013 506.4 97.5013 505.5 100.201C502.9 108.201 494.2 114.401 493.2 109.001C492.4 105.101 501.7 90.3013 504.9 90.3013C505.5 90.3013 506.2 91.4013 506.6 92.8013Z" fill="#F1A037" fill-opacity="0.63"/>
</svg>
