<svg width="1756" height="896" viewBox="0 0 1756 896" fill="none" xmlns="http://www.w3.org/2000/svg">
<path d="M128.194 12.4054C79.9952 35.3293 77.6441 41.2073 51.1933 259.279C40.0252 353.326 32.9717 405.052 9.4599 560.23C-2.29599 638.406 -2.88378 644.872 6.52093 671.323C12.9867 691.308 15.9256 720.11 15.9256 771.836C15.9256 850.012 22.9792 879.402 44.7276 890.57C52.9567 895.273 278.67 896.448 816.502 895.86L1575.93 894.097L1589.45 874.112C1602.38 855.303 1602.97 848.249 1602.97 757.729C1602.97 679.552 1601.21 656.628 1592.98 640.17C1584.75 622.536 1584.75 619.009 1591.8 614.307C1596.5 611.368 1597.68 609.017 1594.15 609.017C1578.28 608.429 1572.41 599.024 1579.46 585.505C1585.34 574.337 1589.45 573.161 1607.09 576.688C1631.18 580.803 1629.42 572.573 1602.38 559.054C1592.98 553.764 1585.34 547.886 1585.34 545.535C1585.92 533.191 1604.73 519.672 1625.89 516.733C1659.4 512.031 1656.46 502.038 1622.37 503.801C1592.39 506.153 1582.99 497.336 1604.15 486.755L1617.67 479.702L1604.73 483.229C1589.45 486.755 1588.28 484.404 1598.27 466.183C1601.8 459.129 1604.73 443.259 1603.56 431.503C1602.97 413.869 1604.15 409.754 1611.79 412.693C1616.49 414.457 1620.6 413.281 1620.6 409.754C1620.6 406.228 1615.31 403.289 1608.26 403.289C1601.8 403.289 1589.45 397.998 1581.22 391.533C1571.82 384.479 1557.12 379.777 1543.6 379.777C1523.03 379.777 1520.68 378.013 1520.68 364.494C1520.68 356.265 1518.33 350.975 1514.8 353.326C1511.86 355.089 1508.92 355.089 1508.92 352.15C1508.92 349.799 1517.15 343.921 1526.56 339.807C1536.55 335.104 1544.19 328.051 1544.19 322.761C1544.19 318.058 1547.72 315.119 1551.83 316.883C1555.95 318.058 1558.89 329.814 1558.3 346.86C1558.3 363.906 1560.65 373.311 1564.18 372.136C1571.23 369.197 1569.47 309.241 1561.83 301.6C1555.95 295.134 1524.21 311.005 1492.47 337.456C1471.89 353.914 1465.43 356.265 1461.31 349.799C1458.37 345.097 1456.02 338.043 1456.02 333.929C1456.02 328.639 1451.91 327.463 1444.27 329.814C1435.45 332.753 1433.69 331.578 1436.04 325.112C1437.8 320.41 1436.62 314.532 1433.1 312.18C1428.98 309.829 1426.63 315.119 1426.63 325.112L1426.04 341.57L1416.05 325.112C1405.47 307.478 1385.49 303.951 1373.73 318.058C1356.68 338.631 1353.16 327.463 1353.16 248.699C1352.57 134.079 1329.06 72.9482 1270.28 33.566C1226.78 5.35182 1206.8 3.00064 997.542 5.93961C892.327 7.703 798.868 8.87859 788.875 8.29079C733.623 7.703 593.728 3.58844 550.819 1.23726C486.749 -1.70171 416.801 5.35182 392.114 17.6955C375.656 25.9246 370.953 25.9246 363.312 19.4589C345.678 4.17623 330.396 1.82505 243.99 0.649464C164.638 -1.11392 155.821 0.0616693 128.194 12.4054ZM189.325 98.8111C193.44 119.384 198.73 192.858 201.081 268.096C206.371 467.358 206.371 490.282 196.379 559.054C182.271 657.804 187.562 650.162 135.836 650.162C84.1098 650.162 82.9342 648.399 92.3389 596.085C95.8657 575.512 101.156 535.542 104.683 506.153C107.622 477.351 112.324 444.434 115.263 432.678C118.202 421.51 124.08 379.189 127.607 338.631C131.721 298.073 138.775 242.821 143.477 215.194C148.179 187.568 153.47 150.537 155.233 132.903C158.76 89.9942 160.523 85.8797 174.042 85.8797C181.684 85.8797 186.974 90.582 189.325 98.8111ZM265.738 91.7576C269.265 91.7576 280.433 89.9942 291.013 88.2308C301.006 86.4674 310.411 87.0552 310.411 89.4064C312.762 104.101 318.052 291.608 317.464 350.387C317.464 409.754 312.174 468.534 300.418 545.535C298.067 559.642 299.243 567.871 303.357 567.871C311.586 567.871 319.815 535.542 330.396 458.541C339.8 390.357 351.556 338.043 365.076 303.364C369.778 292.195 379.183 262.218 386.824 236.943C394.465 211.668 402.694 189.919 405.046 188.156C407.397 186.393 409.748 179.339 409.748 171.698C409.748 164.644 415.038 142.308 422.092 121.735C431.496 94.6966 436.786 85.8797 444.428 87.0552C458.535 89.9942 458.535 111.155 445.016 176.988C437.962 209.316 431.496 250.462 430.321 268.096C423.267 355.09 407.985 430.327 376.244 532.603L342.152 641.345L293.952 643.109L246.341 644.872L242.226 584.329C240.463 550.825 238.112 503.801 238.112 479.702C238.112 362.143 226.944 181.102 218.715 160.53C216.364 155.239 216.364 135.842 218.715 117.621L222.829 84.7041L241.051 88.2308C251.631 90.582 262.799 91.7576 265.738 91.7576ZM576.682 90.582C577.857 92.9332 575.506 118.208 571.391 147.01C567.277 175.812 564.926 202.263 566.101 205.79C567.277 209.316 563.162 238.706 556.109 271.035C549.643 303.364 542.002 352.738 539.063 380.952C536.711 409.167 531.421 445.022 528.482 460.305C524.956 475.587 519.078 517.321 514.963 552.001C506.146 634.88 502.619 647.811 488.512 645.46C482.634 644.872 462.062 644.284 442.664 644.284H407.985L412.099 599.024C414.45 573.749 419.74 527.901 424.443 497.336C429.145 466.77 437.374 408.579 442.077 368.021C447.367 327.463 453.832 292.195 457.359 288.669C460.298 285.73 462.649 266.92 462.649 247.523C462.649 211.08 476.756 101.75 483.222 91.7576C486.749 85.8797 573.155 84.7041 576.682 90.582ZM743.027 113.506C740.676 129.376 737.737 151.125 735.974 162.293C734.798 173.461 726.569 234.592 718.34 297.486C710.111 360.38 699.531 423.861 694.828 437.968C684.248 469.709 689.538 529.664 704.233 550.237C714.225 563.756 714.225 568.459 707.76 609.017C700.706 647.811 698.355 653.101 686.599 654.865C678.958 656.04 665.438 651.338 656.034 644.872C647.217 637.819 637.224 632.528 634.285 632.528C631.346 632.528 621.354 621.36 611.949 607.841C596.667 586.68 594.903 577.864 593.728 536.13C593.14 509.679 599.018 445.022 606.659 391.533C614.3 338.043 626.644 251.05 633.698 197.561C640.751 144.071 648.98 97.0477 651.919 92.9332C656.034 88.8186 674.255 85.8797 701.882 85.8797H746.554L743.027 113.506ZM935.824 92.3454C937.587 94.6966 931.709 143.484 923.48 201.087C915.251 259.279 906.434 327.463 903.495 353.326C893.503 443.846 881.159 512.031 869.991 542.008C851.769 588.444 823.555 626.65 802.982 630.765C793.578 632.528 785.936 636.055 785.936 638.406C785.936 645.46 745.966 657.804 735.386 653.689C726.569 650.162 728.92 623.712 738.913 612.543C741.852 610.192 742.44 598.436 740.676 587.268C737.737 570.222 740.088 564.344 755.959 548.474C773.593 529.664 791.814 482.641 790.051 459.129C788.287 439.732 803.57 310.417 815.326 241.645C821.204 205.79 827.67 163.469 830.021 147.598C837.662 82.3529 833.548 87.0552 886.449 87.643C912.312 87.643 934.648 89.9942 935.824 92.3454ZM1100.99 111.743C1099.23 124.674 1096.29 151.713 1094.53 171.11C1092.77 190.507 1087.47 222.248 1082.18 241.645C1077.48 261.042 1069.25 318.058 1065.14 368.021C1060.44 417.983 1052.79 486.755 1047.5 520.847C1042.21 554.94 1035.75 595.497 1033.99 611.956L1029.87 641.345L980.496 643.109L931.122 644.872L935.236 606.078C937.587 584.329 942.877 545.535 946.992 519.084C951.694 492.633 959.336 430.915 965.214 382.716C970.504 333.929 978.733 270.447 984.023 241.645C988.725 212.255 994.016 174.049 995.191 156.415C996.367 138.781 998.718 115.857 1000.48 105.277L1004.01 86.4674L1053.97 87.0552L1104.52 87.643L1100.99 111.743ZM1206.21 97.6355C1235.6 111.155 1252.06 131.14 1261.46 165.232C1270.28 198.148 1269.1 315.707 1259.11 368.021C1253.82 392.121 1249.12 421.51 1247.94 432.678C1242.06 492.633 1217.38 553.176 1182.7 593.734C1152.13 629.589 1122.74 644.284 1082.18 644.284H1055.15L1059.26 621.948C1063.96 599.024 1066.31 583.154 1067.49 566.108C1067.49 560.23 1076.89 552.001 1088.65 546.71C1100.41 542.008 1112.75 530.84 1118.63 519.084C1123.92 509.092 1130.38 499.099 1132.15 497.336C1139.2 492.046 1162.12 348.036 1165.06 288.669C1168 219.309 1160.95 191.095 1138.61 185.805C1126.27 182.866 1123.92 179.339 1125.68 164.644C1126.27 155.239 1127.44 142.308 1127.44 135.842C1127.44 129.376 1129.21 115.269 1130.38 104.689C1133.32 87.0552 1134.5 85.8797 1156.83 85.8797C1169.77 85.8797 1192.1 91.1698 1206.21 97.6355ZM1338.46 451.488C1338.46 459.129 1334.35 491.458 1329.65 523.786C1324.94 556.115 1323.18 597.849 1324.94 616.07C1328.47 653.689 1322 659.567 1297.91 639.582C1282.03 627.238 1280.86 596.085 1293.79 510.855C1299.08 477.351 1303.2 447.961 1303.2 444.434C1303.2 441.495 1311.42 438.556 1320.83 438.556C1335.52 438.556 1338.46 440.907 1338.46 451.488ZM1411.94 457.366C1410.17 467.946 1404.88 504.977 1400.18 540.245C1395.48 574.925 1387.25 611.368 1382.55 620.773C1374.32 636.643 1353.75 650.162 1338.46 650.162C1330.82 650.162 1338.46 613.719 1347.87 604.902C1351.39 600.788 1356.1 582.566 1358.45 563.756C1360.21 544.947 1365.5 509.092 1369.03 483.816L1376.08 438.556H1395.48C1414.88 438.556 1415.46 439.144 1411.94 457.366ZM1473.66 452.076C1473.66 465.595 1450.14 640.758 1448.38 641.933C1447.79 642.521 1441.91 644.284 1435.45 646.635C1410.76 653.689 1410.17 645.46 1424.28 544.359C1431.92 490.87 1437.8 445.61 1438.39 442.671C1438.39 440.32 1446.62 438.556 1456.02 438.556C1470.72 438.556 1473.66 440.907 1473.66 452.076ZM1544.19 443.259C1544.19 446.198 1534.79 467.358 1523.62 490.282L1503.63 532.016L1511.86 580.803C1523.03 642.521 1523.03 642.521 1508.92 647.223C1490.11 653.101 1481.3 641.345 1476.59 601.375C1469.54 546.71 1473.07 517.321 1491.88 475.587C1507.75 442.083 1511.27 438.556 1526.56 438.556C1536.55 438.556 1544.19 440.907 1544.19 443.259ZM249.868 765.958L268.089 800.05L272.204 768.897C274.555 748.912 278.67 738.331 283.96 738.331C293.952 738.331 293.952 748.324 284.548 793.584C280.433 812.981 273.967 829.44 270.441 830.615C266.326 832.379 255.746 817.684 245.753 798.874L228.707 764.782L224.593 795.935C220.478 825.325 213.425 837.669 205.783 830.027C202.256 826.501 214.6 745.973 219.89 736.568C225.768 727.163 232.234 734.217 249.868 765.958ZM379.183 748.912C387.999 760.08 388.587 787.706 379.77 804.164C372.717 817.684 340.976 832.379 318.64 832.379C301.594 832.379 300.418 823.562 310.411 771.836C316.876 741.27 318.052 738.919 335.686 737.156C358.61 734.805 369.778 737.744 379.183 748.912ZM584.323 747.736C596.079 759.492 598.43 765.958 595.491 781.24C587.262 822.974 557.284 842.371 527.895 825.913C515.551 818.859 512.024 811.806 510.849 792.409C509.085 771.248 511.436 764.782 526.719 750.087C547.88 728.339 564.338 727.751 584.323 747.736ZM630.759 768.897L634.873 805.34L650.156 774.775C658.385 757.729 668.377 744.209 672.492 744.209C676.607 744.209 680.133 745.973 680.133 748.324C680.133 754.79 638.988 825.913 633.11 829.44C624.293 834.73 617.239 814.157 612.537 771.836C609.01 738.331 609.598 732.453 617.239 732.453C624.293 732.453 627.82 741.27 630.759 768.897ZM943.465 748.912C955.809 764.782 948.168 803.577 929.946 818.859C882.335 860.005 835.311 793.584 879.983 748.912C895.266 734.217 901.144 731.866 917.014 734.805C927.595 736.568 939.351 743.034 943.465 748.912ZM1035.75 774.775C1030.46 799.462 1023.41 815.333 1014.59 822.386C999.306 834.73 974.618 833.554 966.389 820.035C958.16 807.103 966.977 744.209 977.557 740.095C990.489 735.392 991.077 738.331 984.611 773.011C981.084 795.347 981.084 806.516 985.786 811.218C996.955 822.386 1011.65 806.516 1018.12 775.95C1024.58 744.209 1031.05 730.69 1038.1 735.392C1041.04 736.568 1039.86 754.79 1035.75 774.775ZM1118.04 744.797C1115.69 747.736 1109.22 750.087 1103.35 750.087C1091 750.087 1088.06 757.141 1082.18 798.874C1080.42 814.157 1076.31 828.264 1073.37 830.027C1061.02 837.669 1058.09 824.149 1065.14 788.294C1071.6 752.438 1071.6 750.087 1061.02 750.087C1055.15 750.087 1050.44 747.736 1050.44 744.797C1050.44 741.27 1064.55 738.331 1081.6 737.156C1115.69 735.392 1122.74 736.568 1118.04 744.797ZM1173.88 741.27C1173.88 746.561 1168.59 750.087 1159.19 750.087C1148.61 750.087 1144.49 753.026 1144.49 761.843C1144.49 769.485 1148.61 773.599 1156.25 773.599C1162.71 773.599 1168 777.714 1168 782.416C1168 787.706 1162.71 791.233 1153.31 791.233C1142.14 791.233 1138.03 795.347 1133.91 810.042C1128.62 831.203 1115.1 839.432 1115.1 821.21C1115.1 810.042 1125.09 754.79 1129.8 739.507C1133.32 728.927 1173.88 730.102 1173.88 741.27ZM1209.15 742.446C1208.56 757.729 1193.28 826.501 1189.75 830.615C1182.7 837.081 1173.88 825.325 1176.82 812.981C1178 805.928 1182.11 784.767 1185.64 765.958C1190.34 744.209 1195.04 732.453 1200.92 732.453C1205.62 732.453 1209.15 737.156 1209.15 742.446ZM1354.92 739.507C1353.16 743.622 1346.69 747.736 1340.23 748.912C1330.82 750.087 1326.71 758.316 1320.24 789.47C1315.54 811.806 1308.49 829.44 1303.78 831.203C1297.32 833.554 1296.14 827.676 1299.08 801.225C1301.43 783.592 1304.96 764.782 1306.72 759.492C1309.66 751.851 1306.13 750.087 1286.74 750.087H1263.23L1256.76 779.477C1253.23 795.935 1250.29 812.981 1250.29 817.684C1250.29 822.386 1247.94 827.676 1244.42 829.44C1231.48 837.669 1229.13 825.325 1235.6 788.294C1242.65 752.438 1242.06 750.087 1232.07 750.087C1225.61 750.087 1220.9 745.973 1220.9 741.27C1220.9 734.217 1232.66 732.453 1289.09 732.453C1340.81 732.453 1356.68 734.217 1354.92 739.507ZM1409 741.27C1409 746.561 1403.71 750.087 1394.3 750.087C1383.72 750.087 1379.61 753.026 1379.61 761.843C1379.61 769.485 1383.72 773.599 1391.36 773.599C1397.83 773.599 1403.12 775.95 1403.12 779.477C1403.12 782.416 1396.65 785.355 1389.01 785.355C1379.02 785.355 1374.32 789.47 1372.56 799.462C1370.2 811.218 1371.97 814.745 1383.72 815.92C1406.06 818.859 1399.59 829.44 1373.73 831.203C1356.68 832.379 1350.22 830.615 1350.22 824.737C1350.22 815.333 1361.39 750.087 1364.91 739.507C1368.44 728.927 1409 730.102 1409 741.27ZM1474.24 738.331C1487.76 745.973 1488.94 765.958 1476.59 779.477C1469.54 787.118 1468.95 792.996 1473.66 805.34C1479.53 821.798 1477.18 832.379 1467.78 832.379C1464.84 832.379 1459.55 822.974 1456.02 811.806C1448.38 788.882 1438.39 784.767 1438.39 804.164C1438.39 822.974 1428.4 836.493 1421.34 829.44C1417.82 825.913 1417.23 814.745 1420.17 800.05C1423.11 787.118 1427.22 766.546 1428.98 754.202C1432.51 735.98 1435.45 732.453 1447.79 732.453C1456.02 732.453 1467.78 735.392 1474.24 738.331ZM1548.89 742.446C1550.07 747.148 1545.37 750.087 1535.96 750.087C1517.74 750.087 1516.56 757.729 1532.44 777.714C1554.77 806.516 1540.66 835.905 1507.75 831.203C1489.53 828.852 1487.18 814.745 1505.4 814.745C1525.97 814.745 1529.5 805.34 1515.39 785.943C1500.11 764.782 1499.52 746.561 1513.63 738.919C1526.56 730.69 1545.37 733.041 1548.89 742.446ZM95.8657 747.148C94.1023 751.851 91.1633 768.897 88.8122 784.767C85.2854 811.806 85.8732 812.981 100.568 815.92C115.263 818.859 118.202 815.332 138.187 778.889C167.577 724.812 176.981 725.4 184.623 780.653C188.149 804.164 188.737 825.913 186.386 828.852C179.332 835.905 168.752 827.676 168.752 814.157C168.752 797.699 147.592 800.05 135.836 817.684C127.607 830.027 121.729 832.379 97.6291 832.379C82.3464 832.379 67.6515 829.44 65.8882 826.501C62.9492 821.21 70.5905 767.721 77.6441 745.385C79.4074 741.858 84.6976 738.331 89.9877 738.331C95.8657 738.331 98.2169 741.27 95.8657 747.148ZM496.741 748.324C503.207 760.668 499.68 774.187 487.925 783.592C480.871 788.882 480.871 792.996 486.161 802.989C493.215 815.92 490.276 832.379 481.459 832.379C478.52 832.379 473.817 824.149 470.879 814.157C464.413 792.996 454.42 790.645 452.069 810.042C449.718 826.501 442.077 834.73 434.435 830.027C430.908 828.264 430.321 817.684 433.26 804.752C435.611 792.409 439.725 772.424 441.489 760.08C445.603 739.507 446.779 738.331 468.527 738.331C484.398 738.331 493.215 741.27 496.741 748.324ZM815.914 747.736C822.38 755.377 821.792 760.08 812.975 775.95C805.334 790.645 804.158 798.286 808.86 810.63C812.975 820.623 812.975 827.088 809.448 829.44C800.043 835.318 792.99 827.676 788.875 808.867C786.524 798.874 782.997 791.233 780.058 791.233C777.119 791.233 773.593 798.874 771.241 808.867C767.127 826.501 758.898 836.493 752.432 830.027C748.905 826.501 760.661 751.851 765.951 743.034C771.241 734.805 807.685 737.744 815.914 747.736ZM733.035 748.324C707.76 753.026 700.706 773.599 724.218 773.599C732.447 773.599 738.913 775.95 738.913 779.477C738.913 782.416 732.447 785.355 724.806 785.355C711.874 785.355 703.645 794.76 703.645 809.455C703.645 812.394 710.699 814.745 718.928 814.745C741.264 814.745 733.035 828.852 709.523 831.203C678.958 834.142 678.37 831.791 694.828 757.141C697.767 745.973 701.294 744.209 723.042 744.797C739.501 745.385 742.44 746.561 733.035 748.324Z" fill="#F1A037" fill-opacity="0.63"/>
<path d="M330.396 771.825C328.045 784.169 325.106 798.864 323.343 804.154C319.816 817.673 340.389 818.261 353.32 805.33C375.069 784.169 369.191 750.077 344.503 750.077C336.862 750.077 332.748 755.955 330.396 771.825Z" fill="#F1A037" fill-opacity="0.63"/>
<path d="M537.299 760.665C519.077 780.65 526.131 814.742 548.467 814.742C565.513 814.742 575.506 797.108 573.154 771.833C570.803 749.497 552.582 743.619 537.299 760.665Z" fill="#F1A037" fill-opacity="0.63"/>
<path d="M888.799 764.196C877.044 781.829 879.395 802.402 893.502 811.219C911.136 822.387 924.067 808.868 924.067 778.89C924.067 756.554 922.304 753.027 911.136 751.264C902.907 750.089 895.265 754.203 888.799 764.196Z" fill="#F1A037" fill-opacity="0.63"/>
<path d="M1447.21 762.433C1442.5 777.128 1446.62 782.418 1458.96 777.715C1470.13 773.013 1470.72 750.089 1459.55 750.089C1454.85 750.089 1448.97 755.379 1447.21 762.433Z" fill="#F1A037" fill-opacity="0.63"/>
<path d="M154.647 777.123C149.357 790.055 149.944 791.23 159.937 791.23C164.639 791.23 168.754 787.704 168.754 783.001C168.754 770.07 158.761 766.543 154.647 777.123Z" fill="#F1A037" fill-opacity="0.63"/>
<path d="M460.888 760.658C457.361 779.467 459.124 782.406 471.468 777.704C482.636 773.002 483.224 752.429 472.056 748.314C466.766 745.963 462.651 750.665 460.888 760.658Z" fill="#F1A037" fill-opacity="0.63"/>
<path d="M778.885 764.778C776.534 774.77 778.297 779.473 783.587 779.473C792.404 779.473 804.748 759.488 799.458 753.61C791.229 745.381 781.236 750.671 778.885 764.778Z" fill="#F1A037" fill-opacity="0.63"/>
<path d="M1544.78 223.422C1535.37 234.59 1540.66 243.995 1563.59 253.4C1584.75 262.217 1597.09 259.278 1597.09 244.583C1597.09 223.422 1557.71 207.552 1544.78 223.422Z" fill="#F1A037" fill-opacity="0.63"/>
<path d="M1420.75 244.583C1420.75 247.522 1424.87 250.461 1429.57 250.461C1434.27 250.461 1438.39 247.522 1438.39 244.583C1438.39 241.056 1434.27 238.705 1429.57 238.705C1424.87 238.705 1420.75 241.056 1420.75 244.583Z" fill="#F1A037" fill-opacity="0.63"/>
<path d="M1441.33 290.431C1437.8 303.362 1443.09 320.996 1450.73 320.996C1457.79 320.996 1457.79 287.492 1450.73 282.789C1447.79 281.026 1443.68 284.553 1441.33 290.431Z" fill="#F1A037" fill-opacity="0.63"/>
<path d="M1649.99 285.728C1649.99 288.666 1652.93 291.605 1655.87 291.605C1659.4 291.605 1661.75 288.666 1661.75 285.728C1661.75 282.201 1659.4 279.85 1655.87 279.85C1652.93 279.85 1649.99 282.201 1649.99 285.728Z" fill="#F1A037" fill-opacity="0.63"/>
<path d="M1716.41 340.98C1706.42 346.858 1704.66 349.797 1709.95 355.087C1714.06 359.202 1721.7 362.141 1726.99 362.141C1738.16 362.141 1755.8 347.446 1755.8 338.041C1755.8 330.4 1732.28 332.163 1716.41 340.98Z" fill="#F1A037" fill-opacity="0.63"/>
<path d="M1691.14 415.04C1686.44 417.979 1685.26 420.918 1688.2 420.918C1691.73 420.918 1698.19 417.979 1702.89 415.04C1707.6 412.101 1709.36 409.162 1705.83 409.162C1702.89 409.162 1695.84 412.101 1691.14 415.04Z" fill="#F1A037" fill-opacity="0.63"/>
<path d="M1675.27 460.302C1671.16 461.478 1667.63 466.768 1667.63 470.883C1667.63 474.997 1664.69 479.7 1661.16 480.875C1657.05 482.051 1665.28 486.753 1678.8 490.868C1698.19 496.158 1705.84 496.746 1712.3 490.868C1734.05 472.646 1704.66 447.959 1675.27 460.302Z" fill="#F1A037" fill-opacity="0.63"/>
<path d="M1600.03 538.478C1598.27 541.416 1601.8 544.355 1608.26 544.355C1615.32 544.355 1620.61 541.416 1620.61 538.478C1620.61 534.951 1617.08 532.6 1612.38 532.6C1607.67 532.6 1601.8 534.951 1600.03 538.478Z" fill="#F1A037" fill-opacity="0.63"/>
<path d="M1626.48 626.649C1631.18 629.588 1638.24 632.527 1641.18 632.527C1644.7 632.527 1642.94 629.588 1638.24 626.649C1633.53 623.71 1627.07 620.771 1623.54 620.771C1620.6 620.771 1621.78 623.71 1626.48 626.649Z" fill="#F1A037" fill-opacity="0.63"/>
<path d="M1695.84 648.408C1699.96 650.171 1705.25 649.584 1707.01 647.82C1709.36 646.057 1705.84 644.293 1699.37 644.881C1692.9 644.881 1691.14 646.645 1695.84 648.408Z" fill="#F1A037" fill-opacity="0.63"/>
</svg>
