<svg width="1000" height="511" viewBox="0 0 1000 511" fill="none" xmlns="http://www.w3.org/2000/svg">
<path d="M73.0121 7.06421C45.5607 20.1204 44.2216 23.4681 29.1567 147.669C22.796 201.233 18.7788 230.693 5.38781 319.073C-1.30766 363.598 -1.64243 367.281 3.71394 382.345C7.39645 393.728 9.07032 410.132 9.07032 439.592C9.07032 484.117 13.0876 500.855 25.4742 507.216C30.1611 509.894 158.714 510.564 465.032 510.229L897.56 509.225L905.26 497.842C912.625 487.13 912.959 483.112 912.959 431.557C912.959 387.032 911.955 373.976 907.268 364.602C902.581 354.559 902.581 352.551 906.599 349.872C909.277 348.199 909.946 346.859 907.938 346.859C898.899 346.525 895.551 341.168 899.568 333.469C902.916 327.108 905.26 326.438 915.303 328.447C929.028 330.79 928.024 326.104 912.625 318.404C907.268 315.391 902.916 312.043 902.916 310.704C903.251 303.674 913.964 295.974 926.015 294.3C945.098 291.622 943.424 285.931 924.007 286.935C906.933 288.274 901.577 283.252 913.629 277.227L921.329 273.209L913.964 275.218C905.26 277.227 904.59 275.887 910.281 265.509C912.29 261.492 913.964 252.453 913.294 245.758C912.959 235.715 913.629 233.371 917.981 235.045C920.659 236.049 923.003 235.38 923.003 233.371C923.003 231.363 919.99 229.689 915.972 229.689C912.29 229.689 905.26 226.676 900.573 222.993C895.216 218.976 886.847 216.298 879.147 216.298C867.43 216.298 866.091 215.293 866.091 207.594C866.091 202.907 864.752 199.894 862.743 201.233C861.069 202.237 859.396 202.237 859.396 200.563C859.396 199.224 864.082 195.877 869.439 193.533C875.13 190.855 879.482 186.838 879.482 183.825C879.482 181.147 881.491 179.473 883.834 180.477C886.177 181.147 887.851 187.842 887.517 197.55C887.517 207.259 888.856 212.615 890.864 211.946C894.882 210.272 893.877 176.125 889.525 171.773C886.177 168.09 868.1 177.129 850.022 192.194C838.305 201.568 834.622 202.907 832.279 199.224C830.605 196.546 829.266 192.529 829.266 190.185C829.266 187.172 826.922 186.503 822.57 187.842C817.549 189.516 816.544 188.846 817.884 185.164C818.888 182.486 818.218 179.138 816.21 177.799C813.866 176.46 812.527 179.473 812.527 185.164L812.192 194.537L806.501 185.164C800.475 175.121 789.093 173.112 782.398 181.147C772.689 192.864 770.681 186.503 770.681 141.643C770.346 76.3624 756.955 41.5459 723.477 19.1161C698.704 3.04693 687.322 1.70783 568.142 3.3817C508.218 4.38602 454.989 5.05557 449.298 4.7208C417.829 4.38602 338.153 2.04261 313.714 0.703513C277.224 -0.970355 237.386 3.04693 223.325 10.0772C213.952 14.764 211.274 14.764 206.922 11.0815C196.878 2.37738 188.174 1.03829 138.963 0.36874C93.7681 -0.635582 88.7465 0.0339658 73.0121 7.06421ZM107.829 56.2759C110.172 67.993 113.185 109.84 114.524 152.691C117.537 266.179 117.537 279.235 111.846 318.404C103.811 374.646 106.824 370.294 77.3642 370.294C47.9041 370.294 47.2345 369.289 52.5909 339.494C54.5995 327.777 57.6125 305.013 59.6212 288.274C61.295 271.87 63.9732 253.123 65.6471 246.427C67.3209 240.067 70.6687 215.963 72.6773 192.864C75.0207 169.764 79.038 138.295 81.7162 122.561C84.3944 106.827 87.4074 85.736 88.4117 75.6928C90.4203 51.2543 91.4247 48.9109 99.1244 48.9109C103.477 48.9109 106.489 51.5891 107.829 56.2759ZM151.349 52.2587C153.358 52.2587 159.718 51.2543 165.744 50.25C171.436 49.2457 176.792 49.5805 176.792 50.9196C178.131 59.2889 181.144 166.082 180.809 199.559C180.809 233.371 177.796 266.849 171.101 310.704C169.762 318.738 170.431 323.425 172.775 323.425C177.461 323.425 182.148 305.013 188.174 261.157C193.531 222.324 200.226 192.529 207.926 172.777C210.604 166.416 215.96 149.343 220.313 134.948C224.665 120.552 229.351 108.166 230.69 107.162C232.03 106.157 233.369 102.14 233.369 97.7879C233.369 93.7706 236.382 81.0492 240.399 69.3321C245.755 53.9325 248.768 48.9109 253.12 49.5805C261.155 51.2543 261.155 63.3062 253.455 100.801C249.438 119.213 245.755 142.648 245.086 152.691C241.068 202.237 232.364 245.088 214.287 303.339L194.87 365.272L167.418 366.276L140.302 367.281L137.958 332.799C136.954 313.717 135.615 286.935 135.615 273.209C135.615 206.255 129.254 103.144 124.567 91.4272C123.228 88.4142 123.228 77.3667 124.567 66.9887L126.911 48.2414L137.289 50.25C143.315 51.5891 149.675 52.2587 151.349 52.2587ZM328.444 51.5891C329.114 52.9282 327.775 67.3235 325.431 83.7274C323.088 100.131 321.749 115.196 322.418 117.205C323.088 119.213 320.745 135.952 316.727 154.365C313.045 172.777 308.693 200.898 307.019 216.967C305.68 233.036 302.667 253.458 300.993 262.162C298.984 270.866 295.637 294.635 293.293 314.386C288.272 361.59 286.263 368.955 278.228 367.615C274.881 367.281 263.164 366.946 252.116 366.946H232.364L234.708 341.168C236.047 326.773 239.06 300.661 241.738 283.252C244.416 265.844 249.103 232.702 251.781 209.602C254.794 186.503 258.477 166.416 260.485 164.408C262.159 162.734 263.498 152.021 263.498 140.974C263.498 120.218 271.533 57.9498 275.215 52.2587C277.224 48.9109 326.436 48.2414 328.444 51.5891ZM423.185 64.6453C421.846 73.6842 420.172 86.0708 419.168 92.4315C418.499 98.7922 413.812 133.609 409.125 169.429C404.438 205.25 398.412 241.406 395.734 249.44C389.708 267.518 392.721 301.665 401.09 313.382C406.781 321.082 406.781 323.76 403.099 346.859C399.082 368.955 397.743 371.968 391.047 372.972C386.695 373.641 378.995 370.963 373.639 367.281C368.617 363.263 362.926 360.25 361.252 360.25C359.578 360.25 353.887 353.89 348.531 346.19C339.827 334.138 338.822 329.116 338.153 305.348C337.818 290.283 341.166 253.458 345.518 222.993C349.87 192.529 356.9 142.982 360.917 112.518C364.935 82.0535 369.622 55.2716 371.295 52.9282C373.639 50.5848 384.017 48.9109 399.751 48.9109H425.194L423.185 64.6453ZM532.991 52.5934C533.995 53.9325 530.648 81.7187 525.961 114.527C521.274 147.669 516.252 186.503 514.579 201.233C508.887 252.788 501.857 291.622 495.496 308.695C485.119 335.142 469.049 356.903 457.332 359.246C451.976 360.25 447.624 362.259 447.624 363.598C447.624 367.615 424.859 374.646 418.833 372.302C413.812 370.294 415.151 355.229 420.842 348.868C422.516 347.529 422.851 340.834 421.846 334.473C420.172 324.764 421.512 321.417 430.55 312.378C440.594 301.665 450.972 274.883 449.967 261.492C448.963 250.445 457.667 176.794 464.363 137.626C467.71 117.205 471.393 93.1011 472.732 84.0622C477.084 46.9023 474.741 49.5805 504.87 49.9152C519.6 49.9152 532.322 51.2543 532.991 52.5934ZM627.063 63.641C626.058 71.006 624.384 86.4056 623.38 97.4531C622.376 108.501 619.363 126.578 616.35 137.626C613.672 148.673 608.985 181.147 606.641 209.602C603.963 238.058 599.611 277.227 596.598 296.643C593.585 316.06 589.903 339.16 588.898 348.533L586.555 365.272L558.434 366.276L530.313 367.281L532.656 345.186C533.995 332.799 537.008 310.704 539.352 295.639C542.03 280.574 546.382 245.423 549.73 217.972C552.743 190.185 557.43 154.03 560.443 137.626C563.121 120.887 566.134 99.127 566.803 89.0838C567.473 79.0406 568.812 65.9844 569.816 59.9585L571.825 49.2457L600.281 49.5805L629.071 49.9152L627.063 63.641ZM686.987 55.6064C703.726 63.3062 713.099 74.6885 718.456 94.1054C723.477 112.853 722.808 179.807 717.117 209.602C714.104 223.328 711.426 240.067 710.756 246.427C707.408 280.574 693.348 315.056 673.596 338.155C656.188 358.577 639.449 366.946 616.35 366.946H600.95L603.294 354.225C605.972 341.168 607.311 332.129 607.98 322.421C607.98 319.073 613.337 314.386 620.032 311.373C626.728 308.695 633.758 302.335 637.106 295.639C640.119 289.948 643.801 284.257 644.806 283.252C648.823 280.24 661.879 198.22 663.553 164.408C665.227 124.905 661.209 108.835 648.488 105.822C641.458 104.149 640.119 102.14 641.123 93.7706C641.458 88.4142 642.127 81.0492 642.127 77.3667C642.127 73.6842 643.132 65.6496 643.801 59.6237C645.475 49.5805 646.145 48.9109 658.866 48.9109C666.231 48.9109 678.953 51.9239 686.987 55.6064ZM762.311 257.14C762.311 261.492 759.968 279.905 757.29 298.317C754.611 316.73 753.607 340.499 754.611 350.877C756.62 372.302 752.937 375.65 739.212 364.268C730.173 357.237 729.503 339.494 736.868 290.952C739.881 271.87 742.225 255.131 742.225 253.123C742.225 251.449 746.912 249.775 752.268 249.775C760.637 249.775 762.311 251.114 762.311 257.14ZM804.158 260.488C803.154 266.514 800.141 287.605 797.462 307.691C794.784 327.443 790.097 348.199 787.419 353.555C782.732 362.594 771.015 370.294 762.311 370.294C757.959 370.294 762.311 349.538 767.668 344.516C769.676 342.173 772.354 331.795 773.693 321.082C774.698 310.369 777.711 289.948 779.719 275.553L783.737 249.775H794.784C805.832 249.775 806.167 250.11 804.158 260.488ZM839.309 257.475C839.309 265.175 825.918 364.937 824.914 365.607C824.579 365.942 821.231 366.946 817.549 368.285C803.488 372.302 803.154 367.615 811.188 310.034C815.54 279.57 818.888 253.792 819.223 252.119C819.223 250.779 823.91 249.775 829.266 249.775C837.635 249.775 839.309 251.114 839.309 257.475ZM879.482 252.453C879.482 254.127 874.126 266.179 867.765 279.235L856.383 303.004L861.069 330.79C867.43 365.942 867.43 365.942 859.396 368.62C848.683 371.968 843.661 365.272 840.983 342.507C836.966 311.373 838.974 294.635 849.687 270.866C858.726 251.784 860.735 249.775 869.439 249.775C875.13 249.775 879.482 251.114 879.482 252.453ZM142.31 436.244L152.688 455.661L155.032 437.918C156.371 426.536 158.714 420.51 161.727 420.51C167.418 420.51 167.418 426.201 162.062 451.978C159.718 463.026 156.036 472.4 154.027 473.069C151.684 474.073 145.658 465.704 139.967 454.991L130.258 435.575L127.915 453.318C125.572 470.056 121.554 477.086 117.202 472.734C115.194 470.726 122.224 424.862 125.237 419.505C128.585 414.149 132.267 418.166 142.31 436.244ZM215.96 426.536C220.982 432.896 221.317 448.631 216.295 458.004C212.278 465.704 194.2 474.073 181.479 474.073C171.77 474.073 171.101 469.052 176.792 439.592C180.474 422.184 181.144 420.844 191.187 419.84C204.243 418.501 210.604 420.175 215.96 426.536ZM332.796 425.866C339.492 432.562 340.831 436.244 339.157 444.948C334.47 468.717 317.397 479.765 300.658 470.391C293.628 466.374 291.619 462.356 290.95 451.309C289.945 439.257 291.285 435.575 299.989 427.205C312.041 414.819 321.414 414.484 332.796 425.866ZM359.244 437.918L361.587 458.674L370.291 441.266C374.978 431.557 380.669 423.857 383.013 423.857C385.356 423.857 387.365 424.862 387.365 426.201C387.365 429.883 363.93 470.391 360.583 472.4C355.561 475.413 351.544 463.696 348.866 439.592C346.857 420.51 347.192 417.162 351.544 417.162C355.561 417.162 357.57 422.184 359.244 437.918ZM537.343 426.536C544.373 435.575 540.021 457.67 529.643 466.374C502.527 489.808 475.745 451.978 501.188 426.536C509.892 418.166 513.239 416.827 522.278 418.501C528.304 419.505 535 423.188 537.343 426.536ZM589.903 441.266C586.89 455.326 582.872 464.365 577.851 468.382C569.147 475.413 555.086 474.743 550.399 467.043C545.713 459.678 550.734 423.857 556.76 421.514C564.125 418.836 564.46 420.51 560.777 440.261C558.769 452.983 558.769 459.343 561.447 462.022C567.808 468.382 576.177 459.343 579.859 441.935C583.542 423.857 587.224 416.158 591.242 418.836C592.916 419.505 592.246 429.883 589.903 441.266ZM636.771 424.192C635.432 425.866 631.749 427.205 628.402 427.205C621.371 427.205 619.698 431.222 616.35 454.991C615.345 463.696 613.002 471.73 611.328 472.734C604.298 477.086 602.624 469.387 606.641 448.965C610.324 428.544 610.324 427.205 604.298 427.205C600.95 427.205 598.272 425.866 598.272 424.192C598.272 422.184 606.307 420.51 616.015 419.84C635.432 418.836 639.449 419.505 636.771 424.192ZM668.574 422.184C668.574 425.197 665.562 427.205 660.205 427.205C654.179 427.205 651.836 428.879 651.836 433.901C651.836 438.253 654.179 440.596 658.531 440.596C662.214 440.596 665.227 442.94 665.227 445.618C665.227 448.631 662.214 450.639 656.857 450.639C650.497 450.639 648.153 452.983 645.81 461.352C642.797 473.404 635.097 478.091 635.097 467.713C635.097 461.352 640.788 429.883 643.466 421.179C645.475 415.153 668.574 415.823 668.574 422.184ZM688.661 422.853C688.326 431.557 679.622 470.726 677.613 473.069C673.596 476.752 668.574 470.056 670.248 463.026C670.918 459.009 673.261 446.957 675.27 436.244C677.948 423.857 680.626 417.162 683.974 417.162C686.652 417.162 688.661 419.84 688.661 422.853ZM771.685 421.179C770.681 423.523 766.998 425.866 763.315 426.536C757.959 427.205 755.616 431.892 751.933 449.635C749.255 462.356 745.238 472.4 742.56 473.404C738.877 474.743 738.207 471.395 739.881 456.33C741.22 446.287 743.229 435.575 744.233 432.562C745.907 428.209 743.899 427.205 732.851 427.205H719.46L715.778 443.944C713.769 453.318 712.095 463.026 712.095 465.704C712.095 468.382 710.756 471.395 708.747 472.4C701.382 477.086 700.043 470.056 703.726 448.965C707.743 428.544 707.408 427.205 701.717 427.205C698.035 427.205 695.356 424.862 695.356 422.184C695.356 418.166 702.052 417.162 734.19 417.162C763.65 417.162 772.689 418.166 771.685 421.179ZM802.484 422.184C802.484 425.197 799.471 427.205 794.115 427.205C788.089 427.205 785.745 428.879 785.745 433.901C785.745 438.253 788.089 440.596 792.441 440.596C796.123 440.596 799.136 441.935 799.136 443.944C799.136 445.618 795.454 447.292 791.102 447.292C785.411 447.292 782.732 449.635 781.728 455.326C780.389 462.022 781.393 464.03 788.089 464.7C800.81 466.374 797.128 472.4 782.398 473.404C772.689 474.073 769.007 473.069 769.007 469.721C769.007 464.365 775.367 427.205 777.376 421.179C779.385 415.153 802.484 415.823 802.484 422.184ZM839.644 420.51C847.344 424.862 848.013 436.244 840.983 443.944C836.966 448.296 836.631 451.644 839.309 458.674C842.657 468.048 841.318 474.073 835.961 474.073C834.288 474.073 831.275 468.717 829.266 462.356C824.914 449.3 819.223 446.957 819.223 458.004C819.223 468.717 813.532 476.417 809.514 472.4C807.506 470.391 807.171 464.03 808.845 455.661C810.519 448.296 812.862 436.579 813.866 429.549C815.875 419.171 817.549 417.162 824.579 417.162C829.266 417.162 835.961 418.836 839.644 420.51ZM882.16 422.853C882.83 425.531 880.151 427.205 874.795 427.205C864.417 427.205 863.748 431.557 872.786 442.94C885.508 459.343 877.473 476.082 858.726 473.404C848.348 472.065 847.009 464.03 857.387 464.03C869.104 464.03 871.113 458.674 863.078 447.626C854.374 435.575 854.039 425.197 862.074 420.844C869.439 416.158 880.151 417.497 882.16 422.853ZM54.5995 425.531C53.5952 428.209 51.9214 437.918 50.5823 446.957C48.5736 462.356 48.9084 463.026 57.2777 464.7C65.6471 466.374 67.3209 464.365 78.7033 443.609C95.4419 412.81 100.798 413.145 105.15 444.613C107.159 458.004 107.494 470.391 106.155 472.065C102.137 476.082 96.1115 471.395 96.1115 463.696C96.1115 454.322 84.0596 455.661 77.3642 465.704C72.6773 472.734 69.3296 474.073 55.6039 474.073C46.8998 474.073 38.5304 472.4 37.5261 470.726C35.8522 467.713 40.2043 437.248 44.2216 424.527C45.2259 422.518 48.2388 420.51 51.2518 420.51C54.5995 420.51 55.9386 422.184 54.5995 425.531ZM282.915 426.201C286.598 433.231 284.589 440.931 277.894 446.287C273.876 449.3 273.876 451.644 276.889 457.335C280.907 464.7 279.233 474.073 274.211 474.073C272.537 474.073 269.859 469.387 268.185 463.696C264.503 451.644 258.811 450.305 257.472 461.352C256.133 470.726 251.781 475.413 247.429 472.734C245.421 471.73 245.086 465.704 246.76 458.339C248.099 451.309 250.442 439.927 251.446 432.896C253.79 421.179 254.459 420.51 266.846 420.51C275.885 420.51 280.907 422.184 282.915 426.201ZM464.697 425.866C468.38 430.218 468.045 432.896 463.023 441.935C458.671 450.305 458.002 454.657 460.68 461.687C463.023 467.378 463.023 471.061 461.015 472.4C455.658 475.747 451.641 471.395 449.298 460.683C447.959 454.991 445.95 450.639 444.276 450.639C442.602 450.639 440.594 454.991 439.255 460.683C436.911 470.726 432.224 476.417 428.542 472.734C426.533 470.726 433.229 428.209 436.242 423.188C439.255 418.501 460.01 420.175 464.697 425.866ZM417.494 426.201C403.099 428.879 399.082 440.596 412.473 440.596C417.159 440.596 420.842 441.935 420.842 443.944C420.842 445.618 417.159 447.292 412.807 447.292C405.442 447.292 400.756 452.648 400.756 461.017C400.756 462.691 404.773 464.03 409.46 464.03C422.181 464.03 417.494 472.065 404.103 473.404C386.695 475.078 386.36 473.739 395.734 431.222C397.408 424.862 399.416 423.857 411.803 424.192C421.177 424.527 422.851 425.197 417.494 426.201Z" fill="#F1A037" fill-opacity="0.63"/>
<path d="M188.175 439.585C186.835 446.616 185.162 454.985 184.157 457.998C182.149 465.698 193.866 466.032 201.231 458.667C213.617 446.616 210.27 427.199 196.209 427.199C191.857 427.199 189.514 430.546 188.175 439.585Z" fill="#F1A037" fill-opacity="0.63"/>
<path d="M306.014 433.228C295.636 444.61 299.654 464.027 312.375 464.027C322.083 464.027 327.775 453.984 326.436 439.589C325.096 426.867 314.718 423.52 306.014 433.228Z" fill="#F1A037" fill-opacity="0.63"/>
<path d="M506.209 435.241C499.513 445.284 500.852 457.001 508.887 462.023C518.93 468.383 526.295 460.684 526.295 443.61C526.295 430.889 525.291 428.88 518.93 427.876C514.243 427.206 509.891 429.55 506.209 435.241Z" fill="#F1A037" fill-opacity="0.63"/>
<path d="M824.245 434.237C821.567 442.606 823.91 445.619 830.941 442.941C837.301 440.263 837.636 427.207 831.275 427.207C828.597 427.207 825.25 430.22 824.245 434.237Z" fill="#F1A037" fill-opacity="0.63"/>
<path d="M88.0779 442.602C85.0649 449.967 85.3997 450.637 91.0908 450.637C93.769 450.637 96.1124 448.628 96.1124 445.95C96.1124 438.585 90.4213 436.576 88.0779 442.602Z" fill="#F1A037" fill-opacity="0.63"/>
<path d="M262.495 433.225C260.486 443.938 261.491 445.611 268.521 442.933C274.882 440.255 275.216 428.538 268.856 426.195C265.843 424.856 263.499 427.534 262.495 433.225Z" fill="#F1A037" fill-opacity="0.63"/>
<path d="M443.608 435.572C442.269 441.263 443.273 443.941 446.286 443.941C451.308 443.941 458.338 432.559 455.325 429.211C450.638 424.525 444.947 427.537 443.608 435.572Z" fill="#F1A037" fill-opacity="0.63"/>
<path d="M879.816 127.246C874.459 133.607 877.472 138.963 890.528 144.32C902.58 149.341 909.61 147.668 909.61 139.298C909.61 127.246 887.181 118.208 879.816 127.246Z" fill="#F1A037" fill-opacity="0.63"/>
<path d="M809.178 139.301C809.178 140.975 811.522 142.648 814.2 142.648C816.878 142.648 819.221 140.975 819.221 139.301C819.221 137.292 816.878 135.953 814.2 135.953C811.522 135.953 809.178 137.292 809.178 139.301Z" fill="#F1A037" fill-opacity="0.63"/>
<path d="M820.897 165.412C818.888 172.777 821.901 182.82 826.253 182.82C830.27 182.82 830.27 163.738 826.253 161.06C824.579 160.056 822.236 162.064 820.897 165.412Z" fill="#F1A037" fill-opacity="0.63"/>
<path d="M939.74 162.734C939.74 164.408 941.414 166.082 943.088 166.082C945.097 166.082 946.436 164.408 946.436 162.734C946.436 160.726 945.097 159.387 943.088 159.387C941.414 159.387 939.74 160.726 939.74 162.734Z" fill="#F1A037" fill-opacity="0.63"/>
<path d="M977.57 194.202C971.879 197.55 970.875 199.224 973.888 202.237C976.231 204.58 980.583 206.254 983.596 206.254C989.957 206.254 1000 197.885 1000 192.528C1000 188.176 986.609 189.18 977.57 194.202Z" fill="#F1A037" fill-opacity="0.63"/>
<path d="M963.174 236.383C960.496 238.057 959.827 239.73 961.5 239.73C963.509 239.73 967.192 238.057 969.87 236.383C972.548 234.709 973.552 233.035 971.544 233.035C969.87 233.035 965.853 234.709 963.174 236.383Z" fill="#F1A037" fill-opacity="0.63"/>
<path d="M954.137 262.162C951.794 262.831 949.785 265.844 949.785 268.188C949.785 270.531 948.111 273.209 946.103 273.879C943.759 274.549 948.446 277.227 956.146 279.57C967.193 282.583 971.545 282.918 975.228 279.57C987.614 269.192 970.876 255.132 954.137 262.162Z" fill="#F1A037" fill-opacity="0.63"/>
<path d="M911.286 306.684C910.282 308.357 912.291 310.031 915.973 310.031C919.991 310.031 923.004 308.357 923.004 306.684C923.004 304.675 920.995 303.336 918.317 303.336C915.639 303.336 912.291 304.675 911.286 306.684Z" fill="#F1A037" fill-opacity="0.63"/>
<path d="M926.349 356.902C929.027 358.576 933.045 360.25 934.718 360.25C936.727 360.25 935.723 358.576 933.045 356.902C930.366 355.228 926.684 353.555 924.675 353.555C923.001 353.555 923.671 355.228 926.349 356.902Z" fill="#F1A037" fill-opacity="0.63"/>
<path d="M965.854 369.296C968.198 370.3 971.211 369.965 972.215 368.961C973.554 367.957 971.546 366.953 967.863 367.287C964.181 367.287 963.176 368.292 965.854 369.296Z" fill="#F1A037" fill-opacity="0.63"/>
</svg>
