<svg width="999" height="447" viewBox="0 0 999 447" fill="none" xmlns="http://www.w3.org/2000/svg">
<path d="M156.031 3.09491C150.797 4.96991 145.016 7.78241 140.016 10.9855C121.578 22.7043 113.219 27.3918 81.8127 43.4855C63.5315 52.7824 47.3596 61.1418 45.8752 62.0793C40.719 65.2043 31.4221 72.548 20.4846 82.3137C7.59396 93.7199 4.85958 96.6887 2.43771 102.001C-1.54667 110.595 0.328331 109.579 11.4221 97.0012C21.969 85.1262 25.4065 82.0793 33.9221 77.0793C37.8283 74.7355 43.219 71.0637 45.8752 68.9543C49.5471 65.9855 51.7346 64.8137 55.1721 64.1887C65.094 62.1574 65.7971 61.923 66.969 60.1262C70.4846 54.5793 80.2502 48.3293 89.2346 45.8293C91.8127 45.1262 97.2033 43.4855 101.11 42.0793C108.063 39.7355 108.531 39.6574 112.828 40.673C119.703 42.2355 126.188 42.6262 127.438 41.6105C127.985 41.1418 130.172 37.8605 132.203 34.2668C137.281 25.5168 137.594 25.3605 141.344 29.5012C142.75 31.0637 146.11 33.4074 148.766 34.6574C154.391 37.3137 156.11 39.3449 157.906 45.673C159.469 50.9855 164.703 56.6887 172.047 61.0637C176.11 63.4855 177.36 63.798 181.891 63.798H187.047L196.344 70.9074C224.547 92.4699 243.141 99.1105 264.391 95.048C272.203 93.5637 281.578 93.5637 288.063 95.1262C290.875 95.7512 299.781 98.4074 307.828 100.986C315.953 103.564 322.75 105.517 322.985 105.282C323.453 104.814 319.156 102.079 302.75 92.3137C295.953 88.3293 290.406 84.8137 290.406 84.5793C290.406 83.7199 307.203 75.2824 310.016 74.7355C311.656 74.423 316.344 74.8918 321.578 75.8293C326.5 76.6887 330.875 77.1574 331.422 76.8449C331.969 76.5324 333.844 74.5012 335.563 72.3137C340.25 66.3762 353.219 58.0168 355.016 59.8137C355.328 60.048 354.391 61.5324 352.985 62.9387C349.235 66.7668 350.25 67.548 357.906 67.1574C365.25 66.7668 367.672 65.673 384.938 54.5012C390.719 50.8293 396.735 47.3918 398.375 46.8449C402.438 45.5949 405.797 46.5324 412.75 50.8293C416.188 52.8605 424.547 58.0168 431.422 62.2355C444.235 70.1262 472.047 84.9699 475.563 85.8293C477.36 86.298 477.438 86.2199 476.344 84.8918C474.391 82.4699 424.86 43.0949 418.688 39.1105C408.063 32.1574 403.766 31.6887 386.11 35.673C371.031 39.0324 364.469 41.4543 322.047 59.1887C299.938 68.4074 281.344 75.9074 280.719 75.9074C279.547 75.9074 234.313 44.2668 225.953 37.6262C221.578 34.1105 215.406 27.9387 210.641 22.2355C208.61 19.8137 207.125 19.1887 193.375 15.3605C190.25 14.5793 187.281 12.8605 183.61 9.89178C178.141 5.51678 170.016 1.06366 166.344 0.516783C165.094 0.360533 160.797 1.45428 156.031 3.09491ZM153.688 20.8293C155.016 21.5324 156.031 22.1574 156.031 22.3918C156.031 22.548 154.547 24.0324 152.75 25.8293C149.235 29.1105 149.078 29.1105 145.094 25.9855L143.141 24.423L145.406 22.0793C147.985 19.423 150.25 19.0324 153.688 20.8293ZM185.406 22.9387C188.844 26.0637 189 26.1418 191.578 25.2043C193.766 24.423 194.547 24.5012 196.031 25.3605C197.047 25.9855 199.078 26.7668 200.641 27.0012C202.281 27.3137 204 28.0949 204.547 28.798C205.172 29.5012 210.016 33.6418 215.328 37.9387C220.641 42.3137 225.953 46.6105 227.047 47.548C229.078 49.1887 229.078 49.1887 227.594 50.8293C226.422 52.1574 226.266 52.7043 227.047 53.4855C227.516 53.9543 234.703 59.3449 242.906 65.3605C251.188 71.3762 258.063 76.7668 258.219 77.3137C258.844 79.423 242.516 68.8762 227.672 57.7824C222.594 53.9543 218.141 50.9074 217.828 51.0637C217.438 51.2199 220.797 56.3762 225.25 62.6262C229.703 68.8762 233.063 74.0324 232.594 74.1887C232.203 74.3449 227.906 71.3762 223.141 67.548L214.469 60.673L209.781 51.4543C204.235 40.5168 202.203 37.9387 198.375 36.7668C195.953 36.0637 194.86 36.2199 191.266 37.6262C188.922 38.4855 184.86 39.5012 182.203 39.7355C177.985 40.1262 177.203 39.9699 175.328 38.3293C174.156 37.3137 172.828 35.048 172.281 33.3293C171.266 30.2824 171.188 30.2043 167.047 29.8137C164.156 29.5012 162.516 28.8762 161.813 27.8605C160.797 26.5324 160.875 26.298 162.36 25.7512C163.297 25.3605 165.406 23.8762 167.125 22.3918C169.938 19.8137 170.328 19.6574 175.953 19.6574C181.813 19.6574 181.891 19.6574 185.406 22.9387Z" fill="#F1A037" fill-opacity="0.63"/>
<path d="M91.5785 71.6886C64.1567 76.7668 43.3754 91.923 30.5629 116.064C22.9848 130.361 19.5473 143.876 18.766 162.236C17.8285 186.767 22.3598 206.22 33.141 223.329C41.0317 235.907 49.9379 244.657 62.7504 252.314L69.5473 256.376L49.6254 256.532L29.6254 256.767L45.7973 279.657C59.8598 299.579 62.1254 302.47 63.6098 302.079C65.8754 301.532 66.8129 303.251 64.9379 304.579C63.4535 305.673 63.4535 305.673 65.016 305.439C66.1879 305.282 66.5004 305.595 66.4223 306.767C66.1879 308.564 67.4379 310.907 68.2192 310.048C68.5317 309.814 68.2973 309.032 67.8285 308.407C66.6567 307.001 67.9067 306.064 70.1723 306.767C71.6567 307.236 71.8129 307.079 71.5004 304.97C71.1098 302.47 72.1254 301.689 75.016 302.314C76.1098 302.548 76.4223 303.095 76.1098 304.501C75.9535 305.517 76.0317 306.376 76.266 306.376C76.5004 306.376 76.8129 308.329 76.891 310.595C77.0473 314.736 76.9692 314.892 74.8598 315.361C72.1254 315.986 72.1254 316.689 75.4067 321.454C77.5942 324.657 78.2192 325.048 79.4692 324.345C80.641 323.72 82.2035 324.032 86.5004 325.829L91.9692 328.173L97.3598 325.907L102.829 323.564L108.063 325.986C113.141 328.251 113.532 328.251 116.188 327.157C120.875 325.126 123.219 324.892 119.86 326.689C118.219 327.548 117.125 328.642 117.36 329.032C117.672 329.501 117.36 329.814 116.735 329.814C116.11 329.814 115.407 330.282 115.172 330.907C114.86 331.767 115.25 332.001 116.657 331.845C119.235 331.532 119.704 330.907 118.454 329.345C117.516 328.173 117.516 328.095 119.079 328.564C120.016 328.876 120.954 328.798 121.188 328.329C121.422 327.939 122.36 327.782 123.219 328.017C124.938 328.486 125.407 326.845 123.922 325.361C123.297 324.736 123.61 324.189 124.86 323.329C126.735 322.001 127.907 322.236 127.907 323.954C127.907 324.501 128.532 325.204 129.235 325.439C130.407 325.907 130.407 326.064 129.469 326.767C128.454 327.392 128.454 327.548 129.469 328.251C131.344 329.423 131.969 329.189 131.422 327.392C130.954 325.986 131.11 325.829 132.594 326.298C133.766 326.689 134.157 326.611 133.844 325.986C133.532 325.517 133.688 325.126 134.079 325.126C134.547 325.126 134.938 325.439 134.938 325.907C134.938 326.298 135.485 326.689 136.11 326.689C136.735 326.689 137.282 327.001 137.282 327.47C137.282 327.861 136.735 328.017 136.11 327.782C135.407 327.47 134.938 327.782 134.938 328.564C134.938 330.517 135.25 330.986 136.266 330.751C137.047 330.595 137.204 331.611 136.969 334.657C136.735 336.923 136.813 338.173 136.969 337.392C137.516 335.673 138.766 335.673 138.532 337.392C138.219 339.501 136.891 339.423 130.954 336.845L125.329 334.345L120.016 336.923L114.704 339.423L108.766 336.923L102.75 334.423L97.3598 336.923C92.7504 339.111 91.6567 339.267 89.9379 338.564C87.1254 337.236 87.0473 337.314 89.0004 340.673C90.641 343.564 90.7192 343.798 89.391 345.204C86.266 348.72 89.5473 349.111 96.5004 346.064C102.829 343.251 101.891 343.251 111.266 347.079C113.532 348.017 114.235 347.861 119.547 345.517L125.329 343.017L130.485 345.517L135.719 348.095L139.782 346.298C142.047 345.282 145.094 344.032 146.5 343.486C148.844 342.704 152.829 338.954 152.907 337.548C152.907 337.314 151.579 336.454 149.86 335.751C146.969 334.423 146.813 334.423 143.532 336.064C139.625 338.095 139 337.704 138.532 332.939C138.375 331.845 138.219 330.595 138.063 330.204C137.516 328.173 138.141 326.689 139.547 326.689C140.407 326.689 142.125 325.829 143.375 324.736L145.797 322.704L147.047 324.501L148.375 326.298L147.907 324.111C147.36 321.689 147.204 321.767 150.485 322.861C151.891 323.329 152.907 324.267 152.907 324.97C152.907 326.064 153.063 326.064 153.61 325.204C154.157 324.345 154.625 324.423 156.266 325.517C157.36 326.22 158.922 326.611 159.782 326.376C161.813 325.673 174.782 307.001 174.782 304.736C174.782 303.251 174.938 303.095 175.563 304.032C176.188 304.97 176.344 304.892 176.344 303.486C176.344 302.548 176.813 301.689 177.438 301.532C178.375 301.376 209.938 257.704 209.938 256.689C209.938 256.532 197.985 256.376 183.454 256.376H156.969L138.454 284.501C128.219 299.97 119.704 312.626 119.469 312.626C119.235 312.626 118.61 312.001 117.985 311.298C116.969 310.048 116.969 310.126 117.36 312.314C117.75 314.189 117.516 314.892 116.5 315.282C115.25 315.751 113.063 314.579 113.063 313.407C113.063 313.095 113.844 312.548 114.86 312.236C116.11 311.845 116.266 311.611 115.407 311.298C114.782 311.064 113.61 310.126 112.907 309.189C111.344 307.236 110.016 308.173 111.344 310.282C111.891 311.142 111.969 311.923 111.5 312.236C110.407 312.861 110.875 315.986 112.282 317.157C113.063 317.782 112.438 317.782 110.407 316.923C108.766 316.298 107.36 315.751 107.282 315.751C107.282 315.751 107.125 314.657 107.047 313.407C106.969 311.845 107.204 311.064 107.985 311.064C109.157 311.064 110.407 308.095 109.547 307.314C109.235 307.001 108.766 307.236 108.61 307.704C107.907 309.736 106.891 308.642 106.969 305.907C107.047 303.72 107.516 302.939 108.922 302.392C111.5 301.454 111.5 301.376 111.5 304.032C111.5 305.829 111.813 306.376 113.063 306.376C113.922 306.376 114.625 306.22 114.625 305.986C114.625 305.829 108.454 295.907 100.875 284.032C93.3754 272.236 87.2817 262.392 87.4379 262.236C87.5942 262.079 89.0785 262.314 90.7973 262.704C96.3442 264.032 115.407 264.501 123.688 263.407C162.438 258.564 191.188 231.064 199.938 190.517C202.438 178.954 202.438 155.673 199.938 144.111C192.125 107.861 168.219 81.923 134.313 73.0168C127.75 71.298 124.704 70.9855 112.282 70.7511C101.735 70.5949 96.1098 70.8293 91.5785 71.6886ZM120.485 109.111C132.907 112.314 142.438 120.517 148.532 133.095C154.469 145.361 155.563 151.064 155.641 168.876C155.641 182.704 155.485 184.657 153.844 189.97C148.375 207.392 138.141 219.111 123.922 224.111C119.079 225.829 116.813 226.142 109.547 226.142C100.172 226.142 94.1567 224.657 87.9848 220.751C74.0004 211.923 64.5473 193.017 63.2973 171.22C62.516 157.001 64.8598 144.736 70.5629 133.095C76.6567 120.673 86.1879 112.236 97.516 109.189C103.141 107.626 114.704 107.626 120.485 109.111ZM89.8598 303.329C89.6254 304.189 89.8598 304.814 90.3285 304.814C90.7973 304.814 91.1879 305.282 91.1879 305.907C91.1879 307.548 93.5317 308.095 96.6567 307.157C98.0629 306.767 99.391 306.532 99.6254 306.689C99.7817 306.845 99.5473 308.329 99.0785 310.048C98.5317 312.001 98.5317 313.095 99.0004 313.251C99.4692 313.407 99.7817 313.876 99.7817 314.267C99.7817 314.736 99.4692 314.814 99.0004 314.579C98.6098 314.345 98.2192 314.657 98.2192 315.282C98.2192 315.986 97.516 316.532 96.6567 316.532C95.7973 316.532 95.0942 316.845 95.0942 317.236C95.0942 317.626 94.391 317.782 93.5317 317.548C92.5942 317.314 91.9692 317.548 91.9692 318.095C91.9692 318.798 91.4223 318.642 90.016 317.782C88.9223 317.079 88.0629 316.689 88.0629 316.923C88.0629 317.157 87.3598 317.001 86.5785 316.532C85.2504 315.907 85.0942 314.892 85.0942 309.501C85.0942 304.423 85.3285 303.407 86.1098 304.032C86.891 304.736 87.0473 304.579 86.7348 303.407C86.4223 302.236 86.8129 301.845 88.2973 301.845C89.7817 301.845 90.0942 302.236 89.8598 303.329ZM99.6254 303.017C99.4692 303.72 97.8285 304.892 95.9535 305.751C93.2973 306.845 92.7504 306.923 93.4535 306.064C94.0004 305.439 94.2348 304.501 94.0004 304.111C93.3754 303.095 95.7192 301.767 98.0629 301.689C99.391 301.689 99.8598 302.079 99.6254 303.017ZM133.532 302.548C134.625 303.173 134.86 303.564 134.235 303.954C133.61 304.345 133.844 304.97 134.938 305.986C136.5 307.47 136.579 307.392 137.047 305.751C137.282 304.814 137.75 304.267 138.141 304.501C139.157 305.126 139 303.72 137.907 302.626C137.204 301.923 137.282 301.689 138.297 301.689C139 301.689 139.625 302.157 139.704 302.626C139.704 303.407 139.86 303.407 140.172 302.626C140.485 301.845 140.797 301.845 141.657 302.548C142.438 303.173 142.75 305.282 142.75 309.892V316.298L139.625 317.548C137.75 318.251 136.5 318.407 136.5 317.939C136.5 317.47 135.719 317.314 134.547 317.626C133.454 317.939 132.594 317.782 132.594 317.314C132.594 316.923 132.047 316.532 131.422 316.532C130.016 316.532 128.375 313.72 129.469 313.017C129.938 312.704 129.782 311.689 129.079 310.204C127.594 307.47 128.219 306.142 130.485 306.767C131.422 307.079 132.829 307.47 133.61 307.626C134.313 307.861 134.938 307.704 134.938 307.236C134.938 306.845 134.157 306.298 133.219 305.986C130.016 305.126 127.907 303.798 127.907 302.704C127.907 301.454 131.266 301.376 133.532 302.548ZM156.032 305.282C156.032 307.392 155.797 307.782 154.704 307.392C153.61 307.001 153.688 307.314 155.016 308.642C156.813 310.361 158.375 310.829 158.375 309.579C158.375 309.189 157.985 308.72 157.438 308.564C155.563 307.939 157.672 306.376 159.704 306.845C161.657 307.392 161.735 307.236 161.266 304.892C160.719 302.47 160.797 302.392 163.297 302.626L165.797 302.861L165.719 307.314C165.719 309.736 165.954 311.611 166.344 311.376C166.657 311.142 166.969 311.845 166.969 312.939C166.969 315.048 165.016 316.611 163.141 315.907C162.516 315.751 162.282 315.907 162.594 316.376C162.829 316.767 162.047 317.548 160.719 317.939C159 318.564 158.454 318.564 158.61 317.939C158.688 317.392 158.063 316.923 157.204 316.767C152.985 315.986 152.125 315.595 152.125 314.501C152.125 313.876 152.516 313.564 152.907 313.798C153.375 314.032 153.688 313.72 153.688 313.095C153.688 312.392 153.375 311.845 152.907 311.845C151.735 311.845 151.891 302.704 153.141 302.236C155.016 301.611 156.032 302.626 156.032 305.282Z" fill="#F1A037" fill-opacity="0.63"/>
<path d="M162.672 304.735C162.438 305.125 162.594 305.672 163.063 305.985C163.453 306.219 163.844 305.907 163.844 305.282C163.844 303.875 163.375 303.641 162.672 304.735Z" fill="#F1A037" fill-opacity="0.63"/>
<path d="M153.531 305.358C154.078 305.593 154.781 305.515 155.016 305.28C155.328 305.046 154.859 304.812 154 304.89C153.141 304.89 152.906 305.124 153.531 305.358Z" fill="#F1A037" fill-opacity="0.63"/>
<path d="M161.5 313.484C161.5 313.874 161.891 314.031 162.281 313.796C162.75 313.562 163.062 313.171 163.062 312.937C163.062 312.78 162.75 312.624 162.281 312.624C161.891 312.624 161.5 313.015 161.5 313.484Z" fill="#F1A037" fill-opacity="0.63"/>
<path d="M376.344 95.8281V119.578L364.469 119.812L352.516 120.047L352.281 133.875L352.125 147.781H364.234H376.344V188.641C376.344 226.766 376.422 229.969 377.906 235.516C381.109 248.25 388.453 255.594 400.953 258.719C405.719 259.891 422.125 259.891 432.906 258.719C437.281 258.172 440.797 257.781 440.875 257.703C440.953 257.625 441.188 250.672 441.5 242.156L441.969 226.844L433.531 226.375C423.922 225.75 420.719 224.656 418.531 221.062C417.047 218.562 416.969 217.078 416.969 183.094V147.781H430.25H443.531V133.719V119.656H430.25H416.969V95.8281V72H396.656H376.344V95.8281Z" fill="#F1A037" fill-opacity="0.63"/>
<path d="M544.313 101.295V130.592L539.781 127.467C529 120.202 519.078 116.999 506.813 116.999C490.641 116.999 477.906 123.014 467.516 135.67C451.5 155.124 445.719 186.139 452.984 214.499C457.594 232.702 469.313 249.264 482.594 256.295C502.516 266.92 524.547 264.967 541.813 250.905L546.656 246.92V253.249V259.499H565.406H584.156V165.749V71.9985H564.234H544.313V101.295ZM529.469 149.42C540.094 153.952 545.25 166.842 545.25 188.795C545.328 201.53 544 208.561 539.938 216.999C530.25 237.389 505.953 238.483 496.422 218.874C492.359 210.592 490.953 203.249 490.875 190.358C490.875 177.467 491.813 172.311 495.797 163.717C502.438 149.499 516.188 143.717 529.469 149.42Z" fill="#F1A037" fill-opacity="0.63"/>
<path d="M655.797 117.703C638.766 120.672 625.094 127.234 615.094 137.234C607.204 145.047 601.891 154.813 598.844 167.078C597.282 173.094 597.047 175.906 597.125 189.188C597.125 203.172 597.36 205.047 599.235 212.156C607.282 242.156 629.547 259.422 664.391 262.703C706.188 266.531 738.063 243.797 744.782 205.281C746.5 195.75 745.875 178.25 743.61 168.953C741.735 161.688 737.203 151.453 733.375 145.828C729.547 140.281 721.813 132.391 716.578 128.641C710.172 124.109 705.016 121.609 696.891 119.188C690.719 117.313 688.532 117.078 675.953 116.844C666.578 116.688 659.86 117 655.797 117.703ZM685.172 150.359C697.594 156.063 704.547 169.969 704.547 189.188C704.547 204.578 700.953 214.656 692.438 222.703C685.25 229.422 675.797 232.234 665.641 230.594C648.375 227.781 637.282 211.453 637.282 188.797C637.282 168.172 646.735 153.563 663.063 148.797C668.844 147.156 679.86 147.938 685.172 150.359Z" fill="#F1A037" fill-opacity="0.63"/>
<path d="M817.359 117.391C799.156 120.048 783.297 127.938 772.594 139.579C760.25 153.095 754.234 175.438 756.734 198.719C759 219.266 764.859 231.844 777.906 244.188C789.234 254.735 804.391 260.829 824.078 262.626C837.906 263.876 851.812 262.157 863.062 257.782C879.391 251.454 894.078 236.766 900.406 220.438C908.062 200.829 907.359 174.813 898.766 156.141C889.625 136.376 872.203 122.235 851.891 118.016C844.078 116.454 826.266 116.141 817.359 117.391ZM844.859 150.438C853.062 154.188 859 161.688 862.437 172.782C864 177.782 864.234 180.204 864.156 189.579C864.156 199.423 863.922 201.141 862.047 206.688C856.422 222.782 846.031 230.829 830.641 230.829C821.422 230.829 816.266 228.876 810.016 223.094C801.109 214.891 797.125 204.11 797.203 188.407C797.203 179.97 797.516 177.782 799.312 172.235C802.359 162.782 808.297 155.36 815.953 151.376C824.234 147.157 836.656 146.766 844.859 150.438Z" fill="#F1A037" fill-opacity="0.63"/>
<path d="M986.109 121.219C975.172 123.563 969.703 125.672 963.141 130.125C960.875 131.688 958.844 132.938 958.688 132.938C958.531 132.938 958.375 129.969 958.375 126.297V119.656H938.844H919.312V189.578V259.5L939.469 259.344L959.547 259.109L959.938 216.141C960.328 174.5 960.406 173.094 961.969 169.578C964.234 164.656 968.766 160.516 973.375 159.109C975.484 158.484 982.047 157.234 988.062 156.297L999 154.578V136.688C999 120.203 998.922 118.875 997.672 118.953C996.891 118.953 991.734 119.969 986.109 121.219Z" fill="#F1A037" fill-opacity="0.63"/>
<path d="M214.625 172.781C214.625 230.281 214.704 232 219.313 242.078C222.125 248.328 228.844 255.438 234.469 258.172C236.813 259.344 239.157 260.281 239.547 260.281C240.016 260.281 240.407 260.672 240.407 261.062C240.407 261.531 233.844 271.297 225.797 282.781L211.188 303.641L211.344 308.953C211.579 314.734 210.563 317.859 209.938 313.484C209.391 309.891 207.516 309.188 207.75 312.703C207.907 314.734 207.672 315.359 206.5 315.594C205.719 315.75 204.782 315.438 204.469 314.969C204 314.266 203.61 314.422 202.985 315.672C202.438 316.531 202.204 317.312 202.36 317.312C202.594 317.312 201.5 318.562 200.094 320.125C197.047 323.328 196.813 324.5 199 326.688C199.86 327.547 200.172 328.25 199.625 328.25C199.157 328.25 198.922 328.484 199.235 328.719C199.469 328.953 200.094 328.953 200.563 328.641C201.188 328.25 201.032 327.625 200.094 326.609C198.454 324.812 198.766 324.734 202.125 326.453C204.704 327.703 204.86 327.703 208.688 325.594C211.344 324.188 213.141 323.641 214.157 324.031C215.25 324.422 215.485 324.344 215.094 323.719C214.391 322.547 214.704 322.547 217.36 323.562C218.454 323.953 219.157 324.656 218.922 325.125C218.454 325.828 219.704 326.219 222.282 326.141C222.75 326.062 223.219 326.844 223.219 327.781C223.219 328.797 223.454 329.109 223.844 328.484C224.625 327.312 234.86 322.625 235.719 323.172C236.032 323.328 237.672 321.531 239.313 319.031L242.36 314.578L242.594 320.047C242.75 323.016 243.141 325.672 243.454 325.906C243.766 326.141 244.391 326.922 244.782 327.625C245.407 328.797 245.797 328.719 249.391 327.078C254.313 324.734 254.313 324.734 254.313 327.156C254.313 328.562 254 328.875 253.454 328.328C252.36 327.234 251.11 327.234 251.735 328.25C251.969 328.641 251.5 329.031 250.641 329.031C249.782 329.031 248.844 329.422 248.532 329.891C248.141 330.516 248.61 330.672 250.094 330.438C252.36 329.969 253.688 331.141 251.813 331.844C251.11 332.078 250.563 332.781 250.563 333.406C250.563 334.031 250.25 334.5 249.782 334.5C249.391 334.5 249 333.797 249 332.938C249 332.078 248.454 331.375 247.829 331.375C247.204 331.375 246.657 331.062 246.657 330.75C246.657 330.359 245.719 329.656 244.547 329.109C242.75 328.25 242.594 328.328 243.532 329.344C244.235 330.281 244.235 330.594 243.532 330.594C242.282 330.594 242.75 335.281 244.235 337C245.641 338.797 247.829 338.797 249.704 336.922C250.485 336.141 252.125 335.516 253.375 335.516C255.329 335.516 255.016 335.75 251.344 337.391C247.907 338.953 246.657 339.188 244.938 338.562L242.75 337.781V341.609C242.75 345.047 242.907 345.438 244.782 345.906C246.11 346.219 248.532 345.672 252.36 343.953C257.282 341.844 257.75 342.078 253.688 344.734C252.829 345.359 252.75 345.594 253.532 345.906C254 346.141 254.469 346.688 254.469 347.078C254.469 348.172 252.282 347.938 251.579 346.688C251.11 345.906 250.485 345.828 249 346.375C247.829 346.844 247.438 347.312 248.063 347.547C248.532 347.781 248.766 348.328 248.454 348.797C248.219 349.344 248.688 349.109 249.625 348.328C251.188 346.922 251.266 346.922 252.282 348.484C252.829 349.422 253.688 350.125 254.235 350.125C255.563 350.125 255.563 351.453 254.313 351.922C253.688 352.156 253.844 352.391 254.704 352.391C256.11 352.469 256.657 354.031 255.172 354.031C254.782 354.031 254.625 354.344 254.86 354.812C255.094 355.203 254.547 355.594 253.688 355.594C252.282 355.594 252.047 355.281 252.438 353.719C252.829 352.156 252.516 351.688 251.188 351.219C248.141 350.203 247.282 350.203 247.75 351.297C247.907 351.844 247.594 352.547 246.969 352.781C245.329 353.406 245.407 353.406 243.922 352C242.75 350.828 242.672 350.906 242.985 352.938C243.219 354.188 243.766 355.125 244.235 354.969C244.704 354.891 245.094 355.203 245.094 355.672C245.094 356.531 248.297 355.828 249 354.734C249.235 354.422 249.938 354.422 250.563 354.812C251.422 355.359 251.188 355.672 249.547 356.453C248.454 356.922 247.672 357.703 247.985 358.172C248.454 358.953 246.11 358.562 243.219 357.469C242.125 357.078 241.969 357.938 241.969 363.875C241.969 370.203 241.735 370.984 240.094 372.625C239.079 373.562 237.672 374.188 237.047 373.875C236.422 373.641 235.641 373.797 235.407 374.266C234.547 375.594 237.985 376.062 239.313 374.812C240.954 373.172 241.422 373.25 240.797 375.047C240.094 377.391 243.688 379.578 246.266 378.406C247.36 377.859 248.219 377.156 248.219 376.688C248.219 376.297 249.313 375.906 250.563 375.906C252.438 375.906 252.907 375.594 252.907 374.344C252.907 373.406 253.766 371.766 254.86 370.594C256.657 368.719 256.657 368.484 255.485 368.25C253.063 367.703 252.36 366.531 254.313 366.062C255.25 365.75 255.797 365.281 255.563 364.891C255.329 364.5 254.704 364.422 254.235 364.656C253.532 365.047 253.532 364.969 254.157 364.266C254.625 363.719 255.954 363.562 257.594 363.875C260.016 364.422 260.094 364.5 258.532 365.047C257.594 365.438 256.813 366.062 256.813 366.531C256.813 367.625 260.172 367.547 261.422 366.375C262.282 365.516 262.36 365.594 261.969 366.375C261.5 367.156 261.891 367.234 263.61 366.922C265.016 366.609 265.407 366.688 264.782 367.078C263.454 368.016 266.422 370.828 267.829 369.969C268.532 369.578 268.454 369.188 267.438 368.484C266.266 367.547 266.266 367.469 267.75 367.078C268.922 366.766 269.313 367.078 269.313 368.172C269.313 368.953 269.704 369.656 270.172 369.656C270.563 369.656 270.797 369.344 270.485 368.953C270.25 368.484 270.719 367.781 271.579 367.391C273.61 366.297 274 366.297 274 367.625C274 368.328 273.454 368.562 272.438 368.328C271.266 368.016 270.954 368.172 271.344 369.109C271.579 369.812 271.188 370.672 270.25 371.141C268.61 372 265.407 371.453 265.407 370.281C265.407 369.812 264.782 369.969 264.079 370.516C262.829 371.453 262.829 371.453 263.61 370.438C264.313 369.5 264.157 369.109 262.594 368.328C260.954 367.547 260.719 367.625 260.641 369.109C260.563 370.438 260.485 370.516 260.172 369.422C260.016 368.719 259.313 368.094 258.688 368.094C256.969 368.094 257.36 369.266 259.547 370.438L261.5 371.531L259.469 373.641C257.594 375.594 254.625 376.062 255.719 374.188C256.032 373.719 255.797 373.562 255.172 373.719C254.547 373.953 254.157 374.5 254.235 374.891C254.313 375.359 252.204 376.609 249.469 377.781L244.625 379.891L239.079 377.469C233.688 375.203 233.454 375.203 230.563 376.375C227.829 377.547 227.672 377.547 228.61 376.375C229.469 375.359 229.469 375.125 228.688 375.125C228.063 375.125 227.907 374.891 228.141 374.578C228.454 374.344 228.063 373.406 227.36 372.547C226.032 371.062 226.032 371.062 227.672 371.531C228.61 371.844 229.547 371.688 229.86 371.219C230.172 370.75 229.313 370.438 227.594 370.438C225.563 370.438 224.782 370.75 224.782 371.609C224.782 372.312 225.329 373.016 225.954 373.25C227.516 373.875 227.438 374.812 225.875 375.438C225.016 375.75 224.704 375.594 225.016 374.812C225.25 374.188 225.094 373.562 224.547 373.328C223.063 372.859 219.313 375.125 219.313 376.531C219.391 377.781 219.469 377.781 220.407 376.453C221.657 374.891 223.375 374.656 222.75 376.219C222.438 377 222.985 377.234 224.704 377C227.829 376.609 227.829 377.781 224.782 379.031C222.829 379.812 221.969 379.812 220.25 379.031C219.079 378.562 216.5 377.469 214.547 376.688L211.032 375.281L205.719 377.625L200.407 379.969L194.704 377.469L189.079 375.047L183.454 377.547L177.907 380.047L172.36 377.469L166.813 374.891L161.422 377.469L156.11 380.047L150.485 377.469L144.86 374.891L141.422 376.609C139.547 377.469 137.907 378.25 137.75 378.25C137.204 378.25 136.344 374.734 136.5 373.328C136.579 372.547 136.266 371.453 135.797 370.906C134.079 368.797 135.954 367 139.313 367.391C139.547 367.391 140.563 366.453 141.5 365.359L143.297 363.25L144.704 365.047L146.032 366.922L145.563 364.734C145.25 363.562 145.407 362.625 145.797 362.625C147.438 362.625 150.563 364.5 150.563 365.516C150.563 366.062 150.954 366.531 151.422 366.531C151.813 366.531 151.969 366.141 151.735 365.75C151.032 364.578 151.969 364.812 154.469 366.219C156.422 367.469 156.813 367.391 160.25 366.141L163.844 364.734L162.282 362.312C161.422 360.984 160.172 359.969 159.547 359.969C158.922 360.047 158.375 359.656 158.375 359.031C158.375 358.406 157.907 358.172 157.125 358.484C156.5 358.719 155.172 358.25 154.235 357.391C151.891 355.203 147.829 354.578 146.344 355.984C145.016 357.391 144 357.547 144.782 356.297C145.094 355.672 144.704 355.594 143.532 355.984C142.047 356.453 141.891 356.297 142.36 354.891C142.672 353.875 142.516 353.25 141.969 353.25C141.344 353.25 141.422 352.625 142.282 351.297C143.454 349.5 143.454 349.266 142.36 348.875C140.563 348.172 140.016 349.031 139.86 352.938C139.782 355.359 140.016 356.297 140.641 355.906C141.188 355.672 140.875 356.062 140.016 356.766C139.157 357.469 138.532 358.406 138.688 358.797C139.079 360.281 136.422 360.438 135.407 359.031C134 357.156 134.704 355.438 136.579 355.984C137.594 356.297 138.063 356.062 138.063 355.359C138.063 354.5 137.36 354.188 135.329 354.344C133.766 354.5 132.36 354.266 132.125 353.875C131.891 353.484 130.954 353.406 130.172 353.641C128.766 354.109 128.688 354.031 129.625 352.547C130.797 350.672 132.75 350.281 132.125 352.078C131.813 352.703 131.969 353.25 132.36 353.25C133.766 353.25 134.157 352.234 133.219 351.141C132.516 350.281 132.516 349.812 133.454 349.266C134.469 348.641 134.391 348.484 132.594 348.25C132.125 348.25 131.5 347.781 131.188 347.312C130.875 346.844 129.86 346.219 128.922 345.906C127.438 345.438 127.125 345.594 127.125 347C127.125 348.328 127.438 348.562 128.688 348.172C130.641 347.547 130.719 348.719 128.766 350.438C127.438 351.688 127.282 351.609 126.032 349.734C124.391 347.234 121.657 347.234 119.391 349.656L117.594 351.609L120.954 352.469C122.75 352.938 125.094 353.25 126.11 353.016C127.204 352.859 127.907 353.094 127.907 353.641C127.907 354.188 128.688 354.969 129.704 355.438C130.641 355.906 130.954 356.297 130.407 356.297C129.86 356.375 128.375 355.828 127.125 355.203C124.938 354.109 124.547 354.109 119.625 356.375C116.735 357.625 113.922 358.719 113.375 358.719C112.829 358.719 110.25 357.781 107.594 356.688L102.907 354.578L97.9849 356.688C92.2036 359.109 91.0317 359.188 86.5786 357.156C84.7036 356.297 82.9849 355.594 82.6724 355.594C82.3599 355.594 80.7192 357.625 79.0005 360.047C74.2349 366.844 74.2349 366.844 76.8911 365.516C78.7661 364.5 79.4692 364.5 81.5786 365.359C83.4536 366.141 83.9224 366.766 83.6099 368.016C83.3755 368.875 82.5161 369.812 81.6567 370.125C79.4692 370.75 81.3442 372 83.688 371.375C85.0161 370.984 85.1724 371.141 84.3911 372.078C83.688 372.938 83.8442 373.328 85.4067 374.109C86.4224 374.578 87.2817 374.734 87.2817 374.5C87.2817 374.188 88.1411 373.953 89.2349 373.953C90.3286 373.953 91.188 374.422 91.188 375.047C91.188 375.594 90.7192 375.906 90.0161 375.672C88.6099 375.047 87.9067 376.141 88.5317 377.859C89.0786 379.266 91.6567 379.109 91.4224 377.625C91.2661 377.078 91.5786 376.688 92.0474 376.688C92.5161 376.688 92.7505 376.219 92.5161 375.594C92.2817 374.969 92.5942 374.266 93.2192 374.031C95.0161 373.328 95.3286 373.484 94.8599 374.656C94.5474 375.438 94.7817 375.672 95.563 375.359C96.2661 375.125 96.6567 375.359 96.5005 375.984C96.3442 376.609 94.7817 377.703 92.9067 378.562L89.6255 380.047L83.688 377.469L77.7505 374.812L73.063 377.391C70.563 378.797 67.7505 379.812 66.9692 379.578C65.9536 379.344 64.8599 380.203 62.9849 382.781C60.7974 385.828 60.6411 386.375 61.6567 387.156C62.5942 387.859 62.9067 389.578 62.9067 394.109C62.9067 399.031 62.6724 400.047 61.8911 399.344C61.0317 398.641 60.9536 398.797 61.2661 399.969C61.5786 401.219 61.188 401.453 59.6255 401.453C57.9067 401.531 57.7505 401.297 58.4536 400.047C59.0005 398.875 58.9224 398.719 57.9849 399.031C57.2817 399.344 56.813 399.031 56.813 398.328C56.813 396.844 54.7817 395.125 53.7661 395.75C53.2192 396.141 53.2192 396.922 53.688 398.25C54.3911 400.047 54.2349 400.281 51.813 401.297C49.7036 402.156 46.7349 405.906 37.2817 419.422C30.6411 428.797 23.7661 438.641 21.813 441.297L18.3755 446.219H44.8599H71.3442L86.5005 423.875C94.8599 411.609 102.047 400.828 102.438 400.047C102.985 398.875 102.829 398.172 101.813 397.156C100.563 395.906 100.485 395.906 100.094 397.547C99.7817 398.562 99.313 399.109 98.9224 398.875C97.9067 398.25 98.063 399.656 99.1567 400.75C99.8599 401.453 99.7817 401.688 98.7661 401.688C98.063 401.688 97.438 401.219 97.438 400.672C97.438 400.047 97.1255 400.125 96.6567 400.906C96.0317 401.844 95.8755 401.688 95.8755 400.125C95.8755 398.562 95.7192 398.406 95.0942 399.344C94.5474 400.125 94.313 398.562 94.313 394.109C94.313 388.641 94.5474 387.547 95.7974 386.922C96.5786 386.453 97.438 386.375 97.7505 386.609C97.9849 386.844 98.2192 386.688 98.2192 386.219C98.2192 385.75 99.4692 385.438 101.344 385.516C103.063 385.594 104.469 385.906 104.469 386.219C104.469 386.531 104.938 386.844 105.485 386.844C107.125 386.844 109.157 389.656 108.141 390.672C107.672 391.141 107.438 391.688 107.672 391.844C107.985 392.156 112.282 386.219 116.579 379.578L117.985 377.391L115.172 378.719C112.36 380.047 112.282 380.047 106.5 377.469C101.813 375.438 100.563 374.578 100.563 373.25C100.485 371.609 100.485 371.609 99.3911 373.094C98.6099 374.188 98.4536 374.812 99.0786 375.203C99.6255 375.516 99.4692 375.828 98.688 376.141C97.7505 376.531 97.438 376.141 97.438 374.734C97.438 373.641 97.438 372.547 97.438 372.156C97.438 371.844 97.9067 371.609 98.4536 371.609C98.9224 371.609 99.3911 371.141 99.313 370.594C99.2349 370.125 99.1567 368.875 99.0786 367.859C99.0005 366.297 98.8442 366.375 97.7505 368.641C96.6567 370.828 96.2661 371.062 94.5474 370.359C93.1411 369.891 92.8286 369.891 93.2192 370.594C93.6099 371.219 93.2192 371.297 92.1255 371.062C90.8755 370.672 90.4067 370.906 90.4067 371.844C90.4067 372.938 90.2505 372.938 89.3911 371.766C88.8442 370.984 87.6724 370.516 86.5786 370.594C85.2505 370.75 84.7036 370.359 84.4692 369.344C84.0786 366.922 84.7817 366.531 87.5161 367.703C89.8599 368.641 90.4849 368.562 95.4067 366.453L100.797 364.188L106.188 366.688C111.5 369.109 111.579 369.109 114.313 367.859C117.672 366.219 119.704 366.141 116.813 367.781C114.547 368.953 113.844 369.891 115.719 369.188C116.344 368.953 117.594 369.5 118.532 370.438C119.391 371.297 120.563 371.844 121.032 371.531C121.579 371.219 121.422 370.75 120.563 370.281C118.766 369.266 119 367.859 120.875 368.484C122.594 369.031 123.063 367.469 121.657 366.062C121.11 365.516 121.344 364.812 122.36 363.875C124 362.391 125.563 362.781 125.563 364.578C125.563 365.125 126.188 365.828 126.891 366.062C128.063 366.531 128.063 366.688 127.125 367.391C126.11 368.016 126.11 368.172 127.125 368.875C128.063 369.5 128.063 369.656 127.204 369.656C126.422 369.656 126.344 369.891 127.047 370.672C127.516 371.297 127.672 372 127.36 372.234C127.125 372.547 127.516 372.781 128.219 372.781C129.235 372.781 129.469 372.391 129.157 371.453C128.844 370.75 129.079 369.891 129.625 369.578C130.329 369.109 130.25 368.719 129.391 367.625C128.375 366.453 128.454 366.375 130.172 366.922C131.422 367.312 131.813 367.234 131.5 366.609C131.188 366.141 131.344 365.75 131.813 365.75C132.36 365.75 132.672 366.844 132.594 368.25C132.36 372.703 132.516 373.406 133.375 372C134.079 370.984 134.235 370.984 134.86 372C135.329 372.625 135.407 373.328 135.094 373.562C134.782 373.797 134.469 375.203 134.391 376.688C134.313 378.172 134.469 378.797 134.625 378.094C135.172 376.375 136.422 376.219 136.188 377.859C135.875 380.125 134.86 380.047 129.079 377.547C119.704 373.406 119.704 374.188 128.844 387.859L136.813 399.812L139.547 398.406C142.438 396.922 145.719 396.375 143.61 397.703C143.063 398.094 142.75 398.797 143.063 399.188C143.688 400.281 140.641 401.922 139.157 401.375C138.532 401.141 138.063 401.141 138.063 401.375C138.063 401.609 144.782 411.844 153.063 424.031L167.985 446.219H194.391H220.797L205.407 424.031C195.407 409.578 189.547 401.766 188.688 401.766C187.907 401.688 187.282 401.219 187.282 400.672C187.282 399.969 187.125 399.969 186.657 400.75C186.11 401.531 185.719 401.375 184.782 400.359C184 399.422 183.61 397.156 183.532 393.25V387.469L186.735 386.062C188.766 385.203 190.329 384.969 190.875 385.359C191.344 385.75 192.36 385.906 193.063 385.594C193.766 385.359 194.313 385.516 194.313 385.984C194.313 386.453 194.782 386.844 195.407 386.844C197.047 386.844 198.61 389.109 197.672 390.047C197.125 390.594 197.125 391.688 197.672 393.562C198.141 395.047 198.297 396.375 198.141 396.609C197.907 396.766 196.422 396.609 194.782 396.141C191.969 395.359 191.579 395.438 189.86 397.312C187.672 399.656 188.063 400.906 190.875 400.906C191.969 400.906 192.672 400.594 192.36 400.203C192.125 399.812 192.36 399.188 192.75 398.953C193.297 398.562 193.141 398.016 192.204 397.391C191.188 396.609 191.735 396.609 194.547 397.547C196.579 398.172 198.219 399.266 198.219 399.812C198.219 400.594 199.391 400.906 202.516 400.906H206.813V397.703C206.813 394.891 206.969 394.578 207.985 395.438C208.922 396.219 209.157 396.219 209.157 395.203C209.157 394.5 208.61 393.484 207.985 392.781C207.36 392.156 206.813 390.75 206.813 389.656C206.813 388.094 207.516 387.312 209.938 386.062C211.579 385.203 213.454 384.5 214 384.5C214.547 384.5 213.922 385.047 212.594 385.75C210.329 386.844 209.547 389.031 210.954 390.438C211.188 390.672 211.266 392 211.032 393.406L210.641 395.828L212.125 394.109C212.985 393.094 214.079 392.312 214.547 392.312C215.016 392.312 215.407 391.922 215.407 391.531C215.407 391.062 214.86 390.75 214.235 390.75C212.672 390.75 212.75 388.484 214.235 387.938C216.032 387.234 217.985 389.109 216.891 390.438C216.032 391.531 216.5 393.094 217.829 393.094C218.219 393.094 218.532 391.844 218.532 390.359C218.532 388.875 218.922 387.625 219.391 387.625C219.938 387.625 220.094 389.891 219.938 394.266L219.704 400.906H224.079H228.454L228.141 397.781C227.985 395.906 228.141 394.656 228.688 394.656C229.079 394.656 229.469 394.969 229.469 395.438C229.469 395.828 229.86 396.219 230.25 396.219C230.719 396.219 231.032 395.672 231.032 395.047C231.032 394.422 230.641 393.875 230.172 393.875C229.782 393.875 229.625 393.562 229.86 393.094C230.094 392.703 229.782 392.312 229.157 392.312C228.454 392.312 227.907 391.688 227.985 390.906C227.985 390.125 228.219 389.969 228.454 390.516C228.61 391.062 229.313 391.531 229.938 391.531C230.485 391.531 231.188 392.391 231.5 393.406C232.047 395.75 233.61 396.375 237.047 395.75C239.469 395.281 239.625 395.125 238.454 393.953C236.813 392.078 236.969 391.062 238.61 392.781C239.86 394.031 240.016 393.953 240.954 391.453C241.813 388.953 241.891 389.266 241.657 394.891C241.5 398.25 241.735 401.141 242.047 401.375C242.438 401.609 242.75 411.609 242.75 423.641V445.438H264.235H285.719L285.875 423.406L286.11 401.297L289.86 401.062C291.891 400.906 293.532 400.516 293.532 400.125C293.532 399.812 294.157 399.656 295.016 399.891C296.657 400.281 297.516 398.719 296.891 396.297C296.422 394.344 294.938 394.031 295.25 395.906C295.407 396.688 295.016 397.391 294.547 397.547C293.063 398.094 293.297 394.891 294.704 394.344C295.329 394.109 295.875 393.562 295.875 393.016C295.875 392.547 295.329 392.312 294.704 392.625C293.844 392.938 293.532 392.547 293.61 391.297C293.61 390.359 293.844 390.047 294.079 390.516C294.235 391.062 294.938 391.531 295.485 391.531C296.032 391.531 296.891 392.625 297.36 393.875C297.985 395.75 298.61 396.219 300.329 396.141C301.5 396.141 303.141 395.828 303.922 395.516C305.25 395.047 305.25 394.891 304.157 393.953C303.454 393.406 302.907 392.547 302.907 392.156C302.907 391.766 303.532 392 304.235 392.781C305.485 394.031 305.641 393.953 306.579 391.453C307.516 388.953 307.516 389.031 307.36 394.266C307.282 397.234 306.891 399.969 306.422 400.281C306.032 400.594 307.516 400.906 309.782 400.906H313.844V385.281V369.656H302.125C292.594 369.656 290.25 369.891 289.938 370.75C289.469 372 287.282 371.531 286.344 370.125C286.032 369.656 285.719 366.141 285.719 362.391C285.719 356.766 285.407 355.125 284.235 353.562C283.375 352.391 282.516 352 282.204 352.469C281.969 352.859 281.891 353.562 282.125 353.953C282.36 354.266 281.657 354.422 280.563 354.188C278.766 353.875 278.766 353.797 280.016 352.781C280.797 352.234 281.188 351.688 280.875 351.609C280.016 351.453 278.844 351.141 278.141 350.906C277.75 350.828 278.375 350.516 279.469 350.203C281.891 349.5 284.938 350.75 284.391 352.156C284.157 352.781 284.391 353.25 284.86 353.25C286.11 353.25 286.032 337.078 284.782 336.609C284 336.297 284 336.141 284.782 336.141C285.485 336.062 285.719 327.469 285.719 295.828V255.672L290.485 252.312C293.141 250.438 295.954 248.484 296.735 247.859C298.141 246.844 298.219 247.078 298.219 253.172V259.5H318.532H338.844V189.969V120.438H318.532H298.219V166.609C298.219 199.422 297.985 213.719 297.282 215.828C294.313 225.906 280.172 232.156 268.375 228.719C262.75 227.156 259.391 224.266 257.125 219.266L255.25 215.359V167.859V120.438H234.938H214.625V172.781ZM223.688 304.109C223.297 306.219 223.454 306.453 225.016 306.219C225.954 306.062 227.204 305.047 227.75 303.797C228.844 301.531 230.329 301.062 231.657 302.703C232.907 304.188 233.844 314.578 232.75 313.875C232.204 313.562 231.813 312.469 231.813 311.375C231.813 309.578 231.657 309.5 230.094 310.359C228.454 311.219 228.375 311.219 229.391 309.969C230.719 308.406 230.563 308.25 227.516 307.625C224.938 307.078 224.079 307.547 222.75 309.891C222.282 310.75 221.266 311.609 220.485 311.766C219.157 312 219.079 311.922 220.329 310.672C222.047 308.953 222.204 306.531 220.485 307.938C219.469 308.797 219.313 308.562 219.391 306.297C219.469 304.812 219.625 304.266 219.86 304.969C220.329 306.688 222.438 306.844 222.438 305.125C222.438 304.422 221.657 303.719 220.719 303.406C219.079 303.016 219.079 302.938 220.563 302.391C223.61 301.219 224.235 301.531 223.688 304.109ZM243.375 302.469C241.5 303.641 241.735 308.016 243.844 309.734C245.094 310.75 245.172 310.984 244.079 310.594C243.375 310.359 242.204 310.516 241.579 311.062C240.563 311.922 240.407 311.531 240.719 308.016C241.032 304.031 242.204 301.688 243.844 301.688C244.313 301.688 244.079 302.078 243.375 302.469ZM275.407 302.625C276.579 303.797 276.657 304.812 275.563 304.812C275.172 304.812 274.86 304.344 275.016 303.797C275.094 303.25 274.469 302.859 273.454 302.938C272.516 302.938 271.891 302.703 272.125 302.312C272.672 301.375 274.313 301.531 275.407 302.625ZM245.563 306.531C244.469 307.312 244.391 307.078 244.938 304.422C245.407 302.078 245.407 302.078 245.875 304.031C246.188 305.125 246.032 306.219 245.563 306.531ZM252.907 303.25C252.907 304.266 252.047 304.266 250.563 303.25C249.625 302.625 249.704 302.469 251.188 302.469C252.125 302.469 252.907 302.781 252.907 303.25ZM265.407 303.016C264.313 303.25 263.219 303.797 262.907 304.344C262.516 304.891 262.282 304.891 262.282 304.344C262.282 303.016 263.219 302.469 265.329 302.547L267.36 302.703L265.407 303.016ZM254.235 305.75C254 306.297 253.844 305.906 253.844 304.812C253.844 303.719 254 303.328 254.235 303.797C254.391 304.344 254.391 305.281 254.235 305.75ZM251.969 306.844C252.282 306.688 252.516 307.703 252.516 309.188C252.516 310.672 252.204 311.766 251.735 311.609C251.344 311.453 251.032 310.359 251.188 309.188C251.266 308.094 251.032 307.156 250.641 307.156C250.172 307.156 250.094 306.531 250.407 305.75C250.875 304.5 250.954 304.5 251.188 305.828C251.344 306.531 251.735 307 251.969 306.844ZM272.75 306.062C273.141 307.078 273.063 307.156 272.204 306.531C271.579 305.984 270.797 305.906 270.485 306.219C270.094 306.531 270.094 306.297 270.407 305.75C271.188 304.422 272.204 304.578 272.75 306.062ZM276.344 309.266C276.344 310.594 276.032 310.828 274.704 310.516C273.766 310.203 272.75 310.516 272.36 311.141C271.969 311.766 271.657 311.844 271.657 311.453C271.657 310.984 272.36 310.047 273.219 309.266C274.079 308.562 274.782 307.312 274.782 306.609C274.782 305.438 274.938 305.359 275.563 306.375C275.954 307 276.344 308.328 276.344 309.266ZM268.375 306.922C267.594 307.078 266.188 307.078 265.25 306.922C264.235 306.766 264.86 306.609 266.579 306.609C268.297 306.531 269.079 306.688 268.375 306.922ZM265.719 310.594C265.485 311.297 264.782 311.844 264.235 311.844C263.688 311.844 262.985 312.312 262.829 312.781C262.594 313.406 262.36 313.25 262.36 312.391C262.282 311.688 262.829 311.062 263.532 311.062C264.157 311.062 264.547 310.75 264.313 310.359C264 309.969 264.313 309.5 264.782 309.266C266.11 308.797 266.344 309.031 265.719 310.594ZM254.235 312.781C254 313.406 253.766 313.172 253.766 312.312C253.688 311.453 253.922 310.984 254.157 311.297C254.391 311.531 254.469 312.234 254.235 312.781ZM222.282 316.219C223.688 316.844 224.782 317.547 224.782 317.703C224.782 318.25 220.094 316.375 219.625 315.672C219.079 314.734 219.469 314.812 222.282 316.219ZM260.641 323.797C261.657 323.484 261.657 323.641 260.563 324.344C259.782 324.812 259.157 325.516 259.157 325.906C259.157 327 262.594 326.844 263.766 325.672C264.391 325.203 264.625 325.125 264.391 325.594C264 326.219 265.172 326.453 268.063 326.297C271.891 326.219 272.204 326.297 271.813 327.703C271.422 329.188 271.5 329.188 273.141 327.547C274.079 326.609 275.172 326.062 275.563 326.297C275.954 326.531 276.657 325.984 277.125 325.125C277.594 324.266 278.532 323.562 279.313 323.641C280.094 323.641 280.25 323.875 279.704 324.109C279.157 324.266 278.688 324.969 278.688 325.594C278.688 326.219 278.141 326.688 277.516 326.688C276.891 326.688 276.344 327.312 276.344 328.016C276.344 329.031 276.11 329.109 275.407 328.406C274.079 327.078 272.985 327.234 273.454 328.641C274 330.047 272.985 330.672 270.016 330.906C268.61 330.984 267.75 330.672 267.75 330.047C267.75 329.5 268.219 329.266 268.922 329.5C270.641 330.203 270.329 328.406 268.61 327.469C266.5 326.375 266.266 326.453 266.579 328.25C266.735 329.109 266.5 330.047 266.032 330.281C265.563 330.594 265.407 330.516 265.641 330.047C265.875 329.656 265.407 328.719 264.547 328.016C263.141 326.766 263.063 326.766 263.063 328.484C262.985 330.047 262.907 330.125 261.969 328.797C260.797 327.312 259.938 327.078 259.938 328.25C259.938 328.641 260.797 329.422 261.891 329.969L263.844 330.984L261.813 333.172C260.797 334.344 260.329 335.281 260.797 335.281C261.344 335.281 261.579 335.438 261.422 335.672C260.719 336.297 255.25 334.266 255.25 333.406C255.25 332.938 255.954 331.688 256.813 330.594C258.61 328.25 258.766 327.391 257.282 327.938C255.719 328.562 255.094 326.062 256.657 325.203C257.75 324.578 257.75 324.422 256.813 324.344C255.797 324.344 255.797 324.266 256.813 323.562C257.516 323.172 258.297 323.172 258.688 323.562C259 323.875 259.938 324.031 260.641 323.797ZM248.219 333.328C248.219 333.875 247.672 334.734 247.047 335.281C245.641 336.453 245.485 335.203 246.813 333.875C247.516 333.172 247.438 332.938 246.344 332.938C245.641 332.938 245.172 332.625 245.485 332.156C246.11 331.219 248.219 332.078 248.219 333.328ZM280.25 331.688C280.25 332.547 278.766 332.859 278.297 332.156C278.063 331.766 278.375 331.375 279 331.375C279.704 331.375 280.25 331.531 280.25 331.688ZM268.141 334.266C267.75 335.047 267.516 335.906 267.594 336.219C267.75 337 265.094 335.984 264.469 334.969C263.375 333.406 263.844 332.703 265.094 333.797C266.266 334.734 266.5 334.656 267.282 333.562C268.297 331.922 268.922 332.391 268.141 334.266ZM270.875 334.812C269.782 335.906 269.157 334.969 269.782 333.406C270.172 332.312 270.485 332.234 270.954 333.094C271.266 333.641 271.266 334.422 270.875 334.812ZM277.125 334.734C277.125 335.281 275.875 336.375 274.391 337.078C270.563 338.875 269.86 338.719 273.454 336.766C275.016 335.906 276.344 334.891 276.344 334.5C276.344 334.031 276.5 333.719 276.735 333.719C276.969 333.719 277.125 334.188 277.125 334.734ZM267.75 337.859C269.469 338.406 270.016 338.797 269.157 338.953C268.454 339.109 266.5 338.562 264.86 337.625C263.219 336.688 262.594 336.219 263.454 336.453C264.313 336.766 266.266 337.391 267.75 337.859ZM279.86 342.312C279.625 342.703 278.766 343.094 278.063 343.094C276.891 343.094 276.891 342.938 277.907 342.312C279.469 341.297 280.485 341.297 279.86 342.312ZM266.969 345.984C267.204 346.297 266.735 346.219 265.954 345.984C265.172 345.672 263.922 345.438 263.219 345.438C262.516 345.438 261.032 344.734 259.938 343.875C258.063 342.312 258.141 342.312 262.282 343.953C264.625 344.812 266.735 345.75 266.969 345.984ZM278.219 344.734C277.985 345.203 278.219 345.906 278.766 346.297C279.313 346.609 279.547 347.156 279.235 347.469C279 347.781 278.219 347.547 277.516 347C276.735 346.375 276.344 346.297 276.344 346.922C276.344 347.391 276.032 347.781 275.563 347.781C274.079 347.781 274.782 345.359 276.579 344.656C278.844 343.719 278.844 343.719 278.219 344.734ZM258.454 346.766C259.313 347.781 259.313 348.094 258.61 348.328C258.063 348.562 257.594 349.031 257.594 349.5C257.594 350.984 259.547 349.578 260.016 347.703L260.563 345.828L261.11 347.547C261.422 348.562 262.204 349.344 262.829 349.344C263.454 349.344 263.688 349.734 263.375 350.203C263.141 350.672 262.047 350.828 260.954 350.516C259.547 350.203 259.079 350.359 259.313 351.062C259.547 351.609 260.25 352.078 260.954 352.078C261.579 352.078 262.438 352.312 262.672 352.625C262.985 352.938 263.61 353.016 264.079 352.781C264.625 352.625 265.094 353.25 265.094 354.422C265.25 356.141 265.094 356.219 263.532 355.359C262.672 354.891 261.579 354.422 261.11 354.344C260.719 354.344 259.313 353.875 258.063 353.328C256.344 352.625 256.032 352.234 256.735 351.375C257.438 350.516 257.438 350.125 256.735 349.734C256.11 349.266 256.11 348.953 256.891 348.562C257.672 348.016 257.672 347.703 256.891 346.688C256.266 345.984 256.188 345.438 256.657 345.438C257.047 345.438 257.907 345.984 258.454 346.766ZM273.141 348.562C274.235 350.047 274.704 350.984 274.235 350.594C273.454 350.203 273.375 350.672 273.766 352.547C274.079 354.344 274 354.891 273.375 354.5C272.829 354.188 272.438 353.25 272.438 352.469C272.438 351.453 272.047 351.062 271.266 351.375C270.407 351.766 270.25 352.156 270.875 352.859C271.5 353.562 271.344 354.031 270.329 354.422C269 354.891 269 354.969 270.329 355.984C271.579 356.922 271.579 357 269.625 357.469C268.532 357.781 267.36 357.859 267.125 357.547C266.891 357.312 267.125 357.156 267.594 357.156C268.141 357.156 268.532 356.766 268.532 356.375C268.532 355.906 267.985 355.594 267.36 355.594C265.641 355.594 265.954 354.109 267.75 353.406C269.235 352.859 269.235 352.781 267.516 350.828C265.172 348.172 264.938 346.688 266.969 347.234C267.829 347.469 268.375 347.312 268.141 347C267.672 346.297 269.235 345.438 270.407 345.75C270.797 345.828 272.047 347.078 273.141 348.562ZM281.813 347.078C281.813 347.938 281.5 348.406 281.032 348.172C280.641 347.938 280.25 347.156 280.25 346.531C280.25 345.906 280.641 345.438 281.032 345.438C281.5 345.438 281.813 346.141 281.813 347.078ZM251.344 352C251.344 352.234 251.032 352.625 250.563 352.859C250.172 353.094 249.782 352.938 249.782 352.547C249.782 352.078 250.172 351.688 250.563 351.688C251.032 351.688 251.344 351.844 251.344 352ZM277.672 353.641C277.672 354.422 277.204 354.734 276.579 354.422C275.954 354.188 275.25 354.031 275.094 354.031C274.86 354.031 274.938 353.641 275.172 353.25C275.954 352 277.672 352.312 277.672 353.641ZM276.032 367.078C275.172 367.938 274.704 366.766 275.329 365.281C275.875 363.875 275.954 363.875 276.188 365.203C276.344 365.984 276.266 366.844 276.032 367.078ZM252.125 367.391C252.125 368.562 251.735 368.875 250.954 368.562C250.329 368.328 249.782 368.484 249.782 368.953C249.782 369.344 249.235 369.656 248.532 369.5C247.75 369.344 247.047 369.734 246.891 370.281C246.579 370.984 247.047 371.141 248.532 370.75C250.719 370.203 251.422 371.531 249.391 372.312C248.766 372.547 248.297 373.172 248.375 373.641C248.532 374.109 248.141 374.734 247.672 374.891C247.047 375.125 246.657 374.578 246.657 373.641C246.657 372.625 246.188 372 245.329 372C244.157 372 244.157 372.156 245.016 372.703C246.266 373.484 245.641 375.906 244.235 375.906C243.532 375.906 243.532 375.594 244.235 374.812C244.938 374.031 244.938 373.562 244.313 373.172C243.688 372.781 243.688 372.312 244.391 371.531C245.016 370.75 245.016 370.438 244.391 370.438C243.922 370.438 243.532 369.891 243.532 369.188C243.532 368.484 243.922 368.094 244.469 368.25C245.016 368.484 246.657 367.938 248.141 367.234C251.735 365.438 252.125 365.438 252.125 367.391ZM87.3599 373.016C86.3442 374.031 85.3286 373.25 86.1099 372.078C86.3442 371.609 86.9692 371.453 87.438 371.688C87.9067 372 87.9067 372.469 87.3599 373.016ZM93.9224 372.703C93.688 373.172 93.063 373.562 92.5942 373.562C92.1255 373.562 92.1255 373.094 92.7505 372.391C93.8442 371.062 94.7817 371.375 93.9224 372.703ZM277.36 373.25C276.813 374.734 276.579 374.656 276.11 372.859C275.875 371.844 276.032 371.453 276.813 371.766C277.36 371.922 277.594 372.625 277.36 373.25ZM269.313 373.875C269.313 375.047 267.907 376.297 267.282 375.672C266.735 375.125 267.829 372.781 268.61 372.781C269 372.781 269.313 373.25 269.313 373.875ZM263.454 374.344C263.844 374.969 264.313 374.891 265.094 374.266C266.266 373.25 266.422 373.562 265.719 375.438C265.094 377.156 263.297 377 262.282 375.125C261.422 373.484 262.516 372.859 263.454 374.344ZM274.704 376.375C272.047 377.859 271.422 377.703 273.063 376.062C273.766 375.281 274.86 374.812 275.485 374.969C276.188 375.281 275.954 375.672 274.704 376.375ZM263.141 377.547C264 378.016 265.797 378.406 267.204 378.406C269.391 378.484 269.469 378.562 268.063 379.266C266.813 379.734 265.563 379.5 263.375 378.328C261.657 377.469 260.641 376.766 260.954 376.688C261.344 376.688 262.282 377.078 263.141 377.547ZM291.969 378.25C290.485 379.266 289.625 379.266 289.625 378.25C289.625 377.781 290.407 377.469 291.422 377.469C292.829 377.469 292.907 377.625 291.969 378.25ZM81.813 386.922C81.813 387.234 82.6724 387.703 83.7661 387.938C85.6411 388.406 85.7192 388.719 85.563 392.547C85.4067 394.734 85.0161 396.844 84.5474 397.156C84.0786 397.547 84.0786 397.781 84.7036 397.781C85.563 397.781 85.1724 400.828 84.2349 400.984C80.7192 401.688 80.2505 401.453 80.2505 398.797C80.2505 396.609 80.0161 396.141 79.0005 396.531C77.2036 397.234 76.1099 396.297 77.1255 395.047C78.688 393.094 76.3442 392.859 74.5474 394.734C73.2192 396.141 73.1411 396.375 74.2349 395.984C75.1724 395.594 75.563 395.906 75.563 396.922C75.563 398.016 75.0942 398.328 73.8442 398.094L72.0474 397.703L73.8442 398.641C75.8755 399.734 75.7192 401.297 73.5317 401.297C72.2817 401.297 72.0474 400.594 71.813 396.375C71.6567 393.406 71.8911 391.531 72.438 391.531C72.8286 391.531 73.2192 390.984 73.2192 390.281C73.2192 389.656 72.9067 389.344 72.438 389.578C72.0474 389.812 71.6567 389.5 71.6567 388.875C71.6567 387.625 75.2505 386.219 76.1099 387.156C76.813 387.781 78.7661 386.062 78.2192 385.203C77.9849 384.812 78.688 384.891 79.7817 385.438C80.8755 385.906 81.813 386.609 81.813 386.922ZM147.672 385.906C147.985 385.984 148.297 385.984 148.454 385.906C148.532 385.828 149.391 386.219 150.329 386.688C151.813 387.547 151.969 388.25 151.969 393.875C151.969 397.312 151.657 399.891 151.266 399.656C150.875 399.422 150.563 399.812 150.563 400.438C150.563 401.141 150.172 401.688 149.704 401.688C149.313 401.688 149.157 401.219 149.469 400.672C149.938 399.891 149.782 399.891 148.922 400.672C147.36 402.234 146.5 401.844 147.438 400.125C148.141 398.875 148.063 398.562 147.047 398.562C146.422 398.562 145.875 398.094 145.875 397.469C145.875 395.828 143.532 395.281 140.407 396.219C139 396.609 137.594 396.844 137.438 396.609C137.282 396.453 137.516 395.125 137.985 393.797C138.61 392.078 138.61 390.984 138.063 390.438C137.047 389.422 137.047 388.172 138.063 388.797C138.532 389.031 138.844 388.719 138.844 388.094C138.844 387.391 139.547 386.844 140.407 386.844C141.266 386.844 141.969 386.609 141.969 386.219C141.969 385.75 145.719 385.594 147.672 385.906ZM171.032 386.375C171.657 387 172.829 387.625 173.688 387.781C174.938 388.016 175.172 388.719 175.172 392.469C175.172 394.891 174.938 396.688 174.625 396.453C174.235 396.297 174 396.531 174 396.922C174 397.391 174.313 397.781 174.704 397.781C175.094 397.781 175.25 398.484 175.016 399.344C174.704 400.438 173.922 400.906 172.36 400.906C170.329 400.906 170.094 400.594 170.094 398.562C170.094 396.609 169.782 396.297 168.375 396.453C166.969 396.609 166.579 396.219 166.735 394.812C166.969 392.625 165.875 392.625 163.688 394.812L162.047 396.453L163.688 396.062C165.016 395.672 165.407 395.906 165.407 397C165.407 398.016 164.938 398.328 163.688 398.094L161.891 397.703L163.688 398.484C164.625 398.953 165.407 399.656 165.407 400.047C165.407 400.984 163.141 401.844 162.204 401.219C161.266 400.672 161.266 391.531 162.282 391.531C162.75 391.531 163.063 390.984 163.063 390.281C163.063 389.656 162.672 389.344 162.204 389.656C161.657 389.969 161.422 389.578 161.657 388.719C161.813 387.703 162.672 387.156 164.625 387C166.11 386.844 167.672 386.375 168.141 385.984C169.157 385.047 169.782 385.125 171.032 386.375ZM232.985 386.062C232.75 386.453 232.047 386.844 231.579 386.844C231.032 386.844 231.11 386.531 231.813 386.062C233.297 385.125 233.61 385.125 232.985 386.062ZM299.782 385.594C299.782 385.75 299.235 386.141 298.532 386.375C297.907 386.609 297.594 386.531 297.829 386.062C298.297 385.281 299.782 384.969 299.782 385.594ZM229.86 387.625C229.625 388.016 228.922 388.406 228.454 388.406C227.907 388.406 227.985 388.094 228.688 387.625C230.172 386.688 230.485 386.688 229.86 387.625ZM295.875 387.625C295.25 388.016 294.391 388.406 293.922 388.406C293.532 388.406 293.688 388.016 294.313 387.625C294.938 387.234 295.875 386.844 296.266 386.844C296.735 386.844 296.5 387.234 295.875 387.625ZM263.844 391.141C263.844 391.766 263.297 392.312 262.594 392.312C261.969 392.312 261.579 392.625 261.813 393.016C262.047 393.406 261.735 393.875 261.11 394.188C260.407 394.422 259.938 394.188 259.938 393.406C259.938 392.703 260.641 392 261.5 391.766C262.36 391.531 263.063 391.062 263.063 390.672C263.063 390.281 263.219 389.969 263.454 389.969C263.688 389.969 263.844 390.516 263.844 391.141ZM274.86 392.625C274.938 393.094 274.938 394.109 274.86 394.812C274.704 395.828 275.25 396.219 276.657 396.219C277.75 396.219 278.844 396.609 279.079 397.078C279.391 397.547 280.094 397.703 280.641 397.469C281.344 397.234 281.5 397.625 281.188 398.719C280.954 399.578 281.266 400.594 281.891 400.984C282.594 401.453 282.672 401.688 282.047 401.688C281.5 401.688 280.641 400.75 280.094 399.5C279.079 397.391 275.563 396.062 275.563 397.781C275.563 398.328 275.25 398.328 274.547 397.703C274 397.156 273.61 395.75 273.688 394.5C273.766 393.094 273.454 392.312 272.75 392.312C272.125 392.312 271.657 392 271.657 391.609C271.657 390.594 274.782 391.531 274.86 392.625ZM253.454 392.938C250.563 396.062 250.094 400.906 252.672 400.906C253.532 400.906 253.766 400.281 253.532 398.562C253.297 396.922 253.454 396.453 253.922 396.922C254.469 397.469 255.172 397.469 255.954 396.766C257.047 395.984 257.047 396.062 255.954 397.391C255.25 398.25 254.469 399.578 254.235 400.281C253.688 401.922 251.891 402.078 250.797 400.672C250.407 400.203 250.016 398.094 249.938 396.141C249.86 392.938 250.016 392.547 251.266 392.859C252.047 393.094 252.985 392.859 253.219 392.391C253.532 391.922 254 391.531 254.235 391.531C254.469 391.531 254.157 392.156 253.454 392.938ZM284.157 393.094C284.157 392.703 284.547 392.312 285.016 392.312C285.641 392.312 285.719 393.484 285.329 395.984C284.547 401.141 283.375 403.016 283.844 398.406C284.157 395.281 283.922 394.734 282.594 394.266C281.735 394.031 281.032 393.406 281.032 393.016C281.032 392.547 281.657 392.547 282.594 393.094C283.688 393.641 284.157 393.641 284.157 393.094ZM260.485 397.312C259.86 398.094 259.391 398.172 259 397.547C258.688 397.078 258.844 396.375 259.391 396.062C260.719 395.203 261.579 396.141 260.485 397.312ZM272.204 398.719C271.969 399.344 271.735 399.109 271.735 398.25C271.657 397.391 271.891 396.922 272.125 397.234C272.36 397.469 272.438 398.172 272.204 398.719ZM261.891 400.125C262.125 400.594 261.579 400.906 260.563 400.906C259.157 400.906 259 400.75 259.938 400.125C261.422 399.188 261.344 399.188 261.891 400.125ZM274.235 400.672C273.688 400.828 272.75 400.828 272.282 400.672C271.735 400.438 272.125 400.281 273.219 400.281C274.313 400.281 274.704 400.438 274.235 400.672Z" fill="#F1A037" fill-opacity="0.63"/>
<path d="M229.704 303.016C228.297 303.563 228.454 305.047 230.094 307C231.5 308.563 231.5 308.563 231.579 305.907C231.657 303.094 231.266 302.469 229.704 303.016Z" fill="#F1A037" fill-opacity="0.63"/>
<path d="M258.375 330.592C257.516 331.139 257.516 331.451 258.297 332.467C259.703 334.186 260.719 334.029 260.485 332.154C260.172 330.123 259.703 329.733 258.375 330.592Z" fill="#F1A037" fill-opacity="0.63"/>
<path d="M268.922 348.563C268.297 349.5 269.079 350.906 270.25 350.906C270.641 350.906 270.875 350.438 270.641 349.813C270.407 349.188 270.563 348.484 271.11 348.25C271.657 348.094 271.5 347.859 270.719 347.859C270.016 347.781 269.157 348.094 268.922 348.563Z" fill="#F1A037" fill-opacity="0.63"/>
<path d="M81.8125 398.562C81.8125 398.953 82.2031 399.344 82.5938 399.344C83.0625 399.344 83.375 398.953 83.375 398.562C83.375 398.094 83.0625 397.781 82.5938 397.781C82.2031 397.781 81.8125 398.094 81.8125 398.562Z" fill="#F1A037" fill-opacity="0.63"/>
<path d="M171.656 398.094C171.656 398.797 172.047 399.344 172.438 399.344C172.906 399.344 173.219 399.031 173.219 398.641C173.219 398.172 172.906 397.625 172.438 397.391C172.047 397.156 171.656 397.469 171.656 398.094Z" fill="#F1A037" fill-opacity="0.63"/>
<path d="M108.844 304.422C109.157 305.047 109.469 305.594 109.625 305.594C109.782 305.594 109.938 305.047 109.938 304.422C109.938 303.797 109.625 303.25 109.157 303.25C108.766 303.25 108.61 303.797 108.844 304.422Z" fill="#F1A037" fill-opacity="0.63"/>
<path d="M72.8284 304.735C72.594 305.125 72.7503 305.672 73.219 305.985C73.6096 306.219 74.0003 305.907 74.0003 305.282C74.0003 303.875 73.5315 303.641 72.8284 304.735Z" fill="#F1A037" fill-opacity="0.63"/>
<path d="M233.844 325.516C232.984 326.141 232.203 327.235 232.125 327.86C231.891 329.578 232.281 329.344 234.156 326.688C236.031 324.032 235.953 323.875 233.844 325.516Z" fill="#F1A037" fill-opacity="0.63"/>
<path d="M126.031 326.611C125.719 327.158 125.641 327.783 125.875 328.018C126.578 328.721 127.359 327.705 126.969 326.611C126.656 325.752 126.5 325.752 126.031 326.611Z" fill="#F1A037" fill-opacity="0.63"/>
<path d="M227.438 328.798C227.125 330.048 226.813 331.298 226.813 331.767C226.735 332.158 225.719 332.939 224.391 333.408C223.063 333.877 221.969 334.892 221.813 335.752C221.657 336.923 221.735 337.002 222.36 336.142C223.375 334.58 225.407 334.423 226.188 335.752C226.657 336.611 227.438 336.064 229.313 333.408C231.735 330.048 231.813 329.892 230.172 329.423C229.235 329.111 228.766 328.486 229 327.783C229.235 327.158 229.157 326.689 228.766 326.689C228.375 326.689 227.829 327.627 227.438 328.798Z" fill="#F1A037" fill-opacity="0.63"/>
<path d="M121.031 329.891C121.188 330.438 121.813 331.063 122.36 331.219C122.985 331.453 123.297 331.141 123.063 330.516C122.906 329.969 122.281 329.344 121.735 329.188C121.11 328.953 120.797 329.266 121.031 329.891Z" fill="#F1A037" fill-opacity="0.63"/>
<path d="M128.688 329.812C128.688 330.203 129.156 330.594 129.703 330.594C130.328 330.594 130.25 330.906 129.469 331.375C128.453 332 128.453 332.156 129.547 332.156C131.344 332.156 131.891 331.297 130.953 330.047C129.938 328.875 128.688 328.719 128.688 329.812Z" fill="#F1A037" fill-opacity="0.63"/>
<path d="M125.641 331.061C125.641 331.92 125.875 332.155 126.11 331.53C126.344 330.983 126.266 330.28 126.031 330.045C125.797 329.733 125.563 330.202 125.641 331.061Z" fill="#F1A037" fill-opacity="0.63"/>
<path d="M119.703 332.158C119.469 332.549 119.469 333.252 119.703 333.721C119.938 334.111 119.782 334.502 119.313 334.502C118.844 334.502 118.688 334.814 118.922 335.283C119.235 335.752 120.094 335.596 121.266 334.814C122.907 333.721 122.985 333.408 122.047 332.471C120.797 331.143 120.328 331.143 119.703 332.158Z" fill="#F1A037" fill-opacity="0.63"/>
<path d="M189.938 335.125C188.844 335.828 180.875 347 181.422 347C181.656 347 183.766 345.906 186.188 344.578L190.484 342.156L195.797 344.578C198.688 345.906 201.5 347 201.969 347C202.438 347 205.172 345.906 207.984 344.5L213.063 342L216.734 343.797L220.406 345.594L222.594 342.938C223.766 341.531 224.625 339.969 224.469 339.578C224.391 339.109 221.891 337.938 218.922 336.922C213.141 334.813 213.766 334.734 204.781 338.484C202.516 339.344 201.813 339.266 197.359 337.313C190.641 334.344 190.875 334.422 189.938 335.125Z" fill="#F1A037" fill-opacity="0.63"/>
<path d="M147.047 345.205C147.75 347.08 148.141 350.361 147.672 351.142C147.437 351.455 146.734 351.298 146.031 350.752C145.094 349.97 144.938 349.97 145.406 350.673C145.719 351.22 145.563 351.689 145.172 351.689C144.625 351.689 144.625 352.236 145.25 353.252C146.344 354.97 147.437 355.283 147.437 353.955C147.437 353.486 147.984 352.627 148.609 352.002C149.937 350.673 150.25 346.22 149 346.22C148.609 346.22 148.219 345.673 148.219 345.048C148.219 344.423 147.828 343.877 147.359 343.877C146.812 343.877 146.734 344.423 147.047 345.205Z" fill="#F1A037" fill-opacity="0.63"/>
<path d="M150.562 348.562C150.562 348.953 150.953 349.344 151.344 349.344C151.812 349.344 152.125 348.953 152.125 348.562C152.125 348.094 151.812 347.781 151.344 347.781C150.953 347.781 150.562 348.094 150.562 348.562Z" fill="#F1A037" fill-opacity="0.63"/>
<path d="M242.75 349.344C242.75 349.734 243.141 350.125 243.531 350.125C244 350.125 244.312 349.734 244.312 349.344C244.312 348.875 244 348.562 243.531 348.562C243.141 348.562 242.75 348.875 242.75 349.344Z" fill="#F1A037" fill-opacity="0.63"/>
<path d="M84.625 352.078C82.9063 354.266 82.75 354.812 83.7657 354.812C86.1094 354.812 88.0625 353.25 88.0625 351.297C88.0625 348.641 87.0469 348.875 84.625 352.078Z" fill="#F1A037" fill-opacity="0.63"/>
<path d="M136.578 351.373C136.578 352.233 136.813 352.467 137.047 351.842C137.281 351.295 137.203 350.592 136.969 350.358C136.735 350.045 136.5 350.514 136.578 351.373Z" fill="#F1A037" fill-opacity="0.63"/>
<path d="M184.938 355.594C184.078 357.156 184.156 357.312 185.25 356.922C185.953 356.609 186.5 356.766 186.5 357.156C186.5 357.625 186.188 358.016 185.719 358.016C184.625 358.172 183.922 358.406 182.594 359.031C181.891 359.266 179.859 359.031 177.984 358.328C176.109 357.703 174.469 357.156 174.313 357.156C174.156 357.156 172.984 358.719 171.656 360.672L169.234 364.188H171.188C173.375 364.188 174.625 365.516 172.828 365.906C172.047 366.062 171.891 366.453 172.438 367.312C173.063 368.328 173.297 368.25 174.313 366.922C175.25 365.672 175.484 365.594 175.563 366.609C175.563 368.328 178.844 368.016 183.688 365.906C188.141 363.875 190.25 363.719 190.875 365.359C191.188 365.984 192.125 366.531 193.063 366.531C194.547 366.453 194.547 366.297 192.359 364.5C189.938 362.391 190.094 362.312 193.766 364.188C194.938 364.734 195.875 365.672 195.875 366.219C195.875 366.688 196.5 367.391 197.203 367.625C198.375 368.094 198.375 368.25 197.438 368.875C196.734 369.344 196.656 369.656 197.203 369.656C198.844 369.656 199.156 368.016 197.75 366.922C196.5 365.984 196.5 365.828 197.516 365.75C198.141 365.75 199.078 366.141 199.625 366.688C200.172 367.234 200.563 367.312 200.563 366.844C200.563 366.453 200.875 366.609 201.266 367.156C201.734 368.016 202.359 367.938 204.547 366.922C207.438 365.516 214.391 355.984 213.063 355.203C212.594 354.969 212.281 355.125 212.281 355.516C212.281 355.984 211.734 356.375 211.031 356.375C210.016 356.375 209.938 356.141 210.641 355.281C211.422 354.344 211.266 354.266 210.016 354.578C209.078 354.812 208.531 355.281 208.766 355.594C209.234 356.375 206.813 358.406 204.469 359.031C202.516 359.578 202.516 359.578 204.703 358.172C205.875 357.391 206.813 356.531 206.813 356.219C206.813 355.203 205.25 355.516 204 356.766C202.359 358.406 200.484 358.25 195.563 356.062C193.219 354.969 190.719 354.266 190.094 354.344C188.453 354.578 187.516 355.594 188.922 355.594C189.859 355.594 189.781 355.75 188.844 356.375C187.984 356.922 187.438 356.609 186.813 355.438L185.953 353.797L184.938 355.594Z" fill="#F1A037" fill-opacity="0.63"/>
<path d="M123.766 366.921C123.141 368.484 123.453 369.187 124.625 368.796C125.016 368.64 125.094 367.781 124.781 366.999C124.313 365.515 124.234 365.515 123.766 366.921Z" fill="#F1A037" fill-opacity="0.63"/>
<path d="M114.469 370.282C113.688 370.439 113.062 371.142 113.062 371.845C113.062 372.782 113.297 372.86 114 372.157C114.625 371.532 115.172 371.532 115.875 372.079C116.422 372.548 116.969 372.548 117.281 372.157C117.906 371.064 116.031 369.892 114.469 370.282Z" fill="#F1A037" fill-opacity="0.63"/>
<path d="M123.219 371.296C123.219 371.687 123.609 371.843 124 371.609C124.469 371.374 124.781 370.984 124.781 370.749C124.781 370.593 124.469 370.437 124 370.437C123.609 370.437 123.219 370.827 123.219 371.296Z" fill="#F1A037" fill-opacity="0.63"/>
<path d="M256.422 371.219C255.875 372.078 256.578 373.562 257.438 373.562C257.75 373.562 258.063 372.859 258.141 372C258.297 370.359 257.281 369.891 256.422 371.219Z" fill="#F1A037" fill-opacity="0.63"/>
<path d="M70.0941 372.702C69.0003 374.811 69.0785 374.968 71.1878 374.577C72.516 374.264 72.9066 373.796 72.6722 372.702C72.1253 370.827 71.1878 370.827 70.0941 372.702Z" fill="#F1A037" fill-opacity="0.63"/>
<path d="M117.672 372.155C117.594 372.311 117.438 373.327 117.281 374.577C117.047 376.686 117.047 376.686 118.922 375.358C120.25 374.343 120.484 373.718 119.938 372.936C119.234 372.077 117.906 371.686 117.672 372.155Z" fill="#F1A037" fill-opacity="0.63"/>
<path d="M229.469 372.781C229.469 373.172 230.016 373.562 230.641 373.562C231.266 373.562 231.812 373.172 231.812 372.781C231.812 372.312 231.266 372 230.641 372C230.016 372 229.469 372.312 229.469 372.781Z" fill="#F1A037" fill-opacity="0.63"/>
<path d="M211.032 398.953C211.11 400.516 211.5 400.906 213.297 400.906C215.563 400.906 216.11 399.578 214.469 397.938C212.75 396.219 210.875 396.844 211.032 398.953Z" fill="#F1A037" fill-opacity="0.63"/>
<path d="M232.36 398.875C232.672 400.516 233.219 400.906 235.016 400.906C236.969 400.906 237.125 400.75 236.578 399.109C236.188 398.094 235.172 397.312 234 397.156C232.282 396.922 232.047 397.156 232.36 398.875Z" fill="#F1A037" fill-opacity="0.63"/>
<path d="M298.219 398.953C298.219 400.594 298.609 400.906 300.563 400.906C303.141 400.906 303.297 400.672 302.125 398.484C300.875 396.219 298.219 396.531 298.219 398.953Z" fill="#F1A037" fill-opacity="0.63"/>
<path d="M208.375 399.032C208.375 399.657 208.766 399.969 209.156 399.735C209.625 399.5 209.938 398.953 209.938 398.485C209.938 398.094 209.625 397.782 209.156 397.782C208.766 397.782 208.375 398.328 208.375 399.032Z" fill="#F1A037" fill-opacity="0.63"/>
</svg>
