<svg width="1000" height="171" viewBox="0 0 1000 171" fill="none" xmlns="http://www.w3.org/2000/svg">
<path d="M699.228 4.19137C696.196 6.8862 692.828 12.6127 691.818 16.3181C690.134 21.3709 688.45 22.3815 685.755 19.6866C680.366 14.297 670.936 14.9707 668.915 20.6972C666.557 27.0974 674.977 34.1713 681.714 31.4765C688.113 29.1185 688.113 28.7817 679.693 51.014C673.293 67.8567 666.557 75.6043 666.557 66.5093C666.557 61.1196 653.084 62.467 651.064 68.1935C648.369 74.9306 655.779 83.3519 662.178 80.994C666.22 79.3097 666.894 80.6571 664.873 87.0573C658.137 109.627 648.032 127.817 639.949 132.196C631.865 136.575 632.539 136.912 654.769 136.912C671.609 136.912 676.325 135.901 671.272 133.88C659.821 129.501 658.81 124.785 664.873 106.595L670.599 89.7522L694.512 90.7627C716.405 91.7733 719.1 92.447 722.805 100.195C730.551 116.364 729.541 128.153 720.447 132.869C713.037 136.575 715.732 137.249 744.024 136.912C764.233 136.912 773.663 135.901 769.285 133.88C757.833 129.501 755.139 124.111 732.909 61.4565C721.121 28.4448 710.006 0.822839 707.985 0.149132C705.964 -0.524575 701.922 1.15969 699.228 4.19137ZM680.703 24.4026C680.703 26.0869 679.019 28.108 676.998 28.7817C674.977 29.4554 673.293 27.4343 673.293 24.4026C673.293 21.3709 674.977 19.3498 676.998 20.0235C679.019 20.6972 680.703 22.7183 680.703 24.4026ZM708.995 60.4459C713.374 73.5832 717.079 85.0362 717.079 85.7099C717.079 86.3836 707.311 86.7205 695.186 86.7205C683.061 86.7205 673.293 86.0468 673.293 85.3731C673.293 84.3625 678.009 70.5515 683.734 54.3825C695.86 21.7078 695.523 21.3709 708.995 60.4459ZM663.189 71.5621C663.189 74.2569 661.842 76.6149 660.158 76.6149C655.779 76.6149 652.748 71.2252 655.442 68.5304C659.147 64.825 663.189 66.5093 663.189 71.5621Z" fill="#F1A037" fill-opacity="0.63"/>
<path d="M659.821 14.2987C656.79 23.0569 654.095 26.0886 648.37 26.0886C643.317 26.0886 639.276 29.1203 636.918 34.5099C634.897 39.2259 631.192 42.5944 629.171 42.2575C627.15 41.5838 623.445 46.9735 620.751 53.7106C618.393 61.1213 617.72 66.511 619.741 66.511C621.425 66.511 622.098 69.8795 621.088 73.9218C620.077 78.3009 621.088 84.3642 623.782 87.7328C627.15 92.7856 630.519 93.4593 640.623 91.775C647.359 90.4276 653.085 88.0696 653.085 86.0485C653.085 84.3642 651.401 84.0274 649.717 85.0379C647.696 86.3854 640.96 85.3748 634.56 83.3537L623.109 79.6483L627.824 66.1741C637.928 38.2153 643.317 29.4571 651.401 29.4571C657.464 29.4571 660.158 26.7623 663.189 17.6672C666.557 7.22478 667.905 6.21422 677.672 7.89848C686.429 8.90904 687.103 8.57219 681.714 6.21422C668.915 0.150852 663.863 2.17197 659.821 14.2987Z" fill="#F1A037" fill-opacity="0.63"/>
<path d="M667.227 45.9638C665.207 51.6903 664.87 56.4062 666.217 56.4062C669.585 56.4062 674.637 39.5636 672.28 37.2056C671.269 36.5319 669.248 40.5741 667.227 45.9638Z" fill="#F1A037" fill-opacity="0.63"/>
<path d="M24.2545 49.6681C29.3067 52.6998 29.9804 58.7631 29.9804 91.7748C29.9804 124.786 29.3067 130.513 24.2545 133.545C19.5392 136.239 22.5705 136.913 36.7166 136.913C46.821 136.576 52.5468 135.903 49.5155 134.892C44.4633 133.545 43.7897 128.155 43.7897 91.4379V49.6681H53.2204C58.2726 49.6681 65.0089 52.3629 68.0402 55.7314C79.8286 68.5319 72.0819 90.0905 55.9149 90.0905C48.8419 90.4274 48.8419 90.7642 57.599 97.1644C62.6512 100.87 69.0506 110.639 72.0819 120.407C77.4709 136.239 78.4814 137.25 89.2594 137.25C98.3533 137.25 100.037 136.239 97.3429 133.208C95.322 130.85 90.2698 122.765 86.228 115.355C81.8495 107.944 75.45 100.196 71.0715 98.175C62.988 94.1327 64.672 90.0905 74.1028 90.0905C81.5127 90.0905 90.6066 77.6269 90.6066 67.8582C90.6066 54.0472 79.4918 48.6575 47.4946 47.3101C25.265 46.2995 19.5392 46.9732 24.2545 49.6681Z" fill="#F1A037" fill-opacity="0.63"/>
<path d="M139.446 57.4145C114.185 82.6785 121.932 127.143 153.255 137.249C188.284 149.039 217.587 118.385 208.829 79.3099C205.124 62.8041 188.957 46.2983 177.169 46.6351C169.759 46.6351 169.759 46.6351 176.832 49.6668C193.336 56.067 199.399 108.279 185.926 126.806C177.169 138.596 161.002 140.28 151.908 130.512C135.067 112.322 138.772 60.1093 157.971 50.6774L166.391 46.2983H158.644C153.929 46.2983 145.845 51.0142 139.446 57.4145Z" fill="#F1A037" fill-opacity="0.63"/>
<path d="M230.72 51.3493C235.435 54.381 243.182 71.2236 252.276 96.8245C263.054 127.478 268.106 137.247 271.811 136.573C275.179 135.9 282.589 121.078 291.683 96.8245C299.766 74.5922 308.86 55.7284 313.239 52.023C320.312 46.2965 319.975 46.2965 304.145 46.2965C291.346 46.6333 288.988 47.307 293.704 50.0019C301.787 54.7178 301.114 60.1075 288.652 92.7823C276.526 125.457 276.19 125.12 262.043 80.6555C254.297 56.0652 254.297 55.7284 260.696 51.0124C266.422 46.6333 264.738 46.2965 245.54 46.2965C225.668 46.2965 224.32 46.6333 230.72 51.3493Z" fill="#F1A037" fill-opacity="0.63"/>
<path d="M344.225 50.0049C349.277 53.0366 349.951 58.7631 349.951 93.459C349.951 122.092 348.941 133.881 345.909 134.892C343.552 135.903 356.014 136.913 373.865 136.913L406.536 137.25L408.556 126.808C411.925 110.302 410.577 107.944 404.851 118.723C397.778 131.86 394.747 133.881 379.591 133.881H366.792V113.67V93.459H377.906C386.327 93.459 390.369 95.4802 393.063 100.87C396.094 107.607 396.768 106.596 396.768 92.1116L397.105 75.2689L390.369 82.6797C386.327 86.722 379.591 90.0905 375.212 90.0905C367.128 90.0905 366.792 89.0799 366.792 69.8793C366.792 49.6681 366.792 49.6681 376.559 49.6681C391.716 49.6681 397.442 53.0366 402.494 64.4896L406.872 74.9321L407.209 60.4474V46.2995H372.854C347.593 46.6364 339.847 47.3101 344.225 50.0049Z" fill="#F1A037" fill-opacity="0.63"/>
<path d="M442.239 51.6892C446.617 55.7314 447.628 64.8265 447.628 93.459C447.628 124.786 446.617 130.513 441.902 133.545C437.187 136.239 440.218 136.913 454.364 136.913C464.468 136.576 470.194 135.903 467.163 134.892C462.111 133.545 461.437 128.155 461.437 91.4379V49.6681H470.868C475.92 49.6681 482.656 52.3629 485.688 55.7314C497.476 68.5319 489.729 90.0905 473.562 90.0905C466.489 90.0905 466.489 90.4274 474.91 97.8381C479.962 101.88 486.698 112.323 489.729 121.081C495.455 136.239 496.466 137.25 507.917 137.25C516.337 137.25 518.695 136.239 515.327 134.218C512.633 132.534 507.244 124.45 503.539 116.365C499.497 108.617 492.761 100.196 488.382 97.8381L480.299 94.1327L492.424 88.7431C506.907 82.6797 511.622 70.553 503.875 58.4263C497.813 49.3312 485.688 46.2995 457.059 46.2995C438.871 46.2995 437.523 46.6364 442.239 51.6892Z" fill="#F1A037" fill-opacity="0.63"/>
<path d="M546.65 51.6892C554.396 59.1 554.396 124.45 546.65 131.86C541.934 136.913 544.292 137.25 573.258 137.25H604.918L606.939 124.786C609.297 110.975 607.276 105.586 603.908 115.691C599.192 128.492 591.782 133.881 578.31 133.881H565.511V93.459C565.511 58.7631 566.185 53.0366 571.574 50.0049C575.952 47.3101 573.258 46.6364 559.448 46.2995C542.945 46.2995 541.934 46.6364 546.65 51.6892Z" fill="#F1A037" fill-opacity="0.63"/>
<path d="M798.925 50.0049C803.64 53.0366 804.65 58.7631 804.65 89.4168C804.65 126.134 803.303 131.523 794.546 134.892C791.851 135.903 796.904 136.913 806.334 136.913C822.165 137.25 822.838 136.913 815.428 131.86C808.692 127.144 808.018 124.113 808.018 94.8065C808.018 77.2901 809.029 63.1422 810.713 63.1422C812.06 63.1422 824.522 79.9849 838.332 100.196C852.141 120.407 865.613 136.913 867.971 137.25C871.002 137.25 872.013 127.481 872.013 98.5118C872.013 64.1528 872.686 59.1 878.749 53.0366L885.485 46.2995L869.655 46.6364C856.519 46.6364 854.835 47.3101 861.235 49.6681C868.308 52.6998 868.645 54.7209 868.645 83.3534C868.645 99.8593 867.971 113.67 867.297 113.67C866.624 113.67 855.172 98.5118 841.7 79.9849C818.796 47.647 817.449 46.2995 805.324 46.2995C795.22 46.6364 793.872 47.3101 798.925 50.0049Z" fill="#F1A037" fill-opacity="0.63"/>
<path d="M913.441 50.003C918.493 53.0347 919.166 58.7612 919.166 91.7729C919.166 124.785 918.493 130.848 913.441 133.88C908.725 136.574 914.788 137.248 937.691 136.238C971.372 134.89 980.466 131.185 988.213 115.016C999.665 90.4255 991.581 59.4349 971.372 51.0136C957.563 45.2871 903.673 44.2765 913.441 50.003ZM965.31 57.7507C973.393 64.8246 974.741 68.53 975.751 89.4149C977.098 112.321 976.761 114.005 966.994 123.774C959.247 131.185 953.521 133.88 944.764 133.88H932.639V91.7729V49.6662H944.091C951.501 49.6662 959.247 52.6979 965.31 57.7507Z" fill="#F1A037" fill-opacity="0.63"/>
<path d="M1.35077 160.826C-5.38548 171.943 1.68758 171.943 302.461 169.921C466.489 168.574 690.806 167.563 800.607 167.563C975.413 167.563 1000 166.89 1000 162.511C1000 158.132 942.405 157.458 501.854 157.458C173.125 157.458 2.69802 158.468 1.35077 160.826Z" fill="#F1A037" fill-opacity="0.63"/>
</svg>
