<svg width="1631" height="279" viewBox="0 0 1631 279" fill="none" xmlns="http://www.w3.org/2000/svg">
<path d="M1140.07 6.82971C1135.13 11.2236 1129.64 20.5605 1127.99 26.602C1125.24 34.8405 1122.5 36.4882 1118.11 32.0943C1109.32 23.3066 1093.94 24.4051 1090.65 33.742C1086.8 44.1774 1100.53 55.7112 1111.52 51.3174C1121.95 47.4728 1121.95 46.9235 1108.22 83.1728C1097.79 110.634 1086.8 123.267 1086.8 108.437C1086.8 99.6497 1064.84 101.847 1061.54 111.184C1057.15 122.168 1069.23 135.899 1079.66 132.054C1086.25 129.308 1087.35 131.505 1084.06 141.94C1073.07 178.739 1056.6 208.397 1043.42 215.537C1030.24 222.677 1031.34 223.227 1067.58 223.227C1095.04 223.227 1102.73 221.579 1094.49 218.284C1075.82 211.144 1074.17 203.454 1084.06 173.796L1093.39 146.334L1132.38 147.982C1168.08 149.63 1172.47 150.728 1178.51 163.36C1191.14 189.724 1189.5 208.947 1174.67 216.636C1162.59 222.677 1166.98 223.776 1213.11 223.227C1246.06 223.227 1261.44 221.579 1254.3 218.284C1235.63 211.144 1231.23 202.356 1194.99 100.199C1175.77 46.3743 1157.65 1.3374 1154.35 0.238938C1151.06 -0.859523 1144.47 1.88663 1140.07 6.82971ZM1109.87 39.7836C1109.87 42.5297 1107.12 45.8251 1103.83 46.9236C1100.53 48.022 1097.79 44.7266 1097.79 39.7836C1097.79 34.8405 1100.53 31.5451 1103.83 32.6436C1107.12 33.742 1109.87 37.0374 1109.87 39.7836ZM1156 98.5512C1163.14 119.971 1169.18 138.645 1169.18 139.744C1169.18 140.842 1153.25 141.391 1133.48 141.391C1113.71 141.391 1097.79 140.293 1097.79 139.194C1097.79 137.547 1105.48 115.028 1114.81 88.6651C1134.58 35.3897 1134.03 34.8405 1156 98.5512ZM1081.31 116.676C1081.31 121.07 1079.12 124.914 1076.37 124.914C1069.23 124.914 1064.29 116.127 1068.68 111.733C1074.72 105.691 1081.31 108.437 1081.31 116.676Z" fill="#F1A037" fill-opacity="0.63"/>
<path d="M1075.82 23.3136C1070.88 37.5936 1066.49 42.5367 1057.15 42.5367C1048.91 42.5367 1042.32 47.4798 1038.48 56.2675C1035.18 63.9567 1029.14 69.449 1025.85 68.8998C1022.55 67.8013 1016.51 76.589 1012.12 87.5736C1008.27 99.6567 1007.18 108.444 1010.47 108.444C1013.22 108.444 1014.31 113.937 1012.67 120.527C1011.02 127.667 1012.67 137.554 1017.06 143.046C1022.55 151.284 1028.04 152.383 1044.52 149.637C1055.5 147.44 1064.84 143.595 1064.84 140.3C1064.84 137.554 1062.09 137.004 1059.35 138.652C1056.05 140.849 1045.07 139.201 1034.63 135.906L1015.96 129.864L1023.65 107.895C1040.13 62.309 1048.91 48.029 1062.09 48.029C1071.98 48.029 1076.37 43.6352 1081.31 28.8059C1086.8 11.7798 1089 10.1321 1104.93 12.8782C1119.2 14.5259 1120.3 13.9767 1111.52 10.1321C1090.65 0.245927 1082.41 3.54131 1075.82 23.3136Z" fill="#F1A037" fill-opacity="0.63"/>
<path d="M1087.9 74.9387C1084.6 84.2756 1084.05 91.9648 1086.25 91.9648C1091.74 91.9648 1099.98 64.5033 1096.13 60.6587C1094.49 59.5602 1091.19 66.151 1087.9 74.9387Z" fill="#F1A037" fill-opacity="0.63"/>
<path d="M39.5464 80.9812C47.7839 85.9243 48.8822 95.8105 48.8822 149.635C48.8822 203.46 47.7839 212.797 39.5464 217.74C31.8581 222.134 36.8006 223.232 59.8655 223.232C76.3404 222.683 85.6762 221.584 80.7337 219.937C72.4962 217.74 71.3979 208.952 71.3979 149.086V80.9812H86.7745C95.012 80.9812 105.995 85.3751 110.938 90.8674C130.158 111.738 117.528 146.889 91.1678 146.889C79.6354 147.438 79.6354 147.987 93.9136 158.423C102.151 164.464 112.585 180.392 117.528 196.32C126.314 222.134 127.962 223.781 145.535 223.781C160.362 223.781 163.108 222.134 158.715 217.19C155.42 213.346 147.183 200.164 140.593 188.081C133.453 175.998 123.019 163.366 115.88 160.07C102.7 153.48 105.446 146.889 120.823 146.889C132.904 146.889 147.732 126.567 147.732 110.64C147.732 88.1212 129.609 79.3335 77.4387 77.1366C41.1939 75.4889 31.8581 76.5874 39.5464 80.9812Z" fill="#F1A037" fill-opacity="0.63"/>
<path d="M227.363 93.6102C186.176 134.803 198.806 207.301 249.879 223.778C306.992 243.001 354.769 193.021 340.491 129.31C334.45 102.398 308.09 75.4856 288.869 76.0348C276.788 76.0348 276.788 76.0348 288.32 80.9779C315.229 91.4133 325.114 176.544 303.148 206.752C288.869 225.975 262.509 228.721 247.682 212.793C220.224 183.135 226.265 98.004 257.567 82.6256L271.296 75.4856H258.665C250.977 75.4856 237.797 83.1748 227.363 93.6102Z" fill="#F1A037" fill-opacity="0.63"/>
<path d="M376.183 83.7225C383.871 88.6656 396.502 116.127 411.329 157.869C428.902 207.849 437.14 223.776 443.181 222.678C448.672 221.579 460.754 197.413 475.581 157.869C488.761 121.619 503.589 90.8625 510.728 84.821C522.26 75.484 521.711 75.484 495.9 75.484C475.032 76.0333 471.188 77.1317 478.876 81.5256C492.056 89.2148 490.958 98.0025 470.639 151.278C450.869 204.553 450.32 204.004 427.255 131.506C414.624 91.4117 414.624 90.8625 425.058 83.1733C434.394 76.0333 431.648 75.484 400.346 75.484C367.945 75.484 365.748 76.0333 376.183 83.7225Z" fill="#F1A037" fill-opacity="0.63"/>
<path d="M561.25 81.5305C569.487 86.4735 570.586 95.8105 570.586 152.381C570.586 199.066 568.938 218.289 563.996 219.937C560.152 221.584 580.471 223.232 609.576 223.232L662.845 223.781L666.14 206.755C671.632 179.843 669.435 175.998 660.099 193.574C648.567 214.994 643.624 218.289 618.912 218.289H598.044V185.335V152.381H616.166C629.895 152.381 636.485 155.677 640.879 164.464C645.821 175.449 646.919 173.801 646.919 150.184L647.469 122.723L636.485 134.806C629.895 141.397 618.912 146.889 611.773 146.889C598.593 146.889 598.044 145.241 598.044 113.935C598.044 80.9812 598.044 80.9812 613.97 80.9812C638.682 80.9812 648.018 86.4735 656.255 105.147L663.394 122.174L663.944 98.5566V75.4889H607.929C566.742 76.0381 554.111 77.1366 561.25 81.5305Z" fill="#F1A037" fill-opacity="0.63"/>
<path d="M721.058 84.2766C728.198 90.8674 729.845 105.697 729.845 152.381C729.845 203.46 728.198 212.797 720.509 217.74C712.821 222.134 717.763 223.232 740.828 223.232C757.303 222.683 766.639 221.584 761.697 219.937C753.459 217.74 752.361 208.952 752.361 149.086V80.9812H767.737C775.975 80.9812 786.958 85.3751 791.901 90.8674C811.121 111.738 798.49 146.889 772.131 146.889C760.598 146.889 760.598 147.438 774.327 159.521C782.565 166.112 793.548 183.138 798.49 197.418C807.826 222.134 809.474 223.781 828.145 223.781C841.874 223.781 845.719 222.134 840.227 218.838C835.834 216.092 827.047 202.91 821.006 189.729C814.416 177.097 803.433 163.366 796.294 159.521L783.114 153.48L802.884 144.692C826.498 134.806 834.186 115.034 821.555 95.2612C811.67 80.432 791.901 75.4889 745.222 75.4889C715.567 75.4889 713.37 76.0381 721.058 84.2766Z" fill="#F1A037" fill-opacity="0.63"/>
<path d="M891.298 84.2766C903.929 96.3597 903.929 202.91 891.298 214.994C883.61 223.232 887.454 223.781 934.682 223.781H986.303L989.598 203.46C993.442 180.941 990.147 172.154 984.656 188.63C976.967 209.501 964.886 218.289 942.919 218.289H922.051V152.381C922.051 95.8105 923.149 86.4735 931.936 81.5305C939.075 77.1366 934.682 76.0381 912.166 75.4889C885.257 75.4889 883.61 76.0381 891.298 84.2766Z" fill="#F1A037" fill-opacity="0.63"/>
<path d="M1302.63 81.5305C1310.31 86.4735 1311.96 95.8105 1311.96 145.79C1311.96 205.657 1309.76 214.444 1295.49 219.937C1291.09 221.584 1299.33 223.232 1314.71 223.232C1340.52 223.781 1341.62 223.232 1329.53 214.994C1318.55 207.304 1317.45 202.361 1317.45 154.578C1317.45 126.018 1319.1 102.95 1321.85 102.95C1324.04 102.95 1344.36 130.412 1366.88 163.366C1389.39 196.32 1411.36 223.232 1415.2 223.781C1420.15 223.781 1421.79 207.854 1421.79 160.62C1421.79 104.598 1422.89 96.3597 1432.78 86.4735L1443.76 75.4889L1417.95 76.0381C1396.53 76.0381 1393.79 77.1366 1404.22 80.9812C1415.75 85.9243 1416.3 89.2197 1416.3 135.904C1416.3 162.817 1415.2 185.335 1414.11 185.335C1413.01 185.335 1394.34 160.62 1372.37 130.412C1335.03 77.6858 1332.83 75.4889 1313.06 75.4889C1296.58 76.0381 1294.39 77.1366 1302.63 81.5305Z" fill="#F1A037" fill-opacity="0.63"/>
<path d="M1489.34 81.529C1497.58 86.4721 1498.68 95.809 1498.68 149.634C1498.68 203.458 1497.58 213.344 1489.34 218.287C1481.65 222.681 1491.54 223.78 1528.88 222.132C1583.8 219.935 1598.62 213.894 1611.26 187.531C1629.93 147.437 1616.75 96.9075 1583.8 83.1767C1561.28 73.8398 1473.42 72.1921 1489.34 81.529ZM1573.91 94.1613C1587.09 105.695 1589.29 111.737 1590.94 145.789C1593.13 183.137 1592.58 185.883 1576.66 201.811C1564.03 213.894 1554.69 218.287 1540.41 218.287H1520.64V149.634V80.9798H1539.31C1551.4 80.9798 1564.03 85.9229 1573.91 94.1613Z" fill="#F1A037" fill-opacity="0.63"/>
<path d="M2.20239 262.222C-8.78089 280.346 2.75155 280.346 493.155 277.051C760.598 274.854 1126.34 273.206 1305.37 273.206C1590.38 273.206 1630.47 272.108 1630.47 264.968C1630.47 257.828 1536.57 256.729 818.26 256.729C282.276 256.729 4.39905 258.377 2.20239 262.222Z" fill="#F1A037" fill-opacity="0.63"/>
</svg>
