<svg width="526" height="193" viewBox="0 0 526 193" fill="none" xmlns="http://www.w3.org/2000/svg">
<path d="M262.6 0.385147C246.1 2.98515 234.8 6.38516 221.1 13.2852C187.8 29.9852 163.1 63.6852 156.6 101.185C155.8 106.085 155.1 111.085 155.1 112.385V114.785H185.4H215.7L227.1 147.485C233.3 165.585 239.3 182.685 240.3 185.485L242.2 190.785H255.6C265.3 190.785 269 190.485 269.4 189.485C269.6 188.885 271.5 178.185 273.6 165.785C275.7 153.385 277.7 142.985 278.1 142.485C278.4 142.085 280 148.885 281.5 157.485C283 166.185 284.9 177.185 285.8 181.985L287.4 190.785H300.6H313.9L317.8 179.985C320 174.085 326.2 156.985 331.7 142.085L341.6 114.785H370.8H400L399.5 110.985C396.4 87.4852 389.9 69.5852 378.1 52.2852C372.4 43.9852 358.8 29.8852 351.1 24.1852C337.4 14.0851 321.9 6.88515 304.6 2.68515C296.7 0.68515 269.9 -0.714853 262.6 0.385147ZM238.5 103.485C243.9 121.985 254.5 155.485 255.1 156.185C256.2 157.285 256.4 156.485 261.6 129.285C264.1 116.085 266.4 104.485 266.7 103.485C267.2 101.985 268.6 101.785 278.6 101.785C288.6 101.785 290 101.985 290.5 103.485C290.7 104.485 293.1 116.785 295.7 130.785C298.2 144.785 300.7 156.685 301.1 157.185C301.6 157.585 305.1 147.985 309.1 135.685C313 123.385 317 110.785 318 107.785L319.8 102.285L331.9 101.985C341.3 101.785 344.1 101.985 344.1 102.985C344.1 103.685 337.1 123.485 328.4 146.985L312.7 189.785H300.6H288.4L285.2 171.485C279.5 139.085 278.9 135.785 278.2 135.785C277.8 135.785 275.6 147.185 273.2 160.985C270.9 174.885 268.7 187.085 268.5 187.985C268 189.585 266.5 189.785 255.6 189.785H243.3L241.8 185.485C241 183.185 234.2 163.685 226.7 142.185C219.2 120.685 213.1 102.785 213.1 102.385C213.1 102.085 218.7 101.785 225.5 101.785C236.5 101.785 238 101.985 238.5 103.485ZM262.9 116.585C262.6 117.585 260.9 126.085 259.1 135.585C257.3 144.985 255.5 152.485 255.1 152.285C254.7 151.985 254.1 150.585 253.8 149.085C253.4 147.485 250.9 139.185 248.2 130.485L243.3 114.785H253.3C262.5 114.785 263.3 114.985 262.9 116.585ZM314.1 115.185C314.1 115.885 302.1 153.185 301.7 153.485C301.4 153.785 294.1 117.385 294.1 115.485C294.1 115.085 298.6 114.785 304.1 114.785C309.6 114.785 314.1 114.985 314.1 115.185Z" fill="#F1A037" fill-opacity="0.63"/>
<path d="M28.2 98.3839C12.4 102.584 4.1 112.384 4.1 126.784C4.1 133.684 5.9 138.484 10.3 142.884C14.5 146.984 20.5 149.684 36.7 154.384C50.4 158.384 54.4 160.884 53.4 164.584C52.4 168.684 49.3 170.284 42.6 170.284C34.9 170.284 31.1 167.984 29.7 162.484L28.7 158.784H14.4H0L0.6 163.484C1 166.184 2.8 170.984 4.5 174.284C10.4 185.184 21.4 190.684 38.6 191.484C59.2 192.484 74.5 185.484 80.1 172.584C81.9 168.384 82.2 165.984 81.9 159.184C81.6 151.984 81.2 150.484 78.6 146.684C74.5 140.984 66.2 136.584 52.1 132.784C38.3 129.184 33.3 127.084 31.9 124.484C28.9 118.784 43.1 115.584 48.5 120.684C49.9 122.084 51.1 123.984 51.1 124.984C51.1 126.684 52.2 126.784 65.1 126.784H79.1L78.5 122.484C75.9 106.084 61.9 96.6839 40.2 96.8839C36.6 96.8839 31.2 97.5839 28.2 98.3839Z" fill="#F1A037" fill-opacity="0.63"/>
<path d="M87.3004 149.085L88 174.5L89 177.5L90.5 180.5C93.5 185.6 95.5004 186.485 101.1 189.185C107.1 191.985 108.4 192.285 118.1 192.285C128 192.285 129.1 192.085 135.1 189.085C142.4 185.485 146.2 180.685 148 172.785C148.6 170.285 149.1 158.285 149.1 145.985V123.785H138.2H127.2L126.9 146.885L126.6 169.985L123.8 172.385C120.3 175.385 116 175.485 112.6 172.485C109.2 169.585 108.1 162.285 108.1 140.485V123.785H97.5004H86.9004L87.3004 149.085Z" fill="#F1A037" fill-opacity="0.63"/>
<path d="M155.1 157.285V190.785H165.6H176.1L176.3 173.985L176.6 157.285L186 173.985L195.3 190.785H205.7H216.1V157.285V123.785H206.1H196.1V139.985C196 153.185 195.8 155.985 194.8 154.685C194.1 153.785 190 146.485 185.7 138.385L177.8 123.785H166.5H155.1V157.285Z" fill="#F1A037" fill-opacity="0.63"/>
<path d="M348.8 124.985C344.1 137.385 325.1 189.585 325.1 190.085C325.1 190.485 330 190.785 336 190.785H346.8L348.1 186.285L349.4 181.785H359.6H369.8L371.1 186.285L372.4 190.785H383.8C394.4 190.785 395.3 190.685 394.6 188.985C394.2 188.085 388.7 172.985 382.4 155.485L370.8 123.785H360.1C352.4 123.785 349.2 124.185 348.8 124.985ZM381 155.985C387.3 173.185 392.6 187.885 392.9 188.485C393.2 189.485 390.9 189.785 383.3 189.785H373.3L372.2 185.285L371.1 180.785H359.6H348.1L347 185.285L345.9 189.785H336.4C327.3 189.785 326.9 189.685 327.4 187.685C327.7 186.585 333 171.985 339.2 155.185L350.4 124.785H360H369.6L381 155.985Z" fill="#F1A037" fill-opacity="0.63"/>
<path d="M356.3 155.585C354.5 160.985 353.1 165.685 353.1 166.085C353.1 166.485 356.2 166.785 360 166.785H366.9L363.8 156.285C362.2 150.485 360.5 145.785 360.2 145.785C359.8 145.785 358.1 150.185 356.3 155.585ZM362.4 156.185C363.3 159.785 364.4 163.385 364.7 164.185C365.2 165.485 364.4 165.785 360.2 165.785C357.4 165.785 355.1 165.485 355.1 164.985C355.1 163.285 359.5 149.785 360 149.785C360.4 149.785 361.5 152.685 362.4 156.185Z" fill="#F1A037" fill-opacity="0.63"/>
<path d="M399.1 157.285V190.785H409.6H420.1V179.285V167.785H426.6C432.2 167.785 433.5 168.185 435.6 170.185C437.9 172.485 438.2 173.585 439.8 184.785L440.6 190.285L451.9 190.585C462.5 190.785 463.1 190.785 462.3 189.085C461.7 188.085 461 184.085 460.6 180.285C459.7 170.985 458.5 166.985 454.9 162.485C453.3 160.485 452.5 158.785 453.1 158.785C453.7 158.785 455.5 156.685 457.2 153.985C460 149.685 460.2 148.685 459.9 142.285C459.5 133.785 457 129.785 449.9 126.185C445.3 123.885 444.5 123.785 422.1 123.785H399.1V157.285ZM448.1 126.885C454.7 129.685 458.1 134.285 458.8 141.185C459.5 147.785 456.6 154.585 451.9 157.585L448.9 159.485L451.9 161.585C456.1 164.585 458.1 169.585 459.5 180.385L460.7 189.785H451.4C444.8 189.785 441.9 189.385 441.6 188.485C441.4 187.885 440.7 183.685 440.2 179.285C438.9 168.485 437 166.785 426.5 166.785H419.1V178.285V189.785H409.6H400.1V157.285V124.785H421.7C441.4 124.785 443.6 124.985 448.1 126.885Z" fill="#F1A037" fill-opacity="0.63"/>
<path d="M419.1 146.285V153.785H426.4C434.7 153.785 438.2 152.385 439.5 148.585C441.7 142.285 436.6 138.785 424.9 138.785H419.1V146.285ZM436.2 141.785C438.8 143.285 439.5 146.485 437.7 149.285C436 151.885 430.4 153.185 424.1 152.585C420.7 152.285 420.6 152.185 420.3 147.385C419.8 139.685 420.1 139.385 427.8 140.185C431.4 140.585 435.2 141.285 436.2 141.785Z" fill="#F1A037" fill-opacity="0.63"/>
<path d="M468.1 157.285V190.785H496.6H525.1V181.785V172.785H507.1H489.1V169.285V165.785H505.1H521.1V157.285V148.785H505.1H489.1V145.285V141.785H506.6H524.1V132.785V123.785H496.1H468.1V157.285ZM522.9 132.485L522.6 140.285L505.4 140.585L488.1 140.785V145.285V149.685L503.9 149.985L519.6 150.285V157.285V164.285L503.9 164.585L488.1 164.885V169.285V173.785H506.1H524.1V181.785V189.785H496.6H469.1V157.285V124.785H496.1H523.2L522.9 132.485Z" fill="#F1A037" fill-opacity="0.63"/>
</svg>
