<svg width="1000" height="366" viewBox="0 0 1000 366" fill="none" xmlns="http://www.w3.org/2000/svg">
<path fill-rule="evenodd" clip-rule="evenodd" d="M653.699 195.907H608.476L575.139 300.205L574.575 301.965H572.749H572.355H570.274L569.886 299.909L550.17 195.316H508.004L487.905 298.539L487.507 300.586H485.437H485.043H483.192L482.643 298.805L450.475 194.527H405.01L462.779 360.602H508.155L525.727 259.005L526.089 256.91H528.206H528.601H530.711L531.079 258.995L549.04 360.602H593.267L653.699 195.907ZM294.849 217.044C295.244 212.51 295.44 210.144 295.834 205.807C296.623 198.514 297.215 194.571 298.594 187.671C299.973 180.18 301.156 176.238 302.93 169.141C305.492 160.664 307.069 155.933 310.223 147.85C312.39 142.134 313.77 138.98 316.332 133.46C319.289 127.546 321.063 124.194 324.216 118.478C327.566 112.564 329.34 109.212 333.085 103.692C337.027 98.1732 339.195 95.2155 343.334 90.0904C346.882 85.5565 348.852 82.9933 352.597 78.6567C356.736 74.1229 358.904 71.5601 363.24 67.0254C367.576 62.6892 369.941 60.3232 374.474 56.5775C379.599 52.24 382.752 50.0721 387.877 46.3264C392.607 42.581 395.366 40.6095 400.096 37.2578C406.009 33.5129 409.557 31.7382 415.667 28.3874C420.791 25.6278 423.747 24.0503 428.871 21.6848C433.602 19.3188 436.164 18.3335 440.894 16.5592C445.625 14.5886 448.187 13.6024 452.917 12.0254C460.209 9.65983 464.348 8.6745 471.641 6.8994C477.75 5.32195 481.298 4.53385 487.408 3.54852C492.335 2.5632 494.898 2.16915 499.825 1.77426C505.54 1.18298 508.693 0.986168 514.409 0.788095C520.52 0.197653 523.87 0 529.783 0C537.469 0 541.608 0.59212 549.098 1.38021C555.011 1.9715 558.361 2.16915 564.077 3.15448C569.99 3.94257 573.34 4.73109 579.056 6.1113C585.165 7.49152 588.516 8.47642 594.232 10.2511C601.721 12.6171 605.86 13.9964 612.955 16.756C619.066 19.1224 622.416 20.305 628.131 23.2614C633.453 26.0218 636.212 27.7952 641.337 30.7529C645.87 33.3153 648.432 34.6963 652.768 37.2578C656.907 40.0183 659.272 41.5957 663.411 44.5521C668.535 48.2979 671.492 50.4662 676.222 54.8032C680.755 58.3517 682.923 60.7173 686.865 64.6599C690.807 68.4056 692.777 70.7712 696.522 74.7137C700.661 78.8535 703.224 81.2191 707.165 85.951C711.698 91.0757 713.867 94.2298 717.808 99.9466C722.341 106.65 724.706 110.593 728.648 117.689C731.998 123.406 733.773 126.757 736.532 132.869C739.883 139.571 741.46 143.514 744.021 150.611C746.584 156.919 747.569 160.664 749.54 167.367C751.905 175.252 753.482 179.786 755.058 187.869C756.635 195.557 756.833 199.894 757.818 207.779C758.212 211.327 758.409 213.299 758.803 217.044H651.299L597.381 363.986L596.774 365.639H595.021H546.93H544.82L544.451 363.553L528.427 272.902L512.749 363.544L512.386 365.639H510.27H460.998H459.215L458.628 363.947L407.527 217.044H294.849ZM596.455 217.044H559.377L573.132 290.012L596.455 217.044ZM498.653 217.044H462.676L484.732 288.54L498.653 217.044Z" fill="#F1A037" fill-opacity="0.63"/>
<path d="M622.079 360.204H655.853L661.011 343.839L661.568 342.068H663.41H703.814H705.692L706.224 343.879L711.013 360.204H746.145L701.666 238.287H666.937L622.079 360.204ZM657.695 365.242H618.474H614.868L616.113 361.858L662.824 234.903L663.432 233.25H665.184H703.421H705.174L705.781 234.913L752.097 361.867L753.328 365.242H749.737H709.135H707.257L706.726 363.431L701.937 347.105H665.252L660.095 363.47L659.536 365.242H657.695ZM669.495 316.625L681.912 277.592L682.472 275.831H684.302H684.696H686.588L687.115 277.661L698.35 316.694L699.272 319.901H695.931H671.885H668.453L669.495 316.625ZM684.384 286.361L675.318 314.864H692.588L684.384 286.361Z" fill="#F1A037" fill-opacity="0.63"/>
<path d="M761.322 360.204H795.31V318.565V316.046H797.828H818.72C836.56 316.046 837.685 329.772 838.759 342.898L838.768 343.01L838.762 343.01C839.046 346.133 839.384 349.346 839.883 352.665C840.266 355.22 840.74 357.75 841.347 360.204H874.849C873.036 354.443 872.505 346.214 872.12 340.219C872.003 338.406 871.899 336.794 871.801 335.745L871.792 335.735C871.123 328.099 869.217 321.467 866.172 316.338C863.328 311.546 859.48 308.069 854.72 306.338L848.314 304.009L854.701 301.626C860.3 299.536 864.464 295.668 867.313 290.908C870.618 285.387 872.175 278.649 872.175 272.042C872.175 261.424 868.208 253.312 861.847 247.737C854.679 241.455 844.43 238.287 833.304 238.287H761.322V360.204ZM797.828 365.242H758.803H756.285V362.723V235.769V233.25H758.803H833.304C845.599 233.25 857.028 236.841 865.151 243.96C872.579 250.47 877.211 259.851 877.211 272.042C877.211 279.486 875.422 287.136 871.62 293.485C869.084 297.722 865.659 301.374 861.282 304.005C864.978 306.354 868.063 309.674 870.499 313.78C873.934 319.566 876.074 326.923 876.807 335.302L876.798 335.303C876.93 336.707 877.027 338.212 877.135 339.904C877.586 346.916 878.248 357.198 880.789 361.434L883.072 365.242H878.635H839.414H837.511L836.994 363.402C836.071 360.118 835.409 356.766 834.906 353.413C834.421 350.188 834.069 346.803 833.763 343.433L833.752 343.404L833.744 343.292C832.855 332.436 831.924 321.084 818.72 321.084H800.346V362.723V365.242H797.828ZM797.828 263.608H816.157V263.619C824.216 263.516 829.575 264.816 832.981 267.295C836.722 270.016 838.092 273.912 837.98 278.77C838.078 285.516 835.042 289.346 830.858 291.499C826.995 293.487 822.268 293.879 818.326 293.879H797.828H795.31V291.361V266.127V263.608H797.828ZM816.157 268.646H800.346V288.842H818.326C821.674 288.842 825.621 288.544 828.557 287.033C831.157 285.694 833.042 283.23 832.964 278.783V278.685C833.042 275.476 832.24 272.974 830.031 271.367C827.481 269.512 823.091 268.545 816.187 268.635L816.157 268.646Z" fill="#F1A037" fill-opacity="0.63"/>
<path d="M892.98 360.204H994.964V332.714H929.485H926.967V330.196V314.425V311.906H929.485H986.883V286.782H929.485H926.967V284.263V268.295V265.777H929.485H992.994V238.287H892.98V360.204ZM997.482 365.242H890.462H887.943V362.723V235.769V233.25H890.462H995.511H998.029V235.769V268.295V270.814H995.511H932.003V281.745H989.401H991.919V284.263V314.425V316.944H989.401H932.003V327.677H997.482H1000V330.196V362.723V365.242H997.482Z" fill="#F1A037" fill-opacity="0.63"/>
<path fill-rule="evenodd" clip-rule="evenodd" d="M0 303.047C0.591155 357.653 55.9743 364.554 75.289 364.751C113.524 364.554 154.52 350.163 154.52 305.611C154.52 274.267 130.474 263.029 106.232 256.327C81.9897 249.624 57.5506 246.865 56.5646 234.643C56.5646 225.18 68.391 223.208 75.4862 223.208C80.8078 223.208 86.9178 224.391 91.0559 227.545C95.3924 230.306 98.3486 234.643 97.3635 241.148H147.227C145.848 199.356 112.934 185.359 75.6829 185.359C40.6001 185.359 6.70074 202.313 6.70074 241.936C6.70074 276.434 37.6443 283.926 64.6457 291.614C94.2097 299.893 101.699 302.259 101.699 311.13C101.699 323.943 88.4937 326.704 79.8219 326.901C70.1641 326.704 58.5357 324.535 54.5939 314.284C53.6088 311.13 52.8205 307.384 52.8205 303.047H0Z" fill="#F1A037" fill-opacity="0.63"/>
<path fill-rule="evenodd" clip-rule="evenodd" d="M280.856 235.82H241.831V305.014C241.831 318.025 241.831 334.19 223.305 334.19C204.384 334.19 204.384 318.025 204.187 305.014V235.82H165.163V313.688C165.163 348.974 184.477 365.731 223.108 365.928C261.935 365.731 281.052 348.974 280.856 313.688V235.82Z" fill="#F1A037" fill-opacity="0.63"/>
<path fill-rule="evenodd" clip-rule="evenodd" d="M295.44 362.774H332.494V293.382H332.888L371.715 362.774H409.753V235.82H372.897V303.831H372.503L335.45 235.82H295.44V362.774Z" fill="#F1A037" fill-opacity="0.63"/>
</svg>
