<svg width="1009" height="369" viewBox="0 0 1009 369" fill="none" xmlns="http://www.w3.org/2000/svg">
<path fill-rule="evenodd" clip-rule="evenodd" d="M659.178 197.549H613.576L579.959 302.721L579.391 304.496H577.549H577.152H575.053L574.663 302.423L554.781 196.953H512.262L491.994 301.042L491.593 303.105H489.505H489.108H487.242L486.688 301.31L454.251 196.158H408.404L466.658 363.625H512.414L530.134 261.176L530.499 259.063H532.633H533.031H535.159L535.531 261.166L553.642 363.625H598.239L659.178 197.549ZM297.32 218.863C297.718 214.292 297.916 211.906 298.314 207.532C299.109 200.178 299.706 196.202 301.097 189.244C302.487 181.691 303.68 177.715 305.469 170.558C308.052 162.011 309.642 157.24 312.823 149.09C315.008 143.325 316.4 140.144 318.983 134.579C321.965 128.615 323.753 125.235 326.934 119.471C330.312 113.507 332.1 110.128 335.877 104.562C339.852 98.9961 342.038 96.0136 346.211 90.8455C349.789 86.2737 351.776 83.689 355.553 79.316C359.726 74.7442 361.913 72.1599 366.285 67.5872C370.657 63.2147 373.042 60.8289 377.613 57.0517C382.78 52.6779 385.96 50.4918 391.127 46.7147C395.898 42.9379 398.679 40.9499 403.449 37.5701C409.412 33.7938 412.99 32.0043 419.151 28.6253C424.318 25.8426 427.299 24.2519 432.466 21.8665C437.236 19.4807 439.82 18.4872 444.589 16.698C449.36 14.7108 451.943 13.7164 456.713 12.1262C464.066 9.74079 468.24 8.74721 475.594 6.95723C481.754 5.36656 485.332 4.57186 491.493 3.57827C496.461 2.58468 499.046 2.18733 504.014 1.78913C509.777 1.1929 512.957 0.994434 518.721 0.7947C524.882 0.19931 528.261 0 534.223 0C541.974 0 546.148 0.597083 553.7 1.39178C559.663 1.98802 563.041 2.18733 568.805 3.18092C574.767 3.97562 578.145 4.77074 583.91 6.16253C590.07 7.55431 593.449 8.54747 599.213 10.337C606.764 12.7228 610.938 14.1138 618.093 16.8965C624.255 19.2827 627.633 20.4752 633.396 23.4564C638.762 26.2399 641.544 28.0282 646.712 31.0107C651.283 33.5945 653.867 34.9871 658.24 37.5701C662.413 40.3537 664.798 41.9444 668.971 44.9255C674.138 48.7027 677.12 50.8892 681.889 55.2626C686.46 58.8408 688.647 61.2262 692.622 65.2018C696.597 68.979 698.584 71.3644 702.36 75.34C706.534 79.5145 709.118 81.8999 713.092 86.6714C717.664 91.8391 719.85 95.0196 723.825 100.784C728.396 107.544 730.781 111.52 734.755 118.675C738.134 124.44 739.923 127.819 742.705 133.982C746.084 140.741 747.674 144.717 750.257 151.873C752.841 158.234 753.835 162.011 755.822 168.77C758.208 176.721 759.797 181.293 761.387 189.443C762.977 197.196 763.176 201.57 764.17 209.52C764.567 213.099 764.766 215.087 765.163 218.863H656.758L602.388 367.037L601.776 368.704H600.008H551.514H549.386L549.015 366.601L532.856 275.189L517.047 366.591L516.681 368.704H514.547H464.861H463.064L462.472 366.997L410.943 218.863H297.32ZM601.454 218.863H564.066L577.935 292.443L601.454 218.863ZM502.832 218.863H466.554L488.794 290.959L502.832 218.863Z" fill="#F1A037" fill-opacity="0.63"/>
<path d="M627.294 363.225H661.351L666.551 346.723L667.113 344.937H668.971H709.714H711.608L712.144 346.763L716.973 363.225H752.399L707.548 240.286H672.527L627.294 363.225ZM663.208 368.305H623.658H620.021L621.277 364.893L668.38 236.874L668.993 235.207H670.76H709.317H711.085L711.697 236.884L758.402 364.902L759.642 368.305H756.021H715.079H713.185L712.65 366.479L707.82 350.017H670.828L665.628 366.519L665.064 368.305H663.208ZM675.107 319.281L687.627 279.921L688.192 278.145H690.038H690.435H692.343L692.875 279.99L704.203 319.35L705.134 322.584H701.764H677.517H674.056L675.107 319.281ZM690.121 288.763L680.978 317.505H698.393L690.121 288.763Z" fill="#F1A037" fill-opacity="0.63"/>
<path d="M767.703 363.225H801.976V321.237V318.697H804.515H825.582C843.572 318.697 844.706 332.538 845.789 345.774L845.799 345.887L845.792 345.887C846.078 349.037 846.419 352.276 846.922 355.623C847.309 358.2 847.787 360.75 848.399 363.225H882.182C880.353 357.416 879.818 349.118 879.43 343.073C879.312 341.244 879.207 339.619 879.108 338.561L879.099 338.551C878.425 330.851 876.502 324.164 873.432 318.991C870.564 314.159 866.684 310.653 861.884 308.908L855.425 306.559L861.864 304.156C867.511 302.049 871.71 298.148 874.582 293.348C877.916 287.781 879.485 280.987 879.485 274.324C879.485 263.617 875.485 255.437 869.07 249.815C861.843 243.481 851.507 240.286 840.289 240.286H767.703V363.225ZM804.515 368.305H765.163H762.624V365.765V237.747V235.207H765.163H840.289C852.687 235.207 864.211 238.828 872.402 246.007C879.893 252.572 884.564 262.031 884.564 274.324C884.564 281.83 882.759 289.545 878.926 295.947C876.368 300.22 872.915 303.902 868.501 306.555C872.227 308.924 875.338 312.272 877.796 316.412C881.259 322.247 883.417 329.665 884.156 338.115L884.147 338.116C884.28 339.531 884.378 341.049 884.487 342.755C884.941 349.825 885.609 360.194 888.171 364.466L890.474 368.305H886H846.449H844.531L844.01 366.45C843.079 363.139 842.411 359.759 841.904 356.377C841.415 353.125 841.06 349.712 840.751 346.313L840.741 346.284L840.732 346.171C839.836 335.224 838.897 323.777 825.582 323.777H807.054V365.765V368.305H804.515ZM804.515 265.82H822.998V265.83C831.124 265.727 836.528 267.038 839.963 269.537C843.735 272.282 845.117 276.21 845.004 281.109C845.103 287.912 842.041 291.773 837.822 293.944C833.927 295.949 829.16 296.344 825.185 296.344H804.515H801.976V293.805V268.36V265.82H804.515ZM822.998 270.9H807.054V291.265H825.185C828.561 291.265 832.541 290.964 835.501 289.44C838.124 288.091 840.024 285.606 839.945 281.121V281.022C840.024 277.787 839.216 275.264 836.988 273.643C834.417 271.773 829.99 270.798 823.028 270.889L822.998 270.9Z" fill="#F1A037" fill-opacity="0.63"/>
<path d="M900.464 363.225H1003.3V335.505H937.276H934.737V332.966V317.062V314.523H937.276H995.154V289.188H937.276H934.737V286.648V270.546V268.006H937.276H1001.32V240.286H900.464V363.225ZM1005.84 368.305H897.925H895.386V365.765V237.747V235.207H897.925H1003.86H1006.39V237.747V270.546V273.086H1003.86H939.815V284.108H997.694H1000.23V286.648V317.062V319.602H997.694H939.815V330.426H1005.84H1008.38V332.966V365.765V368.305H1005.84Z" fill="#F1A037" fill-opacity="0.63"/>
<path fill-rule="evenodd" clip-rule="evenodd" d="M0 305.588C0.59611 360.652 56.4434 367.61 75.92 367.809C114.476 367.61 155.815 353.099 155.815 308.173C155.815 276.567 131.568 265.235 107.123 258.477C82.6769 251.718 58.0329 248.935 57.0387 236.61C57.0387 227.068 68.9643 225.08 76.1189 225.08C81.4851 225.08 87.6464 226.273 91.8191 229.453C96.192 232.237 99.173 236.61 98.1796 243.17H148.461C147.07 201.028 113.88 186.914 76.3173 186.914C40.9404 186.914 6.7569 204.009 6.7569 243.965C6.7569 278.752 37.9598 286.307 65.1875 294.059C94.9994 302.408 102.552 304.794 102.552 313.739C102.552 326.659 89.2354 329.443 80.4909 329.642C70.7522 329.443 59.0263 327.257 55.0515 316.92C54.0582 313.739 53.2632 309.962 53.2632 305.588H0Z" fill="#F1A037" fill-opacity="0.63"/>
<path fill-rule="evenodd" clip-rule="evenodd" d="M283.21 237.801H243.858V307.574C243.858 320.694 243.858 336.995 225.177 336.995C206.097 336.995 206.097 320.694 205.899 307.574V237.801H166.547V316.321C166.547 351.903 186.023 368.801 224.978 368.999C264.13 368.801 283.408 351.903 283.21 316.321V237.801Z" fill="#F1A037" fill-opacity="0.63"/>
<path fill-rule="evenodd" clip-rule="evenodd" d="M297.916 365.819H335.28V295.845H335.678L374.83 365.819H413.187V237.801H376.022V306.382H375.625L338.261 237.801H297.916V365.819Z" fill="#F1A037" fill-opacity="0.63"/>
</svg>
