<svg width="1000" height="619" viewBox="0 0 1000 619" fill="none" xmlns="http://www.w3.org/2000/svg">
<path d="M436.641 34.4082C381.246 72.0604 383.057 71.3364 343.592 60.8372L326.938 56.4927L291.094 76.4049C271.543 87.2662 245.475 101.748 233.165 108.627L210.718 120.574L231.355 132.521C249.458 143.021 254.165 144.107 270.095 142.296C288.198 140.124 288.922 140.486 307.387 157.14C330.921 178.139 341.058 197.327 343.23 224.842C347.213 266.839 329.11 297.974 290.008 317.886C255.613 334.902 238.958 335.264 177.771 320.059C120.928 305.939 73.4984 299.422 77.8431 306.663C79.2913 309.197 82.9119 311.008 86.1704 311.008C93.0494 311.008 146.996 339.609 169.805 355.177C229.907 396.449 290.37 401.518 351.92 370.382C361.333 365.676 383.419 350.108 401.159 335.988C454.382 292.544 482.26 275.89 513.397 269.011C550.327 260.684 577.481 263.942 635.772 283.855C661.478 292.544 683.201 299.06 684.288 298.336C686.098 296.164 659.668 234.617 650.616 221.221C646.634 214.705 631.065 200.585 616.945 189.724C602.463 178.501 588.343 166.191 585.446 161.485C582.55 157.14 576.033 133.97 570.602 110.075C557.93 51.7861 559.016 54.3204 544.172 47.8037C536.569 44.5453 526.793 40.2008 522.086 38.0286C517.38 35.8563 508.69 26.4433 502.897 16.6681C496.742 7.25507 490.95 -0.347798 489.863 0.0142437C488.415 0.0142437 464.519 15.582 436.641 34.4082ZM493.122 29.3396C505.794 44.9074 497.467 75.6809 480.45 75.6809C469.588 75.6809 452.934 95.5931 416.728 151.347C396.091 183.569 377.988 209.636 376.178 209.636C368.212 209.636 365.678 141.572 372.195 110.075C375.091 96.3172 378.35 93.4209 429.4 58.6649C459.451 38.3906 484.432 21.7367 484.795 21.7367C485.519 21.3747 489.139 24.9951 493.122 29.3396ZM326.214 99.5756C326.214 119.126 325.852 119.488 313.18 124.918C303.042 129.263 297.611 129.625 288.198 126.367C279.146 123.47 273.716 123.47 268.285 126.367C259.233 131.073 243.303 124.556 249.82 118.04C255.251 112.609 316.076 80.0254 321.869 79.6633C324.766 79.3013 326.214 85.456 326.214 99.5756ZM464.519 203.843C458.364 232.083 458.002 232.807 440.986 243.306C422.159 254.891 403.332 257.064 391.384 248.375C384.143 243.306 385.591 241.858 426.503 204.206C451.485 181.397 469.588 167.277 469.95 170.174C470.674 173.07 468.14 188.276 464.519 203.843ZM577.119 204.568L594.498 221.221L586.17 227.376C578.205 232.807 535.845 241.496 513.397 241.858C503.259 242.22 503.621 241.496 527.155 215.067C540.551 200.223 553.585 187.914 555.758 187.914C557.93 187.914 567.705 195.517 577.119 204.568ZM389.212 327.3C324.766 378.347 259.233 389.933 207.459 359.521C190.081 349.384 188.994 344.677 205.287 351.194C220.855 357.711 276.974 356.625 308.111 349.746C322.955 346.126 348.299 338.161 364.23 331.644C394.28 319.335 401.159 318.248 389.212 327.3Z" fill="#F1A037" fill-opacity="0.63"/>
<path d="M711.805 112.614C711.08 115.148 709.632 127.82 709.27 140.853C708.184 163.662 707.822 164.386 698.408 165.472C688.271 166.558 688.271 166.196 688.271 146.646C688.271 127.458 687.909 126.372 679.219 126.372C670.53 126.372 670.168 127.096 670.168 149.18C670.168 175.971 676.323 184.298 694.788 184.298H706.374V206.021V227.381L694.788 225.571C688.271 224.485 681.03 223.037 678.495 222.313C673.064 220.502 673.064 220.502 707.822 297.979C723.028 331.649 734.614 360.25 733.528 360.974C732.804 361.698 719.408 355.182 703.839 346.131C637.221 307.03 592.688 292.186 543.448 292.186C502.174 292.186 481.537 300.513 439.9 333.459C393.919 370.749 370.385 391.748 378.713 388.851C399.712 381.611 465.606 368.939 501.45 365.319C549.965 360.612 592.326 364.233 657.496 378.352C715.063 390.662 785.302 393.92 818.611 385.593C858.437 375.818 896.815 354.458 929.038 324.408C944.969 309.564 960.899 292.549 964.158 286.394L970.675 275.533L947.865 282.773C930.125 288.928 916.004 290.376 880.161 290.376C828.387 290.014 811.008 285.67 769.371 261.051C732.442 239.328 728.097 235.346 728.097 226.295C728.097 219.054 730.269 217.606 742.941 215.796C751.269 214.71 759.596 211.813 761.044 208.917C765.389 202.038 765.027 159.679 760.682 157.145C753.079 152.439 746.2 163.3 746.2 179.23C746.2 193.711 745.476 195.159 737.148 195.159C728.459 195.159 728.459 195.159 727.373 152.801C726.287 115.51 725.563 110.08 719.77 108.994C716.511 108.27 712.891 109.718 711.805 112.614Z" fill="#F1A037" fill-opacity="0.63"/>
<path d="M188.632 164.388C183.925 170.18 186.097 180.68 191.89 180.68C193.7 180.68 196.597 178.869 197.683 177.059C198.769 174.887 205.286 173.439 211.441 173.439L223.027 173.077L214.338 166.198C204.2 157.509 194.787 156.785 188.632 164.388Z" fill="#F1A037" fill-opacity="0.63"/>
<path d="M250.18 175.246C245.835 180.676 246.559 181.4 272.989 205.295C285.299 216.156 288.196 229.914 280.955 241.137C273.351 252.361 267.559 250.188 263.576 234.621C257.421 210.364 253.076 202.399 246.197 202.399C237.87 202.399 237.508 205.657 245.473 222.311C250.18 232.086 250.542 236.069 247.283 239.327C244.025 242.585 241.853 240.413 237.508 229.914C230.267 212.536 217.595 206.381 204.923 214.708C187.906 225.932 196.595 237.517 214.336 226.656C220.491 223.035 222.301 223.397 227.008 229.19C237.146 243.31 229.905 278.066 215.784 283.496C200.94 288.927 176.32 284.944 140.839 271.187C90.5129 251.636 79.6512 251.999 59.376 272.997C50.6867 282.048 43.8076 291.099 43.8076 292.909C43.8076 294.719 50.6867 292.909 59.376 289.289C80.0133 279.876 92.6852 280.238 154.959 292.909C249.094 312.097 283.127 305.219 304.85 263.222C321.505 231 304.488 186.469 270.817 173.798C257.421 168.729 255.611 168.729 250.18 175.246Z" fill="#F1A037" fill-opacity="0.63"/>
<path d="M175.237 191.543C160.754 197.336 153.875 221.23 165.461 225.575C169.082 227.023 175.961 223.403 184.288 216.524C191.167 210.369 202.029 203.49 207.822 201.318C217.959 198.06 218.321 197.336 212.166 192.629C204.563 187.198 187.185 186.836 175.237 191.543Z" fill="#F1A037" fill-opacity="0.63"/>
<path d="M40.9124 323.321C38.74 325.493 28.9645 353.008 18.8269 384.506L0 442.07L6.15496 458L12.3099 473.93H497.828H983.707L991.673 457.276L1000 440.622L990.949 401.883C985.88 380.885 980.449 355.542 979.001 345.405C977.19 333.458 974.294 326.941 970.311 326.217C967.415 325.855 946.416 337.44 924.33 351.922C880.883 381.247 844.316 398.263 805.214 407.314C772.629 414.917 730.63 412.021 666.546 397.901C568.429 376.179 530.413 375.454 436.64 393.919C362.781 408.762 313.541 413.831 268.284 411.297C223.389 409.124 202.028 402.246 165.098 377.627C139.754 360.611 67.3425 324.407 52.1361 320.786C47.7915 319.7 42.7227 320.786 40.9124 323.321Z" fill="#F1A037" fill-opacity="0.45"/>
<path d="M33.6716 552.494C34.7578 592.319 35.1198 595.215 41.9989 595.215C48.5159 595.215 49.24 592.319 50.3262 572.406C51.0503 555.752 52.8606 549.96 56.4812 549.96C59.3776 549.96 61.912 546.701 61.912 542.719C61.912 538.736 59.3776 535.478 56.4812 535.478C52.8606 535.478 51.0503 531.496 51.0503 522.807C51.0503 511.583 49.9642 510.135 41.9989 510.135H32.5854L33.6716 552.494Z" fill="#F1A037" fill-opacity="0.63"/>
<path d="M65.5308 553.941C65.5308 597.023 65.5308 597.385 73.8581 596.299C81.0992 595.213 81.8233 593.041 82.9095 572.405C83.9956 551.406 84.3577 549.958 92.685 549.958C101.374 549.958 101.736 551.044 101.736 573.491C101.736 594.851 102.461 597.023 108.978 597.023C116.219 597.023 116.581 595.213 115.495 567.336L114.408 537.287L99.202 536.201C83.9956 535.114 83.6336 534.752 83.6336 522.443C83.6336 511.582 82.5474 510.134 74.5822 510.134H65.5308V553.941Z" fill="#F1A037" fill-opacity="0.63"/>
<path d="M289.284 521.719C288.198 532.942 287.112 533.666 271.905 535.476L255.613 537.287L254.526 561.905C253.078 591.593 256.699 597.023 276.25 597.023C303.042 597.023 304.49 594.851 304.49 549.958C304.49 513.03 304.128 510.134 297.611 510.134C292.18 510.134 290.008 513.03 289.284 521.719ZM289.284 565.164C290.37 578.197 290.008 578.921 279.508 578.921C268.647 578.921 268.285 578.197 268.285 564.078C268.285 550.32 268.647 549.596 278.422 550.682C286.75 551.768 288.198 553.578 289.284 565.164Z" fill="#F1A037" fill-opacity="0.45"/>
<path d="M500.724 552.486C501.81 593.759 502.172 595.207 510.137 596.293C517.74 597.379 518.103 596.293 518.103 573.846C518.103 555.02 519.189 549.952 523.533 549.952C526.43 549.952 528.964 546.693 528.964 542.711C528.964 538.728 526.43 535.47 523.533 535.47C519.913 535.47 518.103 531.488 518.103 522.799C518.103 511.575 517.016 510.127 509.051 510.127H499.638L500.724 552.486Z" fill="#F1A037" fill-opacity="0.45"/>
<path d="M854.814 553.578C854.814 594.489 855.176 597.023 862.055 597.023C868.572 597.023 869.296 594.489 869.296 573.491C869.296 555.027 870.382 549.958 874.727 549.958C877.624 549.958 880.158 546.7 880.158 542.717C880.158 538.735 877.624 535.476 874.727 535.476C871.107 535.476 869.296 531.494 869.296 522.805C869.296 512.668 867.848 510.134 862.055 510.134C855.176 510.134 854.814 512.668 854.814 553.578Z" fill="#F1A037" fill-opacity="0.63"/>
<path d="M949.674 552.494C950.76 592.319 951.122 595.215 958.001 595.215C964.88 595.215 965.243 592.319 966.329 552.494L967.415 510.135H958.001H948.588L949.674 552.494Z" fill="#F1A037" fill-opacity="0.63"/>
<path d="M131.425 539.825C128.891 542.359 127.081 553.221 127.081 564.444C127.081 591.597 133.598 597.752 160.028 596.303C176.682 595.217 179.579 594.131 179.579 587.976C179.579 581.822 176.32 580.374 161.476 578.563L143.373 576.753L156.045 570.961C162.924 568.064 171.614 564.444 175.234 563.358C182.113 560.823 183.199 552.859 177.768 542.359C174.51 536.929 169.803 535.481 154.959 535.481C144.459 535.481 133.96 537.291 131.425 539.825ZM159.666 553.583C152.425 558.289 145.183 558.289 145.183 553.583C145.183 551.41 149.528 549.962 155.321 549.962C162.924 549.962 164.01 550.686 159.666 553.583Z" fill="#F1A037" fill-opacity="0.63"/>
<path d="M188.63 542.717C188.63 548.872 191.164 549.958 207.819 550.32L226.646 551.044L211.077 553.579C193.699 556.113 188.63 561.181 188.63 576.025C188.63 590.145 197.319 597.023 215.784 597.023C237.145 597.023 242.938 590.507 242.938 566.25C242.938 536.201 242.214 535.476 213.612 535.476C191.164 535.476 188.63 536.201 188.63 542.717ZM224.836 573.491C224.836 576.749 221.577 578.921 215.784 578.921C209.991 578.921 206.733 576.749 206.733 573.491C206.733 570.232 209.991 568.06 215.784 568.06C221.577 568.06 224.836 570.232 224.836 573.491Z" fill="#F1A037" fill-opacity="0.45"/>
<path d="M320.419 565.165C330.194 590.87 333.091 595.215 340.332 595.215C347.573 595.215 350.47 591.232 359.159 568.062C371.469 535.84 371.831 535.478 362.417 535.478C357.711 535.478 353.728 539.098 351.556 544.529C349.383 549.598 346.125 557.925 343.952 563.355L339.97 573.492L332.729 554.304C326.936 539.098 324.039 535.478 317.16 535.478H308.833L320.419 565.165Z" fill="#F1A037" fill-opacity="0.45"/>
<path d="M379.434 537.649C377.986 539.097 376.899 551.406 376.899 564.802C376.899 593.765 380.158 597.023 409.122 597.023C426.501 597.023 427.587 596.299 427.587 587.972C427.587 579.645 426.139 578.921 410.933 578.921C391.382 578.921 392.468 573.853 413.467 567.698C427.225 563.354 427.949 562.63 426.863 550.32L425.777 537.287L404.054 536.201C391.744 535.476 380.882 536.201 379.434 537.649ZM407.674 553.579C406.588 555.389 402.243 557.199 398.261 557.199C394.278 557.199 392.106 555.389 393.192 553.579C394.278 551.406 398.623 549.958 402.605 549.958C406.588 549.958 408.76 551.406 407.674 553.579Z" fill="#F1A037" fill-opacity="0.45"/>
<path d="M440.984 537.649C439.535 539.097 438.449 553.216 438.449 568.784C438.449 594.489 439.173 597.023 445.69 597.023C451.483 597.023 452.569 594.127 453.656 574.215C454.742 552.854 455.104 551.768 464.879 550.682L474.655 549.596V573.129C474.655 594.851 475.379 597.023 481.896 597.023C489.137 597.023 489.499 595.213 488.413 567.336L487.327 537.287L465.603 536.201C453.294 535.476 442.432 536.201 440.984 537.649Z" fill="#F1A037" fill-opacity="0.45"/>
<path d="M532.584 560.457C532.584 590.145 537.291 597.023 557.928 597.023C582.186 597.023 583.272 595.937 583.272 564.078C583.272 538.011 582.548 535.476 576.031 535.476C569.514 535.476 568.79 538.011 568.79 557.199C568.79 577.835 568.428 578.921 559.738 578.921C551.049 578.921 550.687 577.835 550.687 557.199C550.687 536.563 550.325 535.476 541.635 535.476C532.946 535.476 532.584 536.201 532.584 560.457Z" fill="#F1A037" fill-opacity="0.45"/>
<path d="M597.756 542.711C595.583 546.693 594.135 560.089 594.859 572.76C595.945 593.035 596.67 595.207 604.273 596.293C611.876 597.379 612.238 596.293 612.238 573.846C612.238 555.02 613.324 549.952 617.669 549.952C620.565 549.952 623.1 546.693 623.1 542.711C623.1 532.574 603.187 532.574 597.756 542.711Z" fill="#F1A037" fill-opacity="0.45"/>
<path d="M632.873 537.649C631.425 539.097 630.339 551.406 630.339 564.802C630.339 593.765 633.597 597.023 662.562 597.023C679.941 597.023 681.027 596.299 681.027 587.972C681.027 579.645 679.579 578.921 664.372 578.921C644.821 578.921 645.907 573.853 666.907 567.698C680.665 563.354 681.389 562.63 680.303 550.32L679.217 537.287L657.493 536.201C645.183 535.476 634.321 536.201 632.873 537.649ZM661.114 553.579C660.028 555.389 655.683 557.199 651.7 557.199C647.718 557.199 645.545 555.389 646.631 553.579C647.718 551.406 652.062 549.958 656.045 549.958C660.028 549.958 662.2 551.406 661.114 553.579Z" fill="#F1A037" fill-opacity="0.45"/>
<path d="M694.061 540.907C692.975 544.166 691.889 562.992 691.889 582.904C691.889 618.746 691.889 618.746 700.94 618.746C708.543 618.746 709.992 616.936 709.992 607.885C709.992 598.472 711.44 597.024 720.129 597.024C738.956 597.024 742.939 590.507 741.852 562.63L740.766 537.287L718.681 536.201C700.94 535.477 695.871 536.201 694.061 540.907ZM728.094 564.44C728.094 577.473 727.37 578.922 719.043 578.922C711.078 578.922 709.992 577.473 709.992 564.44C709.992 551.406 711.078 549.958 719.043 549.958C727.37 549.958 728.094 551.406 728.094 564.44Z" fill="#F1A037" fill-opacity="0.63"/>
<path d="M757.059 542.355C755.249 546.338 753.438 557.561 753.438 567.336C753.438 588.696 760.68 597.023 780.231 597.023C803.402 597.023 807.747 592.679 807.747 568.06C807.747 536.563 806.661 535.476 782.041 535.476C765.024 535.476 760.318 536.925 757.059 542.355ZM791.454 564.44C791.454 575.663 790.368 577.111 781.679 578.197C771.903 579.283 771.541 578.559 771.541 564.44C771.541 550.32 771.903 549.596 781.679 550.682C790.368 551.768 791.454 553.216 791.454 564.44Z" fill="#F1A037" fill-opacity="0.63"/>
<path d="M821.143 538.011C819.695 539.097 818.608 553.216 818.608 568.784C818.608 594.489 819.333 597.023 825.85 597.023C832.367 597.023 833.091 594.489 833.091 575.301C833.091 559.009 834.539 552.854 838.521 551.406C841.418 549.958 843.952 545.976 843.952 542.355C843.952 537.287 841.418 535.476 833.815 535.476C828.022 535.476 822.229 536.563 821.143 538.011Z" fill="#F1A037" fill-opacity="0.63"/>
<path d="M887.399 542.717C887.399 548.872 889.933 549.958 906.588 550.32C925.415 550.682 925.415 551.044 910.933 553.216C890.295 556.475 887.399 559.371 887.399 575.301C887.399 591.593 893.916 597.023 913.467 597.023C934.828 597.023 938.449 591.231 937.363 562.63L936.277 537.287L912.019 536.201C889.209 535.114 887.399 535.839 887.399 542.717ZM922.88 574.215C923.605 577.473 920.346 578.921 913.105 578.921C902.243 578.921 898.985 575.663 904.416 570.232C908.398 566.612 921.07 569.146 922.88 574.215Z" fill="#F1A037" fill-opacity="0.63"/>
</svg>
