<svg width="3774" height="2336" viewBox="0 0 3774 2336" fill="none" xmlns="http://www.w3.org/2000/svg">
<path d="M1647.81 129.845C1438.76 271.938 1445.59 269.205 1296.66 229.583L1233.81 213.188L1098.54 288.333C1024.76 329.321 926.38 383.972 879.924 409.932L795.211 455.019L873.092 500.106C941.409 539.728 959.172 543.827 1019.29 536.996C1087.61 528.798 1090.34 530.164 1160.02 593.013C1248.83 672.257 1287.09 744.67 1295.29 848.507C1310.32 1007 1242 1124.5 1094.44 1199.64C964.637 1263.86 901.786 1265.22 670.875 1207.84C456.36 1154.55 277.37 1129.96 293.766 1157.29C299.231 1166.85 312.894 1173.68 325.191 1173.68C351.152 1173.68 554.736 1281.62 640.815 1340.37C867.627 1496.12 1095.81 1515.25 1328.08 1397.75C1363.61 1379.99 1446.95 1321.24 1513.9 1267.96C1714.76 1104 1819.96 1041.15 1937.47 1015.19C2076.84 983.769 2179.31 996.065 2399.29 1071.21C2496.3 1104 2578.28 1128.59 2582.38 1125.86C2589.21 1117.66 2489.47 885.397 2455.31 834.845C2440.28 810.252 2381.53 756.967 2328.24 715.978C2273.59 673.624 2220.3 627.17 2209.37 609.409C2198.44 593.013 2173.84 505.571 2153.35 415.397C2105.53 195.426 2109.63 204.99 2053.61 180.397C2024.91 168.1 1988.02 151.705 1970.26 143.507C1952.5 135.31 1919.71 99.7864 1897.84 62.8969C1874.62 27.3736 1852.76 -1.31822 1848.66 0.0480544C1843.19 0.0480544 1753.01 58.7981 1647.81 129.845ZM1860.95 110.717C1908.78 169.467 1877.35 285.6 1813.13 285.6C1772.14 285.6 1709.29 360.746 1572.66 571.153C1494.78 692.752 1426.46 791.124 1419.63 791.124C1389.57 791.124 1380 534.263 1404.6 415.397C1415.53 363.478 1427.83 352.548 1620.48 221.385C1733.88 144.874 1828.16 82.0248 1829.53 82.0248C1832.26 80.6585 1845.92 94.3213 1860.95 110.717ZM1231.07 375.775C1231.07 449.554 1229.71 450.92 1181.88 471.414C1143.63 487.81 1123.13 489.176 1087.61 476.879C1053.45 465.949 1032.95 465.949 1012.46 476.879C978.3 494.641 918.182 470.048 942.776 445.455C963.271 424.961 1192.82 301.996 1214.68 300.629C1225.61 299.263 1231.07 322.49 1231.07 375.775ZM1753.01 769.263C1729.79 875.833 1728.42 878.565 1664.2 918.188C1593.15 961.909 1522.1 970.106 1477.01 937.315C1449.69 918.188 1455.15 912.723 1609.55 770.629C1703.83 684.554 1772.14 631.269 1773.51 642.199C1776.24 653.129 1766.68 710.513 1753.01 769.263ZM2177.94 771.996L2243.53 834.845L2212.1 858.071C2182.04 878.565 2022.18 911.356 1937.47 912.722C1899.21 914.089 1900.58 911.356 1989.39 811.618C2039.94 755.6 2089.13 709.147 2097.33 709.147C2105.53 709.147 2142.42 737.839 2177.94 771.996ZM1468.82 1235.16C1225.61 1427.81 978.3 1471.53 782.914 1356.76C717.33 1318.51 713.231 1300.75 774.716 1325.34C833.469 1349.93 1045.25 1345.83 1162.76 1319.87C1218.78 1306.21 1314.42 1276.15 1374.54 1251.56C1487.94 1205.11 1513.9 1201.01 1468.82 1235.16Z" fill="#ECB977"/>
<path d="M2686.22 424.988C2683.49 434.552 2678.02 482.371 2676.66 531.557C2672.56 617.633 2671.19 620.366 2635.67 624.464C2597.41 628.563 2597.41 627.197 2597.41 553.418C2597.41 481.005 2596.04 476.906 2563.25 476.906C2530.46 476.906 2529.09 479.639 2529.09 562.982C2529.09 664.087 2552.32 695.511 2622 695.511H2665.73V777.488V858.098L2622 851.267C2597.41 847.168 2570.08 841.703 2560.52 838.97C2540.02 832.139 2540.02 832.139 2671.19 1124.52C2728.58 1251.59 2772.3 1359.52 2768.2 1362.26C2765.47 1364.99 2714.92 1340.39 2656.16 1306.24C2404.76 1158.68 2236.7 1102.66 2050.88 1102.66C1895.11 1102.66 1817.23 1134.09 1660.1 1258.42C1486.58 1399.14 1397.77 1478.39 1429.19 1467.46C1508.44 1440.13 1757.11 1392.31 1892.38 1378.65C2075.47 1360.89 2235.33 1374.55 2481.27 1427.84C2698.52 1474.29 2963.59 1486.59 3089.29 1455.16C3239.59 1418.27 3384.42 1337.66 3506.02 1224.26C3566.14 1168.24 3626.26 1104.03 3638.56 1080.8L3663.15 1039.81L3577.07 1067.14C3510.12 1090.37 3456.84 1095.83 3321.57 1095.83C3126.18 1094.46 3060.6 1078.07 2903.47 985.162C2764.1 903.185 2747.71 888.156 2747.71 853.999C2747.71 826.674 2755.91 821.209 2803.73 814.377C2835.15 810.278 2866.58 799.348 2872.04 788.418C2888.44 762.459 2887.07 602.604 2870.68 593.04C2841.98 575.278 2816.02 616.267 2816.02 676.383C2816.02 731.034 2813.29 736.499 2781.87 736.499C2749.07 736.499 2749.07 736.499 2744.98 576.645C2740.88 435.918 2738.14 415.424 2716.28 411.325C2703.99 408.592 2690.32 414.057 2686.22 424.988Z" fill="#ECB977"/>
<path d="M711.862 620.357C694.099 642.218 702.297 681.84 724.159 681.84C730.99 681.84 741.921 675.008 746.02 668.177C750.119 659.979 774.713 654.514 797.941 654.514L841.664 653.148L808.872 627.189C770.614 594.398 735.089 591.665 711.862 620.357Z" fill="#ECB977"/>
<path d="M944.134 661.352C927.738 681.846 930.471 684.579 1030.21 774.753C1076.67 815.741 1087.6 867.66 1060.27 910.015C1031.58 952.369 1009.72 944.172 994.689 885.422C971.461 793.881 955.065 763.823 929.104 763.823C897.679 763.823 896.312 776.119 926.372 838.968C944.134 875.858 945.501 890.887 933.203 903.183C920.906 915.48 912.708 907.282 896.312 867.66C868.986 802.079 821.164 778.852 773.342 810.276C709.124 852.631 741.916 896.352 808.867 855.363C832.095 841.701 838.926 843.067 856.689 864.927C894.946 918.212 867.619 1049.38 814.332 1069.87C758.312 1090.36 665.401 1075.33 531.501 1023.42C341.58 949.637 300.59 951.003 224.075 1030.25C191.283 1064.4 165.322 1098.56 165.322 1105.39C165.322 1112.22 191.283 1105.39 224.075 1091.73C301.956 1056.21 349.778 1057.57 584.788 1105.39C940.035 1177.81 1068.47 1151.85 1150.45 993.358C1213.3 871.759 1149.08 703.707 1022.02 655.887C971.461 636.759 964.629 636.759 944.134 661.352Z" fill="#ECB977"/>
<path d="M661.311 722.843C606.658 744.703 580.697 834.878 624.42 851.273C638.083 856.738 664.044 843.075 695.47 817.116C721.43 793.889 762.42 767.93 784.282 759.732C822.539 747.436 823.905 744.703 800.678 726.942C771.985 706.447 706.4 705.081 661.311 722.843Z" fill="#ECB977"/>
<path d="M154.396 1220.16C146.198 1228.35 109.307 1332.19 71.0495 1451.06L0 1668.29L23.2277 1728.41L46.4554 1788.53H1878.71H3712.34L3742.4 1725.68L3773.82 1662.83L3739.66 1516.64C3720.53 1437.39 3700.04 1341.75 3694.57 1303.5C3687.74 1258.41 3676.81 1233.82 3661.78 1231.09C3650.85 1229.72 3571.6 1273.44 3488.26 1328.09C3324.3 1438.76 3186.3 1502.98 3038.73 1537.13C2915.76 1565.82 2757.27 1554.89 2515.43 1501.61C2145.15 1419.63 2001.68 1416.9 1647.8 1486.58C1369.07 1542.6 1183.25 1561.73 1012.46 1552.16C843.03 1543.96 762.416 1518 623.049 1425.1C527.406 1360.88 254.139 1224.25 196.752 1210.59C180.356 1206.49 161.228 1210.59 154.396 1220.16Z" fill="#EAC697"/>
<path d="M127.07 2085.01C131.169 2235.3 132.535 2246.23 158.495 2246.23C183.09 2246.23 185.822 2235.3 189.921 2160.15C192.654 2097.31 199.486 2075.45 213.149 2075.45C224.08 2075.45 233.644 2063.15 233.644 2048.12C233.644 2033.09 224.08 2020.79 213.149 2020.79C199.486 2020.79 192.654 2005.77 192.654 1972.97C192.654 1930.62 188.555 1925.15 158.495 1925.15H122.971L127.07 2085.01Z" fill="#EAC697"/>
<path d="M247.302 2090.48C247.302 2253.06 247.302 2254.43 278.727 2250.33C306.054 2246.23 308.787 2238.03 312.886 2160.16C316.985 2080.91 318.351 2075.45 349.777 2075.45C382.569 2075.45 383.935 2079.55 383.935 2164.25C383.935 2244.86 386.668 2253.06 411.262 2253.06C438.589 2253.06 439.955 2246.23 435.856 2141.03L431.757 2027.63L374.371 2023.53C316.985 2019.43 315.619 2018.06 315.619 1971.61C315.619 1930.62 311.52 1925.16 281.46 1925.16H247.302V2090.48Z" fill="#EAC697"/>
<path d="M1091.71 1968.88C1087.61 2011.23 1083.51 2013.96 1026.12 2020.8L964.637 2027.63L960.538 2120.53C955.072 2232.57 968.736 2253.06 1042.52 2253.06C1143.63 2253.06 1149.09 2244.86 1149.09 2075.45C1149.09 1936.09 1147.73 1925.16 1123.13 1925.16C1102.64 1925.16 1094.44 1936.09 1091.71 1968.88ZM1091.71 2132.83C1095.81 2182.02 1094.44 2184.75 1054.81 2184.75C1013.82 2184.75 1012.46 2182.02 1012.46 2128.73C1012.46 2076.81 1013.82 2074.08 1050.72 2078.18C1082.14 2082.28 1087.61 2089.11 1091.71 2132.83Z" fill="#ECB977"/>
<path d="M1889.64 2084.99C1893.74 2240.74 1895.11 2246.21 1925.17 2250.31C1953.86 2254.41 1955.23 2250.31 1955.23 2165.6C1955.23 2094.55 1959.33 2075.42 1975.72 2075.42C1986.65 2075.42 1996.22 2063.13 1996.22 2048.1C1996.22 2033.07 1986.65 2020.77 1975.72 2020.77C1962.06 2020.77 1955.23 2005.74 1955.23 1972.95C1955.23 1930.6 1951.13 1925.13 1921.07 1925.13H1885.54L1889.64 2084.99Z" fill="#ECB977"/>
<path d="M3225.92 2089.11C3225.92 2243.5 3227.28 2253.06 3253.24 2253.06C3277.84 2253.06 3280.57 2243.5 3280.57 2164.25C3280.57 2094.57 3284.67 2075.45 3301.06 2075.45C3312 2075.45 3321.56 2063.15 3321.56 2048.12C3321.56 2033.09 3312 2020.8 3301.06 2020.8C3287.4 2020.8 3280.57 2005.77 3280.57 1972.98C3280.57 1934.72 3275.1 1925.16 3253.24 1925.16C3227.28 1925.16 3225.92 1934.72 3225.92 2089.11Z" fill="#EAC697"/>
<path d="M3583.9 2085.01C3588 2235.3 3589.37 2246.23 3615.33 2246.23C3641.29 2246.23 3642.65 2235.3 3646.75 2085.01L3650.85 1925.15H3615.33H3579.8L3583.9 2085.01Z" fill="#EAC697"/>
<path d="M495.975 2037.2C486.411 2046.77 479.579 2087.76 479.579 2130.11C479.579 2232.58 504.173 2255.81 603.916 2250.34C666.767 2246.25 677.698 2242.15 677.698 2218.92C677.698 2195.69 665.401 2190.23 609.381 2183.4L541.064 2176.57L588.886 2154.7C614.846 2143.77 647.639 2130.11 661.302 2126.01C687.262 2116.45 691.361 2086.39 670.866 2046.77C658.569 2026.27 640.807 2020.81 584.787 2020.81C545.163 2020.81 505.54 2027.64 495.975 2037.2ZM602.549 2089.12C575.223 2106.88 547.896 2106.88 547.896 2089.12C547.896 2080.93 564.292 2075.46 586.153 2075.46C614.846 2075.46 618.945 2078.19 602.549 2089.12Z" fill="#EAC697"/>
<path d="M711.856 2048.12C711.856 2071.35 721.421 2075.45 784.272 2076.81L855.322 2079.55L796.569 2089.11C730.985 2098.67 711.856 2117.8 711.856 2173.82C711.856 2227.1 744.649 2253.06 814.332 2253.06C894.946 2253.06 916.807 2228.47 916.807 2136.93C916.807 2023.53 914.074 2020.8 806.134 2020.8C721.421 2020.8 711.856 2023.53 711.856 2048.12ZM848.49 2164.25C848.49 2176.55 836.193 2184.75 814.332 2184.75C792.47 2184.75 780.173 2176.55 780.173 2164.25C780.173 2151.96 792.47 2143.76 814.332 2143.76C836.193 2143.76 848.49 2151.96 848.49 2164.25Z" fill="#ECB977"/>
<path d="M1209.21 2132.83C1246.1 2229.84 1257.03 2246.23 1284.35 2246.23C1311.68 2246.23 1322.61 2231.2 1355.4 2143.76C1401.86 2022.16 1403.23 2020.79 1367.7 2020.79C1349.94 2020.79 1334.91 2034.46 1326.71 2054.95C1318.51 2074.08 1306.22 2105.5 1298.02 2126L1282.99 2164.25L1255.66 2091.84C1233.8 2034.46 1222.87 2020.79 1196.91 2020.79H1165.48L1209.21 2132.83Z" fill="#ECB977"/>
<path d="M1431.92 2028.99C1426.45 2034.46 1422.35 2080.91 1422.35 2131.46C1422.35 2240.77 1434.65 2253.06 1543.96 2253.06C1609.54 2253.06 1613.64 2250.33 1613.64 2218.91C1613.64 2187.48 1608.17 2184.75 1550.79 2184.75C1477.01 2184.75 1481.1 2165.62 1560.35 2142.39C1612.27 2126 1615.01 2123.27 1610.91 2076.81L1606.81 2027.63L1524.83 2023.53C1478.37 2020.8 1437.38 2023.53 1431.92 2028.99ZM1538.49 2089.11C1534.39 2095.94 1518 2102.77 1502.97 2102.77C1487.94 2102.77 1479.74 2095.94 1483.84 2089.11C1487.94 2080.91 1504.33 2075.45 1519.36 2075.45C1534.39 2075.45 1542.59 2080.91 1538.49 2089.11Z" fill="#ECB977"/>
<path d="M1664.19 2028.99C1658.73 2034.46 1654.63 2087.74 1654.63 2146.49C1654.63 2243.5 1657.36 2253.06 1681.96 2253.06C1703.82 2253.06 1707.92 2242.13 1712.02 2166.99C1716.11 2086.38 1717.48 2082.28 1754.37 2078.18L1791.26 2074.08V2162.89C1791.26 2244.86 1794 2253.06 1818.59 2253.06C1845.92 2253.06 1847.28 2246.23 1843.18 2141.03L1839.08 2027.63L1757.1 2023.53C1710.65 2020.8 1669.66 2023.53 1664.19 2028.99Z" fill="#ECB977"/>
<path d="M2009.88 2115.07C2009.88 2227.1 2027.64 2253.06 2105.52 2253.06C2197.06 2253.06 2201.16 2248.96 2201.16 2128.73C2201.16 2030.36 2198.43 2020.8 2173.84 2020.8C2149.24 2020.8 2146.51 2030.36 2146.51 2102.77C2146.51 2180.65 2145.14 2184.75 2112.35 2184.75C2079.56 2184.75 2078.19 2180.65 2078.19 2102.77C2078.19 2024.89 2076.83 2020.8 2044.03 2020.8C2011.24 2020.8 2009.88 2023.53 2009.88 2115.07Z" fill="#ECB977"/>
<path d="M2255.82 2048.1C2247.63 2063.13 2242.16 2113.68 2244.89 2161.5C2248.99 2238.01 2251.72 2246.21 2280.42 2250.31C2309.11 2254.41 2310.48 2250.31 2310.48 2165.6C2310.48 2094.55 2314.58 2075.42 2330.97 2075.42C2341.9 2075.42 2351.47 2063.13 2351.47 2048.1C2351.47 2009.84 2276.32 2009.84 2255.82 2048.1Z" fill="#ECB977"/>
<path d="M2388.35 2028.99C2382.89 2034.46 2378.79 2080.91 2378.79 2131.46C2378.79 2240.77 2391.08 2253.06 2500.39 2253.06C2565.98 2253.06 2570.07 2250.33 2570.07 2218.91C2570.07 2187.48 2564.61 2184.75 2507.22 2184.75C2433.44 2184.75 2437.54 2165.62 2516.79 2142.39C2568.71 2126 2571.44 2123.27 2567.34 2076.81L2563.24 2027.63L2481.26 2023.53C2434.81 2020.8 2393.82 2023.53 2388.35 2028.99ZM2494.93 2089.11C2490.83 2095.94 2474.43 2102.77 2459.4 2102.77C2444.37 2102.77 2436.17 2095.94 2440.27 2089.11C2444.37 2080.91 2460.77 2075.45 2475.8 2075.45C2490.83 2075.45 2499.02 2080.91 2494.93 2089.11Z" fill="#ECB977"/>
<path d="M2619.26 2041.29C2615.16 2053.59 2611.06 2124.63 2611.06 2199.78C2611.06 2335.04 2611.06 2335.04 2645.22 2335.04C2673.92 2335.04 2679.38 2328.21 2679.38 2294.05C2679.38 2258.53 2684.85 2253.06 2717.64 2253.06C2788.69 2253.06 2803.72 2228.47 2799.62 2123.27L2795.52 2027.63L2712.17 2023.53C2645.22 2020.79 2626.09 2023.53 2619.26 2041.29ZM2747.7 2130.1C2747.7 2179.28 2744.97 2184.75 2713.54 2184.75C2683.48 2184.75 2679.38 2179.28 2679.38 2130.1C2679.38 2080.91 2683.48 2075.45 2713.54 2075.45C2744.97 2075.45 2747.7 2080.91 2747.7 2130.1Z" fill="#EAC697"/>
<path d="M2857.01 2046.75C2850.17 2061.78 2843.34 2104.14 2843.34 2141.03C2843.34 2221.64 2870.67 2253.06 2944.45 2253.06C3031.9 2253.06 3048.29 2236.67 3048.29 2143.76C3048.29 2024.89 3044.19 2020.8 2951.28 2020.8C2887.06 2020.8 2869.3 2026.26 2857.01 2046.75ZM2986.81 2130.1C2986.81 2172.45 2982.71 2177.92 2949.92 2182.02C2913.02 2186.11 2911.66 2183.38 2911.66 2130.1C2911.66 2076.81 2913.02 2074.08 2949.92 2078.18C2982.71 2082.28 2986.81 2087.74 2986.81 2130.1Z" fill="#EAC697"/>
<path d="M3098.85 2030.36C3093.38 2034.46 3089.28 2087.74 3089.28 2146.49C3089.28 2243.5 3092.01 2253.06 3116.61 2253.06C3141.2 2253.06 3143.94 2243.5 3143.94 2171.09C3143.94 2109.6 3149.4 2086.38 3164.43 2080.91C3175.36 2075.45 3184.93 2060.42 3184.93 2046.75C3184.93 2027.63 3175.36 2020.8 3146.67 2020.8C3124.81 2020.8 3102.95 2024.89 3098.85 2030.36Z" fill="#EAC697"/>
<path d="M3348.89 2048.12C3348.89 2071.35 3358.45 2075.45 3421.3 2076.81C3492.35 2078.18 3492.35 2079.55 3437.7 2087.74C3359.82 2100.04 3348.89 2110.97 3348.89 2171.09C3348.89 2232.57 3373.48 2253.06 3447.26 2253.06C3527.88 2253.06 3541.54 2231.2 3537.44 2123.27L3533.34 2027.63L3441.8 2023.53C3355.72 2019.43 3348.89 2022.16 3348.89 2048.12ZM3482.79 2166.99C3485.52 2179.28 3473.22 2184.75 3445.9 2184.75C3404.91 2184.75 3392.61 2172.45 3413.1 2151.96C3428.13 2138.3 3475.96 2147.86 3482.79 2166.99Z" fill="#EAC697"/>
</svg>
