<svg width="3529" height="411" viewBox="0 0 3529 411" fill="none" xmlns="http://www.w3.org/2000/svg">
<path d="M5.06971 160.009C9.16872 310.3 10.5351 321.23 36.4955 321.23C61.0895 321.23 63.8222 310.3 67.9212 235.155C70.6539 172.306 77.4856 150.446 91.1489 150.446C102.08 150.446 111.644 138.149 111.644 123.12C111.644 108.091 102.08 95.7944 91.1489 95.7944C77.4856 95.7944 70.6539 80.7653 70.6539 47.9746C70.6539 5.61991 66.5549 0.15479 36.4955 0.15479H0.970703L5.06971 160.009Z" fill="#ECB977" fill-opacity="0.71"/>
<path d="M125.302 165.475C125.302 328.062 125.302 329.429 156.727 325.33C184.054 321.231 186.787 313.033 190.886 235.156C194.985 155.911 196.351 150.446 227.777 150.446C260.569 150.446 261.935 154.545 261.935 239.254C261.935 319.865 264.668 328.062 289.262 328.062C316.589 328.062 317.955 321.231 313.856 216.028L309.757 102.626L252.371 98.5276C194.985 94.4288 193.619 93.0625 193.619 46.609C193.619 5.62063 189.52 0.15551 159.46 0.15551H125.302V165.475Z" fill="#ECB977" fill-opacity="0.71"/>
<path d="M969.706 43.8764C965.607 86.2311 961.508 88.9637 904.122 95.795L842.637 102.626L838.538 195.533C833.072 307.568 846.736 328.062 920.518 328.062C1021.63 328.062 1027.09 319.865 1027.09 150.446C1027.09 11.0857 1025.73 0.15551 1001.13 0.15551C980.637 0.15551 972.439 11.0857 969.706 43.8764ZM969.706 207.83C973.805 257.016 972.439 259.749 932.815 259.749C891.825 259.749 890.458 257.016 890.458 203.731C890.458 151.812 891.825 149.08 928.716 153.179C960.142 157.278 965.607 164.109 969.706 207.83Z" fill="#ECB977"/>
<path d="M1767.64 159.989C1771.74 315.745 1773.11 321.21 1803.17 325.309C1831.86 329.408 1833.23 325.309 1833.23 240.599C1833.23 169.553 1837.33 150.425 1853.72 150.425C1864.65 150.425 1874.22 138.128 1874.22 123.099C1874.22 108.07 1864.65 95.7737 1853.72 95.7737C1840.06 95.7737 1833.23 80.7447 1833.23 47.9539C1833.23 5.59927 1829.13 0.134149 1799.07 0.134149H1763.54L1767.64 159.989Z" fill="#ECB977"/>
<path d="M3103.92 164.109C3103.92 318.499 3105.28 328.062 3131.24 328.062C3155.84 328.062 3158.57 318.499 3158.57 239.254C3158.57 169.574 3162.67 150.446 3179.06 150.446C3190 150.446 3199.56 138.15 3199.56 123.121C3199.56 108.092 3190 95.795 3179.06 95.795C3165.4 95.795 3158.57 80.766 3158.57 47.9753C3158.57 9.71946 3153.1 0.15551 3131.24 0.15551C3105.28 0.15551 3103.92 9.71946 3103.92 164.109Z" fill="#ECB977" fill-opacity="0.71"/>
<path d="M3461.9 160.009C3466 310.3 3467.37 321.23 3493.33 321.23C3519.29 321.23 3520.65 310.3 3524.75 160.009L3528.85 0.15479H3493.33H3457.8L3461.9 160.009Z" fill="#ECB977" fill-opacity="0.71"/>
<path d="M373.975 112.205C364.411 121.769 357.579 162.757 357.579 205.112C357.579 307.583 382.173 330.809 481.916 325.344C544.767 321.245 555.698 317.146 555.698 293.92C555.698 270.693 543.401 265.228 487.381 258.396L419.064 251.565L466.886 229.705C492.846 218.774 525.639 205.112 539.302 201.013C565.262 191.449 569.361 161.391 548.866 121.769C536.569 101.274 518.807 95.8093 462.787 95.8093C423.163 95.8093 383.54 102.641 373.975 112.205ZM480.549 164.123C453.223 181.885 425.896 181.885 425.896 164.123C425.896 155.926 442.292 150.46 464.153 150.46C492.846 150.46 496.945 153.193 480.549 164.123Z" fill="#ECB977" fill-opacity="0.71"/>
<path d="M589.856 123.121C589.856 146.347 599.421 150.446 662.272 151.813L733.322 154.545L674.569 164.109C608.985 173.673 589.856 192.801 589.856 248.818C589.856 302.103 622.649 328.062 692.332 328.062C772.946 328.062 794.807 303.469 794.807 211.929C794.807 98.5277 792.074 95.7952 684.134 95.7952C599.421 95.7952 589.856 98.5277 589.856 123.121ZM726.49 239.254C726.49 251.551 714.193 259.749 692.332 259.749C670.47 259.749 658.173 251.551 658.173 239.254C658.173 226.958 670.47 218.76 692.332 218.76C714.193 218.76 726.49 226.958 726.49 239.254Z" fill="#ECB977"/>
<path d="M1087.21 207.829C1124.1 304.835 1135.03 321.23 1162.35 321.23C1189.68 321.23 1200.61 306.201 1233.4 218.76C1279.86 97.1607 1281.23 95.7944 1245.7 95.7944C1227.94 95.7944 1212.91 109.457 1204.71 129.951C1196.51 149.079 1184.22 180.504 1176.02 200.998L1160.99 239.254L1133.66 166.841C1111.8 109.457 1100.87 95.7944 1074.91 95.7944H1043.48L1087.21 207.829Z" fill="#ECB977"/>
<path d="M1309.92 103.993C1304.45 109.458 1300.35 155.911 1300.35 206.464C1300.35 315.766 1312.65 328.062 1421.96 328.062C1487.54 328.062 1491.64 325.33 1491.64 293.906C1491.64 262.481 1486.17 259.749 1428.79 259.749C1355.01 259.749 1359.1 240.621 1438.35 217.394C1490.27 200.999 1493.01 198.266 1488.91 151.813L1484.81 102.627L1402.83 98.5277C1356.37 95.7951 1315.38 98.5277 1309.92 103.993ZM1416.49 164.109C1412.39 170.94 1396 177.772 1380.97 177.772C1365.94 177.772 1357.74 170.94 1361.84 164.109C1365.94 155.911 1382.33 150.446 1397.36 150.446C1412.39 150.446 1420.59 155.911 1416.49 164.109Z" fill="#ECB977"/>
<path d="M1542.19 103.993C1536.73 109.458 1532.63 162.743 1532.63 221.493C1532.63 318.499 1535.36 328.062 1559.96 328.062C1581.82 328.062 1585.92 317.132 1590.02 241.987C1594.11 161.377 1595.48 157.278 1632.37 153.179L1669.26 149.08V237.888C1669.26 319.865 1672 328.062 1696.59 328.062C1723.92 328.062 1725.28 321.231 1721.18 216.028L1717.08 102.627L1635.1 98.5277C1588.65 95.7951 1547.66 98.5277 1542.19 103.993Z" fill="#ECB977"/>
<path d="M1887.88 190.068C1887.88 302.103 1905.64 328.062 1983.52 328.062C2075.06 328.062 2079.16 323.964 2079.16 203.731C2079.16 105.359 2076.43 95.7952 2051.84 95.7952C2027.24 95.7952 2024.51 105.359 2024.51 177.772C2024.51 255.65 2023.14 259.749 1990.35 259.749C1957.56 259.749 1956.19 255.65 1956.19 177.772C1956.19 99.894 1954.83 95.7952 1922.03 95.7952C1889.24 95.7952 1887.88 98.5277 1887.88 190.068Z" fill="#ECB977"/>
<path d="M2133.82 123.099C2125.63 138.128 2120.16 188.681 2122.89 236.501C2126.99 313.012 2129.72 321.21 2158.42 325.309C2187.11 329.408 2188.48 325.309 2188.48 240.599C2188.48 169.553 2192.58 150.425 2208.97 150.425C2219.9 150.425 2229.47 138.128 2229.47 123.099C2229.47 84.8435 2154.32 84.8435 2133.82 123.099Z" fill="#ECB977"/>
<path d="M2266.35 103.993C2260.89 109.458 2256.79 155.911 2256.79 206.464C2256.79 315.766 2269.08 328.062 2378.39 328.062C2443.98 328.062 2448.07 325.33 2448.07 293.906C2448.07 262.481 2442.61 259.749 2385.22 259.749C2311.44 259.749 2315.54 240.621 2394.79 217.394C2446.71 200.999 2449.44 198.266 2445.34 151.813L2441.24 102.627L2359.26 98.5277C2312.81 95.7951 2271.82 98.5277 2266.35 103.993ZM2372.93 164.109C2368.83 170.94 2352.43 177.772 2337.4 177.772C2322.37 177.772 2314.17 170.94 2318.27 164.109C2322.37 155.911 2338.77 150.446 2353.8 150.446C2368.83 150.446 2377.02 155.911 2372.93 164.109Z" fill="#ECB977"/>
<path d="M2497.26 116.289C2493.16 128.586 2489.06 199.632 2489.06 274.777C2489.06 410.039 2489.06 410.039 2523.22 410.039C2551.92 410.039 2557.38 403.208 2557.38 369.051C2557.38 333.527 2562.85 328.062 2595.64 328.062C2666.69 328.062 2681.72 303.469 2677.62 198.266L2673.52 102.626L2590.17 98.5275C2523.22 95.7949 2504.09 98.5275 2497.26 116.289ZM2625.7 205.097C2625.7 254.283 2622.97 259.748 2591.54 259.748C2561.48 259.748 2557.38 254.283 2557.38 205.097C2557.38 155.911 2561.48 150.446 2591.54 150.446C2622.97 150.446 2625.7 155.911 2625.7 205.097Z" fill="#ECB977" fill-opacity="0.71"/>
<path d="M2735.01 121.754C2728.17 136.784 2721.34 179.138 2721.34 216.028C2721.34 296.638 2748.67 328.062 2822.45 328.062C2909.9 328.062 2926.29 311.667 2926.29 218.76C2926.29 99.894 2922.19 95.7952 2829.28 95.7952C2765.06 95.7952 2747.3 101.26 2735.01 121.754ZM2864.81 205.097C2864.81 247.452 2860.71 252.917 2827.92 257.016C2791.02 261.115 2789.66 258.382 2789.66 205.097C2789.66 151.813 2791.02 149.08 2827.92 153.179C2860.71 157.278 2864.81 162.743 2864.81 205.097Z" fill="#ECB977" fill-opacity="0.71"/>
<path d="M2976.85 105.359C2971.38 109.458 2967.28 162.743 2967.28 221.493C2967.28 318.499 2970.01 328.062 2994.61 328.062C3019.2 328.062 3021.94 318.499 3021.94 246.086C3021.94 184.603 3027.4 161.377 3042.43 155.911C3053.36 150.446 3062.93 135.417 3062.93 121.754C3062.93 102.627 3053.36 95.7952 3024.67 95.7952C3002.81 95.7952 2980.95 99.894 2976.85 105.359Z" fill="#ECB977" fill-opacity="0.71"/>
<path d="M3226.89 123.121C3226.89 146.348 3236.45 150.446 3299.3 151.813C3370.35 153.179 3370.35 154.545 3315.7 162.743C3237.82 175.039 3226.89 185.97 3226.89 246.086C3226.89 307.568 3251.48 328.062 3325.26 328.062C3405.88 328.062 3419.54 306.202 3415.44 198.266L3411.34 102.627L3319.8 98.5278C3233.72 94.429 3226.89 97.1615 3226.89 123.121ZM3360.79 241.987C3363.52 254.283 3351.22 259.749 3323.9 259.749C3282.91 259.749 3270.61 247.452 3291.1 226.958C3306.13 213.295 3353.96 222.859 3360.79 241.987Z" fill="#ECB977" fill-opacity="0.71"/>
</svg>
